<?xml version="1.0" encoding="utf-8"?>
<!-- Generator: Adobe Illustrator 24.3.0, SVG Export Plug-In . SVG Version: 6.00 Build 0)  -->
<svg version="1.1" id="Layer_1" xmlns="http://www.w3.org/2000/svg" xmlns:xlink="http://www.w3.org/1999/xlink" x="0px" y="0px"
	 viewBox="0 0 2268 907" style="enable-background:new 0 0 2268 907;" xml:space="preserve">
<style type="text/css">
	.st0{fill:#00C897;}
	.st1{fill:none;}
	.st2{fill:#FFFFFF;}
	.st3{fill:#A5C8FE;}
	.st4{fill:#E76061;}
	.st5{fill:#FECECE;}
	.st6{fill:#E8CFBC;}
	.st7{fill:#280A54;}
	.st8{fill:#FEC38F;}
	.st9{fill:#230751;}
	.st10{fill:#230850;}
	.st11{fill:#E75F5F;}
	.st12{fill:#E8CFBB;}
	.st13{fill:#270B54;}
	.st14{fill:#270953;}
	.st15{fill:#240952;}
	.st16{fill:#E1E1E1;}
	.st17{fill:#260953;}
	.st18{fill:#250952;}
	.st19{fill:#351C5E;}
	.st20{fill:#250951;}
	.st21{fill:#240951;}
	.st22{fill:#E7CFBB;}
	.st23{fill:#270B53;}
	.st24{fill:#A5C8FC;}
	.st25{fill:#270A54;}
	.st26{fill:#260A53;}
	.st27{fill:#270C53;}
	.st28{fill:#250B52;}
	.st29{fill:#260C53;}
	.st30{fill:#260B52;}
	.st31{fill:#270C54;}
	.st32{fill:#270D54;}
	.st33{fill:#260B54;}
	.st34{fill:#270D53;}
	.st35{fill:#2D1357;}
	.st36{fill:#2B1255;}
	.st37{fill:#2C1357;}
	.st38{fill:#270E54;}
	.st39{fill:#321356;}
	.st40{fill:#A1C1F1;}
	.st41{fill:#A8C4F3;}
	.st42{fill:#F7F9FC;}
	.st43{fill:#FDFDFD;}
	.st44{fill:#290E54;}
	.st45{fill:#2D0F55;}
	.st46{fill:#F2EFF1;}
	.st47{fill:#2E1055;}
	.st48{fill:#2E1257;}
	.st49{fill:#E7CEBB;}
	.st50{fill:#FBF8F5;}
	.st51{fill:#331457;}
</style>
<g>
	<circle class="st0" cx="1173.28" cy="457.97" r="304"/>
	<rect x="899.28" y="-97.03" class="st1" width="804" height="973"/>
	<path class="st2" d="M1033.4,639.37l-2.65,4.05c0,0,4.38,27.22,13.07,28.44c8.69,1.22,26.55,13.15,26.55,13.15l20.04-9.28
		l19.9-1.05l29.21-11.27l6.38-9.93h3.6c0,0,30.51,5.19,57.57,5.21c27.06,0.02,59.74-7.11,59.74-7.11l4.65-1.04l24.81,5.6
		l28.43,17.13l38.8-7.95c0,0,16.89-13.23,22.55-24.05c5.66-10.82,4.67-34.3,4.67-34.3s22.03-13.58,25.44-41.72
		s-20.26-50.68-20.26-50.68l-3.22-12.12c0,0-6.82-38.07-31.44-45.45s-37.69-13.45-44.32-9.09c-6.63,4.36-1.58-1.33-1.58-1.33
		l1.01-6.05l-30.68,10.89c0,0-3.22-11.83-9.28-13.73c-6.06-1.89-14.01-4.73-14.01-4.73s-6.64-18.6-15.15-19.32
		s-10.23-6.6-35.42,9.01c0,0-17.23,4.06-24.05,9.36c-6.82,5.3-12.53,18.92-12.53,18.92l-1.49,19.72v-3.6l-1.56-2.7l-1.73-2.25
		l-14.04-5.5l-13.87,3.11l-6.22,1.75l-11.73,2.45l-9.73-1.82l-11.39,7.13l-5.11-13.75l-4.36-6.99l-15.37-9.99l-16.07-18.11
		l-21.84-11.29l-9.97-11.56l-12.31-2.84l-7.9-0.62c0,0-12.48-9.8-25.2-8.85s-14.81,7.88-14.81,7.88s-6.81-3.13-13.45-3.15
		c-6.64-0.01-14.18,13.39-14.39,15.75s-11.71,2.6-11.71,2.6s-6.66,2.82-6.57,10.7c0.09,7.88,7.48,16.77,7.48,16.77
		s10.8,2.29,12.88,1.15s5.12-2.57,5.12-2.57l14.9,10.79l20.54-2.63l15.69-12.93l-4.3,21.36l-13.32,26.88l-6.63,17.05
		c0,0-1.89,30.87,17.8,42.61c19.7,11.74,27.27-5.49,27.27-5.49l-21.4,1.76c0,0-17.12,30.09-4.96,46.93"/>
	<path class="st3" d="M1171.76,362.62c-3.78,6.43-3.5,14-5.84,20.84c-4.07,11.87-0.54,23.65,0.47,35.45
		c0.77,8.97,2.97,17.8,2.75,26.87c-2.55,1.77-4.52,0.25-5.51-1.7c-4.83-9.44-14.39-12.12-22.85-16.4c-0.98-0.5-2.05-0.83-3.08-1.23
		c-9.89-3.85-18.37-8.48-20-20.88c-0.84-6.39-4.34-12.54-9.89-16.82c-5.97-6.33-10.37-13.86-15.23-20.97
		c-8.6-12.6-17.76-24.81-26.15-37.55c-1.87-2.83-3.73-5.65-1.25-9.08c0.85-1.09,1.78-2.12,2.55-3.28
		c12.5-15.93,17.57-34.77,21.48-54.12c3.84-19.02,8.84-37.8,12.01-56.96c1.08-6.5,2.48-12.99,1.29-19.78
		c-1.12-6.39-3.76-11.91-7.27-17.2c-1.19-1.79-3-3.38-2.63-5.9c4.33-0.08,8.67-0.16,13-0.23c7.9,3.07,10.13,10.23,11.03,17.32
		c2.16,17.01,0.54,33.83-4.99,50.17c-3.64,3.71-3.54,8.79-4.79,13.36c-0.93,3.38-1.49,6.85-1.91,10.37
		c1.67-4.89,2.93-9.89,4.04-14.93c0.54-2.47,0.49-5.23,2.77-7.05c1.64-0.68,3.27-0.32,4.88,0.06c17.53,4.1,35.09,8.08,52.71,11.79
		c1.44,0.3,2.87,0.66,4.11,1.49c2.31,2.71,0.66,5.65,0.35,8.46c-0.38,3.43-1.12,6.81-1.35,10.26c1.07-6.61,3.84-13.01,2.44-19.95
		c1.36-8.75,3.23-17.4,4.55-26.16c0.87-5.77-1.63-11.38,0.15-17c3.57-1.16,6.98-0.49,10.34,0.87c5,7.21,3.66,15.41,2.59,23.07
		c-2.33,16.81-5.25,33.52-6.64,50.46c-0.78,9.53-1.5,19.08-2.9,28.55c0.05,3.5-0.96,6.78-2.29,9.97c-0.96,2.3-1.18,4.52,0.23,6.71
		c-1.28,11.38-4.4,22.37-7.12,33.44c-0.92,1.98-1.02,4.15-1.33,6.27C1172.34,361.72,1172.1,362.19,1171.76,362.62z"/>
	<path class="st4" d="M1092.6,163.91c10.6,11.47,13.56,24.95,10.76,40.06c-5.16,27.74-11.33,55.27-18.09,82.65
		c-2.94,11.92-8.88,22.65-16.78,32.17c-0.56,0.09-1.28,0.2-1.6-0.17c-5.02-5.66-11.29-3.92-17.49-3.13
		c-10.75,1.37-21.05,3.92-30.01,10.41c6.95-3.84,14.25-6.71,22.02-8.38c4.9-1.05,9.88-1.42,14.83-1.98
		c1.93-0.22,4.65-0.46,5.24,1.93c0.71,2.83-2.25,2.91-4,3.52c-12.01,4.15-23.09,9.92-32.72,18.31c-1.2,1.05-2.36,2.5-4.33,1.7
		c-0.47-1.34-0.94-2.69-1.42-4.03c-0.17-0.32-0.3-0.83-0.56-0.91c-5.92-1.82-8.66-6.1-9.36-11.99c-1.67-1.17-3.35-2.34-5.02-3.5
		c0.94-3.31,3.97-4.24,6.56-5.46c10.6-4.99,21.4-9.32,33.47-8.65c0.72,0.04,1.47,0,2.38-0.88c-5.95-1.44-11.41,0.14-16.75,1.48
		c-5.36,1.35-10.62,3.2-15.66,5.57c-2.42,1.14-5.2,3.1-7.29-0.37c-2.18-3.63-0.45-6.34,2.68-8.42c7.26-4.81,15.42-7.22,23.93-8.19
		c9.33-1.07,18.46,0.31,27.22,3.75c2.8,1.1,6.15,2.23,2.51,6.13c-0.91,0.98-0.82,2.04,0.47,2.7c0.94,0.48,1.58,0.15,2.32-0.7
		c3.15-3.62,3.17-4.83-0.96-7.96c-2.8-2.12-1.97-4.44-1.01-6.91c4.23-10.86,8.67-21.63,12.96-32.46c0.34-0.86,0.7-1.71,0.87-3.82
		c-5.44,11.96-9.37,23.34-14.08,34.39c-2.57,6.04-3.68,6.93-10,5.68c-14-2.78-27.58-2.15-40.56,4.4c-1.43,0.72-2.99,1.65-4.68,0.45
		c7.24-18.24,7.75-37.88,11.72-56.8c2.65-12.64,5.21-25.3,7.91-37.94c2.75-12.9,10.19-21.63,21.25-28.22
		C1062.76,170.33,1077.05,165.34,1092.6,163.91z"/>
	<path class="st5" d="M1247.18,144.51c-4.23,6.62-6.9,14.2-12.38,20.06c-1,1.07-1.72,2.49-2.87,3.33
		c-5.39,3.95-8.28,8.99-7.42,15.83c-3.24-1-1.53-4.13-2.62-6.06c-0.62,11.21-0.63,11.26-12.14,9.78c-3.16-0.41-5.82,0.4-8.29,2.25
		c-3.7,2.76-7.57,5.32-11.14,8.22c-4.03,3.29-7.5,2.8-11.5,0.09c-8.24-5.59-15.24-12.09-17.82-22.26c0.2,4.94,2.13,9.01,5.4,12.49
		c1.5,1.59,3.3,3.04,3.43,5.51c-2.33,5-2.97,10.11-2.01,15.63c1.08,6.21-2.98,9.66-9.36,8.45c-6.73-1.27-11.81-5.52-16.2-10.19
		c-10.08-10.7-18.49-22.62-23.61-36.58c-0.76-2.07-1.66-4.16-0.66-6.43l-0.01,0.05c7.06-5.79,15.4-9.51,23.43-13.52
		c7.39-3.69,12.49-8.83,15.97-16.08c1.42-2.95,2.79-6.2,7.41-4.65c6.23,2.09,7.41,3.41,7.04,9.21c-0.31,4.84-0.45,9.65,3.16,13.81
		c-5.71-10.51-2.21-19.02,5.89-26.07c8.2-7.13,17.71-4.61,21.6,5.55c0.97,2.54,1.97,2.75,3.97,1.46c3.42-2.2,6.75-4.53,10.17-6.73
		c2.2-1.42,4.38-1.84,6.72-0.34c7.31,4.68,14.69,9.27,21.95,14.04C1246.39,142.09,1247.34,143,1247.18,144.51z"/>
	<path class="st6" d="M989.22,763.38c5.2-5.56,5.36-13.11,7.56-19.79c8.08-24.52,10.01-50.28,14.44-75.54
		c0.55-3.12,1.4-4.8,4.66-4.7c6.05-3.05,12.43-1.28,18.68-1.31c2.79,0.49,4.32,2.68,5.99,4.59c4.61,5.27,10.12,9.06,16.97,10.7
		c3.58,0.86,5.79,3.03,6.8,6.49c1.27,4.37,3.57,8.51,3.09,13.3c-2.88,10.27-5.39,20.64-8.05,30.97c-1.08,4.19-1.37,8.84-5.33,11.77
		c-8.43,1.65-16.96,0.17-24.34,0.76c5.93,0.04,12.95-0.09,19.97,0.04c6.76,0.13,7.71,1.48,6,8.17c-0.96,3.76-2.11,7.47-3.21,11.19
		c-0.96,3.25-3.14,4.91-6.52,4.94c-17.38,0.14-34.75,0.09-52.13,0.02C992.11,765,990.51,764.6,989.22,763.38z"/>
	<path class="st7" d="M1247.18,144.51c-8.19-5.33-16.41-10.6-24.53-16.02c-1.87-1.25-3.18-0.98-4.92,0.21
		c-4.86,3.31-9.85,6.43-14.75,9.6c-0.43-0.48-0.84-0.72-0.87-1.01c-0.56-6-2.81-10.95-9.24-12.26c-6.34-1.29-11.09,1.98-14.82,6.72
		c-5.58,7.08-5.83,13-1.19,20.93c0.79,1.35,2.6,2.93,0.42,4.17c-1.92,1.09-2.84-0.98-3.76-2.31c-3.57-5.18-4.71-10.83-2.76-16.85
		c1.66-5.1-3.12-3.88-5.08-5.22c-1.77-1.21-4.36-3.08-5.71,0.74c-4.23,11.99-14.06,17.87-24.76,22.83
		c-5.83,2.7-10.86,6.98-17.21,8.64c-2.02-3.02,0.53-3.75,2.41-4.79c8.57-4.75,17.11-9.55,25.73-14.21c2.37-1.28,3.79-3.21,5.42-5.28
		c10.41-13.18,13.21-29.28,17.52-44.78c2.41-8.66,7.55-13.64,16.59-14.66c6.8-0.76,13.57-1.86,20.36-2.76
		c6.5-0.87,11.87,1.01,16.44,5.96c9.42,10.2,19.1,20.15,28.68,30.2c5.98,6.28,8.39,6.97,15.94,3.18c2.92-1.46,3.75,0.58,4.94,1.85
		c5.34,5.69,5.84,15.09,1.34,21.56c-4.65,6.69-13.63,9.26-21.24,6.03C1250.43,146.26,1248.82,145.34,1247.18,144.51z"/>
	<path class="st4" d="M1181.71,305.87c2.26-23.87,3.46-47.84,7.88-71.5c1.99-10.67,3.92-21.55-0.76-32.16
		c0.18-0.52,0.54-0.81,1.11-0.83c4.26,3.52,8.3,7.35,12.82,10.49c7.56,5.26,10.75,12.59,12.19,21.37
		c3.28,20.07,4.59,40.32,6.24,60.54c1.35,16.55,2.3,33.13,3.43,49.7c-1.39,1.58-3.3,1.52-5.11,1.47
		c-15.71-0.4-29.64,4.27-41.65,14.49c-0.71,0.6-1.55,0.97-2.48,1.12c-2.66-0.55-3.06-2.48-2.88-4.76
		c2.53-11.49,5.05-22.98,7.58-34.47c0.36-6.73,3.55-12.7,5.28-19.06c4.31-15.91,7.63-31.98,9.73-48.3c0.16-1.2,0.66-2.5-0.7-4.1
		c-0.57,14.82-3.75,28.79-7.23,42.66C1186,297.13,1186.35,302.59,1181.71,305.87z"/>
	<path class="st8" d="M1284.81,758.96c0.01-0.73,0.02-1.46,0.03-2.2c0.98-0.72,2.44-0.5,3.25-1.71c-1.05-0.4-2.34,0.63-3.21-0.54
		c0.23-8.95-1-17.94,0.9-26.84c3.04,4.31,0.85,9.12,1.42,13.27c-0.36-4.48,3.05-9.7-1.43-14.2c-0.08-0.36-0.08-0.72,0-1.09
		c3.79-2.77,0.74-6.16,0.81-9.27c0.1-3.84-0.76-7.75,0.85-11.47c4.16-0.89,9.47,2.8,9.54,7.73c0.09,6.12,1.51,12.55-1.97,18.34
		c-0.63,1.05-0.57,2.06-0.2,3.17c2.97,8.98,2.15,18.24,2.12,26.08c-0.11-5.96,0.87-13.31-0.79-20.58c-0.34-1.46-0.46-3.02,0.23-4.36
		c1.82-3.54,2.42-7.28,2.69-11.22c0.23-3.44,1.98-6.42,5.95-5.7c3.89,0.71,4.83,4,3.64,7.36c-1.56,4.41,0.02,9.75-4.1,13.4
		c-0.64,0.57-0.48,1.8-0.21,2.68c1.99,6.62,0.18,12.68-2.69,18.59c-1.66,3.42,0.45,6.03,1.89,8.78c0.83,2.66,2.69,3.72,5.42,3.73
		c13.99,0.03,27.99-0.04,41.98,0.03c4.14,0.02,4.35-1.8,3.49-5.24c-2.25-8.92-5.69-17.51-7.24-26.61c0.8-3.55,0.01-6.96-0.97-10.34
		c-4.17-14.36-8.32-28.72-12.41-43.1c-0.82-2.88-2.54-4.8-4.82-6.5c-8.6-6.38-17.41-12.48-25.81-19.14
		c-1.82-1.44-5.15-2.46-3.61-5.88c1.07-2.38,6.83-2.9,9.51-0.66c4.14,3.46,8.62,6.32,13.31,8.91c6.2,1.58,12.02,5.1,18.81,3.69
		c5.2,0.89,10.26,0.29,15.3-1.13c6.97-1.97,7.59-1.28,10.95,5.29c3.65,7.14,4.94,14.49,4.55,22.41c-0.31,6.24-0.37,12.54,0.67,18.76
		c-2.09,19.89,3.23,38.73,8.07,57.66c0.86,3.38,2.9,3.56,5.69,3.54c16.82-0.08,33.65-0.05,50.47-0.01c1.8,0.01,3.7-0.53,5.41,0.56
		c-1.22,2.13-3.35,2.09-5.36,2.09c-44.67-0.09-89.35,0.32-134.02-0.18c-3.93-1.31-8.01-1.12-12.06-1.06
		c-4.05,0.05-5.77-1.33-4.48-5.66C1287.55,766.43,1288.33,762.34,1284.81,758.96z"/>
	<path class="st8" d="M945.99,434.34c1.07-0.69,2.14-1.39,3.21-2.08c2.51,0.06,3.17,2.31,4.39,3.81
		c10.9,13.44,26.7,13.31,36.92-0.67c2.79-3.82,5.85-5.39,10.52-5.82c11.96-1.12,23.98-1.42,35.9-2.97c0.73-0.1,1.48-0.14,2.22-0.12
		c3.01,0.07,6.45-0.01,7.05,3.81c0.66,4.22-3.08,4.47-5.88,5.05c-6.89,1.41-13.86,2.35-20.79,3.56c-6.7,1.17-13.45,2.14-20.1,3.63
		c7.15-0.2,14.02-2.4,21.11-3.06c1.29-0.12,2.55-0.48,3.85-0.46c1.3,0.01,2.85-0.01,3.43,1.29c0.75,1.68-0.67,2.77-1.83,3.63
		c-7.26,5.4-15.53,7.56-25.06,7.46c2.66,1.12,5.51,0.01,7.26,2.2c0.36,1.23,0.62,2.5,1.1,3.68c1.28,3.13,1.13,4.54-3.02,5.4
		c-8,1.67-12.55,7.44-13.61,15.46c-0.37,2.81-1.24,4.05-3.89,5c-8.65,3.09-11.88,8.59-10.97,17.82c-7.85,0.55-14.92,4.01-22.38,6
		c-2.71,0.72-4.05,3.06-5.26,5.4c-1.21,2.33-2.66,4.45-5.12,5.64c-1.36,0.66-2.89,1.26-4.18,0.18c-1.61-1.36-0.22-2.75,0.51-3.88
		c3.21-5,5.63-10.36,7.57-15.97c-2.72,4.62-4.46,9.78-7.73,14.08c-2.04,2.68-3.48,6.64-8.13,4.62c-3.47-1.51-5.51-6.72-4.55-10.96
		c0.83-3.68,3.44-6.5,4.78-9.9c-0.39-0.32-0.6-0.17-0.93,0.18c-1.54,1.6-2.08,5.12-5.17,3.95c-2.78-1.05-2.68-4.14-2.77-6.74
		c-0.12-3.42,1.11-6.51,2.31-9.62C933.12,467.36,940.49,451.21,945.99,434.34z"/>
	<path class="st5" d="M1066.12,321.7c-2.26,2.87-0.45,5.01,1.17,7.32c13.06,18.62,26.08,37.26,39.1,55.91
		c0.73,1.05,1.3,2.22,1.95,3.34c9.09,14,13.8,29.11,12.42,46.01c-0.78,9.54-2.87,11.65-12.34,10.61c-9.15-1-14.87-6.6-19.14-14.18
		c-2.37-4.87-1.99-10.16-2.27-15.34c2.14-6.31,0.49-12.55-0.13-19.19c-1.29,1.26-0.77,2.75-1.61,3.69
		c-0.88,1.05-1.92,0.67-2.96,0.36c-3.83-1.85-5.58-5.77-8.46-8.59c-12.36-12.13-24.54-24.45-36.8-36.67
		c-2.1-2.09-4.09-4.23-5.45-6.89c-1.62-2.38-3.6-4.39-6.06-5.91c-0.13-1.89,1.07-3.08,2.35-4.13c9.64-7.95,20.48-13.62,32.59-16.74
		C1062.26,320.84,1064.39,319.77,1066.12,321.7z"/>
	<path class="st5" d="M1223.67,411.19c-6.56-6.69-14.71-11.24-22.25-16.62c-0.33-3.38,2.1-5.47,4.07-7.41
		c7.24-7.11,15.09-13.49,24.45-17.71c1.48-0.67,2.96-1.64,4.68-0.63c9.36,8.85,18.73,17.69,28.08,26.54
		c7.24,6.85,14.48,13.69,21.69,20.57c1.1,1.05,2.21,1.96,3.78,2.11c0.95,2.52,2.8,4.19,4.95,5.73c6.28,4.5,12.67,8.84,18.98,13.31
		c3.01,2.13,4.28,4.5,2.25,7.9c-5.58,9.33-9.91,19.3-15.02,28.87c-0.73,1.36-1.2,3.24-3.42,2.99c-3.89-4.68-7.09-9.76-8.94-15.61
		c-0.74-3.24-0.18-6.61-1.31-9.84c-2.94-8.43-8.6-14.09-17.02-16.91c-3.02-1.01-4.92-2.64-6.16-5.71
		c-5.7-14.05-18.8-20.77-33.59-17.53C1227.17,411.62,1225.4,412.71,1223.67,411.19z"/>
	<path class="st3" d="M1031.6,348.08c10.41,9.01,19.5,19.36,29.32,28.97c7.35,7.19,14.43,14.66,21.62,22.01
		c-0.29,3.02-2.91,2.23-4.63,2.69c-5.4,1.43-8.34,4.31-9.03,9.2c-0.56,4,2.02,8.34,6.2,10.87c4.7,2.84,10.4,3.94,14.28,8.19
		c3.7,11.57,16.75,18.81,28.77,15.93c1.06-0.25,2.06-0.77,3.19-0.73c6.65,2.66,12.5,6.93,19.19,9.54c1.62,0.63,3.45,1.81,1.89,4.18
		c-5.43,0.56-10.44-0.75-15.57-2.58c-8.39-3-17.05-3.95-25.67-0.43c-2.64-0.38-3.19-2.82-4.35-4.56
		c-5.32-7.98-12.81-12.29-22.19-13.69c-2.15-0.32-3.98,0.01-5.68,1.29c-4.21-10.18-11.63-16.82-22.16-20.01
		c-1.75-2.03-1.94-4.71-2.94-7.05c-4.55-10.63-12.5-16.35-24.11-16.96c-2.11-0.11-4.48,0.48-6.04-1.7c5.73-0.22,6.8-3.39,7-8.73
		C1021.2,371.54,1025.7,359.55,1031.6,348.08z"/>
	<path class="st4" d="M1118.01,164.63c5.87,18.36,16.02,33.92,30.51,46.64c3.14,2.76,6.75,4.6,10.81,5.31
		c5.44,0.95,8.11-1.79,7.1-7.17c-1.05-5.58-1.79-11.04,2.92-15.51c4.87,0.9,8.36,3.71,10.9,7.85c2.59,15.07-0.87,29.56-4.27,44.05
		c-0.47,1.06-1.19,1.68-2.43,1.4c-20.6-4.59-41.2-9.17-61.8-13.76c-1.25-0.23-1.37-1.17-1.35-2.19c3.87-14.44,6.14-29.06,5.6-44.08
		c-0.34-9.3-3.77-17.06-10.38-23.5C1109.74,164,1113.87,164.31,1118.01,164.63z"/>
	<path class="st9" d="M1288.16,704.53c-0.35,4.27-0.81,8.55-0.18,12.83c-1.3,1.81,1.07,5.03-2.32,6.04c-2.7-1.26-1.94-3.72-1.9-5.82
		c0.28-12.56,0.54-25.12,1.02-37.67c0.12-3.17-0.83-5.57-2.59-8.12c-4.38-6.35-9.69-12.12-13-19.15c-0.72-1.53-1.31-1.4-2.38-1.06
		c-36.88,11.58-74.31,10.44-111.94,4.94c-6.46-0.15-5.62,4.92-6.33,8.88c-1.37,22.49-9.27,43.18-17.6,63.74
		c-3.34,8.25-3.3,8.19,5.78,8.33c3.03,0.05,6.35-0.93,8.95,1.65c0.2,0.32,0.4,0.65,0.6,0.97c0.42,2.49-1.25,3.14-3.16,3.53
		c-1.62,0.33-3.28,0.4-4.9,0.26c-6.09-0.54-11.87,0.38-17.2,3.48c-3.88-1.57-2.48-4.43-1.54-6.97c5.14-13.88,10.42-27.7,15.76-41.51
		c4.67-12.08,4.43-25.08,7.57-38.42c-9.49,8.94-19.65,14.73-32.08,15.68c-2.54,0.19-3.24,1.99-2.25,3.94
		c5.96,11.78,1.75,23.18-1.15,34.59c-3.15,12.37-5.79,24.87-9.07,37.21c-0.76,2.86-1.02,6.55-5.46,6.48c-3.41-2.27-1.64-5.35-1-8.01
		c4.27-17.69,8.13-35.48,12.61-50.91c-4.61,12.51-9.16,27.31-16.33,41.11c-1.13,0.55-2.25,0.55-3.35-0.08
		c-2.37-3.1-0.58-6.03,0.52-8.87c5.27-13.61,10.66-27.19,15.68-40.9c2.89-7.9,1.77-10.92-5.03-15.71c-0.94-0.66-1.67-1.47-1.4-2.76
		c1.25-2.14,3.21-1.28,4.98-1.15c28.56,1.99,50.58-16.81,53.12-45.4c0.14-1.61-0.24-4.06,1.86-4c2.64,0.07,1.88,2.74,1.81,4.42
		c-0.32,8.87-3.32,16.96-8.04,25.13c38.85,7.36,77.07,8.37,115.09-2.35c0.22-2.16-1.69-2.32-2.6-3.29c-1-1.06-2.58-2.06-1.19-3.66
		c1.45-1.67,2.65-0.05,3.74,0.79c6.88,5.28,14.49,8.77,23.18,9.83c15.31,1.87,28.45-2.64,39.56-13.25c0.4-0.38,0.74-0.85,1.18-1.17
		c1.19-0.88,2.1-3.4,3.93-1.67c2,1.9-0.28,3.3-1.43,4.54c-3.94,4.23-8.55,7.61-13.71,10.23c-1.46,0.74-2.93,1.48-4.86,2.44
		c2.78,2.67,5.45,4.78,8.46,6.52c1.56,0.9,3.43,1.72,2.82,4.15c-5.36,0.82-8.61-3.05-11.7-6.1c-3.79-3.74-7.23-3.22-11.75-1.19
		c10.52,7.83,20.66,15.46,30.91,22.94c2.79,2.04,4.62,4.32,5.57,7.79c4.21,15.46,8.73,30.83,13.12,46.23
		c0.59,2.06,1.86,4.2-0.37,6.1c-3.89,0.08-4.14-3.16-4.87-5.65c-3.97-13.47-7.97-26.94-11.54-40.51c-1.51-5.73-4.4-10.05-9.48-12.95
		c-7.34-5.32-14.63-10.71-21.76-16.31c-4.89-3.84-9.84-7.09-16.36-7.26c-2.18-0.06-4.39-0.65-6.58-1.53
		c0.31,1.18,0.98,2.03,1.67,2.67c13,12.04,10.6,27.7,10.17,42.9C1289.37,702.65,1288.89,703.66,1288.16,704.53z"/>
	<path class="st8" d="M1094.48,672.26c0.26,0.92,0.72,1.69,1.67,2.03c6.78,2.47,9.35,7.66,6.79,14.56
		c-5.56,14.99-11.32,29.91-16.97,44.87c-0.76,2.02-2.09,3.98-1.05,6.32c1.33,4.11-1.24,7.36-2.48,10.87
		c-0.66,1.88-1.56,3.69-2.28,5.56c-1.08,2.12-1.8,4.37-2.37,6.68c-0.56,1.48-1.32,2.88-1.78,4.41c-1.91,2.96-1.4,7.27-5.14,9.23
		c-7.73,0.56-15.46,1.11-23.16-0.33c-2.14-1.62-0.27-2.64,0.56-3.83c1.73-1.33,2.18-3.35,2.74-5.29
		c6.07-20.88,11.74-41.87,17.69-62.77c1-3.52,1.03-6.83-0.26-10.25c-1.3-3.45-2.2-7.04-3.08-10.61c-0.62-2.54-0.43-4.82,2.6-5.77
		c6.43-0.2,12.24-1.99,16.97-6.57c1.38-0.88,2.81-0.99,4.3-0.29C1090.99,671.48,1092.74,671.87,1094.48,672.26z"/>
	<path class="st6" d="M1120.37,746.62c6.03-6.12,13.73-3.42,20.82-4c1.97-0.16,4.75,1.06,5.08-2.51c8.07,2.11,15.67,4.98,20.44,12.5
		c2.14,3.38,2.76,7.59,5.79,10.47c-0.71,1.92,0.24,3.61,0.78,5.35c2.31,7.35,1.3,8.75-6.64,8.82c-7.03,0.07-14.06,0.02-21.08,0.02
		c-8.69,0-17.38,0-26.08,0c-3.21,0-6.29-0.35-8.75-2.72c-1.37-1.4-1.15-3.1-0.5-4.62c2.95-6.91,5.26-14.05,7.91-21.07
		C1118.54,747.8,1119.22,746.95,1120.37,746.62z"/>
	<path class="st10" d="M1295.92,476.84c5.89-11.23,11.69-22.51,17.73-33.66c1.44-2.66-0.02-3.47-1.74-4.66
		c-7.43-5.14-14.83-10.33-22.23-15.51c-1.8-1.26-4.19-2.36-1.5-4.97c10.35,5.77,19.58,13.2,29.36,19.81
		c4.21,2.84-1.29,5.43-0.42,8.67c11.22-1.42,22.39-0.15,32.98,3.89c21.45,8.18,37.52,21.9,43.92,44.92c0.3,1.06,0.8,2.22,0.64,3.24
		c-1.44,9.05,3.44,14.87,8.87,21.52c15.95,19.55,19.15,41.86,8.93,64.99c-10.3,23.29-29.01,35.68-54.44,37.8
		c-0.92,0.08-1.85,0.08-2.77,0.04c-1.18-0.05-2.31-0.44-2.34-1.8c-0.03-1.31,1.02-1.82,2.21-1.94c3.31-0.32,6.67-0.36,9.92-0.97
		c30.19-5.69,50.56-31.54,48.99-62c-1.53-29.53-25.3-53.45-55.46-55.92c-1.99-0.16-5.68,1.02-5.49-1.86
		c0.21-3.2,3.91-1.66,6.07-1.63c5.78,0.08,11.34,1.53,16.78,3.41c5.22,1.8,10.03,4.48,15.27,7.81c0.86-9.48-1.66-17.37-5.96-24.79
		c-12.99-22.44-41.97-36.37-68.14-33.04c-2.69,0.34-3.77,1.75-4.82,3.82c-4.09,8.07-8.23,16.11-12.42,24.12
		c-0.71,1.35-1.02,3.71-3.29,2.97C1294.08,480.3,1296.02,478.3,1295.92,476.84z"/>
	<path class="st11" d="M1236.34,357.31c-1.39,0.76-3.23,0.85-3.94,2.63c-5.51,3.04-11.77,3.97-17.56,6.24
		c-8.4,3.28-16.7,6.71-22.63,14.01c9.7-8.52,21.27-13.19,33.53-16.46c1.07-0.29,2.12-0.65,3.22-0.81c1.38-0.19,2.65,0.03,3.33,1.37
		c0.82,1.62-0.57,2.29-1.53,3.09c-0.42,0.35-0.92,0.63-1.41,0.87c-11.64,5.75-20.86,14.49-29.59,23.85
		c-1.04,1.12-1.78,2.97-3.91,2.47c-0.75-1.15-1.5-2.3-2.25-3.45c-0.1-0.15-0.19-0.42-0.3-0.43c-6.41-0.62-10.29-4.11-11.75-10.34
		c-1.69-0.95-3.38-1.91-5.07-2.86c-0.13-2.91,2.35-3.95,4.08-5.36c9.88-8.04,21-13.63,33.45-16.52c-8.74,0.72-16.42,4.37-23.84,8.66
		c-2.4,1.39-4.65,3.02-6.92,4.6c-2.21,1.54-4.47,3.09-6.62-0.05c-1.91-2.8-2.06-5.5,0.73-7.87c8.16-6.92,17.26-11.93,27.82-14.24
		c7.74-1.69,15.41-1.51,23.09,0.07c2.85,0.59,5.76,1.47,3.38,5.47c-1.1,1.86-0.08,2.65,1.64,3.13
		C1234.48,355.72,1235.97,355.66,1236.34,357.31z"/>
	<path class="st12" d="M1145.67,739.14c-6.44,0-12.88,0-20.29,0c9.73-24.76,20.24-48.57,22.02-74.84c1.27-2.31,2.97-2.31,4.93-0.92
		c0.18,0.01,0.37,0.03,0.55,0.03c11.97,0.25,11.58,0.15,8.51,12.16C1155.98,696.71,1149.84,717.68,1145.67,739.14z"/>
	<path class="st13" d="M1110.32,773.41c2.97,1.55,6.1,1.96,9.47,1.93c15.45-0.14,30.91-0.06,46.37-0.06c7.79,0,7.77,0,5.13-7.14
		c-0.7-1.91-2.62-4.2,1.21-5.06c0.65,0.87,1.73,1.67,1.88,2.62c1.36,8.95,6.95,10.32,14.97,9.75c10.13-0.73,20.34-0.26,30.52-0.1
		c1.86,0.03,5.33-1.46,5.2,1.97c-0.1,2.7-3.32,1.53-5.14,1.54c-77.35,0.05-154.7,0.04-232.05,0.04c-19.99,0-39.97,0.03-59.96-0.04
		c-2.01-0.01-5.54,1.25-4.27-3.3c4-0.99,8.07-0.4,12.11-0.44c11.27-0.1,22.56-0.34,33.81,0.05c10.73,0.38,21.33-1.38,32.02-1.32
		c3.2,0.02,5.61-1.57,7.85-3.6c2.62-2.37,5.7-3.23,8.55-0.93c5.82,4.7,12.51,4.81,19.43,4.64c3.27-0.08,6.67-0.7,9.79,1.02
		c8.35,0.48,16.7,0.53,25.05-0.04c4.3-1.9,8.83-0.73,13.24-1.03C1093.77,774,1102.06,774.19,1110.32,773.41z"/>
	<path class="st14" d="M1067.97,677.95c-1.81,1.87-2.34,3.85-1.1,6.36c5.04,10.2,4.1,20.21,0.59,30.93
		c-5.74,17.55-10.1,35.55-15.13,53.33c-0.56,1.97-0.28,4.67-3.28,5.18c-3.22-1.46-2.08-3.62-1.38-5.64
		c-9.25,0.83-19.02,0.65-28.74,0.23c-7.17-0.31-14.28,0.74-21.42,0.17c-2.53-0.2-5.2,0.31-7.36-1.57c-1.38-0.9-1.63-2.11-0.94-3.56
		c18.48-0.08,36.96-0.28,55.44-0.13c4.01,0.03,5.96-0.99,6.77-5.05c1-5.03,2.67-9.93,4.24-15.54c-9.74,0-19.07,0.06-28.39-0.05
		c-1.81-0.02-4.9,1.15-5.03-1.71c-0.13-3.03,3.02-1.9,4.78-1.93c9.24-0.15,18.48-0.12,27.72-0.16c3.43-3.99,3.44-9.18,4.78-13.89
		c2.65-9.33,5.62-18.58,7.24-28.18c-0.35-1.23-0.74-2.46-1.04-3.7c-1.87-7.83-4.16-14.56-14.02-16.36
		c-7.03-1.28-11.51-7.65-15.82-13.27c-4.47-3.97-5.55-9.33-5.85-14.88c-0.13-2.32,0.05-4.94,3.46-5.11
		c1.69,1.09,1.32,2.85,1.53,4.48c2.06,15.8,12.17,25.95,28.01,28.21C1064.8,676.36,1066.83,676,1067.97,677.95z"/>
	<path class="st15" d="M1008.17,453.57c-2.58-0.09-5.17-0.11-7.75-0.3c-1.61-0.12-3.87-0.12-3.69-2.34c0.19-2.42,2.42-1.6,3.99-1.51
		c11.08,0.64,18.65-1.8,27.76-9.61c-5.27,0.8-9.24,1.39-13.2,2.02c-4.02,0.64-8.01,1.54-12.05,1.9c-2.77,0.25-7.25,3.15-7.95-0.77
		c-0.52-2.94,4.67-2.25,7.37-2.74c13.09-2.35,26.23-4.49,39.35-6.7c1.59-0.27,3.62-0.01,3.39-2.54c-0.23-2.53-1.75-3.24-4.23-3.03
		c-14.74,1.22-29.49,2.35-44.24,3.45c-1.63,0.12-2.55,0.75-3.49,2.15c-13.15,19.48-32.07,18.91-44.22-1.28
		c-0.37-2.55-0.77-5.09-1.1-7.64c-0.16-1.21,0.23-2.36,1.52-2.55c1.29-0.19,1.91,0.72,2.05,2.01c0.13,1.28,0.34,2.56,0.62,3.82
		c2.14,9.7,10.53,16.08,20.61,15.69c9.25-0.36,17.01-7.38,18.61-16.75c0.29-1.68-0.51-4.37,1.9-4.61c2.84-0.28,1.84,2.4,2.18,4.07
		c0.54,2.65,2.7,1.29,4.05,1.2c13.81-0.98,27.63-1.96,41.42-3.27c4.23-0.4,6.83,0.77,7.85,4.91c1.05,4.26-0.3,7.09-4.73,8.46
		c-6.7,2.07-13.03,4.84-18.58,9.38C1020.62,451.05,1014.25,452.08,1008.17,453.57z"/>
	<path class="st16" d="M1142.42,458.93c0.05-2.77-2.27-2.87-4.04-3.68c-5.95-2.72-11.96-5.38-17.14-9.5
		c-1.19-1.2-1.02-2.68-0.84-4.15c0.64-5.29,1.67-10.54,1.88-15.89c0.13-3.24,1.83-4.94,5.1-3.46c9.57,4.31,18.98,8.98,28.24,13.89
		c3.91,2.07,6.73,6.2,7.61,11.03c-0.49,2.06-1.52,3.69-3.61,4.45c-3.82-0.91,4.97,5.25,1.78,2.34c2.64,6.29-3.17,0.26,1.42,3.78
		c-2.63,0.83-5.62-0.81-8.07,1.21c-2.44,1.97-4.02,0.33-5.46-1.41c-1.85-2.24,1.43,3.29-0.82,0.53c0.35,3.73-0.38-2.58-1.49,0.95
		C1145.45,458.99,1143.93,458.96,1142.42,458.93z"/>
	<path class="st17" d="M1008.46,301.29c15.37-8.05,31.42-10.39,48.26-5.62c3.43,0.97,4-1.26,4.92-3.6
		c4.46-11.35,9.01-22.65,13.53-33.97c0.27-0.69,0.5-1.39,0.8-2.07c0.6-1.34,1.16-3.11,3.09-2.23c1.92,0.87,0.92,2.43,0.38,3.8
		c-4.3,10.81-8.58,21.63-12.87,32.44c-0.34,0.86-0.57,1.78-1.03,2.57c-2.04,3.49-1.84,5.8,2.65,7.15c4.06,1.22,5.57,3.38,0.52,5.8
		c-0.61,0.29-1.52,0.89-1.52,1.35c-0.01,1.56,2.91,4.22-1.21,4.07c-2.18-0.08-5.2-1.06-6.03-3.34c-1.12-3.06,2.68-2.72,4-4.2
		c0.12-0.14,0.22-0.29,0.69-0.91c-14.12-6.23-28.3-7.66-42.95-2.81c-4.4,1.46-8.48,3.61-12.54,5.83c-3.32,1.81-2.57,4.06-1.34,6.48
		c1.5,2.97,3.13,0.3,4.37-0.26c9.68-4.33,19.56-7.83,30.31-8.15c1.29-0.04,2.59,0.03,3.88,0.1c1.49,0.09,3.3,0.15,3.29,2.11
		c-0.01,2.08-1.83,1.94-3.31,1.85c-13.65-0.86-25.75,4.02-37.52,10.1c-1.63,0.84-3.18,1.86-4.75,2.79c-1.38,0.68-3.19,0.4-2.72-1.11
		c1.36-4.34,2.12-8.38,1.19-13.09C1002.04,303.88,1006.71,303.39,1008.46,301.29z"/>
	<path class="st18" d="M945.99,434.34c2.52,2.15,0.28,4.18-0.42,5.97c-6.04,15.5-12.27,30.92-18.44,46.37
		c-1.76,4.4-2.4,8.76,0.54,13.16c2.25-1.41,2.84-3.67,4.14-5.37c0.87-1.14,1.63-2.94,3.39-1.68c1.63,1.18,0.48,2.62-0.31,3.88
		c-1.27,2.04-2.49,4.12-3.81,6.12c-1.28,1.95-1.8,4.12-1.56,6.34c0.36,3.26,1.67,6.53,4.89,7.51c3.16,0.96,4-2.64,5.38-4.58
		c3.22-4.55,5.33-9.7,7.39-14.86c0.52-1.3,1.08-3.2,3.04-2.3c1.88,0.86,0.91,2.44,0.38,3.83c-2.51,6.58-5.5,12.91-10.03,19.04
		c4.92-0.16,7.17-3.1,8.62-6.69c1.38-3.41,3.67-5.17,7.2-6.08c5.72-1.48,11.34-3.37,16.97-5.18c1.8-0.58,3.51-1.54,4.41,1.11
		c-0.32,2.2-2.25,2.11-3.74,2.6c-4.39,1.42-8.73,3.02-13.2,4.12c-4.33,1.07-7.39,2.92-9.48,7.28c-2.92,6.11-9.2,8.37-15.39,6.66
		c-6.35-1.76-10.12-6.72-10.23-13.44c-0.03-1.62,0.62-3.28-0.49-4.83c-4.75-6.65-3.65-13.35-0.7-20.44
		c5.94-14.29,11.48-28.76,17.18-43.15C942.61,437.52,943.29,435.13,945.99,434.34z"/>
	<path class="st19" d="M1301.17,774.96c14.38,0.13,28.76,0.35,43.15,0.38c30.64,0.06,61.28,0.02,91.92,0.01
		c2.03,0,4.05-0.12,6.07-0.19c2.27,1.56,2.15,2.9-0.5,3.69c-1.02,0.3-2.2,0.09-3.31,0.09c-64.19,0-128.38,0.02-192.58-0.07
		c-1.95,0-6.75,1.81-3.99-3.73C1261.67,774.97,1281.42,775.24,1301.17,774.96z"/>
	<path class="st20" d="M1223.67,411.19c19.45-5.7,33.04,0.38,40.69,18.54c1.02,2.42,2.61,2.68,4.48,3.28
		c9.91,3.18,16.29,9.81,18.84,19.87c0.69,2.71,1.8,5.77-0.7,8.35c-2.71,0.25-2.12-1.76-2.3-3.3c-1.48-12.66-9.06-20.45-21.69-22.16
		c-2.43-0.33-5-0.07-2.62-3.72c1.1-1.69-0.25-3.17-0.94-4.6c-8.16-16.93-30.2-19.85-43.4-5.39c4.78,1.6,9.44,3.11,13.29,6.3
		c6.91,5.74,10.91,12.94,11.25,22c0.05,1.22,0.41,2.89-1.41,3.12c-2.2,0.28-2.14-1.5-2.2-2.98c-0.87-19.06-22.69-31.71-40.08-20.87
		c-1.26,0.79-2.78,1.97-3.86,0.32c-1.36-2.07,0.79-2.85,2.12-3.7c1.08-0.69,2.26-1.62,3.44-1.71
		C1208.92,423.76,1215.78,416.53,1223.67,411.19z"/>
	<path class="st21" d="M1162.71,447.69c-3.16-6.47-7.7-11.24-14.65-14.04c-8.14-3.28-15.93-7.43-24.62-11.56
		c0.13,8.32-0.82,16.01-2.21,23.65c-9.91,6.08-30.55-2.35-32.92-13.5c-0.13-0.6,0.44-1.35,0.69-2.02c0.32-0.47,0.72-0.56,1.2-0.24
		c1.71,0.73,2.13,2.46,2.97,3.85c2.28,3.77,5.5,6.41,9.58,8.03c12.62,5,16,2.74,16.65-10.59c0.64-13.33-2.71-25.55-9.36-36.99
		c-1.08-1.85-2.93-3.51-1.7-6.02c2.4-0.55,3.2,1.25,4.16,2.82c4.07,6.65,7.36,13.66,8.89,21.32c0.71,3.56,2.2,5.8,5.67,7.28
		c6.6,2.82,12.92,6.29,19.5,9.19c7.33,3.23,14.47,6.5,18.1,14.36c0.83,1.79,2.35,2.82,4.48,2.54c2.76,0.97,5.51,1.95,8.27,2.9
		c1.21,0.42,2.84,0.75,2.49,2.36c-0.43,1.99-2.17,1.55-3.63,1.21c-1.61-0.38-3.21-0.8-4.82-1.2
		C1168.15,450.95,1164.42,451.94,1162.71,447.69z"/>
	<path class="st17" d="M1236.34,357.31c-0.36-0.06-0.73-0.12-1.09-0.18c-2.46-0.45-5.74,0.17-6.76-2.64
		c-0.91-2.49,3.11-2.74,3.76-5.41c-15.82-3.98-30.7-2.2-44.66,6.16c-3.15,1.89-5.89,4.47-9,6.44c-3.5,2.22-2.16,4.65-0.46,6.91
		c2.25,2.98,3.36-0.5,4.56-1.3c8.81-5.9,17.9-11.07,28.46-13.14c1.08-0.21,2.18-0.47,3.27-0.49c1.39-0.02,3.32-0.61,3.7,1.38
		c0.42,2.21-1.68,2.07-3,2.28c-15.16,2.38-27.51,10.1-38.64,20.16c-1.72,0.79-4.34,0.4-3.49-1.33c2.49-5.04-0.85-9.07-1.23-13.54
		c0,0-0.25-0.05-0.25-0.05c0.71-1.24,1.03-2.92,3.06-2.61c14.34-12.61,31.12-17.79,50.05-16.48c4.1,0.85,8.23,1.61,12.3,2.6
		c1.47,0.36,4.19,1.74,2.29,3.02C1235.75,351.42,1236.7,354.41,1236.34,357.31z"/>
	<path class="st22" d="M990.15,766.94c19.38,0,38.76,0,58.06,0c0.8,2.36-1.92,4.91,0.84,6.82c-0.62,0.41-1.24,0.82-1.85,1.23
		c-7.19,0.1-14.37,0.19-21.56,0.29c-3.32,0.04-5.3-2.46-7.52-4.24c-2.57-2.06-4.69-2.89-6.87,0.24c-2.49,3.58-5.99,4.09-10.12,4.08
		c-25.83-0.06-51.66,0.1-77.48,0.19c1.6-1.91,3.78-1.08,5.7-1.08c16.59-0.07,33.18-0.28,49.76,0.09
		C985.12,774.7,989.57,774,990.15,766.94z"/>
	<path class="st23" d="M1372.67,713.41c-2.13-0.97-1.96-2.87-1.96-4.73c0.02-4.25-0.44-8.56,0.08-12.74
		c1.19-9.69-2.34-18.08-6.29-26.48c-1.08-2.3-2.01-2.97-4.55-1.91c-4.63,1.94-9.57,2.78-14.61,2.89c-1.84,0.04-3.86,0.35-4.16-2.35
		c1.32-1.87,3.36-1.01,5.09-1.39c5.55-1.22,11.73-0.36,15.98-5.75c1.19-1.51,4.18-0.31,6.35-1.88c11.05-8.03,17.9-18.47,19.73-32.09
		c0.2-1.47,0.35-2.94,0.53-4.41c0.17-1.42,0-3.45,2.07-3.17c1.82,0.24,1.57,2.16,1.59,3.65c0.04,3.74-0.7,7.36-1.67,10.93
		c-3.29,12.11-10.22,21.7-20.76,28.43c-3.11,1.98-3.62,3.73-1.77,6.54c8.43,12.85,6.03,27.33,6.26,41.42
		C1374.62,711.87,1373.88,712.74,1372.67,713.41z"/>
	<path class="st24" d="M1033.49,643.42c-2.82,0.71-2.18,2.93-2.12,4.89c0.17,5.43,2.46,10.23,4.51,15.1
		c-6.67-0.02-13.35-0.03-20.02-0.05c1.18-12.98,2.35-25.95,3.53-38.93c1.52-0.04,2.26,1.1,2.94,2.14
		c2.82,4.27,5.71,8.44,10.01,11.41c0.89,0.62,1.47,1.61,1.29,2.84C1033.59,641.68,1033.54,642.55,1033.49,643.42z"/>
	<path class="st23" d="M1106.64,464.02c8.11-3.39,16.5-3.64,25.06-2.35c1.95,0.3,3.84,0.95,5.8-0.55
		c10.79-8.27,21.81-7.54,32.93-0.42c1.28-2.94,2.53-5.79,3.77-8.64c3.85-3.25,7.71-6.44,13.34-4.94c2.62,0.7,4.7,2.13,6.24,4.31
		c0.54,0.76,0.74,1.73,0.03,2.55c-0.74,0.85-1.79,0.81-2.44,0.09c-3.32-3.66-7.05-4.65-11.3-1.81c-4.26,2.84-5.48,7.21-5.58,12.03
		c-0.03,1.54,1.34,3.54-0.75,4.46c-2.55,1.13-2.9-1.63-3.95-2.88c-6.93-8.17-19.92-9.45-29.08-2.31c-2.79,2.18-5.13,2.74-8.47,2.04
		c-6.38-1.33-12.87-1.5-19.25,0.18c-5.54,1.46-10.05,4.51-13.5,9.15c-0.87,1.17-1.62,3.6-3.71,1.89c-1.82-1.49-0.11-3.01,0.79-4.3
		C1099.16,468.81,1102.67,466.13,1106.64,464.02z"/>
	<path class="st25" d="M1066.12,321.7c-15.59,2.74-29.07,9.65-40.58,20.47c-0.85,0.65-1.72,1.28-2.56,1.94
		c-0.93,0.74-1.94,1.07-2.92,0.22c-1.43-1.23,0-2.24,0.36-3.34c11.83-10.73,25.44-18.36,40.7-23.36
		c-12.71-0.36-24.85,1.36-36.17,7.17c-0.98,0.51-1.87,1.29-2.9,1.6c-1.99,0.59-4.04,4.61-5.85,1.33c-1.5-2.72,2.45-3.54,4.26-4.68
		c12.13-7.66,26.02-8.99,39.79-10.24c3.58-0.33,5.7,3.64,8.23,5.99C1068.27,320.22,1067.23,320.99,1066.12,321.7z"/>
	<path class="st26" d="M1195.85,394.57c10.09-12.23,21.58-22.73,36.34-29.08c-0.87-1.99-2.1-1.59-3.4-1.22
		c-13.05,3.66-25.85,7.79-35.88,17.6c-0.99,0.97-2.15,2.54-3.7,1c-1.63-1.62,0.17-2.66,1.1-3.61c4.99-5.07,10.84-8.95,17.35-11.7
		c7.98-3.37,16.06-6.51,24.75-7.63c0.75,0.52,1.52,1,2.24,1.57c1.53,1.2,4.32,1.34,4.37,3.72c0.05,2.5-3.17,2.04-4.38,3.6
		c-13.45,5.52-24.56,14.05-33.21,25.75c-0.72,0.78-1.45,1.55-2.15,2.35c-0.82,0.94-1.57,2.17-3.07,1.39
		C1194.24,397.3,1195.67,395.85,1195.85,394.57z"/>
	<path class="st23" d="M1180.25,201.76c-3.63-2.62-7.27-5.24-10.9-7.85c-4.62-4.83-9.07-9.8-10.01-16.78
		c-0.25-1.82-1.32-4.74,1.38-5.19c2.71-0.45,1.88,2.57,2.22,4.15c2.5,11.71,11.64,17.39,20.79,23.07c1.71,1.06,2.74-0.33,3.88-1.12
		c3.47-2.43,7.18-4.63,10.27-7.49c5.12-4.74,10.59-6.15,17.09-3.5c3.91,1.59,5.97,1.05,5.58-4.03c-0.23-3-1.92-8.56,1.4-8.67
		c3.54-0.11,1.22,5.45,2.12,8.38c0.11,0.35,0.29,0.67,0.44,1c-0.37,9.36-0.5,9.78-9.58,7.14c-6.06-1.76-10.8-1.07-15.4,3.22
		c-2.92,2.72-6.37,4.88-9.59,7.28c-0.37,0.28-0.74,0.56-1.1,0.83C1185.83,204.76,1183.03,203.48,1180.25,201.76z"/>
	<path class="st27" d="M1105.9,469.08c4.78,4.22,7.92,9.38,8.97,15.72c-0.41,1.45,0.22,3.8-2.32,3.58c-1.99-0.17-1.55-2.2-1.82-3.56
		c-1.89-9.4-6.33-13.77-16.09-15.65c-1.43-0.28-3.36-0.03-3.08-2.15c0.27-1.97,2.21-1.77,3.59-1.47c5.2,1.13,4.33-1.65,3.37-4.84
		c-3.41-11.33-13.03-19.43-24.77-20.77c-1.62-0.18-3.37,0.18-4.78-1c-0.26-4.2,2.84-3.14,4.95-2.88
		c12.72,1.58,21.5,8.67,27.27,19.84c0.76,3.35,1.66,6.69,2.22,10.07C1103.68,467.66,1104.3,468.66,1105.9,469.08z"/>
	<path class="st28" d="M1298.41,625.15c-1.47-0.51-4.54,1.08-4.54-2.01c0-2.62,2.79-1.69,4.47-1.77
		c24.17-1.18,43.42-19.58,45.39-43.43c0.14-1.68-0.64-4.38,2.05-4.28c2.75,0.1,1.77,2.72,1.66,4.4
		C1345.76,603.6,1324.13,624.45,1298.41,625.15z"/>
	<path class="st29" d="M1098.62,636.06c-14.43-0.56-28.36-7.71-38.44-22c-0.93-1.32-3.17-3-0.77-4.61c2.04-1.38,2.75,1.01,3.68,2.23
		c15.87,20.82,38.47,26.27,61.93,14.88c1.46-0.71,3.23-2.34,4.34-0.42c1.36,2.36-1.31,3.03-2.77,3.84
		C1118.82,634.27,1110.44,636.22,1098.62,636.06z"/>
	<path class="st30" d="M1024.44,548.44c0.12-20.46,12.49-39.25,30.81-46.64c1.5-0.61,3.63-2.52,4.82-0.17
		c1.32,2.61-1.58,2.76-3.06,3.47c-23.26,11.12-33.15,32.49-26.69,57.75c0.37,1.46,1.9,3.41-0.72,4.05
		c-2.35,0.57-2.36-1.73-2.87-3.22C1025.01,558.75,1024.39,553.64,1024.44,548.44z"/>
	<path class="st31" d="M1033.64,640.82c-5.96-4.41-10.62-9.95-14.25-16.38c0.12-1.76-2.81-4.07,0.34-5.16
		c2.48-0.86,2.62,2.03,3.37,3.52c8.21,16.27,25.89,24.18,43.37,19.36c0.18-0.05,0.36-0.09,0.54-0.14c1.83-0.51,4.41-2.33,5.09,0.54
		c0.61,2.56-2.57,2.59-4.36,3.11c-8.8,2.57-17.54,2.29-26.1-1.08C1038.9,643.5,1036.3,642.08,1033.64,640.82z"/>
	<path class="st31" d="M871,779.02c-9.43,0-18.86,0.01-28.29-0.02c-1.58,0-3.89,0.51-4-1.76c-0.11-2.38,2.23-1.95,3.8-1.96
		c19.04-0.03,38.08-0.03,57.13,0.01c1.53,0,3.95-0.61,3.95,1.74c0,2.79-2.63,1.95-4.3,1.96C889.86,779.05,880.43,779.02,871,779.02z
		"/>
	<path class="st32" d="M1018.85,600.23c-15.42-0.51-29.54-14.3-30.27-29.46c-0.08-1.58-0.56-3.74,1.89-3.78
		c2-0.03,1.73,1.94,1.95,3.36c2.3,15.25,11.95,24.65,26.88,26.28c1.6,0.17,4.44-0.84,4.07,2.1
		C1023.04,601.28,1020.38,599.97,1018.85,600.23z"/>
	<path class="st33" d="M1013.72,393.24c11.2-0.89,20.89,1.97,27.81,11.43c3.1,4.24,5.3,8.86,5.27,14.28
		c-3.25,0.41-3.71-1.74-4.46-4.26c-3.96-13.29-17.51-20.59-30.85-17.04c-1.34,0.36-3.41,2.91-4.54-0.16
		c-1.22-3.31,2.12-2.6,3.58-3.43C1011.46,393.54,1012.65,393.5,1013.72,393.24z"/>
	<path class="st34" d="M939.25,408.29c-0.63,0.92-1.63,0.61-2.5,0.78c-6.56,1.29-10.83,5.91-11.08,11.97
		c-0.26,6.38,3.79,11.54,10.31,13.27c1.56,0.41,4.5-0.55,4.01,2.34c-0.42,2.49-3.04,1.48-4.7,1.25c-8.32-1.16-14.42-9.64-13.26-18.2
		c1.23-9.06,8.27-14.81,17.06-13.91C939.79,406.58,939.68,407.43,939.25,408.29z"/>
	<path class="st35" d="M1000.21,539.95c-9.64-0.24-19.77-10.52-19.7-19.97c0.01-1.34,0.03-2.88,1.55-3.15
		c2.05-0.36,2.27,1.38,2.45,2.88c1.15,9.53,6.56,14.86,15.99,16.27c1.4,0.21,3.33,0.04,3.15,2.18
		C1003.48,540.18,1001.7,539.97,1000.21,539.95z"/>
	<path class="st36" d="M1089.24,671.09c-1.36,1.29-2.84,0.63-4.3,0.29c-5.51-2.92-11.21-5.54-15.58-10.21
		c-2.16-2.31-3.91-4.84-5.12-7.77c-0.43-1.04-0.19-1.76,0.55-2.42c0.85-0.76,1.9-0.67,2.34,0.25c4.33,9.16,12.61,13.45,21.18,17.43
		C1089.29,669.1,1089.16,670.19,1089.24,671.09z"/>
	<path class="st8" d="M1301.17,774.96c-19.75,0.55-39.5,0.57-59.25,0.18c12.07-1.29,24.18-0.48,36.26-0.43
		c4.95,0.02,7.1-1.17,6.5-6.39c-0.35-3.07,0.06-6.24,0.14-9.36c4.79,0.1,4.57,3.68,4.25,6.74c-0.3,2.85-1.41,5.62-2.2,8.54
		C1291.64,774.48,1296.41,774.72,1301.17,774.96z"/>
	<path class="st37" d="M985.61,382.87c1.95-0.12,3.61-0.23,3.71,1.86c0.08,1.73-1.36,1.89-2.71,2.01
		c-8.42,0.73-13.96,5.2-16.72,13.11c-0.65,1.85-1.86,3.1-3.61,2.4c-1.45-0.58-0.48-2.3-0.17-3.46
		C968.44,390.23,977.45,383.07,985.61,382.87z"/>
	<path class="st38" d="M939.25,408.29c-0.05-0.84-0.1-1.67-0.15-2.51c2.91-0.26,1.81-2.77,2.25-4.27
		c2.26-7.7,9.42-13.72,16.74-13.82c1.43-0.02,3.25-0.43,3.35,1.72c0.07,1.65-1.39,1.76-2.75,1.96c-8.07,1.17-13.18,5.69-13.95,13.88
		C944.31,409.83,940.95,407.13,939.25,408.29z"/>
	<path class="st39" d="M1009.09,324.07c2.41-0.61,4.05,0.5,3.12,2.75c-2.14,5.15,0.47,5.79,4.61,5.99c2.45,0.12,4.57,1.14,2.2,4.16
		c-0.54-0.06-1.09-0.1-1.62-0.17C1003.54,334.9,1005.54,337.55,1009.09,324.07z"/>
	<path class="st30" d="M1181.54,380.35c2.01-0.66,4.14-0.74,3.48,2.12c-1.23,5.36,1.43,5.76,5.58,5.23
		c2.28-0.29,4.92-0.26,2.99,3.42c-0.36,0.01-0.73,0.03-1.09,0.04C1180.75,391.72,1180.75,391.72,1181.54,380.35z"/>
	<path class="st8" d="M1285.77,726.75c3.17-0.49,4.18,1.96,4.03,4.02c-0.41,5.4-1.45,10.75-2.24,16.12
		c-0.59-0.01-1.18-0.02-1.78-0.03c0-6.39,0-12.78,0-19.17C1285.71,727.37,1285.71,727.06,1285.77,726.75z"/>
	<path class="st40" d="M1170.42,455.45c-3.79-1.24-8.18-0.88-11.16-4.25c1.31-1.01,1.64-2.98,3.44-3.51
		c2.92,1.12,5.84,2.24,8.76,3.36C1169.81,452.21,1170.52,453.93,1170.42,455.45z"/>
	<path class="st41" d="M1152.33,663.38c-1.68,0.11-3.41-0.03-4.93,0.92c0.14-1.09,0.42-2.19,0.39-3.28
		c-0.16-5.52,2.33-6.78,7.09-4.5C1152.5,658.24,1152.47,660.83,1152.33,663.38z"/>
	<path class="st8" d="M1284.89,754.52c0.18-0.02,0.36-0.07,0.54-0.06c1.84,0.14,2.98-3.36,5.2-1.01c0.54,0.58,0.57,1.43-0.12,1.9
		c-1.69,1.16-3.2,3.3-5.67,1.41C1284.86,756.02,1284.87,755.27,1284.89,754.52z"/>
	<path class="st8" d="M1285.66,723.4c2.39-1.39,1.23-4.14,2.32-6.03c0.04,0.55-0.15,1.34,0.15,1.62c4.16,4,0.83,5.3-2.35,6.67
		C1285.74,724.91,1285.7,724.16,1285.66,723.4z"/>
	<path class="st7" d="M1181.71,305.87c5.53-17.42,9.49-35.17,11.03-53.41c0.06-0.73,0.01-1.48,0.09-2.21
		c0.16-1.54-0.5-3.83,1.91-3.88c2.38-0.04,2.16,2.23,2.01,3.78c-0.55,5.68-1.05,11.38-2,17c-2.79,16.55-6.51,32.88-12.07,48.75
		c-0.66,1.89-1.72,3.63-2.6,5.44c-3.17-0.54-2.42-2.64-1.71-4.56C1179.68,313.2,1181.19,309.69,1181.71,305.87z"/>
	<path class="st42" d="M1110.39,231.26c0.45,0.73,0.9,1.46,1.35,2.19c-1.6,7.13-3.22,14.25-4.79,21.39
		c-0.37,1.7-1.02,3.76-2.82,3.44c-2.2-0.38-1.36-2.42-0.99-4.07c1.39-6.05,2.57-12.14,4-18.18
		C1107.59,234.12,1108.11,232.03,1110.39,231.26z"/>
	<path class="st42" d="M1173.55,247.21c0.81-0.47,1.62-0.93,2.43-1.4c1.81,2.36,0.96,4.91,0.54,7.42c-0.65,3.81-1.12,7.66-2.06,11.4
		c-0.39,1.54-0.15,4.51-2.68,4.08c-2.52-0.43-1.42-2.95-1.14-4.65C1171.56,258.44,1172.57,252.82,1173.55,247.21z"/>
	<path class="st43" d="M1174.57,359.96c-0.93,0.98-1.53,2.33-3.06,2.6c0.05-2.29-0.77-4.72,0.98-6.77
		C1173.19,357.19,1173.88,358.58,1174.57,359.96z"/>
	<path class="st44" d="M1184.86,174.14c-0.2,4.58,1.6,8.61,5.18,11.94c1.02,0.94,2.71,2.08,1.28,3.62
		c-1.63,1.77-2.99,0.06-4.14-1.02c-4.25-4.01-6.39-8.92-5.92-14.82c0.14-1.76-0.07-4.32,2.49-4.08
		C1186.15,170.01,1185.18,172.24,1184.86,174.14z"/>
	<path class="st45" d="M1220.05,156.46c2.84,0.29,4.46,1.64,4.48,4.26c0.02,2.59-1.47,4.24-4.09,4.3c-2.85,0.06-4.58-1.53-4.51-4.44
		C1215.99,157.9,1217.85,156.8,1220.05,156.46z"/>
	<path class="st46" d="M1066.76,696.74c0.89,1.71,0.88,3.37,0.33,5.28c-3.36,11.62-6.56,23.29-9.85,34.94
		c-0.34,1.19-0.02,3.47-2.5,1.85c3.73-12.89,7.17-25.85,9.97-38.97C1065.01,698.47,1065.55,697.42,1066.76,696.74z"/>
	<path class="st8" d="M1322.51,679.67c4.55,6.91,0.94,13.43-1.2,19.87c-7.42,22.27-14.78,44.55-18.08,67.92
		c-0.07,0.52-0.44,1.01-0.67,1.51c-4.12-3.21-3.71-6.5-1.58-11.08c1.96-4.22,4.05-8.9,2.06-14.27c-0.82-2.22-3.12-6.64,2.54-7.5
		c0.68-0.1,1.04-1.13,0.63-1.85c-1.99-3.46,0.59-6.36,1.32-9.38c0.75-3.06-0.19-5.04-2.76-5.56c-2.91-0.59-4.49,1.73-4.37,4.39
		c0.19,4.54-0.56,8.64-2.96,12.61c-0.84,1.38-0.86,3.8-0.27,5.38c2.42,6.5,0.39,13.1,0.88,19.62c0.16,2.11-0.24,4.13-3.16,4.07
		c1.43-8.89,1.58-17.71,0.06-26.55c-0.33-1.9-0.91-3.52-2.32-4.85c-0.84-0.79-1.62-2.54-0.79-2.87c7.66-3.12,1.94-9.71,3.74-14.46
		c2.24-5.9-2.59-9.47-7.42-12.14c0.09-8.5,0.05-17,0.33-25.49c0.11-3.32-0.62-6.02-2.66-8.68c-4.01-5.25-7.72-10.73-12.09-16.88
		c6.18,1.74,11.48,3.3,17.03,3.27c1.43-0.01,2.43,0.82,3.45,1.58C1303.67,665.43,1313.09,672.56,1322.51,679.67z"/>
	<path class="st47" d="M964.77,454.62c3.17,0.34,5.24,1.96,5.21,5.27c-0.03,2.96-1.78,4.89-4.81,5.05
		c-3.27,0.17-5.41-1.66-5.54-4.87C959.5,456.87,961.51,455.03,964.77,454.62z"/>
	<path class="st16" d="M1090.21,429.99c-0.4,0.08-0.8,0.16-1.2,0.24c-4.07-2.03-8.15-4.04-12.21-6.11
		c-6.69-3.4-10.41-8.49-9.62-13.1c1.18-6.95,4.56-9.67,13.52-10.97c0.65-0.09,1.24-0.66,1.85-1c0.7,0.37,1.39,0.74,2.09,1.11
		c4.01,4.2,2.13,9.77,3.43,14.61C1089.32,419.77,1088.46,425.06,1090.21,429.99z"/>
	<path class="st48" d="M1088.07,414.77c-3.43-1.98-1.74-5.47-2.41-8.26c-0.49-2.08-0.69-4.23-1.02-6.35
		c-0.05-2.01-0.15-4.01-0.13-6.02c0.01-0.96,0.45-1.89,1.56-1.82c0.62,0.04,1.68,0.56,1.74,0.97c0.87,6.83,2.44,13.61,1.56,20.56
		C1089.32,414.21,1088.52,414.47,1088.07,414.77z"/>
	<path class="st8" d="M1110.32,773.41c-0.5,1.84-1.97,1.89-3.47,1.87c-6.91-0.11-13.81-0.22-20.72-0.33
		c1.32-5.99,2.12-12.17,6.4-17.04c2.54,0.37,3.02-1.3,3.5-3.27c4.71-19.59,9.54-39.14,14.19-58.74c1.32-5.58-1.99-10.4-3.44-15.46
		c-1.09-3.8-1.33-5.45,3.53-5.76c13.62-0.85,24.45-7.62,34.51-18.54c-3.51,17.75-3.81,34.55-10.78,50.17
		c-5.04,11.29-8.97,23.08-13.31,34.67c-0.66,1.77-2.16,3.64-0.36,5.63C1117.33,755.66,1114.21,764.68,1110.32,773.41z"/>
	<path class="st49" d="M1092.54,757.91c-1.51,4.85-3.12,9.68-4.46,14.57c-0.34,1.26-1.06,1.84-1.94,2.47
		c-4.63,0.54-9.26,0.55-13.88,0c-0.75-3.29,2.49-5.35,2.59-8.38c1.41-0.9,3.02-1.15,4.67-1.38c-0.56-1.17-2.67-0.51-2.62-2.3
		c-0.1-2.35,0.41-4.48,2.14-6.2c1.56,0.93,2.29,2.16,1.93,2.97c2.26-5.92,1.97-13.93,7-20.05c5.95-15.65,11.89-31.3,18.13-47.73
		c1.05,1.91,0.63,2.99,0.36,4.11c-4.56,18.66-9.11,37.32-13.61,55.99C1092.36,753.91,1091.44,755.88,1092.54,757.91z"/>
	<path class="st50" d="M1087.95,739.61c-2.1,7.28-4.21,14.55-6.75,23.34c-1.07-3.09-1.62-4.68-2.17-6.26
		c1.97-5.55,3.94-11.1,5.91-16.65C1085.94,739.9,1086.94,739.76,1087.95,739.61z"/>
	<path class="st51" d="M1076.88,762.89c2.12,1.01,6.47-1.3,6.35,1.93c-0.13,3.61-4.4,1.34-6.79,1.9c-0.5,0.12-1.08-0.1-1.62-0.15
		C1075.28,765.21,1075.6,763.79,1076.88,762.89z"/>
</g>
</svg>
