<?xml version="1.0" encoding="utf-8"?>
<!-- Generator: Adobe Illustrator 24.3.0, SVG Export Plug-In . SVG Version: 6.00 Build 0)  -->
<svg version="1.1" id="Layer_1" xmlns="http://www.w3.org/2000/svg" xmlns:xlink="http://www.w3.org/1999/xlink" x="0px" y="0px"
	 viewBox="0 0 1920 1080" style="enable-background:new 0 0 1920 1080;" xml:space="preserve">
<style type="text/css">
	.st0{fill:#019267;stroke:#019267;stroke-width:1.0897;}
	.st1{fill:#270C54;}
	.st2{fill:#2E1055;}
	.st3{fill:#FDFDFC;}
	.st4{fill:#FDC390;}
	.st5{fill:#32165A;}
	.st6{fill:#FDC490;}
	.st7{fill:#230950;}
	.st8{fill:#240951;}
	.st9{fill:#250A51;}
	.st10{fill:#260953;}
	.st11{fill:#250A52;}
	.st12{fill:#341656;}
	.st13{fill:#270D54;}
	.st14{fill:#260C52;}
	.st15{fill:#2A1056;}
	.st16{fill:#2B1157;}
	.st17{fill:#2B1255;}
	.st18{fill:#270C53;}
	.st19{fill:#280C53;}
	.st20{fill:#250954;}
	.st21{fill:#270B53;}
	.st22{fill:#270A52;}
	.st23{fill:#260A53;}
	.st24{fill:#250A54;}
	.st25{fill:#FEFEFD;}
	.st26{fill:#3E1E5A;}
	.st27{fill:#FFFFFF;}
	.st28{fill:#FEC38F;}
	.st29{fill:#230751;}
	.st30{fill:#230850;}
	.st31{fill:#270953;}
	.st32{fill:#240952;}
	.st33{fill:#250952;}
	.st34{fill:#351C5E;}
	.st35{fill:#250951;}
	.st36{fill:#E7CFBB;}
	.st37{fill:#250B52;}
	.st38{fill:#260C53;}
	.st39{fill:#260B52;}
	.st40{fill:#260B54;}
	.st41{fill:#270D53;}
	.st42{fill:#2D1357;}
	.st43{fill:#2C1357;}
	.st44{fill:#270E54;}
	.st45{fill:#A5C8FE;}
	.st46{fill:#E76061;}
	.st47{fill:#FECECE;}
	.st48{fill:#E8CFBC;}
	.st49{fill:#280A54;}
	.st50{fill:#E75F5F;}
	.st51{fill:#E8CFBB;}
	.st52{fill:#270B54;}
	.st53{fill:#A5C8FC;}
	.st54{fill:#270A54;}
	.st55{fill:#321356;}
	.st56{fill:#A1C1F1;}
	.st57{fill:#A8C4F3;}
	.st58{fill:#F7F9FC;}
	.st59{fill:#FDFDFD;}
	.st60{fill:#290E54;}
	.st61{fill:#2D0F55;}
	.st62{fill:#F2EFF1;}
	.st63{fill:#2E1257;}
	.st64{fill:#E7CEBB;}
	.st65{fill:#FBF8F5;}
	.st66{fill:#331457;}
	.st67{fill:#6B3C1A;}
	.st68{fill:#C0D2D8;}
</style>
<path class="st0" d="M2248.43,574.47c-263.72-26.26-843.35-43.64-1052.11,96.89C935.39,847.01,533.51,918.2,386.37,891.78
	c-147.15-26.42-532.74-65.05-643.49-1.75c-88.6,50.65,13.31,205.48,77.57,254.33c742.87-44.96,1803.58-11,1847.91-10.88
	c472.29,1.28,631.37-70.25,619.03-186.66C2277.51,853.69,2257.3,659.78,2248.43,574.47z"/>
<path class="st1" d="M38.27,960.04c-6.56,0-13.11,0.01-19.67-0.01c-1.1,0-2.71,0.35-2.78-1.23c-0.08-1.65,1.55-1.36,2.64-1.36
	c13.24-0.02,26.48-0.02,39.72,0.01c1.06,0,2.75-0.43,2.75,1.21c0,1.94-1.83,1.35-2.99,1.36C51.38,960.07,44.83,960.04,38.27,960.04z
	"/>
<path class="st2" d="M103.48,734.46c2.2,0.24,3.64,1.36,3.62,3.67c-0.02,2.06-1.24,3.4-3.35,3.51c-2.28,0.12-3.77-1.15-3.85-3.39
	C99.81,736.02,101.21,734.74,103.48,734.46z"/>
<g>
	<g>
		<path class="st3" d="M2273.79,615.23c0,0,2.95-35.53-47.96-32.44c0,0-12.51-26.91-34.11-26.05c0,0,6.68-55.36-45.77-59.82
			c-52.45-4.46-53.82,49.19-53.82,49.19l2.44-19.79c0,0-15.98-27.35-55.58-10.04c-39.59,17.31-39.77,40.97-39.77,40.97
			s-28.62-7.88-41.48,37.71s11.66,34.45,11.66,34.45l117.6,45.42l115.81-16.11l56.28,3.49l22.36-11.37l4.07-28.8L2273.79,615.23z"/>
		<path class="st4" d="M2199.61,745.97c1.92,4.98,7.95,7.32,8.46,13.19c-2.47,2.55-5.73,2.23-8.8,2.23
			c-55.35,0.06-110.7,0.06-166.05,0c-3.07,0-6.33,0.32-8.81-2.21c2.81-6.84,9.01-10.65,14.74-15.92
			c-27.97-13.57-49.84-33-64.37-60.14c1.71-2.28,4.23-2.26,6.68-2.27c54.05-0.05,108.1-0.02,162.15,0.06
			c0.89,0.16,0.1,1.11,0.2,0.24c0.03-0.25-0.71-0.34-1.18-0.34c-53.84-0.02-107.68,0.02-161.51-0.04c-3.47,0-7.25,0.9-10.1-2.19
			c0.73-3.5-2.44-5.71-2.94-8.8c0.82-1.88,2.62-2.35,4.3-2.79c18.37-4.82,34.2-14.6,49.53-25.33c1.99-1.39,3.78-3.18,6.47-3.06
			c11.96,6.41,24.49,10.07,38.29,9.58c8.43-0.3,16.52-1.75,23.91-5.38c4.83-2.37,7.36-1.53,10.51,2.36
			c11.69,14.44,28.76,18.56,45.52,11.19c9.88-4.34,16.68-11.83,20.43-21.83c1.26-3.35,2.53-4.05,5.7-2.65
			c10.25,4.51,20.74,4.73,31.12,0.65c5.11-2.01,5.64,2.32,7.28,4.7c9.84,14.35,26.82,19.63,42.91,13.48
			c13.48-5.15,23.75-21.83,21.4-30.62c1.12-1.54,1.45-4.52,4.54-2.47c2.43,4.49,1.22,9.29,0.51,13.77
			c-1.78,11.24-3.93,22.45-7.93,33.19c-0.93,2.24-2.05,4.35-3.87,6.02c-3.24,3.52-3.03,9.11-7.23,12.07
			c-2.27-2.62-5.35-1.81-8.17-1.82c-23.9-0.07-47.8-0.02-71.7-0.02c23.65,0.04,47.29,0,70.94,0.05c3.08,0.01,6.31-0.53,8.98,1.73
			c-1.25,6.81-5.93,11.8-9.63,17.17c-13.6,19.7-32.32,33.25-53.68,43.47c-2.79,2.56-6.29,1.96-9.56,1.97
			c-22.78,0.07-45.55,0.02-68.33,0.06c-2.4,0-4.84-0.35-7.2,0.77C2141.96,746.28,2170.78,746.88,2199.61,745.97z"/>
		<path class="st5" d="M2024.41,759.17c33.29,0.09,66.58,0.24,99.87,0.25c27.93,0,55.86-0.17,83.79-0.26
			c38.19,0.09,76.38,0.19,114.57,0.28c4.91,0.01,9.83-0.08,14.74,0.02c2.07,0.04,5.26-0.65,5.11,2.6c-0.15,3.09-3.3,2.13-5.37,2.34
			c-0.88,0.09-1.79,0.01-2.68,0.01c-132.91,0-265.82,0.01-398.73-0.09c-3,0-8.56,1.83-8.53-2.19c0.04-4.89,5.7-2.54,8.8-2.57
			C1965.45,759.27,1994.93,759.26,2024.41,759.17z"/>
		<path class="st6" d="M1957.23,618.44c4.58-0.41,8.07,0.81,11.63,4.35c13.05,12.97,28.46,16.04,45.55,8.74
			c5.22-2.23,6.82,2.49,9.88,4.46c0.45,2.2-1.23,3.25-2.58,4.24c-15.28,11.16-31.25,21.01-50,25.33c-2.31,0.53-4.72,1.57-7-0.23
			c-1.73-4.96-6.32-9.32-3.24-15.29c8.16-2.99,16.76-0.17,26.51-2.04c-10.11-1.85-19.05,0.52-27.67-1.71
			c-6.75-6.74-5.75-15.68-6.82-24.04C1954.01,620.27,1955.2,618.94,1957.23,618.44z"/>
		<path class="st7" d="M2003.44,553.94c6,1.87,11.51,3.04,16.16,6.29c3.18,2.22,3.69-0.91,4.93-2.42
			c8.14-9.84,20.38-13.7,31.83-9.77c2.06,0.71,5.76,0.9,4.6,4.29c-1.15,3.38-3.86,0.65-5.65,0.12c-10.4-3.05-20.85,0.07-27.13,8.08
			c-2.11,2.69-2.32,4.42,0.3,7.18c6.64,7.01,10.41,15.49,10.78,25.28c0.07,1.9,0.74,4.77-2,4.85c-2.7,0.08-2.12-2.8-2.35-4.71
			c-2.16-17.56-13.59-30.55-29.65-33.76c-16.35-3.26-32.17,4.04-40.31,18.51c-2.68,4.77-3.9,9.93-4.67,15.25
			c-0.27,1.87,0.44,4.92-2.3,4.7c-3.07-0.25-2.1-3.39-2.01-5.48c0.77-18.77,16.72-35.78,36.29-37.88c4.98-0.53,6.99-2.57,9.17-6.66
			c12.27-22.94,31.42-35.88,57.49-38.26c0.67-0.06,1.36-0.22,2-0.11c1.95,0.33,5.22-1.23,5.18,2.27c-0.03,2.78-2.96,2-4.83,2.1
			c-11.14,0.59-21.52,3.68-31.04,9.48C2018.25,530.58,2009.35,540.6,2003.44,553.94z"/>
		<path class="st8" d="M1957.23,618.44c-0.83,0.87-1.65,1.75-2.48,2.62c-2.73,1.31-4.62-0.89-6.78-1.72
			c-9.65-3.68-17.5,0.61-19.4,10.73c-3.34,17.79,8.31,32.56,26.4,33.53c3.51,0.19,7.18-0.65,10.46,1.36
			c22.64-3.53,41.13-15.48,58.86-28.96c1.36,0.87,2.73,1.73,4.1,2.6c-18.01,14.45-37.53,25.97-60.31,31.18
			c-24.07,4.86-43.55-7.98-46.42-30.58c-0.43-3.35-0.13-6.62,0.51-9.93c1.54-7.91,4.98-14.69,13.14-16.93
			C1943.48,610.07,1951.11,612.13,1957.23,618.44z"/>
		<path class="st9" d="M2195.17,545.03c-0.2,1.65,0.99,4.77-2.3,4.81c-2.78,0.03-2.02-2.9-2.19-4.78
			c-2.2-25.36-21.81-44.39-46.41-45c-25.44-0.64-45.64,16.8-49.51,42.44c-0.38,2.5,1.33,7.44-2.49,7.18
			c-4.26-0.3-2.2-5.14-1.93-7.78c2.84-26.94,26.71-47.4,54.01-46.57C2171.3,496.13,2194.06,518.25,2195.17,545.03z"/>
		<path class="st10" d="M1971.01,678.57c58.1-0.01,116.2-0.03,174.3-0.04c1.12,0,2.24-0.04,3.35,0.05c1.41,0.11,2.86,0.56,2.72,2.24
			c-0.13,1.56-1.53,2.02-2.99,2.03c-1.79,0.01-3.58,0.03-5.36,0.03c-53.63,0-107.26,0-160.9,0.01c-2.45,0-4.9,0.14-7.35,0.22
			C1972.52,682.44,1967.9,683.71,1971.01,678.57z"/>
		<path class="st11" d="M2278.88,617.55c-0.97,1.07-1.54,2.68-3.42,2.52c-1.65-1.24-1.48-3.07-1.67-4.84
			c-1.76-16.52-13.35-28.29-29.7-30.3c-1.99-0.24-5.36,0.77-5.05-2.6c0.29-3.14,3.44-1.93,5.46-1.8
			c14.95,1.01,27.36,11.29,32.43,26.76c0.79,2.43,0.87,5.02,4.98,4.36c12.64-2.03,21.88,8.2,22.71,21.45
			c1.09,17.41-10.06,32.15-27.33,36.14c-2.81,0.65-5.72,0.9-8.58,1.33c-0.02-2.11,0.82-3.87,2.21-5.4c2.88-2.28,6.49-2.85,9.78-4.16
			c11.12-4.43,16.87-12.88,17.57-24.56C2299.01,624.32,2292.78,618.51,2278.88,617.55z"/>
		<path class="st12" d="M2199.61,745.97c-1.46,2.16-3.67,2.17-5.95,2.16c-27.21-0.03-54.43,0-81.64-0.08
			c-2.17-0.01-5.77,1.1-5.58-2.69c0.15-3.13,3.44-2.1,5.46-2.1c28.77-0.06,57.55-0.04,86.32-0.04
			C2198.68,744.13,2199.15,745.05,2199.61,745.97z"/>
		<path class="st13" d="M2191.7,554.12c20.15,0.8,38.37,18.98,39.03,38.6c0.06,1.91,0.78,4.79-1.79,5.08
			c-3.4,0.38-2.49-3.01-2.8-4.94c-3.16-20.05-14.6-31.48-34.43-34.29c-1.84-0.26-4.83,0.6-4.79-2.19
			C2186.98,553.04,2190.14,554.37,2191.7,554.12z"/>
		<path class="st14" d="M2143.59,581.42c-1.22,3.22-3.48,1.73-5.58,1.38c-13.01-2.18-24.25,1.42-33.66,10.63
			c-4.22,4.12-7.07,9.14-8.91,14.72c-0.52,1.58-1.13,3.31-2.98,2.88c-2.44-0.58-1.69-2.57-1.28-4.37
			c4.28-19.03,30.56-34.05,49.21-28.06C2141.84,579.06,2143.44,579.45,2143.59,581.42z"/>
		<path class="st15" d="M2220.77,605.34c8.55,0.42,16.08,3.2,21.86,9.85c1.12,1.29,2.89,2.77,0.97,4.51s-3.12-0.23-4.41-1.39
			c-10.52-9.45-19-10.68-31.02-4.48c-1.7,0.88-3.61,2.91-5.02,0.2c-1.33-2.55,1.45-3.37,2.98-4.36
			C2210.54,606.79,2215.54,605.74,2220.77,605.34z"/>
		<path class="st16" d="M2162.26,615.03c0.01,1-0.46,1.69-1.38,2.03c-1.93,0.72-2.83-0.77-3.87-1.88
			c-6.71-7.09-14.85-9.66-24.3-7.29c-2.74,0.69-5.26,2.33-7.83,3.62c-1.27,0.64-2.59,1.2-3.63-0.02c-1.02-1.21-0.39-2.41,0.6-3.52
			c8.41-9.46,35.21-5.56,39.93,5.83C2161.94,614.21,2162.1,614.62,2162.26,615.03z"/>
		<path class="st17" d="M2001.64,589.48c-10.94-0.03-19.83,6.49-23.72,17.29c-0.67,1.86-0.27,5.4-3.52,4.39
			c-2.9-0.9-1.3-3.9-0.79-5.85c3.06-11.72,14.94-20.49,27.59-20.35c2.43,0.03,6.46-0.9,6.4,2.71
			C2007.55,591.36,2003.79,589.16,2001.64,589.48z"/>
		<path class="st18" d="M2129.04,540.51c9.81,0.03,16.91,3.23,22.63,9.46c1.18,1.29,2.74,2.89,1.09,4.63
			c-1.91,2.02-3.03-0.2-4.27-1.3c-11-9.76-18.38-10.79-31.52-4.27c-1.64,0.81-3.28,2.18-4.61,0.1c-1.41-2.21,0.84-3.16,2.2-4.05
			C2119.34,541.95,2124.59,540.31,2129.04,540.51z"/>
		<path class="st19" d="M2119.67,666.77c-36.16,0-72.32,0-108.48-0.01c-1.78,0-3.57-0.02-5.35-0.14c-1.28-0.09-2.06-1.02-2.06-2.19
			c0.01-1.22,0.92-2.01,2.17-2.1c1.56-0.11,3.12-0.13,4.68-0.13c72.77,0,145.53,0,218.3,0.01c1.34,0,2.68-0.02,4.02,0.06
			c1.34,0.09,2.89,0.25,3.02,1.94c0.16,2.1-1.47,2.46-3.13,2.51c-1.78,0.05-3.57,0.04-5.36,0.04
			C2191.54,666.77,2155.61,666.77,2119.67,666.77z"/>
		<path class="st3" d="M2278.88,617.55c9.1-3.61,17.47,0.96,20.25,11.06c3.69,13.4-3.4,27.85-16.6,33.61
			c-3.68,1.61-7.52,2.81-11.61,2.96c3.59-14.02,8-27.86,8.53-42.51C2279.52,620.86,2279.61,619.2,2278.88,617.55z"/>
		<path class="st20" d="M2156.51,694.78c28.78,0,57.57,0,86.35,0c1.56,0,3.12,0.01,4.69,0.02c1.41,0.01,2.93,0.27,3.08,1.87
			c0.21,2.14-1.54,2.35-3.16,2.41c-1.11,0.04-2.23,0.01-3.35,0.01c-58.68,0-117.37,0-176.05,0c-0.45,0-0.9,0.04-1.34-0.01
			c-2.06-0.24-5.42,0.87-5.38-2.19c0.04-3.02,3.4-2.07,5.46-2.08C2096.71,694.76,2126.61,694.78,2156.51,694.78z"/>
		<path class="st21" d="M2098.1,727.14c22.79,0,45.58,0,68.38,0c1.56,0,3.13,0.03,4.69,0.03c1.5,0,2.81,0.62,2.96,2.11
			c0.17,1.72-1.34,2.09-2.73,2.17c-1.34,0.08-2.68,0.05-4.02,0.05c-46.26,0.01-92.51,0.01-138.77,0.02c-1.12,0-2.24,0.05-3.35-0.04
			c-1.49-0.11-3.48,0.2-3.55-2.01c-0.07-2.11,1.69-2.3,3.33-2.32c2.01-0.02,4.02-0.02,6.03-0.02
			C2053.41,727.14,2075.75,727.14,2098.1,727.14z"/>
		<path class="st22" d="M2175.2,715.38c-18.1,0-36.2,0.04-54.3-0.05c-2.01-0.01-5.41,1.14-5.56-1.92c-0.19-3.85,3.54-2.45,5.64-2.46
			c36.42-0.08,72.84-0.07,109.27-0.02c2.05,0,5.46-1.01,5.59,1.93c0.17,3.77-3.56,2.44-5.68,2.45
			C2211.84,715.43,2193.52,715.38,2175.2,715.38z"/>
		<path class="st23" d="M2261.54,682.58c-27.89,0.1-55.79,0.2-83.68,0.28c-1.71,0-4.2,0.41-4.25-1.99c-0.07-3.03,2.75-2.29,4.58-2.3
			c26.11-0.05,52.23-0.03,78.34-0.07c2.94,0,5.53,0.1,4.97,4.14C2261.49,682.64,2261.54,682.58,2261.54,682.58z"/>
		<path class="st24" d="M2010.49,699.08c-6.23,0-12.45,0.01-18.68-0.01c-1.59,0-3.46-0.11-3.53-2.13c-0.08-2.14,1.86-2.14,3.42-2.15
			c12.68-0.02,25.35-0.04,38.03-0.01c1.7,0,3.99-0.28,3.79,2.38c-0.16,2.06-2.15,1.89-3.68,1.89
			C2023.39,699.1,2016.94,699.08,2010.49,699.08z"/>
		<path class="st25" d="M1965.42,664.95c-7.14,1.12-14.17,0.96-21-1.68c-13.67-5.29-21.41-20.61-17.62-34.84
			c2.96-11.1,11.44-15.13,22.04-10.42c2.02,0.9,3.94,2.03,5.91,3.06c1.2,8.28,1.97,16.65,5.15,24.52c0.84,1.65,0.85,3.52,1.36,5.26
			C1962.65,655.55,1964.03,660.25,1965.42,664.95z"/>
		<path class="st26" d="M1961.26,650.84c-3.88-0.87-4.01-2.71-1.35-5.26c9.13,0.07,18.26,0.09,27.39,0.27
			c2,0.04,5.17-0.77,4.91,2.69c-0.21,2.75-3.01,2.01-4.89,2.04C1978.62,650.71,1969.94,650.76,1961.26,650.84z"/>
	</g>
	<g>
		<path class="st3" d="M1811.43,658.29c0,0,2.2-26.46-35.72-24.16c0,0-9.32-20.04-25.4-19.4c0,0,4.98-41.23-34.09-44.55
			c-39.06-3.32-40.09,36.64-40.09,36.64l1.82-14.74c0,0-11.9-20.37-41.39-7.48s-29.62,30.51-29.62,30.51s-21.32-5.87-30.89,28.09
			s8.68,25.66,8.68,25.66l87.57,33.83l86.25-12l41.92,2.6l16.65-8.47l3.03-21.45L1811.43,658.29z"/>
		<path class="st4" d="M1756.17,755.66c1.43,3.71,5.92,5.45,6.3,9.82c-1.84,1.9-4.27,1.66-6.56,1.66
			c-41.22,0.05-82.45,0.05-123.67,0c-2.29,0-4.71,0.24-6.56-1.65c2.09-5.09,6.71-7.93,10.98-11.86
			c-20.83-10.11-37.12-24.58-47.94-44.79c1.27-1.7,3.15-1.69,4.98-1.69c40.25-0.04,80.51-0.01,120.76,0.04
			c0.66,0.12,0.08,0.83,0.15,0.18c0.02-0.18-0.53-0.26-0.88-0.26c-40.1-0.01-80.2,0.01-120.29-0.03c-2.59,0-5.4,0.67-7.52-1.63
			c0.54-2.61-1.82-4.25-2.19-6.55c0.61-1.4,1.95-1.75,3.2-2.08c13.68-3.59,25.47-10.87,36.89-18.87c1.48-1.04,2.81-2.37,4.82-2.28
			c8.91,4.77,18.24,7.5,28.52,7.13c6.28-0.22,12.31-1.31,17.81-4.01c3.6-1.76,5.48-1.14,7.83,1.76c8.71,10.75,21.42,13.82,33.9,8.34
			c7.36-3.23,12.42-8.81,15.22-16.26c0.94-2.5,1.88-3.02,4.25-1.98c7.64,3.36,15.45,3.52,23.18,0.48c3.8-1.49,4.2,1.73,5.42,3.5
			c7.33,10.69,19.98,14.62,31.96,10.04c10.04-3.84,17.69-16.26,15.94-22.8c0.84-1.14,1.08-3.37,3.38-1.84
			c1.81,3.35,0.91,6.92,0.38,10.26c-1.33,8.37-2.93,16.72-5.91,24.72c-0.69,1.66-1.53,3.24-2.88,4.48
			c-2.42,2.62-2.26,6.79-5.38,8.99c-1.69-1.95-3.99-1.35-6.08-1.35c-17.8-0.05-35.6-0.01-53.4-0.02c17.61,0.03,35.22,0,52.83,0.04
			c2.29,0,4.7-0.39,6.69,1.29c-0.93,5.07-4.41,8.79-7.17,12.79c-10.13,14.67-24.07,24.77-39.98,32.37
			c-2.08,1.91-4.68,1.46-7.12,1.47c-16.96,0.05-33.93,0.02-50.89,0.04c-1.79,0-3.6-0.26-5.36,0.57
			C1713.24,755.89,1734.7,756.34,1756.17,755.66z"/>
		<path class="st5" d="M1625.69,765.49c24.8,0.07,49.59,0.18,74.39,0.18c20.8,0,41.6-0.13,62.4-0.2
			c28.44,0.07,56.88,0.14,85.33,0.21c3.66,0.01,7.32-0.06,10.98,0.02c1.54,0.03,3.92-0.49,3.81,1.93c-0.11,2.3-2.46,1.59-4,1.74
			c-0.66,0.06-1.33,0.01-2,0.01c-98.99,0-197.98,0.01-296.97-0.07c-2.24,0-6.38,1.36-6.35-1.63c0.03-3.65,4.24-1.9,6.55-1.92
			C1581.78,765.57,1603.73,765.56,1625.69,765.49z"/>
		<path class="st6" d="M1575.65,660.68c3.41-0.31,6.01,0.6,8.66,3.24c9.72,9.66,21.2,11.95,33.92,6.51
			c3.89-1.66,5.08,1.86,7.36,3.32c0.33,1.64-0.92,2.42-1.92,3.16c-11.38,8.31-23.28,15.64-37.24,18.86
			c-1.72,0.4-3.52,1.17-5.22-0.17c-1.29-3.69-4.7-6.94-2.41-11.39c6.08-2.22,12.48-0.12,19.74-1.52c-7.53-1.38-14.19,0.39-20.6-1.28
			c-5.03-5.02-4.28-11.68-5.08-17.91C1573.25,662.04,1574.14,661.05,1575.65,660.68z"/>
		<path class="st7" d="M1610.07,612.64c4.47,1.39,8.57,2.26,12.04,4.69c2.37,1.65,2.75-0.68,3.67-1.8
			c6.06-7.33,15.18-10.2,23.7-7.27c1.53,0.53,4.29,0.67,3.43,3.19s-2.87,0.48-4.21,0.09c-7.74-2.27-15.53,0.06-20.21,6.02
			c-1.57,2-1.72,3.29,0.22,5.35c4.95,5.22,7.75,11.54,8.03,18.83c0.05,1.42,0.55,3.55-1.49,3.61c-2.01,0.06-1.58-2.09-1.75-3.51
			c-1.61-13.08-10.12-22.76-22.08-25.14c-12.17-2.43-23.96,3.01-30.02,13.79c-2,3.55-2.9,7.4-3.48,11.36
			c-0.2,1.39,0.33,3.67-1.71,3.5c-2.29-0.18-1.56-2.52-1.5-4.08c0.58-13.98,12.45-26.65,27.03-28.21c3.71-0.4,5.2-1.91,6.83-4.96
			c9.13-17.09,23.4-26.73,42.82-28.49c0.5-0.05,1.01-0.16,1.49-0.08c1.45,0.24,3.89-0.92,3.86,1.69c-0.02,2.07-2.2,1.49-3.6,1.56
			c-8.3,0.44-16.03,2.74-23.12,7.06C1621.1,595.24,1614.47,602.7,1610.07,612.64z"/>
		<path class="st8" d="M1575.65,660.68c-0.62,0.65-1.23,1.3-1.85,1.95c-2.03,0.98-3.44-0.67-5.05-1.28
			c-7.19-2.74-13.03,0.45-14.45,7.99c-2.49,13.25,6.19,24.25,19.66,24.97c2.62,0.14,5.35-0.49,7.79,1.01
			c16.86-2.63,30.63-11.53,43.84-21.57c1.02,0.65,2.03,1.29,3.05,1.94c-13.41,10.76-27.95,19.34-44.92,23.22
			c-17.92,3.62-32.43-5.94-34.58-22.78c-0.32-2.49-0.1-4.93,0.38-7.4c1.15-5.89,3.71-10.94,9.79-12.61
			C1565.41,654.44,1571.1,655.98,1575.65,660.68z"/>
		<path class="st9" d="M1752.87,606c-0.15,1.23,0.74,3.56-1.71,3.58c-2.07,0.02-1.51-2.16-1.63-3.56
			c-1.64-18.89-16.25-33.06-34.57-33.52c-18.95-0.48-33.99,12.51-36.87,31.61c-0.28,1.86,0.99,5.54-1.85,5.34
			c-3.17-0.22-1.64-3.83-1.43-5.8c2.11-20.06,19.89-35.3,40.23-34.69C1735.09,569.58,1752.04,586.06,1752.87,606z"/>
		<path class="st10" d="M1585.92,705.47c43.27-0.01,86.55-0.02,129.82-0.03c0.83,0,1.67-0.03,2.5,0.04
			c1.05,0.08,2.13,0.42,2.02,1.67c-0.1,1.16-1.14,1.5-2.22,1.51c-1.33,0.01-2.66,0.02-3.99,0.02c-39.94,0-79.89,0-119.83,0.01
			c-1.83,0-3.65,0.11-5.48,0.17C1587.04,708.34,1583.6,709.29,1585.92,705.47z"/>
		<path class="st11" d="M1815.22,660.01c-0.72,0.8-1.15,2-2.55,1.88c-1.23-0.92-1.1-2.28-1.24-3.6
			c-1.31-12.3-9.95-21.07-22.12-22.57c-1.48-0.18-3.99,0.57-3.76-1.93c0.21-2.34,2.56-1.44,4.07-1.34
			c11.14,0.75,20.38,8.41,24.15,19.93c0.59,1.81,0.65,3.74,3.71,3.25c9.41-1.51,16.3,6.11,16.91,15.97
			c0.81,12.97-7.49,23.94-20.36,26.92c-2.09,0.48-4.26,0.67-6.39,0.99c-0.02-1.57,0.61-2.88,1.65-4.02c2.14-1.7,4.83-2.12,7.29-3.1
			c8.28-3.3,12.57-9.6,13.09-18.29C1830.21,665.06,1825.56,660.73,1815.22,660.01z"/>
		<path class="st12" d="M1756.17,755.66c-1.09,1.61-2.73,1.61-4.43,1.61c-20.27-0.02-40.54,0-60.81-0.06c-1.62,0-4.29,0.82-4.15-2
			c0.11-2.33,2.56-1.56,4.07-1.56c21.43-0.05,42.86-0.03,64.29-0.03C1755.48,754.29,1755.83,754.97,1756.17,755.66z"/>
		<path class="st13" d="M1750.28,612.77c15.01,0.59,28.58,14.14,29.07,28.75c0.05,1.42,0.58,3.57-1.33,3.78
			c-2.53,0.28-1.86-2.24-2.08-3.68c-2.36-14.94-10.87-23.45-25.64-25.54c-1.37-0.19-3.6,0.45-3.57-1.63
			C1746.77,611.97,1749.12,612.96,1750.28,612.77z"/>
		<path class="st14" d="M1714.45,633.11c-0.91,2.4-2.59,1.29-4.16,1.03c-9.69-1.62-18.06,1.06-25.07,7.91
			c-3.14,3.07-5.26,6.81-6.63,10.96c-0.39,1.18-0.84,2.47-2.22,2.14c-1.82-0.43-1.26-1.92-0.96-3.26
			c3.19-14.17,22.76-25.36,36.65-20.9C1713.15,631.35,1714.34,631.64,1714.45,633.11z"/>
		<path class="st15" d="M1771.93,650.92c6.37,0.31,11.98,2.38,16.28,7.34c0.84,0.96,2.15,2.07,0.73,3.36
			c-1.43,1.29-2.32-0.17-3.28-1.04c-7.84-7.04-14.15-7.95-23.1-3.34c-1.27,0.65-2.69,2.17-3.74,0.15c-0.99-1.9,1.08-2.51,2.22-3.25
			C1764.32,652,1768.04,651.22,1771.93,650.92z"/>
		<path class="st16" d="M1728.35,658.14c0.01,0.74-0.34,1.26-1.03,1.51c-1.43,0.53-2.1-0.58-2.88-1.4
			c-4.99-5.28-11.06-7.19-18.1-5.43c-2.04,0.51-3.91,1.74-5.83,2.7c-0.94,0.47-1.93,0.89-2.7-0.02c-0.76-0.9-0.29-1.8,0.45-2.62
			c6.26-7.05,26.22-4.14,29.74,4.34C1728.12,657.53,1728.24,657.83,1728.35,658.14z"/>
		<path class="st17" d="M1608.73,639.11c-8.15-0.02-14.77,4.84-17.67,12.88c-0.5,1.39-0.2,4.02-2.62,3.27
			c-2.16-0.67-0.97-2.9-0.59-4.35c2.28-8.73,11.13-15.26,20.55-15.16c1.81,0.02,4.81-0.67,4.77,2.02
			C1613.13,640.51,1610.33,638.87,1608.73,639.11z"/>
		<path class="st18" d="M1703.61,602.64c7.31,0.02,12.59,2.4,16.86,7.04c0.88,0.96,2.04,2.15,0.81,3.45
			c-1.42,1.5-2.26-0.15-3.18-0.97c-8.19-7.27-13.69-8.04-23.47-3.18c-1.22,0.61-2.45,1.62-3.43,0.07c-1.05-1.65,0.63-2.35,1.64-3.02
			C1696.39,603.71,1700.3,602.49,1703.61,602.64z"/>
		<path class="st19" d="M1696.64,696.67c-26.93,0-53.86,0-80.79,0c-1.33,0-2.66-0.02-3.98-0.11c-0.95-0.07-1.54-0.76-1.53-1.63
			c0.01-0.91,0.69-1.5,1.62-1.56c1.16-0.08,2.32-0.09,3.49-0.09c54.19,0,108.39,0,162.58,0c1,0,2-0.02,2.99,0.05
			c1,0.06,2.15,0.19,2.25,1.45c0.12,1.56-1.1,1.83-2.33,1.87c-1.33,0.04-2.66,0.03-3.99,0.03
			C1750.17,696.67,1723.4,696.67,1696.64,696.67z"/>
		<path class="st3" d="M1815.22,660.01c6.78-2.69,13.01,0.71,15.08,8.24c2.75,9.98-2.53,20.74-12.36,25.03
			c-2.74,1.2-5.6,2.09-8.64,2.2c2.68-10.44,5.96-20.75,6.35-31.66C1815.69,662.48,1815.76,661.24,1815.22,660.01z"/>
		<path class="st20" d="M1724.07,717.53c21.44,0,42.88,0,64.31,0c1.16,0,2.33,0,3.49,0.01c1.05,0.01,2.18,0.2,2.3,1.39
			c0.16,1.6-1.15,1.75-2.36,1.8c-0.83,0.03-1.66,0.01-2.49,0.01c-43.71,0-87.41,0-131.12,0c-0.33,0-0.67,0.03-1-0.01
			c-1.53-0.18-4.04,0.65-4.01-1.63c0.03-2.25,2.53-1.54,4.06-1.55C1679.53,717.52,1701.8,717.53,1724.07,717.53z"/>
		<path class="st21" d="M1680.57,741.64c16.98,0,33.95,0,50.93,0c1.16,0,2.33,0.02,3.49,0.02c1.12,0,2.09,0.46,2.2,1.57
			c0.13,1.28-1,1.55-2.04,1.62c-1,0.06-2,0.04-2.99,0.04c-34.45,0-68.9,0.01-103.35,0.01c-0.83,0-1.67,0.04-2.5-0.03
			c-1.11-0.08-2.59,0.15-2.65-1.5c-0.05-1.57,1.26-1.72,2.48-1.73c1.5-0.01,3-0.01,4.49-0.01
			C1647.28,741.64,1663.93,741.64,1680.57,741.64z"/>
		<path class="st22" d="M1737.99,732.88c-13.48,0-26.96,0.03-40.44-0.04c-1.5-0.01-4.03,0.85-4.14-1.43
			c-0.14-2.87,2.64-1.83,4.2-1.83c27.13-0.06,54.25-0.05,81.38-0.01c1.53,0,4.07-0.75,4.17,1.44c0.13,2.81-2.65,1.81-4.23,1.82
			C1765.29,732.91,1751.64,732.88,1737.99,732.88z"/>
		<path class="st23" d="M1802.3,708.45c-20.77,0.07-41.55,0.15-62.32,0.21c-1.27,0-3.13,0.31-3.17-1.49
			c-0.05-2.25,2.05-1.71,3.41-1.71c19.45-0.04,38.9-0.02,58.35-0.05c2.19,0,4.12,0.08,3.7,3.09
			C1802.26,708.5,1802.3,708.45,1802.3,708.45z"/>
		<path class="st24" d="M1615.32,720.74c-4.64,0-9.28,0.01-13.91-0.01c-1.18,0-2.58-0.08-2.63-1.59c-0.06-1.6,1.39-1.6,2.54-1.6
			c9.44-0.02,18.88-0.03,28.32,0c1.27,0,2.97-0.21,2.82,1.78c-0.12,1.53-1.6,1.41-2.74,1.41
			C1624.93,720.75,1620.12,720.74,1615.32,720.74z"/>
		<path class="st25" d="M1581.76,695.32c-5.31,0.83-10.55,0.72-15.64-1.25c-10.18-3.94-15.95-15.35-13.12-25.95
			c2.2-8.26,8.52-11.27,16.42-7.76c1.51,0.67,2.93,1.51,4.4,2.28c0.89,6.17,1.47,12.4,3.84,18.26c0.63,1.23,0.63,2.62,1.01,3.92
			C1579.69,688.31,1580.72,691.82,1581.76,695.32z"/>
		<path class="st26" d="M1578.65,684.81c-2.89-0.65-2.99-2.02-1.01-3.92c6.8,0.06,13.6,0.07,20.4,0.2c1.49,0.03,3.85-0.57,3.65,2
			c-0.16,2.05-2.25,1.5-3.65,1.52C1591.58,684.71,1585.12,684.75,1578.65,684.81z"/>
	</g>
	<g>
		<path class="st27" d="M1753.33,640.09l-2.38,3.64c0,0,3.93,24.46,11.74,25.56c7.81,1.1,23.86,11.82,23.86,11.82l18.01-8.34
			l17.88-0.95l26.25-10.13l5.73-8.92h3.23c0,0,27.42,4.66,51.74,4.68s53.69-6.39,53.69-6.39l4.18-0.93l22.3,5.03l25.55,15.4
			l34.87-7.15c0,0,15.18-11.89,20.27-21.62s4.2-30.82,4.2-30.82s19.8-12.2,22.86-37.5s-18.21-45.55-18.21-45.55l-2.89-10.89
			c0,0-6.13-34.21-28.26-40.85c-22.13-6.64-33.87-12.09-39.83-8.17c-5.96,3.91-1.42-1.2-1.42-1.2l-1.52,0.91l-25.15,3.43
			c0,0-2.89-10.64-8.34-12.34c-5.45-1.7-12.6-4.26-12.6-4.26s-5.97-16.72-13.62-17.36c-7.65-0.64-9.19-5.93-31.83,8.1
			c0,0-15.49,3.65-21.62,8.41c-6.13,4.77-11.26,17-11.26,17l-1.34,17.72v-3.23l-1.4-2.43l-1.55-2.02l-12.62-4.94l-12.47,2.8
			l-5.59,1.57l-10.54,2.2l-8.74-1.64l-10.24,6.4l-4.6-12.36l-3.91-6.28l-13.81-8.98l-14.44-16.28l-19.63-10.15l-8.96-10.39
			l-11.06-2.55l-7.1-0.56c0,0-11.21-8.81-22.65-7.96c-11.44,0.85-13.31,7.08-13.31,7.08s-6.12-2.82-12.09-2.83
			s-12.75,12.04-12.94,14.16s-10.52,2.34-10.52,2.34s-5.98,2.53-5.9,9.62c0.08,7.08,6.72,15.07,6.72,15.07s9.7,2.06,11.57,1.04
			s4.6-2.31,4.6-2.31l13.4,9.7l18.46-2.37l14.1-11.62l-3.87,19.2l-11.97,24.16l-5.96,15.32c0,0-1.7,27.74,16,38.3
			c17.7,10.55,24.51-4.94,24.51-4.94l-19.23,1.58c0,0-15.39,27.04-4.45,42.18"/>
		<path class="st28" d="M1979.28,747.57c0.01-0.66,0.02-1.32,0.03-1.97c0.88-0.65,2.19-0.45,2.92-1.54
			c-0.94-0.36-2.1,0.57-2.88-0.48c0.2-8.04-0.9-16.13,0.81-24.12c2.73,3.87,0.77,8.2,1.28,11.93c-0.33-4.03,2.74-8.72-1.29-12.76
			c-0.07-0.33-0.07-0.65,0-0.98c3.41-2.49,0.67-5.53,0.72-8.33c0.09-3.45-0.68-6.97,0.76-10.31c3.74-0.8,8.51,2.52,8.58,6.95
			c0.08,5.5,1.36,11.28-1.77,16.48c-0.57,0.94-0.52,1.85-0.18,2.85c2.67,8.07,1.93,16.39,1.91,23.44c-0.1-5.35,0.78-11.96-0.71-18.5
			c-0.3-1.32-0.41-2.72,0.21-3.92c1.63-3.18,2.17-6.55,2.41-10.08c0.21-3.09,1.78-5.77,5.35-5.12c3.49,0.64,4.34,3.59,3.27,6.61
			c-1.4,3.96,0.02,8.76-3.68,12.04c-0.57,0.51-0.43,1.62-0.19,2.41c1.79,5.95,0.17,11.39-2.41,16.7c-1.49,3.07,0.41,5.42,1.7,7.89
			c0.75,2.39,2.41,3.34,4.87,3.35c12.58,0.03,25.16-0.04,37.73,0.03c3.72,0.02,3.91-1.62,3.14-4.71
			c-2.02-8.01-5.11-15.73-6.51-23.91c0.71-3.19,0.01-6.25-0.87-9.3c-3.74-12.91-7.48-25.81-11.15-38.74
			c-0.73-2.58-2.28-4.31-4.33-5.84c-7.73-5.74-15.65-11.22-23.19-17.2c-1.63-1.29-4.62-2.21-3.25-5.29
			c0.96-2.14,6.14-2.61,8.55-0.59c3.72,3.11,7.75,5.68,11.96,8c5.57,1.42,10.8,4.59,16.91,3.31c4.67,0.8,9.22,0.26,13.75-1.02
			c6.27-1.77,6.82-1.15,9.84,4.75c3.28,6.42,4.44,13.03,4.09,20.14c-0.28,5.61-0.33,11.27,0.6,16.86
			c-1.88,17.88,2.9,34.81,7.25,51.82c0.78,3.04,2.6,3.2,5.11,3.18c15.12-0.07,30.24-0.05,45.36-0.01c1.62,0,3.33-0.48,4.86,0.5
			c-1.1,1.92-3.01,1.88-4.82,1.88c-40.15-0.08-80.3,0.29-120.44-0.16c-3.53-1.18-7.2-1-10.84-0.96c-3.64,0.05-5.18-1.2-4.03-5.08
			C1981.74,754.29,1982.44,750.61,1979.28,747.57z"/>
		<path class="st28" d="M1674.77,455.82c0.96-0.62,1.92-1.25,2.89-1.87c2.25,0.05,2.85,2.07,3.94,3.42
			c9.8,12.08,23.99,11.96,33.18-0.6c2.51-3.43,5.26-4.84,9.45-5.23c10.75-1.01,21.55-1.28,32.26-2.67c0.66-0.09,1.33-0.13,1.99-0.11
			c2.7,0.06,5.8-0.01,6.33,3.42c0.59,3.79-2.77,4.02-5.29,4.54c-6.19,1.27-12.46,2.11-18.69,3.2c-6.03,1.05-12.08,1.92-18.06,3.27
			c6.43-0.18,12.6-2.16,18.97-2.75c1.16-0.11,2.29-0.43,3.46-0.42c1.17,0.01,2.56-0.01,3.08,1.16c0.67,1.51-0.61,2.49-1.65,3.26
			c-6.53,4.86-13.96,6.8-22.52,6.7c2.39,1.01,4.95,0.01,6.52,1.98c0.32,1.11,0.55,2.25,0.99,3.31c1.15,2.81,1.02,4.08-2.71,4.85
			c-7.19,1.5-11.28,6.69-12.24,13.9c-0.34,2.52-1.11,3.64-3.5,4.49c-7.77,2.77-10.68,7.72-9.85,16.02
			c-7.05,0.5-13.41,3.6-20.12,5.39c-2.44,0.65-3.64,2.75-4.73,4.85c-1.09,2.09-2.4,4-4.61,5.06c-1.22,0.59-2.6,1.13-3.75,0.16
			c-1.44-1.22-0.2-2.47,0.46-3.49c2.88-4.49,5.06-9.31,6.81-14.36c-2.44,4.15-4.01,8.79-6.95,12.65c-1.84,2.41-3.13,5.97-7.31,4.15
			c-3.12-1.36-4.95-6.04-4.09-9.85c0.75-3.31,3.09-5.84,4.3-8.9c-0.35-0.29-0.54-0.15-0.84,0.16c-1.39,1.44-1.87,4.6-4.64,3.55
			c-2.49-0.95-2.41-3.72-2.49-6.06c-0.1-3.07,0.99-5.85,2.08-8.65C1663.21,485.5,1669.83,470.99,1674.77,455.82z"/>
		<path class="st29" d="M1832.06,737.16c-3.49-1.41-2.23-3.98-1.39-6.27c4.62-12.48,9.37-24.9,14.17-37.3
			c4.2-10.85,3.98-22.54,6.8-34.53c-8.53,8.04-17.66,13.24-28.83,14.09c-2.28,0.17-2.91,1.79-2.02,3.54
			c5.36,10.58,1.58,20.83-1.04,31.09c-2.83,11.12-5.21,22.35-8.15,33.44c-0.68,2.57-0.91,5.88-4.91,5.82
			c-3.06-2.04-1.47-4.8-0.9-7.2c3.84-15.9,7.3-31.89,11.33-45.75c-4.14,11.24-8.23,24.55-14.68,36.94
			c-1.02,0.49-2.02,0.49-3.01-0.07c-2.13-2.78-0.52-5.42,0.46-7.97c4.74-12.24,9.58-24.43,14.09-36.76c2.6-7.1,1.59-9.81-4.52-14.12
			c-0.84-0.59-1.5-1.32-1.26-2.48c1.13-1.92,2.89-1.15,4.48-1.04c25.67,1.79,45.45-15.11,47.74-40.8c0.13-1.45-0.22-3.65,1.68-3.59
			c2.38,0.07,1.69,2.46,1.63,3.98c-0.29,7.98-2.99,15.24-7.23,22.59c34.92,6.61,69.26,7.52,103.43-2.11
			c0.2-1.94-1.52-2.08-2.34-2.95c-0.9-0.95-2.32-1.85-1.07-3.29c1.31-1.5,2.38-0.05,3.36,0.71c6.18,4.75,13.02,7.88,20.83,8.84
			c13.76,1.68,25.57-2.37,35.55-11.91c0.36-0.34,0.66-0.76,1.06-1.05c1.07-0.79,1.89-3.06,3.53-1.5c1.8,1.7-0.25,2.96-1.29,4.08
			c-3.54,3.8-7.68,6.84-12.32,9.2c-1.32,0.67-2.64,1.33-4.37,2.2c2.5,2.4,4.9,4.3,7.6,5.86c1.4,0.81,3.08,1.55,2.53,3.73
			c-4.82,0.74-7.74-2.74-10.52-5.48c-3.4-3.36-6.49-2.89-10.56-1.07c9.45,7.03,18.57,13.89,27.78,20.62c2.51,1.83,4.15,3.88,5,7
			c3.79,13.89,7.85,27.71,11.79,41.55c0.53,1.85,1.67,3.77-0.33,5.49c-3.49,0.07-3.72-2.84-4.38-5.08
			c-3.57-12.11-7.16-24.21-10.37-36.41c-1.36-5.15-3.95-9.03-8.52-11.64c-6.59-4.78-13.15-9.63-19.56-14.66
			c-4.4-3.45-8.85-6.37-14.7-6.53c-1.96-0.05-3.94-0.58-5.92-1.38c0.28,1.06,0.88,1.83,1.5,2.4c11.68,10.82,9.52,24.89,9.14,38.55
			c-0.03,1.03-0.45,1.93-1.11,2.72c-0.31,3.84-0.73,7.68-0.17,11.53c-1.17,1.63,0.97,4.52-2.08,5.42c-2.43-1.13-1.75-3.34-1.7-5.23
			c0.25-11.29,0.48-22.57,0.92-33.85c0.11-2.85-0.75-5-2.33-7.3c-3.94-5.71-8.7-10.89-11.68-17.21c-0.65-1.38-1.18-1.26-2.14-0.95
			c-33.14,10.4-66.79,9.38-100.61,4.44c-5.8-0.13-5.05,4.43-5.69,7.98c-1.23,20.22-8.33,38.8-15.82,57.29"/>
		<path class="st28" d="M1808.23,669.65c0.23,0.83,0.65,1.52,1.5,1.83c6.1,2.22,8.4,6.88,6.1,13.09
			c-5,13.47-10.17,26.88-15.25,40.32c-0.68,1.81-1.88,3.58-0.94,5.68c1.2,3.69-1.12,6.61-2.23,9.77c-0.59,1.69-1.4,3.32-2.05,5
			c-0.97,1.91-1.62,3.93-2.13,6c-0.5,1.33-1.19,2.59-1.6,3.96c-1.72,2.66-1.26,6.54-4.62,8.3c-6.95,0.51-13.89,1-20.81-0.29
			c-1.92-1.45-0.25-2.38,0.5-3.44c1.56-1.2,1.96-3.01,2.47-4.75c5.45-18.76,10.55-37.63,15.9-56.42c0.9-3.16,0.92-6.14-0.24-9.21
			c-1.17-3.1-1.97-6.32-2.76-9.54c-0.56-2.29-0.39-4.33,2.33-5.18c5.78-0.18,11-1.79,15.25-5.91c1.24-0.79,2.53-0.89,3.86-0.26
			C1805.09,668.95,1806.66,669.3,1808.23,669.65z"/>
		<path class="st30" d="M2008.31,466.77c10.09-1.28,20.12-0.13,29.64,3.5c19.28,7.36,33.72,19.69,39.47,40.37
			c0.27,0.96,0.72,1.99,0.57,2.91c-1.29,8.13,3.09,13.36,7.97,19.34c14.34,17.57,17.21,37.62,8.02,58.41
			c-9.26,20.93-26.08,32.07-48.93,33.98c-0.83,0.07-1.66,0.08-2.49,0.04c-1.06-0.05-2.08-0.4-2.1-1.62
			c-0.02-1.18,0.92-1.64,1.99-1.74c2.97-0.29,5.99-0.32,8.92-0.87c27.13-5.12,45.44-28.34,44.02-55.72
			c-1.37-26.54-22.74-48.04-49.84-50.25c-1.79-0.15-5.1,0.92-4.93-1.67c0.19-2.88,3.52-1.5,5.45-1.47
			c5.19,0.07,10.19,1.38,15.08,3.06c4.69,1.61,9.01,4.03,13.72,7.02c0.78-8.52-1.49-15.61-5.35-22.28
			c-11.68-20.17-37.72-32.69-61.24-29.69c-2.42,0.31-3.39,1.57-4.33,3.43c-3.67,7.25-7.4,14.48-11.16,21.68
			c-0.63,1.21-0.92,3.34-2.95,2.67c-2.21-0.73-0.47-2.52-0.57-3.83c5.29-10.09,8.21-15.97,13.64-25.99"/>
		<path class="st31" d="M1772.51,729.46c3.08-3.59,3.1-8.25,4.3-12.48c2.38-8.39,5.05-16.7,6.5-25.33
			c-0.31-1.11-0.66-2.21-0.93-3.33c-1.68-7.04-3.74-13.09-12.6-14.7c-6.32-1.15-10.34-6.87-14.21-11.92
			c-4.02-3.57-4.99-8.38-5.26-13.38c-0.11-2.08,0.04-4.44,3.11-4.59c1.52,0.98,1.19,2.56,1.38,4.02
			c1.85,14.2,10.94,23.32,25.17,25.35c1.59,0.23,3.41-0.09,4.44,1.66c-1.63,1.68-2.11,3.46-0.99,5.72
			c4.53,9.17,3.68,18.16,0.53,27.8c-5.16,15.77-9.08,31.95-13.6,47.93c-0.5,1.77-0.25,4.2-2.95,4.65c-2.9-1.32-1.87-3.25-1.24-5.07"
			/>
		<path class="st31" d="M1769.52,746.88c0.9-4.52,2.4-8.92,3.81-13.96"/>
		<path class="st32" d="M1730.65,473.11c-2.32-0.08-4.65-0.1-6.97-0.27c-1.45-0.11-3.48-0.1-3.32-2.1c0.17-2.17,2.17-1.44,3.58-1.36
			c9.95,0.58,16.76-1.62,24.95-8.64c-4.73,0.72-8.3,1.25-11.86,1.81c-3.61,0.57-7.2,1.38-10.83,1.71c-2.49,0.22-6.52,2.83-7.14-0.7
			c-0.47-2.64,4.2-2.03,6.62-2.46c11.77-2.11,23.57-4.04,35.36-6.02c1.43-0.24,3.26-0.01,3.05-2.29s-1.57-2.91-3.8-2.73
			c-13.25,1.1-26.5,2.11-39.76,3.1c-1.47,0.11-2.29,0.67-3.14,1.93c-11.82,17.51-28.82,16.99-39.74-1.15
			c-0.33-2.29-0.69-4.57-0.99-6.86c-0.14-1.08,0.21-2.12,1.37-2.29s1.72,0.64,1.84,1.81c0.12,1.15,0.31,2.3,0.56,3.43
			c1.92,8.72,9.46,14.45,18.52,14.1c8.31-0.32,15.28-6.64,16.72-15.06c0.26-1.51-0.46-3.93,1.71-4.14c2.55-0.25,1.66,2.16,1.96,3.66
			c0.49,2.39,2.43,1.16,3.64,1.08c12.42-0.88,24.83-1.76,37.22-2.94c3.8-0.36,6.14,0.69,7.05,4.41c0.94,3.83-0.27,6.37-4.25,7.6
			c-6.02,1.86-11.71,4.35-16.7,8.43C1741.84,470.85,1736.12,471.77,1730.65,473.11z"/>
		<path class="st33" d="M1674.77,455.82c2.27,1.93,0.25,3.76-0.38,5.37c-5.43,13.93-11.03,27.79-16.57,41.67
			c-1.58,3.96-2.16,7.87,0.49,11.83c2.02-1.27,2.55-3.3,3.72-4.83c0.78-1.02,1.47-2.65,3.05-1.51c1.47,1.06,0.43,2.36-0.28,3.49
			c-1.14,1.83-2.23,3.7-3.42,5.5c-1.15,1.75-1.62,3.7-1.4,5.7c0.32,2.93,1.5,5.87,4.39,6.75c2.84,0.86,3.6-2.38,4.83-4.12
			c2.9-4.09,4.79-8.72,6.64-13.36c0.47-1.17,0.97-2.87,2.73-2.07c1.69,0.77,0.82,2.2,0.34,3.44c-2.26,5.92-4.94,11.6-9.02,17.11
			c4.42-0.14,6.44-2.79,7.75-6.01c1.24-3.06,3.3-4.64,6.47-5.46c5.14-1.33,10.19-3.03,15.25-4.66c1.61-0.52,3.16-1.38,3.96,1
			c-0.28,1.98-2.02,1.9-3.37,2.33c-3.94,1.28-7.85,2.71-11.86,3.71c-3.89,0.96-6.64,2.63-8.52,6.55c-2.63,5.49-8.27,7.52-13.84,5.98
			c-5.71-1.58-9.09-6.04-9.19-12.08c-0.02-1.45,0.55-2.94-0.44-4.34c-4.27-5.98-3.28-12-0.63-18.37
			c5.34-12.85,10.32-25.85,15.44-38.78C1671.73,458.68,1672.34,456.54,1674.77,455.82z"/>
		<path class="st34" d="M1993.98,761.95c12.93,0.12,25.85,0.32,38.78,0.34c27.54,0.05,55.07,0.02,82.61,0.01
			c1.82,0,3.64-0.11,5.46-0.17c2.04,1.4,1.93,2.6-0.45,3.31c-0.92,0.27-1.98,0.08-2.98,0.08c-57.69,0-115.38,0.02-173.07-0.06
			c-1.76,0-6.07,1.63-3.59-3.36C1958.49,761.96,1976.23,762.2,1993.98,761.95z"/>
		<path class="st34" d="M1783.32,761.95c12.93,0.12,25.85,0.32,38.78,0.34c27.54,0.05,55.07,0.02,82.61,0.01
			c1.82,0,3.64-0.11,5.46-0.17c2.04,1.4,1.93,2.6-0.45,3.31c-0.92,0.27-1.98,0.08-2.98,0.08c-57.69,0-115.38,0.02-173.07-0.06
			c-1.76,0-6.07,1.63-3.59-3.36C1747.83,761.96,1765.58,762.2,1783.32,761.95z"/>
		<path class="st35" d="M1924.33,435.02c17.48-5.12,29.7,0.34,36.57,16.66c0.92,2.18,2.35,2.41,4.02,2.95
			c8.91,2.86,14.64,8.82,16.94,17.86c0.62,2.44,1.62,5.19-0.63,7.51c-2.44,0.23-1.91-1.59-2.07-2.97
			c-1.33-11.37-8.15-18.38-19.5-19.92c-2.19-0.3-4.5-0.06-2.36-3.34c0.99-1.52-0.23-2.85-0.85-4.14c-7.33-15.21-27.15-17.84-39-4.84
			c4.29,1.44,8.49,2.79,11.94,5.66c6.21,5.16,9.8,11.63,10.11,19.77c0.04,1.09,0.36,2.59-1.27,2.8c-1.98,0.25-1.92-1.35-1.98-2.68
			c-0.78-17.13-20.39-28.5-36.02-18.76c-1.13,0.71-2.5,1.77-3.47,0.29c-1.22-1.86,0.71-2.56,1.91-3.32c0.97-0.62,2.03-1.46,3.1-1.54
			C1911.07,446.31,1917.24,439.82,1924.33,435.02z"/>
		<path class="st36" d="M1766.64,754.74c0.72,2.12-1.72,4.41,0.76,6.13c-0.56,0.37-1.11,0.74-1.67,1.11"/>
		<path class="st21" d="M2058.24,706.63c-1.92-0.87-1.77-2.58-1.76-4.26c0.02-3.82-0.39-7.69,0.07-11.45
			c1.07-8.71-2.1-16.25-5.65-23.8c-0.97-2.06-1.81-2.67-4.09-1.71c-4.16,1.74-8.6,2.5-13.13,2.59c-1.66,0.04-3.47,0.31-3.74-2.12
			c1.18-1.68,3.02-0.91,4.57-1.25c4.99-1.09,10.54-0.32,14.36-5.17c1.07-1.36,3.76-0.27,5.71-1.69c9.94-7.22,16.09-16.6,17.73-28.84
			c0.18-1.32,0.31-2.64,0.47-3.96c0.15-1.28,0-3.1,1.86-2.85c1.64,0.22,1.41,1.94,1.43,3.28c0.04,3.36-0.63,6.62-1.5,9.82
			c-2.96,10.88-9.18,19.5-18.66,25.55c-2.79,1.78-3.25,3.35-1.59,5.88c7.58,11.55,5.42,24.56,5.63,37.22
			C2059.99,705.25,2059.33,706.03,2058.24,706.63z"/>
		<path class="st21" d="M1819.15,482.5c7.29-3.04,14.83-3.27,22.52-2.11c1.76,0.27,3.45,0.85,5.22-0.5
			c9.7-7.43,19.6-6.78,29.59-0.38c1.15-2.64,2.27-5.2,3.39-7.76c3.46-2.92,6.93-5.79,11.99-4.44c2.35,0.62,4.22,1.92,5.61,3.88
			c0.48,0.68,0.66,1.56,0.03,2.29c-0.67,0.77-1.61,0.73-2.2,0.08c-2.98-3.29-6.33-4.18-10.16-1.63c-3.83,2.56-4.92,6.48-5.02,10.81
			c-0.03,1.39,1.2,3.18-0.68,4.01c-2.29,1.01-2.6-1.46-3.55-2.59c-6.22-7.34-17.91-8.49-26.13-2.08c-2.51,1.96-4.61,2.47-7.61,1.84
			c-5.73-1.2-11.57-1.34-17.3,0.16c-4.97,1.31-9.03,4.06-12.13,8.22c-0.78,1.05-1.46,3.23-3.33,1.7c-1.64-1.34-0.1-2.71,0.71-3.87
			C1812.43,486.8,1815.58,484.4,1819.15,482.5z"/>
		<path class="st18" d="M1818.49,487.04c4.29,3.79,7.12,8.43,8.06,14.13c-0.37,1.3,0.19,3.41-2.08,3.22
			c-1.79-0.15-1.39-1.98-1.64-3.2c-1.7-8.45-5.69-12.37-14.46-14.07c-1.28-0.25-3.02-0.02-2.77-1.93c0.24-1.77,1.99-1.59,3.22-1.32
			c4.68,1.02,3.89-1.49,3.03-4.35c-3.06-10.18-11.71-17.46-22.26-18.66c-1.45-0.17-3.03,0.16-4.3-0.9
			c-0.23-3.78,2.55-2.82,4.44-2.59c11.43,1.42,19.32,7.79,24.51,17.83c0.68,3.01,1.49,6.01,1.99,9.05
			C1816.49,485.77,1817.05,486.67,1818.49,487.04z"/>
		<path class="st37" d="M1991.5,627.31c-1.32-0.45-4.08,0.97-4.08-1.81c0-2.35,2.51-1.52,4.01-1.59
			c21.73-1.06,39.02-17.6,40.8-39.03c0.12-1.51-0.58-3.94,1.84-3.85c2.47,0.09,1.59,2.44,1.49,3.95
			C2034.05,607.95,2014.62,626.68,1991.5,627.31z"/>
		<path class="st38" d="M1811.94,637.11c-12.97-0.5-25.49-6.93-34.55-19.77c-0.84-1.19-2.85-2.69-0.7-4.14
			c1.83-1.24,2.47,0.91,3.31,2.01c14.26,18.71,34.58,23.61,55.66,13.37c1.31-0.64,2.91-2.1,3.9-0.38c1.22,2.12-1.18,2.72-2.49,3.45
			C1830.1,635.51,1822.57,637.26,1811.94,637.11z"/>
		<path class="st39" d="M1745.28,558.37c0.11-18.39,11.22-35.27,27.69-41.92c1.35-0.55,3.26-2.26,4.33-0.15
			c1.19,2.35-1.42,2.48-2.75,3.12c-20.9,9.99-29.79,29.2-23.99,51.9c0.34,1.31,1.71,3.07-0.65,3.64c-2.11,0.52-2.12-1.56-2.58-2.89
			C1745.79,567.63,1745.23,563.05,1745.28,558.37z"/>
		<path class="st1" d="M1753.54,641.39c-5.35-3.97-9.55-8.94-12.8-14.73c0.11-1.58-2.52-3.65,0.31-4.64
			c2.23-0.78,2.35,1.83,3.03,3.17c7.38,14.62,23.27,21.74,38.98,17.4c0.16-0.04,0.32-0.08,0.48-0.13c1.64-0.45,3.96-2.09,4.58,0.49
			c0.55,2.3-2.31,2.32-3.92,2.79c-7.91,2.31-15.77,2.06-23.45-0.97C1758.27,643.8,1755.94,642.53,1753.54,641.39z"/>
		<path class="st13" d="M1740.25,604.91c-13.86-0.46-26.55-12.85-27.2-26.48c-0.07-1.42-0.51-3.36,1.7-3.4
			c1.8-0.03,1.56,1.74,1.75,3.02c2.06,13.71,10.74,22.15,24.16,23.62c1.44,0.16,3.99-0.75,3.65,1.89
			C1744.02,605.86,1741.63,604.68,1740.25,604.91z"/>
		<path class="st40" d="M1735.64,418.89c10.07-0.8,18.77,1.77,24.99,10.27c2.79,3.81,4.76,7.96,4.74,12.83
			c-2.92,0.37-3.33-1.56-4.01-3.82c-3.56-11.94-15.74-18.5-27.72-15.32c-1.21,0.32-3.06,2.62-4.08-0.14
			c-1.1-2.97,1.91-2.34,3.22-3.08C1733.61,419.15,1734.68,419.12,1735.64,418.89z"/>
		<path class="st41" d="M1668.71,432.41c-0.56,0.83-1.46,0.55-2.24,0.7c-5.89,1.16-9.73,5.31-9.95,10.75
			c-0.24,5.74,3.41,10.38,9.27,11.92c1.4,0.37,4.05-0.49,3.6,2.11c-0.38,2.24-2.74,1.33-4.22,1.12
			c-7.48-1.05-12.96-8.66-11.92-16.36c1.1-8.15,7.43-13.31,15.33-12.5C1669.2,430.88,1669.1,431.64,1668.71,432.41z"/>
		<path class="st42" d="M1723.5,550.74c-8.67-0.22-17.77-9.46-17.71-17.94c0.01-1.21,0.03-2.59,1.4-2.83
			c1.85-0.33,2.04,1.24,2.2,2.59c1.03,8.56,5.9,13.36,14.37,14.62c1.26,0.19,2.99,0.03,2.83,1.96
			C1726.44,550.95,1724.84,550.76,1723.5,550.74z"/>
		<path class="st17" d="M1803.52,668.6c-1.22,1.16-2.55,0.57-3.87,0.26c-4.95-2.62-10.07-4.98-14-9.18
			c-1.94-2.07-3.51-4.35-4.6-6.98c-0.39-0.94-0.17-1.58,0.5-2.18c0.76-0.68,1.71-0.6,2.1,0.22c3.89,8.23,11.34,12.09,19.04,15.66
			C1803.56,666.81,1803.44,667.79,1803.52,668.6z"/>
		<path class="st28" d="M1993.98,761.95c-17.75,0.5-35.5,0.51-53.25,0.16c10.85-1.16,21.73-0.43,32.59-0.39
			c4.45,0.02,6.38-1.05,5.84-5.74c-0.32-2.76,0.06-5.6,0.12-8.41c4.3,0.09,4.1,3.31,3.82,6.06c-0.27,2.56-1.27,5.05-1.98,7.67
			C1985.42,761.52,1989.7,761.74,1993.98,761.95z"/>
		<path class="st43" d="M1710.38,409.56c1.75-0.11,3.24-0.2,3.33,1.67c0.08,1.56-1.22,1.7-2.44,1.81
			c-7.57,0.66-12.54,4.67-15.03,11.78c-0.58,1.66-1.68,2.79-3.25,2.16c-1.3-0.52-0.43-2.07-0.15-3.11
			C1694.95,416.18,1703.04,409.74,1710.38,409.56z"/>
		<path class="st44" d="M1668.71,432.41c-0.05-0.75-0.09-1.5-0.14-2.25c2.62-0.23,1.62-2.49,2.02-3.84
			c2.03-6.92,8.47-12.33,15.05-12.42c1.28-0.02,2.92-0.39,3.01,1.55c0.06,1.48-1.25,1.58-2.47,1.76
			c-7.25,1.05-11.85,5.11-12.53,12.48C1673.26,433.79,1670.24,431.37,1668.71,432.41z"/>
		<path class="st28" d="M1980.15,718.62c2.85-0.44,3.76,1.76,3.62,3.61c-0.37,4.85-1.3,9.66-2.01,14.49
			c-0.53-0.01-1.06-0.02-1.6-0.03c0-5.74,0-11.49,0-17.23C1980.09,719.18,1980.09,718.9,1980.15,718.62z"/>
		<path class="st28" d="M1979.35,743.58c0.16-0.02,0.33-0.07,0.49-0.05c1.65,0.13,2.68-3.02,4.68-0.91
			c0.49,0.52,0.51,1.29-0.11,1.71c-1.52,1.04-2.88,2.97-5.1,1.27C1979.32,744.93,1979.33,744.25,1979.35,743.58z"/>
		<path class="st28" d="M1980.04,715.62c2.15-1.25,1.11-3.72,2.08-5.42c0.04,0.49-0.13,1.2,0.14,1.46c3.74,3.59,0.75,4.76-2.11,6
			C1980.11,716.97,1980.08,716.29,1980.04,715.62z"/>
		<path class="st28" d="M2013.17,676.31c4.09,6.21,0.85,12.07-1.08,17.86c-6.67,20.02-13.29,40.04-16.25,61.04
			c-0.07,0.47-0.4,0.91-0.6,1.36c-3.7-2.88-3.33-5.84-1.42-9.96c1.76-3.79,3.64-8,1.85-12.82c-0.74-1.99-2.8-5.97,2.29-6.74
			c0.61-0.09,0.94-1.02,0.56-1.67c-1.79-3.11,0.53-5.72,1.19-8.43c0.67-2.75-0.17-4.53-2.48-5c-2.61-0.53-4.03,1.56-3.93,3.95
			c0.17,4.08-0.5,7.77-2.66,11.33c-0.75,1.24-0.78,3.42-0.25,4.84c2.18,5.84,0.35,11.77,0.79,17.63c0.14,1.9-0.22,3.71-2.84,3.66
			c1.29-7.99,1.42-15.91,0.05-23.86c-0.3-1.71-0.82-3.16-2.09-4.36c-0.75-0.71-1.45-2.28-0.71-2.58c6.89-2.8,1.74-8.73,3.36-12.99
			c2.01-5.31-2.33-8.51-6.66-10.91c0.08-7.64,0.04-15.28,0.3-22.91c0.1-2.98-0.55-5.41-2.39-7.8c-3.61-4.72-6.94-9.64-10.87-15.17
			c5.56,1.56,10.32,2.97,15.31,2.94c1.28-0.01,2.18,0.73,3.1,1.42C1996.23,663.52,2004.69,669.92,2013.17,676.31z"/>
		<path class="st2" d="M1691.64,474.05c2.85,0.31,4.71,1.76,4.68,4.74c-0.03,2.66-1.6,4.4-4.32,4.54c-2.94,0.15-4.87-1.49-4.98-4.38
			C1686.91,476.07,1688.71,474.42,1691.64,474.05z"/>
		<path class="st28" d="M1822.46,760.56c-0.45,1.65-1.77,1.7-3.12,1.68c-6.21-0.1-12.41-0.2-18.62-0.29
			c1.19-5.38,1.91-10.94,5.76-15.32c2.28,0.33,2.72-1.17,3.14-2.94c4.24-17.6,8.58-35.18,12.76-52.8c1.19-5.01-1.79-9.35-3.1-13.9
			c-0.98-3.42-1.2-4.9,3.17-5.17c12.24-0.76,21.97-6.85,31.02-16.66c-3.16,15.95-3.42,31.05-9.69,45.09
			c-4.53,10.15-8.06,20.74-11.96,31.16c-0.6,1.59-1.94,3.27-0.32,5.06C1828.76,744.61,1825.95,752.71,1822.46,760.56z"/>
	</g>
</g>
<g>
	<path class="st45" d="M164.64,686.8c0,0-11.94,30.76-9.38,45.87c2.56,15.11,10.78,47.63,9.38,60.87
		c-1.4,13.25-0.26,55.42-0.26,55.42l-5.78,30.82l26.74,16.84l16.31-18.05c0,0,10.06-41.07,11.42-54.32
		c1.36-13.25,0.73-20.48,1.35-22.88s4.28-42.15,10.88-36.73c6.6,5.42,0.67,40.95,8.45,57.21c7.78,16.26-5.54,57.34-5.54,57.34
		l29.27,11.91l8.53-13.97c0,0,5.89-45.65,5.76-49.87s0.91-6.62,1.6-19.27s2.06-87.32-7.36-99.36"/>
	<path class="st45" d="M272.05,663.97c-2.67,4.55-2.47,9.9-4.13,14.73c-2.88,8.39-0.38,16.71,0.33,25.05
		c0.54,6.34,2.1,12.58,1.94,18.99c-1.8,1.25-3.19,0.17-3.89-1.2c-3.42-6.67-10.17-8.56-16.14-11.59c-0.7-0.35-1.45-0.59-2.18-0.87
		c-6.99-2.72-12.98-5.99-14.13-14.75c-0.59-4.51-3.07-8.86-6.99-11.89c-4.22-4.47-7.33-9.79-10.76-14.82
		c-6.08-8.9-12.55-17.53-18.48-26.53c-1.32-2-2.64-3.99-0.89-6.42c0.6-0.77,1.26-1.5,1.8-2.32c8.83-11.25,12.41-24.57,15.18-38.24
		c2.72-13.44,6.25-26.71,8.49-40.25c0.76-4.6,1.75-9.18,0.91-13.97c-0.79-4.51-2.65-8.42-5.14-12.15c-0.84-1.27-2.12-2.39-1.86-4.17
		c3.06-0.06,6.12-0.11,9.18-0.17c5.58,2.17,7.15,7.23,7.79,12.24c1.53,12.02,0.38,23.91-3.52,35.45c-2.57,2.62-2.5,6.21-3.39,9.44
		c-0.66,2.39-1.05,4.84-1.35,7.33c1.18-3.46,2.07-6.98,2.85-10.55c0.38-1.74,0.35-3.69,1.96-4.98c1.16-0.48,2.31-0.22,3.45,0.04
		c12.39,2.9,24.79,5.71,37.24,8.33c1.02,0.21,2.03,0.47,2.91,1.05c1.63,1.92,0.46,4,0.24,5.98c-0.27,2.42-0.79,4.81-0.95,7.25
		c0.76-4.67,2.71-9.19,1.72-14.1c0.96-6.18,2.29-12.29,3.21-18.48c0.61-4.08-1.15-8.04,0.11-12.01c2.52-0.82,4.93-0.35,7.31,0.61
		c3.53,5.1,2.58,10.89,1.83,16.3c-1.65,11.87-3.71,23.68-4.69,35.65c-0.55,6.73-1.06,13.48-2.05,20.17
		c0.03,2.47-0.68,4.79-1.62,7.04c-0.68,1.62-0.84,3.19,0.16,4.74c-0.9,8.04-3.11,15.81-5.03,23.63c-0.65,1.4-0.72,2.93-0.94,4.43
		C272.46,663.33,272.29,663.67,272.05,663.97z"/>
	<path class="st46" d="M216.12,523.56c7.49,8.11,9.58,17.63,7.6,28.3c-3.64,19.6-8.01,39.05-12.78,58.4
		c-2.08,8.42-6.27,16-11.86,22.73c-0.39,0.07-0.9,0.14-1.13-0.12c-3.55-4-7.97-2.77-12.36-2.21c-7.59,0.97-14.87,2.77-21.21,7.36
		c4.91-2.71,10.07-4.74,15.56-5.92c3.46-0.74,6.98-1,10.48-1.4c1.36-0.15,3.28-0.33,3.71,1.36c0.5,2-1.59,2.06-2.83,2.48
		c-8.49,2.93-16.32,7.01-23.12,12.94c-0.85,0.74-1.67,1.76-3.06,1.2c-0.33-0.95-0.67-1.9-1-2.85c-0.12-0.23-0.21-0.59-0.4-0.64
		c-4.19-1.29-6.12-4.31-6.62-8.47c-1.18-0.83-2.37-1.65-3.55-2.48c0.66-2.34,2.8-3,4.64-3.86c7.49-3.53,15.12-6.58,23.65-6.11
		c0.51,0.03,1.04,0,1.68-0.62c-4.2-1.01-8.06,0.1-11.83,1.05c-3.79,0.95-7.5,2.26-11.07,3.94c-1.71,0.8-3.67,2.19-5.15-0.26
		c-1.54-2.57-0.32-4.48,1.89-5.95c5.13-3.4,10.89-5.1,16.91-5.79c6.59-0.75,13.05,0.22,19.24,2.65c1.98,0.78,4.34,1.57,1.77,4.33
		c-0.64,0.69-0.58,1.44,0.33,1.91c0.66,0.34,1.11,0.11,1.64-0.5c2.23-2.56,2.24-3.42-0.68-5.62c-1.98-1.5-1.39-3.14-0.71-4.88
		c2.99-7.67,6.12-15.28,9.15-22.93c0.24-0.61,0.5-1.21,0.62-2.7c-3.84,8.45-6.62,16.49-9.95,24.3c-1.82,4.26-2.6,4.9-7.07,4.01
		c-9.89-1.96-19.49-1.52-28.66,3.11c-1.01,0.51-2.12,1.16-3.31,0.32c5.11-12.89,5.48-26.76,8.28-40.13
		c1.87-8.93,3.68-17.88,5.59-26.81c1.95-9.12,7.2-15.28,15.01-19.94C195.03,528.1,205.13,524.57,216.12,523.56z"/>
	<path class="st47" d="M325.34,509.85c-2.99,4.68-4.88,10.04-8.75,14.17c-0.71,0.76-1.21,1.76-2.03,2.36
		c-3.81,2.79-5.85,6.35-5.24,11.18c-2.29-0.7-1.08-2.92-1.85-4.28c-0.44,7.92-0.44,7.96-8.58,6.91c-2.23-0.29-4.11,0.29-5.86,1.59
		c-2.61,1.95-5.35,3.76-7.87,5.81c-2.85,2.32-5.3,1.98-8.12,0.06c-5.82-3.95-10.77-8.54-12.59-15.73c0.14,3.49,1.5,6.37,3.81,8.83
		c1.06,1.13,2.33,2.15,2.42,3.89c-1.65,3.53-2.1,7.14-1.42,11.04c0.77,4.39-2.1,6.82-6.61,5.97c-4.76-0.9-8.34-3.9-11.45-7.2
		c-7.12-7.56-13.06-15.99-16.68-25.85c-0.54-1.46-1.17-2.94-0.47-4.54l-0.01,0.04c4.99-4.09,10.88-6.72,16.55-9.55
		c5.22-2.61,8.83-6.24,11.28-11.36c1-2.09,1.97-4.38,5.23-3.28c4.41,1.48,5.24,2.41,4.97,6.51c-0.22,3.42-0.32,6.82,2.23,9.76
		c-4.03-7.43-1.56-13.44,4.16-18.42c5.79-5.04,12.51-3.26,15.26,3.92c0.69,1.8,1.39,1.94,2.81,1.03c2.42-1.56,4.77-3.2,7.19-4.75
		c1.56-1,3.09-1.3,4.75-0.24c5.17,3.31,10.38,6.55,15.51,9.92C324.78,508.14,325.45,508.78,325.34,509.85z"/>
	<path class="st48" d="M143.06,947.14c3.68-3.93,3.78-9.26,5.34-13.98c5.71-17.33,7.07-35.53,10.2-53.37
		c0.39-2.2,0.99-3.4,3.29-3.32c4.27-2.16,8.78-0.9,13.2-0.92c1.97,0.34,3.05,1.89,4.23,3.24c3.25,3.72,7.15,6.4,11.99,7.56
		c2.53,0.61,4.09,2.14,4.8,4.59c0.9,3.09,2.52,6.02,2.19,9.4c-2.04,7.26-3.81,14.58-5.68,21.88c-0.76,2.96-0.97,6.24-3.76,8.32
		c-5.96,1.17-11.98,0.12-17.2,0.54c4.19,0.03,9.15-0.06,14.11,0.03c4.78,0.09,5.44,1.05,4.24,5.77c-0.68,2.66-1.49,5.28-2.27,7.9
		c-0.68,2.3-2.22,3.47-4.6,3.49c-12.28,0.1-24.56,0.06-36.83,0.02C145.11,948.29,143.97,948,143.06,947.14z"/>
	<path class="st49" d="M325.34,509.85c-5.78-3.76-11.6-7.49-17.34-11.32c-1.32-0.88-2.25-0.69-3.48,0.15
		c-3.43,2.34-6.96,4.54-10.42,6.78c-0.3-0.34-0.6-0.51-0.61-0.71c-0.4-4.24-1.99-7.74-6.53-8.66c-4.48-0.91-7.84,1.4-10.47,4.75
		c-3.94,5.01-4.12,9.19-0.84,14.79c0.56,0.95,1.84,2.07,0.3,2.94c-1.36,0.77-2.01-0.69-2.66-1.64c-2.52-3.66-3.33-7.65-1.95-11.91
		c1.17-3.6-2.21-2.74-3.59-3.69c-1.25-0.86-3.08-2.18-4.03,0.52c-2.99,8.47-9.93,12.63-17.5,16.13c-4.12,1.91-7.67,4.93-12.16,6.11
		c-1.43-2.13,0.37-2.65,1.7-3.39c6.05-3.36,12.09-6.75,18.18-10.04c1.68-0.91,2.68-2.27,3.83-3.73c7.36-9.31,9.34-20.69,12.38-31.64
		c1.7-6.12,5.33-9.64,11.72-10.36c4.81-0.54,9.59-1.31,14.38-1.95c4.59-0.61,8.39,0.71,11.62,4.21c6.66,7.21,13.5,14.24,20.27,21.34
		c4.22,4.44,5.93,4.92,11.26,2.24c2.06-1.03,2.65,0.41,3.49,1.31c3.77,4.02,4.13,10.66,0.95,15.23c-3.29,4.73-9.63,6.55-15.01,4.26
		C327.63,511.09,326.5,510.44,325.34,509.85z"/>
	<path class="st46" d="M279.08,623.87c1.6-16.87,2.45-33.81,5.57-50.52c1.41-7.54,2.77-15.23-0.53-22.72
		c0.13-0.37,0.38-0.57,0.78-0.59c3.01,2.49,5.87,5.19,9.06,7.41c5.34,3.72,7.6,8.9,8.61,15.1c2.32,14.18,3.24,28.49,4.41,42.78
		c0.95,11.69,1.63,23.41,2.42,35.12c-0.98,1.12-2.33,1.07-3.61,1.04c-11.1-0.28-20.94,3.02-29.43,10.24
		c-0.5,0.42-1.1,0.69-1.75,0.79c-1.88-0.39-2.16-1.75-2.04-3.36c1.79-8.12,3.57-16.24,5.36-24.36c0.26-4.76,2.51-8.97,3.73-13.47
		c3.04-11.24,5.39-22.59,6.88-34.13c0.11-0.85,0.46-1.77-0.49-2.9c-0.4,10.47-2.65,20.34-5.11,30.14
		C282.11,617.69,282.36,621.55,279.08,623.87z"/>
	<path class="st47" d="M308.73,698.28c-4.63-4.73-10.39-7.94-15.72-11.74c-0.23-2.39,1.49-3.87,2.88-5.23
		c5.12-5.02,10.66-9.53,17.28-12.52c1.04-0.47,2.09-1.16,3.31-0.44c6.61,6.25,13.23,12.5,19.84,18.75
		c5.11,4.84,10.23,9.68,15.32,14.54c0.78,0.74,1.56,1.38,2.67,1.49c0.67,1.78,1.98,2.96,3.5,4.05c4.44,3.18,8.96,6.24,13.41,9.4
		c2.13,1.51,3.03,3.18,1.59,5.58c-3.94,6.59-7.01,13.64-10.61,20.4c-0.51,0.96-0.85,2.29-2.42,2.11c-2.75-3.31-5.01-6.89-6.31-11.03
		c-0.52-2.29-0.13-4.67-0.92-6.95c-2.08-5.96-6.07-9.96-12.02-11.95c-2.13-0.71-3.47-1.87-4.35-4.03
		c-4.03-9.93-13.28-14.68-23.74-12.39C311.2,698.59,309.95,699.36,308.73,698.28z"/>
	<path class="st45" d="M173.01,653.69c7.36,6.37,13.78,13.68,20.72,20.47c5.19,5.08,10.19,10.36,15.28,15.55
		c-0.21,2.13-2.06,1.58-3.27,1.9c-3.82,1.01-5.89,3.04-6.38,6.5c-0.4,2.82,1.42,5.9,4.38,7.68c3.32,2.01,7.35,2.78,10.09,5.79
		c2.62,8.18,11.83,13.29,20.33,11.26c0.75-0.18,1.46-0.54,2.26-0.52c4.7,1.88,8.83,4.9,13.56,6.74c1.14,0.45,2.44,1.28,1.34,2.95
		c-3.84,0.4-7.38-0.53-11-1.83c-5.93-2.12-12.05-2.79-18.14-0.31c-1.86-0.27-2.25-1.99-3.07-3.22c-3.76-5.64-9.05-8.68-15.68-9.68
		c-1.52-0.23-2.81,0.01-4.02,0.91c-2.98-7.19-8.22-11.88-15.66-14.14c-1.24-1.43-1.37-3.33-2.08-4.98
		c-3.22-7.51-8.83-11.55-17.03-11.98c-1.49-0.08-3.17,0.34-4.27-1.2c4.05-0.15,4.81-2.39,4.95-6.17
		C165.66,670.27,168.84,661.8,173.01,653.69z"/>
	<path class="st46" d="M234.07,524.07c4.15,12.97,11.32,23.97,21.56,32.96c2.22,1.95,4.77,3.25,7.64,3.75
		c3.84,0.67,5.73-1.26,5.02-5.06c-0.74-3.94-1.26-7.8,2.06-10.96c3.44,0.64,5.91,2.62,7.7,5.55c1.83,10.65-0.61,20.89-3.02,31.13
		c-0.33,0.75-0.84,1.19-1.72,0.99c-14.56-3.24-29.11-6.48-43.67-9.72c-0.89-0.17-0.97-0.83-0.95-1.55
		c2.74-10.2,4.34-20.53,3.95-31.15c-0.24-6.57-2.66-12.05-7.34-16.6C228.22,523.62,231.14,523.84,234.07,524.07z"/>
	<path class="st48" d="M235.74,935.3c4.26-4.32,9.7-2.42,14.71-2.83c1.39-0.11,3.35,0.75,3.59-1.77c5.71,1.49,11.07,3.52,14.44,8.84
		c1.51,2.39,1.95,5.36,4.09,7.4c-0.5,1.36,0.17,2.55,0.55,3.78c1.64,5.2,0.92,6.18-4.69,6.23c-4.97,0.05-9.93,0.01-14.9,0.01
		c-6.14,0-12.28,0-18.43,0c-2.27,0-4.45-0.25-6.18-1.92c-0.97-0.99-0.81-2.19-0.35-3.26c2.09-4.88,3.71-9.93,5.59-14.89
		C234.44,936.13,234.92,935.54,235.74,935.3z"/>
	<path class="st50" d="M317.68,660.22c-0.99,0.53-2.28,0.6-2.79,1.86c-3.9,2.15-8.32,2.81-12.41,4.41
		c-5.94,2.32-11.8,4.74-15.99,9.9c6.85-6.02,15.03-9.32,23.69-11.63c0.76-0.2,1.5-0.46,2.28-0.57c0.97-0.14,1.87,0.02,2.35,0.97
		c0.58,1.14-0.4,1.62-1.08,2.18c-0.3,0.25-0.65,0.44-1,0.62c-8.22,4.07-14.74,10.24-20.91,16.85c-0.74,0.79-1.26,2.1-2.77,1.75
		c-0.53-0.81-1.06-1.62-1.59-2.44c-0.07-0.11-0.13-0.3-0.21-0.31c-4.53-0.44-7.27-2.9-8.31-7.31c-1.19-0.67-2.39-1.35-3.58-2.02
		c-0.09-2.06,1.66-2.79,2.89-3.79c6.98-5.68,14.84-9.63,23.64-11.67c-6.18,0.51-11.6,3.08-16.85,6.12
		c-1.69,0.98-3.28,2.13-4.89,3.25c-1.56,1.09-3.16,2.19-4.68-0.04c-1.35-1.98-1.46-3.89,0.52-5.56c5.77-4.89,12.19-8.43,19.66-10.06
		c5.47-1.19,10.89-1.07,16.31,0.05c2.02,0.42,4.07,1.04,2.39,3.87c-0.78,1.31-0.06,1.87,1.16,2.21
		C316.37,659.09,317.42,659.05,317.68,660.22z"/>
	<path class="st51" d="M253.61,930.01c-4.55,0-9.1,0-14.34,0c6.88-17.5,14.3-34.32,15.56-52.88c0.9-1.63,2.1-1.63,3.48-0.65
		c0.13,0.01,0.26,0.02,0.39,0.02c8.46,0.18,8.18,0.11,6.01,8.59C260.9,900.04,256.56,914.86,253.61,930.01z"/>
	<path class="st52" d="M228.63,954.23c2.1,1.1,4.31,1.39,6.69,1.37c10.92-0.1,21.84-0.04,32.76-0.04c5.5,0,5.49,0,3.62-5.05
		c-0.5-1.35-1.85-2.97,0.86-3.57c0.46,0.61,1.22,1.18,1.33,1.85c0.96,6.32,4.91,7.29,10.58,6.89c7.15-0.52,14.38-0.18,21.57-0.07
		c1.32,0.02,3.76-1.03,3.67,1.4c-0.07,1.91-2.34,1.08-3.63,1.09c-54.66,0.04-109.31,0.03-163.97,0.03
		c-14.12,0-28.24,0.02-42.36-0.03c-1.42-0.01-3.91,0.89-3.01-2.33c2.83-0.7,5.7-0.28,8.56-0.31c7.96-0.07,15.94-0.24,23.89,0.04
		c7.58,0.27,15.07-0.98,22.62-0.93c2.26,0.01,3.96-1.11,5.55-2.54c1.85-1.68,4.03-2.28,6.04-0.65c4.11,3.32,8.84,3.4,13.73,3.28
		c2.31-0.06,4.71-0.49,6.91,0.72c5.9,0.34,11.8,0.37,17.7-0.03c3.04-1.34,6.24-0.52,9.36-0.73
		C216.94,954.65,222.79,954.78,228.63,954.23z"/>
	<path class="st10" d="M156.66,620.63c10.86-5.69,22.2-7.34,34.1-3.97c2.43,0.69,2.82-0.89,3.47-2.54
		c3.15-8.02,6.37-16.01,9.56-24.01c0.19-0.48,0.35-0.98,0.57-1.46c0.43-0.95,0.82-2.2,2.18-1.58c1.36,0.61,0.65,1.72,0.27,2.69
		c-3.04,7.64-6.06,15.28-9.09,22.92c-0.24,0.61-0.4,1.26-0.73,1.81c-1.44,2.47-1.3,4.1,1.87,5.05c2.87,0.86,3.94,2.39,0.37,4.1
		c-0.43,0.21-1.07,0.63-1.07,0.95c-0.01,1.1,2.05,2.98-0.85,2.88c-1.54-0.06-3.67-0.75-4.26-2.36c-0.79-2.16,1.9-1.92,2.83-2.97
		c0.09-0.1,0.16-0.21,0.48-0.64c-9.98-4.4-20-5.41-30.35-1.99c-3.11,1.03-5.99,2.55-8.86,4.12c-2.34,1.28-1.82,2.87-0.95,4.58
		c1.06,2.1,2.21,0.21,3.09-0.18c6.84-3.06,13.82-5.54,21.42-5.76c0.91-0.03,1.83,0.02,2.74,0.07c1.05,0.06,2.33,0.11,2.33,1.49
		c-0.01,1.47-1.29,1.37-2.34,1.31c-9.64-0.61-18.19,2.84-26.51,7.13c-1.15,0.6-2.24,1.31-3.36,1.97c-0.97,0.48-2.25,0.28-1.92-0.79
		c0.96-3.07,1.5-5.92,0.84-9.25C152.13,622.46,155.42,622.11,156.66,620.63z"/>
	<path class="st10" d="M317.68,660.22c-0.26-0.04-0.52-0.08-0.77-0.13c-1.74-0.32-4.06,0.12-4.78-1.86
		c-0.64-1.76,2.2-1.93,2.66-3.82c-11.18-2.81-21.69-1.56-31.56,4.35c-2.23,1.33-4.16,3.16-6.36,4.55c-2.47,1.57-1.53,3.29-0.33,4.88
		c1.59,2.1,2.38-0.36,3.22-0.92c6.22-4.17,12.65-7.82,20.11-9.28c0.77-0.15,1.54-0.33,2.31-0.34c0.98-0.01,2.35-0.43,2.62,0.97
		c0.3,1.56-1.19,1.46-2.12,1.61c-10.71,1.68-19.44,7.13-27.3,14.25c-1.22,0.56-3.07,0.29-2.46-0.94c1.76-3.56-0.6-6.41-0.87-9.57
		c0,0-0.18-0.03-0.18-0.03c0.5-0.87,0.73-2.06,2.16-1.84c10.13-8.91,21.99-12.57,35.37-11.64c2.9,0.6,5.81,1.14,8.69,1.84
		c1.04,0.25,2.96,1.23,1.61,2.13C317.26,656.05,317.93,658.16,317.68,660.22z"/>
	<path class="st36" d="M143.73,949.66c13.69,0,27.38,0,41.02,0c0.57,1.67-1.35,3.47,0.6,4.82c-0.44,0.29-0.87,0.58-1.31,0.87
		c-5.08,0.07-10.15,0.14-15.23,0.21c-2.34,0.03-3.74-1.73-5.32-3c-1.81-1.45-3.31-2.04-4.85,0.17c-1.76,2.53-4.24,2.89-7.15,2.89
		c-18.25-0.05-36.5,0.07-54.75,0.14c1.13-1.35,2.67-0.76,4.03-0.77c11.72-0.05,23.44-0.2,35.16,0.06
		C140.17,955.14,143.31,954.65,143.73,949.66z"/>
	<path class="st53" d="M174.35,862.38c-1.99,0.5-1.54,2.07-1.5,3.45c0.12,3.84,1.74,7.23,3.19,10.67
		c-4.72-0.01-9.43-0.02-14.15-0.04c0.83-9.17,1.66-18.34,2.49-27.5c1.07-0.02,1.59,0.78,2.08,1.51c1.99,3.01,4.03,5.96,7.08,8.06
		c0.63,0.44,1.04,1.14,0.91,2C174.42,861.15,174.38,861.77,174.35,862.38z"/>
	<path class="st54" d="M197.4,635.05c-11.02,1.94-20.54,6.82-28.67,14.47c-0.6,0.46-1.22,0.9-1.81,1.37
		c-0.66,0.53-1.37,0.75-2.06,0.16c-1.01-0.87,0-1.59,0.26-2.36c8.36-7.58,17.97-12.98,28.76-16.51c-8.98-0.25-17.56,0.96-25.55,5.07
		c-0.7,0.36-1.32,0.91-2.05,1.13c-1.41,0.41-2.85,3.26-4.13,0.94c-1.06-1.92,1.73-2.5,3.01-3.31c8.57-5.41,18.39-6.35,28.12-7.24
		c2.53-0.23,4.03,2.57,5.81,4.23C198.92,634.01,198.19,634.55,197.4,635.05z"/>
	<path class="st23" d="M289.07,686.54c7.13-8.64,15.25-16.06,25.68-20.55c-0.61-1.4-1.48-1.12-2.41-0.86
		c-9.22,2.59-18.27,5.5-25.36,12.44c-0.7,0.69-1.52,1.79-2.61,0.71c-1.15-1.14,0.12-1.88,0.78-2.55c3.52-3.58,7.66-6.32,12.26-8.27
		c5.64-2.38,11.35-4.6,17.49-5.39c0.53,0.37,1.08,0.71,1.58,1.11c1.08,0.85,3.06,0.95,3.09,2.63c0.03,1.77-2.24,1.44-3.09,2.54
		c-9.5,3.9-17.35,9.93-23.46,18.19c-0.51,0.55-1.03,1.1-1.52,1.66c-0.58,0.66-1.11,1.53-2.17,0.99
		C287.93,688.47,288.94,687.45,289.07,686.54z"/>
	<path class="st21" d="M278.04,550.3c-2.57-1.85-5.13-3.7-7.7-5.55c-3.27-3.41-6.41-6.93-7.07-11.85c-0.17-1.29-0.93-3.35,0.98-3.67
		c1.92-0.32,1.33,1.82,1.57,2.93c1.76,8.28,8.22,12.29,14.69,16.3c1.21,0.75,1.94-0.23,2.74-0.79c2.45-1.72,5.07-3.27,7.25-5.29
		c3.62-3.35,7.48-4.34,12.08-2.48c2.76,1.12,4.22,0.74,3.95-2.85c-0.16-2.12-1.36-6.05,0.99-6.12c2.5-0.08,0.86,3.85,1.5,5.92
		c0.07,0.24,0.21,0.47,0.31,0.71c-0.26,6.61-0.35,6.91-6.77,5.05c-4.28-1.24-7.63-0.76-10.88,2.27c-2.06,1.92-4.5,3.45-6.77,5.15
		c-0.26,0.2-0.52,0.39-0.78,0.59C281.99,552.42,280.01,551.52,278.04,550.3z"/>
	<path class="st1" d="M59.53,958.19c-6.66,0-13.32,0.01-19.99-0.01c-1.12,0-2.75,0.36-2.83-1.25c-0.08-1.68,1.57-1.38,2.68-1.38
		c13.45-0.02,26.91-0.02,40.36,0.01c1.08,0,2.79-0.43,2.79,1.23c0,1.97-1.86,1.38-3.04,1.38C72.85,958.22,66.19,958.19,59.53,958.19
		z"/>
	<path class="st55" d="M157.11,636.73c1.7-0.43,2.86,0.35,2.2,1.94c-1.52,3.64,0.33,4.09,3.26,4.23c1.73,0.09,3.23,0.81,1.55,2.94
		c-0.38-0.04-0.77-0.07-1.15-0.12C153.19,644.38,154.59,646.25,157.11,636.73z"/>
	<path class="st39" d="M278.96,676.49c1.42-0.47,2.92-0.53,2.46,1.5c-0.87,3.79,1.01,4.07,3.94,3.7c1.61-0.21,3.47-0.18,2.12,2.42
		c-0.26,0.01-0.51,0.02-0.77,0.03C278.4,684.53,278.4,684.53,278.96,676.49z"/>
	<path class="st56" d="M271.1,729.56c-2.68-0.88-5.78-0.62-7.89-3c0.92-0.72,1.16-2.11,2.43-2.48c2.06,0.79,4.13,1.58,6.19,2.37
		C270.67,727.27,271.17,728.48,271.1,729.56z"/>
	<path class="st57" d="M258.32,876.48c-1.19,0.08-2.41-0.02-3.48,0.65c0.1-0.77,0.3-1.55,0.28-2.32c-0.11-3.9,1.64-4.79,5.01-3.18
		C258.44,872.85,258.41,874.68,258.32,876.48z"/>
	<path class="st49" d="M279.08,623.87c3.91-12.31,6.7-24.85,7.79-37.74c0.04-0.52,0.01-1.05,0.06-1.56
		c0.11-1.09-0.36-2.71,1.35-2.74c1.68-0.03,1.53,1.57,1.42,2.67c-0.39,4.01-0.74,8.04-1.41,12.01c-1.97,11.69-4.6,23.23-8.53,34.44
		c-0.47,1.33-1.22,2.57-1.84,3.85c-2.24-0.38-1.71-1.87-1.21-3.22C277.65,629.05,278.71,626.56,279.08,623.87z"/>
	<path class="st58" d="M228.68,571.15c0.32,0.51,0.63,1.03,0.95,1.55c-1.13,5.04-2.27,10.07-3.39,15.11
		c-0.26,1.2-0.72,2.65-1.99,2.43c-1.56-0.27-0.96-1.71-0.7-2.88c0.98-4.27,1.82-8.58,2.82-12.84
		C226.7,573.17,227.07,571.69,228.68,571.15z"/>
	<path class="st58" d="M273.31,582.42c0.57-0.33,1.15-0.66,1.72-0.99c1.28,1.66,0.68,3.47,0.38,5.24c-0.46,2.69-0.79,5.41-1.46,8.05
		c-0.27,1.09-0.11,3.19-1.89,2.88c-1.78-0.3-1-2.08-0.8-3.29C271.91,590.35,272.62,586.39,273.31,582.42z"/>
	<path class="st59" d="M274.03,662.09c-0.65,0.69-1.08,1.65-2.16,1.84c0.04-1.62-0.55-3.33,0.7-4.78
		C273.06,660.13,273.54,661.11,274.03,662.09z"/>
	<path class="st60" d="M281.3,530.79c-0.14,3.24,1.13,6.08,3.66,8.44c0.72,0.67,1.91,1.47,0.91,2.56c-1.15,1.25-2.11,0.04-2.93-0.72
		c-3.01-2.84-4.52-6.31-4.18-10.47c0.1-1.24-0.05-3.05,1.76-2.88C282.21,527.87,281.53,529.45,281.3,530.79z"/>
	<path class="st61" d="M306.17,518.29c2.01,0.2,3.15,1.16,3.17,3.01c0.02,1.83-1.04,2.99-2.89,3.04c-2.02,0.05-3.24-1.08-3.19-3.13
		C303.3,519.31,304.62,518.53,306.17,518.29z"/>
	<path class="st62" d="M197.85,900.05c0.63,1.21,0.62,2.38,0.23,3.73c-2.37,8.21-4.64,16.46-6.96,24.69
		c-0.24,0.84-0.01,2.45-1.77,1.31c2.64-9.11,5.07-18.26,7.05-27.54C196.62,901.28,197,900.54,197.85,900.05z"/>
	<path class="st63" d="M212.91,700.82c-2.43-1.4-1.23-3.87-1.7-5.84c-0.35-1.47-0.49-2.99-0.72-4.49c-0.04-1.42-0.11-2.84-0.09-4.25
		c0.01-0.68,0.32-1.34,1.1-1.28c0.44,0.03,1.19,0.4,1.23,0.69c0.62,4.82,1.72,9.62,1.1,14.53
		C213.8,700.42,213.23,700.6,212.91,700.82z"/>
	<path class="st64" d="M216.07,943.28c-1.07,3.43-2.2,6.84-3.15,10.3c-0.24,0.89-0.75,1.3-1.37,1.74c-3.27,0.38-6.54,0.39-9.81,0
		c-0.53-2.33,1.76-3.78,1.83-5.92c1-0.64,2.13-0.81,3.3-0.97c-0.4-0.83-1.89-0.36-1.85-1.63c-0.07-1.66,0.29-3.17,1.51-4.38
		c1.1,0.66,1.62,1.53,1.36,2.1c1.6-4.18,1.39-9.84,4.94-14.16c4.2-11.06,8.4-22.12,12.81-33.72c0.74,1.35,0.45,2.11,0.25,2.9
		c-3.22,13.18-6.44,26.37-9.61,39.56C215.95,940.45,215.29,941.85,216.07,943.28z"/>
	<path class="st65" d="M212.83,930.35c-1.49,5.14-2.97,10.28-4.77,16.5c-0.76-2.18-1.14-3.31-1.53-4.43
		c1.39-3.92,2.78-7.84,4.17-11.77C211.4,930.55,212.11,930.45,212.83,930.35z"/>
	<path class="st66" d="M205.01,946.8c1.5,0.72,4.57-0.92,4.49,1.36c-0.09,2.55-3.11,0.95-4.8,1.35c-0.35,0.08-0.76-0.07-1.14-0.11
		C203.88,948.44,204.1,947.43,205.01,946.8z"/>
	<path class="st48" d="M239.27,955.51c0,0-42.48,4.51-36.15-4.52c6.34-9.03,25.08-71.8,25.08-71.8s0.41-3.28,4.96-3.38
		c4.55-0.1,28.65,0.78,28.65,0.78s5.98,1.77-1.03,23.46c-7.01,21.69-13.82,30.64-13.82,30.64s22.83,6.82,21.52,8.84"/>
	<path class="st48" d="M166.26,877.13h27.6c0,0,10.59-2.49,8.62,6.87c-1.97,9.37-12.2,48.52-12.2,48.52"/>
	<path class="st27" d="M320.81,861.53l1.87,2.86c0,0-3.09,19.23-9.23,20.1s-18.76,9.29-18.76,9.29l-14.16-6.56l-14.06-0.74
		l-20.64-7.96l-4.51-7.02h-2.54c0,0-21.56,3.66-40.68,3.68c-19.12,0.01-42.21-5.02-42.21-5.02l-3.29-0.73l-17.53,3.95l-20.09,12.1
		l-27.41-5.62c0,0-11.93-9.35-15.93-17c-4-7.65-3.3-24.23-3.3-24.23s-15.57-9.6-17.98-29.48c-2.41-19.89,14.32-35.81,14.32-35.81
		l2.28-8.56c0,0,4.82-26.9,22.21-32.12s26.63-9.5,31.31-6.42c4.68,3.08,1.11-0.94,1.11-0.94l1.19,0.72l14.27,16.85
		c0,0,2.28-8.36,6.56-9.7c4.28-1.34,9.9-3.35,9.9-3.35s4.69-13.15,10.71-13.65c6.01-0.5,3.3-7.81,21.09,3.22
		c0,0,11.48,9.29,20.14,8.19c9.13-1.16,15.14,0.79,15.14,0.79l1.05,13.93v-2.54l1.1-1.91l1.22-1.59l9.92-3.88l9.8,2.2l4.39,1.24
		l8.29,1.73l6.87-1.29l8.05,5.04l3.61-9.72l3.08-4.94l10.86-7.06l11.35-12.8l15.43-7.98l7.05-8.17l8.7-2.01l5.58-0.44
		c0,0,8.82-6.92,17.81-6.25s10.46,5.57,10.46,5.57s4.81-2.21,9.5-2.22c4.69-0.01,10.02,9.46,10.17,11.13
		c0.15,1.67,8.27,1.84,8.27,1.84s4.71,1.99,4.64,7.56c-0.07,5.57-5.28,11.85-5.28,11.85s-7.63,1.62-9.1,0.81
		c-1.47-0.8-3.62-1.82-3.62-1.82l-10.53,7.63l-14.51-1.86l-11.08-9.14l3.04,15.1l9.41,18.99l4.68,12.05c0,0,1.34,21.81-12.58,30.11
		c-13.92,8.3-19.27-3.88-19.27-3.88l15.12,1.24c0,0,12.1,21.26,3.5,33.16"/>
	<path class="st28" d="M143.16,946.04c-0.01-0.52-0.01-1.04-0.02-1.55c-0.69-0.51-1.73-0.35-2.3-1.21c0.74-0.28,1.65,0.44,2.27-0.38
		c-0.16-6.32,0.71-12.68-0.64-18.96c-2.15,3.04-0.6,6.45-1,9.38c0.26-3.16-2.15-6.85,1.01-10.04c0.06-0.26,0.06-0.51,0-0.77
		c-2.68-1.96-0.52-4.35-0.57-6.55c-0.07-2.72,0.54-5.48-0.6-8.11c-2.94-0.63-6.69,1.98-6.74,5.46c-0.06,4.32-1.07,8.87,1.39,12.96
		c0.45,0.74,0.4,1.46,0.14,2.24c-2.1,6.34-1.52,12.89-1.5,18.43c0.08-4.21-0.62-9.41,0.56-14.54c0.24-1.03,0.32-2.14-0.16-3.08
		c-1.28-2.5-1.71-5.15-1.9-7.93c-0.16-2.43-1.4-4.54-4.2-4.03c-2.75,0.5-3.41,2.82-2.57,5.2c1.1,3.11-0.01,6.89,2.89,9.47
		c0.45,0.4,0.34,1.27,0.15,1.9c-1.41,4.68-0.13,8.96,1.9,13.13c1.17,2.41-0.32,4.26-1.34,6.2c-0.59,1.88-1.9,2.63-3.83,2.63
		c-9.89,0.02-19.78-0.03-29.67,0.02c-2.92,0.02-3.08-1.27-2.46-3.7c1.59-6.3,4.02-12.37,5.12-18.8c-0.56-2.51-0.01-4.91,0.69-7.31
		c2.94-10.15,5.88-20.29,8.77-30.46c0.58-2.03,1.79-3.39,3.41-4.59c6.08-4.51,12.3-8.82,18.24-13.52c1.28-1.02,3.64-1.74,2.55-4.16
		c-0.75-1.68-4.82-2.05-6.72-0.47c-2.92,2.44-6.09,4.46-9.4,6.29c-4.38,1.12-8.49,3.61-13.29,2.61c-3.67,0.63-7.25,0.21-10.81-0.8
		c-4.93-1.39-5.36-0.91-7.74,3.74c-2.58,5.05-3.49,10.24-3.22,15.84c0.22,4.41,0.26,8.86-0.47,13.26
		c1.48,14.05-2.28,27.37-5.7,40.74c-0.61,2.39-2.05,2.51-4.02,2.5c-11.89-0.05-23.78-0.04-35.66,0c-1.27,0-2.62-0.38-3.82,0.4
		c0.86,1.51,2.36,1.48,3.79,1.48c31.57-0.06,63.13,0.23,94.69-0.13c2.78-0.93,5.66-0.79,8.52-0.75c2.87,0.04,4.08-0.94,3.17-4
		C141.23,951.31,140.68,948.42,143.16,946.04z"/>
	<path class="st28" d="M382.57,716.66c-0.76-0.49-1.51-0.98-2.27-1.47c-1.77,0.04-2.24,1.63-3.1,2.69c-7.7,9.5-18.86,9.4-26.08-0.48
		c-1.97-2.7-4.13-3.81-7.43-4.11c-8.45-0.79-16.95-1-25.37-2.1c-0.52-0.07-1.04-0.1-1.57-0.09c-2.13,0.05-4.56-0.01-4.98,2.69
		c-0.46,2.98,2.17,3.16,4.16,3.57c4.87,1,9.8,1.66,14.69,2.51c4.74,0.82,9.5,1.51,14.2,2.57c-5.06-0.14-9.91-1.7-14.92-2.16
		c-0.91-0.08-1.8-0.34-2.72-0.33c-0.92,0.01-2.01-0.01-2.42,0.92c-0.53,1.19,0.48,1.95,1.3,2.56c5.13,3.82,10.97,5.34,17.71,5.27
		c-1.88,0.79-3.89,0.01-5.13,1.55c-0.25,0.87-0.44,1.77-0.78,2.6c-0.9,2.21-0.8,3.21,2.13,3.82c5.65,1.18,8.87,5.26,9.62,10.93
		c0.26,1.98,0.87,2.86,2.75,3.53c6.11,2.18,8.39,6.07,7.75,12.59c5.54,0.39,10.54,2.83,15.82,4.24c1.92,0.51,2.86,2.16,3.72,3.81
		c0.85,1.64,1.88,3.14,3.62,3.98c0.96,0.46,2.05,0.89,2.95,0.12c1.14-0.96,0.16-1.94-0.36-2.74c-2.27-3.53-3.98-7.32-5.35-11.29
		c1.92,3.26,3.15,6.91,5.46,9.95c1.44,1.9,2.46,4.7,5.75,3.26c2.45-1.07,3.89-4.75,3.21-7.74c-0.59-2.6-2.43-4.59-3.38-7
		c0.28-0.23,0.42-0.12,0.66,0.13c1.09,1.13,1.47,3.62,3.65,2.79c1.96-0.74,1.89-2.92,1.96-4.76c0.08-2.41-0.78-4.6-1.63-6.8
		C391.67,739.99,386.46,728.58,382.57,716.66z"/>
	<path class="st29" d="M258.91,937.85c2.74-1.11,1.75-3.13,1.09-4.93c-3.63-9.81-7.37-19.58-11.14-29.33
		c-3.3-8.53-3.13-17.72-5.35-27.14c6.7,6.32,13.88,10.41,22.67,11.08c1.79,0.14,2.29,1.41,1.59,2.79
		c-4.21,8.32-1.24,16.38,0.82,24.44c2.23,8.74,4.09,17.57,6.41,26.29c0.54,2.02,0.72,4.63,3.86,4.58c2.41-1.6,1.16-3.78,0.7-5.66
		c-3.02-12.5-5.74-25.07-8.91-35.97c3.25,8.84,6.47,19.3,11.54,29.05c0.8,0.39,1.59,0.39,2.36-0.05c1.68-2.19,0.41-4.26-0.36-6.27
		c-3.73-9.62-7.53-19.21-11.08-28.9c-2.04-5.58-1.25-7.72,3.56-11.1c0.66-0.47,1.18-1.04,0.99-1.95c-0.89-1.51-2.27-0.9-3.52-0.81
		c-20.18,1.41-35.74-11.88-37.53-32.08c-0.1-1.14,0.17-2.87-1.32-2.83c-1.87,0.05-1.33,1.94-1.28,3.13
		c0.23,6.27,2.35,11.98,5.68,17.76c-27.45,5.2-54.45,5.91-81.32-1.66c-0.15-1.53,1.19-1.64,1.84-2.32c0.71-0.75,1.82-1.46,0.84-2.59
		c-1.03-1.18-1.87-0.04-2.64,0.56c-4.86,3.73-10.24,6.2-16.38,6.95c-10.82,1.32-20.1-1.87-27.95-9.36c-0.28-0.27-0.52-0.6-0.83-0.83
		c-0.84-0.62-1.48-2.4-2.77-1.18c-1.42,1.34,0.19,2.33,1.01,3.21c2.79,2.99,6.04,5.38,9.68,7.23c1.03,0.53,2.07,1.04,3.43,1.73
		c-1.97,1.88-3.85,3.38-5.98,4.61c-1.1,0.64-2.42,1.22-1.99,2.93c3.79,0.58,6.08-2.15,8.27-4.31c2.67-2.64,5.11-2.27,8.3-0.84
		c-7.43,5.53-14.6,10.92-21.84,16.21c-1.97,1.44-3.27,3.05-3.93,5.51c-2.98,10.92-6.17,21.78-9.27,32.67
		c-0.41,1.46-1.31,2.97,0.26,4.31c2.75,0.06,2.92-2.23,3.44-3.99c2.8-9.52,5.63-19.03,8.15-28.63c1.07-4.05,3.11-7.1,6.7-9.15
		c5.18-3.76,10.34-7.57,15.38-11.52c3.46-2.71,6.96-5.01,11.56-5.13c1.54-0.04,3.1-0.46,4.65-1.08c-0.22,0.84-0.69,1.44-1.18,1.89
		c-9.18,8.51-7.49,19.57-7.19,30.31c0.02,0.81,0.36,1.52,0.87,2.14c0.25,3.02,0.57,6.04,0.13,9.07c0.92,1.28-0.76,3.55,1.64,4.26
		c1.91-0.89,1.37-2.63,1.34-4.11c-0.2-8.87-0.38-17.75-0.72-26.62c-0.09-2.24,0.59-3.93,1.83-5.74c3.1-4.49,6.84-8.56,9.18-13.53
		c0.51-1.08,0.93-0.99,1.68-0.75c26.06,8.18,52.51,7.38,79.1,3.49c4.56-0.1,3.97,3.48,4.47,6.28c0.97,15.89,6.55,30.51,12.44,45.04"
		/>
	<path class="st28" d="M277.65,884.77c-0.18,0.65-0.51,1.19-1.18,1.44c-4.79,1.75-6.61,5.41-4.8,10.29
		c3.93,10.59,8,21.13,11.99,31.7c0.54,1.43,1.48,2.82,0.74,4.47c-0.94,2.9,0.88,5.2,1.75,7.68c0.47,1.33,1.1,2.61,1.61,3.93
		c0.76,1.5,1.27,3.09,1.68,4.72c0.39,1.05,0.93,2.04,1.26,3.11c1.35,2.09,0.99,5.14,3.63,6.52c5.46,0.4,10.92,0.79,16.36-0.23
		c1.51-1.14,0.19-1.87-0.39-2.71c-1.23-0.94-1.54-2.37-1.94-3.73c-4.29-14.75-8.29-29.58-12.5-44.36c-0.71-2.49-0.72-4.83,0.19-7.24
		c0.92-2.44,1.55-4.97,2.17-7.5c0.44-1.8,0.31-3.4-1.84-4.07c-4.54-0.14-8.65-1.41-11.99-4.64c-0.98-0.62-1.99-0.7-3.04-0.2
		C280.12,884.22,278.88,884.5,277.65,884.77z"/>
	<path class="st30" d="M120.34,725.27c-7.93-1-15.82-0.1-23.31,2.75C81.88,733.8,70.52,743.49,66,759.76
		c-0.21,0.75-0.57,1.57-0.45,2.29c1.02,6.39-2.43,10.5-6.27,15.2c-11.27,13.81-13.53,29.58-6.31,45.92
		c7.28,16.46,20.5,25.21,38.47,26.71c0.65,0.05,1.31,0.06,1.96,0.03c0.83-0.04,1.63-0.31,1.65-1.27c0.02-0.93-0.72-1.29-1.56-1.37
		c-2.34-0.23-4.71-0.25-7.01-0.68c-21.33-4.02-35.73-22.28-34.61-43.81c1.08-20.87,17.88-37.77,39.19-39.51
		c1.4-0.11,4.01,0.72,3.88-1.31c-0.15-2.26-2.76-1.18-4.29-1.16c-4.08,0.06-8.01,1.08-11.85,2.41c-3.69,1.27-7.09,3.17-10.79,5.52
		c-0.61-6.7,1.17-12.27,4.21-17.52c9.18-15.86,29.65-25.7,48.15-23.34c1.9,0.24,2.67,1.24,3.41,2.7"/>
	<path class="st31" d="M305.73,931.79c-2.43-2.82-2.43-6.49-3.38-9.81c-1.87-6.59-3.97-13.13-5.11-19.91
		c0.25-0.87,0.52-1.74,0.73-2.62c1.32-5.53,2.94-10.29,9.91-11.56c4.97-0.9,8.13-5.4,11.18-9.37c3.16-2.8,3.92-6.59,4.13-10.52
		c0.09-1.64-0.04-3.49-2.45-3.61c-1.19,0.77-0.93,2.02-1.08,3.16c-1.45,11.16-8.6,18.33-19.79,19.93c-1.25,0.18-2.68-0.07-3.49,1.31
		c1.28,1.32,1.66,2.72,0.78,4.49c-3.56,7.21-2.9,14.28-0.42,21.86c4.05,12.4,7.14,25.12,10.69,37.68c0.39,1.39,0.2,3.3,2.32,3.66
		c2.28-1.03,1.47-2.56,0.98-3.99"/>
	<path class="st31" d="M308.08,945.49c-0.71-3.55-1.89-7.01-2.99-10.98"/>
	<path class="st32" d="M338.64,730.25c1.83-0.06,3.66-0.08,5.48-0.21c1.14-0.08,2.73-0.08,2.61-1.65c-0.13-1.71-1.71-1.13-2.82-1.07
		c-7.83,0.45-13.18-1.27-19.62-6.79c3.72,0.57,6.53,0.98,9.33,1.43c2.84,0.45,5.66,1.09,8.51,1.34c1.96,0.18,5.12,2.23,5.62-0.55
		c0.37-2.08-3.3-1.59-5.2-1.93c-9.25-1.66-18.53-3.17-27.8-4.73c-1.12-0.19-2.56,0-2.39-1.8c0.17-1.79,1.23-2.29,2.99-2.14
		c10.42,0.86,20.84,1.66,31.26,2.44c1.15,0.09,1.8,0.53,2.47,1.52c9.29,13.77,22.66,13.36,31.24-0.9c0.26-1.8,0.54-3.59,0.78-5.4
		c0.11-0.85-0.17-1.67-1.07-1.8c-0.91-0.14-1.35,0.51-1.45,1.42c-0.09,0.91-0.24,1.81-0.44,2.7c-1.51,6.86-7.44,11.36-14.56,11.08
		c-6.54-0.25-12.02-5.22-13.15-11.84c-0.2-1.18,0.36-3.09-1.34-3.26c-2.01-0.2-1.3,1.7-1.54,2.87c-0.38,1.88-1.91,0.91-2.86,0.85
		c-9.76-0.69-19.53-1.39-29.27-2.31c-2.99-0.28-4.82,0.54-5.55,3.47c-0.74,3.01,0.21,5.01,3.34,5.98c4.74,1.46,9.21,3.42,13.13,6.63
		C329.84,728.47,334.34,729.2,338.64,730.25z"/>
	<path class="st33" d="M382.57,716.66c-1.78,1.52-0.2,2.96,0.29,4.22c4.27,10.95,8.67,21.85,13.03,32.76
		c1.24,3.11,1.7,6.19-0.38,9.3c-1.59-1-2-2.59-2.92-3.79c-0.62-0.8-1.15-2.08-2.4-1.18c-1.15,0.83-0.34,1.85,0.22,2.74
		c0.9,1.44,1.76,2.91,2.69,4.33c0.91,1.38,1.27,2.91,1.1,4.48c-0.25,2.31-1.18,4.62-3.45,5.31c-2.23,0.68-2.83-1.87-3.8-3.24
		c-2.28-3.21-3.76-6.86-5.22-10.5c-0.37-0.92-0.76-2.26-2.15-1.62c-1.33,0.61-0.64,1.73-0.27,2.71c1.77,4.65,3.88,9.12,7.09,13.45
		c-3.48-0.11-5.06-2.19-6.09-4.73c-0.98-2.41-2.6-3.65-5.09-4.3c-4.04-1.05-8.01-2.38-11.99-3.66c-1.27-0.41-2.48-1.09-3.11,0.79
		c0.22,1.55,1.59,1.49,2.65,1.83c3.1,1,6.17,2.13,9.33,2.91c3.06,0.76,5.22,2.07,6.7,5.15c2.07,4.32,6.5,5.91,10.88,4.7
		c4.49-1.24,7.15-4.75,7.23-9.5c0.02-1.14-0.44-2.31,0.35-3.41c3.36-4.7,2.58-9.44,0.5-14.44c-4.2-10.1-8.11-20.32-12.14-30.49
		C384.96,718.9,384.48,717.22,382.57,716.66z"/>
	<path class="st34" d="M131.61,957.34c-10.16,0.09-20.32,0.25-30.49,0.27c-21.65,0.04-43.3,0.02-64.95,0.01
		c-1.43,0-2.86-0.09-4.29-0.13c-1.61,1.1-1.52,2.05,0.35,2.6c0.72,0.22,1.56,0.06,2.34,0.06c45.36,0,90.72,0.02,136.07-0.05
		c1.38,0,4.77,1.28,2.82-2.64C159.51,957.35,145.56,957.54,131.61,957.34z"/>
	<path class="st34" d="M297.23,957.34c-10.16,0.09-20.32,0.25-30.49,0.27c-21.65,0.04-43.3,0.02-64.95,0.01
		c-1.43,0-2.86-0.09-4.29-0.13c-1.61,1.1-1.52,2.05,0.35,2.6c0.72,0.22,1.56,0.06,2.34,0.06c45.36,0,90.72,0.02,136.07-0.05
		c1.38,0,4.77,1.28,2.82-2.64C325.13,957.35,311.18,957.54,297.23,957.34z"/>
	<path class="st35" d="M180.07,714.45c-13.74-4.03-23.35,0.27-28.75,13.1c-0.72,1.71-1.85,1.9-3.16,2.32
		c-7,2.25-11.51,6.93-13.32,14.04c-0.49,1.92-1.27,4.08,0.49,5.9c1.92,0.18,1.5-1.25,1.63-2.33c1.05-8.94,6.4-14.45,15.33-15.66
		c1.72-0.23,3.53-0.05,1.85-2.63c-0.78-1.19,0.18-2.24,0.67-3.25c5.77-11.96,21.34-14.02,30.66-3.81c-3.38,1.13-6.67,2.19-9.39,4.45
		c-4.88,4.06-7.71,9.14-7.95,15.54c-0.03,0.86-0.29,2.04,1,2.2c1.55,0.2,1.51-1.06,1.56-2.11c0.62-13.47,16.03-22.41,28.32-14.75
		c0.89,0.56,1.97,1.39,2.73,0.23c0.96-1.46-0.56-2.01-1.5-2.61c-0.76-0.49-1.59-1.15-2.43-1.21
		C190.5,723.33,185.65,718.22,180.07,714.45z"/>
	<path class="st36" d="M310.34,951.67c-0.57,1.67,1.35,3.47-0.6,4.82c0.44,0.29,0.87,0.58,1.31,0.87"/>
	<path class="st21" d="M81.08,913.85c1.51-0.68,1.39-2.02,1.38-3.35c-0.01-3,0.31-6.05-0.05-9c-0.84-6.85,1.65-12.77,4.44-18.71
		c0.76-1.62,1.42-2.1,3.21-1.35c3.27,1.37,6.76,1.96,10.32,2.04c1.3,0.03,2.73,0.24,2.94-1.66c-0.93-1.32-2.38-0.72-3.59-0.98
		c-3.92-0.86-8.29-0.25-11.29-4.07c-0.84-1.07-2.96-0.22-4.49-1.33c-7.81-5.67-12.65-13.05-13.94-22.67
		c-0.14-1.04-0.25-2.08-0.37-3.11c-0.12-1.01,0-2.43-1.46-2.24c-1.29,0.17-1.11,1.53-1.12,2.58c-0.03,2.64,0.5,5.2,1.18,7.72
		c2.32,8.56,7.22,15.33,14.67,20.09c2.2,1.4,2.56,2.64,1.25,4.62c-5.96,9.08-4.26,19.31-4.43,29.27
		C79.71,912.76,80.23,913.38,81.08,913.85z"/>
	<path class="st21" d="M269.06,737.63c-5.73-2.39-11.66-2.57-17.71-1.66c-1.38,0.21-2.71,0.67-4.1-0.39
		c-7.63-5.84-15.41-5.33-23.27-0.3c-0.91-2.08-1.79-4.09-2.67-6.1c-2.72-2.29-5.45-4.55-9.43-3.49c-1.85,0.49-3.32,1.51-4.41,3.05
		c-0.38,0.53-0.52,0.44-0.02,1.02c0.52,0.6,1.27,1.36,1.73,0.85c2.34-2.58,4.98-3.29,7.99-1.28c3.01,2.01,3.87,5.09,3.94,8.5
		c0.02,1.09-0.95,2.5,0.53,3.15c1.8,0.8,2.05-1.15,2.79-2.03c4.89-5.77,14.08-6.68,20.54-1.63c1.97,1.54,3.62,1.94,5.99,1.44
		c4.51-0.94,9.1-1.06,13.6,0.13c3.91,1.03,7.1,3.19,9.54,6.46c0.62,0.83,1.15,2.54,2.62,1.34c1.29-1.05,0.08-2.13-0.56-3.04
		C274.34,741.01,271.87,739.12,269.06,737.63z"/>
	<path class="st18" d="M269.58,741.2c-3.38,2.98-5.6,6.63-6.34,11.11c0.29,1.03-0.15,2.68,1.64,2.53c1.41-0.12,1.09-1.55,1.29-2.52
		c1.34-6.65,4.48-9.73,11.37-11.06c1.01-0.2,2.38-0.02,2.18-1.52c-0.19-1.4-1.56-1.25-2.53-1.04c-3.68,0.8-3.06-1.17-2.38-3.42
		c2.41-8,9.21-13.73,17.5-14.67c1.14-0.13,2.38,0.13,3.38-0.71c0.18-2.97-2.01-2.22-3.49-2.03c-8.98,1.11-15.19,6.13-19.27,14.02
		c-0.54,2.37-1.17,4.72-1.57,7.12C271.15,740.2,270.71,740.91,269.58,741.2z"/>
	<path class="st37" d="M133.55,851.48c1.04-0.36,3.21,0.76,3.21-1.42c0-1.85-1.97-1.19-3.16-1.25
		c-17.08-0.83-30.68-13.84-32.08-30.69c-0.1-1.18,0.45-3.09-1.45-3.03c-1.94,0.07-1.25,1.92-1.17,3.11
		C100.1,836.26,115.38,850.99,133.55,851.48z"/>
	<path class="st38" d="M274.72,859.19c10.2-0.39,20.04-5.45,27.16-15.54c0.66-0.93,2.24-2.12,0.55-3.26
		c-1.44-0.97-1.94,0.71-2.6,1.58c-11.21,14.71-27.18,18.56-43.76,10.51c-1.03-0.5-2.29-1.65-3.07-0.3
		c-0.96,1.67,0.92,2.14,1.96,2.71C260.45,857.93,266.37,859.31,274.72,859.19z"/>
	<path class="st39" d="M327.14,797.28c-0.09-14.46-8.82-27.73-21.77-32.95c-1.06-0.43-2.56-1.78-3.4-0.12
		c-0.93,1.85,1.12,1.95,2.16,2.45c16.43,7.85,23.42,22.96,18.86,40.8c-0.26,1.03-1.34,2.41,0.51,2.86c1.66,0.41,1.67-1.22,2.03-2.27
		C326.73,804.56,327.17,800.96,327.14,797.28z"/>
	<path class="st1" d="M320.64,862.55c4.21-3.12,7.51-7.03,10.07-11.58c-0.08-1.24,1.98-2.87-0.24-3.65
		c-1.76-0.61-1.85,1.44-2.38,2.49c-5.8,11.49-18.29,17.09-30.65,13.68c-0.13-0.03-0.25-0.07-0.38-0.1c-1.29-0.36-3.11-1.64-3.6,0.38
		c-0.43,1.81,1.82,1.83,3.08,2.2c6.22,1.81,12.4,1.62,18.44-0.77C316.92,864.45,318.76,863.45,320.64,862.55z"/>
	<path class="st13" d="M331.09,833.87c10.89-0.36,20.87-10.1,21.39-20.82c0.05-1.12,0.4-2.64-1.34-2.67
		c-1.41-0.02-1.22,1.37-1.38,2.38c-1.62,10.78-8.45,17.42-18.99,18.57c-1.13,0.12-3.14-0.59-2.87,1.49
		C328.13,834.62,330.01,833.69,331.09,833.87z"/>
	<path class="st40" d="M334.72,687.62c-7.92-0.63-14.76,1.39-19.65,8.07c-2.19,2.99-3.75,6.26-3.73,10.09
		c2.3,0.29,2.62-1.23,3.15-3.01c2.8-9.39,12.37-14.55,21.8-12.04c0.95,0.25,2.41,2.06,3.21-0.11c0.86-2.34-1.5-1.84-2.53-2.42
		C336.31,687.83,335.47,687.8,334.72,687.62z"/>
	<path class="st41" d="M387.33,698.25c0.44,0.65,1.15,0.43,1.76,0.55c4.63,0.91,7.65,4.18,7.83,8.46c0.19,4.51-2.68,8.16-7.29,9.37
		c-1.1,0.29-3.18-0.39-2.83,1.66c0.3,1.76,2.15,1.05,3.32,0.88c5.88-0.82,10.19-6.81,9.37-12.86c-0.87-6.4-5.85-10.46-12.05-9.83
		C386.95,697.04,387.03,697.64,387.33,698.25z"/>
	<path class="st42" d="M344.26,791.28c6.81-0.17,13.97-7.44,13.92-14.11c-0.01-0.95-0.02-2.04-1.1-2.23
		c-1.45-0.26-1.6,0.98-1.73,2.04c-0.81,6.73-4.64,10.5-11.3,11.49c-0.99,0.15-2.35,0.03-2.23,1.54
		C341.95,791.44,343.21,791.3,344.26,791.28z"/>
	<path class="st17" d="M281.35,883.95c0.96,0.91,2.01,0.45,3.04,0.2c3.89-2.06,7.92-3.91,11.01-7.22c1.52-1.63,2.76-3.42,3.62-5.49
		c0.3-0.74,0.13-1.24-0.39-1.71c-0.6-0.53-1.35-0.48-1.65,0.17c-3.06,6.47-8.91,9.5-14.97,12.32
		C281.32,882.54,281.41,883.31,281.35,883.95z"/>
	<path class="st28" d="M131.61,957.34c13.96,0.39,27.91,0.4,41.86,0.13c-8.53-0.91-17.09-0.34-25.62-0.31
		c-3.5,0.01-5.02-0.83-4.59-4.51c0.25-2.17-0.05-4.41-0.1-6.61c-3.38,0.07-3.23,2.6-3,4.76c0.21,2.02,1,3.97,1.55,6.03
		C138.33,957,134.97,957.17,131.61,957.34z"/>
	<path class="st43" d="M354.57,680.29c-1.38-0.09-2.55-0.16-2.62,1.31c-0.06,1.22,0.96,1.34,1.91,1.42
		c5.95,0.52,9.86,3.67,11.81,9.26c0.46,1.31,1.32,2.19,2.55,1.69c1.02-0.41,0.34-1.63,0.12-2.45
		C366.71,685.49,360.35,680.43,354.57,680.29z"/>
	<path class="st44" d="M387.33,698.25c0.04-0.59,0.07-1.18,0.11-1.77c-2.06-0.18-1.28-1.96-1.59-3.02
		c-1.6-5.44-6.66-9.69-11.83-9.77c-1.01-0.01-2.3-0.31-2.36,1.22c-0.05,1.17,0.98,1.25,1.94,1.38c5.7,0.82,9.31,4.02,9.85,9.81
		C383.76,699.34,386.13,697.43,387.33,698.25z"/>
	<path class="st28" d="M142.48,923.27c-2.24-0.35-2.96,1.38-2.85,2.84c0.29,3.82,1.02,7.6,1.58,11.39c0.42-0.01,0.84-0.02,1.26-0.02
		c0-4.52,0-9.03,0-13.55C142.53,923.71,142.53,923.49,142.48,923.27z"/>
	<path class="st28" d="M143.11,942.89c-0.13-0.02-0.26-0.05-0.38-0.04c-1.3,0.1-2.11-2.38-3.68-0.71c-0.38,0.41-0.4,1.01,0.08,1.34
		c1.2,0.82,2.26,2.34,4.01,1C143.13,943.95,143.12,943.42,143.11,942.89z"/>
	<path class="st28" d="M142.56,920.91c-1.69-0.98-0.87-2.92-1.64-4.26c-0.03,0.39,0.1,0.94-0.11,1.15
		c-2.94,2.83-0.59,3.74,1.66,4.72C142.51,921.97,142.54,921.44,142.56,920.91z"/>
	<path class="st28" d="M116.52,890.01c-3.21,4.89-0.67,9.49,0.85,14.04c5.25,15.74,10.45,31.48,12.78,47.99
		c0.05,0.37,0.31,0.71,0.47,1.07c2.91-2.27,2.62-4.59,1.12-7.83c-1.38-2.98-2.86-6.29-1.46-10.08c0.58-1.57,2.2-4.69-1.8-5.3
		c-0.48-0.07-0.74-0.8-0.44-1.31c1.41-2.45-0.41-4.5-0.94-6.63c-0.53-2.16,0.14-3.56,1.95-3.93c2.06-0.42,3.17,1.23,3.09,3.1
		c-0.14,3.21,0.39,6.11,2.09,8.91c0.59,0.97,0.61,2.69,0.19,3.8c-1.71,4.59-0.28,9.26-0.62,13.86c-0.11,1.49,0.17,2.92,2.23,2.88
		c-1.01-6.28-1.12-12.51-0.04-18.76c0.23-1.35,0.64-2.48,1.64-3.43c0.59-0.56,1.14-1.79,0.56-2.03c-5.41-2.2-1.37-6.86-2.64-10.22
		c-1.58-4.17,1.83-6.69,5.24-8.58c-0.06-6.01-0.03-12.01-0.23-18.01c-0.08-2.35,0.44-4.25,1.88-6.13c2.84-3.71,5.45-7.58,8.55-11.92
		c-4.37,1.23-8.11,2.34-12.04,2.31c-1.01-0.01-1.72,0.58-2.44,1.12C129.84,879.95,123.18,884.98,116.52,890.01z"/>
	<path class="st2" d="M369.31,730.98c-2.24,0.24-3.7,1.39-3.68,3.73c0.02,2.09,1.26,3.46,3.4,3.57c2.31,0.12,3.83-1.17,3.91-3.44
		C373.03,732.58,371.61,731.27,369.31,730.98z"/>
	<path class="st28" d="M266.46,956.25c0.35,1.3,1.39,1.34,2.45,1.32c4.88-0.08,9.76-0.15,14.64-0.23c-0.93-4.23-1.5-8.6-4.52-12.04
		c-1.79,0.26-2.14-0.92-2.47-2.31c-3.33-13.84-6.74-27.66-10.03-41.51c-0.94-3.94,1.41-7.35,2.43-10.93
		c0.77-2.69,0.94-3.85-2.49-4.07c-9.62-0.6-17.27-5.39-24.39-13.1c2.48,12.54,2.69,24.42,7.62,35.45c3.56,7.98,6.34,16.31,9.41,24.5
		c0.47,1.25,1.53,2.57,0.25,3.98C261.51,943.7,263.71,950.08,266.46,956.25z"/>
	<g>
		<g>
			<path class="st67" d="M191.49,704.61l90.09-11.63c0,0-25.04,20.22-43.07,22.87s-46.41,4.69-46.41,4.69L191.49,704.61z"/>
		</g>
		<path class="st68" d="M218.61,701.74l92-13.94c0,0-25.95,21.33-44.37,24.45c-18.42,3.12-47.36,5.85-47.36,5.85L218.61,701.74z"/>
	</g>
	<path class="st47" d="M197.4,635.05c-1.6,2.03-0.32,3.54,0.83,5.18c9.23,13.15,18.43,26.33,27.63,39.51
		c0.52,0.74,0.92,1.57,1.38,2.36c6.42,9.89,9.75,20.57,8.77,32.51c-0.55,6.74-2.03,8.23-8.72,7.5c-6.46-0.71-10.51-4.66-13.53-10.02
		c-1.67-3.44-1.41-7.18-1.6-10.84c1.51-4.46,0.35-8.87-0.09-13.56c-0.91,0.89-0.54,1.94-1.13,2.61c-0.62,0.74-1.36,0.48-2.09,0.26
		c-2.71-1.31-3.95-4.07-5.98-6.07c-8.73-8.57-17.34-17.27-26-25.91c-1.48-1.48-2.89-2.99-3.85-4.87c-1.14-1.68-2.54-3.1-4.28-4.18
		c-0.09-1.34,0.76-2.18,1.66-2.92c6.81-5.62,14.47-9.62,23.03-11.83C194.68,634.44,196.18,633.69,197.4,635.05z"/>
</g>
</svg>
