<?xml version="1.0" encoding="utf-8"?>
<!-- Generator: Adobe Illustrator 24.3.0, SVG Export Plug-In . SVG Version: 6.00 Build 0)  -->
<svg version="1.1" id="Layer_1" xmlns="http://www.w3.org/2000/svg" xmlns:xlink="http://www.w3.org/1999/xlink" x="0px" y="0px"
	 viewBox="0 0 1920 1926.28" style="enable-background:new 0 0 1920 1926.28;" xml:space="preserve">
<style type="text/css">
	.st0{fill:#019267;stroke:#019267;stroke-width:1.0897;}
	.st1{fill:#DFD3A3;}
	.st2{fill:#C9954F;}
	.st3{fill:#377C63;}
	.st4{fill:#463A3E;}
	.st5{fill:#899452;}
	.st6{fill:#F49075;}
	.st7{fill:#EFB53B;}
	.st8{fill:#C9944F;}
	.st9{fill:#377D63;}
	.st10{fill:#B4B080;}
	.st11{fill:#7C522B;}
	.st12{fill:#7A522A;}
	.st13{fill:#7A512A;}
	.st14{fill:#1D181A;}
	.st15{fill:#784D28;}
	.st16{fill:#F39075;}
	.st17{fill:#B3AF7F;}
	.st18{fill:#B5B082;}
	.st19{fill:#B4AF7F;}
	.st20{fill:#1B1516;}
	.st21{fill:#ED9274;}
	.st22{fill:#F49175;}
	.st23{fill:#0F4C13;}
	.st24{fill:#DFD2A3;}
	.st25{fill:#425049;}
	.st26{fill:#0F0C0D;}
	.st27{fill:#899451;}
	.st28{fill:#45393D;}
	.st29{fill:#104C14;}
	.st30{fill:#1B1618;}
	.st31{fill:#43393B;}
	.st32{fill:#FBFBFB;}
	.st33{fill:#E36746;}
	.st34{fill:#E16746;}
	.st35{fill:#524042;}
	.st36{fill:#473B3D;}
	.st37{fill:#554142;}
	.st38{fill:#473A3B;}
	.st39{fill:#784F27;}
	.st40{fill:#754A22;}
	.st41{fill:#8C643A;}
	.st42{fill:#57947D;}
	.st43{fill:#887668;}
	.st44{fill:#443A3D;}
	.st45{fill:#377860;}
	.st46{fill:#45403B;}
	.st47{fill:#43383C;}
</style>
<g>
	<g>
		<path class="st0" d="M2260.47,1607.3c-263.72,26.26-843.35,43.63-1052.1-96.89c-260.94-175.65-662.82-246.84-809.96-220.42
			s-532.74,65.05-643.49,1.75c-88.6-50.64,13.31-205.48,77.57-254.33c742.87,44.96,1803.57,11,1847.9,10.88
			c472.29-1.28,631.38,70.25,619.04,186.66C2289.55,1328.08,2269.34,1521.99,2260.47,1607.3z"/>
		<path class="st0" d="M2262.95,657.22c-263.72-26.26-843.35-43.64-1052.11,96.89c-260.93,175.65-662.81,246.84-809.96,220.42
			s-532.74-65.05-643.49-1.75c-88.6,50.65,13.31,205.48,77.57,254.32c742.87-44.96,1803.58-11,1847.91-10.88
			c472.29,1.28,631.37-70.25,619.03-186.66C2292.03,936.44,2271.82,742.54,2262.95,657.22z"/>
	</g>
	<g>
		<path class="st1" d="M1632.71,855.12h41.75h14.19l-0.99-8.48c0,0-12.54-15.4-26.57-14.14c-14.03,1.27-20.63-20.1-20.63-20.1"/>
		<rect x="1675.14" y="604.38" class="st2" width="29.27" height="15.17"/>
		<path class="st1" d="M1849.75,814.99c-0.43,1.24-0.13,2.52,0.28,3.61c2.36,6.35,2.09,12.68,0.49,19.14
			c-3.43,13.84-2.11,27.82-0.85,41.77c0.61,6.82-0.31,13.55-2.23,20.04c-3.28,11.06-6.02,22.31-10.27,33.04
			c-3.7,9.34-10.08,15.87-20.57,17.55c-8.47,1.35-15.75,6.11-23.78,8.72c-3.34,1.83-6.98,2.02-10.61,1.65
			c-3.5-0.35-6.99-0.84-10.45-1.52c-1.02-0.55-2.43-0.61-2.61-2.21c-0.07-0.61,1.2-0.68,0.7-0.67c-3.57,0.07-2.75-2.58-2.95-4.49
			c-0.52-4.95-0.54-9.76,2.44-14.23c1.64-2.46,1.8-5.6,2.15-8.56c-0.6,6.51-3.83,12.02-6.65,17.69c-0.08,0.15-0.57,0.21-0.16,0.54
			c1.53,1.28,2.62,7.59,1.2,9.25c-2.07,2.42-1.61,5.03-1.37,7.72c0.39,4.78-2.55,8.08-5.24,11.41c-2.57,3.18-5.9,5.57-9.25,7.9
			c-1.51,1.04-3.01,2.09-4.58,3.03c-4.18,2.51-8.53,3.46-13.28,1.6c-2.84-1.11-5.76-2.03-8.78-2.57c-3.4-0.57-6.82-0.3-10.22-0.24
			c-4.2,0.07-8.27-0.43-12.26-1.71c-3.4-1.33-6.67-3.02-10.28-3.77c-4.98-2.6-10.28-2.7-15.47-1.27
			c-7.71,2.12-15.36,2.14-22.96,0.05c-8.63-2.38-16.96-2.87-25.73,0.02c-6.54,2.16-13.42,0.72-19.82-2
			c-6.26-4-11.2-9.48-16.33-14.75c-0.77-0.79-1.56-1.59-1.7-2.77c0.05-1.69,1.43-2.51,2.43-3.54c3.7-3.84,6.62-8.14,8.25-13.25
			c-2.31,6.22-5.97,11.51-11.06,15.79c-0.89,0.74-1.65,1.46-1.72,2.68c-1.27,2.81-3.57,5-4.71,7.89c-0.75,0.21-1.19-1.04-2.38,0.12
			c-4.05,3.96-8.88,6.98-13.71,9.92c-1.42,0.65-2.49,1.82-3.83,2.59c-0.43,0.24,0.12-0.04-0.32,0.19
			c-7.63,4.01-7.99,4.29-13.13-2.45c-4.27-5.6-8.59-11.27-11.8-17.63c-0.85-1.2-1.46-2.71-2.58-3.56c-5.14-3.89-7.06-9.5-8.92-15.31
			c-2.24-7.01-4.48-14.04-9.02-20.08c-2.59-3.44-5.79-5.66-9.98-6.36c-6.92-1.17-12.91-3.81-17.05-9.84
			c-1.96-2.86-5.24-4.42-7.46-7.12c-3.04-3.69-4.05-8.03-3.5-12.42c0.62-4.9,0.57-9.41-1.69-13.93c-2.92-5.87-0.86-11.07,3.06-15.62
			c2.93-3.4,4.7-6.6,3.76-11.57c-1.34-7.07,2.44-12.55,7.79-16.91c6.82-5.56,14.73-9.33,22.4-13.49c1.02,2.24-0.95,3.42-1.93,4.74
			c-1.55,2.08-3.11,4.15-4.46,6.34c-1.37,2.23-2.26,4.59-1.23,7.37c1.17,3.15-0.31,5.84-2.15,8.22c-3.73,4.83-4.63,9.79-1.89,15.5
			c2.46,5.13,4.19,10.46,3.41,16.42c-0.32,2.43,0.13,5.17,1.77,7.15c-1.37-2.8-2.01-5.92-1.65-9.25c0.58-5.4-1.49-10.22-3.67-14.91
			c-2.49-5.34-1.53-10.02,1.82-14.53c2.2-2.96,3.82-5.93,2.19-9.9c-0.96-2.33,0.57-4.52,1.76-6.56c1.69-2.88,4.03-5.3,5.78-8.13
			c0.87-1.42,2.2-2.71,1.88-4.63c2.57-0.76,4.12-2.67,5.8-4.66c10.9-12.85,24.32-21.92,40.6-26.68c7.76-2.27,15.31-5.2,23.23-6.93
			c2.16-0.47,4.47,0.24,6.49-1c1.1,0.91,1.14,2.19,1.01,3.4c-1.24,11.64-1.69,23.33-2.5,35c-0.89,12.77-3.35,25.42-2.65,38.31
			c0.22,4.11,0.78,8.09,2.17,11.95c4.23,11.66,14.77,16.6,26.44,12.28c8.24-3.05,14.61-8.49,19.56-15.73
			c3.05-4.47,5.57-9.31,9.34-13.27c1.77-0.89,2.5,0.3,2.97,1.63c1.49,4.2,4.91,5.98,8.79,7.24c3.12,1.35,6.59,1.56,9.66,2.61
			c0.21,1.35-0.62,1.45-1.26,1.74c-0.69,0.31-2.02,0.18-1.45,1.5c0.45,1.05,1.43,1.75,2.66,1.5c1.19-0.24,0.9-1.19,0.79-2.06
			c-0.3-2.47-2.31-4.67-1.12-7.37c3.06-2.78,4.89-2.58,8.3,0.85c0.49,0.71,0.87,1.48,1.09,2.33c0.22,0.87,0.35,1.77-0.58,2.3
			c-1.08,0.62-1.53-0.36-2.05-0.99c-0.47-0.57-0.79-1.25-1.37-1.73c-0.39-0.33-0.87-0.58-1.35-0.37c-0.77,0.34-0.52,1.04-0.34,1.6
			c0.33,1.06,0.93,2.01,1.18,3.11c0.93,4.12-0.72,6.2-4.96,6.05c-3.46-0.12-6.87,0.13-11.03,0.98c4.9,1.92,9.66-0.13,14.33,2.07
			c-3.1,2.62-6.9,1.99-9.74,3.84c4.05,1.53,8.06,0.51,12.06,0.24c1.52-0.1,1.91-1.25,2.52-2.35c3.07-5.56,8.38-5.78,11.35-0.3
			c1.23,2.26,2.9,2.02,4.66,1.87c9.57-0.85,19.15-1.58,28.6-3.4c1.33-0.26,2.65-0.6,4.03-0.48c2.58,1.23,2.67,3.98,3.66,6.14
			c2.39,5.23,2.99,5.57,8.39,3.77c28.3-9.47,56.26-19.84,83.86-31.2c0.91-0.38,1.82-0.77,2.71-1.19
			c11.08-5.24,13.31-9.57,11.31-21.74c-1.05-6.35-2.88-12.49-4.68-18.64c-0.42-1.46-1.37-3.06,0.36-4.39
			c1.09-0.3,1.91,0.28,2.7,0.87c3.69,2.73,7.8,4.63,12.12,6.13C1846.28,808.96,1849.19,810.87,1849.75,814.99z"/>
		<path class="st3" d="M1645.41,845.51c-3.45,5.11-6.84,10.25-10.35,15.32c-4.16,6.01-9.59,10.58-16.23,13.61
			c-15.09,6.89-28.49,0.13-31.9-16.09c-1.67-7.94-1.54-16-0.51-23.94c1.58-12.23,2.29-24.52,3.26-36.79
			c0.63-7.98,1.03-15.98,1.53-23.97c1.02-16.28,3.07-32.38,8.15-47.97c1.72-5.28,3.6-10.48,6.14-15.43
			c5.81-11.31,16.43-14.92,27.78-17.24c3.98-0.82,8.05-1.18,12.13-1.1c9.83-0.77,9.74-0.73,13.2,8.38
			c3.95,10.39,5.43,21.17,5.66,32.2c0.23,10.71-0.7,21.38-1.11,32.07c-0.41,1.37-1.64,1.62-2.79,1.94
			c-1.49,0.42-2.46,1.42-3.18,2.73c-2.98,1.59-6.28,1.54-9.51,1.84c-3.83-1.14-6.97-3.59-10.4-5.5c-1.52-0.85-1.61-2.29-1.57-3.85
			c0.19-7.76,1.28-15.45,1.59-23.2c-0.52,7.72-1.45,15.41-1.63,23.15c-0.07,3.15-2.02,5.55-3.58,7.97
			c-6.01,9.32-11.74,18.8-15.03,23.82c3.63-5.73,10.08-15.69,16.24-25.83c1.24-2.03,2.8-2.43,5-1.29c3.26,1.69,6.16,4.08,9.79,5.03
			c3.44,0.9,5.66,3.71,8.57,5.44c5.22,4.11,10.58,8.03,15.91,12c4.77,4.11,5.09,5.11,1.74,10.46
			c-7.14,11.44-13.61,23.29-20.93,34.63c-2.19,2.51-3.11,5.78-5.1,8.41C1647.42,843.45,1646.85,844.87,1645.41,845.51z"/>
		<path class="st3" d="M1828.19,800.81c-1.47,1.29-0.16,2.53,0.19,3.67c2.42,7.9,4.69,15.81,5.41,24.11
			c0.63,7.22-1.99,12.5-8.44,15.82c-9.45,4.87-19.44,8.49-29.35,12.26c-20.63,7.85-41.25,15.71-62.28,22.45
			c-5.34,1.71-5.77,1.52-8.14-3.57c-1.09-2.34-2.05-4.73-3.07-7.1c-2.71-3.35-3.07-7.6-4.37-11.49c-0.42-1.27-0.7-2.59-0.98-3.9
			c-0.28-1.83-0.71-3.63-1.05-5.45c-0.77-4.21-0.39-5.18,3.48-6.99c8.16-3.81,16.62-6.9,24.92-10.37c11.03-4.61,22.15-9,33.21-13.55
			c1.14-0.47,2.26-1.03,3.55-0.7c4.09-0.59,7.39-3.11,11.12-4.56c3.32-1.29,6.49-2.92,9.76-4.32c-6.89,2.78-13.54,6.12-20.42,8.91
			c-3.67-3.99-6.44-8.66-9.75-12.93c-5.36-6.9-10.66-13.86-15.68-21.03c-1.77-2.95-5.38-5.1-4.08-9.38c0.46-0.98,1.36-1.3,2.33-1.45
			c1.3-0.19,2.7-0.19,3.04-1.93c0.33-1.67-0.35-2.75-1.81-3.49c-0.32-0.16-0.47-0.53-0.65-0.85c-0.98-4.14-0.24-8.35-0.5-12.51
			c-1.04-16.58-1.8-33.2-6.69-49.26c-0.79-2.6-1.63-5.16-2.75-7.64c-0.58-1.29-1.58-2.6-0.55-4.14c6.42-0.36,12.71,1,19.06,1.5
			c12.3,0.89,22.82,4.58,28.62,16.78c5.2,10.93,9.74,22.14,14.77,33.13c0.31,1.47,0.7,2.93,0.24,4.45
			c-0.17,0.37-0.43,0.64-0.78,0.84c-3.19,1.08-6.54,0.16-9.79,0.85c-5.65,1.21-10.91,3.43-16.05,5.97
			c-4.29,2.42-8.79,4.51-12.69,7.56c-1.22,0.96-2.97,1.94-2.67,3.71c0.33,1.9,2.4,1.87,3.89,2.25c8.83,2.24,17.84,2.16,26.84,1.74
			c3.47-0.16,6.67-1.6,9.8-3.14c2.42-1.19,4.7-2.72,7.31-3.53c0.66,0,1.25,0.24,1.55,0.82c0.78,1.56,1.69,2.38,3.41,1.11
			c0.57-0.42,1.43-0.68,1.94,0.16c0.36,0.59,0.03,1.29-0.39,1.68c-2.63,2.42-1.72,4.99-0.65,7.77
			C1822.31,783.6,1825.25,792.21,1828.19,800.81z"/>
		<path class="st4" d="M1806.97,746.91c0.1-1.19-0.84-2.34-0.16-3.56c-0.07-2.6,1.69-3.61,3.78-4.32c0.87-0.02,1.64,0.37,2.45,0.59
			c3.92,1.08-6.83,5.99-5.95,2.02c0.29-1.3,13.08-8.87,14.6-9.49c12.56-5.85,25.54-8.69,39.45-6.12c14.04,2.6,28.16,4.84,42.03,8.31
			c1.43,0.36,2.84,0.8,4.24,1.26c8.8,2.88,10.83,5.79,8.26,14.46c-1.05,3.53-4.05,6.7-7.66,8.55c-2.17,1.11-3.66,2.76-5.18,4.57
			c-9.94,11.84-20.54,22.97-34.34,30.48c-9.17,4.72-18.47,6.06-28.03,1.02c6.25,3.24,12.74,4.27,19.56,2.24
			c0.98-0.29,1.93-0.43,2.64,0.55c-5.41,5.03-10.19,10.52-12.93,17.53c-1.86-3.94-5.21-5.88-9.2-7.13
			c-4.61-1.44-8.75-3.79-12.35-7.04c-3.69-3.56-3.56-8.75-5.53-13.06c-2.29-5-3.68-10.42-5.75-15.53c-1.34-3.3,1.69-4.21,2.94-6.42
			c-1.95-0.13-2.39,2.61-3.89,2.1c-1.61-0.55-1.19-2.84-2.38-3.95c0.92-1.96,0.92-1.96,4.65-4.81c-4.86-0.24-9.2,0.09-13.47-0.72
			c-3.03-0.57-6.06-1.05-9.01-2.02c-4.13-1.35-8.33-2.31-12.74-1.55c-0.97,0.17-1.97,0.3-2.8-0.48c8.21-4.8,16.94-7.53,26.56-6.75
			c4.28,0.03,8.5,1.24,12.8,0.64c0.08-0.45,1.76,0.45,0.77-1.02c-1.35-2-1.04-3.96,0.72-5.64c1.88-1.8,3.92-3.86,6.26-2.1
			c-1.61-1.39-3.31-0.31-5.15,0.86c-1.92,1.22-3.03,2.8-2.68,5.2c0.13,0.9,0.77,1.94-0.47,2.62
			C1814.91,748.58,1810.89,748.2,1806.97,746.91z"/>
		<path class="st5" d="M1469.76,989.16c-0.09-3.2-0.07-6.41-0.3-9.6c-0.18-2.57,0.93-3.88,3.33-4.47
			c6.23-1.54,12.53-2.66,18.95-2.86c1.62-0.05,3.16-0.25,4.67-0.81c4.93-1.91,10.11-1.64,15.23-1.54c4.37,0.08,8.72,0.84,13.1,0.19
			c3.87-0.03,7.74-0.06,11.61-0.09c1.02,0.89,0.72,1.99,0.43,3.04c-1.36,4.93-2.69,9.86-4.77,14.55c-0.98,1.49-2.04,2.94-2.13,4.83
			c-0.37,2.19-1.41,4.17-2.02,6.28c-0.14,0.78-0.29,1.56-0.53,2.32c-4.97,13.77-3.33,27.6-0.57,41.48c0.46,2.32,1.74,4.73,0.03,7.1
			c-5.43,1.68-11.05,1.09-16.48,0.61c-7.12-0.64-14.26-0.35-21.38-1.13c-9.11-1-9.35-0.87-11.54-9.78
			c-0.12-0.48-0.23-0.96-0.33-1.44c-2.72-14.1-5.63-28.18-7.28-42.47C1469.55,993.29,1469.17,991.23,1469.76,989.16z"/>
		<path class="st6" d="M1671.16,691.37c0.02-3.19,0.05-6.38,0.07-9.57c0.45-1.7,2.01-2.43,3.13-3.53c3.68-3.62,4.33-7.86,1.75-12.37
			c-1.16-2.04-2.67-3.84-4.29-5.54c-1.64-1.72-2.8-3.72-3.65-5.94c-1.07-2.79-0.78-5.39,1.28-7.56c1.92-2.03,4.43-1.96,6.9-1.29
			c6.67,1.8,6.67,1.83,8.27-5.14c2.24-9.71,7.24-13.61,17.19-13.87c6.81-0.18,13.52,0.44,20.2,1.68c0.48,0.09,0.97,0.17,1.46,0.23
			c6.62,0.77,6.65,0.76,7.74,7.28c1.07,6.41,2.23,12.82,1.56,19.38c-0.04,5.51,0.23,11.05-0.19,16.53
			c-0.56,7.25-2.97,13.83-8.89,18.63c-1.86,2.47-4.78,2.92-7.4,3.97c-7.19,0.27-14.08-1.29-21.02-3.57
			c6.42,2.69,13.18,2.95,19.75,4.18c0.92,1.47-0.02,2.59-0.74,3.7c-5.3,8.17-15.89,12.09-25.28,9.11
			c-4.91-1.56-9.68-3.57-14.17-6.17C1672.95,698.35,1670.56,695.41,1671.16,691.37z"/>
		<path class="st7" d="M1469.76,989.16c1.64,5.78,1.7,11.81,2.72,17.69c1.68,9.65,3.29,19.31,5.35,28.89
			c0.13,0.59,0.05,1.23,0.06,1.84c-1.08,1.2-2.56,1.54-4.02,1.55c-2.92,0.02-3.73,1.57-3.74,4.23c-0.02,7.99,0.38,15.99-0.7,23.96
			c-0.2,1.46-0.07,2.97-1.17,4.16c-1.28,6-2.89,11.85-6.94,16.72c-3.12,3.76-7.06,5.95-11.84,6.74c-2.11,0.35-3.9-0.05-4.96-2.15
			c-0.63-1.62-1.12-3.3-1.06-5.03c0.29-7.89-0.74-15.73-0.84-23.6c-0.28-22.63-1.32-45.24-1.76-67.87c-0.02-1.25-0.15-2.48,0.95-3.4
			C1450.99,990.68,1460.4,990.08,1469.76,989.16z"/>
		<path class="st8" d="M1752.6,620.14c-0.93,3.45-2.17,6.76-4.24,9.71c-1.49-1.54-1.03-3.49-0.97-5.27
			c0.42-12.6-9.98-21.96-22.51-22.65c-9.05-0.49-17.55,1.86-25.85,5.15c-1.14,0.45-2.2,1.13-3.48,1.14
			c-0.9-0.04-1.57-0.53-2.22-1.11c-1.69-1.54-3.65-2.05-5.68-0.92c-1.97,1.1-2.77,2.96-2.5,5.23c0.06,0.49-0.01,0.97-0.16,1.44
			c-1.42,2.34-3.88,3.38-6.03,4.77c-9.1,5.86-17.22,12.78-23.55,21.63c-5.37,7.5-9.69,15.47-10.74,24.86
			c-0.16,1.44-0.37,2.96-1.47,4.1c-4.82-3.53-7.96-8.21-9.61-13.93c2.57-9.45,7.06-17.87,13.57-25.21
			c3.17-4.43,7.29-7.92,11.24-11.59c5-4.19,10.41-7.79,16.16-10.87c-5.85,3.03-11.23,6.77-16.33,10.91
			c-3.92,3.83-8.2,7.31-11.37,11.87c-5.62,6.18-9.39,13.42-12.26,21.19c-0.37,1.01-0.49,2.12-1.23,2.98
			c-2.17-7.22-0.83-14.15,2.02-20.84c5.81-13.65,16.1-23.39,28.08-31.58c2.33-1.59,4.69-3.14,7.04-4.7
			c3.76-2.43,7.22-5.5,12.03-5.72c12.19-4.65,24.66-7.81,37.85-6.86c9.54,0.69,18.49,3.14,25.64,9.93
			c7.24,6.88,9.35,15.31,6.95,24.94c-0.93-3.51-1.5-7.11-3.13-10.43c-4.91-10.06-13.27-14.83-24.07-15.87
			c-10.92-1.06-21.25,1.53-31.4,5.22c-1.62,0.59-3.26,1.11-4.88,1.74c9.33-3.68,18.89-6.66,28.95-7.15
			c15.47-0.76,28.45,4.98,33.23,20.99C1752.37,615.5,1752.24,617.84,1752.6,620.14z"/>
		<path class="st4" d="M1526.81,1049.31c-1.13-7-2.51-13.96-3.32-21c-1.11-9.57-0.76-19.06,3.29-28.07
			c7.17-0.44,7.19-0.45,4.41-7.35c-0.55-1.36-0.8-2.64,0.5-3.65c1.29-0.99,2.52-0.54,3.65,0.43c0.65,0.56,1.1,1.29,1.57,1.72
			c-1-2.32-3.48-2.74-5.67-3.62c1.56-5.98,4.23-11.63,5.12-17.8c0.09-2.9,0.19-5.8,0.28-8.69c3.26,3.04,5.28,7,7.86,10.55
			c0.93,1.29,1.77,2.65,2.61,4c1.7,2.74,3.86,5.21,6.36,7.07c3.38,2.53,5.22-2.31,8.19-2.49c1.07,1.21,0.32,2.28-0.25,3.37
			c-1.38,2.61-2.82,5.18-4.42,7.66c-0.91,1.41-1.41,2.82-1.09,4.48c-1.56,3.24-2.43,6.7-3.31,10.15c-0.76,2.97-1.36,5.87-4.07,8.01
			c-1.75,1.38-1.94,3.68-0.54,5.69c1.3,1.86,1.43,3.87,1.1,6c-1.34,8.66-0.53,17.36-0.46,26.05c0.01,0.75,0.32,1.44,0.47,2.16
			c0.9,5.67,1.71,11.34,2.67,17c0.24,1.42,0.72,2.89-0.32,4.22c0.04,5.23,2.58,9.17,6.04,12.9c3.26,3.5,1.52,7.56-3.3,8.17
			c-1.8,0.23-3.67-0.09-5.5-0.2c-8.74-0.5-11.05-2.9-11.69-11.73c-0.28-3.81-2.15-7.2-3.39-10.76c-0.44-0.24-0.84-0.56-0.99-1.03
			c-2.47-7.27-4.77-14.6-6.07-22.19C1526.46,1049.99,1526.65,1049.64,1526.81,1049.31z"/>
		<path class="st5" d="M1771.38,957.94c7.1,1.29,14.23,2.12,21.44,0.92c-1.27,4.41-2.53,8.82-3.8,13.22
			c-0.64,5.22-1.49,10.37-4.43,14.9c-4.16,13.12-8.24,26.26-12.5,39.35c-2.32,7.13-4.87,14.21-8.75,20.69
			c-0.18,1.61-1.34,2.32-2.7,2.59c-3.63,0.71-7.21,0.68-10.52-1.33c-0.86-1.6-0.74-3.35-0.71-5.07c0.15-8.12-0.39-16.25,0.62-24.36
			c0.6-4.79-0.43-9.59-0.92-14.35c-0.63-6.04-0.32-12.06-0.42-18.09c-0.02-1.4,0.39-2.67,1.14-3.84c4.93-4.03,10.16-7.78,12.85-13.9
			c0.65-1.48,1.33-2.91,1.31-4.56c-0.01-0.17-0.02-0.34-0.03-0.51c-0.11-3.07,2.4-4.3,4.2-6.03
			C1769.23,957.65,1770.31,957.72,1771.38,957.94z"/>
		<path class="st9" d="M1675.01,701.02c3.95,1.63,7.91,3.27,11.87,4.88c11.13,4.53,22.8,0.1,28.27-10.73
			c0.15-0.72,0.8-1.1,1.16-1.68c2.47-1.08,4.93-2.15,7.4-3.23c1.79,0.19,3.59,0.38,5.39,0.57c3.15,7.83,5.39,15.9,6.46,24.28
			c-0.22,1.46-1.32,2.33-2.27,3.27c-15.59,15.61-31.18,31.21-46.79,46.8c-0.87,0.87-1.68,1.81-2.87,2.29
			c-0.96,0.3-1.9,0.24-2.82-0.18c-0.94-0.75-2.19-1.15-2.7-2.39c-0.27-6.42,0.71-12.77,1.24-19.13c1.08-12.93,0.18-25.58-3.59-38.02
			C1675.11,705.59,1673.72,703.43,1675.01,701.02z"/>
		<path class="st4" d="M1732.78,655.11c-0.95-7.04-1.96-14.07-2.83-21.12c-0.38-3.05-0.74-5.22-4.98-4.54
			c-3.44,0.55-7.03-0.79-10.55-1.39c-5.98-1.02-11.99-1.07-17.99,0.15c-5.75,1.17-8.93,4.83-10.28,10.33
			c-0.59,2.39-1.05,4.81-1.68,7.18c-0.75,2.78-2.6,3.35-5.12,2.31c-0.45-0.19-0.91-0.38-1.34-0.62c-2.59-1.46-5.45-2.58-7.85-0.21
			c-2.55,2.51-1.74,5.62-0.37,8.59c1.22,2.65,3.4,4.5,5.21,6.66c6.38,7.58,5,14.63-3.76,19.36c-1.65-1.42-1.85-3.63-2.92-5.37
			c-2.55-3.05-2.33-6.92-2.97-10.49c-1.02-5.68-1.6-11.44-2.88-17.08c-0.47-2.08-0.58-4.28,0.67-6.08
			c7.08-10.15,14.56-19.9,26.64-24.68c0.34-0.14,0.69-0.26,1.04-0.37c3.65-1.03,3.65-1.03,4.56,4.43c0.15,0.47,0.74-0.23,0.3-0.01
			c-0.21,0.11-0.31,0.08-0.37-0.07c-0.74-1.87,0.06-3.57,0.59-5.31c1.4-2.43,3.85-1.86,6.01-2.13c7.1-1.81,14.22-2.62,21.5-0.89
			c2.86,0.68,5.81,1.03,8.78,1.09c2.52,0.05,4.5,1.08,5.7,3.42c0.34,0.67,0.6,1.32,0.52,2.1c-0.15,1.52-1.66,2.02-2.32,3.16
			c2.02,1.08,1.1,2.36,0.26,3.65c-0.44,0.67-0.42,1.35-0.14,2.1c2.29,6.04-0.19,11.75-1.24,17.55
			C1734,649.51,1734.26,652.54,1732.78,655.11z"/>
		<path class="st5" d="M1675.01,701.02c4.29,12.91,6.6,26.14,5.82,39.75c-0.47,8.17-1.45,16.32-2.2,24.48
			c-3.57,2.4-7.61,0.97-11.42,1.32c-1.65,0.15-3.49,0.26-4.78-1.29c-0.52-10.11,0.85-20.17,0.78-30.28
			c-0.08-12.14-1.59-23.97-6-35.35c-0.53-1.38-1.22-2.76-1.38-4.2c-0.32-2.89-1.86-3.66-4.53-3.43c-1.95,0.16-3.93-0.07-5.9-0.13
			c8.58-0.85,17.16-1.49,25.77-0.53C1672.45,694.59,1673.73,697.81,1675.01,701.02z"/>
		<path class="st7" d="M1750.63,1048.57c2.16,0.01,4.29,0.03,6.45,0.42c2.28,0.41,4.52-0.17,6.24-1.96
			c7.23,0.52,14.47,1.02,21.7,1.55c5.12,0.37,9.77,2.29,14.35,4.42c4.04,3.39,8.34,6.64,9.43,12.23c0.53,2.7,1.42,5.68-1.8,7.58
			c-11.41,1.3-22.86,0.38-34.29,0.6c-6.15,0.12-12.31,0.05-18.47-0.01c-2.78-0.03-4.07-1.07-4.37-4.12
			c-0.55-5.54-0.48-11.06-0.47-16.6C1749.42,1051.21,1749.37,1049.68,1750.63,1048.57z"/>
		<path class="st5" d="M1734.85,715.73c-1.11-7-2.95-13.83-5.12-20.57c-0.46-1.43-0.65-2.86-0.63-4.33
			c5.21-0.34,10.38,0.4,15.57,0.61c10.32,23.65,10.84,48.77,11.11,73.92c-1.12,1.31-2.67,1.15-4.11,1.09
			c-4.02-0.19-8.09,0.67-12.05-0.59c-1.63-1.62-1.67-3.79-1.88-5.84c-1.43-14.09-1.72-28.27-3.47-42.33
			C1734.35,717.01,1734.63,716.38,1734.85,715.73z"/>
		<path class="st2" d="M1691.18,618.52c-12.51,4.63-20,14.77-27.43,24.97c-1.07,1.47-0.68,3.1-0.41,4.65
			c1.63,9.44,3.31,18.86,4.98,28.29c-8.59-0.21-16.78-1.74-23.73-7.3c-1.56-5.19,0.37-10.02,2.09-14.64
			c5.23-14.04,14.91-24.65,26.74-33.54c3.83-2.88,8.33-4.77,11.72-8.24c0.26-0.26,0.57-0.47,0.91-0.62
			c4.06-0.8,7.19-4.21,11.55-4.14c1.45,2.04-0.74,2.69-1.52,3.83c-1.41,2.06-4.24,3.02-4.58,5.92
			C1691.55,618.03,1691.45,618.3,1691.18,618.52z"/>
		<path class="st2" d="M1734.98,646.81c-0.26-3.71,0.2-7.41,1.02-10.97c0.74-3.18,0.72-5.81-2.28-7.67c0.81-1.45,3.16-1.57,2.97-3.2
			c-0.16-1.42-2.11-0.78-3.29-1.39c0.72-0.35,1.34-0.66,1.96-0.96c1.23-0.6,3.09-1.48,2.47-2.7c-0.69-1.36-1.2-3.47-3.42-3.68
			c-10.65-1.02-21.25-4.29-32.01-0.74c-1.24-0.77-2.63-0.38-3.95-0.52c-1.15-0.12-2.27-0.44-2.71-1.57
			c-0.43-1.1,0.47-1.85,1.19-2.48c1.25-1.1,2.13-2.29,1.74-4.06c8.75-3.46,17.64-6.1,27.25-5.2c17.08,1.6,25.59,16.85,20.8,30.46
			c-0.08,0.22-0.02,0.48,0.04,0.72C1743.4,637.98,1739.64,642.78,1734.98,646.81z"/>
		<path class="st4" d="M1441.81,992.91c0.71,24.91,1.37,49.83,2.15,74.74c0.26,8.38,0.77,16.76,0.56,25.15
			c-4.17-6.57-4.65-14.14-5.79-21.52c-0.22-1.45-0.04-2.97-0.76-4.33c-0.73-11.66-1.4-23.32-2.23-34.97c-0.22-3.14,0.38-5.8,2.8-7.9
			c1.82-1.58,2.01-3.04,0.08-4.8c-7.59-6.91-4.33-15.33-2.89-23.34C1436.25,992.99,1439.4,993.21,1441.81,992.91z"/>
		<path class="st10" d="M1515.07,812.92c2.5,0.6,0.75,1.97,0.3,2.68c-2.2,3.4-4.56,6.69-6.9,10c-1.87,2.65-2.81,5.35-1.41,8.59
			c1.36,3.15-0.82,5.57-2.42,7.71c-3.55,4.77-4.7,9.46-1.86,15.03c2.61,5.1,3.9,10.58,3.32,16.42c-0.36,3.64,1.89,6.72,2.34,10.26
			c-3.41-2.43-4.68-6.3-4.15-9.9c0.9-6.19-1.28-11.39-3.59-16.66c-2.36-5.37-1.76-10.28,1.66-14.89c2.2-2.98,3.46-5.81,2.43-9.85
			c-1.18-4.62,2.53-7.95,4.86-11.49c1.27-1.92,3.21-3.38,3.81-5.75C1513.99,814.36,1514.53,813.64,1515.07,812.92z"/>
		<path class="st11" d="M1752.6,620.14c-1.06-3.37-1.23-6.96-2.69-10.25c-5.21-11.71-14.7-16.72-26.98-17.1
			c-11.91-0.37-23.04,3.1-33.95,7.43c-0.72,0.28-1.4,1.19-2.62,0.06c4.82-2.43,9.77-3.99,14.76-5.46
			c9.75-2.88,19.58-4.34,29.73-2.16c12.78,2.75,21.77,13.5,22.12,26.06C1752.85,619.2,1752.72,619.67,1752.6,620.14z"/>
		<path class="st12" d="M1746.76,632.84c-1.17-1.06-0.03-2.1,0.18-3.03c2.9-13.56-6.05-25.86-19.76-27.43
			c-10.06-1.15-19.36,1.21-28.42,5.2c-0.13,0.43-0.41,0.68-0.87,0.7c-2.96,0.39-5.36,2.15-8,3.32c-1.2,0.53-2.27,1.44-3.72,1.2
			c-0.29-0.25-0.37-0.55-0.26-0.92c1.91-2.18,4.61-2.95,7.13-4.07c0.61-0.23,1.32,0.27,1.89-0.26c5.29-1.97,10.5-4.2,16.05-5.33
			c8.14-1.66,16.27-2.52,24.12,1.32c8.8,4.3,13.33,11.3,13.35,21.14c0,1.72-0.05,3.44-0.08,5.17
			C1747.82,630.85,1747.29,631.85,1746.76,632.84z"/>
		<path class="st13" d="M1685.38,612.9c-0.33,2.09-2.32,2.36-3.69,3.2c-12.2,7.56-22.74,16.8-30.11,29.29
			c-4.32,7.32-7.17,15.08-6.98,23.73c-0.47-0.31-0.93-0.61-1.4-0.92c1.28-17.02,10.04-30.02,22.08-41.3
			c5.88-5.51,12.72-9.7,19.34-14.18C1684.92,612.53,1685.18,612.58,1685.38,612.9z"/>
		<path class="st14" d="M1862.67,797.46c-5.42,0.76-10.82,2.44-16.31,0.5c-3.27-1.15-6.8-1.9-9-4.95c0.5-0.74,0.93-0.71,1.39-0.41
			c8.56,5.47,17.44,5.57,26.53,1.53c1.08-0.48,2.11-0.57,3.21-0.49C1867.47,796.31,1864.56,796.1,1862.67,797.46z"/>
		<path class="st15" d="M1647.41,629.08c-6.15,7.55-10.4,16.16-13.83,25.2c-0.07-0.24-0.15-0.48-0.22-0.72
			c2.36-9.29,6.72-17.5,13.24-24.55C1646.9,628.7,1647.17,628.74,1647.41,629.08z"/>
		<path class="st5" d="M1606.16,975.95c0.8-0.68,1.5-0.3,2.35,0.03c6.98,2.69,14.02,3.32,21.18,0.57c7.04-2.7,14.05-1.31,20.98,0.5
			c8.47,2.23,16.79,2.75,25.37,0.03c4.4-1.4,9.25-0.99,13.74,0.89c0.87,0.36,1.53,0.71,1.7,1.68c0.78,0.98,0.64,2.1,0.37,3.18
			c-4.36,17.75-9.16,35.33-19.08,51.02c-8.02,12.68-18.85,20.19-34.36,21.09c-10.66,0.62-21.12,0.39-31.59-1.51
			c-2.05-1.44-2.71-3.75-3.66-5.86c-4.65-10.35-8.61-20.89-10.97-32.08c-2-9.5-5.87-18.55-8.09-28.03
			c-1.19-5.09-3.21-10.08-2.41-15.49c0.42-0.28,0.88-0.54,1.37-0.48C1590.85,972.48,1598.74,972.98,1606.16,975.95z"/>
		<path class="st4" d="M1750.63,1048.57c0.13,7.27,0.4,14.54,0.34,21.81c-0.02,2.69,1.66,1.91,2.91,1.91
			c16.39,0.05,32.79,0.05,49.18,0.1c1.32,0,2.71-0.42,3.96,0.42c-6.24,3.37-13.18,3.86-20.01,4.58c-11.03,1.17-22.11,1.74-33.2,1.59
			c-2.53-0.03-3.29,0.85-3.67,3.19c-0.79,4.91-2.09,5.91-7.2,5.77c-3.31-0.09-6.61-0.61-9.92-0.75c-1.55-0.06-1.88-1.04-2.08-2.11
			c-0.45-2.42-0.88-4.85-1.08-7.29c-0.12-1.4-0.72-2.34-1.79-3.02c-1.35-0.85-2.12,0.44-2.76,1.12c-7.19,7.62-15.7,4.27-23.79,2.59
			c-2.73-0.57-3.24-3.6-2.24-6.36c1.62-1.17,3.5-1.03,5.34-1.04c6.4-0.03,12.81-0.08,19.21,0.02c3.01,0.04,4.08-1.15,4.14-4.15
			c0.16-7.52-0.44-15-0.7-22.5c0.81-18.25-2.71-36.05-5.49-53.93c-0.21-1.34-0.45-2.67-0.47-4.03c-0.02-1.89,0.91-2.38,2.6-1.84
			c2.22,0.15,4.4,0.68,6.35,1.66c5.94,2.98,11.32,1.88,16.47-1.85c0.98-0.71,2.07-1.26,3.12-1.88c-0.19,10.22,0.17,20.4,1.3,30.58
			c0.88,7.94-1.24,15.92-0.68,23.94C1750.7,1040.91,1750.58,1044.75,1750.63,1048.57z"/>
		<path class="st4" d="M1581.85,972.05c2.39,15.58,8.36,30.23,11.87,45.49c2.87,12.47,7.78,24.01,13.15,35.46
			c0.72,0.46,1.46,0.93,1.8,1.75c2.19,5.15,5.22,9.89,7.48,15c0.25,0.57,0.33,1.16,0.22,1.78c0.95,3.69,3.76,6.25,5.65,9.38
			c0.96,1.6,1.01,2.28-0.82,4.37c-4.86,5.57-10.09,2.48-15.14,2.34c-3.88-0.1-6.81-2.42-7.57-6.38c-0.67-3.47-2.56-5.96-5.02-8.22
			c-3.91-2.29-5.06-6.59-7.01-10.17c-2.1-3.88-3.96-7.95-5.47-12.14c-5.95-19.95-16.39-37.94-24.73-56.85
			c2.19-5.74,5.44-10.88,9.08-15.79c4.59-3.52,9.7-6.34,13.96-10.29c1.38-1.27,1.78-0.4,2.26,0.7
			C1582.68,969.59,1582.65,970.79,1581.85,972.05z"/>
		<path class="st5" d="M1701.68,1038.37c-3.54-1.01-7.08-2.04-10.63-3.02c-2.15-0.59-2.82-1.66-2.36-4.04
			c3.14-16.41,7.59-32.5,11.51-48.73c7.76,2.3,15.84,0.86,23.7,2.07c-2.27-0.08-1.69,1.45-1.5,2.71c1.28,8.54,2.43,17.11,3.89,25.62
			c1.78,10.32,2.44,20.68,2.03,31.13c-1.16,0.99-2.49,0.86-3.84,0.6c-6.75-1.25-13.32-3.29-20.05-4.65
			C1703.31,1039.84,1702.37,1039.3,1701.68,1038.37z"/>
		<path class="st16" d="M1673.34,853.6c0.44-0.52,1.03-0.76,1.68-0.88c6.35-0.38,12.66-0.28,18.88,1.4
			c-2.86-0.43-5.66-1.1-8.27-2.38c-1.5-0.74-4.13-1.15-3.77-2.91c0.42-2.1,3.06-1.38,4.8-1.41c4.71-0.08,9.29,0.99,13.86,1.94
			c4.18,0.87,8.6,0.97,12.44,3.21c1.61,0.94,3.39-0.78,4.98,0.35c1.53,5.18,3.06,10.36,4.59,15.54c-7.98,2.02-16.13,2.92-24.3,3.67
			c-3.79,0.35-7.59,0.48-11.38,0.82"/>
		<path class="st16" d="M1671.31,873.82c-5.1,0.37-10.12,0.53-15.87-0.73c4.04-2.82,8.24-3.02,12.64-4.44
			c-5.58-0.56-10.74,0.47-15.94-1.47c1.36-1.92,3.45-2.26,5.18-2.28c2.91-0.03,5.72-1.04,8.74-0.32c2.39,0.57,4.1-0.69,3.73-3.54
			c-0.13-0.96-0.33-1.94-0.7-2.83c-0.68-1.66-3.17-3.63-0.35-4.91c2.55-1.16,6.29-0.19,7,2.1l11.98,16.62l-0.23,0.88"/>
		<path class="st17" d="M1698.73,931.81c0.65,6.14,4.16,10.85,7.28,15.77c2.2,3.47,3.54,7.28,3.11,11.54
			c-0.88,8.73,2.85,15.18,9.94,19.98c1.03,0.7,2.27,1.41,2.36,3.07c-9.28-4.14-14.36-11.17-13.75-18.15
			c0.72-8.27-2.2-15.05-6.95-21.5C1698.46,939.47,1697.19,935.87,1698.73,931.81z"/>
		<path class="st18" d="M1771.38,957.94c-1.3,0.06-2.59,0.13-3.89,0.19c-2.07,1.45-3.29,3.42-3.57,5.94l0.06,0.03
			c-1.17-2.75-1.34-5.47,1.06-7.59c1.32-1.17-0.17-2.12,0.2-3.29c0.52-1.66,0.13-3.61,0.13-5.46c-1.27-0.06-1.01,1.43-2.02,1.59
			c0-0.36-0.1-0.75,0.02-1.06c2.72-6.93,7.09-13.28,7.33-21.08c0.02-0.72,0.44-1.57,1.38-1.34c0.95,0.23,0.78,1.21,0.64,1.86
			c-0.84,3.93-1.02,8.05-3.42,11.55c-2.76,4.02-1.98,8.63-1.31,12.91c0.21,1.34-0.75,1.71-0.59,2.57c0.86,0.83,2.17-1.45,2.68,0.42
			c0.05,0.18,3.32,1.09,0.01,1.65C1769.47,956.95,1771.29,957.15,1771.38,957.94z"/>
		<path class="st16" d="M1658.65,852.85c2.47,0.34,4.97-1.12,7.43,0.08c-0.09,2.12,0.23,4.18,1.4,5.98
			c0.87,1.35,1.56,2.74,0.04,3.89c-1.38,1.04-2.88,0.24-4.09-0.6c-1.12-0.77-2.38-2.16-2.1-3.24c0.49-1.92,2.9-0.02,4.1-1.33
			c-3.27-0.86-6.77-0.76-9.71-2.63c0.66-0.27,0.74-0.85,0.77-1.45C1657.2,853.32,1657.72,852.44,1658.65,852.85z"/>
		<path class="st19" d="M1589.05,958.8c-0.99,0.52-1.97,1.04-2.96,1.56c-1.49-1.34,0.01-2.01,0.75-2.52
			c5.58-3.89,8.82-9.48,11.54-15.49c0.39-0.86,0.19-2.79,1.76-2.08c1.38,0.62,0.03,1.92-0.27,2.89
			C1597.94,949.53,1593.38,954.09,1589.05,958.8z"/>
		<path class="st20" d="M1565.33,978.08c-2.31,5.57-5.87,10.44-8.84,15.64c0.28,0.8-0.14,1.2-0.83,1.43
			c-2.81-0.73-0.64-2.12-0.21-2.91c2.11-3.92,5.01-7.43,6.21-11.83C1563.04,979.89,1563.23,977.49,1565.33,978.08z"/>
		<path class="st21" d="M1652.15,860.44c4.92-2.82,7.13-2.39,9.15,1.87C1658.14,861.95,1655.15,861.79,1652.15,860.44z"/>
		<path class="st7" d="M1701.68,1038.37c8.92,1.75,17.56,4.78,26.64,5.75c0.29,8.49,0.53,16.97,0.91,25.46
			c0.09,2.06-0.48,2.82-2.63,2.78c-9.11-0.16-18.21-0.16-27.32-0.23c0.05-3.42,0.09-6.85,0.14-10.27
			C1700.17,1054.02,1700.92,1046.19,1701.68,1038.37z"/>
		<path class="st1" d="M1674.99,853.49c-2.15-1.96-4.23-3.38-7.53-3.73c-2.73-0.29-5.95-2.2-7.38-5.23
			c-1.51-3.19-3.72-5.07-7.2-5.11c-0.05-2.05,2.39-3.99-0.16-5.87c6.76-11.24,13.51-22.49,20.28-33.72
			c3.67-6.09,3.69-6.08-1.09-10.58c-0.2-2.26,1.07-3.99,2.19-5.71c0.97-1.48,2.45-1.9,4.22-1.39c5.69,1.63,10.68,4.42,14.58,8.94
			c1.46,1.69,3.04,3.2,4.82,4.55c1.48,1.12,2.83,2.64,4.57,0.3c0.51-0.69,1.31-0.2,2.04-0.07c4.01,0.73,7.09-2.54,6.21-6.55
			c-0.86-3.97-2.91-7.25-5.68-10.19c-0.92-0.98-2.99-1.91-1.2-3.87c2.1-0.79,4.11-0.25,6.14,0.33c3.34,0.97,6.34,2.66,9.45,4.15
			c4.84,2.32,9.54,2.79,14.93,1c7.58-2.51,15.44-2.75,22.9,1.12c7.95,10.65,15.91,21.3,23.84,31.97c0.42,0.56,0.58,1.31,0.86,1.97
			c0.26,0.36,0.19,0.6-0.25,0.71c-10.97,4.39-21.96,8.75-32.92,13.19c-9.25,3.75-18.42,7.71-27.72,11.32c-3.44,1.33-5.11,3-3.8,6.82
			c0.55,1.6,0.57,3.38,0.82,5.08c-2.52,1.6-4.63,0.79-7.38-0.14c-5.4-1.83-11.2-2.46-16.84-3.59c-3.74-0.75-7.51-0.95-11.96-0.69
			c4.08,2.89,8.48,3.59,11.51,4.99C1687.74,853.49,1681.36,853.49,1674.99,853.49z"/>
		<path class="st22" d="M1703.2,775.89c3.78,4.05,7.3,8.12,8.54,13.87c0.75,3.47-0.97,5.35-3.3,6.42c-1.32,0.61-3.61,4.55-5.31-1.4
			c-0.9,4.42-2.24,4.56-4.72,2.74c-3.49-2.57-6.14-5.95-9.29-8.83c-3.32-3.02-7.4-4.26-11.36-5.87c-1.86-0.75-2.7,0.59-3.45,1.9
			c-0.84,1.48-1.6,3.02-2.4,4.53c-5.18-3.92-10.35-7.84-15.53-11.75c3.12-4.21,7.77-6.39,12.03-9.1c3.99-1.86,8.01-3.62,12.52-1.77
			c0.96,0.12,1.92,0.25,2.88,0.37c0.7-0.07,1.4-0.24,2.11-0.17c3.78,0.61,7.22,2.15,10.59,3.89
			C1698.87,772.29,1701.92,772.95,1703.2,775.89z"/>
		<path class="st23" d="M1648.33,772.12c-4.07-0.22-6.89-3.14-10.18-4.94c-2.26-1.23-3.06-0.82-4.29,1.18
			c-6.14,9.97-12.4,19.86-18.7,29.74c-0.65,1.03-1.02,2.54-3.18,2.86c1.21-4.33,3.99-7.35,6.04-10.7
			c5.05-8.3,10.38-16.44,15.57-24.66c0.94-1.49,1.16-3.25,1.3-4.95c0.59-7.6,1.07-15.22,1.62-22.83c0.06-0.9-0.39-2.47,0.91-2.4
			c1.45,0.09,1.01,1.55,0.91,2.68c-0.66,7.72-1.2,15.45-1.88,23.17c-0.19,2.14,0.54,3.37,2.5,4.34c2.98,1.47,5.78,3.28,8.66,4.95
			C1648.87,770.62,1648.79,771.28,1648.33,772.12z"/>
		<path class="st24" d="M1648.33,772.12c-0.24-0.52-0.48-1.03-0.72-1.55c3.04-1.63,6.64-0.55,9.71-2.04
			c3.73-2.04,8.21-1.73,11.09,0.76c-4.01,2.74-8.01,5.47-12.02,8.21C1653.7,775.71,1651.02,773.92,1648.33,772.12z"/>
		<path class="st25" d="M1668.41,769.29c-3.62-1.38-7.34-1.2-11.09-0.76c0.71-2.82,0.88-2.93,5.1-3.24
			c5.4-0.01,10.81-0.02,16.21-0.04c0.91,0.22,2.09,0,2.31,1.37C1676.37,765.66,1672.42,767.61,1668.41,769.29z"/>
		<path class="st26" d="M1780.21,754.37c6.1-1.65,11.84-0.25,17.68,1.62c7.22,2.3,14.78,2.27,22.75,1.99
			c-1.76,3.13-5.1,3.76-7.06,5.98c-10.57,8.07-22.75,8.35-35.18,7.1c-4.13-0.42-8.3-0.95-12.25-2.35c-3.13-1.11-3.42-2.32-1.1-4.71
			C1769.33,759.58,1774.77,756.97,1780.21,754.37z"/>
		<path class="st27" d="M1703.2,775.89c-2.26-1.48-4.53-2.95-6.79-4.42c0.87-1.08,2.13-1.24,3.34-1.2
			c10.56,0.36,21.08-0.84,31.63-0.79c1.11,0.01,2.21,0.08,3.28,0.4c4.13,2.19,8.6,0.81,12.9,1.21c1.85,0.17,4.01-0.52,5.16,1.75
			c-0.65,4.03,2.96,5.99,4.37,9.02c-6.86-1.48-14.05-3.39-20.65-0.63c-8.06,3.37-14.72,1.31-21.63-2.51
			C1711.26,776.76,1707.43,775.37,1703.2,775.89z"/>
		<path class="st28" d="M1752.72,772.84c-4.35-1.35-8.81-0.39-13.21-0.66c-1.68-0.1-3.55,0.39-4.59-1.56
			c-1.17-1.64-0.91-3.23,0.36-4.64c1.19-1.32,2.64-1.66,4.23-0.63c5.42,0.01,10.84,0.01,16.26,0.02c2.58-0.08,3.09,1.47,2.92,3.62
			c-0.16,1.99-0.94,3.28-3.19,3.17C1754.53,772.12,1753.49,771.98,1752.72,772.84z"/>
		<path class="st29" d="M1781.55,816.5c0.08-0.24,0.17-0.47,0.25-0.71c4.56-3.43,10.05-4.98,15.14-7.31
			c2.33-1.07,4.49-2.93,7.33-2.75c0.23,1.35-0.59,1.69-1.38,2.04c-6.16,2.75-12.32,5.5-18.47,8.26
			C1783.49,816.46,1782.56,816.66,1781.55,816.5z"/>
		<path class="st30" d="M1806.97,746.91c4.22-0.64,8.31,1.06,12.52,0.73c0.65-0.15,0.92,0.07,0.75,0.74
			c-4.58,1.46-9.07,1.21-13.47-0.75C1806.84,747.38,1806.91,747.15,1806.97,746.91z"/>
		<path class="st26" d="M1869.97,733.66c2.5-0.01,5.85,5.09,4.9,7.07c-0.18,0.39-0.62,0.83-1.01,0.92c-2.03,0.44-3.28-0.7-4.11-2.35
			c-0.79-1.59-2.2-3.15-0.79-5.07C1869.23,733.89,1869.78,733.76,1869.97,733.66z"/>
		<path class="st31" d="M1530.36,986.81c2.2,1.46,4.65,2.77,6.54,4.42c2.62,2.29,7.91,4.33,2.89,8.37
			c-4.42,3.56-9.09,2.06-13.17,0.44C1527.86,995.62,1529.11,991.21,1530.36,986.81z"/>
		<path class="st32" d="M1716.94,680.95c-3.69,0.04-7.21-2.22-8.18-5.24c-0.9-2.82,0.2-4.24,3.03-3.42c3.56,1.03,6.8,0.6,10-1.05
			c0.99-0.51,2.07-1.03,3.08-0.06c0.93,0.89,0.7,2.06,0.49,3.14C1724.68,677.69,1720.54,680.92,1716.94,680.95z"/>
		<path class="st33" d="M1716.31,693.49c0.2,0.96,0.01,1.66-1.16,1.68c-6.93,0.06-13.62-1.29-20.15-3.52c-1-0.34-3.1-0.25-2.43-1.94
			c0.55-1.4,2.16-0.28,3.25,0.1C1702.47,692.07,1709.26,693.46,1716.31,693.49z"/>
		<path class="st34" d="M1714.13,666.41c5.26-3.32,5.36-3.67,2.85-8.96c-1.85-3.91-2.17-5.9-1.04-8.75
			c1.03,4.13,2.91,7.86,4.76,11.63C1722.32,663.61,1718.78,666.93,1714.13,666.41z"/>
		<path class="st35" d="M1707.19,644.51c-3.5,2.08-6.68,1.95-9.77,2.12c-0.51,0.03-1.36-0.36-1.52-0.76
			c-0.33-0.85,0.52-1.27,1.15-1.56C1700.19,642.84,1703.33,642.62,1707.19,644.51z"/>
		<path class="st36" d="M1728.04,643.09c-3.59,2.14-7.22,1.81-11.27,1.56C1719.84,641.21,1724.05,640.69,1728.04,643.09z"/>
		<path class="st37" d="M1725.4,652.1c-0.1,1.42-0.32,2.86-1.69,2.52c-1.61-0.4-1.78-2.2-1.82-3.62c-0.03-1.03,0.26-2.62,1.65-2.24
			C1725.07,649.17,1725.29,650.89,1725.4,652.1z"/>
		<path class="st38" d="M1703.96,653.82c-0.04,0.99-0.09,2.41-1.22,2.29c-1.81-0.18-1.97-1.9-1.99-3.42
			c-0.01-0.98,0.01-2.39,1.2-2.29C1703.82,650.58,1703.82,652.35,1703.96,653.82z"/>
		<path class="st39" d="M1657.98,617.25c5.61-5.1,12.07-8.88,18.91-12.07c-6.18,4.09-12.5,7.98-18.24,12.68
			C1658.33,617.78,1658.1,617.57,1657.98,617.25z"/>
		<path class="st40" d="M1657.98,617.25c0.22,0.21,0.45,0.41,0.67,0.62c-3.75,3.74-7.49,7.47-11.24,11.21
			c-0.27-0.02-0.54-0.04-0.81-0.07C1649.65,624.37,1653.82,620.82,1657.98,617.25z"/>
		<path class="st41" d="M1677.7,604.38c2.07-2.11,4.86-1.9,6.13-3.99c0.25-0.41,0.54-0.38,0.79-0.04c0.39,0.52,0.64,1.15,0.05,1.62
			C1682.8,603.43,1680.78,604.46,1677.7,604.38z"/>
		<path class="st5" d="M1581.65,1050.73c-9.91-0.23-19.82-0.33-29.72-0.78c-3.03-0.14-4.28,0.63-3.8,3.68
			c-1.28-2.2-0.34-4.6-0.58-6.89c-0.78-7.43-0.36-14.82,0.7-22.2c0.21-1.48,0-2.81-1.01-4.15c-2.04-2.71-1.64-5.63,1.2-7.69
			c1.47-1.07,2.01-2.25,2.38-3.88c0.78-3.35,1.85-6.64,2.62-9.99c0.35-1.53,1.17-2.63,2.21-3.67c0.28-0.48,0.56-0.95,0.83-1.43
			c0.67,0,1.1,0.27,1.4,0.93c6.34,13.81,12.85,27.54,18.99,41.44C1578.94,1040.76,1580.09,1045.84,1581.65,1050.73z"/>
		<path class="st1" d="M1763.92,964.08c-0.17-2.8,0.58-5.05,3.57-5.94C1766.3,960.12,1765.11,962.1,1763.92,964.08z"/>
		<path class="st42" d="M1685.38,767.49c-0.61,0.13-1.15,0.04-1.55-0.49c0.19-0.31,0.33-0.68,0.59-0.93
			c16.81-16.78,33.62-33.56,50.43-50.34c0.05,0.51,0.1,1.02,0.15,1.54c-0.67,1.18-1.39,2.3-2.36,3.27
			c-15.18,15.18-30.38,30.33-45.53,45.55C1686.58,766.62,1685.95,767.02,1685.38,767.49z"/>
		<path class="st43" d="M1691.21,617.91c1.38-2.42,3.07-2.82,5.14-0.79c-0.26,2.03-0.51,4.06-0.78,6.16
			c-1.65-0.37-1.49-1.61-1.32-2.57c0.52-3-0.74-3.29-3.07-2.19C1691.21,618.32,1691.22,618.12,1691.21,617.91z"/>
		<path class="st9" d="M1733.81,718.12c0.34-0.34,0.79-0.57,1.19-0.85c1.37,5.47,1.77,11.12,2.04,16.68
			c0.51,10.5,1.31,20.96,2.48,31.4c-3.73-0.16-4.88,1.92-4.59,5.26c-12.84,0.28-25.68,0.57-38.51,0.85
			c-3.63-1.47-7.14-3.26-11.03-3.98c0-1.12,0.8-1.75,1.49-2.44"/>
		<path class="st44" d="M1817.91,734.27c1.32,0.09,1.84,0.83,1.2,1.96c-0.86,1.5-1.94,2.94-3.8,3.22c-1.36,0.21-2.47-0.26-2.42-1.96
			C1814.56,736.42,1816.24,735.34,1817.91,734.27z"/>
		<path class="st2" d="M1686.2,612.04c-1.55-2.9,0.55-4.44,2.48-5.55c1.95-1.12,3.76-0.26,4.76,1.88
			C1691.03,609.59,1688.62,610.82,1686.2,612.04z"/>
		<path class="st1" d="M1658.65,852.85c-0.72,0.23-1.45,0.47-2.17,0.7c0.9-1,1.93-1.92,2.69-3.02c1.86-2.67,3.66-2.54,5.88,0.29
			C1662.1,849.71,1659.99,850.31,1658.65,852.85z"/>
		<path class="st45" d="M1746.41,770.62c-2.57,0-5.15,0-7.72-0.01c-1.01,0-2.06-0.04-2.11-1.42c-0.05-1.32,0.68-2.15,1.97-2.17
			c5.51-0.07,11.03-0.06,16.54-0.06c1.11,0,1.95,0.56,1.96,1.74c0.02,1.38-0.93,1.9-2.19,1.91
			C1752.04,770.64,1749.22,770.62,1746.41,770.62z"/>
		<path class="st46" d="M1549.7,1010.25c-1.64,3.99-2.55,6.21-3.96,9.64C1538.38,1016.01,1541.16,1013.78,1549.7,1010.25z"/>
		<path class="st47" d="M1542.65,1012.29c-2.23-0.34-3.36-1.38-3.27-3.26c0.13-2.59,1.67-4.03,4.23-4.18c2.03-0.12,3.07,1.43,3,3.04
			C1546.51,1010.38,1544.45,1011.47,1542.65,1012.29z"/>
		<path class="st16" d="M1671.43,857.06l-5.64,0.52l-1.33-4.26c0,0,3.41-0.72,6.58,0.23"/>
		<path class="st16" d="M1670.91,857.87c0,0-12.17,0.51-13.83,0.99s2.45,3.26,2.45,3.26l13.46,0.86L1670.91,857.87z"/>
	</g>
</g>
</svg>
