<?xml version="1.0" encoding="utf-8"?>
<!-- Generator: Adobe Illustrator 24.3.0, SVG Export Plug-In . SVG Version: 6.00 Build 0)  -->
<svg version="1.1" id="Layer_1" xmlns="http://www.w3.org/2000/svg" xmlns:xlink="http://www.w3.org/1999/xlink" x="0px" y="0px"
	 viewBox="0 0 1920 1926.28" style="enable-background:new 0 0 1920 1926.28;" xml:space="preserve">
<style type="text/css">
	.st0{fill:#019267;stroke:#019267;stroke-width:1.0897;}
	.st1{fill:#FDFDFC;}
	.st2{fill:#FDC390;}
	.st3{fill:#32165A;}
	.st4{fill:#FDC490;}
	.st5{fill:#230950;}
	.st6{fill:#240951;}
	.st7{fill:#250A51;}
	.st8{fill:#260953;}
	.st9{fill:#250A52;}
	.st10{fill:#341656;}
	.st11{fill:#270D54;}
	.st12{fill:#260C52;}
	.st13{fill:#2A1056;}
	.st14{fill:#2B1157;}
	.st15{fill:#2B1255;}
	.st16{fill:#270C53;}
	.st17{fill:#280C53;}
	.st18{fill:#250954;}
	.st19{fill:#270B53;}
	.st20{fill:#270A52;}
	.st21{fill:#260A53;}
	.st22{fill:#250A54;}
	.st23{fill:#FEFEFD;}
	.st24{fill:#3E1E5A;}
	.st25{fill:#FFFFFF;}
	.st26{fill:#FEC38F;}
	.st27{fill:#230751;}
	.st28{fill:#230850;}
	.st29{fill:#270953;}
	.st30{fill:#240952;}
	.st31{fill:#250952;}
	.st32{fill:#351C5E;}
	.st33{fill:#250951;}
	.st34{fill:#E7CFBB;}
	.st35{fill:#250B52;}
	.st36{fill:#260C53;}
	.st37{fill:#260B52;}
	.st38{fill:#270C54;}
	.st39{fill:#260B54;}
	.st40{fill:#270D53;}
	.st41{fill:#2D1357;}
	.st42{fill:#2C1357;}
	.st43{fill:#270E54;}
	.st44{fill:#2E1055;}
	.st45{fill:#A5C8FE;}
	.st46{fill:#E76061;}
	.st47{fill:#FECECE;}
	.st48{fill:#E8CFBC;}
	.st49{fill:#280A54;}
	.st50{fill:#E75F5F;}
	.st51{fill:#E8CFBB;}
	.st52{fill:#270B54;}
	.st53{fill:#A5C8FC;}
	.st54{fill:#270A54;}
	.st55{fill:#321356;}
	.st56{fill:#A1C1F1;}
	.st57{fill:#A8C4F3;}
	.st58{fill:#F7F9FC;}
	.st59{fill:#FDFDFD;}
	.st60{fill:#290E54;}
	.st61{fill:#2D0F55;}
	.st62{fill:#F2EFF1;}
	.st63{fill:#2E1257;}
	.st64{fill:#E7CEBB;}
	.st65{fill:#FBF8F5;}
	.st66{fill:#331457;}
	.st67{fill:#6B3C1A;}
	.st68{fill:#C0D2D8;}
</style>
<g>
	<path class="st0" d="M2387.11,1526.36c-263.72,26.26-843.35,43.63-1052.1-96.89c-260.94-175.65-662.82-246.84-809.96-220.42
		c-147.14,26.42-532.74,65.05-643.49,1.75c-88.6-50.64,13.31-205.48,77.57-254.33c742.87,44.96,1803.57,11,1847.9,10.88
		c472.29-1.28,631.38,70.25,619.04,186.66C2416.19,1247.14,2395.98,1441.05,2387.11,1526.36z"/>
	<path class="st0" d="M2389.59,576.28c-263.72-26.26-843.35-43.64-1052.11,96.89c-260.93,175.65-662.81,246.84-809.96,220.42
		s-532.74-65.05-643.49-1.75c-88.6,50.65,13.31,205.48,77.57,254.32c742.87-44.96,1803.58-11,1847.91-10.88
		c472.29,1.28,631.37-70.25,619.03-186.66C2418.67,855.5,2398.46,661.6,2389.59,576.28z"/>
</g>
<g>
	<g>
		<path class="st1" d="M1826.47,693.5c0,0,2.05-24.72-33.37-22.57c0,0-8.71-18.73-23.74-18.13c0,0,4.65-38.53-31.85-41.63
			c-36.5-3.1-37.45,34.23-37.45,34.23l1.7-13.77c0,0-11.12-19.03-38.67-6.98c-27.55,12.05-27.67,28.51-27.67,28.51
			s-19.92-5.49-28.86,26.24s8.11,23.97,8.11,23.97l81.82,31.61l80.59-11.21l39.16,2.43l15.56-7.91l2.83-20.04L1826.47,693.5z"/>
		<path class="st2" d="M1774.84,784.47c1.34,3.46,5.53,5.09,5.89,9.18c-1.72,1.78-3.99,1.55-6.13,1.55
			c-38.52,0.04-77.03,0.04-115.55,0c-2.14,0-4.4,0.23-6.13-1.54c1.96-4.76,6.27-7.41,10.26-11.08
			c-19.46-9.45-34.68-22.97-44.79-41.85c1.19-1.59,2.95-1.58,4.65-1.58c37.61-0.04,75.22-0.01,112.83,0.04
			c0.62,0.11,0.07,0.78,0.14,0.17c0.02-0.17-0.49-0.24-0.82-0.24c-37.46-0.01-74.93,0.01-112.39-0.03c-2.42,0-5.04,0.62-7.03-1.52
			c0.51-2.44-1.7-3.97-2.04-6.12c0.57-1.31,1.82-1.63,2.99-1.94c12.79-3.35,23.8-10.16,34.47-17.63c1.38-0.97,2.63-2.21,4.51-2.13
			c8.32,4.46,17.04,7,26.65,6.66c5.87-0.21,11.5-1.22,16.64-3.74c3.36-1.65,5.12-1.07,7.32,1.64c8.14,10.05,20.01,12.92,31.68,7.79
			c6.87-3.02,11.61-8.23,14.22-15.19c0.87-2.33,1.76-2.82,3.97-1.85c7.13,3.14,14.43,3.29,21.66,0.45c3.55-1.4,3.93,1.61,5.06,3.27
			c6.85,9.99,18.66,13.66,29.86,9.38c9.38-3.59,16.53-15.19,14.89-21.31c0.78-1.07,1.01-3.14,3.16-1.72
			c1.69,3.13,0.85,6.46,0.36,9.58c-1.24,7.82-2.74,15.62-5.52,23.1c-0.64,1.56-1.43,3.03-2.69,4.19c-2.26,2.45-2.11,6.34-5.03,8.4
			c-1.58-1.82-3.73-1.26-5.68-1.26c-16.63-0.05-33.26-0.01-49.9-0.02c16.45,0.03,32.91,0,49.36,0.03c2.14,0,4.39-0.37,6.25,1.2
			c-0.87,4.74-4.12,8.21-6.7,11.95c-9.46,13.71-22.49,23.14-37.36,30.25c-1.94,1.78-4.37,1.36-6.65,1.37
			c-15.85,0.05-31.7,0.01-47.55,0.04c-1.67,0-3.37-0.24-5.01,0.53C1734.73,784.69,1754.78,785.11,1774.84,784.47z"/>
		<path class="st3" d="M1652.93,793.67c23.17,0.06,46.33,0.17,69.5,0.17c19.43,0,38.87-0.12,58.3-0.18
			c26.57,0.06,53.15,0.13,79.72,0.19c3.42,0.01,6.84-0.06,10.26,0.02c1.44,0.03,3.66-0.45,3.56,1.81c-0.1,2.15-2.3,1.48-3.74,1.63
			c-0.62,0.06-1.24,0.01-1.86,0.01c-92.49,0-184.98,0.01-277.46-0.07c-2.09,0-5.96,1.27-5.93-1.52c0.03-3.41,3.97-1.77,6.12-1.79
			C1611.9,793.73,1632.42,793.72,1652.93,793.67z"/>
		<path class="st4" d="M1606.18,695.73c3.19-0.29,5.61,0.56,8.09,3.03c9.08,9.03,19.81,11.16,31.69,6.09
			c3.63-1.55,4.74,1.73,6.88,3.1c0.31,1.53-0.86,2.26-1.8,2.95c-10.63,7.77-21.75,14.62-34.79,17.62c-1.61,0.37-3.29,1.09-4.87-0.16
			c-1.2-3.45-4.4-6.48-2.26-10.64c5.68-2.08,11.66-0.11,18.45-1.42c-7.03-1.29-13.26,0.36-19.25-1.19c-4.7-4.69-4-10.91-4.75-16.73
			C1603.94,697,1604.77,696.08,1606.18,695.73z"/>
		<path class="st5" d="M1638.33,650.85c4.18,1.3,8.01,2.12,11.25,4.38c2.21,1.55,2.57-0.63,3.43-1.68
			c5.66-6.85,14.18-9.53,22.15-6.8c1.43,0.49,4.01,0.62,3.2,2.98c-0.8,2.35-2.68,0.45-3.93,0.08c-7.23-2.12-14.51,0.05-18.88,5.62
			c-1.47,1.87-1.61,3.08,0.21,4.99c4.62,4.88,7.25,10.78,7.5,17.59c0.05,1.33,0.52,3.32-1.4,3.38c-1.88,0.06-1.47-1.95-1.64-3.28
			c-1.5-12.22-9.46-21.26-20.63-23.49c-11.38-2.27-22.39,2.81-28.05,12.88c-1.87,3.32-2.71,6.91-3.25,10.62
			c-0.19,1.3,0.31,3.42-1.6,3.27c-2.14-0.17-1.46-2.36-1.4-3.81c0.54-13.06,11.63-24.9,25.25-26.36c3.46-0.37,4.86-1.79,6.38-4.63
			c8.54-15.96,21.86-24.97,40.01-26.62c0.46-0.04,0.95-0.15,1.39-0.08c1.36,0.23,3.63-0.86,3.61,1.58
			c-0.02,1.94-2.06,1.39-3.36,1.46c-7.75,0.41-14.98,2.56-21.6,6.6C1648.64,634.59,1642.45,641.57,1638.33,650.85z"/>
		<path class="st6" d="M1606.18,695.73c-0.58,0.61-1.15,1.22-1.73,1.82c-1.9,0.91-3.21-0.62-4.72-1.2
			c-6.71-2.56-12.18,0.42-13.5,7.46c-2.32,12.38,5.78,22.66,18.37,23.33c2.44,0.13,4.99-0.46,7.28,0.94
			c15.75-2.45,28.62-10.77,40.96-20.15c0.95,0.6,1.9,1.21,2.85,1.81c-12.53,10.05-26.12,18.07-41.97,21.7
			c-16.75,3.38-30.3-5.55-32.31-21.28c-0.3-2.33-0.09-4.61,0.36-6.91c1.07-5.5,3.46-10.22,9.15-11.78
			C1596.61,689.91,1601.92,691.34,1606.18,695.73z"/>
		<path class="st7" d="M1771.76,644.65c-0.14,1.15,0.69,3.32-1.6,3.35c-1.93,0.02-1.41-2.02-1.52-3.33
			c-1.53-17.65-15.18-30.89-32.3-31.32c-17.7-0.44-31.76,11.69-34.45,29.53c-0.26,1.74,0.92,5.18-1.73,4.99
			c-2.96-0.21-1.53-3.58-1.34-5.42c1.97-18.74,18.59-32.98,37.59-32.41C1755.14,610.62,1770.99,626.01,1771.76,644.65z"/>
		<path class="st8" d="M1615.77,737.58c40.43-0.01,80.86-0.02,121.29-0.02c0.78,0,1.56-0.02,2.33,0.03
			c0.98,0.08,1.99,0.39,1.89,1.56c-0.09,1.09-1.07,1.4-2.08,1.41c-1.24,0.01-2.49,0.02-3.73,0.02c-37.32,0-74.64,0-111.96,0.01
			c-1.71,0-3.41,0.1-5.12,0.15C1616.82,740.27,1613.61,741.15,1615.77,737.58z"/>
		<path class="st9" d="M1830.01,695.11c-0.68,0.74-1.07,1.87-2.38,1.75c-1.15-0.86-1.03-2.13-1.16-3.37
			c-1.22-11.49-9.29-19.69-20.67-21.09c-1.38-0.17-3.73,0.53-3.51-1.81c0.2-2.18,2.39-1.35,3.8-1.25
			c10.4,0.7,19.04,7.86,22.56,18.62c0.55,1.69,0.6,3.49,3.47,3.04c8.79-1.41,15.22,5.71,15.8,14.92c0.76,12.11-7,22.37-19.02,25.15
			c-1.96,0.45-3.98,0.63-5.97,0.93c-0.02-1.47,0.57-2.69,1.54-3.76c2-1.59,4.52-1.98,6.81-2.9c7.74-3.09,11.74-8.97,12.23-17.09
			C1844.02,699.83,1839.68,695.78,1830.01,695.11z"/>
		<path class="st10" d="M1774.84,784.47c-1.02,1.51-2.55,1.51-4.14,1.51c-18.94-0.02-37.87,0-56.81-0.06
			c-1.51,0-4.01,0.77-3.88-1.87c0.11-2.17,2.39-1.46,3.8-1.46c20.02-0.04,40.05-0.03,60.07-0.03
			C1774.2,783.2,1774.52,783.84,1774.84,784.47z"/>
		<path class="st11" d="M1769.34,650.97c14.02,0.55,26.7,13.21,27.16,26.86c0.04,1.33,0.54,3.33-1.24,3.53
			c-2.36,0.26-1.74-2.1-1.95-3.44c-2.2-13.96-10.16-21.91-23.96-23.86c-1.28-0.18-3.36,0.42-3.33-1.53
			C1766.06,650.22,1768.26,651.15,1769.34,650.97z"/>
		<path class="st12" d="M1735.86,669.97c-0.85,2.24-2.42,1.21-3.89,0.96c-9.06-1.51-16.88,0.99-23.42,7.4
			c-2.93,2.87-4.92,6.36-6.2,10.24c-0.36,1.1-0.78,2.31-2.07,2c-1.7-0.4-1.17-1.79-0.89-3.04c2.98-13.24,21.27-23.69,34.24-19.52
			C1734.64,668.33,1735.76,668.6,1735.86,669.97z"/>
		<path class="st13" d="M1789.57,686.61c5.95,0.29,11.19,2.23,15.21,6.85c0.78,0.9,2.01,1.93,0.68,3.14s-2.17-0.16-3.07-0.97
			c-7.32-6.57-13.22-7.43-21.59-3.12c-1.19,0.61-2.51,2.02-3.49,0.14c-0.92-1.78,1.01-2.35,2.07-3.04
			C1782.45,687.62,1785.93,686.89,1789.57,686.61z"/>
		<path class="st14" d="M1748.85,693.36c0.01,0.69-0.32,1.18-0.96,1.41c-1.34,0.5-1.97-0.54-2.69-1.3
			c-4.67-4.93-10.33-6.72-16.91-5.07c-1.91,0.48-3.66,1.62-5.45,2.52c-0.88,0.44-1.81,0.83-2.52-0.02
			c-0.71-0.84-0.27-1.68,0.42-2.45c5.85-6.59,24.5-3.87,27.78,4.06C1748.63,692.79,1748.75,693.08,1748.85,693.36z"/>
		<path class="st15" d="M1637.08,675.58c-7.61-0.02-13.8,4.52-16.51,12.03c-0.47,1.3-0.19,3.76-2.45,3.06
			c-2.02-0.63-0.9-2.71-0.55-4.07c2.13-8.16,10.4-14.26,19.2-14.16c1.69,0.02,4.49-0.62,4.45,1.88
			C1641.19,676.88,1638.58,675.36,1637.08,675.58z"/>
		<path class="st16" d="M1725.74,641.5c6.83,0.02,11.77,2.24,15.75,6.58c0.82,0.89,1.91,2.01,0.76,3.22
			c-1.33,1.41-2.11-0.14-2.97-0.9c-7.65-6.79-12.79-7.51-21.93-2.97c-1.14,0.57-2.29,1.52-3.21,0.07c-0.98-1.54,0.58-2.2,1.53-2.82
			C1718.99,642.51,1722.64,641.37,1725.74,641.5z"/>
		<path class="st17" d="M1719.22,729.36c-25.16,0-50.32,0-75.49,0c-1.24,0-2.48-0.01-3.72-0.1c-0.89-0.06-1.44-0.71-1.43-1.52
			c0.01-0.85,0.64-1.4,1.51-1.46c1.08-0.08,2.17-0.09,3.26-0.09c50.64,0,101.27,0,151.91,0c0.93,0,1.87-0.02,2.79,0.04
			c0.93,0.06,2.01,0.18,2.1,1.35c0.11,1.46-1.03,1.71-2.18,1.75c-1.24,0.03-2.48,0.03-3.73,0.03
			C1769.23,729.36,1744.22,729.36,1719.22,729.36z"/>
		<path class="st1" d="M1830.01,695.11c6.33-2.51,12.15,0.67,14.09,7.69c2.57,9.32-2.36,19.38-11.55,23.39
			c-2.56,1.12-5.23,1.96-8.08,2.06c2.5-9.75,5.57-19.39,5.93-29.58C1830.46,697.42,1830.52,696.26,1830.01,695.11z"/>
		<path class="st18" d="M1744.85,748.85c20.03,0,40.06,0,60.09,0c1.09,0,2.17,0,3.26,0.01c0.98,0.01,2.04,0.19,2.15,1.3
			c0.15,1.49-1.07,1.64-2.2,1.68c-0.78,0.03-1.55,0.01-2.33,0.01c-40.84,0-81.67,0-122.51,0c-0.31,0-0.62,0.03-0.93-0.01
			c-1.43-0.17-3.77,0.61-3.74-1.52c0.03-2.1,2.37-1.44,3.8-1.45C1703.24,748.84,1724.05,748.85,1744.85,748.85z"/>
		<path class="st19" d="M1704.21,771.37c15.86,0,31.72,0,47.58,0c1.09,0,2.18,0.02,3.27,0.02c1.04,0,1.96,0.43,2.06,1.47
			c0.12,1.2-0.93,1.45-1.9,1.51c-0.93,0.06-1.87,0.03-2.8,0.03c-32.19,0-64.38,0.01-96.56,0.01c-0.78,0-1.56,0.03-2.33-0.02
			c-1.04-0.08-2.42,0.14-2.47-1.4c-0.05-1.47,1.17-1.6,2.31-1.61c1.4-0.01,2.8-0.01,4.2-0.01
			C1673.11,771.37,1688.66,771.37,1704.21,771.37z"/>
		<path class="st20" d="M1757.86,763.19c-12.59,0-25.19,0.03-37.78-0.04c-1.4-0.01-3.77,0.79-3.87-1.33
			c-0.13-2.68,2.46-1.71,3.93-1.71c25.35-0.06,50.69-0.05,76.04-0.01c1.43,0,3.8-0.7,3.89,1.34c0.12,2.62-2.48,1.7-3.95,1.7
			C1783.36,763.22,1770.61,763.19,1757.86,763.19z"/>
		<path class="st21" d="M1817.94,740.37c-19.41,0.07-38.82,0.14-58.23,0.19c-1.19,0-2.92,0.29-2.96-1.39
			c-0.05-2.11,1.91-1.59,3.18-1.6c18.17-0.04,36.34-0.02,54.51-0.05c2.04,0,3.85,0.07,3.46,2.88
			C1817.9,740.41,1817.94,740.37,1817.94,740.37z"/>
		<path class="st22" d="M1643.24,751.85c-4.33,0-8.67,0.01-13-0.01c-1.11,0-2.41-0.08-2.46-1.48c-0.05-1.49,1.29-1.49,2.38-1.49
			c8.82-0.02,17.64-0.02,26.46,0c1.19,0,2.78-0.19,2.64,1.66c-0.11,1.43-1.49,1.31-2.56,1.32
			C1652.22,751.86,1647.73,751.85,1643.24,751.85z"/>
		<path class="st23" d="M1611.88,728.1c-4.97,0.78-9.86,0.67-14.61-1.17c-9.51-3.68-14.9-14.34-12.26-24.25
			c2.06-7.72,7.96-10.53,15.34-7.25c1.41,0.62,2.74,1.41,4.11,2.13c0.83,5.76,1.37,11.59,3.59,17.06c0.58,1.15,0.59,2.45,0.94,3.66
			C1609.95,721.55,1610.92,724.83,1611.88,728.1z"/>
		<path class="st24" d="M1608.98,718.28c-2.7-0.61-2.79-1.89-0.94-3.66c6.35,0.05,12.71,0.06,19.06,0.19
			c1.39,0.03,3.6-0.53,3.41,1.87c-0.15,1.91-2.1,1.4-3.41,1.42C1621.06,718.19,1615.02,718.22,1608.98,718.28z"/>
	</g>
	<g>
		<path class="st25" d="M1772.19,676.5l-2.23,3.4c0,0,3.68,22.85,10.97,23.88c7.3,1.03,22.29,11.05,22.29,11.05l16.83-7.79
			l16.71-0.88l24.53-9.46l5.36-8.34h3.02c0,0,25.62,4.36,48.35,4.37s50.16-5.97,50.16-5.97l3.91-0.87l20.83,4.7l23.87,14.39
			l32.58-6.68c0,0,14.18-11.11,18.93-20.2c4.76-9.09,3.93-28.8,3.93-28.8s18.5-11.4,21.36-35.04c2.86-23.63-17.02-42.56-17.02-42.56
			l-2.7-10.18c0,0-5.73-31.97-26.4-38.17s-31.65-11.29-37.21-7.63c-5.57,3.66-1.32-1.12-1.32-1.12l-1.42,0.85l-23.5,3.21
			c0,0-2.7-9.94-7.79-11.53c-5.09-1.59-11.77-3.98-11.77-3.98s-5.58-15.62-12.72-16.22s-8.59-5.54-29.74,7.57
			c0,0-14.47,3.41-20.2,7.86s-10.52,15.89-10.52,15.89l-1.25,16.56v-3.02l-1.31-2.27l-1.45-1.89l-11.79-4.62l-11.65,2.62l-5.22,1.47
			l-9.85,2.06l-8.17-1.53l-9.56,5.98l-4.29-11.55l-3.66-5.87l-12.91-8.39l-13.49-15.21l-18.34-9.48l-8.38-9.7l-10.34-2.38
			l-6.64-0.52c0,0-10.48-8.23-21.16-7.43c-10.69,0.8-12.44,6.62-12.44,6.62s-5.72-2.63-11.29-2.64
			c-5.57-0.01-11.91,11.25-12.09,13.23s-9.83,2.18-9.83,2.18s-5.59,2.37-5.51,8.98c0.08,6.62,6.28,14.08,6.28,14.08
			s9.06,1.92,10.81,0.97s4.3-2.16,4.3-2.16l12.52,9.06l17.25-2.21l13.17-10.86l-3.61,17.94l-11.18,22.57l-5.57,14.32
			c0,0-1.59,25.92,14.95,35.78s22.9-4.61,22.9-4.61l-17.97,1.48c0,0-14.38,25.26-4.16,39.41"/>
		<path class="st26" d="M1983.3,776.92c0.01-0.62,0.02-1.23,0.02-1.85c0.82-0.61,2.05-0.42,2.73-1.44
			c-0.88-0.34-1.96,0.53-2.69-0.45c0.19-7.51-0.84-15.07,0.76-22.53c2.55,3.62,0.72,7.66,1.19,11.14c-0.31-3.76,2.56-8.15-1.2-11.93
			c-0.07-0.3-0.07-0.61,0-0.91c3.18-2.33,0.62-5.17,0.68-7.79c0.08-3.23-0.64-6.51,0.71-9.63c3.5-0.74,7.95,2.35,8.01,6.49
			c0.07,5.14,1.27,10.54-1.66,15.4c-0.53,0.88-0.48,1.73-0.17,2.66c2.49,7.54,1.81,15.32,1.78,21.9c-0.09-5,0.73-11.18-0.67-17.28
			c-0.28-1.23-0.38-2.54,0.19-3.66c1.52-2.97,2.03-6.12,2.26-9.42c0.2-2.89,1.66-5.39,4.99-4.79c3.26,0.59,4.05,3.36,3.05,6.18
			c-1.31,3.7,0.02,8.19-3.44,11.25c-0.54,0.48-0.4,1.51-0.18,2.25c1.67,5.56,0.15,10.65-2.26,15.61c-1.39,2.87,0.38,5.06,1.59,7.37
			c0.7,2.24,2.26,3.12,4.55,3.13c11.75,0.02,23.5-0.03,35.25,0.03c3.47,0.02,3.66-1.51,2.93-4.4c-1.89-7.49-4.78-14.7-6.08-22.34
			c0.67-2.98,0.01-5.84-0.81-8.69c-3.5-12.06-6.99-24.12-10.42-36.2c-0.69-2.41-2.13-4.03-4.05-5.45
			c-7.22-5.36-14.62-10.48-21.67-16.07c-1.53-1.21-4.32-2.06-3.03-4.94c0.9-2,5.73-2.44,7.98-0.55c3.47,2.9,7.24,5.31,11.18,7.48
			c5.21,1.33,10.09,4.28,15.8,3.1c4.36,0.75,8.62,0.25,12.85-0.95c5.86-1.66,6.37-1.08,9.2,4.44c3.07,6,4.15,12.17,3.82,18.82
			c-0.26,5.24-0.31,10.53,0.56,15.75c-1.75,16.7,2.71,32.52,6.77,48.42c0.73,2.84,2.43,2.99,4.78,2.98
			c14.13-0.06,28.25-0.04,42.38-0.01c1.51,0,3.11-0.45,4.54,0.47c-1.03,1.79-2.81,1.76-4.5,1.75c-37.51-0.07-75.03,0.27-112.53-0.15
			c-3.3-1.1-6.73-0.94-10.13-0.89c-3.4,0.04-4.84-1.12-3.76-4.75C1985.6,783.19,1986.25,779.76,1983.3,776.92z"/>
		<path class="st26" d="M1698.79,504.33c0.9-0.58,1.8-1.17,2.7-1.75c2.11,0.05,2.66,1.94,3.68,3.2c9.15,11.29,22.42,11.18,31-0.56
			c2.34-3.21,4.91-4.52,8.83-4.89c10.04-0.94,20.14-1.19,30.15-2.5c0.62-0.08,1.24-0.12,1.86-0.1c2.53,0.06,5.42-0.01,5.92,3.2
			c0.55,3.54-2.58,3.76-4.94,4.24c-5.78,1.19-11.64,1.97-17.46,2.99c-5.63,0.98-11.29,1.79-16.87,3.05
			c6.01-0.17,11.77-2.02,17.73-2.57c1.08-0.1,2.14-0.4,3.24-0.39c1.09,0.01,2.39-0.01,2.88,1.09c0.63,1.41-0.57,2.32-1.54,3.05
			c-6.1,4.54-13.04,6.35-21.04,6.26c2.23,0.94,4.63,0.01,6.09,1.85c0.3,1.03,0.52,2.1,0.92,3.09c1.07,2.63,0.95,3.81-2.54,4.54
			c-6.72,1.4-10.54,6.25-11.43,12.98c-0.31,2.36-1.04,3.4-3.27,4.19c-7.26,2.59-9.98,7.21-9.21,14.97
			c-6.59,0.46-12.53,3.37-18.79,5.04c-2.28,0.61-3.4,2.57-4.42,4.53c-1.02,1.95-2.24,3.74-4.3,4.73c-1.14,0.55-2.43,1.06-3.51,0.15
			c-1.35-1.14-0.19-2.31,0.43-3.26c2.7-4.2,4.73-8.7,6.36-13.41c-2.28,3.88-3.75,8.21-6.49,11.82c-1.72,2.25-2.92,5.58-6.83,3.88
			c-2.92-1.27-4.63-5.64-3.82-9.2c0.7-3.09,2.89-5.46,4.02-8.32c-0.33-0.27-0.5-0.14-0.78,0.15c-1.29,1.34-1.75,4.3-4.34,3.32
			c-2.33-0.89-2.25-3.47-2.32-5.66c-0.1-2.87,0.93-5.46,1.94-8.08C1687.98,532.06,1694.17,518.5,1698.79,504.33z"/>
		<path class="st27" d="M1845.75,767.19c-3.26-1.32-2.09-3.72-1.29-5.85c4.31-11.66,8.75-23.26,13.24-34.85
			c3.92-10.14,3.72-21.06,6.35-32.26c-7.97,7.51-16.5,12.37-26.94,13.17c-2.13,0.16-2.72,1.67-1.89,3.31
			c5,9.89,1.47,19.46-0.97,29.05c-2.65,10.39-4.86,20.88-7.61,31.24c-0.64,2.4-0.85,5.5-4.59,5.44c-2.86-1.91-1.38-4.49-0.84-6.72
			c3.58-14.85,6.82-29.79,10.59-42.75c-3.87,10.5-7.69,22.93-13.71,34.52c-0.95,0.46-1.89,0.46-2.81-0.06
			c-1.99-2.6-0.49-5.07,0.43-7.45c4.43-11.43,8.95-22.83,13.17-34.34c2.43-6.63,1.49-9.17-4.22-13.19c-0.79-0.56-1.4-1.23-1.17-2.32
			c1.05-1.79,2.7-1.07,4.18-0.97c23.98,1.67,42.47-14.12,44.6-38.12c0.12-1.35-0.2-3.41,1.57-3.36c2.22,0.06,1.57,2.3,1.52,3.71
			c-0.27,7.45-2.79,14.24-6.75,21.1c32.62,6.18,64.71,7.03,96.64-1.97c0.18-1.82-1.42-1.94-2.18-2.76c-0.84-0.89-2.17-1.73-1-3.07
			c1.22-1.4,2.22-0.05,3.14,0.66c5.78,4.43,12.17,7.37,19.46,8.26c12.86,1.57,23.89-2.22,33.22-11.12c0.34-0.32,0.62-0.71,0.99-0.98
			c1-0.74,1.76-2.86,3.3-1.4c1.68,1.59-0.23,2.77-1.2,3.81c-3.31,3.55-7.18,6.39-11.51,8.59c-1.23,0.62-2.46,1.24-4.08,2.05
			c2.34,2.24,4.58,4.01,7.11,5.47c1.31,0.76,2.88,1.45,2.37,3.49c-4.5,0.69-7.23-2.56-9.82-5.12c-3.18-3.14-6.07-2.7-9.86-1
			c8.83,6.57,17.35,12.98,25.96,19.26c2.34,1.71,3.88,3.63,4.67,6.54c3.54,12.98,7.33,25.89,11.02,38.82
			c0.49,1.73,1.56,3.53-0.31,5.13c-3.26,0.07-3.47-2.65-4.09-4.74c-3.33-11.31-6.69-22.62-9.69-34.02
			c-1.27-4.81-3.69-8.44-7.96-10.88c-6.16-4.47-12.29-9-18.27-13.69c-4.11-3.22-8.27-5.96-13.74-6.1c-1.83-0.05-3.68-0.54-5.53-1.29
			c0.26,0.99,0.82,1.71,1.4,2.24c10.91,10.11,8.9,23.26,8.54,36.02c-0.03,0.96-0.42,1.8-1.04,2.54c-0.29,3.59-0.68,7.18-0.15,10.78
			c-1.09,1.52,0.9,4.22-1.95,5.07c-2.27-1.06-1.63-3.12-1.59-4.89c0.23-10.55,0.45-21.09,0.86-31.63c0.1-2.66-0.7-4.67-2.18-6.82
			c-3.68-5.34-8.13-10.17-10.91-16.08c-0.61-1.29-1.1-1.17-2-0.89c-30.97,9.72-62.4,8.77-94,4.15c-5.42-0.12-4.72,4.13-5.32,7.46
			c-1.15,18.89-7.78,36.26-14.78,53.53"/>
		<path class="st26" d="M1823.48,704.11c0.22,0.77,0.6,1.42,1.4,1.71c5.69,2.08,7.85,6.43,5.7,12.23
			c-4.67,12.59-9.51,25.11-14.25,37.68c-0.64,1.7-1.76,3.35-0.88,5.31c1.12,3.45-1.04,6.18-2.08,9.13c-0.55,1.58-1.31,3.1-1.91,4.67
			c-0.9,1.78-1.51,3.67-1.99,5.61c-0.47,1.25-1.11,2.42-1.5,3.7c-1.61,2.49-1.18,6.11-4.31,7.75c-6.49,0.47-12.98,0.93-19.45-0.27
			c-1.79-1.36-0.23-2.22,0.47-3.22c1.46-1.12,1.83-2.81,2.3-4.44c5.09-17.53,9.86-35.16,14.86-52.71c0.84-2.96,0.86-5.74-0.22-8.61
			c-1.09-2.9-1.84-5.91-2.58-8.91c-0.52-2.14-0.36-4.05,2.18-4.84c5.4-0.17,10.28-1.67,14.25-5.52c1.16-0.74,2.36-0.83,3.61-0.24
			C1820.55,703.46,1822.01,703.79,1823.48,704.11z"/>
		<path class="st28" d="M2010.42,514.56c9.43-1.19,18.8-0.12,27.7,3.27c18.01,6.87,31.51,18.39,36.88,37.72
			c0.25,0.89,0.67,1.86,0.54,2.72c-1.21,7.6,2.89,12.48,7.45,18.07c13.39,16.41,16.08,35.15,7.49,54.57
			c-8.65,19.56-24.36,29.96-45.71,31.74c-0.77,0.06-1.55,0.07-2.33,0.03c-0.99-0.05-1.94-0.37-1.96-1.51
			c-0.02-1.1,0.86-1.53,1.86-1.63c2.78-0.27,5.6-0.3,8.33-0.81c25.35-4.78,42.46-26.48,41.13-52.06
			c-1.28-24.8-21.24-44.88-46.57-46.95c-1.67-0.14-4.77,0.86-4.61-1.56c0.18-2.69,3.28-1.4,5.09-1.37
			c4.85,0.07,9.52,1.29,14.09,2.86c4.39,1.51,8.42,3.76,12.82,6.56c0.73-7.96-1.39-14.59-5-20.82
			c-10.91-18.84-35.24-30.54-57.22-27.74c-2.26,0.29-3.17,1.47-4.05,3.21c-3.43,6.77-6.91,13.53-10.43,20.26
			c-0.59,1.13-0.86,3.12-2.76,2.5c-2.07-0.68-0.44-2.36-0.53-3.58c4.94-9.43,7.67-14.92,12.74-24.28"/>
		<path class="st29" d="M1790.11,760c2.88-3.35,2.89-7.71,4.01-11.66c2.22-7.83,4.72-15.61,6.08-23.66
			c-0.29-1.04-0.62-2.06-0.87-3.11c-1.57-6.57-3.49-12.23-11.78-13.74c-5.9-1.07-9.66-6.42-13.28-11.14
			c-3.75-3.33-4.66-7.83-4.91-12.5c-0.11-1.95,0.04-4.15,2.91-4.29c1.42,0.92,1.11,2.4,1.29,3.76
			c1.73,13.26,10.22,21.79,23.52,23.69c1.48,0.21,3.19-0.09,4.15,1.55c-1.52,1.57-1.97,3.23-0.93,5.34
			c4.23,8.57,3.44,16.97,0.5,25.97c-4.82,14.74-8.48,29.85-12.71,44.78c-0.47,1.65-0.23,3.92-2.75,4.35
			c-2.71-1.23-1.75-3.04-1.16-4.74"/>
		<path class="st29" d="M1787.32,776.28c0.84-4.22,2.24-8.33,3.56-13.05"/>
		<path class="st30" d="M1751,520.48c-2.17-0.08-4.35-0.09-6.51-0.25c-1.35-0.1-3.25-0.1-3.1-1.97c0.16-2.03,2.03-1.35,3.35-1.27
			c9.3,0.54,15.66-1.51,23.31-8.07c-4.42,0.67-7.76,1.17-11.09,1.69c-3.37,0.53-6.72,1.29-10.12,1.59
			c-2.33,0.21-6.09,2.64-6.68-0.65c-0.44-2.47,3.92-1.89,6.18-2.3c11-1.98,22.02-3.77,33.04-5.62c1.33-0.22,3.04-0.01,2.85-2.14
			c-0.2-2.13-1.47-2.72-3.55-2.55c-12.38,1.03-24.76,1.97-37.15,2.9c-1.37,0.1-2.14,0.63-2.93,1.8
			c-11.05,16.36-26.93,15.88-37.13-1.07c-0.31-2.14-0.65-4.27-0.92-6.41c-0.13-1.01,0.2-1.98,1.28-2.14
			c1.08-0.16,1.61,0.6,1.72,1.69c0.11,1.08,0.29,2.15,0.52,3.21c1.8,8.15,8.84,13.5,17.31,13.17c7.77-0.3,14.28-6.2,15.63-14.07
			c0.24-1.41-0.43-3.67,1.6-3.87c2.38-0.24,1.55,2.02,1.83,3.42c0.45,2.23,2.27,1.09,3.4,1.01c11.6-0.82,23.2-1.65,34.78-2.74
			c3.55-0.34,5.73,0.64,6.59,4.12c0.88,3.58-0.25,5.95-3.97,7.1c-5.63,1.74-10.94,4.07-15.6,7.88
			C1761.45,518.37,1756.11,519.23,1751,520.48z"/>
		<path class="st31" d="M1698.79,504.33c2.12,1.81,0.23,3.51-0.35,5.01c-5.07,13.01-10.31,25.96-15.48,38.94
			c-1.47,3.7-2.02,7.35,0.46,11.05c1.89-1.18,2.38-3.08,3.48-4.51c0.73-0.96,1.37-2.47,2.85-1.41c1.37,0.99,0.4,2.2-0.26,3.26
			c-1.07,1.71-2.09,3.46-3.2,5.14c-1.08,1.63-1.51,3.46-1.31,5.32c0.3,2.74,1.4,5.49,4.1,6.3c2.65,0.8,3.36-2.22,4.51-3.85
			c2.71-3.82,4.47-8.15,6.2-12.48c0.44-1.09,0.9-2.68,2.55-1.93c1.58,0.72,0.76,2.05,0.32,3.22c-2.11,5.53-4.62,10.84-8.43,15.99
			c4.13-0.13,6.02-2.6,7.24-5.62c1.16-2.86,3.08-4.34,6.05-5.11c4.8-1.24,9.52-2.83,14.25-4.35c1.51-0.49,2.95-1.29,3.7,0.93
			c-0.26,1.85-1.89,1.77-3.14,2.18c-3.68,1.19-7.33,2.53-11.08,3.46c-3.64,0.9-6.2,2.46-7.96,6.12c-2.46,5.13-7.72,7.03-12.93,5.59
			c-5.33-1.47-8.49-5.64-8.59-11.29c-0.02-1.36,0.52-2.75-0.41-4.05c-3.99-5.58-3.06-11.21-0.59-17.16
			c4.99-12,9.64-24.15,14.43-36.24C1695.95,507,1696.52,505,1698.79,504.33z"/>
		<path class="st32" d="M1997.03,790.35c12.08,0.11,24.15,0.3,36.23,0.32c25.73,0.05,51.46,0.02,77.19,0.01c1.7,0,3.4-0.1,5.1-0.16
			c1.91,1.31,1.81,2.43-0.42,3.1c-0.86,0.26-1.85,0.08-2.78,0.08c-53.9,0-107.81,0.02-161.71-0.06c-1.64,0-5.67,1.52-3.35-3.14
			C1963.87,790.36,1980.45,790.59,1997.03,790.35z"/>
		<path class="st32" d="M1800.21,790.35c12.08,0.11,24.15,0.3,36.23,0.32c25.73,0.05,51.46,0.02,77.19,0.01c1.7,0,3.4-0.1,5.1-0.16
			c1.91,1.31,1.81,2.43-0.42,3.1c-0.86,0.26-1.85,0.08-2.78,0.08c-53.9,0-107.81,0.02-161.71-0.06c-1.64,0-5.67,1.52-3.35-3.14
			C1767.05,790.36,1783.63,790.59,1800.21,790.35z"/>
		<path class="st33" d="M1931.96,484.89c16.33-4.78,27.75,0.32,34.17,15.56c0.86,2.03,2.19,2.25,3.76,2.76
			c8.32,2.67,13.68,8.24,15.82,16.69c0.58,2.28,1.51,4.84-0.59,7.01c-2.28,0.21-1.78-1.48-1.93-2.77
			c-1.24-10.63-7.61-17.17-18.22-18.61c-2.04-0.28-4.2-0.05-2.2-3.12c0.93-1.42-0.21-2.66-0.79-3.87
			c-6.85-14.21-25.36-16.66-36.44-4.53c4.01,1.34,7.93,2.61,11.16,5.29c5.8,4.82,9.16,10.86,9.45,18.47
			c0.04,1.02,0.34,2.42-1.18,2.62c-1.85,0.23-1.79-1.26-1.85-2.5c-0.73-16-19.05-26.63-33.66-17.53c-1.06,0.66-2.34,1.66-3.24,0.27
			c-1.14-1.74,0.67-2.39,1.78-3.1c0.91-0.58,1.89-1.36,2.89-1.44C1919.57,495.45,1925.34,489.37,1931.96,484.89z"/>
		<path class="st34" d="M1784.63,783.62c0.67,1.98-1.61,4.12,0.71,5.73c-0.52,0.35-1.04,0.69-1.56,1.04"/>
		<path class="st19" d="M2057.07,738.67c-1.79-0.81-1.65-2.41-1.64-3.98c0.02-3.57-0.37-7.18,0.06-10.7
			c1-8.14-1.96-15.18-5.28-22.24c-0.91-1.93-1.69-2.49-3.82-1.6c-3.89,1.63-8.04,2.33-12.27,2.42c-1.55,0.03-3.24,0.29-3.49-1.98
			c1.1-1.57,2.82-0.85,4.27-1.17c4.66-1.02,9.85-0.3,13.42-4.83c1-1.27,3.51-0.26,5.34-1.58c9.28-6.74,15.03-15.51,16.57-26.94
			c0.17-1.23,0.29-2.47,0.44-3.7c0.14-1.2,0-2.89,1.74-2.66c1.53,0.2,1.32,1.82,1.34,3.07c0.04,3.14-0.59,6.18-1.4,9.18
			c-2.76,10.17-8.58,18.22-17.43,23.87c-2.61,1.67-3.04,3.13-1.49,5.5c7.08,10.79,5.06,22.95,5.26,34.78
			C2058.71,737.38,2058.09,738.11,2057.07,738.67z"/>
		<path class="st19" d="M1833.68,529.25c6.81-2.84,13.86-3.06,21.04-1.97c1.64,0.25,3.23,0.8,4.87-0.47
			c9.06-6.94,18.32-6.33,27.65-0.35c1.08-2.47,2.12-4.86,3.17-7.25c3.24-2.73,6.47-5.41,11.2-4.15c2.2,0.58,3.94,1.79,5.24,3.62
			c0.45,0.63,0.62,1.46,0.03,2.14c-0.62,0.72-1.51,0.68-2.05,0.08c-2.78-3.07-5.92-3.91-9.49-1.52c-3.58,2.39-4.6,6.05-4.69,10.1
			c-0.03,1.3,1.12,2.97-0.63,3.75c-2.14,0.95-2.43-1.37-3.32-2.42c-5.82-6.86-16.73-7.94-24.42-1.94c-2.35,1.83-4.3,2.3-7.11,1.72
			c-5.36-1.12-10.81-1.26-16.17,0.15c-4.65,1.22-8.44,3.79-11.33,7.68c-0.73,0.98-1.36,3.02-3.11,1.59
			c-1.53-1.25-0.09-2.53,0.67-3.61C1827.41,533.28,1830.35,531.03,1833.68,529.25z"/>
		<path class="st16" d="M1833.07,533.5c4.01,3.55,6.65,7.87,7.53,13.2c-0.34,1.22,0.18,3.19-1.95,3.01
			c-1.67-0.14-1.3-1.85-1.53-2.99c-1.59-7.9-5.32-11.56-13.51-13.15c-1.2-0.23-2.82-0.02-2.59-1.8c0.22-1.66,1.86-1.49,3.01-1.23
			c4.37,0.95,3.64-1.39,2.83-4.06c-2.86-9.51-10.94-16.31-20.8-17.44c-1.36-0.15-2.83,0.15-4.02-0.84
			c-0.22-3.53,2.38-2.64,4.15-2.42c10.68,1.32,18.05,7.28,22.9,16.66c0.64,2.82,1.39,5.61,1.86,8.46
			C1831.2,532.31,1831.72,533.15,1833.07,533.5z"/>
		<path class="st35" d="M1994.72,664.56c-1.23-0.42-3.81,0.91-3.81-1.69c0-2.2,2.35-1.42,3.75-1.48
			c20.3-0.99,36.46-16.44,38.12-36.47c0.12-1.41-0.54-3.68,1.72-3.6c2.31,0.08,1.48,2.28,1.39,3.69
			C2034.48,646.46,2016.32,663.97,1994.72,664.56z"/>
		<path class="st36" d="M1826.95,673.71c-12.12-0.47-23.81-6.48-32.28-18.47c-0.78-1.11-2.66-2.52-0.65-3.87
			c1.71-1.16,2.31,0.85,3.09,1.87c13.33,17.48,32.31,22.06,52,12.49c1.23-0.6,2.72-1.96,3.64-0.35c1.14,1.98-1.1,2.54-2.33,3.22
			C1843.91,672.22,1836.88,673.86,1826.95,673.71z"/>
		<path class="st37" d="M1764.67,600.14c0.1-17.18,10.49-32.96,25.87-39.16c1.26-0.51,3.05-2.11,4.05-0.14
			c1.11,2.19-1.33,2.32-2.57,2.92c-19.53,9.33-27.83,27.28-22.41,48.49c0.31,1.23,1.59,2.87-0.61,3.4c-1.97,0.48-1.98-1.45-2.41-2.7
			C1765.15,608.8,1764.62,604.51,1764.67,600.14z"/>
		<path class="st38" d="M1772.39,677.71c-5-3.71-8.92-8.35-11.96-13.76c0.1-1.48-2.36-3.41,0.29-4.33c2.09-0.72,2.2,1.71,2.83,2.96
			c6.89,13.66,21.74,20.31,36.42,16.26c0.15-0.04,0.3-0.08,0.45-0.12c1.53-0.42,3.7-1.95,4.28,0.46c0.51,2.15-2.16,2.17-3.66,2.61
			c-7.39,2.15-14.73,1.93-21.91-0.91C1776.81,679.96,1774.62,678.77,1772.39,677.71z"/>
		<path class="st11" d="M1759.97,643.63c-12.95-0.43-24.8-12.01-25.42-24.74c-0.06-1.33-0.47-3.14,1.59-3.18
			c1.68-0.03,1.45,1.63,1.63,2.82c1.93,12.81,10.04,20.7,22.57,22.07c1.34,0.15,3.73-0.7,3.41,1.77
			C1763.49,644.52,1761.26,643.41,1759.97,643.63z"/>
		<path class="st39" d="M1755.66,469.82c9.41-0.74,17.54,1.65,23.35,9.59c2.6,3.56,4.45,7.44,4.43,11.99
			c-2.73,0.35-3.11-1.46-3.74-3.57c-3.33-11.16-14.7-17.29-25.9-14.31c-1.13,0.3-2.86,2.45-3.81-0.13c-1.02-2.78,1.78-2.19,3-2.88
			C1753.76,470.07,1754.76,470.03,1755.66,469.82z"/>
		<path class="st40" d="M1693.13,482.46c-0.53,0.77-1.37,0.51-2.1,0.65c-5.51,1.08-9.09,4.97-9.3,10.05
			c-0.22,5.36,3.18,9.69,8.66,11.14c1.31,0.34,3.78-0.46,3.37,1.97c-0.36,2.09-2.56,1.24-3.94,1.05
			c-6.98-0.98-12.11-8.09-11.14-15.29c1.03-7.61,6.95-12.43,14.32-11.68C1693.58,481.02,1693.49,481.73,1693.13,482.46z"/>
		<path class="st41" d="M1744.32,593.01c-8.1-0.21-16.6-8.84-16.54-16.77c0.01-1.13,0.03-2.42,1.3-2.65
			c1.72-0.31,1.9,1.16,2.05,2.42c0.97,8,5.51,12.48,13.42,13.66c1.18,0.18,2.79,0.03,2.64,1.83
			C1747.06,593.21,1745.57,593.03,1744.32,593.01z"/>
		<path class="st15" d="M1819.08,703.14c-1.14,1.08-2.39,0.53-3.61,0.24c-4.63-2.45-9.41-4.65-13.08-8.58
			c-1.81-1.94-3.28-4.06-4.3-6.53c-0.36-0.87-0.16-1.48,0.46-2.03c0.71-0.64,1.6-0.57,1.96,0.21c3.63,7.69,10.59,11.29,17.79,14.64
			C1819.12,701.46,1819.01,702.38,1819.08,703.14z"/>
		<path class="st26" d="M1997.03,790.35c-16.58,0.47-33.17,0.47-49.75,0.15c10.14-1.08,20.3-0.4,30.45-0.36
			c4.16,0.01,5.96-0.98,5.46-5.36c-0.3-2.58,0.05-5.24,0.11-7.86c4.02,0.09,3.83,3.09,3.57,5.66c-0.25,2.4-1.19,4.72-1.85,7.17
			C1989.04,789.95,1993.04,790.15,1997.03,790.35z"/>
		<path class="st42" d="M1732.06,461.11c1.64-0.1,3.03-0.19,3.11,1.56c0.07,1.45-1.14,1.59-2.28,1.69
			c-7.07,0.61-11.72,4.37-14.04,11.01c-0.54,1.55-1.57,2.6-3.03,2.01c-1.21-0.49-0.4-1.93-0.14-2.91
			C1717.64,467.29,1725.2,461.28,1732.06,461.11z"/>
		<path class="st43" d="M1693.13,482.46c-0.04-0.7-0.09-1.4-0.13-2.11c2.45-0.22,1.52-2.32,1.89-3.59
			c1.9-6.47,7.91-11.52,14.06-11.61c1.2-0.02,2.73-0.36,2.81,1.45c0.06,1.39-1.17,1.48-2.31,1.65c-6.77,0.98-11.07,4.78-11.71,11.66
			C1697.38,483.75,1694.56,481.48,1693.13,482.46z"/>
		<path class="st26" d="M1984.11,749.87c2.66-0.41,3.51,1.64,3.38,3.37c-0.34,4.53-1.22,9.03-1.88,13.54
			c-0.5-0.01-0.99-0.02-1.49-0.03c0-5.37,0-10.73,0-16.1C1984.06,750.39,1984.05,750.13,1984.11,749.87z"/>
		<path class="st26" d="M1983.36,773.19c0.15-0.02,0.31-0.06,0.45-0.05c1.54,0.12,2.5-2.83,4.37-0.85c0.46,0.48,0.48,1.2-0.1,1.6
			c-1.42,0.97-2.69,2.78-4.76,1.19C1983.34,774.45,1983.35,773.82,1983.36,773.19z"/>
		<path class="st26" d="M1984.01,747.06c2.01-1.16,1.03-3.48,1.95-5.07c0.03,0.46-0.12,1.12,0.13,1.36c3.49,3.36,0.7,4.45-1.97,5.6
			C1984.08,748.33,1984.04,747.69,1984.01,747.06z"/>
		<path class="st26" d="M2014.96,710.34c3.82,5.81,0.79,11.28-1.01,16.68c-6.23,18.7-12.41,37.41-15.18,57.03
			c-0.06,0.44-0.37,0.85-0.56,1.27c-3.46-2.69-3.11-5.46-1.33-9.3c1.64-3.54,3.4-7.48,1.73-11.98c-0.69-1.86-2.62-5.58,2.14-6.3
			c0.57-0.09,0.88-0.95,0.53-1.56c-1.67-2.91,0.49-5.34,1.11-7.88c0.63-2.57-0.16-4.23-2.32-4.67c-2.44-0.5-3.77,1.46-3.67,3.69
			c0.16,3.81-0.47,7.26-2.49,10.58c-0.7,1.16-0.73,3.19-0.23,4.52c2.04,5.45,0.33,11,0.74,16.48c0.13,1.78-0.2,3.47-2.65,3.42
			c1.2-7.46,1.33-14.87,0.05-22.3c-0.28-1.6-0.76-2.95-1.95-4.07c-0.7-0.66-1.36-2.13-0.67-2.41c6.43-2.62,1.63-8.15,3.14-12.14
			c1.88-4.96-2.17-7.96-6.23-10.19c0.07-7.14,0.04-14.28,0.28-21.41c0.09-2.79-0.52-5.05-2.23-7.29
			c-3.37-4.41-6.48-9.01-10.15-14.17c5.19,1.46,9.64,2.78,14.3,2.75c1.2-0.01,2.04,0.68,2.89,1.33
			C1999.13,698.38,2007.04,704.37,2014.96,710.34z"/>
		<path class="st44" d="M1714.55,521.36c2.66,0.29,4.4,1.65,4.37,4.43c-0.03,2.49-1.5,4.11-4.04,4.24
			c-2.75,0.14-4.55-1.39-4.65-4.09C1710.13,523.25,1711.82,521.7,1714.55,521.36z"/>
		<path class="st26" d="M1836.78,789.06c-0.42,1.55-1.65,1.59-2.91,1.57c-5.8-0.09-11.6-0.18-17.39-0.28
			c1.11-5.03,1.78-10.22,5.38-14.31c2.13,0.31,2.54-1.09,2.94-2.74c3.96-16.45,8.02-32.87,11.92-49.33
			c1.11-4.68-1.67-8.73-2.89-12.98c-0.92-3.19-1.12-4.58,2.96-4.83c11.44-0.71,20.53-6.4,28.98-15.57
			c-2.95,14.9-3.2,29.01-9.05,42.13c-4.23,9.48-7.53,19.38-11.18,29.11c-0.56,1.49-1.81,3.06-0.3,4.73
			C1842.66,774.15,1840.04,781.72,1836.78,789.06z"/>
	</g>
</g>
<g>
	<path class="st45" d="M173.23,912.51c0,0-12.49,32.2-9.82,48.01c2.68,15.81,11.28,49.86,9.82,63.72
		c-1.46,13.87-0.27,58.02-0.27,58.02l-6.05,32.27l28,17.63l17.07-18.9c0,0,10.53-42.99,11.95-56.86
		c1.42-13.87,0.77-21.43,1.41-23.96s4.48-44.13,11.39-38.45c6.9,5.67,0.7,42.87,8.85,59.89s-5.8,60.03-5.8,60.03l30.64,12.47
		l8.93-14.62c0,0,6.16-47.79,6.03-52.2c-0.13-4.41,0.95-6.93,1.67-20.17c0.72-13.24,2.16-91.41-7.7-104.02"/>
	<path class="st45" d="M285.67,888.61c-2.8,4.76-2.59,10.36-4.32,15.41c-3.01,8.78-0.4,17.49,0.35,26.22
		c0.57,6.64,2.2,13.16,2.04,19.87c-1.89,1.31-3.34,0.18-4.08-1.26c-3.58-6.98-10.65-8.96-16.9-12.13c-0.73-0.37-1.52-0.62-2.28-0.91
		c-7.32-2.85-13.59-6.27-14.79-15.44c-0.62-4.73-3.21-9.27-7.31-12.44c-4.42-4.68-7.67-10.25-11.26-15.51
		c-6.36-9.32-13.13-18.35-19.34-27.77c-1.38-2.09-2.76-4.18-0.93-6.72c0.63-0.81,1.32-1.57,1.88-2.43
		c9.25-11.78,13-25.72,15.89-40.03c2.84-14.07,6.54-27.96,8.88-42.13c0.8-4.81,1.83-9.61,0.95-14.63
		c-0.83-4.73-2.78-8.81-5.38-12.72c-0.88-1.33-2.22-2.5-1.95-4.36c3.2-0.06,6.41-0.12,9.61-0.17c5.84,2.27,7.49,7.56,8.16,12.81
		c1.6,12.59,0.4,25.02-3.69,37.11c-2.7,2.74-2.62,6.5-3.54,9.88c-0.69,2.5-1.1,5.07-1.41,7.67c1.23-3.62,2.17-7.31,2.99-11.05
		c0.4-1.82,0.36-3.87,2.05-5.21c1.21-0.5,2.42-0.23,3.61,0.04c12.97,3.03,25.96,5.97,38.99,8.72c1.06,0.22,2.12,0.49,3.04,1.1
		c1.71,2,0.48,4.18,0.26,6.26c-0.28,2.53-0.83,5.04-1,7.59c0.79-4.89,2.84-9.62,1.8-14.76c1.01-6.47,2.39-12.87,3.37-19.35
		c0.64-4.27-1.21-8.41,0.11-12.58c2.64-0.86,5.16-0.36,7.65,0.64c3.7,5.33,2.7,11.4,1.92,17.07c-1.72,12.43-3.88,24.79-4.91,37.32
		c-0.58,7.05-1.11,14.12-2.14,21.12c0.04,2.59-0.71,5.01-1.69,7.37c-0.71,1.7-0.87,3.34,0.17,4.96c-0.95,8.42-3.25,16.55-5.27,24.73
		c-0.68,1.47-0.75,3.07-0.98,4.64C286.1,887.94,285.92,888.29,285.67,888.61z"/>
	<path class="st46" d="M227.12,741.63c7.84,8.48,10.03,18.45,7.96,29.63c-3.81,20.52-8.38,40.88-13.38,61.14
		c-2.18,8.82-6.57,16.75-12.41,23.8c-0.41,0.07-0.94,0.15-1.19-0.13c-3.72-4.19-8.35-2.9-12.94-2.32c-7.95,1.01-15.57,2.9-22.2,7.7
		c5.14-2.84,10.54-4.96,16.29-6.2c3.62-0.78,7.31-1.05,10.97-1.47c1.43-0.16,3.44-0.34,3.88,1.43c0.52,2.09-1.67,2.15-2.96,2.6
		c-8.89,3.07-17.08,7.34-24.21,13.54c-0.89,0.77-1.74,1.85-3.2,1.26c-0.35-0.99-0.7-1.99-1.05-2.98c-0.13-0.24-0.22-0.61-0.41-0.67
		c-4.38-1.35-6.41-4.51-6.93-8.87c-1.24-0.86-2.48-1.73-3.71-2.59c0.69-2.45,2.93-3.14,4.86-4.04c7.84-3.69,15.83-6.89,24.76-6.4
		c0.53,0.03,1.09,0,1.76-0.65c-4.4-1.06-8.44,0.1-12.39,1.1c-3.97,1-7.85,2.37-11.59,4.12c-1.79,0.84-3.85,2.3-5.39-0.28
		c-1.61-2.69-0.33-4.69,1.98-6.23c5.37-3.56,11.4-5.34,17.7-6.06c6.9-0.79,13.66,0.23,20.14,2.77c2.07,0.81,4.55,1.65,1.85,4.53
		c-0.67,0.72-0.61,1.51,0.35,2c0.69,0.36,1.17,0.11,1.71-0.52c2.33-2.68,2.35-3.58-0.71-5.89c-2.07-1.57-1.46-3.28-0.74-5.11
		c3.13-8.03,6.41-16,9.58-24.01c0.25-0.63,0.52-1.26,0.64-2.83c-4.02,8.85-6.93,17.26-10.42,25.43c-1.9,4.46-2.72,5.13-7.4,4.2
		c-10.36-2.05-20.4-1.59-30,3.26c-1.06,0.53-2.21,1.22-3.46,0.33c5.35-13.49,5.74-28.02,8.67-42.01c1.96-9.35,3.85-18.72,5.85-28.06
		c2.04-9.54,7.54-16,15.72-20.87C205.04,746.37,215.61,742.68,227.12,741.63z"/>
	<path class="st47" d="M341.46,727.28c-3.13,4.9-5.1,10.51-9.16,14.84c-0.74,0.79-1.27,1.84-2.12,2.47
		c-3.99,2.92-6.12,6.65-5.48,11.71c-2.4-0.74-1.13-3.06-1.94-4.48c-0.46,8.29-0.46,8.33-8.98,7.24c-2.34-0.3-4.3,0.3-6.13,1.67
		c-2.73,2.04-5.6,3.93-8.24,6.08c-2.98,2.43-5.55,2.07-8.5,0.06c-6.09-4.13-11.27-8.94-13.18-16.47c0.15,3.66,1.57,6.66,3.99,9.24
		c1.11,1.18,2.44,2.25,2.53,4.08c-1.72,3.7-2.2,7.48-1.48,11.56c0.8,4.59-2.2,7.14-6.92,6.25c-4.98-0.94-8.73-4.09-11.99-7.54
		c-7.45-7.92-13.68-16.73-17.47-27.06c-0.56-1.53-1.23-3.08-0.49-4.76l-0.01,0.04c5.22-4.28,11.39-7.03,17.33-10
		c5.46-2.73,9.24-6.53,11.81-11.89c1.05-2.18,2.06-4.58,5.48-3.44c4.61,1.55,5.48,2.52,5.21,6.81c-0.23,3.58-0.33,7.14,2.33,10.22
		c-4.22-7.78-1.64-14.07,4.36-19.28c6.06-5.28,13.1-3.41,15.98,4.1c0.72,1.88,1.46,2.03,2.94,1.08c2.53-1.63,5-3.35,7.52-4.98
		c1.63-1.05,3.24-1.36,4.97-0.25c5.41,3.46,10.86,6.86,16.23,10.38C340.87,725.48,341.57,726.16,341.46,727.28z"/>
	<path class="st48" d="M150.64,1185.04c3.85-4.11,3.96-9.69,5.59-14.64c5.97-18.14,7.41-37.19,10.68-55.87
		c0.4-2.31,1.03-3.55,3.44-3.47c4.47-2.26,9.19-0.94,13.82-0.97c2.06,0.36,3.19,1.98,4.43,3.4c3.41,3.9,7.49,6.7,12.56,7.92
		c2.65,0.64,4.28,2.24,5.03,4.8c0.94,3.24,2.64,6.3,2.29,9.84c-2.13,7.6-3.99,15.27-5.95,22.91c-0.8,3.1-1.01,6.54-3.94,8.71
		c-6.24,1.22-12.54,0.13-18,0.56c4.39,0.03,9.58-0.07,14.77,0.03c5,0.09,5.7,1.1,4.44,6.04c-0.71,2.78-1.56,5.52-2.37,8.27
		c-0.71,2.41-2.32,3.63-4.82,3.65c-12.85,0.1-25.71,0.06-38.56,0.02C152.78,1186.24,151.6,1185.94,150.64,1185.04z"/>
	<path class="st49" d="M341.46,727.28c-6.06-3.94-12.14-7.84-18.15-11.85c-1.39-0.93-2.35-0.72-3.64,0.15
		c-3.59,2.45-7.28,4.75-10.91,7.1c-0.32-0.35-0.62-0.54-0.64-0.74c-0.42-4.44-2.08-8.1-6.84-9.07c-4.69-0.95-8.2,1.46-10.96,4.97
		c-4.13,5.24-4.31,9.62-0.88,15.48c0.58,1,1.92,2.16,0.31,3.08c-1.42,0.81-2.1-0.73-2.78-1.71c-2.64-3.83-3.48-8.01-2.04-12.46
		c1.22-3.77-2.31-2.87-3.75-3.86c-1.31-0.9-3.22-2.28-4.22,0.55c-3.13,8.87-10.4,13.22-18.32,16.89c-4.31,2-8.03,5.16-12.73,6.39
		c-1.5-2.23,0.39-2.77,1.78-3.54c6.34-3.51,12.66-7.07,19.03-10.51c1.76-0.95,2.8-2.38,4.01-3.9c7.7-9.75,9.77-21.66,12.96-33.12
		c1.78-6.41,5.58-10.09,12.27-10.84c5.03-0.56,10.04-1.37,15.06-2.04c4.81-0.64,8.78,0.75,12.16,4.41
		c6.97,7.54,14.13,14.91,21.22,22.34c4.42,4.64,6.2,5.15,11.79,2.35c2.16-1.08,2.77,0.43,3.65,1.37c3.95,4.21,4.32,11.16,0.99,15.95
		c-3.44,4.95-10.08,6.85-15.71,4.46C343.85,728.57,342.67,727.89,341.46,727.28z"/>
	<path class="st46" d="M293.03,846.63c1.67-17.66,2.56-35.39,5.83-52.88c1.47-7.89,2.9-15.94-0.56-23.79
		c0.14-0.39,0.4-0.6,0.82-0.62c3.15,2.6,6.14,5.43,9.49,7.76c5.59,3.89,7.95,9.31,9.01,15.81c2.42,14.84,3.39,29.83,4.61,44.78
		c1,12.24,1.7,24.51,2.54,36.76c-1.02,1.17-2.44,1.12-3.78,1.09c-11.62-0.29-21.92,3.16-30.81,10.71c-0.52,0.44-1.15,0.72-1.84,0.83
		c-1.97-0.41-2.27-1.83-2.13-3.52c1.87-8.5,3.74-17,5.61-25.5c0.27-4.98,2.63-9.39,3.9-14.1c3.18-11.77,5.64-23.65,7.2-35.73
		c0.11-0.89,0.49-1.85-0.52-3.03c-0.42,10.96-2.77,21.29-5.35,31.55C296.2,840.17,296.46,844.21,293.03,846.63z"/>
	<path class="st47" d="M324.06,924.53c-4.85-4.95-10.88-8.32-16.46-12.29c-0.24-2.5,1.55-4.05,3.01-5.48
		c5.36-5.26,11.16-9.98,18.08-13.1c1.09-0.49,2.19-1.22,3.46-0.46c6.92,6.54,13.85,13.08,20.77,19.63
		c5.35,5.06,10.71,10.13,16.04,15.22c0.81,0.77,1.63,1.45,2.79,1.56c0.7,1.86,2.07,3.1,3.66,4.24c4.64,3.33,9.37,6.54,14.04,9.84
		c2.23,1.58,3.17,3.33,1.67,5.84c-4.12,6.9-7.33,14.27-11.11,21.35c-0.54,1.01-0.89,2.4-2.53,2.21c-2.88-3.46-5.25-7.22-6.61-11.55
		c-0.55-2.39-0.13-4.89-0.97-7.28c-2.18-6.24-6.36-10.43-12.59-12.51c-2.23-0.75-3.64-1.96-4.56-4.22
		c-4.22-10.39-13.9-15.36-24.85-12.97C326.65,924.85,325.34,925.66,324.06,924.53z"/>
	<path class="st45" d="M182,877.85c7.7,6.67,14.42,14.32,21.69,21.43c5.44,5.32,10.67,10.84,15.99,16.28
		c-0.22,2.23-2.15,1.65-3.43,1.99c-4,1.06-6.17,3.19-6.68,6.8c-0.42,2.96,1.49,6.17,4.59,8.04c3.48,2.1,7.69,2.91,10.56,6.06
		c2.74,8.56,12.39,13.91,21.28,11.79c0.78-0.19,1.52-0.57,2.36-0.54c4.92,1.97,9.25,5.13,14.2,7.06c1.2,0.47,2.56,1.34,1.4,3.09
		c-4.02,0.42-7.72-0.55-11.51-1.91c-6.21-2.22-12.61-2.93-18.99-0.32c-1.95-0.28-2.36-2.09-3.22-3.37
		c-3.94-5.9-9.48-9.09-16.41-10.13c-1.59-0.24-2.94,0.01-4.2,0.95c-3.12-7.53-8.6-12.44-16.39-14.8c-1.3-1.5-1.43-3.48-2.17-5.21
		c-3.37-7.86-9.25-12.09-17.83-12.54c-1.56-0.08-3.32,0.36-4.47-1.25c4.24-0.16,5.03-2.5,5.18-6.46
		C174.3,895.21,177.63,886.33,182,877.85z"/>
	<path class="st46" d="M245.91,742.16c4.34,13.58,11.85,25.09,22.57,34.5c2.32,2.04,4.99,3.4,8,3.93c4.02,0.7,6-1.32,5.25-5.3
		c-0.77-4.13-1.32-8.17,2.16-11.47c3.6,0.67,6.19,2.74,8.06,5.81c1.91,11.15-0.64,21.86-3.16,32.59c-0.35,0.79-0.88,1.24-1.8,1.03
		c-15.24-3.39-30.48-6.78-45.72-10.18c-0.93-0.17-1.01-0.87-1-1.62c2.87-10.68,4.54-21.49,4.14-32.61
		c-0.25-6.88-2.79-12.62-7.68-17.38C239.79,741.69,242.85,741.92,245.91,742.16z"/>
	<path class="st48" d="M247.66,1172.64c4.46-4.52,10.16-2.53,15.4-2.96c1.46-0.12,3.51,0.78,3.75-1.86
		c5.97,1.56,11.59,3.68,15.12,9.25c1.58,2.5,2.04,5.62,4.28,7.75c-0.52,1.42,0.17,2.67,0.58,3.96c1.71,5.44,0.96,6.47-4.91,6.53
		c-5.2,0.05-10.4,0.01-15.6,0.01c-6.43,0-12.86,0-19.29,0c-2.37,0-4.66-0.26-6.47-2.01c-1.01-1.04-0.85-2.29-0.37-3.41
		c2.19-5.11,3.89-10.39,5.85-15.58C246.3,1173.51,246.8,1172.89,247.66,1172.64z"/>
	<path class="st50" d="M333.44,884.68c-1.03,0.56-2.39,0.63-2.92,1.95c-4.08,2.25-8.71,2.94-12.99,4.61
		c-6.21,2.43-12.35,4.97-16.74,10.36c7.17-6.3,15.74-9.75,24.8-12.18c0.79-0.21,1.57-0.48,2.38-0.6c1.02-0.14,1.96,0.02,2.46,1.01
		c0.61,1.2-0.42,1.69-1.13,2.28c-0.31,0.26-0.68,0.46-1.05,0.64c-8.61,4.26-15.43,10.72-21.89,17.64c-0.77,0.83-1.32,2.2-2.89,1.83
		c-0.55-0.85-1.11-1.7-1.66-2.55c-0.07-0.11-0.14-0.31-0.22-0.32c-4.74-0.46-7.61-3.04-8.69-7.65c-1.25-0.7-2.5-1.41-3.75-2.11
		c-0.1-2.15,1.74-2.92,3.02-3.97c7.31-5.94,15.53-10.08,24.75-12.22c-6.47,0.53-12.14,3.23-17.63,6.41
		c-1.77,1.03-3.44,2.23-5.12,3.4c-1.63,1.14-3.3,2.29-4.89-0.04c-1.42-2.07-1.52-4.07,0.54-5.82c6.04-5.12,12.77-8.83,20.58-10.53
		c5.73-1.25,11.4-1.12,17.08,0.05c2.11,0.43,4.26,1.09,2.5,4.05c-0.82,1.38-0.06,1.96,1.21,2.32
		C332.06,883.51,333.16,883.46,333.44,884.68z"/>
	<path class="st51" d="M266.37,1167.11c-4.77,0-9.53,0-15.01,0c7.2-18.32,14.97-35.92,16.29-55.36c0.94-1.71,2.2-1.71,3.65-0.68
		c0.14,0.01,0.27,0.02,0.41,0.02c8.85,0.18,8.56,0.11,6.29,8.99C273.99,1135.73,269.45,1151.24,266.37,1167.11z"/>
	<path class="st52" d="M240.22,1192.46c2.2,1.15,4.51,1.45,7.01,1.43c11.43-0.1,22.86-0.04,34.3-0.05c5.76,0,5.75,0,3.79-5.28
		c-0.52-1.41-1.94-3.11,0.9-3.74c0.48,0.64,1.28,1.24,1.39,1.94c1.01,6.62,5.14,7.64,11.07,7.21c7.49-0.54,15.05-0.19,22.57-0.08
		c1.38,0.02,3.94-1.08,3.84,1.46c-0.07,2-2.45,1.14-3.8,1.14c-57.21,0.04-114.43,0.03-171.64,0.03c-14.78,0-29.57,0.03-44.35-0.03
		c-1.49-0.01-4.1,0.93-3.16-2.44c2.96-0.73,5.97-0.3,8.96-0.32c8.34-0.07,16.68-0.25,25.01,0.04c7.94,0.28,15.78-1.02,23.68-0.98
		c2.37,0.01,4.15-1.16,5.81-2.66c1.94-1.76,4.21-2.39,6.32-0.69c4.3,3.48,9.25,3.56,14.38,3.43c2.42-0.06,4.94-0.52,7.24,0.75
		c6.18,0.35,12.35,0.39,18.53-0.03c3.18-1.4,6.53-0.54,9.8-0.77C227.98,1192.89,234.11,1193.03,240.22,1192.46z"/>
	<path class="st8" d="M164.88,843.24c11.37-5.96,23.24-7.69,35.7-4.16c2.54,0.72,2.96-0.93,3.64-2.66
		c3.3-8.39,6.67-16.76,10.01-25.13c0.2-0.51,0.37-1.03,0.59-1.53c0.45-0.99,0.86-2.3,2.29-1.65c1.42,0.64,0.68,1.8,0.28,2.81
		c-3.18,8-6.35,16-9.52,24c-0.25,0.63-0.42,1.32-0.76,1.9c-1.51,2.58-1.36,4.29,1.96,5.29c3.01,0.9,4.12,2.5,0.38,4.29
		c-0.45,0.22-1.12,0.66-1.12,1c-0.01,1.16,2.15,3.12-0.89,3.01c-1.62-0.06-3.85-0.79-4.46-2.47c-0.83-2.27,1.99-2.01,2.96-3.11
		c0.09-0.1,0.17-0.22,0.51-0.67c-10.44-4.61-20.94-5.67-31.77-2.08c-3.25,1.08-6.27,2.67-9.28,4.32c-2.45,1.34-1.9,3-0.99,4.79
		c1.11,2.2,2.31,0.22,3.23-0.19c7.16-3.2,14.47-5.79,22.42-6.03c0.96-0.03,1.92,0.02,2.87,0.08c1.1,0.07,2.44,0.11,2.43,1.56
		c-0.01,1.54-1.35,1.44-2.45,1.37c-10.09-0.64-19.04,2.97-27.75,7.47c-1.21,0.62-2.35,1.37-3.52,2.06c-1.02,0.51-2.36,0.3-2.01-0.82
		c1-3.21,1.57-6.2,0.88-9.68C160.13,845.16,163.58,844.79,164.88,843.24z"/>
	<path class="st8" d="M333.44,884.68c-0.27-0.04-0.54-0.09-0.81-0.14c-1.82-0.33-4.25,0.13-5-1.95c-0.67-1.84,2.3-2.02,2.78-4
		c-11.7-2.95-22.71-1.63-33.04,4.56c-2.33,1.4-4.35,3.3-6.65,4.76c-2.59,1.64-1.6,3.44-0.34,5.11c1.66,2.2,2.49-0.37,3.37-0.96
		c6.51-4.36,13.24-8.18,21.05-9.72c0.8-0.16,1.61-0.35,2.42-0.36c1.03-0.01,2.46-0.45,2.74,1.02c0.31,1.64-1.24,1.53-2.22,1.69
		c-11.21,1.76-20.35,7.47-28.58,14.91c-1.28,0.59-3.21,0.3-2.58-0.99c1.84-3.72-0.63-6.71-0.91-10.02c0,0-0.18-0.04-0.18-0.04
		c0.52-0.91,0.76-2.16,2.26-1.93c10.61-9.32,23.02-13.16,37.02-12.19c3.03,0.63,6.09,1.19,9.09,1.93c1.09,0.27,3.1,1.29,1.69,2.23
		C333,880.32,333.7,882.53,333.44,884.68z"/>
	<path class="st34" d="M151.34,1187.67c14.33,0,28.67,0,42.95,0c0.59,1.74-1.42,3.63,0.62,5.04c-0.46,0.3-0.91,0.61-1.37,0.91
		c-5.31,0.07-10.63,0.14-15.95,0.21c-2.45,0.03-3.92-1.82-5.56-3.14c-1.9-1.52-3.47-2.13-5.08,0.18c-1.84,2.65-4.43,3.03-7.49,3.02
		c-19.1-0.05-38.21,0.08-57.31,0.14c1.18-1.41,2.8-0.8,4.21-0.8c12.27-0.05,24.54-0.21,36.81,0.06
		C147.62,1193.41,150.91,1192.9,151.34,1187.67z"/>
	<path class="st53" d="M183.39,1096.31c-2.09,0.53-1.61,2.17-1.57,3.62c0.13,4.02,1.82,7.57,3.34,11.17
		c-4.94-0.01-9.87-0.02-14.81-0.04c0.87-9.6,1.74-19.19,2.61-28.79c1.12-0.03,1.67,0.81,2.17,1.58c2.08,3.15,4.22,6.24,7.41,8.44
		c0.66,0.46,1.09,1.19,0.96,2.1C183.46,1095.02,183.43,1095.66,183.39,1096.31z"/>
	<path class="st54" d="M207.53,858.34c-11.53,2.03-21.5,7.14-30.01,15.14c-0.63,0.48-1.27,0.94-1.9,1.44
		c-0.69,0.55-1.43,0.79-2.16,0.16c-1.06-0.91,0-1.66,0.27-2.47c8.75-7.94,18.82-13.58,30.11-17.28c-9.4-0.26-18.38,1-26.75,5.3
		c-0.73,0.37-1.38,0.96-2.15,1.18c-1.48,0.43-2.98,3.41-4.33,0.98c-1.11-2.01,1.81-2.62,3.15-3.46c8.98-5.67,19.25-6.65,29.43-7.58
		c2.65-0.24,4.22,2.69,6.09,4.43C209.11,857.24,208.35,857.81,207.53,858.34z"/>
	<path class="st21" d="M303.48,912.24c7.46-9.05,15.96-16.81,26.88-21.51c-0.64-1.47-1.55-1.17-2.52-0.9
		c-9.65,2.71-19.12,5.76-26.54,13.02c-0.73,0.72-1.59,1.88-2.74,0.74c-1.21-1.2,0.12-1.97,0.81-2.67c3.69-3.75,8.02-6.62,12.83-8.65
		c5.9-2.49,11.88-4.82,18.31-5.64c0.55,0.38,1.13,0.74,1.66,1.16c1.13,0.88,3.2,0.99,3.23,2.75c0.03,1.85-2.34,1.51-3.24,2.66
		c-9.95,4.08-18.16,10.39-24.56,19.04c-0.53,0.58-1.07,1.15-1.59,1.74c-0.61,0.69-1.16,1.61-2.27,1.03
		C302.29,914.26,303.35,913.19,303.48,912.24z"/>
	<path class="st19" d="M291.94,769.62c-2.69-1.94-5.37-3.87-8.06-5.81c-3.42-3.57-6.71-7.25-7.4-12.41
		c-0.18-1.35-0.98-3.51,1.02-3.84c2.01-0.33,1.39,1.9,1.64,3.07c1.85,8.66,8.61,12.86,15.38,17.06c1.27,0.79,2.03-0.24,2.87-0.83
		c2.57-1.8,5.31-3.42,7.59-5.54c3.78-3.5,7.83-4.55,12.64-2.59c2.89,1.18,4.42,0.78,4.13-2.98c-0.17-2.22-1.42-6.33,1.04-6.41
		c2.62-0.08,0.9,4.03,1.57,6.2c0.08,0.26,0.21,0.49,0.32,0.74c-0.28,6.92-0.37,7.23-7.09,5.28c-4.48-1.3-7.99-0.8-11.39,2.38
		c-2.16,2.01-4.71,3.61-7.09,5.39c-0.27,0.21-0.54,0.41-0.82,0.62C296.08,771.84,294,770.89,291.94,769.62z"/>
	<path class="st38" d="M63.2,1196.61c-6.97,0-13.95,0.01-20.92-0.01c-1.17,0-2.88,0.38-2.96-1.3c-0.08-1.76,1.65-1.44,2.81-1.45
		c14.08-0.02,28.17-0.02,42.25,0.01c1.13,0,2.92-0.45,2.92,1.28c0,2.06-1.95,1.44-3.18,1.45
		C77.15,1196.63,70.17,1196.61,63.2,1196.61z"/>
	<path class="st55" d="M165.34,860.09c1.78-0.45,3,0.37,2.3,2.03c-1.59,3.81,0.35,4.28,3.41,4.43c1.81,0.09,3.38,0.84,1.63,3.08
		c-0.4-0.04-0.8-0.07-1.2-0.13C161.24,868.1,162.71,870.06,165.34,860.09z"/>
	<path class="st37" d="M292.9,901.72c1.49-0.49,3.06-0.55,2.57,1.57c-0.91,3.97,1.06,4.26,4.13,3.87c1.69-0.22,3.64-0.19,2.22,2.53
		c-0.27,0.01-0.54,0.02-0.81,0.03C292.32,910.13,292.32,910.13,292.9,901.72z"/>
	<path class="st56" d="M284.68,957.27c-2.8-0.92-6.05-0.65-8.26-3.14c0.97-0.75,1.21-2.21,2.55-2.6c2.16,0.83,4.32,1.66,6.48,2.48
		C284.23,954.87,284.75,956.14,284.68,957.27z"/>
	<path class="st57" d="M271.29,1111.07c-1.24,0.08-2.52-0.02-3.65,0.68c0.1-0.81,0.31-1.62,0.29-2.42
		c-0.11-4.08,1.72-5.01,5.24-3.33C271.42,1107.27,271.4,1109.18,271.29,1111.07z"/>
	<path class="st49" d="M293.03,846.63c4.09-12.89,7.02-26.01,8.16-39.51c0.05-0.54,0.01-1.09,0.06-1.64
		c0.12-1.14-0.37-2.83,1.41-2.87c1.76-0.03,1.6,1.65,1.49,2.79c-0.41,4.2-0.78,8.42-1.48,12.57c-2.07,12.24-4.82,24.32-8.92,36.06
		c-0.49,1.4-1.28,2.69-1.93,4.03c-2.34-0.4-1.79-1.96-1.27-3.37C291.53,852.05,292.64,849.45,293.03,846.63z"/>
	<path class="st58" d="M240.27,791.44c0.33,0.54,0.66,1.08,1,1.62c-1.18,5.27-2.38,10.54-3.54,15.82c-0.28,1.25-0.75,2.78-2.09,2.55
		c-1.63-0.28-1.01-1.79-0.73-3.01c1.03-4.47,1.9-8.98,2.96-13.45C238.2,793.56,238.58,792.01,240.27,791.44z"/>
	<path class="st58" d="M286.99,803.24c0.6-0.34,1.2-0.69,1.8-1.03c1.34,1.74,0.71,3.63,0.4,5.49c-0.48,2.82-0.83,5.67-1.52,8.43
		c-0.29,1.14-0.11,3.34-1.98,3.02c-1.86-0.32-1.05-2.18-0.84-3.44C285.52,811.54,286.27,807.39,286.99,803.24z"/>
	<path class="st59" d="M287.74,886.64c-0.69,0.72-1.13,1.72-2.26,1.93c0.04-1.7-0.57-3.49,0.73-5
		C286.72,884.59,287.23,885.62,287.74,886.64z"/>
	<path class="st60" d="M295.35,749.19c-0.15,3.39,1.19,6.37,3.83,8.83c0.75,0.7,2,1.54,0.95,2.68c-1.21,1.31-2.21,0.05-3.06-0.76
		c-3.15-2.97-4.73-6.6-4.38-10.96c0.1-1.3-0.05-3.2,1.84-3.02C296.31,746.13,295.59,747.79,295.35,749.19z"/>
	<path class="st61" d="M321.38,736.11c2.1,0.21,3.3,1.21,3.31,3.15c0.02,1.91-1.09,3.13-3.02,3.18c-2.11,0.05-3.39-1.13-3.34-3.28
		C318.38,737.18,319.76,736.36,321.38,736.11z"/>
	<path class="st62" d="M208,1135.75c0.65,1.27,0.65,2.49,0.24,3.9c-2.48,8.6-4.86,17.23-7.29,25.84c-0.25,0.88-0.01,2.57-1.85,1.37
		c2.76-9.53,5.31-19.12,7.38-28.83C206.7,1137.03,207.1,1136.25,208,1135.75z"/>
	<path class="st63" d="M223.76,927.18c-2.54-1.46-1.29-4.05-1.78-6.11c-0.37-1.54-0.51-3.13-0.76-4.7
		c-0.04-1.48-0.11-2.97-0.09-4.45c0.01-0.71,0.33-1.4,1.16-1.34c0.46,0.03,1.24,0.42,1.28,0.72c0.64,5.05,1.8,10.07,1.15,15.21
		C224.69,926.77,224.09,926.96,223.76,927.18z"/>
	<path class="st64" d="M227.07,1180.99c-1.12,3.59-2.31,7.16-3.3,10.78c-0.26,0.93-0.78,1.36-1.44,1.83c-3.42,0.4-6.85,0.41-10.27,0
		c-0.55-2.43,1.84-3.96,1.91-6.2c1.04-0.67,2.23-0.85,3.45-1.02c-0.42-0.87-1.98-0.38-1.94-1.7c-0.08-1.74,0.3-3.32,1.58-4.59
		c1.15,0.69,1.7,1.6,1.43,2.19c1.67-4.38,1.46-10.3,5.17-14.83c4.4-11.58,8.79-23.16,13.41-35.3c0.78,1.41,0.47,2.21,0.27,3.04
		c-3.37,13.8-6.74,27.6-10.06,41.41C226.94,1178.03,226.25,1179.49,227.07,1180.99z"/>
	<path class="st65" d="M223.67,1167.46c-1.56,5.38-3.11,10.76-5,17.27c-0.79-2.29-1.2-3.46-1.61-4.63
		c1.46-4.11,2.91-8.21,4.37-12.32C222.18,1167.67,222.93,1167.57,223.67,1167.46z"/>
	<path class="st66" d="M215.49,1184.68c1.57,0.75,4.79-0.96,4.7,1.43c-0.1,2.67-3.25,0.99-5.02,1.41c-0.37,0.09-0.8-0.07-1.19-0.11
		C214.3,1186.39,214.54,1185.34,215.49,1184.68z"/>
	<path class="st48" d="M251.36,1193.8c0,0-44.47,4.72-37.84-4.73c6.63-9.45,26.26-75.17,26.26-75.17s0.43-3.43,5.19-3.54
		c4.76-0.11,29.99,0.81,29.99,0.81s6.26,1.86-1.08,24.56c-7.34,22.71-14.47,32.08-14.47,32.08s23.9,7.14,22.52,9.25"/>
	<path class="st48" d="M174.92,1111.75h28.9c0,0,11.08-2.61,9.03,7.2c-2.06,9.81-12.77,50.79-12.77,50.79"/>
	<path class="st25" d="M336.71,1095.42l1.96,2.99c0,0-3.24,20.13-9.67,21.04c-6.43,0.9-19.64,9.73-19.64,9.73l-14.82-6.86
		l-14.72-0.78l-21.61-8.34l-4.72-7.34h-2.66c0,0-22.57,3.84-42.59,3.85c-20.02,0.01-44.19-5.26-44.19-5.26l-3.44-0.77l-18.35,4.14
		l-21.03,12.67l-28.7-5.88c0,0-12.49-9.78-16.68-17.79c-4.19-8.01-3.46-25.37-3.46-25.37s-16.3-10.04-18.82-30.86
		c-2.52-20.82,14.99-37.49,14.99-37.49l2.38-8.97c0,0,5.04-28.16,23.25-33.62s27.88-9.95,32.78-6.72s1.17-0.99,1.17-0.99l1.25,0.75
		l14.94,17.64c0,0,2.38-8.75,6.86-10.15c4.48-1.4,10.37-3.5,10.37-3.5s4.91-13.76,11.21-14.29c6.29-0.53,3.45-8.18,22.08,3.37
		c0,0,12.01,9.72,21.08,8.57c9.56-1.21,15.85,0.83,15.85,0.83l1.1,14.58v-2.66l1.15-2l1.28-1.66l10.39-4.07l10.26,2.3l4.6,1.29
		l8.68,1.81l7.19-1.35l8.43,5.27l3.78-10.17l3.22-5.17l11.37-7.39l11.89-13.4l16.16-8.35l7.38-8.55l9.11-2.1l5.85-0.46
		c0,0,9.23-7.25,18.64-6.55s10.95,5.83,10.95,5.83s5.04-2.32,9.95-2.33c4.91-0.01,10.49,9.91,10.65,11.65
		c0.16,1.74,8.66,1.92,8.66,1.92s4.93,2.09,4.86,7.91s-5.53,12.4-5.53,12.4s-7.99,1.69-9.53,0.85c-1.54-0.84-3.79-1.9-3.79-1.9
		l-11.02,7.98l-15.19-1.95l-11.6-9.57l3.18,15.8l9.85,19.88l4.9,12.61c0,0,1.4,22.83-13.17,31.52c-14.57,8.69-20.17-4.06-20.17-4.06
		l15.83,1.3c0,0,12.66,22.25,3.67,34.71"/>
	<path class="st26" d="M150.75,1183.88c-0.01-0.54-0.01-1.08-0.02-1.63c-0.72-0.53-1.81-0.37-2.4-1.27c0.78-0.3,1.73,0.47,2.37-0.4
		c-0.17-6.62,0.74-13.27-0.67-19.85c-2.25,3.19-0.63,6.75-1.05,9.82c0.27-3.31-2.26-7.18,1.06-10.51c0.06-0.27,0.06-0.54,0-0.8
		c-2.8-2.05-0.55-4.55-0.6-6.86c-0.07-2.84,0.56-5.73-0.63-8.49c-3.08-0.66-7.01,2.07-7.06,5.72c-0.06,4.52-1.12,9.29,1.46,13.57
		c0.47,0.78,0.42,1.52,0.15,2.35c-2.2,6.64-1.59,13.49-1.57,19.29c0.08-4.41-0.65-9.85,0.59-15.23c0.25-1.08,0.34-2.24-0.17-3.23
		c-1.34-2.62-1.79-5.39-1.99-8.3c-0.17-2.55-1.46-4.75-4.4-4.22c-2.87,0.52-3.57,2.96-2.69,5.44c1.15,3.26-0.01,7.21,3.03,9.91
		c0.47,0.42,0.35,1.33,0.16,1.98c-1.47,4.9-0.14,9.38,1.99,13.75c1.23,2.53-0.34,4.46-1.4,6.49c-0.62,1.97-1.99,2.75-4.01,2.76
		c-10.35,0.02-20.7-0.03-31.05,0.03c-3.06,0.02-3.22-1.33-2.58-3.87c1.66-6.6,4.21-12.95,5.36-19.68c-0.59-2.63-0.01-5.14,0.72-7.65
		c3.08-10.62,6.16-21.24,9.18-31.88c0.6-2.13,1.88-3.55,3.57-4.8c6.36-4.72,12.88-9.23,19.09-14.16c1.34-1.07,3.81-1.82,2.67-4.35
		c-0.79-1.76-5.05-2.15-7.03-0.49c-3.06,2.56-6.37,4.67-9.85,6.59c-4.59,1.17-8.89,3.77-13.91,2.73c-3.84,0.66-7.59,0.22-11.32-0.84
		c-5.16-1.46-5.62-0.95-8.1,3.91c-2.7,5.28-3.66,10.72-3.37,16.58c0.23,4.62,0.27,9.27-0.5,13.88c1.54,14.71-2.39,28.65-5.97,42.65
		c-0.64,2.5-2.14,2.63-4.21,2.62c-12.44-0.06-24.89-0.04-37.33,0c-1.33,0-2.74-0.39-4,0.41c0.9,1.58,2.48,1.55,3.96,1.54
		c33.04-0.06,66.09,0.24,99.13-0.13c2.91-0.97,5.93-0.83,8.92-0.79c3,0.04,4.27-0.98,3.31-4.18
		C148.72,1189.4,148.15,1186.38,150.75,1183.88z"/>
	<path class="st26" d="M401.37,943.76c-0.79-0.51-1.58-1.03-2.38-1.54c-1.86,0.04-2.34,1.71-3.24,2.82
		c-8.06,9.94-19.75,9.84-27.31-0.5c-2.07-2.83-4.33-3.98-7.78-4.31c-8.85-0.83-17.74-1.05-26.55-2.2c-0.54-0.07-1.09-0.1-1.64-0.09
		c-2.23,0.05-4.77-0.01-5.21,2.81c-0.49,3.12,2.28,3.31,4.35,3.73c5.09,1.04,10.25,1.74,15.38,2.63c4.96,0.86,9.95,1.58,14.86,2.69
		c-5.29-0.15-10.37-1.78-15.61-2.26c-0.95-0.09-1.89-0.35-2.85-0.34c-0.96,0.01-2.11-0.01-2.53,0.96c-0.55,1.24,0.5,2.05,1.36,2.68
		c5.37,4,11.49,5.59,18.54,5.52c-1.97,0.83-4.08,0.01-5.37,1.63c-0.27,0.91-0.46,1.85-0.81,2.72c-0.95,2.31-0.84,3.36,2.23,4
		c5.92,1.23,9.28,5.5,10.07,11.44c0.28,2.08,0.91,2.99,2.88,3.7c6.4,2.28,8.79,6.35,8.11,13.18c5.8,0.41,11.04,2.96,16.56,4.44
		c2.01,0.54,2.99,2.27,3.89,3.99c0.89,1.72,1.97,3.29,3.79,4.17c1.01,0.49,2.14,0.93,3.09,0.13c1.19-1,0.16-2.03-0.37-2.87
		c-2.37-3.7-4.16-7.67-5.6-11.82c2.01,3.42,3.3,7.23,5.72,10.41c1.51,1.99,2.57,4.92,6.02,3.42c2.57-1.12,4.08-4.97,3.37-8.11
		c-0.62-2.72-2.54-4.81-3.54-7.33c0.29-0.24,0.44-0.12,0.69,0.13c1.14,1.18,1.54,3.79,3.82,2.92c2.05-0.78,1.98-3.06,2.05-4.99
		c0.09-2.53-0.82-4.81-1.71-7.12C410.88,968.19,405.43,956.24,401.37,943.76z"/>
	<path class="st27" d="M271.91,1175.31c2.87-1.16,1.84-3.27,1.14-5.16c-3.8-10.27-7.71-20.49-11.66-30.7
		c-3.46-8.93-3.28-18.55-5.6-28.42c7.02,6.62,14.53,10.89,23.73,11.6c1.88,0.14,2.39,1.47,1.66,2.92
		c-4.41,8.71-1.3,17.14,0.85,25.59c2.33,9.15,4.29,18.39,6.71,27.52c0.56,2.12,0.75,4.84,4.04,4.79c2.52-1.68,1.21-3.95,0.74-5.92
		c-3.16-13.08-6.01-26.25-9.33-37.66c3.41,9.25,6.78,20.2,12.08,30.41c0.84,0.4,1.66,0.4,2.47-0.06c1.75-2.29,0.43-4.46-0.38-6.56
		c-3.9-10.07-7.89-20.11-11.6-30.25c-2.14-5.84-1.31-8.08,3.72-11.62c0.69-0.49,1.23-1.09,1.03-2.04c-0.93-1.58-2.38-0.94-3.68-0.85
		c-21.13,1.47-37.41-12.44-39.29-33.58c-0.11-1.19,0.18-3-1.38-2.96c-1.96,0.05-1.39,2.03-1.34,3.27
		c0.24,6.56,2.46,12.55,5.95,18.59c-28.74,5.44-57,6.19-85.13-1.73c-0.16-1.6,1.25-1.71,1.92-2.43c0.74-0.79,1.91-1.53,0.88-2.71
		c-1.07-1.24-1.96-0.04-2.77,0.58c-5.09,3.91-10.72,6.49-17.15,7.27c-11.33,1.38-21.04-1.95-29.26-9.8
		c-0.3-0.28-0.55-0.63-0.87-0.87c-0.88-0.65-1.55-2.52-2.9-1.24c-1.48,1.4,0.2,2.44,1.06,3.36c2.92,3.13,6.32,5.63,10.14,7.57
		c1.08,0.55,2.17,1.09,3.59,1.81c-2.06,1.97-4.03,3.54-6.26,4.82c-1.15,0.67-2.54,1.27-2.09,3.07c3.97,0.61,6.37-2.25,8.65-4.51
		c2.8-2.77,5.35-2.38,8.69-0.88c-7.78,5.79-15.28,11.43-22.86,16.97c-2.06,1.51-3.42,3.2-4.12,5.76c-3.12,11.43-6.46,22.8-9.7,34.2
		c-0.43,1.52-1.37,3.11,0.27,4.52c2.88,0.06,3.06-2.34,3.6-4.18c2.94-9.96,5.89-19.92,8.54-29.97c1.12-4.24,3.25-7.43,7.01-9.58
		c5.43-3.94,10.82-7.92,16.1-12.06c3.62-2.84,7.28-5.25,12.1-5.37c1.61-0.04,3.24-0.48,4.87-1.13c-0.23,0.88-0.72,1.5-1.23,1.97
		c-9.61,8.9-7.84,20.49-7.52,31.73c0.02,0.85,0.37,1.59,0.92,2.24c0.26,3.16,0.6,6.32,0.14,9.49c0.96,1.34-0.8,3.72,1.71,4.46
		c2-0.93,1.44-2.75,1.4-4.3c-0.2-9.29-0.4-18.58-0.76-27.86c-0.09-2.34,0.61-4.12,1.92-6.01c3.24-4.7,7.16-8.96,9.61-14.17
		c0.53-1.13,0.97-1.03,1.76-0.79c27.28,8.56,54.97,7.72,82.8,3.66c4.78-0.11,4.16,3.64,4.68,6.57c1.01,16.64,6.86,31.94,13.02,47.15
		"/>
	<path class="st26" d="M291.53,1119.74c-0.19,0.68-0.53,1.25-1.24,1.5c-5.02,1.83-6.92,5.66-5.02,10.77
		c4.11,11.09,8.37,22.12,12.55,33.19c0.56,1.49,1.55,2.95,0.78,4.67c-0.98,3.04,0.92,5.44,1.83,8.04c0.49,1.39,1.16,2.73,1.69,4.12
		c0.8,1.57,1.33,3.23,1.76,4.94c0.41,1.1,0.98,2.13,1.32,3.26c1.42,2.19,1.04,5.38,3.8,6.83c5.72,0.42,11.43,0.82,17.13-0.24
		c1.58-1.2,0.2-1.96-0.41-2.83c-1.28-0.99-1.61-2.48-2.03-3.91c-4.49-15.44-8.68-30.97-13.09-46.43c-0.74-2.6-0.76-5.05,0.2-7.58
		c0.96-2.55,1.62-5.2,2.27-7.85c0.46-1.88,0.32-3.56-1.92-4.26c-4.76-0.15-9.05-1.47-12.55-4.86c-1.02-0.65-2.08-0.74-3.18-0.21
		C294.11,1119.17,292.82,1119.46,291.53,1119.74z"/>
	<path class="st28" d="M126.86,952.77c-8.3-1.05-16.56-0.11-24.4,2.88c-15.87,6.05-27.75,16.2-32.49,33.23
		c-0.22,0.79-0.59,1.64-0.47,2.4c1.06,6.69-2.55,11-6.56,15.92c-11.8,14.46-14.16,30.96-6.6,48.07
		c7.62,17.23,21.46,26.39,40.27,27.96c0.68,0.06,1.37,0.06,2.05,0.03c0.87-0.04,1.71-0.33,1.73-1.33c0.02-0.97-0.76-1.35-1.64-1.43
		c-2.45-0.24-4.93-0.26-7.34-0.72c-22.33-4.21-37.4-23.33-36.23-45.86c1.13-21.84,18.71-39.54,41.02-41.36
		c1.47-0.12,4.2,0.76,4.06-1.37c-0.15-2.37-2.89-1.23-4.49-1.21c-4.27,0.06-8.38,1.13-12.41,2.52c-3.86,1.33-7.42,3.31-11.29,5.78
		c-0.64-7.01,1.23-12.85,4.4-18.34c9.61-16.6,31.04-26.91,50.4-24.44c1.99,0.25,2.79,1.29,3.57,2.83"/>
	<path class="st29" d="M320.93,1168.97c-2.54-2.95-2.55-6.79-3.54-10.27c-1.96-6.9-4.16-13.75-5.35-20.85
		c0.26-0.91,0.55-1.82,0.77-2.74c1.39-5.79,3.07-10.77,10.37-12.1c5.2-0.95,8.51-5.66,11.7-9.81c3.31-2.93,4.1-6.9,4.33-11.01
		c0.09-1.71-0.04-3.66-2.56-3.78c-1.25,0.81-0.98,2.11-1.13,3.31c-1.52,11.68-9,19.19-20.72,20.87c-1.31,0.19-2.81-0.08-3.66,1.37
		c1.34,1.38,1.73,2.85,0.81,4.71c-3.72,7.55-3.03,14.95-0.44,22.88c4.24,12.98,7.47,26.29,11.19,39.45
		c0.41,1.46,0.21,3.45,2.42,3.83c2.39-1.08,1.54-2.68,1.02-4.18"/>
	<path class="st29" d="M323.38,1183.31c-0.74-3.72-1.98-7.34-3.13-11.49"/>
	<path class="st30" d="M355.37,957.99c1.91-0.07,3.83-0.08,5.73-0.22c1.19-0.09,2.86-0.09,2.73-1.73c-0.14-1.79-1.79-1.19-2.95-1.12
		c-8.19,0.47-13.8-1.33-20.54-7.11c3.9,0.59,6.83,1.03,9.77,1.49c2.97,0.47,5.92,1.14,8.91,1.4c2.05,0.18,5.36,2.33,5.88-0.57
		c0.39-2.17-3.46-1.67-5.45-2.02c-9.69-1.74-19.4-3.32-29.1-4.95c-1.17-0.2-2.68,0-2.51-1.88c0.17-1.87,1.29-2.4,3.13-2.24
		c10.9,0.91,21.81,1.74,32.72,2.55c1.21,0.09,1.88,0.55,2.58,1.59c9.73,14.41,23.72,13.98,32.71-0.94c0.27-1.88,0.57-3.76,0.81-5.65
		c0.12-0.89-0.17-1.74-1.12-1.89c-0.96-0.14-1.42,0.53-1.51,1.49c-0.1,0.95-0.26,1.9-0.46,2.83c-1.58,7.18-7.79,11.89-15.25,11.6
		c-6.84-0.26-12.58-5.46-13.76-12.39c-0.21-1.24,0.38-3.23-1.41-3.41c-2.1-0.21-1.36,1.78-1.62,3.01c-0.4,1.96-2,0.96-3,0.89
		c-10.22-0.73-20.44-1.45-30.64-2.42c-3.13-0.3-5.05,0.57-5.81,3.63c-0.78,3.15,0.22,5.25,3.5,6.26c4.96,1.53,9.64,3.58,13.75,6.94
		C346.17,956.13,350.87,956.89,355.37,957.99z"/>
	<path class="st31" d="M401.37,943.76c-1.86,1.59-0.21,3.1,0.31,4.42c4.47,11.46,9.08,22.87,13.64,34.3c1.3,3.26,1.77,6.48-0.4,9.74
		c-1.66-1.04-2.1-2.71-3.06-3.97c-0.64-0.84-1.21-2.18-2.51-1.24c-1.21,0.87-0.35,1.94,0.23,2.87c0.94,1.51,1.84,3.05,2.82,4.53
		c0.95,1.44,1.33,3.05,1.15,4.69c-0.27,2.41-1.24,4.83-3.61,5.55c-2.34,0.71-2.96-1.96-3.98-3.39c-2.38-3.36-3.94-7.18-5.47-10.99
		c-0.39-0.96-0.8-2.36-2.25-1.7c-1.39,0.64-0.67,1.81-0.28,2.83c1.86,4.87,4.07,9.55,7.42,14.08c-3.64-0.12-5.3-2.29-6.38-4.95
		c-1.02-2.52-2.72-3.82-5.33-4.5c-4.23-1.1-8.39-2.49-12.55-3.83c-1.33-0.43-2.6-1.14-3.26,0.82c0.23,1.63,1.67,1.56,2.77,1.92
		c3.24,1.05,6.46,2.23,9.76,3.05c3.2,0.79,5.46,2.16,7.01,5.39c2.16,4.52,6.8,6.19,11.39,4.92c4.7-1.3,7.48-4.97,7.57-9.94
		c0.02-1.2-0.46-2.42,0.36-3.57c3.51-4.92,2.7-9.88,0.52-15.12c-4.4-10.57-8.49-21.27-12.71-31.92
		C403.87,946.11,403.36,944.35,401.37,943.76z"/>
	<path class="st32" d="M138.65,1195.71c-10.64,0.1-21.28,0.26-31.91,0.28c-22.66,0.04-45.33,0.02-67.99,0.01
		c-1.5,0-3-0.09-4.49-0.14c-1.68,1.15-1.59,2.14,0.37,2.73c0.76,0.23,1.63,0.07,2.45,0.07c47.48,0,94.96,0.02,142.44-0.05
		c1.44,0,4.99,1.34,2.95-2.76C167.86,1195.72,153.25,1195.92,138.65,1195.71z"/>
	<path class="st32" d="M312.03,1195.71c-10.64,0.1-21.28,0.26-31.91,0.28c-22.66,0.04-45.33,0.02-67.99,0.01
		c-1.5,0-3-0.09-4.49-0.14c-1.68,1.15-1.59,2.14,0.37,2.73c0.76,0.23,1.63,0.07,2.45,0.07c47.48,0,94.96,0.02,142.44-0.05
		c1.44,0,4.99,1.34,2.95-2.76C341.24,1195.72,326.63,1195.92,312.03,1195.71z"/>
	<path class="st33" d="M189.39,941.45c-14.39-4.21-24.44,0.28-30.1,13.71c-0.75,1.79-1.93,1.99-3.31,2.43
		c-7.33,2.35-12.05,7.26-13.94,14.7c-0.51,2.01-1.33,4.27,0.52,6.18c2.01,0.19,1.57-1.3,1.7-2.44c1.1-9.36,6.7-15.13,16.05-16.39
		c1.8-0.24,3.7-0.05,1.94-2.75c-0.82-1.25,0.19-2.35,0.7-3.41c6.04-12.52,22.34-14.68,32.1-3.99c-3.53,1.18-6.99,2.3-9.83,4.66
		c-5.11,4.25-8.07,9.57-8.32,16.27c-0.03,0.9-0.3,2.13,1.04,2.3c1.63,0.21,1.58-1.11,1.63-2.21c0.64-14.1,16.78-23.46,29.65-15.44
		c0.93,0.58,2.06,1.46,2.86,0.24c1.01-1.53-0.59-2.11-1.57-2.73c-0.8-0.51-1.67-1.2-2.55-1.27
		C200.3,950.75,195.22,945.4,189.39,941.45z"/>
	<path class="st34" d="M325.75,1189.78c-0.59,1.74,1.42,3.63-0.62,5.04c0.46,0.3,0.91,0.61,1.37,0.91"/>
	<path class="st19" d="M85.76,1150.18c1.58-0.72,1.45-2.12,1.45-3.5c-0.01-3.14,0.32-6.33-0.06-9.43
		c-0.88-7.17,1.73-13.37,4.65-19.59c0.8-1.7,1.49-2.2,3.36-1.41c3.42,1.43,7.08,2.05,10.81,2.14c1.36,0.03,2.86,0.26,3.08-1.74
		c-0.97-1.38-2.49-0.75-3.76-1.03c-4.1-0.9-8.68-0.27-11.82-4.26c-0.88-1.12-3.09-0.23-4.7-1.39c-8.18-5.94-13.24-13.66-14.59-23.73
		c-0.15-1.08-0.26-2.17-0.39-3.26c-0.13-1.05,0-2.55-1.53-2.35c-1.35,0.18-1.16,1.6-1.18,2.7c-0.03,2.77,0.52,5.45,1.24,8.08
		c2.43,8.96,7.56,16.05,15.35,21.03c2.3,1.47,2.68,2.76,1.31,4.84c-6.24,9.51-4.46,20.22-4.63,30.64
		C84.32,1149.04,84.87,1149.69,85.76,1150.18z"/>
	<path class="st19" d="M282.54,965.71c-6-2.5-12.21-2.7-18.53-1.74c-1.44,0.22-2.84,0.7-4.29-0.41c-7.98-6.12-16.13-5.58-24.36-0.31
		c-0.95-2.17-1.87-4.28-2.79-6.39c-2.85-2.4-5.7-4.76-9.87-3.66c-1.94,0.51-3.47,1.58-4.62,3.19c-0.4,0.56-0.55,0.46-0.02,1.06
		c0.55,0.63,1.33,1.42,1.81,0.89c2.45-2.71,5.21-3.44,8.36-1.34c3.15,2.1,4.05,5.33,4.13,8.9c0.02,1.14-0.99,2.62,0.56,3.3
		c1.89,0.83,2.14-1.21,2.92-2.13c5.12-6.04,14.74-6.99,21.51-1.71c2.07,1.61,3.79,2.03,6.27,1.51c4.72-0.99,9.52-1.11,14.24,0.14
		c4.09,1.08,7.43,3.34,9.98,6.77c0.64,0.87,1.2,2.66,2.74,1.4c1.35-1.1,0.08-2.23-0.59-3.18
		C288.07,969.26,285.48,967.28,282.54,965.71z"/>
	<path class="st16" d="M283.08,969.46c-3.53,3.12-5.86,6.94-6.63,11.63c0.3,1.07-0.16,2.81,1.71,2.65c1.47-0.13,1.14-1.63,1.35-2.64
		c1.4-6.96,4.69-10.18,11.9-11.58c1.06-0.2,2.49-0.02,2.28-1.59c-0.2-1.46-1.64-1.31-2.65-1.09c-3.85,0.84-3.2-1.22-2.49-3.58
		c2.52-8.38,9.64-14.37,18.32-15.36c1.2-0.14,2.49,0.13,3.54-0.74c0.19-3.11-2.1-2.32-3.66-2.13c-9.41,1.17-15.9,6.41-20.17,14.68
		c-0.56,2.48-1.23,4.95-1.64,7.45C284.73,968.4,284.27,969.15,283.08,969.46z"/>
	<path class="st35" d="M140.69,1084.9c1.09-0.37,3.36,0.8,3.36-1.49c0-1.94-2.07-1.25-3.3-1.31c-17.88-0.87-32.11-14.48-33.58-32.12
		c-0.1-1.24,0.48-3.24-1.51-3.17c-2.03,0.07-1.31,2.01-1.23,3.25C105.67,1068.96,121.66,1084.38,140.69,1084.9z"/>
	<path class="st36" d="M288.47,1092.97c10.68-0.41,20.98-5.71,28.44-16.27c0.69-0.98,2.34-2.22,0.57-3.41
		c-1.51-1.02-2.04,0.75-2.72,1.65c-11.74,15.4-28.46,19.43-45.81,11c-1.08-0.53-2.39-1.73-3.21-0.31c-1.01,1.75,0.97,2.24,2.05,2.84
		C273.53,1091.65,279.72,1093.09,288.47,1092.97z"/>
	<path class="st37" d="M343.34,1028.16c-0.09-15.14-9.24-29.03-22.79-34.5c-1.11-0.45-2.68-1.86-3.56-0.12
		c-0.98,1.93,1.17,2.04,2.27,2.57c17.2,8.22,24.52,24.03,19.74,42.71c-0.28,1.08-1.4,2.53,0.53,3c1.74,0.43,1.75-1.28,2.13-2.38
		C342.91,1035.78,343.37,1032.01,343.34,1028.16z"/>
	<path class="st38" d="M336.53,1096.49c4.41-3.27,7.86-7.36,10.54-12.12c-0.09-1.3,2.08-3.01-0.25-3.82
		c-1.84-0.64-1.93,1.5-2.49,2.61c-6.07,12.03-19.15,17.89-32.08,14.32c-0.13-0.04-0.26-0.07-0.4-0.11c-1.35-0.37-3.26-1.72-3.77,0.4
		c-0.45,1.89,1.9,1.91,3.23,2.3c6.51,1.9,12.98,1.7,19.3-0.8C332.64,1098.47,334.57,1097.42,336.53,1096.49z"/>
	<path class="st11" d="M347.47,1066.47c11.4-0.38,21.85-10.58,22.39-21.79c0.06-1.17,0.42-2.77-1.4-2.8
		c-1.48-0.02-1.28,1.43-1.44,2.49c-1.7,11.28-8.84,18.23-19.88,19.44c-1.18,0.13-3.28-0.62-3.01,1.56
		C344.37,1067.25,346.34,1066.28,347.47,1066.47z"/>
	<path class="st39" d="M351.27,913.36c-8.29-0.66-15.45,1.46-20.57,8.45c-2.29,3.13-3.92,6.55-3.9,10.56
		c2.41,0.3,2.74-1.28,3.3-3.15c2.93-9.83,12.95-15.23,22.82-12.61c0.99,0.26,2.52,2.16,3.36-0.12c0.9-2.45-1.57-1.93-2.65-2.54
		C352.94,913.58,352.06,913.55,351.27,913.36z"/>
	<path class="st40" d="M406.35,924.5c0.46,0.68,1.21,0.45,1.85,0.58c4.85,0.95,8.01,4.37,8.19,8.85c0.19,4.72-2.8,8.54-7.63,9.81
		c-1.15,0.3-3.33-0.4-2.97,1.73c0.31,1.84,2.25,1.09,3.47,0.92c6.15-0.86,10.67-7.13,9.81-13.46c-0.91-6.7-6.12-10.95-12.62-10.29
		C405.95,923.23,406.04,923.86,406.35,924.5z"/>
	<path class="st41" d="M361.26,1021.88c7.13-0.18,14.63-7.78,14.57-14.77c-0.01-0.99-0.02-2.13-1.15-2.33
		c-1.52-0.27-1.68,1.02-1.81,2.13c-0.85,7.05-4.85,10.99-11.83,12.03c-1.04,0.16-2.46,0.03-2.33,1.61
		C358.84,1022.05,360.16,1021.9,361.26,1021.88z"/>
	<path class="st15" d="M295.4,1118.89c1,0.95,2.1,0.47,3.18,0.21c4.07-2.16,8.29-4.1,11.52-7.55c1.59-1.71,2.89-3.58,3.79-5.75
		c0.32-0.77,0.14-1.3-0.41-1.79c-0.63-0.56-1.41-0.5-1.73,0.18c-3.2,6.78-9.33,9.95-15.67,12.89
		C295.37,1117.41,295.47,1118.22,295.4,1118.89z"/>
	<path class="st26" d="M138.65,1195.71c14.61,0.41,29.22,0.42,43.82,0.13c-8.93-0.95-17.88-0.35-26.82-0.32
		c-3.66,0.01-5.25-0.86-4.81-4.72c0.26-2.27-0.05-4.61-0.1-6.92c-3.54,0.08-3.38,2.72-3.14,4.99c0.22,2.11,1.04,4.16,1.63,6.31
		C145.69,1195.36,142.17,1195.53,138.65,1195.71z"/>
	<path class="st42" d="M372.06,905.69c-1.44-0.09-2.67-0.17-2.74,1.37c-0.06,1.28,1.01,1.4,2,1.49c6.23,0.54,10.32,3.85,12.37,9.7
		c0.48,1.37,1.38,2.29,2.67,1.77c1.07-0.43,0.36-1.7,0.12-2.56C384.76,911.14,378.1,905.84,372.06,905.69z"/>
	<path class="st43" d="M406.35,924.5c0.04-0.62,0.08-1.24,0.11-1.85c-2.15-0.19-1.34-2.05-1.66-3.16
		c-1.67-5.7-6.97-10.15-12.38-10.22c-1.05-0.02-2.41-0.32-2.47,1.27c-0.05,1.22,1.03,1.3,2.03,1.45c5.97,0.86,9.75,4.21,10.32,10.27
		C402.61,925.63,405.09,923.63,406.35,924.5z"/>
	<path class="st26" d="M150.04,1160.05c-2.34-0.36-3.09,1.45-2.98,2.97c0.3,3.99,1.07,7.95,1.65,11.93
		c0.44-0.01,0.88-0.02,1.31-0.02c0-4.73,0-9.45,0-14.18C150.08,1160.51,150.08,1160.28,150.04,1160.05z"/>
	<path class="st26" d="M150.69,1180.59c-0.13-0.02-0.27-0.05-0.4-0.04c-1.36,0.11-2.21-2.49-3.85-0.75
		c-0.4,0.43-0.42,1.06,0.09,1.41c1.25,0.86,2.37,2.44,4.19,1.05C150.71,1181.7,150.7,1181.15,150.69,1180.59z"/>
	<path class="st26" d="M150.12,1157.58c-1.77-1.03-0.91-3.06-1.71-4.46c-0.03,0.41,0.11,0.99-0.11,1.2
		c-3.08,2.96-0.62,3.92,1.74,4.94C150.06,1158.69,150.09,1158.13,150.12,1157.58z"/>
	<path class="st26" d="M122.86,1125.23c-3.36,5.11-0.7,9.93,0.89,14.7c5.49,16.47,10.93,32.95,13.37,50.24
		c0.05,0.39,0.33,0.75,0.49,1.12c3.05-2.37,2.74-4.81,1.17-8.2c-1.45-3.12-3-6.59-1.53-10.55c0.61-1.64,2.31-4.91-1.88-5.55
		c-0.5-0.08-0.77-0.84-0.46-1.37c1.47-2.56-0.43-4.71-0.98-6.94c-0.55-2.26,0.14-3.73,2.04-4.11c2.15-0.44,3.32,1.28,3.23,3.25
		c-0.14,3.36,0.41,6.39,2.19,9.32c0.62,1.02,0.64,2.81,0.2,3.98c-1.79,4.8-0.29,9.69-0.65,14.51c-0.12,1.56,0.18,3.06,2.33,3.01
		c-1.06-6.57-1.17-13.1-0.04-19.64c0.24-1.41,0.67-2.6,1.72-3.59c0.62-0.58,1.2-1.88,0.59-2.12c-5.67-2.31-1.43-7.18-2.77-10.7
		c-1.66-4.37,1.92-7.01,5.49-8.98c-0.07-6.29-0.03-12.58-0.25-18.86c-0.08-2.46,0.46-4.45,1.96-6.42c2.97-3.88,5.71-7.94,8.95-12.48
		c-4.57,1.29-8.49,2.44-12.6,2.42c-1.06-0.01-1.8,0.6-2.55,1.17C136.8,1114.7,129.83,1119.97,122.86,1125.23z"/>
	<path class="st44" d="M387.48,958.76c-2.34,0.25-3.88,1.45-3.85,3.9c0.02,2.19,1.32,3.62,3.56,3.73c2.42,0.12,4-1.23,4.1-3.6
		C391.37,960.43,389.89,959.06,387.48,958.76z"/>
	<path class="st26" d="M279.82,1194.57c0.37,1.36,1.45,1.4,2.56,1.38c5.11-0.08,10.21-0.16,15.32-0.24c-0.98-4.43-1.57-9-4.74-12.61
		c-1.88,0.27-2.24-0.96-2.59-2.42c-3.49-14.49-7.06-28.95-10.5-43.45c-0.98-4.13,1.47-7.69,2.55-11.44
		c0.81-2.81,0.99-4.03-2.61-4.26c-10.07-0.63-18.08-5.64-25.53-13.71c2.6,13.13,2.82,25.56,7.98,37.11
		c3.73,8.35,6.63,17.07,9.85,25.65c0.49,1.31,1.6,2.69,0.27,4.16C274.63,1181.44,276.94,1188.11,279.82,1194.57z"/>
	<g>
		<g>
			<path class="st67" d="M201.33,931.15l94.31-12.17c0,0-26.21,21.17-45.09,23.94c-18.87,2.77-48.58,4.91-48.58,4.91L201.33,931.15z
				"/>
		</g>
		<path class="st68" d="M229.73,928.14l96.31-14.59c0,0-27.16,22.32-46.44,25.59c-19.28,3.27-49.58,6.12-49.58,6.12L229.73,928.14z"
			/>
	</g>
	<path class="st47" d="M207.53,858.34c-1.67,2.12-0.33,3.71,0.87,5.42c9.66,13.77,19.29,27.56,28.92,41.36
		c0.54,0.78,0.96,1.64,1.44,2.47c6.72,10.36,10.21,21.53,9.18,34.03c-0.58,7.06-2.12,8.62-9.13,7.85c-6.77-0.74-11-4.88-14.16-10.49
		c-1.75-3.61-1.47-7.51-1.68-11.35c1.58-4.67,0.36-9.28-0.1-14.2c-0.95,0.93-0.57,2.03-1.19,2.73c-0.65,0.78-1.42,0.5-2.19,0.27
		c-2.84-1.37-4.13-4.27-6.25-6.35c-9.14-8.98-18.15-18.08-27.22-27.13c-1.55-1.55-3.02-3.13-4.03-5.1c-1.2-1.76-2.66-3.25-4.48-4.37
		c-0.09-1.4,0.79-2.28,1.74-3.06c7.13-5.88,15.15-10.07,24.11-12.38C204.67,857.7,206.24,856.91,207.53,858.34z"/>
</g>
</svg>
