<?xml version="1.0" encoding="utf-8"?>
<!-- Generator: Adobe Illustrator 24.3.0, SVG Export Plug-In . SVG Version: 6.00 Build 0)  -->
<svg version="1.1" id="Layer_1" xmlns="http://www.w3.org/2000/svg" xmlns:xlink="http://www.w3.org/1999/xlink" x="0px" y="0px"
	 viewBox="0 0 1920 1926.28" style="enable-background:new 0 0 1920 1926.28;" xml:space="preserve">
<style type="text/css">
	.st0{fill:#019267;stroke:#019267;stroke-width:1.0897;}
	.st1{fill:#DFD3A3;}
	.st2{fill:#C9954F;}
	.st3{fill:#377C63;}
	.st4{fill:#463A3E;}
	.st5{fill:#899452;}
	.st6{fill:#F49075;}
	.st7{fill:#EFB53B;}
	.st8{fill:#C9944F;}
	.st9{fill:#377D63;}
	.st10{fill:#B4B080;}
	.st11{fill:#7C522B;}
	.st12{fill:#7A522A;}
	.st13{fill:#7A512A;}
	.st14{fill:#1D181A;}
	.st15{fill:#784D28;}
	.st16{fill:#F39075;}
	.st17{fill:#B3AF7F;}
	.st18{fill:#B5B082;}
	.st19{fill:#B4AF7F;}
	.st20{fill:#1B1516;}
	.st21{fill:#ED9274;}
	.st22{fill:#F49175;}
	.st23{fill:#0F4C13;}
	.st24{fill:#DFD2A3;}
	.st25{fill:#425049;}
	.st26{fill:#0F0C0D;}
	.st27{fill:#899451;}
	.st28{fill:#45393D;}
	.st29{fill:#104C14;}
	.st30{fill:#1B1618;}
	.st31{fill:#43393B;}
	.st32{fill:#FBFBFB;}
	.st33{fill:#E36746;}
	.st34{fill:#E16746;}
	.st35{fill:#524042;}
	.st36{fill:#473B3D;}
	.st37{fill:#554142;}
	.st38{fill:#473A3B;}
	.st39{fill:#784F27;}
	.st40{fill:#754A22;}
	.st41{fill:#8C643A;}
	.st42{fill:#57947D;}
	.st43{fill:#887668;}
	.st44{fill:#443A3D;}
	.st45{fill:#377860;}
	.st46{fill:#45403B;}
	.st47{fill:#43383C;}
	.st48{fill:#FCF0DA;}
	.st49{fill:#A76D3C;}
	.st50{fill:#A66D3B;}
	.st51{fill:#EEE4C1;}
	.st52{fill:#A3AEC2;}
	.st53{fill:#E5DBB8;}
	.st54{fill:#6B3C1A;}
	.st55{fill:#C0D2D8;}
	.st56{fill:#F4AE8C;}
	.st57{fill:#DAD0AD;}
	.st58{fill:#AEC2CB;}
	.st59{fill:#412822;}
	.st60{fill:#C68D57;}
	.st61{fill:#371E18;}
	.st62{fill:#181E28;}
	.st63{fill:#E09A78;}
	.st64{fill:#935927;}
	.st65{fill:#181F28;}
	.st66{fill:#A76D3B;}
	.st67{fill:#D0C6A4;}
	.st68{fill:#BC834D;}
	.st69{fill:#9C7441;}
	.st70{fill:#87929D;}
	.st71{fill:#A47845;}
	.st72{fill:#E09C7B;}
	.st73{fill:#5A4A46;}
	.st74{fill:#504644;}
	.st75{fill:#A4AEC2;}
	.st76{fill:#E09A79;}
	.st77{fill:#DAD0AE;}
	.st78{fill:#544A47;}
	.st79{fill:#625851;}
	.st80{fill:#FAECD6;}
	.st81{fill:#F9E8CD;}
	.st82{fill:#F8E7CE;}
	.st83{fill:#DBD0AE;}
	.st84{fill:#59504C;}
</style>
<g>
	<path class="st0" d="M2260.47,4982.36c-263.72,26.26-843.35,43.63-1052.1-96.89c-260.94-175.65-662.82-246.84-809.96-220.42
		s-532.74,65.05-643.49,1.75c-88.6-50.64,13.31-205.48,77.57-254.33c742.87,44.96,1803.57,11,1847.9,10.88
		c472.29-1.28,631.38,70.25,619.04,186.66C2289.55,4703.14,2269.34,4897.05,2260.47,4982.36z"/>
	<path class="st0" d="M2262.95,4032.28c-263.72-26.26-843.35-43.64-1052.11,96.89c-260.93,175.65-662.81,246.84-809.96,220.42
		s-532.74-65.05-643.49-1.75c-88.6,50.65,13.31,205.48,77.57,254.32c742.87-44.96,1803.58-11,1847.91-10.88
		c472.29,1.28,631.37-70.25,619.03-186.66C2292.03,4311.5,2271.82,4117.6,2262.95,4032.28z"/>
</g>
<g>
	<path class="st1" d="M1632.71,4230.18h41.75h14.19l-0.99-8.48c0,0-12.54-15.4-26.57-14.14c-14.03,1.27-20.63-20.1-20.63-20.1"/>
	<rect x="1675.14" y="3979.44" class="st2" width="29.27" height="15.17"/>
	<path class="st1" d="M1849.75,4190.05c-0.43,1.24-0.13,2.52,0.28,3.61c2.36,6.35,2.09,12.68,0.49,19.14
		c-3.43,13.84-2.11,27.82-0.85,41.77c0.61,6.82-0.31,13.55-2.23,20.04c-3.28,11.06-6.02,22.31-10.27,33.04
		c-3.7,9.34-10.08,15.87-20.57,17.55c-8.47,1.35-15.75,6.11-23.78,8.72c-3.34,1.83-6.98,2.02-10.61,1.65
		c-3.5-0.35-6.99-0.84-10.45-1.52c-1.02-0.55-2.43-0.61-2.61-2.21c-0.07-0.61,1.2-0.68,0.7-0.67c-3.57,0.07-2.75-2.58-2.95-4.49
		c-0.52-4.95-0.54-9.76,2.44-14.23c1.64-2.46,1.8-5.6,2.15-8.56c-0.6,6.51-3.83,12.02-6.65,17.69c-0.08,0.15-0.57,0.21-0.16,0.54
		c1.53,1.28,2.62,7.59,1.2,9.25c-2.07,2.42-1.61,5.03-1.37,7.72c0.39,4.78-2.55,8.08-5.24,11.41c-2.57,3.18-5.9,5.57-9.25,7.9
		c-1.51,1.04-3.01,2.09-4.58,3.03c-4.18,2.51-8.53,3.46-13.28,1.6c-2.84-1.11-5.76-2.03-8.78-2.57c-3.4-0.57-6.82-0.3-10.22-0.24
		c-4.2,0.07-8.27-0.43-12.26-1.71c-3.4-1.33-6.67-3.02-10.28-3.77c-4.98-2.6-10.28-2.7-15.47-1.27c-7.71,2.12-15.36,2.14-22.96,0.05
		c-8.63-2.38-16.96-2.87-25.73,0.02c-6.54,2.16-13.42,0.72-19.82-2c-6.26-4-11.2-9.48-16.33-14.75c-0.77-0.79-1.56-1.59-1.7-2.77
		c0.05-1.69,1.43-2.51,2.43-3.54c3.7-3.84,6.62-8.14,8.25-13.25c-2.31,6.22-5.97,11.51-11.06,15.79c-0.89,0.74-1.65,1.46-1.72,2.68
		c-1.27,2.81-3.57,5-4.71,7.89c-0.75,0.21-1.19-1.04-2.38,0.12c-4.05,3.96-8.88,6.98-13.71,9.92c-1.42,0.65-2.49,1.82-3.83,2.59
		c-0.43,0.24,0.12-0.04-0.32,0.19c-7.63,4.01-7.99,4.29-13.13-2.45c-4.27-5.6-8.59-11.27-11.8-17.63c-0.85-1.2-1.46-2.71-2.58-3.56
		c-5.14-3.89-7.06-9.5-8.92-15.31c-2.24-7.01-4.48-14.04-9.02-20.08c-2.59-3.44-5.79-5.66-9.98-6.36
		c-6.92-1.17-12.91-3.81-17.05-9.84c-1.96-2.86-5.24-4.42-7.46-7.12c-3.04-3.69-4.05-8.03-3.5-12.42c0.62-4.9,0.57-9.41-1.69-13.93
		c-2.92-5.87-0.86-11.07,3.06-15.62c2.93-3.4,4.7-6.6,3.76-11.57c-1.34-7.07,2.44-12.55,7.79-16.91c6.82-5.56,14.73-9.33,22.4-13.49
		c1.02,2.24-0.95,3.42-1.93,4.74c-1.55,2.08-3.11,4.15-4.46,6.34c-1.37,2.23-2.26,4.59-1.23,7.37c1.17,3.15-0.31,5.84-2.15,8.22
		c-3.73,4.83-4.63,9.79-1.89,15.5c2.46,5.13,4.19,10.46,3.41,16.42c-0.32,2.43,0.13,5.17,1.77,7.15c-1.37-2.8-2.01-5.92-1.65-9.25
		c0.58-5.4-1.49-10.22-3.67-14.91c-2.49-5.34-1.53-10.02,1.82-14.53c2.2-2.96,3.82-5.93,2.19-9.9c-0.96-2.33,0.57-4.52,1.76-6.56
		c1.69-2.88,4.03-5.3,5.78-8.13c0.87-1.42,2.2-2.71,1.88-4.63c2.57-0.76,4.12-2.67,5.8-4.66c10.9-12.85,24.32-21.92,40.6-26.68
		c7.76-2.27,15.31-5.2,23.23-6.93c2.16-0.47,4.47,0.24,6.49-1c1.1,0.91,1.14,2.19,1.01,3.4c-1.24,11.64-1.69,23.33-2.5,35
		c-0.89,12.77-3.35,25.42-2.65,38.31c0.22,4.11,0.78,8.09,2.17,11.95c4.23,11.66,14.77,16.6,26.44,12.28
		c8.24-3.05,14.61-8.49,19.56-15.73c3.05-4.47,5.57-9.31,9.34-13.27c1.77-0.89,2.5,0.3,2.97,1.63c1.49,4.2,4.91,5.98,8.79,7.24
		c3.12,1.35,6.59,1.56,9.66,2.61c0.21,1.35-0.62,1.45-1.26,1.74c-0.69,0.31-2.02,0.18-1.45,1.5c0.45,1.05,1.43,1.75,2.66,1.5
		c1.19-0.24,0.9-1.19,0.79-2.06c-0.3-2.47-2.31-4.67-1.12-7.37c3.06-2.78,4.89-2.58,8.3,0.85c0.49,0.71,0.87,1.48,1.09,2.33
		c0.22,0.87,0.35,1.77-0.58,2.3c-1.08,0.62-1.53-0.36-2.05-0.99c-0.47-0.57-0.79-1.25-1.37-1.73c-0.39-0.33-0.87-0.58-1.35-0.37
		c-0.77,0.34-0.52,1.04-0.34,1.6c0.33,1.06,0.93,2.01,1.18,3.11c0.93,4.12-0.72,6.2-4.96,6.05c-3.46-0.12-6.87,0.13-11.03,0.98
		c4.9,1.92,9.66-0.13,14.33,2.07c-3.1,2.62-6.9,1.99-9.74,3.84c4.05,1.53,8.06,0.51,12.06,0.24c1.52-0.1,1.91-1.25,2.52-2.35
		c3.07-5.56,8.38-5.78,11.35-0.3c1.23,2.26,2.9,2.02,4.66,1.87c9.57-0.85,19.15-1.58,28.6-3.4c1.33-0.26,2.65-0.6,4.03-0.48
		c2.58,1.23,2.67,3.98,3.66,6.14c2.39,5.23,2.99,5.57,8.39,3.77c28.3-9.47,56.26-19.84,83.86-31.2c0.91-0.38,1.82-0.77,2.71-1.19
		c11.08-5.24,13.31-9.57,11.31-21.74c-1.05-6.35-2.88-12.49-4.68-18.64c-0.42-1.46-1.37-3.06,0.36-4.39c1.09-0.3,1.91,0.28,2.7,0.87
		c3.69,2.73,7.8,4.63,12.12,6.13C1846.28,4184.02,1849.19,4185.93,1849.75,4190.05z"/>
	<path class="st3" d="M1645.41,4220.57c-3.45,5.11-6.84,10.25-10.35,15.32c-4.16,6.01-9.59,10.58-16.23,13.61
		c-15.09,6.89-28.49,0.13-31.9-16.09c-1.67-7.94-1.54-16-0.51-23.94c1.58-12.23,2.29-24.52,3.26-36.79
		c0.63-7.98,1.03-15.98,1.53-23.97c1.02-16.28,3.07-32.38,8.15-47.97c1.72-5.28,3.6-10.48,6.14-15.43
		c5.81-11.31,16.43-14.92,27.78-17.24c3.98-0.82,8.05-1.18,12.13-1.1c9.83-0.77,9.74-0.73,13.2,8.38
		c3.95,10.39,5.43,21.17,5.66,32.2c0.23,10.71-0.7,21.38-1.11,32.07c-0.41,1.37-1.64,1.62-2.79,1.94c-1.49,0.42-2.46,1.42-3.18,2.73
		c-2.98,1.59-6.28,1.54-9.51,1.84c-3.83-1.14-6.97-3.59-10.4-5.5c-1.52-0.85-1.61-2.29-1.57-3.85c0.19-7.76,1.28-15.45,1.59-23.2
		c-0.52,7.72-1.45,15.41-1.63,23.15c-0.07,3.15-2.02,5.55-3.58,7.97c-6.01,9.32-11.74,18.8-15.03,23.82
		c3.63-5.73,10.08-15.69,16.24-25.83c1.24-2.03,2.8-2.43,5-1.29c3.26,1.69,6.16,4.08,9.79,5.03c3.44,0.9,5.66,3.71,8.57,5.44
		c5.22,4.11,10.58,8.03,15.91,12c4.77,4.11,5.09,5.11,1.74,10.46c-7.14,11.44-13.61,23.29-20.93,34.63
		c-2.19,2.51-3.11,5.78-5.1,8.41C1647.42,4218.51,1646.85,4219.93,1645.41,4220.57z"/>
	<path class="st3" d="M1828.19,4175.87c-1.47,1.29-0.16,2.53,0.19,3.67c2.42,7.9,4.69,15.81,5.41,24.11
		c0.63,7.22-1.99,12.5-8.44,15.82c-9.45,4.87-19.44,8.49-29.35,12.26c-20.63,7.85-41.25,15.71-62.28,22.45
		c-5.34,1.71-5.77,1.52-8.14-3.57c-1.09-2.34-2.05-4.73-3.07-7.1c-2.71-3.35-3.07-7.6-4.37-11.49c-0.42-1.27-0.7-2.59-0.98-3.9
		c-0.28-1.83-0.71-3.63-1.05-5.45c-0.77-4.21-0.39-5.18,3.48-6.99c8.16-3.81,16.62-6.9,24.92-10.37c11.03-4.61,22.15-9,33.21-13.55
		c1.14-0.47,2.26-1.03,3.55-0.7c4.09-0.59,7.39-3.11,11.12-4.56c3.32-1.29,6.49-2.92,9.76-4.32c-6.89,2.78-13.54,6.12-20.42,8.91
		c-3.67-3.99-6.44-8.66-9.75-12.93c-5.36-6.9-10.66-13.86-15.68-21.03c-1.77-2.95-5.38-5.1-4.08-9.38c0.46-0.98,1.36-1.3,2.33-1.45
		c1.3-0.19,2.7-0.19,3.04-1.93c0.33-1.67-0.35-2.75-1.81-3.49c-0.32-0.16-0.47-0.53-0.65-0.85c-0.98-4.14-0.24-8.35-0.5-12.51
		c-1.04-16.58-1.8-33.2-6.69-49.26c-0.79-2.6-1.63-5.16-2.75-7.64c-0.58-1.29-1.58-2.6-0.55-4.14c6.42-0.36,12.71,1,19.06,1.5
		c12.3,0.89,22.82,4.58,28.62,16.78c5.2,10.93,9.74,22.14,14.77,33.13c0.31,1.47,0.7,2.93,0.24,4.45c-0.17,0.37-0.43,0.64-0.78,0.84
		c-3.19,1.08-6.54,0.16-9.79,0.85c-5.65,1.21-10.91,3.43-16.05,5.97c-4.29,2.42-8.79,4.51-12.69,7.56
		c-1.22,0.96-2.97,1.94-2.67,3.71c0.33,1.9,2.4,1.87,3.89,2.25c8.83,2.24,17.84,2.16,26.84,1.74c3.47-0.16,6.67-1.6,9.8-3.14
		c2.42-1.19,4.7-2.72,7.31-3.53c0.66,0,1.25,0.24,1.55,0.82c0.78,1.56,1.69,2.38,3.41,1.11c0.57-0.42,1.43-0.68,1.94,0.16
		c0.36,0.59,0.03,1.29-0.39,1.68c-2.63,2.42-1.72,4.99-0.65,7.77C1822.31,4158.66,1825.25,4167.27,1828.19,4175.87z"/>
	<path class="st4" d="M1806.97,4121.97c0.1-1.19-0.84-2.34-0.16-3.56c-0.07-2.6,1.69-3.61,3.78-4.32c0.87-0.02,1.64,0.37,2.45,0.59
		c3.92,1.08-6.83,5.99-5.95,2.02c0.29-1.3,13.08-8.87,14.6-9.49c12.56-5.85,25.54-8.69,39.45-6.12c14.04,2.6,28.16,4.84,42.03,8.31
		c1.43,0.36,2.84,0.8,4.24,1.26c8.8,2.88,10.83,5.79,8.26,14.46c-1.05,3.53-4.05,6.7-7.66,8.55c-2.17,1.11-3.66,2.76-5.18,4.57
		c-9.94,11.84-20.54,22.97-34.34,30.48c-9.17,4.72-18.47,6.06-28.03,1.02c6.25,3.24,12.74,4.27,19.56,2.24
		c0.98-0.29,1.93-0.43,2.64,0.55c-5.41,5.03-10.19,10.52-12.93,17.53c-1.86-3.94-5.21-5.88-9.2-7.13
		c-4.61-1.44-8.75-3.79-12.35-7.04c-3.69-3.56-3.56-8.75-5.53-13.06c-2.29-5-3.68-10.42-5.75-15.53c-1.34-3.3,1.69-4.21,2.94-6.42
		c-1.95-0.13-2.39,2.61-3.89,2.1c-1.61-0.55-1.19-2.84-2.38-3.95c0.92-1.96,0.92-1.96,4.65-4.81c-4.86-0.24-9.2,0.09-13.47-0.72
		c-3.03-0.57-6.06-1.05-9.01-2.02c-4.13-1.35-8.33-2.31-12.74-1.55c-0.97,0.17-1.97,0.3-2.8-0.48c8.21-4.8,16.94-7.53,26.56-6.75
		c4.28,0.03,8.5,1.24,12.8,0.64c0.08-0.45,1.76,0.45,0.77-1.02c-1.35-2-1.04-3.96,0.72-5.64c1.88-1.8,3.92-3.86,6.26-2.1
		c-1.61-1.39-3.31-0.31-5.15,0.86c-1.92,1.22-3.03,2.8-2.68,5.2c0.13,0.9,0.77,1.94-0.47,2.62
		C1814.91,4123.64,1810.89,4123.26,1806.97,4121.97z"/>
	<path class="st5" d="M1469.76,4364.22c-0.09-3.2-0.07-6.41-0.3-9.6c-0.18-2.57,0.93-3.88,3.33-4.47
		c6.23-1.54,12.53-2.66,18.95-2.86c1.62-0.05,3.16-0.25,4.67-0.81c4.93-1.91,10.11-1.64,15.23-1.54c4.37,0.08,8.72,0.84,13.1,0.19
		c3.87-0.03,7.74-0.06,11.61-0.09c1.02,0.89,0.72,1.99,0.43,3.04c-1.36,4.93-2.69,9.86-4.77,14.55c-0.98,1.49-2.04,2.94-2.13,4.83
		c-0.37,2.19-1.41,4.17-2.02,6.28c-0.14,0.78-0.29,1.56-0.53,2.32c-4.97,13.77-3.33,27.6-0.57,41.48c0.46,2.32,1.74,4.73,0.03,7.1
		c-5.43,1.68-11.05,1.09-16.48,0.61c-7.12-0.64-14.26-0.35-21.38-1.13c-9.11-1-9.35-0.87-11.54-9.78c-0.12-0.48-0.23-0.96-0.33-1.44
		c-2.72-14.1-5.63-28.18-7.28-42.47C1469.55,4368.35,1469.17,4366.29,1469.76,4364.22z"/>
	<path class="st6" d="M1671.16,4066.43c0.02-3.19,0.05-6.38,0.07-9.57c0.45-1.7,2.01-2.43,3.13-3.53c3.68-3.62,4.33-7.86,1.75-12.37
		c-1.16-2.04-2.67-3.84-4.29-5.54c-1.64-1.72-2.8-3.72-3.65-5.94c-1.07-2.79-0.78-5.39,1.28-7.56c1.92-2.03,4.43-1.96,6.9-1.29
		c6.67,1.8,6.67,1.83,8.27-5.14c2.24-9.71,7.24-13.61,17.19-13.87c6.81-0.18,13.52,0.44,20.2,1.68c0.48,0.09,0.97,0.17,1.46,0.23
		c6.62,0.77,6.65,0.76,7.74,7.28c1.07,6.41,2.23,12.82,1.56,19.38c-0.04,5.51,0.23,11.05-0.19,16.53
		c-0.56,7.25-2.97,13.83-8.89,18.63c-1.86,2.47-4.78,2.92-7.4,3.97c-7.19,0.27-14.08-1.29-21.02-3.57
		c6.42,2.69,13.18,2.95,19.75,4.18c0.92,1.47-0.02,2.59-0.74,3.7c-5.3,8.17-15.89,12.09-25.28,9.11c-4.91-1.56-9.68-3.57-14.17-6.17
		C1672.95,4073.41,1670.56,4070.47,1671.16,4066.43z"/>
	<path class="st7" d="M1469.76,4364.22c1.64,5.78,1.7,11.81,2.72,17.69c1.68,9.65,3.29,19.31,5.35,28.89
		c0.13,0.59,0.05,1.23,0.06,1.84c-1.08,1.2-2.56,1.54-4.02,1.55c-2.92,0.02-3.73,1.57-3.74,4.23c-0.02,7.99,0.38,15.99-0.7,23.96
		c-0.2,1.46-0.07,2.97-1.17,4.16c-1.28,6-2.89,11.85-6.94,16.72c-3.12,3.76-7.06,5.95-11.84,6.74c-2.11,0.35-3.9-0.05-4.96-2.15
		c-0.63-1.62-1.12-3.3-1.06-5.03c0.29-7.89-0.74-15.73-0.84-23.6c-0.28-22.63-1.32-45.24-1.76-67.87c-0.02-1.25-0.15-2.48,0.95-3.4
		C1450.99,4365.74,1460.4,4365.14,1469.76,4364.22z"/>
	<path class="st8" d="M1752.6,3995.2c-0.93,3.45-2.17,6.76-4.24,9.71c-1.49-1.54-1.03-3.49-0.97-5.27
		c0.42-12.6-9.98-21.96-22.51-22.65c-9.05-0.49-17.55,1.86-25.85,5.15c-1.14,0.45-2.2,1.13-3.48,1.14c-0.9-0.04-1.57-0.53-2.22-1.11
		c-1.69-1.54-3.65-2.05-5.68-0.92c-1.97,1.1-2.77,2.96-2.5,5.23c0.06,0.49-0.01,0.97-0.16,1.44c-1.42,2.34-3.88,3.38-6.03,4.77
		c-9.1,5.86-17.22,12.78-23.55,21.63c-5.37,7.5-9.69,15.47-10.74,24.86c-0.16,1.44-0.37,2.96-1.47,4.1
		c-4.82-3.53-7.96-8.21-9.61-13.93c2.57-9.45,7.06-17.87,13.57-25.21c3.17-4.43,7.29-7.92,11.24-11.59
		c5-4.19,10.41-7.79,16.16-10.87c-5.85,3.03-11.23,6.77-16.33,10.91c-3.92,3.83-8.2,7.31-11.37,11.87
		c-5.62,6.18-9.39,13.42-12.26,21.19c-0.37,1.01-0.49,2.12-1.23,2.98c-2.17-7.22-0.83-14.15,2.02-20.84
		c5.81-13.65,16.1-23.39,28.08-31.58c2.33-1.59,4.69-3.14,7.04-4.7c3.76-2.43,7.22-5.5,12.03-5.72c12.19-4.65,24.66-7.81,37.85-6.86
		c9.54,0.69,18.49,3.14,25.64,9.93c7.24,6.88,9.35,15.31,6.95,24.94c-0.93-3.51-1.5-7.11-3.13-10.43
		c-4.91-10.06-13.27-14.83-24.07-15.87c-10.92-1.06-21.25,1.53-31.4,5.22c-1.62,0.59-3.26,1.11-4.88,1.74
		c9.33-3.68,18.89-6.66,28.95-7.15c15.47-0.76,28.45,4.98,33.23,20.99C1752.37,3990.56,1752.24,3992.9,1752.6,3995.2z"/>
	<path class="st4" d="M1526.81,4424.37c-1.13-7-2.51-13.96-3.32-21c-1.11-9.57-0.76-19.06,3.29-28.07c7.17-0.44,7.19-0.45,4.41-7.35
		c-0.55-1.36-0.8-2.64,0.5-3.65c1.29-0.99,2.52-0.54,3.65,0.43c0.65,0.56,1.1,1.29,1.57,1.72c-1-2.32-3.48-2.74-5.67-3.62
		c1.56-5.98,4.23-11.63,5.12-17.8c0.09-2.9,0.19-5.8,0.28-8.69c3.26,3.04,5.28,7,7.86,10.55c0.93,1.29,1.77,2.65,2.61,4
		c1.7,2.74,3.86,5.21,6.36,7.07c3.38,2.53,5.22-2.31,8.19-2.49c1.07,1.21,0.32,2.28-0.25,3.37c-1.38,2.61-2.82,5.18-4.42,7.66
		c-0.91,1.41-1.41,2.82-1.09,4.48c-1.56,3.24-2.43,6.7-3.31,10.15c-0.76,2.97-1.36,5.87-4.07,8.01c-1.75,1.38-1.94,3.68-0.54,5.69
		c1.3,1.86,1.43,3.87,1.1,6c-1.34,8.66-0.53,17.36-0.46,26.05c0.01,0.75,0.32,1.44,0.47,2.16c0.9,5.67,1.71,11.34,2.67,17
		c0.24,1.42,0.72,2.89-0.32,4.22c0.04,5.23,2.58,9.17,6.04,12.9c3.26,3.5,1.52,7.56-3.3,8.17c-1.8,0.23-3.67-0.09-5.5-0.2
		c-8.74-0.5-11.05-2.9-11.69-11.73c-0.28-3.81-2.15-7.2-3.39-10.76c-0.44-0.24-0.84-0.56-0.99-1.03c-2.47-7.27-4.77-14.6-6.07-22.19
		C1526.46,4425.05,1526.65,4424.7,1526.81,4424.37z"/>
	<path class="st5" d="M1771.38,4333c7.1,1.29,14.23,2.12,21.44,0.92c-1.27,4.41-2.53,8.82-3.8,13.22
		c-0.64,5.22-1.49,10.37-4.43,14.9c-4.16,13.12-8.24,26.26-12.5,39.35c-2.32,7.13-4.87,14.21-8.75,20.69
		c-0.18,1.61-1.34,2.32-2.7,2.59c-3.63,0.71-7.21,0.68-10.52-1.33c-0.86-1.6-0.74-3.35-0.71-5.07c0.15-8.12-0.39-16.25,0.62-24.36
		c0.6-4.79-0.43-9.59-0.92-14.35c-0.63-6.04-0.32-12.06-0.42-18.09c-0.02-1.4,0.39-2.67,1.14-3.84c4.93-4.03,10.16-7.78,12.85-13.9
		c0.65-1.48,1.33-2.91,1.31-4.56c-0.01-0.17-0.02-0.34-0.03-0.51c-0.11-3.07,2.4-4.3,4.2-6.03
		C1769.23,4332.71,1770.31,4332.78,1771.38,4333z"/>
	<path class="st9" d="M1675.01,4076.08c3.95,1.63,7.91,3.27,11.87,4.88c11.13,4.53,22.8,0.1,28.27-10.73
		c0.15-0.72,0.8-1.1,1.16-1.68c2.47-1.08,4.93-2.15,7.4-3.23c1.79,0.19,3.59,0.38,5.39,0.57c3.15,7.83,5.39,15.9,6.46,24.28
		c-0.22,1.46-1.32,2.33-2.27,3.27c-15.59,15.61-31.18,31.21-46.79,46.8c-0.87,0.87-1.68,1.81-2.87,2.29
		c-0.96,0.3-1.9,0.24-2.82-0.18c-0.94-0.75-2.19-1.15-2.7-2.39c-0.27-6.42,0.71-12.77,1.24-19.13c1.08-12.93,0.18-25.58-3.59-38.02
		C1675.11,4080.65,1673.72,4078.49,1675.01,4076.08z"/>
	<path class="st4" d="M1732.78,4030.17c-0.95-7.04-1.96-14.07-2.83-21.12c-0.38-3.05-0.74-5.22-4.98-4.54
		c-3.44,0.55-7.03-0.79-10.55-1.39c-5.98-1.02-11.99-1.07-17.99,0.15c-5.75,1.17-8.93,4.83-10.28,10.33
		c-0.59,2.39-1.05,4.81-1.68,7.18c-0.75,2.78-2.6,3.35-5.12,2.31c-0.45-0.19-0.91-0.38-1.34-0.62c-2.59-1.46-5.45-2.58-7.85-0.21
		c-2.55,2.51-1.74,5.62-0.37,8.59c1.22,2.65,3.4,4.5,5.21,6.66c6.38,7.58,5,14.63-3.76,19.36c-1.65-1.42-1.85-3.63-2.92-5.37
		c-2.55-3.05-2.33-6.92-2.97-10.49c-1.02-5.68-1.6-11.44-2.88-17.08c-0.47-2.08-0.58-4.28,0.67-6.08
		c7.08-10.15,14.56-19.9,26.64-24.68c0.34-0.14,0.69-0.26,1.04-0.37c3.65-1.03,3.65-1.03,4.56,4.43c0.15,0.47,0.74-0.23,0.3-0.01
		c-0.21,0.11-0.31,0.08-0.37-0.07c-0.74-1.87,0.06-3.57,0.59-5.31c1.4-2.43,3.85-1.86,6.01-2.13c7.1-1.81,14.22-2.62,21.5-0.89
		c2.86,0.68,5.81,1.03,8.78,1.09c2.52,0.05,4.5,1.08,5.7,3.42c0.34,0.67,0.6,1.32,0.52,2.1c-0.15,1.52-1.66,2.02-2.32,3.16
		c2.02,1.08,1.1,2.36,0.26,3.65c-0.44,0.67-0.42,1.35-0.14,2.1c2.29,6.04-0.19,11.75-1.24,17.55
		C1734,4024.57,1734.26,4027.6,1732.78,4030.17z"/>
	<path class="st5" d="M1675.01,4076.08c4.29,12.91,6.6,26.14,5.82,39.75c-0.47,8.17-1.45,16.32-2.2,24.48
		c-3.57,2.4-7.61,0.97-11.42,1.32c-1.65,0.15-3.49,0.26-4.78-1.29c-0.52-10.11,0.85-20.17,0.78-30.28
		c-0.08-12.14-1.59-23.97-6-35.35c-0.53-1.38-1.22-2.76-1.38-4.2c-0.32-2.89-1.86-3.66-4.53-3.43c-1.95,0.16-3.93-0.07-5.9-0.13
		c8.58-0.85,17.16-1.49,25.77-0.53C1672.45,4069.65,1673.73,4072.87,1675.01,4076.08z"/>
	<path class="st7" d="M1750.63,4423.63c2.16,0.01,4.29,0.03,6.45,0.42c2.28,0.41,4.52-0.17,6.24-1.96
		c7.23,0.52,14.47,1.02,21.7,1.55c5.12,0.37,9.77,2.29,14.35,4.42c4.04,3.39,8.34,6.64,9.43,12.23c0.53,2.7,1.42,5.68-1.8,7.58
		c-11.41,1.3-22.86,0.38-34.29,0.6c-6.15,0.12-12.31,0.05-18.47-0.01c-2.78-0.03-4.07-1.07-4.37-4.12
		c-0.55-5.54-0.48-11.06-0.47-16.6C1749.42,4426.27,1749.37,4424.74,1750.63,4423.63z"/>
	<path class="st5" d="M1734.85,4090.79c-1.11-7-2.95-13.83-5.12-20.57c-0.46-1.43-0.65-2.86-0.63-4.33
		c5.21-0.34,10.38,0.4,15.57,0.61c10.32,23.65,10.84,48.77,11.11,73.92c-1.12,1.31-2.67,1.15-4.11,1.09
		c-4.02-0.19-8.09,0.67-12.05-0.59c-1.63-1.62-1.67-3.79-1.88-5.84c-1.43-14.09-1.72-28.27-3.47-42.33
		C1734.35,4092.07,1734.63,4091.44,1734.85,4090.79z"/>
	<path class="st2" d="M1691.18,3993.58c-12.51,4.63-20,14.77-27.43,24.97c-1.07,1.47-0.68,3.1-0.41,4.65
		c1.63,9.44,3.31,18.86,4.98,28.29c-8.59-0.21-16.78-1.74-23.73-7.3c-1.56-5.19,0.37-10.02,2.09-14.64
		c5.23-14.04,14.91-24.65,26.74-33.54c3.83-2.88,8.33-4.77,11.72-8.24c0.26-0.26,0.57-0.47,0.91-0.62c4.06-0.8,7.19-4.21,11.55-4.14
		c1.45,2.04-0.74,2.69-1.52,3.83c-1.41,2.06-4.24,3.02-4.58,5.92C1691.55,3993.09,1691.45,3993.36,1691.18,3993.58z"/>
	<path class="st2" d="M1734.98,4021.87c-0.26-3.71,0.2-7.41,1.02-10.97c0.74-3.18,0.72-5.81-2.28-7.67c0.81-1.45,3.16-1.57,2.97-3.2
		c-0.16-1.42-2.11-0.78-3.29-1.39c0.72-0.35,1.34-0.66,1.96-0.96c1.23-0.6,3.09-1.48,2.47-2.7c-0.69-1.36-1.2-3.47-3.42-3.68
		c-10.65-1.02-21.25-4.29-32.01-0.74c-1.24-0.77-2.63-0.38-3.95-0.52c-1.15-0.12-2.27-0.44-2.71-1.57c-0.43-1.1,0.47-1.85,1.19-2.48
		c1.25-1.1,2.13-2.29,1.74-4.06c8.75-3.46,17.64-6.1,27.25-5.2c17.08,1.6,25.59,16.85,20.8,30.46c-0.08,0.22-0.02,0.48,0.04,0.72
		C1743.4,4013.04,1739.64,4017.84,1734.98,4021.87z"/>
	<path class="st4" d="M1441.81,4367.97c0.71,24.91,1.37,49.83,2.15,74.74c0.26,8.38,0.77,16.76,0.56,25.15
		c-4.17-6.57-4.65-14.14-5.79-21.52c-0.22-1.45-0.04-2.97-0.76-4.33c-0.73-11.66-1.4-23.32-2.23-34.97c-0.22-3.14,0.38-5.8,2.8-7.9
		c1.82-1.58,2.01-3.04,0.08-4.8c-7.59-6.91-4.33-15.33-2.89-23.34C1436.25,4368.05,1439.4,4368.27,1441.81,4367.97z"/>
	<path class="st10" d="M1515.07,4187.98c2.5,0.6,0.75,1.97,0.3,2.68c-2.2,3.4-4.56,6.69-6.9,10c-1.87,2.65-2.81,5.35-1.41,8.59
		c1.36,3.15-0.82,5.57-2.42,7.71c-3.55,4.77-4.7,9.46-1.86,15.03c2.61,5.1,3.9,10.58,3.32,16.42c-0.36,3.64,1.89,6.72,2.34,10.26
		c-3.41-2.43-4.68-6.3-4.15-9.9c0.9-6.19-1.28-11.39-3.59-16.66c-2.36-5.37-1.76-10.28,1.66-14.89c2.2-2.98,3.46-5.81,2.43-9.85
		c-1.18-4.62,2.53-7.95,4.86-11.49c1.27-1.92,3.21-3.38,3.81-5.75C1513.99,4189.42,1514.53,4188.7,1515.07,4187.98z"/>
	<path class="st11" d="M1752.6,3995.2c-1.06-3.37-1.23-6.96-2.69-10.25c-5.21-11.71-14.7-16.72-26.98-17.1
		c-11.91-0.37-23.04,3.1-33.95,7.43c-0.72,0.28-1.4,1.19-2.62,0.06c4.82-2.43,9.77-3.99,14.76-5.46c9.75-2.88,19.58-4.34,29.73-2.16
		c12.78,2.75,21.77,13.5,22.12,26.06C1752.85,3994.26,1752.72,3994.73,1752.6,3995.2z"/>
	<path class="st12" d="M1746.76,4007.9c-1.17-1.06-0.03-2.1,0.18-3.03c2.9-13.56-6.05-25.86-19.76-27.43
		c-10.06-1.15-19.36,1.21-28.42,5.2c-0.13,0.43-0.41,0.68-0.87,0.7c-2.96,0.39-5.36,2.15-8,3.32c-1.2,0.53-2.27,1.44-3.72,1.2
		c-0.29-0.25-0.37-0.55-0.26-0.92c1.91-2.18,4.61-2.95,7.13-4.07c0.61-0.23,1.32,0.27,1.89-0.26c5.29-1.97,10.5-4.2,16.05-5.33
		c8.14-1.66,16.27-2.52,24.12,1.32c8.8,4.3,13.33,11.3,13.35,21.14c0,1.72-0.05,3.44-0.08,5.17
		C1747.82,4005.91,1747.29,4006.91,1746.76,4007.9z"/>
	<path class="st13" d="M1685.38,3987.96c-0.33,2.09-2.32,2.36-3.69,3.2c-12.2,7.56-22.74,16.8-30.11,29.29
		c-4.32,7.32-7.17,15.08-6.98,23.73c-0.47-0.31-0.93-0.61-1.4-0.92c1.28-17.02,10.04-30.02,22.08-41.3
		c5.88-5.51,12.72-9.7,19.34-14.18C1684.92,3987.59,1685.18,3987.64,1685.38,3987.96z"/>
	<path class="st14" d="M1862.67,4172.52c-5.42,0.76-10.82,2.44-16.31,0.5c-3.27-1.15-6.8-1.9-9-4.95c0.5-0.74,0.93-0.71,1.39-0.41
		c8.56,5.47,17.44,5.57,26.53,1.53c1.08-0.48,2.11-0.57,3.21-0.49C1867.47,4171.37,1864.56,4171.16,1862.67,4172.52z"/>
	<path class="st15" d="M1647.41,4004.14c-6.15,7.55-10.4,16.16-13.83,25.2c-0.07-0.24-0.15-0.48-0.22-0.72
		c2.36-9.29,6.72-17.5,13.24-24.55C1646.9,4003.76,1647.17,4003.8,1647.41,4004.14z"/>
	<path class="st5" d="M1606.16,4351.01c0.8-0.68,1.5-0.3,2.35,0.03c6.98,2.69,14.02,3.32,21.18,0.57c7.04-2.7,14.05-1.31,20.98,0.5
		c8.47,2.23,16.79,2.75,25.37,0.03c4.4-1.4,9.25-0.99,13.74,0.89c0.87,0.36,1.53,0.71,1.7,1.68c0.78,0.98,0.64,2.1,0.37,3.18
		c-4.36,17.75-9.16,35.33-19.08,51.02c-8.02,12.68-18.85,20.19-34.36,21.09c-10.66,0.62-21.12,0.39-31.59-1.51
		c-2.05-1.44-2.71-3.75-3.66-5.86c-4.65-10.35-8.61-20.89-10.97-32.08c-2-9.5-5.87-18.55-8.09-28.03
		c-1.19-5.09-3.21-10.08-2.41-15.49c0.42-0.28,0.88-0.54,1.37-0.48C1590.85,4347.54,1598.74,4348.04,1606.16,4351.01z"/>
	<path class="st4" d="M1750.63,4423.63c0.13,7.27,0.4,14.54,0.34,21.81c-0.02,2.69,1.66,1.91,2.91,1.91
		c16.39,0.05,32.79,0.05,49.18,0.1c1.32,0,2.71-0.42,3.96,0.42c-6.24,3.37-13.18,3.86-20.01,4.58c-11.03,1.17-22.11,1.74-33.2,1.59
		c-2.53-0.03-3.29,0.85-3.67,3.19c-0.79,4.91-2.09,5.91-7.2,5.77c-3.31-0.09-6.61-0.61-9.92-0.75c-1.55-0.06-1.88-1.04-2.08-2.11
		c-0.45-2.42-0.88-4.85-1.08-7.29c-0.12-1.4-0.72-2.34-1.79-3.02c-1.35-0.85-2.12,0.44-2.76,1.12c-7.19,7.62-15.7,4.27-23.79,2.59
		c-2.73-0.57-3.24-3.6-2.24-6.36c1.62-1.17,3.5-1.03,5.34-1.04c6.4-0.03,12.81-0.08,19.21,0.02c3.01,0.04,4.08-1.15,4.14-4.15
		c0.16-7.52-0.44-15-0.7-22.5c0.81-18.25-2.71-36.05-5.49-53.93c-0.21-1.34-0.45-2.67-0.47-4.03c-0.02-1.89,0.91-2.38,2.6-1.84
		c2.22,0.15,4.4,0.68,6.35,1.66c5.94,2.98,11.32,1.88,16.47-1.85c0.98-0.71,2.07-1.26,3.12-1.88c-0.19,10.22,0.17,20.4,1.3,30.58
		c0.88,7.94-1.24,15.92-0.68,23.94C1750.7,4415.97,1750.58,4419.81,1750.63,4423.63z"/>
	<path class="st4" d="M1581.85,4347.11c2.39,15.58,8.36,30.23,11.87,45.49c2.87,12.47,7.78,24.01,13.15,35.46
		c0.72,0.46,1.46,0.93,1.8,1.75c2.19,5.15,5.22,9.89,7.48,15c0.25,0.57,0.33,1.16,0.22,1.78c0.95,3.69,3.76,6.25,5.65,9.38
		c0.96,1.6,1.01,2.28-0.82,4.37c-4.86,5.57-10.09,2.48-15.14,2.34c-3.88-0.1-6.81-2.42-7.57-6.38c-0.67-3.47-2.56-5.96-5.02-8.22
		c-3.91-2.29-5.06-6.59-7.01-10.17c-2.1-3.88-3.96-7.95-5.47-12.14c-5.95-19.95-16.39-37.94-24.73-56.85
		c2.19-5.74,5.44-10.88,9.08-15.79c4.59-3.52,9.7-6.34,13.96-10.29c1.38-1.27,1.78-0.4,2.26,0.7
		C1582.68,4344.65,1582.65,4345.85,1581.85,4347.11z"/>
	<path class="st5" d="M1701.68,4413.43c-3.54-1.01-7.08-2.04-10.63-3.02c-2.15-0.59-2.82-1.66-2.36-4.04
		c3.14-16.41,7.59-32.5,11.51-48.73c7.76,2.3,15.84,0.86,23.7,2.07c-2.27-0.08-1.69,1.45-1.5,2.71c1.28,8.54,2.43,17.11,3.89,25.62
		c1.78,10.32,2.44,20.68,2.03,31.13c-1.16,0.99-2.49,0.86-3.84,0.6c-6.75-1.25-13.32-3.29-20.05-4.65
		C1703.31,4414.9,1702.37,4414.36,1701.68,4413.43z"/>
	<path class="st16" d="M1673.34,4228.66c0.44-0.52,1.03-0.76,1.68-0.88c6.35-0.38,12.66-0.28,18.88,1.4
		c-2.86-0.43-5.66-1.1-8.27-2.38c-1.5-0.74-4.13-1.15-3.77-2.91c0.42-2.1,3.06-1.38,4.8-1.41c4.71-0.08,9.29,0.99,13.86,1.94
		c4.18,0.87,8.6,0.97,12.44,3.21c1.61,0.94,3.39-0.78,4.98,0.35c1.53,5.18,3.06,10.36,4.59,15.54c-7.98,2.02-16.13,2.92-24.3,3.67
		c-3.79,0.35-7.59,0.48-11.38,0.82"/>
	<path class="st16" d="M1671.31,4248.88c-5.1,0.37-10.12,0.53-15.87-0.73c4.04-2.82,8.24-3.02,12.64-4.44
		c-5.58-0.56-10.74,0.47-15.94-1.47c1.36-1.92,3.45-2.26,5.18-2.28c2.91-0.03,5.72-1.04,8.74-0.32c2.39,0.57,4.1-0.69,3.73-3.54
		c-0.13-0.96-0.33-1.94-0.7-2.83c-0.68-1.66-3.17-3.63-0.35-4.91c2.55-1.16,6.29-0.19,7,2.1l11.98,16.62l-0.23,0.88"/>
	<path class="st17" d="M1698.73,4306.87c0.65,6.14,4.16,10.85,7.28,15.77c2.2,3.47,3.54,7.28,3.11,11.54
		c-0.88,8.73,2.85,15.18,9.94,19.98c1.03,0.7,2.27,1.41,2.36,3.07c-9.28-4.14-14.36-11.17-13.75-18.15
		c0.72-8.27-2.2-15.05-6.95-21.5C1698.46,4314.53,1697.19,4310.93,1698.73,4306.87z"/>
	<path class="st18" d="M1771.38,4333c-1.3,0.06-2.59,0.13-3.89,0.19c-2.07,1.45-3.29,3.42-3.57,5.94l0.06,0.03
		c-1.17-2.75-1.34-5.47,1.06-7.59c1.32-1.17-0.17-2.12,0.2-3.29c0.52-1.66,0.13-3.61,0.13-5.46c-1.27-0.06-1.01,1.43-2.02,1.59
		c0-0.36-0.1-0.75,0.02-1.06c2.72-6.93,7.09-13.28,7.33-21.08c0.02-0.72,0.44-1.57,1.38-1.34c0.95,0.23,0.78,1.21,0.64,1.86
		c-0.84,3.93-1.02,8.05-3.42,11.55c-2.76,4.02-1.98,8.63-1.31,12.91c0.21,1.34-0.75,1.71-0.59,2.57c0.86,0.83,2.17-1.45,2.68,0.42
		c0.05,0.18,3.32,1.09,0.01,1.65C1769.47,4332.01,1771.29,4332.21,1771.38,4333z"/>
	<path class="st16" d="M1658.65,4227.91c2.47,0.34,4.97-1.12,7.43,0.08c-0.09,2.12,0.23,4.18,1.4,5.98
		c0.87,1.35,1.56,2.74,0.04,3.89c-1.38,1.04-2.88,0.24-4.09-0.6c-1.12-0.77-2.38-2.16-2.1-3.24c0.49-1.92,2.9-0.02,4.1-1.33
		c-3.27-0.86-6.77-0.76-9.71-2.63c0.66-0.27,0.74-0.85,0.77-1.45C1657.2,4228.38,1657.72,4227.5,1658.65,4227.91z"/>
	<path class="st19" d="M1589.05,4333.86c-0.99,0.52-1.97,1.04-2.96,1.56c-1.49-1.34,0.01-2.01,0.75-2.52
		c5.58-3.89,8.82-9.48,11.54-15.49c0.39-0.86,0.19-2.79,1.76-2.08c1.38,0.62,0.03,1.92-0.27,2.89
		C1597.94,4324.59,1593.38,4329.15,1589.05,4333.86z"/>
	<path class="st20" d="M1565.33,4353.14c-2.31,5.57-5.87,10.44-8.84,15.64c0.28,0.8-0.14,1.2-0.83,1.43
		c-2.81-0.73-0.64-2.12-0.21-2.91c2.11-3.92,5.01-7.43,6.21-11.83C1563.04,4354.95,1563.23,4352.55,1565.33,4353.14z"/>
	<path class="st21" d="M1652.15,4235.5c4.92-2.82,7.13-2.39,9.15,1.87C1658.14,4237.01,1655.15,4236.85,1652.15,4235.5z"/>
	<path class="st7" d="M1701.68,4413.43c8.92,1.75,17.56,4.78,26.64,5.75c0.29,8.49,0.53,16.97,0.91,25.46
		c0.09,2.06-0.48,2.82-2.63,2.78c-9.11-0.16-18.21-0.16-27.32-0.23c0.05-3.42,0.09-6.85,0.14-10.27
		C1700.17,4429.08,1700.92,4421.25,1701.68,4413.43z"/>
	<path class="st1" d="M1674.99,4228.55c-2.15-1.96-4.23-3.38-7.53-3.73c-2.73-0.29-5.95-2.2-7.38-5.23
		c-1.51-3.19-3.72-5.07-7.2-5.11c-0.05-2.05,2.39-3.99-0.16-5.87c6.76-11.24,13.51-22.49,20.28-33.72
		c3.67-6.09,3.69-6.08-1.09-10.58c-0.2-2.26,1.07-3.99,2.19-5.71c0.97-1.48,2.45-1.9,4.22-1.39c5.69,1.63,10.68,4.42,14.58,8.94
		c1.46,1.69,3.04,3.2,4.82,4.55c1.48,1.12,2.83,2.64,4.57,0.3c0.51-0.69,1.31-0.2,2.04-0.07c4.01,0.73,7.09-2.54,6.21-6.55
		c-0.86-3.97-2.91-7.25-5.68-10.19c-0.92-0.98-2.99-1.91-1.2-3.87c2.1-0.79,4.11-0.25,6.14,0.33c3.34,0.97,6.34,2.66,9.45,4.15
		c4.84,2.32,9.54,2.79,14.93,1c7.58-2.51,15.44-2.75,22.9,1.12c7.95,10.65,15.91,21.3,23.84,31.97c0.42,0.56,0.58,1.31,0.86,1.97
		c0.26,0.36,0.19,0.6-0.25,0.71c-10.97,4.39-21.96,8.75-32.92,13.19c-9.25,3.75-18.42,7.71-27.72,11.32c-3.44,1.33-5.11,3-3.8,6.82
		c0.55,1.6,0.57,3.38,0.82,5.08c-2.52,1.6-4.63,0.79-7.38-0.14c-5.4-1.83-11.2-2.46-16.84-3.59c-3.74-0.75-7.51-0.95-11.96-0.69
		c4.08,2.89,8.48,3.59,11.51,4.99C1687.74,4228.55,1681.36,4228.55,1674.99,4228.55z"/>
	<path class="st22" d="M1703.2,4150.95c3.78,4.05,7.3,8.12,8.54,13.87c0.75,3.47-0.97,5.35-3.3,6.42c-1.32,0.61-3.61,4.55-5.31-1.4
		c-0.9,4.42-2.24,4.56-4.72,2.74c-3.49-2.57-6.14-5.95-9.29-8.83c-3.32-3.02-7.4-4.26-11.36-5.87c-1.86-0.75-2.7,0.59-3.45,1.9
		c-0.84,1.48-1.6,3.02-2.4,4.53c-5.18-3.92-10.35-7.84-15.53-11.75c3.12-4.21,7.77-6.39,12.03-9.1c3.99-1.86,8.01-3.62,12.52-1.77
		c0.96,0.12,1.92,0.25,2.88,0.37c0.7-0.07,1.4-0.24,2.11-0.17c3.78,0.61,7.22,2.15,10.59,3.89
		C1698.87,4147.35,1701.92,4148.01,1703.2,4150.95z"/>
	<path class="st23" d="M1648.33,4147.18c-4.07-0.22-6.89-3.14-10.18-4.94c-2.26-1.23-3.06-0.82-4.29,1.18
		c-6.14,9.97-12.4,19.86-18.7,29.74c-0.65,1.03-1.02,2.54-3.18,2.86c1.21-4.33,3.99-7.35,6.04-10.7
		c5.05-8.3,10.38-16.44,15.57-24.66c0.94-1.49,1.16-3.25,1.3-4.95c0.59-7.6,1.07-15.22,1.62-22.83c0.06-0.9-0.39-2.47,0.91-2.4
		c1.45,0.09,1.01,1.55,0.91,2.68c-0.66,7.72-1.2,15.45-1.88,23.17c-0.19,2.14,0.54,3.37,2.5,4.34c2.98,1.47,5.78,3.28,8.66,4.95
		C1648.87,4145.68,1648.79,4146.34,1648.33,4147.18z"/>
	<path class="st24" d="M1648.33,4147.18c-0.24-0.52-0.48-1.03-0.72-1.55c3.04-1.63,6.64-0.55,9.71-2.04
		c3.73-2.04,8.21-1.73,11.09,0.76c-4.01,2.74-8.01,5.47-12.02,8.21C1653.7,4150.77,1651.02,4148.98,1648.33,4147.18z"/>
	<path class="st25" d="M1668.41,4144.35c-3.62-1.38-7.34-1.2-11.09-0.76c0.71-2.82,0.88-2.93,5.1-3.24
		c5.4-0.01,10.81-0.02,16.21-0.04c0.91,0.22,2.09,0,2.31,1.37C1676.37,4140.72,1672.42,4142.67,1668.41,4144.35z"/>
	<path class="st26" d="M1780.21,4129.43c6.1-1.65,11.84-0.25,17.68,1.62c7.22,2.3,14.78,2.27,22.75,1.99
		c-1.76,3.13-5.1,3.76-7.06,5.98c-10.57,8.07-22.75,8.35-35.18,7.1c-4.13-0.42-8.3-0.95-12.25-2.35c-3.13-1.11-3.42-2.32-1.1-4.71
		C1769.33,4134.64,1774.77,4132.03,1780.21,4129.43z"/>
	<path class="st27" d="M1703.2,4150.95c-2.26-1.48-4.53-2.95-6.79-4.42c0.87-1.08,2.13-1.24,3.34-1.2
		c10.56,0.36,21.08-0.84,31.63-0.79c1.11,0.01,2.21,0.08,3.28,0.4c4.13,2.19,8.6,0.81,12.9,1.21c1.85,0.17,4.01-0.52,5.16,1.75
		c-0.65,4.03,2.96,5.99,4.37,9.02c-6.86-1.48-14.05-3.39-20.65-0.63c-8.06,3.37-14.72,1.31-21.63-2.51
		C1711.26,4151.82,1707.43,4150.43,1703.2,4150.95z"/>
	<path class="st28" d="M1752.72,4147.9c-4.35-1.35-8.81-0.39-13.21-0.66c-1.68-0.1-3.55,0.39-4.59-1.56
		c-1.17-1.64-0.91-3.23,0.36-4.64c1.19-1.32,2.64-1.66,4.23-0.63c5.42,0.01,10.84,0.01,16.26,0.02c2.58-0.08,3.09,1.47,2.92,3.62
		c-0.16,1.99-0.94,3.28-3.19,3.17C1754.53,4147.18,1753.49,4147.04,1752.72,4147.9z"/>
	<path class="st29" d="M1781.55,4191.56c0.08-0.24,0.17-0.47,0.25-0.71c4.56-3.43,10.05-4.98,15.14-7.31
		c2.33-1.07,4.49-2.93,7.33-2.75c0.23,1.35-0.59,1.69-1.38,2.04c-6.16,2.75-12.32,5.5-18.47,8.26
		C1783.49,4191.52,1782.56,4191.72,1781.55,4191.56z"/>
	<path class="st30" d="M1806.97,4121.97c4.22-0.64,8.31,1.06,12.52,0.73c0.65-0.15,0.92,0.07,0.75,0.74
		c-4.58,1.46-9.07,1.21-13.47-0.75C1806.84,4122.44,1806.91,4122.21,1806.97,4121.97z"/>
	<path class="st26" d="M1869.97,4108.72c2.5-0.01,5.85,5.09,4.9,7.07c-0.18,0.39-0.62,0.83-1.01,0.92c-2.03,0.44-3.28-0.7-4.11-2.35
		c-0.79-1.59-2.2-3.15-0.79-5.07C1869.23,4108.95,1869.78,4108.82,1869.97,4108.72z"/>
	<path class="st31" d="M1530.36,4361.87c2.2,1.46,4.65,2.77,6.54,4.42c2.62,2.29,7.91,4.33,2.89,8.37
		c-4.42,3.56-9.09,2.06-13.17,0.44C1527.86,4370.68,1529.11,4366.27,1530.36,4361.87z"/>
	<path class="st32" d="M1716.94,4056.01c-3.69,0.04-7.21-2.22-8.18-5.24c-0.9-2.82,0.2-4.24,3.03-3.42c3.56,1.03,6.8,0.6,10-1.05
		c0.99-0.51,2.07-1.03,3.08-0.06c0.93,0.89,0.7,2.06,0.49,3.14C1724.68,4052.75,1720.54,4055.98,1716.94,4056.01z"/>
	<path class="st33" d="M1716.31,4068.55c0.2,0.96,0.01,1.66-1.16,1.68c-6.93,0.06-13.62-1.29-20.15-3.52c-1-0.34-3.1-0.25-2.43-1.94
		c0.55-1.4,2.16-0.28,3.25,0.1C1702.47,4067.13,1709.26,4068.52,1716.31,4068.55z"/>
	<path class="st34" d="M1714.13,4041.47c5.26-3.32,5.36-3.67,2.85-8.96c-1.85-3.91-2.17-5.9-1.04-8.75
		c1.03,4.13,2.91,7.86,4.76,11.63C1722.32,4038.67,1718.78,4041.99,1714.13,4041.47z"/>
	<path class="st35" d="M1707.19,4019.57c-3.5,2.08-6.68,1.95-9.77,2.12c-0.51,0.03-1.36-0.36-1.52-0.76
		c-0.33-0.85,0.52-1.27,1.15-1.56C1700.19,4017.9,1703.33,4017.68,1707.19,4019.57z"/>
	<path class="st36" d="M1728.04,4018.15c-3.59,2.14-7.22,1.81-11.27,1.56C1719.84,4016.27,1724.05,4015.75,1728.04,4018.15z"/>
	<path class="st37" d="M1725.4,4027.16c-0.1,1.42-0.32,2.86-1.69,2.52c-1.61-0.4-1.78-2.2-1.82-3.62c-0.03-1.03,0.26-2.62,1.65-2.24
		C1725.07,4024.23,1725.29,4025.95,1725.4,4027.16z"/>
	<path class="st38" d="M1703.96,4028.88c-0.04,0.99-0.09,2.41-1.22,2.29c-1.81-0.18-1.97-1.9-1.99-3.42
		c-0.01-0.98,0.01-2.39,1.2-2.29C1703.82,4025.64,1703.82,4027.41,1703.96,4028.88z"/>
	<path class="st39" d="M1657.98,3992.31c5.61-5.1,12.07-8.88,18.91-12.07c-6.18,4.09-12.5,7.98-18.24,12.68
		C1658.33,3992.84,1658.1,3992.63,1657.98,3992.31z"/>
	<path class="st40" d="M1657.98,3992.31c0.22,0.21,0.45,0.41,0.67,0.62c-3.75,3.74-7.49,7.47-11.24,11.21
		c-0.27-0.02-0.54-0.04-0.81-0.07C1649.65,3999.43,1653.82,3995.88,1657.98,3992.31z"/>
	<path class="st41" d="M1677.7,3979.44c2.07-2.11,4.86-1.9,6.13-3.99c0.25-0.41,0.54-0.38,0.79-0.04c0.39,0.52,0.64,1.15,0.05,1.62
		C1682.8,3978.49,1680.78,3979.52,1677.7,3979.44z"/>
	<path class="st5" d="M1581.65,4425.79c-9.91-0.23-19.82-0.33-29.72-0.78c-3.03-0.14-4.28,0.63-3.8,3.68
		c-1.28-2.2-0.34-4.6-0.58-6.89c-0.78-7.43-0.36-14.82,0.7-22.2c0.21-1.48,0-2.81-1.01-4.15c-2.04-2.71-1.64-5.63,1.2-7.69
		c1.47-1.07,2.01-2.25,2.38-3.88c0.78-3.35,1.85-6.64,2.62-9.99c0.35-1.53,1.17-2.63,2.21-3.67c0.28-0.48,0.56-0.95,0.83-1.43
		c0.67,0,1.1,0.27,1.4,0.93c6.34,13.81,12.85,27.54,18.99,41.44C1578.94,4415.82,1580.09,4420.9,1581.65,4425.79z"/>
	<path class="st1" d="M1763.92,4339.14c-0.17-2.8,0.58-5.05,3.57-5.94C1766.3,4335.18,1765.11,4337.16,1763.92,4339.14z"/>
	<path class="st42" d="M1685.38,4142.55c-0.61,0.13-1.15,0.04-1.55-0.49c0.19-0.31,0.33-0.68,0.59-0.93
		c16.81-16.78,33.62-33.56,50.43-50.34c0.05,0.51,0.1,1.02,0.15,1.54c-0.67,1.18-1.39,2.3-2.36,3.27
		c-15.18,15.18-30.38,30.33-45.53,45.55C1686.58,4141.68,1685.95,4142.08,1685.38,4142.55z"/>
	<path class="st43" d="M1691.21,3992.97c1.38-2.42,3.07-2.82,5.14-0.79c-0.26,2.03-0.51,4.06-0.78,6.16
		c-1.65-0.37-1.49-1.61-1.32-2.57c0.52-3-0.74-3.29-3.07-2.19C1691.21,3993.38,1691.22,3993.18,1691.21,3992.97z"/>
	<path class="st9" d="M1733.81,4093.18c0.34-0.34,0.79-0.57,1.19-0.85c1.37,5.47,1.77,11.12,2.04,16.68
		c0.51,10.5,1.31,20.96,2.48,31.4c-3.73-0.16-4.88,1.92-4.59,5.26c-12.84,0.28-25.68,0.57-38.51,0.85
		c-3.63-1.47-7.14-3.26-11.03-3.98c0-1.12,0.8-1.75,1.49-2.44"/>
	<path class="st44" d="M1817.91,4109.33c1.32,0.09,1.84,0.83,1.2,1.96c-0.86,1.5-1.94,2.94-3.8,3.22c-1.36,0.21-2.47-0.26-2.42-1.96
		C1814.56,4111.48,1816.24,4110.4,1817.91,4109.33z"/>
	<path class="st2" d="M1686.2,3987.1c-1.55-2.9,0.55-4.44,2.48-5.55c1.95-1.12,3.76-0.26,4.76,1.88
		C1691.03,3984.65,1688.62,3985.88,1686.2,3987.1z"/>
	<path class="st1" d="M1658.65,4227.91c-0.72,0.23-1.45,0.47-2.17,0.7c0.9-1,1.93-1.92,2.69-3.02c1.86-2.67,3.66-2.54,5.88,0.29
		C1662.1,4224.77,1659.99,4225.37,1658.65,4227.91z"/>
	<path class="st45" d="M1746.41,4145.68c-2.57,0-5.15,0-7.72-0.01c-1.01,0-2.06-0.04-2.11-1.42c-0.05-1.32,0.68-2.15,1.97-2.17
		c5.51-0.07,11.03-0.06,16.54-0.06c1.11,0,1.95,0.56,1.96,1.74c0.02,1.38-0.93,1.9-2.19,1.91
		C1752.04,4145.7,1749.22,4145.68,1746.41,4145.68z"/>
	<path class="st46" d="M1549.7,4385.31c-1.64,3.99-2.55,6.21-3.96,9.64C1538.38,4391.07,1541.16,4388.84,1549.7,4385.31z"/>
	<path class="st47" d="M1542.65,4387.35c-2.23-0.34-3.36-1.38-3.27-3.26c0.13-2.59,1.67-4.03,4.23-4.18c2.03-0.12,3.07,1.43,3,3.04
		C1546.51,4385.44,1544.45,4386.53,1542.65,4387.35z"/>
	<path class="st16" d="M1671.43,4232.12l-5.64,0.52l-1.33-4.26c0,0,3.41-0.72,6.58,0.23"/>
	<path class="st16" d="M1670.91,4232.93c0,0-12.17,0.51-13.83,0.99s2.45,3.26,2.45,3.26l13.46,0.86L1670.91,4232.93z"/>
</g>
<g>
	<g>
		<path class="st0" d="M-108.29,1156.09c-12.34-116.41,146.75-187.94,619.04-186.66c44.33,0.12,1105.03,34.08,1847.91-10.88
			c64.26,48.84,166.17,203.68,77.57,254.32c-110.75,63.31-496.34,24.67-643.49-1.75s-549.02,44.77-809.96,220.42
			c-208.75,140.52-788.38,123.14-1052.1,96.89C-78.2,1443.12-98.41,1249.21-108.29,1156.09z"/>
		<path class="st0" d="M-110.76,950.7c-12.34,116.4,146.74,187.94,619.03,186.66c44.33-0.12,1105.04-34.08,1847.91,10.88
			c64.26-48.84,166.17-203.68,77.57-254.32c-110.75-63.3-496.34-24.67-643.49,1.75S1241.24,850.9,980.3,675.25
			C771.54,534.73,191.91,552.11-71.81,578.36C-80.68,663.67-100.89,857.58-110.76,950.7z"/>
	</g>
	<g>
		<path class="st48" d="M148.04,823.6c4.47-11.33,10.04-21.8,21.29-28c6.07-3.34,12.5-5.76,19.04-7.93
			c7.28-2.42,14.78-4.2,21.68-7.69c4.43-2.24,7.29-5.6,8.01-10.61c0.09-0.14,0.18-0.27,0.27-0.41c8.17-3.59,16.44-7.02,24.21-11.42
			c9.96-5.64,19.55-11.85,27.17-20.61c1.7-2.25,3.77-4.15,5.82-6.07c0.96-0.9,2.03-1.95,3.5-0.74c2.57,7.65,5.24,15.29,5.04,23.53
			c-1.97,5.96-3.95,11.92-5.9,17.89c-3.08,9.45-2,19.1-1.21,28.72c0.35,4.25,0.98,8.47,1.48,12.7c-0.62,1.45-1.95,2.15-3.18,2.91
			c-6.63,4.16,14.82,17.59,12.4,25.08c-0.47,1.47-26.6,7.45-27.85,8.55c-2.46-6.47-8-22.34-13.6-25.81
			c-6.79-4.21-14.26-6.38-22.07-6.57c-8.19-0.21-16.4,1.17-22.51,7.23c-3.84,3.8-7.85,3.25-12.3,2.68
			c-13.77-1.77-26.04,1.61-36.59,10.86c-4.35,3.82-7.82,8.35-10.87,13.3c-0.86-0.72-0.34-1.55-0.53-2.24
			C142.43,840.18,144.99,831.82,148.04,823.6z"/>
		<path class="st49" d="M340.25,828.4c-4.28-3.77-7.99-8.2-12.86-11.3c-0.85-0.54-1.7-1.07-2.55-1.6c2.55-2.31,5.98-3.59,7.34-7.31
			c0.45-1.23,2.68-1.8,4.09-2.68C337.6,813.13,338.93,820.76,340.25,828.4z"/>
		<path class="st50" d="M309.84,800.71c-2.72-11.03,1.52-20.35,7.25-29.29c2.13-3.32,4.31-6.61,6.49-9.9
			c0.39-0.59,0.56-1.63,1.68-0.97c3.68,12.58,6.91,25.28,9.58,38.11c0.18,0.85,0.08,1.88,1.23,2.18c-0.68,0.36-1.41,0.65-2.02,1.11
			c-1.8,1.35-3.2,1.55-5.59,0.45C322.59,799.7,316.12,800.67,309.84,800.71z"/>
		<path class="st51" d="M317.81,818.52c2.41-0.85,4.92-1.47,7.03-3.02c3.28-0.03,5.13,2.58,7.32,4.31c3.08,2.44,5.92,5.23,8.09,8.59
			c1.14,3.35,3.99,5.6,5.35,8.92c3.67,8.97,5.18,18.13,3.78,27.74c-0.49,3.32-0.29,6.16,2.56,8.86
			c13.32,12.59,18.56,28.48,17.5,46.49c-0.43,7.33-2.37,14.48-6.04,20.93c-1.57,2.77-1.16,5.1,0.09,7.63
			c2.95,5.96,4.54,12.42,4.54,18.93c0.01,12.66-3.55,24.27-12.64,33.65c-1.88,1.94-3.72,3.93-5.58,5.9
			c-5.03,5.39-11.58,7.7-18.58,8.87c-2.11,0.35-2.95,1.12-2.89,3.23c0.29,10.31-3.12,19.52-8.52,28.12
			c-5.33,7.76-11.96,14.12-20.13,18.85c-9.23,5.35-19.22,8.38-29.75,9.73c-2.46,0.32-4.9,0.9-7.41,0.71
			c-1.22-0.09-2.52,0.16-3.52-0.83c-3.81-0.42-7.01,0.34-10.28,2.86c-7.33,5.65-16.03,7.71-25.18,8.79
			c-9.42,1.11-18.75,0.65-27.91-1.03c-10.62-1.95-21.08-4.85-29.78-11.97c-2.76-2.26-4.35-5.42-6.81-7.93
			c-4.2-4.28-8.43-6.29-14.95-5.35c-11.36,1.65-22.92,1.11-34.25-1.32c-1.19-0.25-2.19-0.23-3.27,0.11
			c-1.56-0.76-3.34-0.75-4.93-1.41c-12.44-3.74-24.03-9.3-34.99-16.22c-0.6-1.19-1.74-1.69-2.79-2.36
			c-10.02-6.32-20-12.85-28.07-21.54c-6.58-7.09-13.7-13.34-21.68-18.68c-2.71-1.82-5.58-3.39-8.4-5.05
			c-1.36-0.8-1.88-1.72-1.09-3.33c2.37-4.84,4.59-9.75,6.45-14.81c0.85-2.31,1.88-3.25,4.68-1.59
			c13.05,7.76,26.08,15.59,39.84,22.06c7.63,3.58,15.21,7.52,23.58,8.98c4.4,0.77,9.18,1.64,13.23-1.68
			c8.38-2.61,15.64-7.1,22-13.09c3.13-2.94,4.6-6.42,4.44-10.85c-0.14-3.73,1.3-7.29,2.69-10.75c3.01-7.48,6.84-14.45,12.57-20.24
			c3.22-2.86,3.52-6.41,2.35-10.26c-1.18-3.91-2.83-7.67-4.57-11.33c-5.11-10.76-2.15-19.76,5.52-27.88
			c2.54-2.68,5.2-5.25,8.17-8.01c-4.35-1.88-8.6-2.51-12.74-3.46c-3.19-0.73-6.43-1.28-9.67-1.76c-3.54-0.53-6.92-0.99-9.6,2.12
			c-0.32-0.62,0.45-2.51-1.54-1.06c-3.88,2.83-6.79,6.59-9.83,10.18c-8.38,9.87-15.77,20.48-22.86,31.31
			c-2.72,4.15-6.97,3.37-10.75,2.74c-3.16-0.53-6.3-1.61-9.33-2.89c-1.75-0.74-2.05-1.35-1.17-2.91c3.15-5.6,6.12-11.31,9.41-16.82
			c5.48-9.17,11.15-18.22,16.73-27.32c0.27-0.44,0.69-0.97,0.07-1.49c0.3-2.67,2.59-4.13,3.82-6.24c4.92-8.48,11.9-13.73,21.9-15.35
			c8.24-1.34,16.39-3.3,24.67-4.54c2.83-0.43,5.44-0.84,5.35-4.61c-0.02-0.65,0.44-1.29,1.3-1.28c0.66,0.57,0.51,1.37,0.3,2.12
			c1.47-4.58,4.6-7.86,7.71-11.08c12.22-12.62,27.27-16.11,44.13-13.38c2.36,0.38,4.06-0.19,5.84-1.71
			c10.02-8.51,21.51-10.24,34.03-7.23c8.68,2.09,16.23,6.11,22.51,12.49c1.86,1.89,3.35,3.97,4.14,6.51
			c0.2,0.27,0.39,0.53,0.62,0.77c6.77,2.54,13.07,5.8,17.12,12.11c3.79,5.9,4.23,12.4,1.05,18.47c-3.04,5.8-8.67,8.06-15.18,7.7
			c-5.08-0.28-7.56-2.49-8.68-7.47c-0.91-4.03,1.62-10.18,4.94-11.88c1.74-0.89,3.52-0.93,5.1,0.36c1.51,1.24,1.61,2.89,1.07,4.65
			c-0.2,0.63-0.62,1.2-0.71,2.14c2.84,0.15,4.44-1.54,5.64-3.55c1.3-2.17,0.86-4.48-0.66-6.36c-2.69-3.33-6.24-4.83-10.53-4
			c-7,1.35-13.5,8.29-14.26,15.13c-0.88,7.87,3.04,15.21,9.9,18.54c15.62,7.57,32.31,0.87,38.05-15.57
			c2.81-8.05,0.79-15.41-4.81-21.78c-1.72-1.96-3.67-3.69-5.77-5.25c-1.29-0.96-2.48-2.02-2.48-3.83c0.09-2.27,0.74-4.31,2.48-5.89
			c1.17-0.98,2.52-0.71,3.86-0.59c10.56,0.94,19.76-2.03,27.29-9.66C315.14,819.53,316.28,818.69,317.81,818.52z"/>
		<path class="st52" d="M206.65,537.5c28.83,0.12,55.32,8.46,80.06,22.91c13.87,8.11,26.24,18.12,36.82,30.2
			c12.99,14.84,20.92,32.27,25.7,51.34c3.77,15.04,5.45,30.22,4.63,45.66c-0.41,7.68-2.09,15.17-4.02,22.61
			c-1.24,1.05-2.6,0.55-3.87,0.18c-15.04-4.42-30.43-6.55-46.07-7.1c-0.22-0.01-0.43-0.11-0.65-0.19c-1.37-1.94-0.35-4.32-1.16-6.37
			c0.26-7.24-0.74-14.43-0.87-21.66c-0.12-6.85-4.43-11.96-8.58-16.9c-2.54-3.02-5.43-5.75-8.39-8.38
			c-0.43-0.34-0.78-0.74-1.09-1.18c-6.63-11.3-8.65-23.48-6.97-36.36c-1.16,8.68-0.69,17.24,2.07,25.62
			c0.21,0.64,0.48,1.28,0.63,1.93c0.23,1.01,1.36,2.34-0.05,2.98c-1.14,0.53-2.01-0.8-2.69-1.66c-4.07-5.18-7.42-10.81-9.85-16.92
			c-3.29-8.28-5.65-16.81-5.7-21.88c0.57,9.04,4.13,21.13,10.93,32.21c1.95,3.18,4.06,6.24,6.71,8.9c0.87,0.87,1.67,1.86,1.79,3.19
			c-0.97,1.51-2.27,0.65-3.29,0.27c-9.46-3.51-17.95-8.49-24.2-16.65c-9.01-11.75-16.52-24.5-24.26-37.09
			c-0.71-1.15-1.33-2.36-2.11-3.47c-2.63-3.74-2.89-3.82-7.04-1.92c-1.04,0.48-2.08,0.94-3.2,0.24c-1.17-1.78,0.09-3.1,0.82-4.54
			c0.72-1.41,2.13-2.72,0.71-4.48c-1.89-2.38-1.85-5.31-2.18-8.08c-1.2-10.21-2.74-20.37-4.68-30.47
			C206.42,539.48,206.04,538.48,206.65,537.5z"/>
		<path class="st52" d="M133.29,781.69c-12.78,0.01-25.13-2.19-37.06-6.84c-4.72-1.84-7.97-4.63-10.14-9.59
			c-7.29-16.66-12.73-33.85-15.67-51.76c-5.46-33.27-3-65.6,12.5-96.17c5.29-10.43,11.76-20.09,19.65-28.76
			c2.73,4,4.7,8.44,7.12,12.61c3.56,6.15,7.05,12.35,10.76,18.41c0.81,1.33,1.83,2.61,1.8,4.31c-0.04,2.93,2.5,2.41,4.08,2.87
			c4.25,1.22,4.89,2.15,3.86,6.7c-0.33,0.31,0.15-0.02-0.19,0.28c-5.16,4.57-5.11,4.55-2.06,10.86
			c5.27,10.9,10.31,21.84,13.26,33.71c2.24,9.02,0.15,17.24-2.89,25.49c-0.31,0.85-0.88,1.59-1.86,1.83
			c-1.46-0.43-1.19-1.8-1.4-2.81c-1.82-8.78-3.83-17.52-5.28-26.37c1.86,10.85,4.2,21.6,6.52,32.36c0.68,3.1,1,6.25,1.23,9.39
			c0.21,2.79,1.31,4.1,4.19,4c2-0.07,4.13-0.14,5.52,1.82c0.87,3.22-0.71,6.2-0.89,9.33c-0.78,14.18-1.41,28.35,1.22,42.43
			c0.32,1.74,1.03,3.5,0.14,5.29C143.01,783.72,138.17,783.1,133.29,781.69z"/>
		<path class="st53" d="M120.3,570.83c-2.49-6.49-0.94-12.82,0.65-19.18c3.14-12.52,7.22-24.76,11.17-37.03
			c0.24-0.74,0.35-1.53,0.51-2.29c2.62,3.77,6.77,6.5,7.67,11.43c0.2,1.12,0.55,2.2,0.92,3.27c1.46,4.2,2.53,4.72,7.06,4.36
			c7.77-0.63,15.14,0.3,21.18,5.98c1.66,1.56,3.62,2.72,5.92,3.16c0.22,0.04,0.46,0.08,0.65,0.19c4.14,2.45,8.3,4.86,12.53,7.16
			c-1.16,7.01-1.18,14.19-2.61,21.14c-1.47,7.15-5.6,12.26-13.01,14.15c-15.04,3.84-29.95,4.68-44.23-2.76
			C124.84,578.39,121.25,575.65,120.3,570.83z"/>
		<g>
			<g>
				<path class="st54" d="M348.77,810.3l-101.46,28.02c0,0,25.43-27.28,45.68-33.26c20.25-5.98,52.47-12.95,52.47-12.95
					L348.77,810.3z"/>
			</g>
			<path class="st55" d="M318.13,818.01L214.85,849c0,0,26.29-28.69,46.91-35.28s53.38-14.43,53.38-14.43L318.13,818.01z"/>
		</g>
		<path class="st56" d="M188.23,547.7c-4.02-0.66-7.38-2.56-10.4-5.24c-1.99-1.76-5.02-0.94-7.05-2.91
			c-6.92-6.72-15.22-8.63-24.58-6.91c-2.21,0.41-4.43-0.78-4.81-2.91c-1.19-6.74-5.8-11.63-8.75-17.41
			c-0.78-5.92,0.25-11.11,5.91-14.37c1.44-2.02,3.49-2.85,5.87-2.78c2.36,0.07,4.09-0.95,5.62-2.62c1.14-1.25,2.41-2.38,3.58-3.61
			c3.93-4.12,8.83-5.71,14.22-4.43c11.14,2.65,21.33,7.43,29.81,15.3c4.06,3.77,5.09,10.67,2.83,15.96
			c-0.89,7.45-2.98,14.61-5.4,21.68c-0.56,3.8-3.39,6.39-5.09,9.59C189.5,547.52,188.93,547.78,188.23,547.7z"/>
		<path class="st57" d="M95.3,989.12c-6.18-1.59-12.34-3.23-18.53-4.75c-9.21-2.26-16.99-7.09-24.14-13.13
			c-12.17-10.27-22-22.64-31.65-35.19c-1.41-1.84-1.61-3.08,0.37-4.71c2.96-2.43,5.7-5.14,8.46-7.81c1.17-1.13,2.12-1.44,3.47-0.25
			c7.81,6.86,16.15,13.06,24.91,18.61c8.46,5.36,16.98,10.76,27.11,12.63c4.81,0.89,9.65,0.56,14.49,0.55c1.12,0,1.5-0.85,2.12-1.46
			c4.49,0.65,8.9-0.34,13.35-0.68c1.99-0.15,3.93-1.03,5.97-0.44c1.67,1.6,0.15,2.97-0.48,4.21c-4.76,9.51-9.4,19.08-14.23,28.55
			c-0.94,1.84-1.04,4.3-3.49,5.14C100.33,990.73,97.73,990.43,95.3,989.12z"/>
		<path class="st57" d="M141.36,848.93c-0.19,0.28-0.58,0.6-0.53,0.82c0.99,4.87-2.25,5.46-5.8,5.93
			c-10.36,1.37-20.56,3.57-30.71,6.06c-4.82,1.19-8.24,3.84-11.19,7.59c-2.99,3.8-5.34,8.08-8.8,11.52
			c-5.38,2.01-10.86,3.81-16.12,6.09c-4.66,2.02-8.37,1.38-11.94-2.25c-2.48-2.52-4.65-5.2-6.44-8.22
			c-0.69-1.17-0.96-2.06,0.49-3.11c12.69-9.22,25.28-18.56,37.96-27.79c7.57-5.51,15.14-11.04,22.88-16.29c4.42-3,8.36-7,14.05-7.77
			c0.43-0.06,0.78-0.76,1.17-1.16c5.82,0.51,11.67,0.7,17.43,1.8c1.43,0.27,2.9,0.42,4.16,1.26c1.05,1.34,0.21,2.65-0.23,3.83
			c-2.27,6.06-3.83,12.3-5.01,18.66C142.52,847,142.33,848.16,141.36,848.93z"/>
		<path class="st52" d="M188.23,547.7c0.45-0.27,0.9-0.55,1.34-0.82c1.37,0.14,1.48,1.27,1.58,2.24
			c1.19,11.09,3.51,22.04,4.42,33.16c-0.65,1.9-1.44,3.53,1.12,5.07c4.94,2.97,4.83,3.16,2.66,8.76
			c-7.83,4.71-15.93,8.93-23.95,13.29c-7.83,4.26-15.69,8.46-23.43,12.89c-2.03,1.16-4.08,2.5-6.64,2.06
			c-0.97-0.24-1.87-0.71-2.83-1c-3.53-1.1-4.41-2.45-3.86-6.22c0.25-1.73,0.63-3.35-1.38-4.27c-2.07-1.42-2.78-3.8-4.01-5.81
			c-5.56-9.06-10.84-18.3-16.22-27.47c-0.74-1.26-1.56-2.52-1.49-4.08c1.58-1.56,3.16-3.11,4.74-4.67
			c5.8,9.51,15.02,12.43,25.38,13.69c9.22,1.12,18.15,0.06,27.01-2.23c8.52-2.2,11.84-8.4,12.88-16.64
			C186.34,559.65,186,553.48,188.23,547.7z"/>
		<path class="st58" d="M298.86,702.7c9.35-0.68,18.49,0.98,27.68,2.3c7.91,1.14,15.54,3.47,23.3,5.23
			c4.52,2.15,5.19,3.13,3.97,9.53c-1.61,8.41-4.42,16.47-8.23,24.2c-1.75,3.55-4.39,4.17-7.74,3.52c-1.44-0.28-2.86-0.6-4.33-0.52
			c-1.6,0.6-3.1-0.03-4.62-0.38c-12.52-2.83-24.73-6.73-36.96-10.57c-3.73-1-3.96-4.29-3.85-7.06c0.31-7.65,1.34-15.23,4.8-22.24
			c0.65-1.32,1.5-2.52,2.66-3.44C296.53,702.47,297.57,701.75,298.86,702.7z"/>
		<path class="st59" d="M259.02,1076.12c17.94-0.35,34.51-4.76,48.69-16.36c4.4-3.6,7.8-8.09,11.46-12.36
			c3-1.69,6.37-0.74,9.54-1.26c4.54-0.73,9.06-1.4,13.43-2.86c1.15-0.38,2.36-0.82,3.52,0.05c2.2,4.34,1.67,8.84,0.89,13.4
			c-0.24,1.39-1.06,2.74-0.53,4.23c-0.04,2.56-1.37,3.96-3.7,5.04c-5.98,2.78-11.23,6.65-15.92,11.33
			c-5.78,5.76-12.46,10.43-19.16,15.02c-5.45,3.73-11.82,4.61-18.16,4.21c-8.08-0.51-16.23-0.61-24.18-2.57
			c-3.51-0.87-6.93-2.01-10.28-3.35c-1.34-0.54-2.83-1.23-1.99-3.23C253.68,1083.03,255.64,1079.17,259.02,1076.12z"/>
		<path class="st53" d="M200.47,515.76c0-1.7-0.23-3.43,0.03-5.09c1.08-7.01-3.11-11-8.23-14.28c-7.32-4.69-14.97-8.76-23.52-10.81
			c-5.57-1.34-10.5-0.34-14.52,4.02c-1,1.08-2.15,2.02-3.1,3.14c-1.92,2.26-4.01,3.8-7.26,3.36c-1.93-0.26-3.64,0.95-5.33,1.86
			c3.63-8.75,7.51-17.37,12.47-25.49c6.1-9.99,10.36-12.17,21.99-10.33c10.02,1.59,19.93,3.66,29.45,7.3
			c3.37,1.29,6.62,2.77,9.52,5.04c2.71,2.13,3.42,4.83,2.55,7.81c-0.6,2.06,0.1,3.19,1.41,4.42c0.9,0.85,1.81,1.73,2.55,2.72
			c2.83,3.81,2.4,5.9-1.83,7.95c-2.54,1.23-3.13,2.28-1.11,4.76c3.44,4.23,2.51,7.64-2.46,9.96
			C209.08,513.97,204.77,514.86,200.47,515.76z"/>
		<path class="st50" d="M121.69,952.98c-4.87,0.61-9.73,1.37-14.62,1.75c-1.69,0.13-4.01,1.75-5.16-1.11
			c3.76-20.49,7.52-40.99,11.27-61.48c0.18-0.99,0.29-2,0.44-3.01c0.36-2.9,2.39-3.49,4.82-3.39c9.96,0.43,19.43,3.22,29.1,5.73
			c-0.72,1.84-2.2,2.35-3.25,3.29c-3.29,2.94-6.43,6.01-9.1,9.53c-4.85,6.39-6.54,13.24-3.36,20.93c1.98,4.79,3.99,9.58,5.72,14.46
			c1.44,4.08,0.77,7.81-2.95,10.56C130.49,952.14,126.29,953.5,121.69,952.98z"/>
		<path class="st50" d="M148.04,823.6c-6.81-0.5-13.5-2.24-20.38-1.98c-0.86,0.03-1.13-0.56-1.28-1.26
			c2.24-12.08,4.48-24.16,6.72-36.24c1.54,1.9,3.46,2.04,5.76,1.65c4.71-0.81,4.9-0.64,7.29,3.55c0.66,1.15,1.61,1.48,2.8,1.52
			c6.02,0.22,11.93-0.63,17.83-1.67c2.8-0.49,2.96-2.35,2.25-4.59c-0.02-0.23-0.05-0.57,0.08-0.63c2.6-1.13,4.49-3.1,6.23-5.24
			c4.91,1.01,9.62-0.52,14.32-1.37c8.64-1.56,17.18-3.66,25.22-7.35c0.91-0.42,1.88-0.78,2.93-0.71c1.35,1.06,0.56,2.29,0.17,3.38
			c-1.24,3.46-3.61,5.92-6.84,7.66c-6.53,3.52-13.66,5.36-20.65,7.6c-6.47,2.07-12.84,4.36-18.91,7.44
			c-10.36,5.25-16.65,13.98-21,24.4C149.97,821.18,149.7,822.86,148.04,823.6z"/>
		<path class="st60" d="M194.97,582.98c-1.58-11.07-3.15-22.14-4.72-33.22c-0.14-0.98,0.08-2.05-0.67-2.89
			c1.38-3.41,3.61-6.33,5.5-9.44c0.87-0.02,1.73-0.05,2.6-0.07c2.95-0.25,5.9-0.43,8.84,0.1c0,0,0.14,0.03,0.14,0.03
			c2.49,8.46,3.4,17.21,4.66,25.89c0.6,4.12,1.03,8.27,1.58,12.39c0.16,1.24,0.63,2.37,1.68,3.17c-0.36,0.79-0.73,1.58-1.56,2.01
			c-5.76,1.8-11.51,3.67-17.55,4.4C194.34,584.76,194.51,583.9,194.97,582.98z"/>
		<path class="st60" d="M115.56,575.5c6.5,11.01,13,22.03,19.49,33.04c0.74,1.26,1.49,2.5,2.24,3.75c0.6,0.6,1.16,1.22,0.82,2.18
			c-4.06,3.34-8.37,6.35-12.55,9.53c-0.72,0.55-1.51,0.96-2.46,0.98c-0.72-0.1-1.27-0.41-1.47-1.17
			c-4.07-7.12-8.24-14.18-12.17-21.38c-2.47-4.53-5.58-8.75-6.9-13.85C106.2,583.52,110.58,579.21,115.56,575.5z"/>
		<path class="st50" d="M345.68,1043.34c-7.53,2.4-15.17,4.17-23.12,4.2c-1.12,0-2.25-0.09-3.37-0.13c3.5-6.58,6.82-13.2,7.91-20.72
			c0.42-2.93,0.4-5.85,0.3-8.78c-0.04-1.06-0.16-2.12,1.35-2.19c7.86-0.35,14.43-3.98,20.74-8.24c0.08-0.06,0.22-0.02,0.33-0.03
			c-0.12,8.78-0.38,17.57-0.31,26.35C349.54,1037.64,349.49,1041.17,345.68,1043.34z"/>
		<path class="st61" d="M66.68,1042.66c0.74,0.2,1.58,0.25,2.22,0.63c10.52,6.17,21.6,11.09,33.1,15.08c-2.63,2.13-5.8,2.96-9,3.59
			c-14.21,2.81-27.98,1.57-41.11-4.84c-1.5-0.73-3.09-1.5-3.42-3.45c1.09-4.71,4.19-7.24,8.77-8.34
			C60.42,1044.56,63.54,1043.55,66.68,1042.66z"/>
		<path class="st62" d="M252.66,1087.41c0.1,1.29,0.85,1.86,2.04,2.35c7.97,3.28,16.32,5.05,24.86,5.21
			c5.24,0.1,10.38,1.09,15.78,0.41c6.4-0.8,11.39-3.62,16.34-7.21c6.29-4.57,12.25-9.52,17.86-14.9c3.36-3.22,7.3-5.62,11.43-7.6
			c2.28-1.09,4.24-2.19,5.07-4.69c1.12,3.81,0.6,7.55-0.47,11.26c-0.38,1.31-1.51,1.94-2.63,2.49c-2.42,1.21-4.94,2.25-7.28,3.6
			c-2.59,1.5-4.29,1.6-4.29-2.28c-4.33,2.29-7.68,5.24-10.63,8.72c-7.62,8.95-16.71,14.65-28.96,15.47
			c-12.71,0.85-24.76-0.96-36.48-5.66c-1.04-0.42-2.1-0.88-3-1.53C249.2,1090.84,249.31,1089.55,252.66,1087.41z"/>
		<path class="st63" d="M292.24,735.34c10.91,2.82,21.48,6.78,32.48,9.28c2.96,0.67,5.86,1.55,8.79,2.33
			c-1.38,2.04-2.76,4.07-4.14,6.11c-7.64-1.82-14.78-5.17-22.27-7.42c-5.67-1.7-11.06-4.23-16.88-5.44
			C289.58,738.02,290.79,736.63,292.24,735.34z"/>
		<path class="st64" d="M169.16,784.3c2.24,0.52,1.3,2.3,1.35,3.6c0.05,1.19-0.84,1.67-1.97,1.9c-6.95,1.43-13.95,2.16-21.06,2.05
			c-2.14-0.03-2.5-1.6-2.54-2.9c-0.08-2.46-1.4-2.78-3.3-2.56c-1.67,0.19-3.33,0.42-4.99,0.67c-2.3,0.34-3.75-0.31-3.56-2.95
			c0.07-0.81,0.13-1.62,0.2-2.42c4.71-0.09,9.45,0.23,14.13-0.59c5.32,4.4,11.58,2.84,17.59,2.71
			C166.43,783.78,167.9,783.12,169.16,784.3z"/>
		<path class="st65" d="M48.47,1053.66c5.6,4.34,12.03,6.56,18.99,7.46c4.21,0.54,8.38,1.45,12.65,1.34
			c6.74-0.17,13.38-0.77,19.57-3.82c0.66-0.32,1.54-0.19,2.32-0.27c1.59,0.51,3.62-0.06,4.6,1.93c-14.65,6.54-29.7,8.06-45.21,3.52
			c-4.36-1.28-8.42-3.19-12.3-5.56C46.87,1056.89,46.22,1055.52,48.47,1053.66z"/>
		<path class="st66" d="M95.3,989.12c2.71-0.5,5.27,0.97,7.97,0.65c3.26-0.69,6.46,0.08,9.67,0.45c1.09,0.13,2.72,0.22,1.96,2.2
			c-5.64,5.14-11.95,9.24-19.11,11.92c-1,0.38-2.12,1.6-3.35,0.32C93.39,999.48,94.34,994.3,95.3,989.12z"/>
		<path class="st56" d="M206.51,537.47c-2.95-0.03-5.89-0.07-8.84-0.1C200.63,536.63,203.57,536.47,206.51,537.47z"/>
		<path class="st57" d="M194.82,1010.34c4.81-0.98,9.56-2.04,14.36-2.86c1.94-0.33,3.33,1.33,4.78,2.3
			c5.68,3.79,10.6,8.25,13.21,14.9c3.43,8.73,0.91,16.42-4.04,23.51c-8.1,11.59-21.55,13.35-32.81,8.88
			c-8.73-3.46-13.59-10.63-12.86-19.05c0.81-9.32,7.64-16.41,16.43-17.63c4.33-0.6,9.39,2.11,11.23,5.98
			c1.33,2.79,0.65,5.28-1.07,7.6c-1.78,2.41-3.77,2.97-7.9,2.28c0.71-1.06,1.33-2.11,2.08-3.06c0.79-1,1.17-1.93,0.19-3.01
			c-1.02-1.13-2.04-2.06-3.8-1.49c-4.01,1.29-6.56,6.69-5.67,12.21c0.53,3.27,4.08,5.82,7.98,5.96c6.08,0.21,11.39-1.44,14.12-7.22
			c3.3-6.99,1.72-15.26-2.87-20.16c-3.25-3.47-6.92-6.1-11.45-7.55C196.04,1011.69,195.16,1011.52,194.82,1010.34z"/>
		<path class="st57" d="M181.24,865.3c4.27-0.91,8.53-1.89,12.82-2.71c1.81-0.35,3.46,0.17,5.08,1.28
			c7.41,5.08,13.8,10.84,15.86,20.18c1.16,5.25-0.5,9.93-2.7,14.32c-5.53,11.05-14.63,16.71-27.07,15.77
			c-7.96-0.6-14.77-3.94-19.16-11.07c-4.61-7.49-1.85-18.37,5.61-24.16c5.06-3.93,10.15-4.35,15.77-1.8
			c3.46,1.57,4.63,4.72,4.55,8.03c-0.08,3.43-3.04,5.11-5.8,6.47c-0.89,0.43-2.34,0.69-3.1-0.44c-0.65-0.96,0.42-1.59,0.91-2.31
			c0.85-1.26,2.43-2.65,0.71-4.1c-1.73-1.46-3.88-1.86-5.88-0.2c-3.07,2.54-4.59,9.12-3.07,12.83c1.38,3.38,5.49,4.81,9.12,4.5
			c5.77-0.49,10.91-2.59,13.04-8.54c2.44-6.83,1.73-13.27-3.48-18.86c-3.69-3.95-8.07-6.74-13.28-8.3
			C181.18,865.89,181.21,865.59,181.24,865.3z"/>
		<path class="st57" d="M310.93,898.82c4.62-0.88,9.26-1.74,13.87-2.68c0.84-0.17,1.47-0.09,2.23,0.32
			c8.54,4.64,15.12,11.04,17.72,20.68c1.28,4.74,0.03,9.43-1.98,13.81c-3.55,7.74-9.19,13.26-17.41,15.95
			c-12.42,4.05-29.16-2.16-31.67-16.83c-0.84-4.88,0.99-9.26,3.68-13.05c3.82-5.37,9.02-8.4,15.99-7.58c3.73,0.44,6.29,2.4,7.88,5.6
			c1.16,2.34,1.26,4.8-0.6,7c-2.03,2.4-4.39,3.83-7.9,2.69c0.63-1.04,1.17-1.98,1.75-2.88c0.95-1.48,0.75-2.7-0.59-3.87
			c-1.39-1.21-2.78-1.42-4.31-0.42c-3.85,2.51-5.76,9.42-3.89,13.69c0.78,1.79,1.97,2.87,3.87,3.45
			c10.38,3.14,19.38-3.61,19.43-13.75c0.05-9.43-6.25-16.01-14.39-19.71c-1.29-0.58-2.58-1.16-3.87-1.75
			C310.8,899.26,310.87,899.04,310.93,898.82z"/>
		<path class="st57" d="M163.01,972.38c-0.11-0.83,0.61-1.15,1.03-1.63c1.47-1.67,1.82-3.54,0.22-5.13
			c-1.58-1.58-3.49-1.25-5.24,0.04c-2.94,2.17-4.53,8.55-3.17,12.81c0.98,3.06,3.56,4.15,8.26,4.5
			c10.33,0.76,16.61-8.24,14.86-17.97c-1.31-7.29-5.57-11.53-11.44-14.84c-2.13-1.2-4.45-2.06-7.51-3.45
			c4.74-0.94,8.82-1.56,12.8-2.6c3.8-0.99,6.49,0.86,9.17,2.94c5.59,4.33,10.9,9.01,12.45,16.31c2.1,9.86-0.99,18.04-8.37,24.93
			c-4.97,4.64-10.82,6.62-17.3,7.5c-12.81,1.74-25.38-9.32-24.62-22.09c0.58-9.84,10.79-20.19,22.47-15.81
			c3.94,1.48,6.31,6.02,5.23,9.88C170.92,971.17,167.35,973.03,163.01,972.38z"/>
		<path class="st57" d="M232.01,919.52c4.92-0.96,9.06-1.5,13.04-2.59c4.98-1.37,7.9,2.08,10.95,4.57
			c3.89,3.17,7.51,6.68,9.41,11.74c3.52,9.34,1.32,17.32-4.5,24.92c-4.61,6.02-10.73,9.29-18,10.18
			c-10.25,1.26-23.51-3.74-26.46-15.97c-2.63-10.91,6.6-24.53,19.82-22.51c3.92,0.6,7.34,3.94,7.65,7.87
			c0.34,4.28-1.56,6.8-6.03,8.11c-1.01,0.3-2.13,0.72-2.81-0.23c-0.76-1.05,0.54-1.54,1.08-2.14c1.48-1.63,2.13-3.29,0.26-4.99
			c-1.86-1.69-4.05-1.22-5.5,0.26c-2.48,2.54-3.95,5.79-3.9,9.42c0.06,4.27,3.04,7.22,7.2,7.55c6.81,0.54,12.67-0.98,15.77-7.81
			c2.88-6.36,1.54-12.37-2.24-17.91C244.11,924.66,238.46,922.13,232.01,919.52z"/>
		<path class="st57" d="M278.33,993.79c4.71-0.91,9.41-1.81,14.12-2.72c1.78-0.35,3,0.85,4.3,1.65c6.48,4,11.75,9.17,14.53,16.41
			c3.22,8.37,0.35,15.84-4.47,22.51c-5.71,7.91-13.75,11.71-23.62,11.1c-10.86-0.66-20.78-6.42-21.98-18.83
			c-0.72-7.44,2.92-13.46,9.3-17.53c4.78-3.06,9.72-3.34,14.71-0.41c2.77,1.63,4.74,5.69,4.06,8.33c-0.78,3.02-4.16,5.94-7.04,5.98
			c-0.64,0.01-1.52-0.03-1.87-0.42c-0.55-0.63,0.25-1.17,0.64-1.69c1.27-1.67,2.71-3.5,0.5-5.29c-1.95-1.58-4.08-0.82-5.9,0.58
			c-2.52,1.94-4.08,8.46-2.95,11.96c0.99,3.07,4.49,5.13,8.75,5.08c7.81-0.1,14.73-5.1,15.02-14.72
			c0.31-10.12-7.53-16.76-14.93-19.97c-1.01-0.44-2.07-0.77-3.1-1.16C278.38,994.36,278.36,994.07,278.33,993.79z"/>
		<path class="st57" d="M281.19,836.57c-0.05,2.4,2.02,3.11,3.48,4.18c8.7,6.35,13.06,16.56,10.07,26.04
			c-3.51,11.12-12.93,20.52-26.14,20.33c-6.23-0.09-11.6-1.75-16.75-5.19c-7.81-5.23-10.42-19.2-2.29-27.45
			c6.22-6.31,12.64-7.84,18.74-4.21c3.52,2.1,5.26,6.18,4.04,9.51c-1.15,3.13-4.87,5.03-8.89,4.51c-0.41-1.34,1.12-1.46,1.5-2.34
			c0.76-1.78,1.35-3.57-0.5-4.89c-1.62-1.15-3.39-1.01-4.94,0.41c-3.01,2.76-5.46,8.13-2.59,13.92c1.32,2.68,6.62,4.11,11.04,3.21
			c13.29-2.71,14.54-17.36,8.56-25.36c-4.12-5.51-9.45-9.18-16.22-10.64c-0.26-0.06-0.44-0.47-0.66-0.71
			c1.35-1.08,2.96-0.84,4.5-0.87C269.82,836.91,275.52,837.33,281.19,836.57z"/>
		<path class="st67" d="M114.9,992.42c-0.17-1.74-1.57-1.21-2.54-1.32c-3.05-0.33-6.12-0.43-9.09-1.33
			c1.67-1.39,1.78-3.58,2.69-5.36c5.32-10.44,10.51-20.94,15.74-31.42c4.3-0.91,8.6-1.81,12.91-2.72
			c-7.11,8.09-12.16,17.25-14.57,27.81c-0.17,0.76-0.45,1.58-0.34,2.32C120.42,985.36,118.35,989.16,114.9,992.42z"/>
		<path class="st68" d="M145.5,623.96c5.62-1.27,10.07-4.91,15.03-7.51c12.88-6.75,25.63-13.74,38.43-20.64
			c1.43,1.55,2.57,3.38,4.61,4.32c1.19,0.55,1.65,1.8,2.08,2.99c0.46,1.28,0.78,2.61,1.5,3.77c1.49,2.4,3.5,3.29,5.29,2.35
			c2.67-1.41,3.76-3.77,2.72-6.35c-0.93-2.3-1.37-4.41,0.07-6.76c1.27-2.07,0.76-4.07-1.2-5.71c-0.84-0.7-2.43-1.03-1.95-2.73
			c1.65,0.38,2.85-0.65,3.98-1.5c2.5-1.87,4.27-0.8,5.63,1.35c3.62,5.73,7.02,11.62,10.72,17.3c6.53,10.02,12.25,20.66,20.71,29.27
			c6.3,6.42,14.19,10.35,22.74,12.96c1.62-0.42,2.8,0.56,4.06,1.27c0.28,0.24,0.55,0.49,0.83,0.73c2.36,4.48,2.46,9.56,3.65,14.34
			c1.23,4.91,2.2,9.89,3.27,14.84c-3.48,7.02-7.96,13.32-13.56,18.81c-1.34,1.2-2.51,2.77-4.69,2.14c-0.22-0.3-0.38-0.64-0.48-1
			c-0.55-5.83,0.31-11.69-0.51-17.5c-0.67-3.43-1.01-6.95-2.35-10.22c-1.93-4.72-6.35-5.54-9.9-1.85c-1.51,1.57-2.47,3.5-3.22,5.53
			c-1.85,5.04-2.59,10.27-2.72,15.62c-0.1,3.84-0.81,4.43-4.55,3.46c-10.6-2.75-21.15-5.69-31.89-7.88
			c-1.65-0.34-3.31-0.81-5.01-0.29c-1.14,0.38-1.94,1.33-3.02,1.82c-7.96-0.42-11.63,4.55-13.98,11.18
			c-0.07,0.21-0.21,0.39-0.33,0.59c-0.38,0.56-0.89,1-1.43,1.4c-3.33,2.97-3.8,4.98-1.83,8.89c3.48,6.9,9.34,11.76,14.72,17.04
			c0.99,0.97,2.6,1.7,1.53,3.58c-0.32,0.33-0.66,0.7-1.1,0.77c-7.85,1.28-15.69,2.7-23.69,1.42c-1.72-1.57-1.1-3.54-0.85-5.4
			c0.84-6.42-0.48-8.02-6.83-9.05c-5.55-0.9-11.02-0.76-16.51,0.27c-3.13,0.59-5.91,1.59-7.23,4.86c-0.26,0.64-0.75,1.13-1.49,1.26
			c-1.99-0.16-4.02-0.6-5.97-0.4c-3.04,0.31-3.84-1.22-4.09-3.81c-0.35-3.54-0.89-7.06-1.35-10.59c0.59-1.08-0.09-2.65,1.3-3.44
			c3.88-9.42,6.01-18.69,3.07-29.19c-3.23-11.54-8.31-22.14-13.36-32.83c-2.94-6.22-2.78-6.92,3.48-10.05
			c1.9,1.2,3.74,2.39,6.06,2.82c2.21,0.42,3.42,2.49,4.98,3.95c2.93,2.73,5.11,3.13,7.06,1.21c1.96-1.93,1.96-5.17-0.34-7.61
			c-1.71-1.82-2.55-3.68-1.82-6.12C146.14,626.38,145.22,625.21,145.5,623.96z"/>
		<path class="st50" d="M273.81,696.64c0.44-2.17,2.53-3.09,3.82-4.49c3.33-3.65,5.6-7.9,8.14-12.01c0.38-0.61,0.73-1.14,1.51-1.18
			c0.46,0.03,0.93,0.15,1.19,0.52c3.93,5.56,8.27,10.86,10.45,17.47c0.53,1.92,1.2,3.85-0.06,5.75c-2.6-0.06-3.83,1.81-4.77,3.73
			c-3.8,7.76-5.22,16.02-4.9,24.64c0.08,2.27,1.08,3.53,3.05,4.27c-0.67,1.62-1.35,3.24-2.02,4.85c-2.14,4.44-3.47,9.25-6.14,13.45
			c-1.85-7.9-3.69-15.81-5.54-23.71c-0.9-1.28,0.19-2.09,0.74-3c1.29-2.12,2.71-4.18,3.73-6.45c0.49-1.08,1.16-2.2,0.36-3.57
			c-2.88,1.22-3.35,5.27-6.77,5.72c-0.27-0.19-0.46-0.43-0.59-0.73c-0.47-2.61,1.4-4.13,2.76-5.88c2.32-2.98,5.14-5.62,6.7-9.63
			c-2.09-0.01-2.79,1.44-3.87,2.25c-2.57,1.94-3.9,5.24-7.09,6.49c-0.25-0.21-0.44-0.46-0.56-0.76c-0.45-1.81,0.72-2.93,1.73-4.15
			c2.56-3.05,4.94-6.22,6.45-10.01c-3.38,0.96-5.11,3.83-7.47,5.92c-0.95,0.84-1.73,2.41-3.24,0.72c-0.24-0.43-0.34-0.89-0.34-1.38
			c0.16-2,1.57-3.37,2.54-4.95C274.42,699.23,275.16,698,273.81,696.64z"/>
		<path class="st69" d="M212.08,587.71c0.75,0.65,1.44,1.41,2.27,1.94c2.69,1.71,3.27,4.26,1.75,6.69c-1.43,2.29-1.1,4.09-0.15,6.25
			c1.37,3.11-0.06,6.15-3.53,7.8c-1.99,0.95-5.16-0.37-6.22-3.19c-1.27-3.39-2.23-6.77-5.95-8.4c-1.11-0.49-1.2-1.83-1.3-2.97
			c2.06-4.17,0.53-6.69-3.51-8.45c-2.15-0.94-2.74-2.65-0.48-4.38c0.1,0.73-0.06,1.54,0.55,2.14c5.66,1.66,7.62,4.34,6.52,8.91
			c-0.81,1.68-0.56,3.03,1.21,3.93c0.6,0.3,1.31,0.6,1.62,1.18c1.64,3.05,3.65,1.66,5.54,0.45c1.87-1.19,2.61-3.31,3.66-5.12
			c0.58-1.01-0.27-1.92-1.06-2.59c-1.2-1.02-2.44-2-2.92-3.61c-0.48-3.25,0.63-5.85,3.2-7.86c0.07-0.8,0.36-1.41,1.28-1.47
			c1.33,1.64-0.01,2.91-0.63,4.25C213.26,584.68,211.82,585.83,212.08,587.71z"/>
		<path class="st70" d="M279.93,648.35c-1.48-0.03-2.85-0.38-4.06-1.27c-4.85-6.2-9.91-12.27-13.13-19.57
			c-4.08-9.23-6.65-18.85-7.22-28.95c-0.05-0.96-0.74-2.74,0.82-2.8c1.43-0.06,1.12,1.67,1.15,2.74
			c0.46,15.88,6.08,29.86,15.46,42.48c0.47,0.64,0.81,1.37,1.65,1.76c-3.94-11.08-4.87-22.11-2.01-33.48
			C271.27,623.04,272.74,636.26,279.93,648.35z"/>
		<path class="st58" d="M146.75,723.7c1.92-7.52,8.36-7.13,13.99-7.8c4.92-0.59,9.87-0.09,14.69,1.17c3.87,1.01,4.87,2.48,4.64,6.52
			c-0.15,2.57-0.41,5.14-0.62,7.71c0.51,0.67,0.63,1.43,0.56,2.24c-1.18,13.93-2.12,27.88-3.68,41.77c-0.1,1.23,0.05,2.54-1.11,3.42
			c-0.02,4.03-3.08,4.76-6.06,5.57c-4.66,0.72-9.34,0.94-14.05,0.94c-3.41,0-6.14-0.88-7.69-4.14c-3.38-13.98-2.61-28.22-2.65-42.4
			C144.76,733.6,146.44,728.74,146.75,723.7z"/>
		<path class="st71" d="M145.5,623.96c1.43,0.98,1.76,2.51,1.17,3.88c-1.02,2.35-0.11,3.85,1.57,5.29c1.8,1.54,2.24,3.6,1.93,5.84
			c-0.29,2.05-1.45,3.51-3.4,4.28c-2.05,0.82-3.77,0.14-5.26-1.26c-2.74-2.59-5-5.83-9.37-5.94c-1.45-0.04-1.72-1.61-2.32-2.67
			c0.09-4.91,0.08-4.86-4.75-6c-1.82-0.43-4.69-0.1-3.43-3.58c0.47,0.25,0.93,0.51,1.4,0.76c3.72,0.65,7.79,0.54,9.62,4.94
			c0.45,1.08,1.35,0.44,2.03,0.13c2.46-1.13,4.77-2.49,7.37-4.21c-2.01-1.36-4.85-1.74-4.84-4.66c0-2.21-0.71-4.52,0.76-6.56
			c-0.23-0.64-0.46-1.28-0.7-1.92c2.18-0.13,2.7,1.21,2.61,3.02c-0.28,5.57-0.29,5.56,4.57,7.82
			C144.86,623.31,145.16,623.68,145.5,623.96z"/>
		<path class="st70" d="M136.63,705.46c-0.43,1.15-0.87,2.29-1.3,3.44c-2.11-11.88-5.22-23.59-6.42-35.65
			c2.44,2.94,2.14,6.62,2.91,9.98C133.53,690.61,134.55,698.15,136.63,705.46z"/>
		<path class="st72" d="M151.75,543.37c1.14-0.41,1.53,0.25,1.96,0.72c5.5,6.04,12.37,7.92,20.26,6.69
			c0.77-0.12,1.68-0.57,1.84,0.65c0.12,0.92-0.72,0.98-1.4,1.03c-7.26,0.56-14.25,0.05-20.03-5.15
			C153.21,546.26,151.93,545.27,151.75,543.37z"/>
		<path class="st73" d="M160.54,517.6c1.31,0.15,2.52,0.53,2.3,1.94c-0.21,1.39-1.43,1.85-2.79,1.79c-1.16-0.05-2.07-0.67-2.01-1.78
			C158.11,518.06,159.34,517.67,160.54,517.6z"/>
		<path class="st74" d="M182.53,530.36c-1.19-0.19-2.27-0.49-2.14-1.8c0.15-1.46,1.27-2.03,2.64-2.04c1.14-0.01,2.05,0.43,1.96,1.73
			C184.9,529.82,183.68,530.15,182.53,530.36z"/>
		<path class="st64" d="M175.22,778.73c0.08-1.04,0.17-2.08,0.25-3.13c0.62-0.78,1.51-0.9,2.41-1.02
			c12.34-1.59,24.14-5.21,35.78-9.46c0.21-0.08,0.42-0.17,0.63-0.24c3.91-1.37,4.76-0.7,4.5,3.56c-0.15,0.35-0.34,0.68-0.55,1
			l-0.16-0.07c-6.78,3.59-14.06,5.69-21.47,7.52c-6,1.48-12.14,2.07-18.18,3.29C177.17,780.42,175.59,780.74,175.22,778.73z"/>
		<path class="st52" d="M213.29,580.42c-0.89,2.7-3.35,4.92-2.52,8.16c0.13,0.31,0.32,0.78,0.11,0.94
			c-2.87,2.27-5.62,4.83-9.71,4.42c1.59-2.73,0.35-4.59-1.87-6.18c-1.25-0.89-2.86-1.26-3.78-2.63
			C201.33,583.14,207.26,581.59,213.29,580.42z"/>
		<path class="st75" d="M137.99,614.21c0.01,2.47-0.33,5.01,0.12,7.4c0.55,2.89,4.09,1.73,6.13,3.74c-4.08,2.26-7.93,4.39-12.2,6.75
			c0.19-4.81-2.72-5.93-6.37-6.27c-0.98-0.09-2.04-0.25-2.62-1.27c3.92-2.83,7.82-5.69,11.77-8.49
			C135.81,615.37,136.93,614.83,137.99,614.21z"/>
		<path class="st76" d="M218.23,768.68c-0.16-4.29-0.12-4.18-4.18-2.71c-12.52,4.55-25.16,8.7-38.59,9.63
			c1.33-14.77,2.66-29.54,3.98-44.31c7.52,0.3,14.96-0.83,22.42-1.39c1.03-0.08,1.96-0.44,2.65-1.27c4.42-1.7,9.12-2.45,13.56-4.16
			c11-4.22,20.81-10.3,29.55-18.17c2.87-2.58,4.88-5.95,7.83-8.44c1.12-0.95,2.09-2.86,3.93-1.59c1.83,1.26,1.45,3.19,0.67,4.92
			c-1.74,3.82-4.23,7.2-6.52,10.7c-0.74,1.13-1.57,2.2-1.86,3.73c2.76-1.54,4.93-3.78,6.88-6.22c2.48-3.11,5.42-5.76,8.2-8.56
			c0.79-0.79,1.65-1.58,2.92-1.48c1.37-0.91,2.74-1.82,4.12-2.73c2.7-0.02,2.27,1.38,1.37,3.02c-1.11,2.03-2.93,3.63-3.54,5.96
			c-2.65,4.36-6.31,7.92-9.93,12.52c3.92-4.03,6.72-8.01,10.21-11.37c1.96,0.27,2.28-1.69,3.38-2.56c1.93-1.53,3.35-3.66,5.53-4.92
			c0.8-0.46,1.65-0.92,2.46-0.09c0.75,0.76,0.07,1.52-0.28,2.14c-1.95,3.43-4.25,6.63-6.87,9.58c-0.91,1.02-1.85,1.99-1.81,3.49
			c-2.04,1.9-3.34,4.45-5.39,6.14c2.21-1.37,2.97-4.42,5.62-5.56c2.78-2.92,5.51-5.89,8.37-8.72c0.79-0.78,1.93-2,3.18-0.87
			c1.14,1.03-0.06,2.09-0.55,2.99c-1.65,3.08-4.05,5.62-6.25,8.3c-1.26,1.53-2.93,2.85-2.87,5.12c-0.78,0.62-1.32,1.43-1.83,2.26
			c-0.32,0.32,0.32,0.59-0.05,0.32c0.61-0.73,1.1-1.59,2.05-1.96c2.51-1.47,3.54-4.34,5.74-6.11c0.51-0.41,0.93-1.17,1.66-0.93
			c1.02,0.33,0.69,1.33,0.64,2.04c-0.27,4.04-2.92,6.97-4.94,10.17c-0.48,0.76-1.18,1.36-1.19,2.34c-3.46,1.66-5.6,4.79-8.21,7.39
			c-8.32,7.55-18.21,12.58-28.17,17.45c-6.29,3.08-12.65,6.07-19.17,8.64c-1.91,0.75-3.43,1.67-3.52,4.01
			C219.45,768.05,219.18,768.8,218.23,768.68z"/>
		<path class="st77" d="M218.23,768.68c-0.13-4.51,3.23-5.68,6.55-7.05c12.43-5.12,24.54-10.88,35.98-18.01
			c3.24-2.02,5.99-4.79,9.57-6.3c-4.04,5.58-9.6,9.54-15.12,13.35c-11.46,7.89-23.81,14.18-36.98,18.77
			C218.23,769.19,218.23,768.94,218.23,768.68z"/>
		<path class="st48" d="M269.7,699.37c-5.52,4.72-10.05,10.4-15.22,15.46c-1.17,1.15-2.98,3.37-3.95,2.5
			c-1.67-1.48,0.62-3.15,1.49-4.58c1.99-3.29,4.18-6.45,6.2-9.72c0.65-1.04,1.04-2.24,1.53-3.38c0.52-1.2,0.21-2.41-0.73-3.05
			c-1.16-0.79-1.81,0.56-2.41,1.23c-5.52,6.15-11.18,12.12-18.06,16.82c-9.62,6.56-20.02,11.32-31.37,13.95
			c-0.88,0.2-1.75,0.47-2.64,0.04c-4.64-4.6-9.71-8.77-13.69-14.01c-1.22-1.61-2.4-3.29-3.32-5.08c-2.3-4.47-1.82-6.66,1.93-10.12
			c1.41,0.23,2.38,1.21,3.45,2.02c6.44,4.84,13.37,6.08,20.92,2.81c-7.2,3.13-13.91,2.07-20.19-2.37c-1.18-0.83-2.45-1.66-2.74-3.27
			c0.48-2.34,1.69-4.34,2.82-6.4c2.65-4.81,6.6-6.77,12.02-5.68c1.52,0.13,2-0.85,2.2-2.11c1.49-0.88,3-0.58,4.59-0.26
			c11.28,2.26,22.38,5.21,33.45,8.28c2.62,0.73,3.5,0.4,3.41-2.56c-0.16-5.56,0.7-11.04,2.7-16.27c1.28-3.34,3.02-6.35,6.52-7.85
			c3.19-1.37,5.78-0.53,7.47,2.48c2.1,3.73,2.58,7.9,3.06,12.05c0.51,5.14,0.07,10.29,0.24,15.43
			C269.43,696.95,269.08,698.21,269.7,699.37L269.7,699.37z"/>
		<path class="st78" d="M190.9,698.62c6.83,6.41,14.51,8.47,23.36,4.63c0.69-0.3,1.59-1.08,2.07-0.1c0.64,1.3-0.83,1.33-1.51,1.66
			c-8.44,4.12-17.88,2.1-25.37-5.37C189.93,699.16,190.41,698.89,190.9,698.62z"/>
		<path class="st76" d="M269.71,699.37c-1.25-1.62-0.54-3.48-0.57-5.22c-0.07-4.61,0-9.22,0.01-13.83
			c1.22,3.71,0.42,7.54,0.59,11.31C269.85,694.2,269.73,696.79,269.71,699.37z"/>
		<path class="st79" d="M207.94,684.43c0.4,1.02,1.27,2.21,0.11,3.04c-0.75,0.53-1.62-0.38-2.31-0.94
			C206.2,685.55,206.92,684.83,207.94,684.43z"/>
		<path class="st80" d="M271.92,706.77c-2.57,5.22-6.98,8.83-11.22,12.61c3.07-5.06,6.54-9.78,10.95-13.77
			C271.74,706,271.83,706.39,271.92,706.77z"/>
		<path class="st81" d="M274.57,714.97c-1.95,2.97-4.32,5.55-7.22,7.64c2.13-2.92,3.27-6.65,7-8.21
			C274.41,714.59,274.49,714.78,274.57,714.97z"/>
		<path class="st82" d="M276.63,722.42c-0.42,1.79-1.72,2.81-3.57,4.04c0.58-2.36,0.74-4.39,3.4-4.66
			C276.5,722.01,276.55,722.22,276.63,722.42z"/>
		<path class="st68" d="M201.17,593.94c3.45-1.33,6.86-2.75,9.6-5.36c0.21,0.26,0.41,0.53,0.64,0.78c4.36,4.72,4.41,4.75,1.12,9.89
			c-0.94,1.47-3.04,1.33-4.3,2.43c-2.5,2.18-2.53-0.63-3.45-1.64c-0.53-0.59-1.11-1.07-1.9-1.34
			C200.36,597.84,199.92,596.18,201.17,593.94z"/>
		<path class="st68" d="M215.04,606.32c0.03-2.03-1.68-2.97-2.74-4.46C215.28,602.11,215.49,602.45,215.04,606.32z"/>
		<path class="st68" d="M146.15,634.29c2.06,0.52,3.53,1.5,3.19,4.5C148.22,636.91,147.45,635.39,146.15,634.29z"/>
		<path class="st83" d="M259.23,672.39c2.84,5.9,1.32,11.2-0.27,16.47c-0.52,1.71-1.19,3.38-1.87,5.04
			c-0.77,1.85-2.12,2.07-3.81,1.22c-1.86-0.93-1-2.21-0.45-3.43C255.56,685.63,258.06,679.5,259.23,672.39z"/>
		<path class="st84" d="M230.16,693.8c0.21,0.29,0.64,0.61,0.68,0.97c0.3,2.88,2.39,4.17,4.61,5.39c0.47,0.26,1.11,0.48,0.89,1.21
			c-0.21,0.71-0.82,0.76-1.35,0.49c-2.69-1.34-5.08-2.98-5.79-6.18C229.04,694.92,228.84,694.07,230.16,693.8z"/>
		<path class="st56" d="M317.81,818.52c-2.65,1.72-4.46,4.36-7.03,6.23c-7.78,5.67-16.34,7.58-25.77,6.1
			c-0.49-0.08-1.05,0.25-1.58,0.39c-1.65-0.67-2.11-2.21-2.66-3.66c-1.78-4.74-2.69-9.67-3.28-14.68
			c-0.88-5.82-1.31-11.7-2.03-17.53c-1.8-14.62,2.31-28.02,7.72-41.22c1.77-3.67,3.3-7.45,4.91-11.19c0.49-1.13,0.96-2.31,2-3.11
			c0.86-0.44,1.77-0.36,2.62-0.06c11.88,4.14,23.87,7.95,35.64,12.41c0.43,0.16,0.75,0.48,1.02,0.86c-1.14,2.63-3.82,4.42-4.12,7.51
			c-3.82,6.09-8.09,11.91-11.42,18.31c-3.15,6.07-4.58,12.44-3.59,19.26c0.13,0.91,0.25,1.8-0.41,2.57
			c0.5,5.47,2.3,10.53,5.03,15.25C315.54,817.12,316.27,818.33,317.81,818.52z"/>
	</g>
</g>
</svg>
