<?xml version="1.0" encoding="utf-8"?>
<!-- Generator: Adobe Illustrator 24.3.0, SVG Export Plug-In . SVG Version: 6.00 Build 0)  -->
<svg version="1.1" id="Layer_1" xmlns="http://www.w3.org/2000/svg" xmlns:xlink="http://www.w3.org/1999/xlink" x="0px" y="0px"
	 viewBox="0 0 591.3 533.1" style="enable-background:new 0 0 591.3 533.1;" xml:space="preserve">
<style type="text/css">
	.st0{fill:none;}
	.st1{fill:#019267;}
	.st2{fill:#DFD3A3;}
	.st3{fill:#C9954F;}
	.st4{fill:#377C63;}
	.st5{fill:#463A3E;}
	.st6{fill:#899452;}
	.st7{fill:#F49075;}
	.st8{fill:#EFB53B;}
	.st9{fill:#C9944F;}
	.st10{fill:#377D63;}
	.st11{fill:#B4B080;}
	.st12{fill:#7C522B;}
	.st13{fill:#7A522A;}
	.st14{fill:#7A512A;}
	.st15{fill:#1D181A;}
	.st16{fill:#784D28;}
	.st17{fill:#F39075;}
	.st18{fill:#B3AF7F;}
	.st19{fill:#B5B082;}
	.st20{fill:#B4AF7F;}
	.st21{fill:#1B1516;}
	.st22{fill:#ED9274;}
	.st23{fill:#F49175;}
	.st24{fill:#0F4C13;}
	.st25{fill:#DFD2A3;}
	.st26{fill:#425049;}
	.st27{fill:#0F0C0D;}
	.st28{fill:#899451;}
	.st29{fill:#45393D;}
	.st30{fill:#104C14;}
	.st31{fill:#1B1618;}
	.st32{fill:#43393B;}
	.st33{fill:#FBFBFB;}
	.st34{fill:#E36746;}
	.st35{fill:#E16746;}
	.st36{fill:#524042;}
	.st37{fill:#473B3D;}
	.st38{fill:#554142;}
	.st39{fill:#473A3B;}
	.st40{fill:#784F27;}
	.st41{fill:#754A22;}
	.st42{fill:#8C643A;}
	.st43{fill:#57947D;}
	.st44{fill:#887668;}
	.st45{fill:#443A3D;}
	.st46{fill:#377860;}
	.st47{fill:#45403B;}
	.st48{fill:#43383C;}
</style>
<rect x="118.6" y="-297.4" class="st0" width="1093" height="1038"/>
<ellipse class="st1" cx="286.8" cy="484.6" rx="196.6" ry="28.3"/>
<g>
	<path class="st2" d="M289.9,277.1h39.5h13.4l-0.9-8c0,0-11.9-14.6-25.1-13.4s-19.5-19-19.5-19"/>
	<rect x="330" y="40" class="st3" width="27.7" height="14.3"/>
	<path class="st2" d="M495.1,239.1c-0.4,1.2-0.1,2.4,0.3,3.4c2.2,6,2,12,0.5,18.1c-3.2,13.1-2,26.3-0.8,39.5
		c0.6,6.5-0.3,12.8-2.1,18.9c-3.1,10.5-5.7,21.1-9.7,31.2c-3.5,8.8-9.5,15-19.5,16.6c-8,1.3-14.9,5.8-22.5,8.2
		c-3.2,1.7-6.6,1.9-10,1.6c-3.3-0.3-6.6-0.8-9.9-1.4c-1-0.5-2.3-0.6-2.5-2.1c-0.1-0.6,1.1-0.6,0.7-0.6c-3.4,0.1-2.6-2.4-2.8-4.2
		c-0.5-4.7-0.5-9.2,2.3-13.5c1.5-2.3,1.7-5.3,2-8.1c-0.6,6.2-3.6,11.4-6.3,16.7c-0.1,0.1-0.5,0.2-0.2,0.5c1.5,1.2,2.5,7.2,1.1,8.8
		c-2,2.3-1.5,4.8-1.3,7.3c0.4,4.5-2.4,7.6-5,10.8c-2.4,3-5.6,5.3-8.7,7.5c-1.4,1-2.8,2-4.3,2.9c-4,2.4-8.1,3.3-12.5,1.5
		c-2.7-1-5.4-1.9-8.3-2.4c-3.2-0.5-6.5-0.3-9.7-0.2c-4,0.1-7.8-0.4-11.6-1.6c-3.2-1.3-6.3-2.8-9.7-3.6c-4.7-2.5-9.7-2.5-14.6-1.2
		c-7.3,2-14.5,2-21.7,0c-8.2-2.2-16-2.7-24.3,0c-6.2,2-12.7,0.7-18.7-1.9c-5.9-3.8-10.6-9-15.4-14c-0.7-0.8-1.5-1.5-1.6-2.6
		c0-1.6,1.3-2.4,2.3-3.3c3.5-3.6,6.3-7.7,7.8-12.5c-2.2,5.9-5.6,10.9-10.4,14.9c-0.8,0.7-1.6,1.4-1.6,2.5c-1.2,2.7-3.4,4.7-4.5,7.5
		c-0.7,0.2-1.1-1-2.2,0.1c-3.8,3.7-8.4,6.6-13,9.4c-1.3,0.6-2.3,1.7-3.6,2.5c-0.4,0.2,0.1,0-0.3,0.2c-7.2,3.8-7.6,4.1-12.4-2.3
		c-4-5.3-8.1-10.7-11.2-16.7c-0.8-1.1-1.4-2.6-2.4-3.4c-4.9-3.7-6.7-9-8.4-14.5c-2.1-6.6-4.2-13.3-8.5-19c-2.5-3.3-5.5-5.3-9.4-6
		c-6.5-1.1-12.2-3.6-16.1-9.3c-1.9-2.7-5-4.2-7-6.7c-2.9-3.5-3.8-7.6-3.3-11.7c0.6-4.6,0.5-8.9-1.6-13.2c-2.8-5.5-0.8-10.5,2.9-14.8
		c2.8-3.2,4.4-6.2,3.5-10.9c-1.3-6.7,2.3-11.9,7.4-16c6.5-5.3,13.9-8.8,21.2-12.8c1,2.1-0.9,3.2-1.8,4.5c-1.5,2-2.9,3.9-4.2,6
		c-1.3,2.1-2.1,4.3-1.2,7c1.1,3-0.3,5.5-2,7.8c-3.5,4.6-4.4,9.3-1.8,14.6c2.3,4.8,4,9.9,3.2,15.5c-0.3,2.3,0.1,4.9,1.7,6.8
		c-1.3-2.7-1.9-5.6-1.6-8.7c0.5-5.1-1.4-9.7-3.5-14.1c-2.4-5-1.5-9.5,1.7-13.7c2.1-2.8,3.6-5.6,2.1-9.4c-0.9-2.2,0.5-4.3,1.7-6.2
		c1.6-2.7,3.8-5,5.5-7.7c0.8-1.3,2.1-2.6,1.8-4.4c2.4-0.7,3.9-2.5,5.5-4.4c10.3-12.1,23-20.7,38.4-25.2c7.3-2.1,14.5-4.9,22-6.6
		c2-0.5,4.2,0.2,6.1-0.9c1,0.9,1.1,2.1,1,3.2c-1.2,11-1.6,22.1-2.4,33.1c-0.8,12.1-3.2,24-2.5,36.2c0.2,3.9,0.7,7.7,2.1,11.3
		c4,11,14,15.7,25,11.6c7.8-2.9,13.8-8,18.5-14.9c2.9-4.2,5.3-8.8,8.8-12.5c1.7-0.8,2.4,0.3,2.8,1.5c1.4,4,4.6,5.7,8.3,6.8
		c3,1.3,6.2,1.5,9.1,2.5c0.2,1.3-0.6,1.4-1.2,1.6c-0.7,0.3-1.9,0.2-1.4,1.4c0.4,1,1.3,1.7,2.5,1.4c1.1-0.2,0.8-1.1,0.8-2
		c-0.3-2.3-2.2-4.4-1-7c2.9-2.6,4.6-2.4,7.8,0.8c0.5,0.7,0.8,1.4,1,2.2c0.2,0.8,0.3,1.7-0.5,2.2c-1,0.6-1.5-0.3-1.9-0.9
		c-0.4-0.5-0.8-1.2-1.3-1.6c-0.4-0.3-0.8-0.5-1.3-0.3c-0.7,0.3-0.5,1-0.3,1.5c0.3,1,0.9,1.9,1.1,2.9c0.9,3.9-0.7,5.9-4.7,5.7
		c-3.3-0.1-6.5,0.1-10.4,0.9c4.6,1.8,9.1-0.1,13.5,2c-2.9,2.5-6.5,1.9-9.2,3.6c3.8,1.5,7.6,0.5,11.4,0.2c1.4-0.1,1.8-1.2,2.4-2.2
		c2.9-5.2,7.9-5.5,10.7-0.3c1.2,2.1,2.8,1.9,4.4,1.8c9-0.8,18.1-1.5,27-3.2c1.2-0.2,2.5-0.6,3.8-0.5c2.4,1.2,2.5,3.8,3.5,5.8
		c2.3,4.9,2.8,5.3,7.9,3.6c26.8-9,53.2-18.8,79.3-29.5c0.9-0.3,1.7-0.7,2.6-1.1c10.5-5,12.6-9,10.7-20.5c-1-6-2.7-11.8-4.4-17.6
		c-0.4-1.4-1.3-2.9,0.3-4.1c1-0.3,1.8,0.3,2.5,0.8c3.5,2.6,7.4,4.4,11.5,5.8C491.8,233.4,494.5,235.2,495.1,239.1z"/>
	<path class="st4" d="M301.9,268c-3.3,4.8-6.5,9.7-9.8,14.5c-3.9,5.7-9.1,10-15.3,12.9c-14.3,6.5-26.9,0.1-30.2-15.2
		c-1.6-7.5-1.5-15.1-0.5-22.6c1.5-11.6,2.2-23.2,3.1-34.8c0.6-7.5,1-15.1,1.5-22.7c1-15.4,2.9-30.6,7.7-45.4c1.6-5,3.4-9.9,5.8-14.6
		c5.5-10.7,15.5-14.1,26.3-16.3c3.8-0.8,7.6-1.1,11.5-1c9.3-0.7,9.2-0.7,12.5,7.9c3.7,9.8,5.1,20,5.3,30.4c0.2,10.1-0.7,20.2-1,30.3
		c-0.4,1.3-1.5,1.5-2.6,1.8c-1.4,0.4-2.3,1.4-3,2.6c-2.8,1.5-5.9,1.5-9,1.7c-3.6-1.1-6.6-3.4-9.8-5.2c-1.4-0.8-1.5-2.2-1.5-3.6
		c0.2-7.3,1.2-14.6,1.5-21.9c-0.5,7.3-1.4,14.6-1.5,21.9c-0.1,3-1.9,5.2-3.4,7.5c-5.7,8.8-11.1,17.8-14.2,22.5
		c3.4-5.4,9.5-14.8,15.4-24.4c1.2-1.9,2.7-2.3,4.7-1.2c3.1,1.6,5.8,3.9,9.3,4.8c3.2,0.9,5.3,3.5,8.1,5.1c4.9,3.9,10,7.6,15,11.4
		c4.5,3.9,4.8,4.8,1.7,9.9c-6.8,10.8-12.9,22-19.8,32.7c-2.1,2.4-2.9,5.5-4.8,8C303.8,266,303.2,267.4,301.9,268z"/>
	<path class="st4" d="M474.7,225.7c-1.4,1.2-0.2,2.4,0.2,3.5c2.3,7.5,4.4,15,5.1,22.8c0.6,6.8-1.9,11.8-8,15
		c-8.9,4.6-18.4,8-27.8,11.6c-19.5,7.4-39,14.8-58.9,21.2c-5,1.6-5.5,1.4-7.7-3.4c-1-2.2-1.9-4.5-2.9-6.7c-2.6-3.2-2.9-7.2-4.1-10.9
		c-0.4-1.2-0.7-2.5-0.9-3.7c-0.3-1.7-0.7-3.4-1-5.2c-0.7-4-0.4-4.9,3.3-6.6c7.7-3.6,15.7-6.5,23.6-9.8c10.4-4.4,21-8.5,31.4-12.8
		c1.1-0.4,2.1-1,3.4-0.7c3.9-0.6,7-2.9,10.5-4.3c3.1-1.2,6.1-2.8,9.2-4.1c-6.5,2.6-12.8,5.8-19.3,8.4c-3.5-3.8-6.1-8.2-9.2-12.2
		c-5.1-6.5-10.1-13.1-14.8-19.9c-1.7-2.8-5.1-4.8-3.9-8.9c0.4-0.9,1.3-1.2,2.2-1.4c1.2-0.2,2.5-0.2,2.9-1.8c0.3-1.6-0.3-2.6-1.7-3.3
		c-0.3-0.1-0.5-0.5-0.6-0.8c-0.9-3.9-0.2-7.9-0.5-11.8c-1-15.7-1.7-31.4-6.3-46.6c-0.8-2.5-1.5-4.9-2.6-7.2
		c-0.5-1.2-1.5-2.5-0.5-3.9c6.1-0.3,12,1,18,1.4c11.6,0.8,21.6,4.3,27.1,15.9c4.9,10.3,9.2,20.9,14,31.3c0.3,1.4,0.7,2.8,0.2,4.2
		c-0.2,0.4-0.4,0.6-0.7,0.8c-3,1-6.2,0.1-9.2,0.8c-5.3,1.1-10.3,3.2-15.2,5.6c-4.1,2.3-8.3,4.3-12,7.1c-1.2,0.9-2.8,1.8-2.5,3.5
		c0.3,1.8,2.3,1.8,3.7,2.1c8.3,2.1,16.9,2,25.4,1.6c3.3-0.1,6.3-1.5,9.3-3c2.3-1.1,4.4-2.6,6.9-3.3c0.6,0,1.2,0.2,1.5,0.8
		c0.7,1.5,1.6,2.2,3.2,1c0.5-0.4,1.3-0.6,1.8,0.1c0.3,0.6,0,1.2-0.4,1.6c-2.5,2.3-1.6,4.7-0.6,7.4
		C469.1,209.4,471.9,217.6,474.7,225.7z"/>
	<path class="st5" d="M454.6,174.7c0.1-1.1-0.8-2.2-0.2-3.4c-0.1-2.5,1.6-3.4,3.6-4.1c0.8,0,1.5,0.4,2.3,0.6c3.7,1-6.5,5.7-5.6,1.9
		c0.3-1.2,12.4-8.4,13.8-9c11.9-5.5,24.2-8.2,37.3-5.8c13.3,2.5,26.6,4.6,39.7,7.9c1.3,0.3,2.7,0.8,4,1.2c8.3,2.7,10.2,5.5,7.8,13.7
		c-1,3.3-3.8,6.3-7.2,8.1c-2.1,1-3.5,2.6-4.9,4.3c-9.4,11.2-19.4,21.7-32.5,28.8c-8.7,4.5-17.5,5.7-26.5,1c5.9,3.1,12,4,18.5,2.1
		c0.9-0.3,1.8-0.4,2.5,0.5c-5.1,4.8-9.6,10-12.2,16.6c-1.8-3.7-4.9-5.6-8.7-6.7c-4.4-1.4-8.3-3.6-11.7-6.7
		c-3.5-3.4-3.4-8.3-5.2-12.4c-2.2-4.7-3.5-9.9-5.4-14.7c-1.3-3.1,1.6-4,2.8-6.1c-1.8-0.1-2.3,2.5-3.7,2c-1.5-0.5-1.1-2.7-2.2-3.7
		c0.9-1.9,0.9-1.9,4.4-4.5c-4.6-0.2-8.7,0.1-12.7-0.7c-2.9-0.5-5.7-1-8.5-1.9c-3.9-1.3-7.9-2.2-12-1.5c-0.9,0.2-1.9,0.3-2.7-0.5
		c7.8-4.5,16-7.1,25.1-6.4c4,0,8,1.2,12.1,0.6c0.1-0.4,1.7,0.4,0.7-1c-1.3-1.9-1-3.7,0.7-5.3c1.8-1.7,3.7-3.6,5.9-2
		c-1.5-1.3-3.1-0.3-4.9,0.8c-1.8,1.1-2.9,2.6-2.5,4.9c0.1,0.9,0.7,1.8-0.4,2.5C462.1,176.3,458.3,176,454.6,174.7z"/>
	<path class="st6" d="M135.8,403.8c-0.1-3-0.1-6.1-0.3-9.1c-0.2-2.4,0.9-3.7,3.2-4.2c5.9-1.5,11.8-2.5,17.9-2.7c1.5,0,3-0.2,4.4-0.8
		c4.7-1.8,9.6-1.5,14.4-1.5c4.1,0.1,8.2,0.8,12.4,0.2c3.7,0,7.3-0.1,11-0.1c1,0.8,0.7,1.9,0.4,2.9c-1.3,4.7-2.5,9.3-4.5,13.8
		c-0.9,1.4-1.9,2.8-2,4.6c-0.3,2.1-1.3,3.9-1.9,5.9c-0.1,0.7-0.3,1.5-0.5,2.2c-4.7,13-3.2,26.1-0.5,39.2c0.4,2.2,1.7,4.5,0,6.7
		c-5.1,1.6-10.5,1-15.6,0.6c-6.7-0.6-13.5-0.3-20.2-1.1c-8.6-1-8.8-0.8-10.9-9.2c-0.1-0.5-0.2-0.9-0.3-1.4
		c-2.6-13.3-5.3-26.6-6.9-40.2C135.6,407.7,135.3,405.8,135.8,403.8z"/>
	<path class="st7" d="M326.2,122.2c0-3,0-6,0.1-9c0.4-1.6,1.9-2.3,3-3.3c3.5-3.4,4.1-7.4,1.7-11.7c-1.1-1.9-2.5-3.6-4.1-5.2
		c-1.6-1.6-2.7-3.5-3.5-5.6c-1-2.6-0.7-5.1,1.2-7.1c1.8-1.9,4.2-1.9,6.5-1.2c6.3,1.7,6.3,1.7,7.8-4.9c2.1-9.2,6.8-12.9,16.2-13.1
		c6.4-0.2,12.8,0.4,19.1,1.6c0.5,0.1,0.9,0.2,1.4,0.2c6.2,0.7,6.3,0.7,7.3,6.9c1,6.1,2.1,12.1,1.5,18.3c0,5.2,0.2,10.4-0.2,15.6
		c-0.5,6.9-2.8,13.1-8.4,17.6c-1.8,2.3-4.5,2.8-7,3.8c-6.8,0.3-13.3-1.2-19.9-3.4c6.1,2.5,12.5,2.8,18.7,4c0.9,1.4,0,2.5-0.7,3.5
		c-5,7.7-15,11.4-23.9,8.6c-4.6-1.5-9.2-3.4-13.4-5.8C327.9,128.8,325.7,126.1,326.2,122.2z"/>
	<path class="st8" d="M135.8,403.8c1.5,5.5,1.6,11.2,2.6,16.7c1.6,9.1,3.1,18.3,5,27.3c0.1,0.6,0,1.2,0.1,1.7
		c-1,1.1-2.4,1.5-3.8,1.5c-2.8,0-3.5,1.5-3.5,4c0,7.5,0.4,15.1-0.7,22.7c-0.2,1.4-0.1,2.8-1.1,3.9c-1.2,5.7-2.7,11.2-6.6,15.8
		c-3,3.5-6.7,5.6-11.2,6.4c-2,0.3-3.7,0-4.7-2c-0.6-1.5-1.1-3.1-1-4.8c0.3-7.5-0.7-14.9-0.8-22.3c-0.3-21.4-1.2-42.8-1.7-64.2
		c0-1.2-0.1-2.3,0.9-3.2C118.1,405.2,127,404.7,135.8,403.8z"/>
	<path class="st9" d="M403.2,54.9c-0.9,3.3-2,6.4-4,9.2c-1.4-1.5-1-3.3-0.9-5c0.4-11.9-9.4-20.8-21.3-21.4
		c-8.6-0.5-16.6,1.8-24.4,4.9c-1.1,0.4-2.1,1.1-3.3,1.1c-0.8,0-1.5-0.5-2.1-1c-1.6-1.5-3.5-1.9-5.4-0.9c-1.9,1-2.6,2.8-2.4,4.9
		c0,0.5,0,0.9-0.2,1.4c-1.3,2.2-3.7,3.2-5.7,4.5c-8.6,5.5-16.3,12.1-22.3,20.5c-5.1,7.1-9.2,14.6-10.2,23.5
		c-0.2,1.4-0.3,2.8-1.4,3.9c-4.6-3.3-7.5-7.8-9.1-13.2c2.4-8.9,6.7-16.9,12.8-23.8c3-4.2,6.9-7.5,10.6-11c4.7-4,9.8-7.4,15.3-10.3
		c-5.5,2.9-10.6,6.4-15.4,10.3c-3.7,3.6-7.8,6.9-10.8,11.2c-5.3,5.8-8.9,12.7-11.6,20c-0.3,1-0.5,2-1.2,2.8
		c-2-6.8-0.8-13.4,1.9-19.7c5.5-12.9,15.2-22.1,26.5-29.9c2.2-1.5,4.4-3,6.7-4.5c3.6-2.3,6.8-5.2,11.4-5.4
		c11.5-4.4,23.3-7.4,35.8-6.5c9,0.6,17.5,3,24.2,9.4c6.8,6.5,8.8,14.5,6.6,23.6c-0.9-3.3-1.4-6.7-3-9.9c-4.7-9.5-12.5-14-22.8-15
		c-10.3-1-20.1,1.4-29.7,4.9c-1.5,0.6-3.1,1-4.6,1.6c8.8-3.5,17.9-6.3,27.4-6.8c14.6-0.7,26.9,4.7,31.4,19.9
		C403,50.5,402.9,52.7,403.2,54.9z"/>
	<path class="st5" d="M189.7,460.7c-1.1-6.6-2.4-13.2-3.1-19.8c-1-9-0.7-18,3.1-26.5c6.8-0.4,6.8-0.4,4.2-7
		c-0.5-1.3-0.8-2.5,0.5-3.5c1.2-0.9,2.4-0.5,3.5,0.4c0.6,0.5,1,1.2,1.5,1.6c-1-2.2-3.3-2.6-5.4-3.4c1.5-5.7,4-11,4.8-16.8
		c0.1-2.7,0.2-5.5,0.3-8.2c3.1,2.9,5,6.6,7.4,10c0.9,1.2,1.7,2.5,2.5,3.8c1.6,2.6,3.7,4.9,6,6.7c3.2,2.4,4.9-2.2,7.8-2.4
		c1,1.1,0.3,2.2-0.2,3.2c-1.3,2.5-2.7,4.9-4.2,7.2c-0.9,1.3-1.3,2.7-1,4.2c-1.5,3.1-2.3,6.3-3.1,9.6c-0.7,2.8-1.3,5.5-3.8,7.6
		c-1.7,1.3-1.8,3.5-0.5,5.4c1.2,1.8,1.3,3.7,1,5.7c-1.3,8.2-0.5,16.4-0.4,24.6c0,0.7,0.3,1.4,0.4,2c0.8,5.4,1.6,10.7,2.5,16.1
		c0.2,1.3,0.7,2.7-0.3,4c0,4.9,2.4,8.7,5.7,12.2c3.1,3.3,1.4,7.2-3.1,7.7c-1.7,0.2-3.5-0.1-5.2-0.2c-8.3-0.5-10.4-2.8-11-11.1
		c-0.3-3.6-2-6.8-3.2-10.2c-0.4-0.2-0.8-0.5-0.9-1c-2.3-6.9-4.5-13.8-5.7-21C189.4,461.3,189.6,461,189.7,460.7z"/>
	<path class="st6" d="M421,374.3c6.7,1.2,13.5,2,20.3,0.9c-1.2,4.2-2.4,8.3-3.6,12.5c-0.6,4.9-1.4,9.8-4.2,14.1
		c-3.9,12.4-7.8,24.8-11.8,37.2c-2.2,6.8-4.6,13.4-8.3,19.6c-0.2,1.5-1.3,2.2-2.5,2.5c-3.4,0.7-6.8,0.7-9.9-1.3
		c-0.8-1.5-0.7-3.2-0.7-4.8c0.1-7.7-0.4-15.4,0.6-23c0.6-4.5-0.4-9.1-0.9-13.6c-0.6-5.7-0.3-11.4-0.4-17.1c0-1.3,0.4-2.5,1.1-3.6
		c4.7-3.8,9.6-7.4,12.2-13.2c0.6-1.4,1.2-2.8,1.2-4.3c0-0.2,0-0.3,0-0.5c-0.1-2.9,2.3-4.1,4-5.7C418.9,374,420,374.1,421,374.3z"/>
	<path class="st10" d="M329.9,131.4c3.7,1.5,7.5,3.1,11.2,4.6c10.5,4.3,21.6,0.1,26.7-10.1c0.1-0.7,0.8-1,1.1-1.6c2.3-1,4.7-2,7-3.1
		c1.7,0.2,3.4,0.4,5.1,0.5c3,7.4,5.1,15,6.1,23c-0.2,1.4-1.2,2.2-2.1,3.1c-14.7,14.8-29.5,29.5-44.2,44.2c-0.8,0.8-1.6,1.7-2.7,2.2
		c-0.9,0.3-1.8,0.2-2.7-0.2c-0.9-0.7-2.1-1.1-2.5-2.3c-0.2-6.1,0.7-12.1,1.2-18.1c1-12.2,0.2-24.2-3.4-36
		C330,135.7,328.6,133.6,329.9,131.4z"/>
	<path class="st5" d="M384.5,88c-0.9-6.7-1.8-13.3-2.7-20c-0.3-2.9-0.7-4.9-4.7-4.3c-3.3,0.5-6.7-0.8-10-1.3c-5.7-1-11.3-1-17,0.1
		c-5.4,1.1-8.4,4.6-9.7,9.8c-0.5,2.3-1,4.5-1.6,6.8c-0.7,2.6-2.5,3.2-4.8,2.2c-0.4-0.2-0.9-0.4-1.3-0.6c-2.5-1.4-5.2-2.4-7.4-0.2
		c-2.4,2.4-1.6,5.3-0.3,8.1c1.2,2.5,3.2,4.3,4.9,6.3c6,7.2,4.7,13.8-3.6,18.3c-1.6-1.3-1.8-3.4-2.8-5.1c-2.4-2.9-2.2-6.5-2.8-9.9
		c-1-5.4-1.5-10.8-2.7-16.1c-0.5-2-0.5-4,0.6-5.8c6.7-9.6,13.8-18.8,25.2-23.3c0.3-0.1,0.7-0.2,1-0.4c3.5-1,3.5-1,4.3,4.2
		c0.1,0.5,0.7-0.2,0.3,0c-0.2,0.1-0.3,0.1-0.3-0.1c-0.7-1.8,0.1-3.4,0.6-5c1.3-2.3,3.6-1.8,5.7-2c6.7-1.7,13.5-2.5,20.3-0.8
		c2.7,0.6,5.5,1,8.3,1c2.4,0,4.3,1,5.4,3.2c0.3,0.6,0.6,1.2,0.5,2c-0.1,1.4-1.6,1.9-2.2,3c1.9,1,1,2.2,0.2,3.5
		c-0.4,0.6-0.4,1.3-0.1,2c2.2,5.7-0.2,11.1-1.2,16.6C385.6,82.7,385.9,85.5,384.5,88z"/>
	<path class="st6" d="M329.9,131.4c4.1,12.2,6.2,24.7,5.5,37.6c-0.4,7.7-1.4,15.4-2.1,23.1c-3.4,2.3-7.2,0.9-10.8,1.2
		c-1.6,0.1-3.3,0.2-4.5-1.2c-0.5-9.6,0.8-19.1,0.7-28.6c-0.1-11.5-1.5-22.7-5.7-33.4c-0.5-1.3-1.2-2.6-1.3-4
		c-0.3-2.7-1.8-3.5-4.3-3.2c-1.8,0.2-3.7-0.1-5.6-0.1c8.1-0.8,16.2-1.4,24.4-0.5C327.4,125.3,328.7,128.3,329.9,131.4z"/>
	<path class="st8" d="M401.4,460c2,0,4.1,0,6.1,0.4c2.2,0.4,4.3-0.2,5.9-1.8c6.8,0.5,13.7,1,20.5,1.5c4.8,0.3,9.2,2.2,13.6,4.2
		c3.8,3.2,7.9,6.3,8.9,11.6c0.5,2.5,1.3,5.4-1.7,7.2c-10.8,1.2-21.6,0.4-32.4,0.6c-5.8,0.1-11.6,0-17.5,0c-2.6,0-3.8-1-4.1-3.9
		c-0.5-5.2-0.5-10.5-0.4-15.7C400.2,462.5,400.2,461,401.4,460z"/>
	<path class="st6" d="M386.4,145.3c-1-6.6-2.8-13.1-4.8-19.4c-0.4-1.4-0.6-2.7-0.6-4.1c4.9-0.3,9.8,0.4,14.7,0.6
		c9.8,22.4,10.2,46.1,10.5,69.9c-1,1.2-2.5,1.1-3.9,1c-3.8-0.2-7.7,0.6-11.4-0.6c-1.5-1.5-1.6-3.6-1.8-5.5
		c-1.4-13.3-1.6-26.7-3.3-40C386,146.5,386.2,145.9,386.4,145.3z"/>
	<path class="st3" d="M345.2,53.4c-11.8,4.4-18.9,14-25.9,23.6c-1,1.4-0.6,2.9-0.4,4.4c1.5,8.9,3.1,17.8,4.7,26.8
		c-8.1-0.2-15.9-1.6-22.4-6.9c-1.5-4.9,0.3-9.5,2-13.8c4.9-13.3,14.1-23.3,25.3-31.7c3.6-2.7,7.9-4.5,11.1-7.8
		c0.2-0.2,0.5-0.4,0.9-0.6c3.8-0.8,6.8-4,10.9-3.9c1.4,1.9-0.7,2.5-1.4,3.6c-1.3,2-4,2.9-4.3,5.6C345.5,52.9,345.4,53.2,345.2,53.4z
		"/>
	<path class="st3" d="M386.6,80.1c-0.2-3.5,0.2-7,1-10.4c0.7-3,0.7-5.5-2.2-7.3c0.8-1.4,3-1.5,2.8-3c-0.2-1.3-2-0.7-3.1-1.3
		c0.7-0.3,1.3-0.6,1.9-0.9c1.2-0.6,2.9-1.4,2.3-2.5c-0.7-1.3-1.1-3.3-3.2-3.5c-10.1-1-20.1-4-30.3-0.7c-1.2-0.7-2.5-0.4-3.7-0.5
		c-1.1-0.1-2.1-0.4-2.6-1.5c-0.4-1,0.4-1.8,1.1-2.4c1.2-1,2-2.2,1.7-3.8c8.3-3.3,16.7-5.8,25.8-4.9c16.2,1.5,24.2,15.9,19.7,28.8
		c-0.1,0.2,0,0.5,0,0.7C394.5,71.8,391,76.3,386.6,80.1z"/>
	<path class="st5" d="M109.4,407.3c0.7,23.6,1.3,47.1,2,70.7c0.2,7.9,0.7,15.8,0.5,23.8c-3.9-6.2-4.4-13.4-5.5-20.3
		c-0.2-1.4,0-2.8-0.7-4.1c-0.7-11-1.3-22-2.1-33.1c-0.2-3,0.4-5.5,2.6-7.5c1.7-1.5,1.9-2.9,0.1-4.5c-7.2-6.5-4.1-14.5-2.7-22.1
		C104.1,407.4,107.1,407.6,109.4,407.3z"/>
	<path class="st11" d="M178.6,237.2c2.4,0.6,0.7,1.9,0.3,2.5c-2.1,3.2-4.3,6.3-6.5,9.5c-1.8,2.5-2.7,5.1-1.3,8.1
		c1.3,3-0.8,5.3-2.3,7.3c-3.4,4.5-4.5,8.9-1.8,14.2c2.5,4.8,3.7,10,3.1,15.5c-0.3,3.4,1.8,6.4,2.2,9.7c-3.2-2.3-4.4-6-3.9-9.4
		c0.8-5.8-1.2-10.8-3.4-15.8c-2.2-5.1-1.7-9.7,1.6-14.1c2.1-2.8,3.3-5.5,2.3-9.3c-1.1-4.4,2.4-7.5,4.6-10.9c1.2-1.8,3-3.2,3.6-5.4
		C177.6,238.5,178.1,237.8,178.6,237.2z"/>
	<path class="st12" d="M403.2,54.9c-1-3.2-1.2-6.6-2.5-9.7c-4.9-11.1-13.9-15.8-25.5-16.2c-11.3-0.4-21.8,2.9-32.1,7
		c-0.7,0.3-1.3,1.1-2.5,0.1c4.6-2.3,9.2-3.8,14-5.2c9.2-2.7,18.5-4.1,28.1-2c12.1,2.6,20.6,12.8,20.9,24.6
		C403.5,54,403.3,54.4,403.2,54.9z"/>
	<path class="st13" d="M397.7,66.9c-1.1-1,0-2,0.2-2.9c2.7-12.8-5.7-24.5-18.7-25.9c-9.5-1.1-18.3,1.1-26.9,4.9
		c-0.1,0.4-0.4,0.6-0.8,0.7c-2.8,0.4-5.1,2-7.6,3.1c-1.1,0.5-2.2,1.4-3.5,1.1c-0.3-0.2-0.3-0.5-0.2-0.9c1.8-2.1,4.4-2.8,6.7-3.9
		c0.6-0.2,1.2,0.2,1.8-0.2c5-1.9,9.9-4,15.2-5c7.7-1.6,15.4-2.4,22.8,1.2c8.3,4.1,12.6,10.7,12.6,20c0,1.6,0,3.3-0.1,4.9
		C398.7,65,398.2,66,397.7,66.9z"/>
	<path class="st14" d="M339.7,48c-0.3,2-2.2,2.2-3.5,3c-11.5,7.1-21.5,15.9-28.5,27.7c-4.1,6.9-6.8,14.3-6.6,22.4
		c-0.4-0.3-0.9-0.6-1.3-0.9c1.2-16.1,9.5-28.4,20.9-39c5.6-5.2,12-9.2,18.3-13.4C339.2,47.7,339.5,47.7,339.7,48z"/>
	<path class="st15" d="M507.3,222.5c-5.1,0.7-10.2,2.3-15.4,0.5c-3.1-1.1-6.4-1.8-8.5-4.7c0.5-0.7,0.9-0.7,1.3-0.4
		c8.1,5.2,16.5,5.3,25.1,1.4c1-0.5,2-0.5,3-0.5C511.8,221.5,509.1,221.3,507.3,222.5z"/>
	<path class="st16" d="M303.8,63.3c-5.8,7.1-9.8,15.3-13.1,23.8c-0.1-0.2-0.1-0.5-0.2-0.7c2.2-8.8,6.4-16.5,12.5-23.2
		C303.3,63,303.5,63,303.8,63.3z"/>
	<path class="st6" d="M264.8,391.3c0.8-0.7,1.4-0.3,2.2,0c6.6,2.5,13.3,3.1,20,0.5c6.7-2.5,13.3-1.2,19.8,0.5c8,2.1,15.9,2.6,24,0
		c4.2-1.3,8.7-0.9,13,0.8c0.8,0.3,1.5,0.7,1.6,1.6c0.7,0.9,0.6,2,0.3,3c-4.1,16.8-8.7,33.4-18,48.2c-7.6,12-17.8,19.1-32.5,19.9
		c-10.1,0.6-20,0.4-29.9-1.4c-1.9-1.4-2.6-3.5-3.5-5.5c-4.4-9.8-8.1-19.8-10.4-30.3c-1.9-9-5.5-17.5-7.7-26.5
		c-1.1-4.8-3-9.5-2.3-14.7c0.4-0.3,0.8-0.5,1.3-0.5C250.3,388,257.8,388.5,264.8,391.3z"/>
	<path class="st5" d="M401.4,460c0.1,6.9,0.4,13.8,0.3,20.6c0,2.5,1.6,1.8,2.8,1.8c15.5,0,31,0,46.5,0.1c1.2,0,2.6-0.4,3.7,0.4
		c-5.9,3.2-12.5,3.7-18.9,4.3c-10.4,1.1-20.9,1.6-31.4,1.5c-2.4,0-3.1,0.8-3.5,3c-0.8,4.7-2,5.6-6.8,5.5c-3.1-0.1-6.2-0.6-9.4-0.7
		c-1.5-0.1-1.8-1-2-2c-0.4-2.3-0.8-4.6-1-6.9c-0.1-1.3-0.7-2.2-1.7-2.8c-1.3-0.8-2,0.4-2.6,1.1c-6.8,7.2-14.8,4-22.5,2.5
		c-2.6-0.5-3.1-3.4-2.1-6c1.5-1.1,3.3-1,5-1c6.1,0,12.1-0.1,18.2,0c2.8,0,3.8-1.1,3.9-3.9c0.2-7.1-0.4-14.2-0.7-21.3
		c0.8-17.2-2.6-34.1-5.2-51c-0.2-1.3-0.4-2.5-0.4-3.8c0-1.8,0.9-2.2,2.5-1.7c2.1,0.1,4.2,0.7,6,1.6c5.6,2.8,10.7,1.8,15.6-1.8
		c0.9-0.7,2-1.2,3-1.8c-0.2,9.7,0.2,19.3,1.2,28.9c0.8,7.5-1.2,15-0.6,22.6C401.4,452.7,401.3,456.3,401.4,460z"/>
	<path class="st5" d="M241.8,387.6c2.3,14.7,7.9,28.6,11.2,43c2.7,11.8,7.4,22.7,12.4,33.5c0.7,0.4,1.4,0.9,1.7,1.7
		c2.1,4.9,4.9,9.3,7.1,14.2c0.2,0.5,0.3,1.1,0.2,1.7c0.9,3.5,3.6,5.9,5.3,8.9c0.9,1.5,1,2.2-0.8,4.1c-4.6,5.3-9.5,2.3-14.3,2.2
		c-3.7-0.1-6.4-2.3-7.2-6c-0.6-3.3-2.4-5.6-4.7-7.8c-3.7-2.2-4.8-6.2-6.6-9.6c-2-3.7-3.7-7.5-5.2-11.5
		c-5.6-18.9-15.5-35.9-23.4-53.8c2.1-5.4,5.1-10.3,8.6-14.9c4.3-3.3,9.2-6,13.2-9.7c1.3-1.2,1.7-0.4,2.1,0.7
		C242.6,385.3,242.5,386.4,241.8,387.6z"/>
	<path class="st6" d="M355.1,450.3c-3.3-1-6.7-1.9-10-2.8c-2-0.6-2.7-1.6-2.2-3.8c3-15.5,7.2-30.7,10.9-46.1c7.3,2.2,15,0.8,22.4,2
		c-2.2-0.1-1.6,1.4-1.4,2.6c1.2,8.1,2.3,16.2,3.7,24.2c1.7,9.8,2.3,19.6,1.9,29.4c-1.1,0.9-2.4,0.8-3.6,0.6
		c-6.4-1.2-12.6-3.1-19-4.4C356.6,451.7,355.7,451.2,355.1,450.3z"/>
	<path class="st17" d="M328.3,275.6c0.4-0.5,1-0.7,1.6-0.8c6-0.4,12-0.3,17.8,1.3c-2.7-0.4-5.3-1-7.8-2.2c-1.4-0.7-3.9-1.1-3.6-2.8
		c0.4-2,2.9-1.3,4.5-1.3c4.5-0.1,8.8,0.9,13.1,1.8c4,0.8,8.1,0.9,11.8,3c1.5,0.9,3.2-0.7,4.7,0.3c1.5,4.9,2.9,9.8,4.3,14.7
		c-7.5,1.9-15.2,2.8-23,3.5c-3.6,0.3-7.2,0.5-10.8,0.8"/>
	<path class="st17" d="M326.4,294.7c-4.8,0.3-9.6,0.5-15-0.7c3.8-2.7,7.8-2.9,12-4.2c-5.3-0.5-10.2,0.5-15.1-1.4
		c1.3-1.8,3.3-2.1,4.9-2.2c2.8,0,5.4-1,8.3-0.3c2.3,0.5,3.9-0.7,3.5-3.3c-0.1-0.9-0.3-1.8-0.7-2.7c-0.7-1.6-3-3.4-0.3-4.7
		c2.4-1.1,6-0.2,6.6,2l11.3,15.7l-0.2,0.8"/>
	<path class="st18" d="M352.3,349.6c0.6,5.8,3.9,10.2,6.9,14.9c2.1,3.3,3.3,6.9,2.9,10.9c-0.8,8.2,2.7,14.3,9.4,18.9
		c1,0.7,2.2,1.3,2.2,2.9c-8.8-3.9-13.6-10.6-13-17.2c0.7-7.8-2.1-14.2-6.6-20.3C352,356.8,350.8,353.4,352.3,349.6z"/>
	<path class="st19" d="M421,374.3c-1.2,0.1-2.5,0.1-3.7,0.2c-2,1.4-3.1,3.2-3.4,5.6l0.1,0c-1.1-2.6-1.3-5.2,1-7.2
		c1.2-1.1-0.2-2,0.2-3.1c0.5-1.6,0.1-3.4,0.1-5.2c-1.2,0-1,1.3-1.9,1.5c0-0.3-0.1-0.7,0-1c2.6-6.5,6.7-12.5,6.9-19.9
		c0-0.7,0.4-1.5,1.3-1.3c0.9,0.2,0.7,1.1,0.6,1.8c-0.8,3.7-1,7.6-3.2,10.9c-2.6,3.8-1.9,8.2-1.2,12.2c0.2,1.3-0.7,1.6-0.6,2.4
		c0.8,0.8,2-1.4,2.5,0.4c0,0.2,3.1,1,0,1.6C419.2,373.3,420.9,373.5,421,374.3z"/>
	<path class="st17" d="M314.4,274.9c2.3,0.3,4.7-1.1,7,0.1c-0.1,2,0.2,4,1.3,5.7c0.8,1.3,1.5,2.6,0,3.7c-1.3,1-2.7,0.2-3.9-0.6
		c-1.1-0.7-2.2-2-2-3.1c0.5-1.8,2.7,0,3.9-1.3c-3.1-0.8-6.4-0.7-9.2-2.5c0.6-0.3,0.7-0.8,0.7-1.4C313,275.4,313.5,274.5,314.4,274.9
		z"/>
	<path class="st20" d="M248.6,375.1c-0.9,0.5-1.9,1-2.8,1.5c-1.4-1.3,0-1.9,0.7-2.4c5.3-3.7,8.3-9,10.9-14.6c0.4-0.8,0.2-2.6,1.7-2
		c1.3,0.6,0,1.8-0.2,2.7C257,366.3,252.7,370.6,248.6,375.1z"/>
	<path class="st21" d="M226.2,393.3c-2.2,5.3-5.5,9.9-8.3,14.8c0.3,0.8-0.1,1.1-0.8,1.3c-2.7-0.7-0.6-2-0.2-2.8
		c2-3.7,4.7-7,5.9-11.2C224,395,224.2,392.8,226.2,393.3z"/>
	<path class="st22" d="M308.2,282.1c4.7-2.7,6.7-2.3,8.7,1.8C313.9,283.5,311.1,283.4,308.2,282.1z"/>
	<path class="st8" d="M355.1,450.3c8.4,1.7,16.6,4.5,25.2,5.4c0.3,8,0.5,16,0.9,24.1c0.1,2-0.5,2.7-2.5,2.6
		c-8.6-0.2-17.2-0.2-25.8-0.2c0-3.2,0.1-6.5,0.1-9.7C353.6,465.1,354.4,457.7,355.1,450.3z"/>
	<path class="st2" d="M329.8,275.5c-2-1.8-4-3.2-7.1-3.5c-2.6-0.3-5.6-2.1-7-4.9c-1.4-3-3.5-4.8-6.8-4.8c0-1.9,2.3-3.8-0.2-5.5
		c6.4-10.6,12.8-21.3,19.2-31.9c3.5-5.8,3.5-5.8-1-10c-0.2-2.1,1-3.8,2.1-5.4c0.9-1.4,2.3-1.8,4-1.3c5.4,1.5,10.1,4.2,13.8,8.5
		c1.4,1.6,2.9,3,4.6,4.3c1.4,1.1,2.7,2.5,4.3,0.3c0.5-0.6,1.2-0.2,1.9-0.1c3.8,0.7,6.7-2.4,5.9-6.2c-0.8-3.8-2.8-6.9-5.4-9.6
		c-0.9-0.9-2.8-1.8-1.1-3.7c2-0.7,3.9-0.2,5.8,0.3c3.2,0.9,6,2.5,8.9,3.9c4.6,2.2,9,2.6,14.1,1c7.2-2.4,14.6-2.6,21.7,1
		c7.5,10.1,15,20.1,22.5,30.2c0.4,0.5,0.5,1.2,0.8,1.9c0.2,0.3,0.2,0.6-0.2,0.7c-10.4,4.1-20.8,8.3-31.1,12.5
		c-8.8,3.5-17.4,7.3-26.2,10.7c-3.2,1.3-4.8,2.8-3.6,6.4c0.5,1.5,0.5,3.2,0.8,4.8c-2.4,1.5-4.4,0.8-7-0.1
		c-5.1-1.7-10.6-2.3-15.9-3.4c-3.5-0.7-7.1-0.9-11.3-0.7c3.9,2.7,8,3.4,10.9,4.7C341.9,275.5,335.9,275.5,329.8,275.5z"/>
	<path class="st23" d="M356.5,202.2c3.6,3.8,6.9,7.7,8.1,13.1c0.7,3.3-0.9,5.1-3.1,6.1c-1.2,0.6-3.4,4.3-5-1.3
		c-0.8,4.2-2.1,4.3-4.5,2.6c-3.3-2.4-5.8-5.6-8.8-8.4c-3.1-2.9-7-4-10.7-5.5c-1.8-0.7-2.5,0.6-3.3,1.8c-0.8,1.4-1.5,2.9-2.3,4.3
		c-4.9-3.7-9.8-7.4-14.7-11.1c3-4,7.3-6,11.4-8.6c3.8-1.8,7.6-3.4,11.8-1.7c0.9,0.1,1.8,0.2,2.7,0.4c0.7-0.1,1.3-0.2,2-0.2
		c3.6,0.6,6.8,2,10,3.7C352.4,198.7,355.3,199.4,356.5,202.2z"/>
	<path class="st24" d="M304.6,198.6c-3.8-0.2-6.5-3-9.6-4.7c-2.1-1.2-2.9-0.8-4,1.1c-5.8,9.4-11.7,18.8-17.7,28.1
		c-0.6,1-1,2.4-3,2.7c1.2-4.1,3.8-6.9,5.7-10.1c4.8-7.9,9.8-15.5,14.7-23.3c0.9-1.4,1.1-3.1,1.2-4.7c0.6-7.2,1-14.4,1.5-21.6
		c0.1-0.9-0.4-2.3,0.9-2.3c1.4,0.1,1,1.5,0.9,2.5c-0.6,7.3-1.1,14.6-1.8,21.9c-0.2,2,0.5,3.2,2.4,4.1c2.8,1.4,5.5,3.1,8.2,4.7
		C305.1,197.2,305.1,197.8,304.6,198.6z"/>
	<path class="st25" d="M304.6,198.6c-0.2-0.5-0.5-1-0.7-1.5c2.9-1.5,6.3-0.5,9.2-1.9c3.5-1.9,7.8-1.6,10.5,0.7
		c-3.8,2.6-7.6,5.2-11.4,7.8C309.7,202,307.2,200.3,304.6,198.6z"/>
	<path class="st26" d="M323.6,195.9c-3.4-1.3-6.9-1.1-10.5-0.7c0.7-2.7,0.8-2.8,4.8-3.1c5.1,0,10.2,0,15.3,0c0.9,0.2,2,0,2.2,1.3
		C331.1,192.5,327.4,194.3,323.6,195.9z"/>
	<path class="st27" d="M429.3,181.8c5.8-1.6,11.2-0.2,16.7,1.5c6.8,2.2,14,2.1,21.5,1.9c-1.7,3-4.8,3.6-6.7,5.6
		c-10,7.6-21.5,7.9-33.3,6.7c-3.9-0.4-7.8-0.9-11.6-2.2c-3-1-3.2-2.2-1-4.5C419,186.7,424.2,184.3,429.3,181.8z"/>
	<path class="st28" d="M356.5,202.2c-2.1-1.4-4.3-2.8-6.4-4.2c0.8-1,2-1.2,3.2-1.1c10,0.3,19.9-0.8,29.9-0.7c1,0,2.1,0.1,3.1,0.4
		c3.9,2.1,8.1,0.8,12.2,1.1c1.8,0.2,3.8-0.5,4.9,1.6c-0.6,3.8,2.8,5.7,4.1,8.5c-6.5-1.4-13.3-3.2-19.5-0.6
		c-7.6,3.2-13.9,1.2-20.5-2.4C364.1,203,360.5,201.7,356.5,202.2z"/>
	<path class="st29" d="M403.3,199.3c-4.1-1.3-8.3-0.4-12.5-0.6c-1.6-0.1-3.3,0.4-4.3-1.5c-1.1-1.5-0.9-3.1,0.3-4.4
		c1.1-1.2,2.5-1.6,4-0.6c5.1,0,10.2,0,15.4,0c2.4-0.1,2.9,1.4,2.8,3.4c-0.2,1.9-0.9,3.1-3,3C405,198.6,404.1,198.5,403.3,199.3z"/>
	<path class="st30" d="M430.6,240.6c0.1-0.2,0.2-0.4,0.2-0.7c4.3-3.2,9.5-4.7,14.3-6.9c2.2-1,4.2-2.8,6.9-2.6
		c0.2,1.3-0.5,1.6-1.3,1.9c-5.8,2.6-11.7,5.2-17.5,7.8C432.4,240.5,431.5,240.7,430.6,240.6z"/>
	<path class="st31" d="M454.6,174.7c4-0.6,7.9,1,11.8,0.7c0.6-0.1,0.9,0.1,0.7,0.7c-4.3,1.4-8.6,1.1-12.7-0.7
		C454.5,175.2,454.6,175,454.6,174.7z"/>
	<path class="st27" d="M514.2,162.2c2.4,0,5.5,4.8,4.6,6.7c-0.2,0.4-0.6,0.8-1,0.9c-1.9,0.4-3.1-0.7-3.9-2.2c-0.8-1.5-2.1-3-0.8-4.8
		C513.5,162.4,514,162.3,514.2,162.2z"/>
	<path class="st32" d="M193.1,401.6c2.1,1.4,4.4,2.6,6.2,4.2c2.5,2.2,7.5,4.1,2.7,7.9c-4.2,3.4-8.6,2-12.5,0.4
		C190.7,409.9,191.9,405.7,193.1,401.6z"/>
	<path class="st33" d="M369.5,112.4c-3.5,0-6.8-2.1-7.7-5c-0.9-2.7,0.2-4,2.9-3.2c3.4,1,6.4,0.6,9.5-1c0.9-0.5,2-1,2.9-0.1
		c0.9,0.8,0.7,2,0.5,3C376.8,109.3,372.9,112.4,369.5,112.4z"/>
	<path class="st34" d="M368.9,124.2c0.2,0.9,0,1.6-1.1,1.6c-6.5,0.1-12.9-1.2-19-3.3c-0.9-0.3-2.9-0.2-2.3-1.8
		c0.5-1.3,2-0.3,3.1,0.1C355.8,122.9,362.2,124.2,368.9,124.2z"/>
	<path class="st35" d="M366.9,98.6c5-3.1,5.1-3.5,2.7-8.5c-1.8-3.7-2-5.6-1-8.3c1,3.9,2.8,7.4,4.5,11
		C374.6,96,371.2,99.1,366.9,98.6z"/>
	<path class="st36" d="M360.3,77.9c-3.3,2-6.3,1.8-9.2,2c-0.5,0-1.3-0.3-1.4-0.7c-0.3-0.8,0.5-1.2,1.1-1.5
		C353.7,76.4,356.6,76.1,360.3,77.9z"/>
	<path class="st37" d="M380,76.6c-3.4,2-6.8,1.7-10.7,1.5C372.2,74.8,376.2,74.3,380,76.6z"/>
	<path class="st38" d="M377.5,85.1c-0.1,1.3-0.3,2.7-1.6,2.4c-1.5-0.4-1.7-2.1-1.7-3.4c0-1,0.2-2.5,1.6-2.1
		C377.2,82.3,377.4,84,377.5,85.1z"/>
	<path class="st39" d="M357.2,86.7c0,0.9-0.1,2.3-1.2,2.2c-1.7-0.2-1.9-1.8-1.9-3.2c0-0.9,0-2.3,1.1-2.2
		C357.1,83.7,357.1,85.4,357.2,86.7z"/>
	<path class="st40" d="M313.8,52.2c5.3-4.8,11.4-8.4,17.9-11.4c-5.8,3.9-11.8,7.5-17.2,12C314.1,52.7,313.9,52.5,313.8,52.2z"/>
	<path class="st41" d="M313.8,52.2c0.2,0.2,0.4,0.4,0.6,0.6c-3.5,3.5-7.1,7.1-10.6,10.6c-0.3,0-0.5,0-0.8-0.1
		C305.9,58.9,309.8,55.5,313.8,52.2z"/>
	<path class="st42" d="M332.4,40c2-2,4.6-1.8,5.8-3.8c0.2-0.4,0.5-0.4,0.8,0c0.4,0.5,0.6,1.1,0,1.5C337.2,39.1,335.3,40.1,332.4,40z
		"/>
	<path class="st6" d="M241.6,462c-9.4-0.2-18.7-0.3-28.1-0.7c-2.9-0.1-4,0.6-3.6,3.5c-1.2-2.1-0.3-4.3-0.5-6.5c-0.7-7-0.3-14,0.7-21
		c0.2-1.4,0-2.7-1-3.9c-1.9-2.6-1.5-5.3,1.1-7.3c1.4-1,1.9-2.1,2.2-3.7c0.7-3.2,1.8-6.3,2.5-9.5c0.3-1.5,1.1-2.5,2.1-3.5
		c0.3-0.5,0.5-0.9,0.8-1.3c0.6,0,1,0.3,1.3,0.9c6,13,12.2,26,18,39.2C239,452.6,240.1,457.4,241.6,462z"/>
	<path class="st2" d="M413.9,380.1c-0.2-2.7,0.5-4.8,3.4-5.6C416.2,376.3,415,378.2,413.9,380.1z"/>
	<path class="st43" d="M339.7,194.2c-0.6,0.1-1.1,0-1.5-0.5c0.2-0.3,0.3-0.6,0.5-0.9c15.9-15.9,31.8-31.7,47.7-47.6
		c0,0.5,0.1,1,0.1,1.5c-0.6,1.1-1.3,2.2-2.2,3.1c-14.3,14.4-28.7,28.7-43,43.1C340.8,193.4,340.2,193.8,339.7,194.2z"/>
	<path class="st44" d="M345.2,52.8c1.3-2.3,2.9-2.7,4.9-0.8c-0.2,1.9-0.5,3.8-0.7,5.8c-1.6-0.4-1.4-1.5-1.2-2.4
		c0.5-2.8-0.7-3.1-2.9-2.1C345.2,53.2,345.2,53,345.2,52.8z"/>
	<path class="st10" d="M385.5,147.5c0.3-0.3,0.8-0.5,1.1-0.8c1.3,5.2,1.7,10.5,1.9,15.8c0.5,9.9,1.2,19.8,2.3,29.7
		c-3.5-0.1-4.6,1.8-4.3,5c-12.1,0.3-24.3,0.5-36.4,0.8c-3.4-1.4-6.8-3.1-10.4-3.8c0-1.1,0.8-1.6,1.4-2.3"/>
	<path class="st45" d="M465,162.8c1.2,0.1,1.7,0.8,1.1,1.9c-0.8,1.4-1.8,2.8-3.6,3c-1.3,0.2-2.3-0.2-2.3-1.9
		C461.8,164.8,463.4,163.8,465,162.8z"/>
	<path class="st3" d="M340.4,47.2c-1.5-2.7,0.5-4.2,2.3-5.2c1.8-1.1,3.6-0.2,4.5,1.8C345,44.9,342.7,46.1,340.4,47.2z"/>
	<path class="st2" d="M314.4,274.9c-0.7,0.2-1.4,0.4-2,0.7c0.9-1,1.8-1.8,2.5-2.9c1.8-2.5,3.5-2.4,5.6,0.3
		C317.7,271.9,315.7,272.5,314.4,274.9z"/>
	<path class="st46" d="M397.4,197.2c-2.4,0-4.9,0-7.3,0c-1,0-2,0-2-1.3c0-1.2,0.6-2,1.9-2c5.2-0.1,10.4-0.1,15.6,0
		c1,0,1.8,0.5,1.9,1.6c0,1.3-0.9,1.8-2.1,1.8C402.7,197.2,400,197.2,397.4,197.2z"/>
	<path class="st47" d="M211.4,423.7c-1.5,3.8-2.4,5.9-3.8,9.1C200.7,429.2,203.3,427.1,211.4,423.7z"/>
	<path class="st48" d="M204.7,425.7c-2.1-0.3-3.2-1.3-3.1-3.1c0.1-2.5,1.6-3.8,4-4c1.9-0.1,2.9,1.3,2.8,2.9
		C208.4,423.9,206.4,424.9,204.7,425.7z"/>
	<path class="st17" d="M326.5,278.9l-5.3,0.5l-1.2-4c0,0,3.2-0.7,6.2,0.2"/>
	<path class="st17" d="M326,279.7c0,0-11.5,0.5-13.1,0.9c-1.6,0.5,2.3,3.1,2.3,3.1l12.7,0.8L326,279.7z"/>
</g>
<rect x="-333.2" y="-356.1" class="st0" width="1093" height="1038"/>
</svg>
