<?xml version="1.0" encoding="utf-8"?>
<!-- Generator: Adobe Illustrator 24.3.0, SVG Export Plug-In . SVG Version: 6.00 Build 0)  -->
<svg version="1.1" id="Layer_1" xmlns="http://www.w3.org/2000/svg" xmlns:xlink="http://www.w3.org/1999/xlink" x="0px" y="0px"
	 viewBox="0 0 1920 1080" style="enable-background:new 0 0 1920 1080;" xml:space="preserve">
<style type="text/css">
	.st0{fill:#00C897;}
	.st1{fill:#019267;stroke:#019267;stroke-width:1.0889;}
	.st2{fill:#FCF0DA;}
	.st3{fill:#A76D3C;}
	.st4{fill:#A66D3B;}
	.st5{fill:#EEE4C1;}
	.st6{fill:#A3AEC2;}
	.st7{fill:#E5DBB8;}
	.st8{fill:#6B3C1A;}
	.st9{fill:#C0D2D8;}
	.st10{fill:#F4AE8C;}
	.st11{fill:#DAD0AD;}
	.st12{fill:#AEC2CB;}
	.st13{fill:#412822;}
	.st14{fill:#C68D57;}
	.st15{fill:#371E18;}
	.st16{fill:#181E28;}
	.st17{fill:#E09A78;}
	.st18{fill:#935927;}
	.st19{fill:#181F28;}
	.st20{fill:#A76D3B;}
	.st21{fill:#D0C6A4;}
	.st22{fill:#BC834D;}
	.st23{fill:#9C7441;}
	.st24{fill:#87929D;}
	.st25{fill:#A47845;}
	.st26{fill:#E09C7B;}
	.st27{fill:#5A4A46;}
	.st28{fill:#504644;}
	.st29{fill:#A4AEC2;}
	.st30{fill:#E09A79;}
	.st31{fill:#DAD0AE;}
	.st32{fill:#544A47;}
	.st33{fill:#625851;}
	.st34{fill:#FAECD6;}
	.st35{fill:#F9E8CD;}
	.st36{fill:#F8E7CE;}
	.st37{fill:#DBD0AE;}
	.st38{fill:#59504C;}
</style>
<rect class="st0" width="1920" height="1080"/>
<path class="st1" d="M1970.79,711.11c-215.6-19.24-689.39-31.14-859.69,75.14C898.21,919.1,569.9,973.54,449.58,953.94
	c-120.33-19.6-435.57-47.91-525.95,0c-72.3,38.33,11.33,154.76,63.96,191.42c607.07-35.39,1474.09-11.98,1510.32-11.98
	c386.02,0,515.89-54.21,505.54-141.87C1995.19,921.38,1978.24,775.35,1970.79,711.11z"/>
<g>
	<path class="st2" d="M1356.42,615.89c5.08-12.88,11.41-24.77,24.19-31.81c6.9-3.8,14.2-6.54,21.64-9.02
		c8.27-2.75,16.79-4.77,24.64-8.73c5.03-2.54,8.28-6.36,9.1-12.06c0.1-0.16,0.21-0.31,0.31-0.47c9.29-4.08,18.68-7.98,27.52-12.98
		c11.32-6.41,22.21-13.46,30.87-23.42c1.93-2.56,4.29-4.72,6.61-6.9c1.09-1.03,2.31-2.21,3.98-0.84c2.92,8.7,5.95,17.37,5.73,26.74
		c-2.24,6.78-4.49,13.55-6.7,20.33c-3.5,10.74-2.27,21.71-1.38,32.63c0.39,4.83,1.11,9.62,1.68,14.43c-0.7,1.65-2.22,2.44-3.61,3.31
		c-7.54,4.73,16.84,19.99,14.09,28.5c-0.54,1.67-30.22,8.47-31.65,9.71c-2.8-7.36-9.09-25.38-15.45-29.33
		c-7.71-4.79-16.21-7.24-25.08-7.47c-9.3-0.23-18.63,1.33-25.58,8.22c-4.36,4.32-8.92,3.69-13.98,3.04
		c-15.65-2.01-29.6,1.83-41.57,12.34c-4.94,4.34-8.88,9.49-12.35,15.11c-0.98-0.82-0.39-1.77-0.6-2.55
		C1350.04,634.73,1352.95,625.23,1356.42,615.89z"/>
	<path class="st3" d="M1574.84,621.34c-4.87-4.28-9.08-9.31-14.61-12.84c-0.96-0.61-1.93-1.22-2.9-1.82
		c2.9-2.62,6.79-4.08,8.34-8.31c0.51-1.4,3.04-2.05,4.65-3.04C1571.83,603.99,1573.33,612.66,1574.84,621.34z"/>
	<path class="st4" d="M1540.28,589.88c-3.09-12.54,1.73-23.13,8.23-33.28c2.42-3.77,4.9-7.51,7.37-11.25
		c0.44-0.67,0.64-1.85,1.91-1.1c4.18,14.3,7.85,28.72,10.89,43.31c0.2,0.97,0.09,2.13,1.4,2.47c-0.77,0.41-1.61,0.74-2.29,1.26
		c-2.04,1.54-3.64,1.76-6.35,0.51C1554.77,588.73,1547.41,589.83,1540.28,589.88z"/>
	<path class="st5" d="M1549.34,610.11c2.74-0.97,5.59-1.67,7.99-3.43c3.73-0.03,5.82,2.93,8.31,4.9c3.5,2.77,6.73,5.95,9.19,9.76
		c1.3,3.8,4.54,6.36,6.08,10.14c4.17,10.2,5.89,20.6,4.29,31.52c-0.55,3.78-0.33,7,2.91,10.07c15.14,14.31,21.09,32.36,19.89,52.82
		c-0.49,8.33-2.7,16.46-6.86,23.79c-1.79,3.15-1.32,5.8,0.1,8.68c3.35,6.77,5.16,14.12,5.16,21.51
		c0.01,14.39-4.03,27.58-14.36,38.24c-2.14,2.21-4.23,4.47-6.34,6.71c-5.72,6.12-13.15,8.74-21.11,10.08
		c-2.4,0.4-3.35,1.27-3.28,3.67c0.33,11.72-3.55,22.19-9.68,31.96c-6.06,8.82-13.59,16.04-22.87,21.42
		c-10.49,6.08-21.84,9.53-33.81,11.06c-2.79,0.36-5.57,1.02-8.42,0.8c-1.38-0.11-2.86,0.18-4-0.95c-4.33-0.48-7.97,0.39-11.68,3.25
		c-8.33,6.42-18.22,8.77-28.61,9.99c-10.71,1.26-21.31,0.74-31.71-1.17c-12.07-2.22-23.96-5.51-33.84-13.6
		c-3.14-2.57-4.94-6.16-7.74-9.01c-4.77-4.86-9.58-7.15-16.99-6.08c-12.91,1.87-26.04,1.26-38.92-1.5
		c-1.35-0.29-2.49-0.27-3.72,0.12c-1.77-0.87-3.79-0.85-5.6-1.6c-14.13-4.25-27.31-10.57-39.76-18.44
		c-0.68-1.35-1.97-1.93-3.17-2.68c-11.39-7.18-22.72-14.6-31.9-24.48c-7.48-8.05-15.57-15.16-24.64-21.23
		c-3.08-2.06-6.35-3.85-9.54-5.74c-1.55-0.91-2.14-1.95-1.24-3.78c2.7-5.5,5.21-11.07,7.33-16.83c0.97-2.62,2.14-3.7,5.32-1.8
		c14.83,8.82,29.64,17.72,45.27,25.06c8.67,4.07,17.28,8.54,26.8,10.2c5,0.87,10.43,1.86,15.04-1.9c9.52-2.96,17.77-8.06,25-14.88
		c3.56-3.34,5.23-7.29,5.05-12.33c-0.15-4.24,1.47-8.28,3.05-12.22c3.42-8.5,7.77-16.42,14.29-23c3.65-3.25,4-7.28,2.68-11.66
		c-1.34-4.44-3.21-8.71-5.19-12.87c-5.81-12.22-2.44-22.46,6.28-31.68c2.88-3.05,5.91-5.96,9.28-9.11
		c-4.95-2.13-9.77-2.86-14.47-3.94c-3.62-0.83-7.3-1.45-10.99-2c-4.02-0.6-7.87-1.13-10.91,2.4c-0.36-0.71,0.51-2.86-1.76-1.21
		c-4.41,3.22-7.72,7.49-11.17,11.57c-9.52,11.22-17.92,23.28-25.97,35.58c-3.09,4.72-7.92,3.83-12.21,3.11
		c-3.59-0.6-7.16-1.83-10.61-3.29c-1.99-0.84-2.33-1.54-1.33-3.31c3.58-6.36,6.95-12.85,10.69-19.12
		c6.22-10.42,12.67-20.7,19.01-31.05c0.31-0.5,0.78-1.1,0.07-1.69c0.34-3.03,2.94-4.69,4.34-7.09c5.59-9.63,13.52-15.61,24.88-17.45
		c9.36-1.52,18.63-3.75,28.03-5.16c3.22-0.48,6.18-0.95,6.08-5.24c-0.02-0.74,0.5-1.46,1.48-1.45c0.75,0.65,0.58,1.56,0.35,2.41
		c1.67-5.2,5.22-8.94,8.76-12.59c13.88-14.34,30.99-18.31,50.15-15.21c2.68,0.43,4.61-0.21,6.64-1.94
		c11.39-9.68,24.44-11.64,38.67-8.22c9.87,2.37,18.44,6.94,25.58,14.2c2.11,2.14,3.8,4.51,4.71,7.4c0.22,0.3,0.45,0.61,0.7,0.88
		c7.69,2.89,14.85,6.59,19.46,13.76c4.31,6.71,4.8,14.09,1.2,20.98c-3.45,6.59-9.85,9.16-17.25,8.75c-5.78-0.32-8.6-2.83-9.87-8.49
		c-1.03-4.58,1.84-11.56,5.62-13.5c1.98-1.01,4-1.05,5.79,0.41c1.72,1.41,1.83,3.28,1.21,5.28c-0.22,0.72-0.71,1.36-0.8,2.43
		c3.23,0.17,5.05-1.75,6.41-4.03c1.48-2.47,0.97-5.1-0.75-7.23c-3.05-3.79-7.09-5.48-11.96-4.55c-7.96,1.53-15.34,9.42-16.21,17.2
		c-1,8.95,3.45,17.29,11.25,21.07c17.75,8.6,36.72,0.99,43.24-17.69c3.19-9.15,0.9-17.51-5.46-24.75c-1.96-2.23-4.17-4.19-6.56-5.96
		c-1.47-1.09-2.82-2.29-2.82-4.36c0.11-2.58,0.84-4.9,2.82-6.69c1.32-1.12,2.86-0.8,4.39-0.67c12,1.07,22.45-2.31,31.01-10.98
		C1546.3,611.26,1547.6,610.31,1549.34,610.11z"/>
	<path class="st6" d="M1423.02,290.78c32.77,0.13,62.87,9.61,90.98,26.04c15.77,9.21,29.82,20.59,41.84,34.32
		c14.76,16.86,23.78,36.67,29.21,58.35c4.28,17.09,6.19,34.34,5.26,51.89c-0.46,8.73-2.38,17.24-4.57,25.69
		c-1.41,1.2-2.96,0.63-4.4,0.21c-17.09-5.02-34.58-7.45-52.35-8.06c-0.25-0.01-0.49-0.13-0.73-0.22c-1.55-2.21-0.39-4.91-1.32-7.24
		c0.29-8.23-0.84-16.4-0.99-24.62c-0.14-7.78-5.03-13.6-9.75-19.2c-2.88-3.43-6.17-6.53-9.53-9.52c-0.48-0.39-0.89-0.84-1.24-1.34
		c-7.53-12.84-9.83-26.68-7.92-41.32c-1.32,9.86-0.79,19.59,2.35,29.12c0.24,0.73,0.55,1.45,0.72,2.2c0.26,1.15,1.54,2.65-0.06,3.39
		c-1.3,0.6-2.29-0.91-3.06-1.88c-4.62-5.89-8.44-12.28-11.2-19.23c-3.74-9.41-6.43-19.1-6.48-24.87
		c0.65,10.27,4.69,24.01,12.42,36.61c2.21,3.61,4.61,7.09,7.63,10.11c0.98,0.98,1.89,2.12,2.04,3.63c-1.1,1.71-2.58,0.74-3.74,0.31
		c-10.75-3.99-20.4-9.65-27.51-18.92c-10.24-13.36-18.78-27.84-27.56-42.15c-0.8-1.31-1.51-2.68-2.4-3.94
		c-2.99-4.26-3.28-4.34-8-2.18c-1.19,0.54-2.36,1.06-3.64,0.27c-1.33-2.02,0.1-3.53,0.93-5.16c0.82-1.6,2.42-3.09,0.81-5.09
		c-2.15-2.7-2.11-6.04-2.47-9.18c-1.36-11.61-3.11-23.15-5.31-34.62C1422.76,293.02,1422.33,291.89,1423.02,290.78z"/>
	<path class="st6" d="M1339.66,568.26c-14.52,0.01-28.56-2.49-42.12-7.77c-5.36-2.09-9.06-5.26-11.53-10.9
		c-8.28-18.93-14.46-38.47-17.8-58.82c-6.2-37.81-3.41-74.55,14.2-109.28c6.01-11.85,13.36-22.83,22.33-32.68
		c3.1,4.55,5.34,9.59,8.09,14.33c4.05,6.99,8.02,14.03,12.23,20.92c0.92,1.51,2.07,2.97,2.05,4.9c-0.05,3.33,2.84,2.74,4.64,3.26
		c4.83,1.38,5.55,2.44,4.39,7.62c-0.37,0.36,0.17-0.02-0.22,0.32c-5.86,5.19-5.81,5.17-2.34,12.34
		c5.99,12.38,11.72,24.82,15.06,38.31c2.54,10.24,0.17,19.59-3.29,28.96c-0.36,0.96-0.99,1.81-2.12,2.08
		c-1.66-0.49-1.36-2.05-1.59-3.19c-2.06-9.98-4.36-19.91-5.99-29.97c2.11,12.33,4.77,24.55,7.41,36.77c0.78,3.52,1.13,7.1,1.4,10.67
		c0.24,3.17,1.48,4.66,4.76,4.54c2.27-0.08,4.69-0.15,6.27,2.07c0.98,3.66-0.81,7.05-1.01,10.6c-0.89,16.11-1.6,32.21,1.38,48.21
		c0.37,1.98,1.17,3.98,0.16,6.01C1350.7,570.57,1345.2,569.86,1339.66,568.26z"/>
	<path class="st7" d="M1324.89,328.65c-2.83-7.37-1.07-14.57,0.74-21.79c3.57-14.23,8.2-28.13,12.7-42.08
		c0.27-0.84,0.39-1.74,0.58-2.61c2.97,4.28,7.69,7.39,8.71,12.99c0.23,1.27,0.63,2.5,1.05,3.71c1.66,4.77,2.87,5.37,8.03,4.95
		c8.82-0.71,17.2,0.35,24.07,6.8c1.89,1.78,4.11,3.09,6.72,3.59c0.25,0.05,0.52,0.09,0.74,0.22c4.7,2.79,9.43,5.52,14.24,8.14
		c-1.32,7.97-1.34,16.12-2.96,24.02c-1.67,8.12-6.36,13.93-14.79,16.08c-17.09,4.36-34.03,5.31-50.26-3.14
		C1330.06,337.24,1325.98,334.13,1324.89,328.65z"/>
	<g>
		<g>
			<path class="st8" d="M1584.52,600.77l-115.29,31.84c0,0,28.89-31,51.91-37.8s59.63-14.71,59.63-14.71L1584.52,600.77z"/>
		</g>
		<path class="st9" d="M1549.69,609.54l-117.35,35.21c0,0,29.87-32.61,53.31-40.09c23.43-7.48,60.66-16.4,60.66-16.4L1549.69,609.54
			z"/>
	</g>
	<path class="st10" d="M1402.09,302.37c-4.56-0.75-8.39-2.91-11.82-5.95c-2.26-2-5.71-1.07-8.01-3.31
		c-7.87-7.63-17.3-9.81-27.93-7.85c-2.52,0.46-5.04-0.89-5.46-3.31c-1.35-7.66-6.59-13.22-9.94-19.78
		c-0.88-6.73,0.28-12.62,6.72-16.33c1.64-2.29,3.96-3.24,6.67-3.16c2.68,0.08,4.65-1.07,6.38-2.98c1.29-1.42,2.74-2.71,4.07-4.11
		c4.46-4.68,10.03-6.49,16.15-5.03c12.66,3.01,24.24,8.44,33.88,17.38c4.61,4.28,5.78,12.13,3.21,18.13
		c-1.02,8.47-3.39,16.6-6.14,24.64c-0.64,4.32-3.85,7.26-5.79,10.9C1403.53,302.16,1402.88,302.46,1402.09,302.37z"/>
	<path class="st11" d="M1296.48,803.98c-7.02-1.8-14.02-3.67-21.06-5.4c-10.47-2.56-19.3-8.05-27.43-14.92
		c-13.83-11.67-25-25.73-35.96-39.99c-1.61-2.09-1.83-3.5,0.43-5.35c3.37-2.76,6.48-5.84,9.61-8.88c1.32-1.28,2.4-1.63,3.94-0.28
		c8.88,7.79,18.35,14.84,28.31,21.15c9.61,6.09,19.3,12.23,30.81,14.35c5.47,1.01,10.97,0.64,16.46,0.63c1.28,0,1.71-0.96,2.41-1.66
		c5.11,0.74,10.12-0.38,15.17-0.78c2.26-0.18,4.46-1.17,6.78-0.5c1.9,1.81,0.17,3.37-0.54,4.79c-5.41,10.8-10.68,21.68-16.17,32.44
		c-1.07,2.09-1.18,4.89-3.96,5.84C1302.2,805.8,1299.24,805.46,1296.48,803.98z"/>
	<path class="st11" d="M1348.83,644.67c-0.21,0.31-0.65,0.68-0.6,0.94c1.13,5.54-2.56,6.21-6.6,6.74
		c-11.78,1.55-23.36,4.05-34.9,6.89c-5.47,1.35-9.36,4.37-12.72,8.63c-3.4,4.31-6.07,9.19-10,13.09
		c-6.12,2.28-12.34,4.33-18.32,6.92c-5.3,2.3-9.51,1.57-13.57-2.56c-2.82-2.86-5.29-5.91-7.32-9.34c-0.78-1.33-1.09-2.34,0.56-3.54
		c14.42-10.47,28.73-21.09,43.13-31.58c8.6-6.27,17.2-12.54,26-18.52c5.02-3.41,9.49-7.95,15.96-8.83c0.49-0.07,0.89-0.86,1.33-1.32
		c6.61,0.58,13.26,0.79,19.81,2.05c1.63,0.31,3.3,0.48,4.73,1.44c1.19,1.52,0.24,3.01-0.27,4.35c-2.57,6.89-4.35,13.98-5.7,21.2
		C1350.14,642.48,1349.93,643.79,1348.83,644.67z"/>
	<path class="st6" d="M1402.09,302.37c0.51-0.31,1.02-0.62,1.53-0.93c1.56,0.16,1.68,1.44,1.8,2.54
		c1.35,12.61,3.98,25.04,5.03,37.68c-0.73,2.16-1.63,4.01,1.27,5.76c5.61,3.38,5.49,3.59,3.02,9.95
		c-8.9,5.35-18.1,10.15-27.21,15.11c-8.9,4.84-17.83,9.61-26.62,14.65c-2.31,1.32-4.63,2.84-7.54,2.35
		c-1.11-0.28-2.12-0.8-3.21-1.14c-4.02-1.25-5.01-2.78-4.39-7.06c0.29-1.97,0.72-3.8-1.57-4.85c-2.35-1.62-3.16-4.32-4.56-6.6
		c-6.32-10.3-12.32-20.79-18.43-31.22c-0.84-1.43-1.78-2.86-1.7-4.64c1.8-1.77,3.59-3.54,5.39-5.31
		c6.59,10.81,17.07,14.12,28.84,15.56c10.48,1.28,20.63,0.07,30.7-2.54c9.68-2.5,13.45-9.55,14.64-18.91
		C1399.94,315.95,1399.55,308.94,1402.09,302.37z"/>
	<path class="st12" d="M1527.81,478.51c10.62-0.77,21.01,1.11,31.45,2.62c8.99,1.3,17.66,3.94,26.48,5.94
		c5.13,2.44,5.9,3.56,4.51,10.83c-1.83,9.56-5.03,18.71-9.35,27.49c-1.98,4.03-4.98,4.74-8.79,4c-1.64-0.32-3.25-0.69-4.92-0.59
		c-1.82,0.68-3.53-0.04-5.25-0.43c-14.22-3.22-28.1-7.64-42-12.01c-4.23-1.14-4.51-4.87-4.38-8.03c0.36-8.69,1.52-17.31,5.46-25.27
		c0.74-1.5,1.7-2.86,3.02-3.91C1525.16,478.25,1526.33,477.42,1527.81,478.51z"/>
	<path class="st13" d="M1482.53,902.84c20.39-0.39,39.22-5.41,55.33-18.6c5-4.09,8.87-9.19,13.03-14.04
		c3.41-1.92,7.23-0.85,10.84-1.43c5.16-0.83,10.29-1.59,15.26-3.25c1.31-0.44,2.69-0.93,4,0.06c2.49,4.93,1.9,10.05,1.02,15.22
		c-0.27,1.58-1.21,3.11-0.6,4.81c-0.05,2.91-1.56,4.5-4.21,5.73c-6.79,3.16-12.76,7.55-18.09,12.87
		c-6.57,6.55-14.16,11.85-21.78,17.07c-6.19,4.24-13.43,5.24-20.64,4.78c-9.18-0.58-18.45-0.69-27.47-2.92
		c-3.99-0.99-7.87-2.28-11.68-3.81c-1.52-0.61-3.22-1.4-2.26-3.67C1476.46,910.69,1478.68,906.31,1482.53,902.84z"/>
	<path class="st7" d="M1416,266.08c0-1.93-0.26-3.9,0.03-5.79c1.22-7.97-3.54-12.5-9.35-16.23c-8.32-5.33-17.01-9.95-26.73-12.28
		c-6.33-1.52-11.94-0.38-16.5,4.57c-1.13,1.23-2.45,2.3-3.53,3.57c-2.18,2.56-4.55,4.32-8.24,3.82c-2.2-0.3-4.14,1.08-6.05,2.11
		c4.13-9.95,8.53-19.73,14.17-28.97c6.93-11.35,11.77-13.83,24.99-11.74c11.39,1.8,22.65,4.16,33.46,8.3
		c3.83,1.47,7.52,3.15,10.82,5.73c3.08,2.42,3.89,5.49,2.9,8.88c-0.68,2.34,0.12,3.63,1.61,5.02c1.03,0.96,2.06,1.96,2.89,3.09
		c3.22,4.33,2.72,6.71-2.08,9.04c-2.88,1.4-3.56,2.59-1.27,5.41c3.91,4.81,2.85,8.69-2.8,11.32
		C1425.79,264.03,1420.88,265.05,1416,266.08z"/>
	<path class="st4" d="M1326.47,762.91c-5.53,0.69-11.05,1.56-16.61,1.99c-1.92,0.15-4.55,1.98-5.87-1.26
		c4.27-23.29,8.54-46.58,12.8-69.87c0.21-1.13,0.33-2.28,0.5-3.41c0.41-3.29,2.71-3.97,5.47-3.85c11.32,0.49,22.08,3.66,33.07,6.51
		c-0.82,2.09-2.5,2.68-3.69,3.74c-3.74,3.34-7.3,6.83-10.35,10.83c-5.51,7.26-7.43,15.05-3.81,23.79c2.25,5.44,4.54,10.88,6.5,16.43
		c1.64,4.64,0.87,8.87-3.35,12C1336.48,761.96,1331.7,763.5,1326.47,762.91z"/>
	<path class="st4" d="M1356.42,615.89c-7.74-0.57-15.34-2.54-23.16-2.25c-0.98,0.04-1.28-0.64-1.46-1.43
		c2.54-13.73,5.09-27.46,7.63-41.19c1.75,2.16,3.93,2.32,6.55,1.87c5.35-0.92,5.57-0.73,8.28,4.04c0.74,1.31,1.83,1.68,3.18,1.73
		c6.84,0.25,13.56-0.72,20.26-1.9c3.18-0.56,3.36-2.67,2.56-5.22c-0.03-0.26-0.06-0.65,0.09-0.71c2.95-1.28,5.1-3.52,7.08-5.96
		c5.58,1.15,10.94-0.6,16.27-1.56c9.81-1.78,19.52-4.16,28.66-8.35c1.03-0.47,2.14-0.89,3.33-0.81c1.53,1.2,0.64,2.6,0.19,3.85
		c-1.41,3.93-4.1,6.73-7.77,8.7c-7.42,3.99-15.53,6.09-23.47,8.64c-7.35,2.36-14.59,4.95-21.49,8.45
		c-11.77,5.97-18.92,15.89-23.87,27.73C1358.61,613.14,1358.31,615.04,1356.42,615.89z"/>
	<path class="st14" d="M1409.75,342.46c-1.79-12.58-3.58-25.16-5.37-37.75c-0.16-1.12,0.1-2.33-0.76-3.28
		c1.56-3.88,4.1-7.19,6.25-10.72c0.98-0.03,1.97-0.05,2.95-0.08c3.35-0.29,6.7-0.49,10.04,0.11c0,0,0.16,0.03,0.16,0.03
		c2.83,9.62,3.86,19.56,5.29,29.42c0.68,4.68,1.17,9.39,1.79,14.08c0.19,1.4,0.71,2.7,1.91,3.6c-0.41,0.9-0.83,1.8-1.78,2.28
		c-6.55,2.04-13.08,4.17-19.94,5C1409.03,344.48,1409.23,343.51,1409.75,342.46z"/>
	<path class="st14" d="M1319.51,333.96c7.38,12.51,14.77,25.03,22.15,37.54c0.84,1.43,1.7,2.84,2.55,4.27
		c0.69,0.68,1.32,1.38,0.93,2.47c-4.61,3.79-9.51,7.21-14.26,10.83c-0.82,0.62-1.72,1.09-2.79,1.11c-0.82-0.11-1.45-0.47-1.68-1.33
		c-4.62-8.09-9.37-16.12-13.83-24.3c-2.8-5.14-6.34-9.95-7.84-15.74C1308.87,343.07,1313.85,338.17,1319.51,333.96z"/>
	<path class="st4" d="M1581,865.59c-8.55,2.72-17.24,4.74-26.28,4.77c-1.28,0-2.55-0.1-3.83-0.15c3.97-7.47,7.75-15,8.99-23.54
		c0.48-3.34,0.46-6.64,0.34-9.97c-0.04-1.21-0.18-2.41,1.54-2.48c8.93-0.4,16.39-4.52,23.57-9.36c0.09-0.06,0.25-0.03,0.38-0.04
		c-0.14,9.98-0.43,19.96-0.35,29.94C1585.39,859.11,1585.34,863.13,1581,865.59z"/>
	<path class="st15" d="M1263.96,864.82c0.85,0.23,1.79,0.28,2.52,0.71c11.95,7.01,24.54,12.6,37.61,17.13
		c-2.99,2.42-6.59,3.36-10.22,4.08c-16.15,3.2-31.79,1.78-46.71-5.5c-1.7-0.83-3.51-1.71-3.89-3.92c1.24-5.36,4.76-8.23,9.96-9.48
		C1256.85,866.98,1260.39,865.83,1263.96,864.82z"/>
	<path class="st16" d="M1475.3,915.67c0.12,1.46,0.96,2.11,2.32,2.67c9.06,3.73,18.55,5.74,28.25,5.92
		c5.95,0.11,11.8,1.23,17.93,0.47c7.27-0.91,12.94-4.11,18.57-8.2c7.15-5.19,13.92-10.82,20.29-16.94
		c3.81-3.66,8.29-6.38,12.99-8.63c2.59-1.24,4.82-2.49,5.77-5.33c1.27,4.32,0.68,8.58-0.53,12.79c-0.43,1.49-1.72,2.2-2.99,2.83
		c-2.76,1.37-5.62,2.56-8.28,4.09c-2.94,1.7-4.88,1.82-4.87-2.59c-4.92,2.61-8.72,5.96-12.08,9.91
		c-8.65,10.17-18.99,16.65-32.91,17.58c-14.45,0.97-28.13-1.09-41.45-6.43c-1.18-0.47-2.38-1-3.41-1.74
		C1471.37,919.56,1471.49,918.1,1475.3,915.67z"/>
	<path class="st17" d="M1520.28,515.59c12.39,3.21,24.41,7.71,36.91,10.55c3.36,0.76,6.66,1.76,9.99,2.65
		c-1.57,2.31-3.14,4.63-4.71,6.94c-8.69-2.07-16.79-5.87-25.31-8.43c-6.44-1.93-12.57-4.81-19.19-6.19
		C1517.26,518.64,1518.63,517.06,1520.28,515.59z"/>
	<path class="st18" d="M1380.42,571.23c2.54,0.59,1.48,2.62,1.53,4.1c0.05,1.36-0.95,1.9-2.24,2.16c-7.9,1.63-15.86,2.45-23.93,2.33
		c-2.43-0.04-2.84-1.82-2.89-3.3c-0.09-2.8-1.59-3.16-3.75-2.91c-1.89,0.22-3.78,0.48-5.67,0.76c-2.61,0.39-4.26-0.35-4.05-3.36
		c0.08-0.92,0.15-1.84,0.23-2.75c5.36-0.1,10.73,0.26,16.06-0.67c6.05,5,13.15,3.22,19.99,3.08
		C1377.32,570.64,1378.98,569.89,1380.42,571.23z"/>
	<path class="st19" d="M1243.27,877.32c6.37,4.93,13.67,7.45,21.58,8.47c4.78,0.62,9.52,1.65,14.38,1.52
		c7.65-0.2,15.21-0.88,22.24-4.34c0.75-0.37,1.75-0.22,2.63-0.31c1.81,0.57,4.12-0.06,5.22,2.19c-16.65,7.43-33.75,9.16-51.38,4
		c-4.95-1.45-9.57-3.62-13.98-6.32C1241.45,880.99,1240.72,879.43,1243.27,877.32z"/>
	<path class="st20" d="M1296.48,803.98c3.08-0.57,5.99,1.11,9.05,0.74c3.7-0.79,7.35,0.09,10.99,0.51c1.24,0.14,3.09,0.25,2.23,2.5
		c-6.41,5.84-13.58,10.5-21.71,13.55c-1.14,0.43-2.41,1.82-3.81,0.36C1294.32,815.75,1295.4,809.86,1296.48,803.98z"/>
	<path class="st10" d="M1422.86,290.74c-3.35-0.04-6.7-0.08-10.04-0.11C1416.17,289.78,1419.52,289.61,1422.86,290.74z"/>
	<path class="st11" d="M1409.58,828.09c5.46-1.11,10.86-2.32,16.32-3.25c2.2-0.38,3.78,1.51,5.43,2.61
		c6.46,4.31,12.05,9.38,15.01,16.93c3.89,9.93,1.03,18.66-4.6,26.71c-9.2,13.17-24.49,15.17-37.29,10.09
		c-9.92-3.94-15.44-12.08-14.61-21.64c0.92-10.59,8.69-18.65,18.67-20.04c4.92-0.69,10.67,2.4,12.77,6.79
		c1.51,3.17,0.74,6-1.21,8.64c-2.02,2.74-4.28,3.38-8.98,2.59c0.81-1.2,1.51-2.4,2.36-3.48c0.89-1.13,1.33-2.19,0.22-3.42
		c-1.16-1.28-2.32-2.34-4.31-1.7c-4.56,1.47-7.45,7.6-6.44,13.88c0.6,3.71,4.63,6.61,9.07,6.77c6.91,0.24,12.94-1.63,16.05-8.2
		c3.76-7.94,1.96-17.34-3.26-22.91c-3.69-3.94-7.86-6.93-13.01-8.58C1410.97,829.62,1409.96,829.43,1409.58,828.09z"/>
	<path class="st11" d="M1394.14,663.27c4.85-1.04,9.69-2.15,14.56-3.08c2.06-0.39,3.94,0.19,5.77,1.45
		c8.42,5.77,15.68,12.32,18.02,22.93c1.32,5.96-0.56,11.28-3.06,16.28c-6.29,12.56-16.62,18.99-30.77,17.92
		c-9.05-0.68-16.78-4.48-21.77-12.58c-5.23-8.51-2.1-20.88,6.38-27.46c5.76-4.47,11.53-4.95,17.92-2.04
		c3.93,1.79,5.26,5.36,5.17,9.12c-0.09,3.89-3.45,5.81-6.59,7.35c-1.01,0.49-2.66,0.78-3.52-0.49c-0.74-1.1,0.48-1.8,1.04-2.62
		c0.97-1.43,2.76-3.01,0.81-4.65c-1.97-1.66-4.41-2.11-6.68-0.23c-3.49,2.89-5.21,10.37-3.49,14.58c1.57,3.84,6.24,5.46,10.37,5.11
		c6.55-0.55,12.4-2.94,14.81-9.7c2.77-7.76,1.97-15.08-3.96-21.43c-4.19-4.49-9.17-7.66-15.1-9.44
		C1394.08,663.94,1394.11,663.61,1394.14,663.27z"/>
	<path class="st11" d="M1541.52,701.36c5.26-1,10.52-1.97,15.76-3.04c0.96-0.2,1.67-0.1,2.53,0.36c9.71,5.27,17.19,12.55,20.14,23.5
		c1.45,5.39,0.03,10.72-2.25,15.69c-4.03,8.8-10.44,15.07-19.79,18.12c-14.11,4.61-33.13-2.46-35.99-19.13
		c-0.95-5.55,1.13-10.53,4.18-14.83c4.34-6.1,10.25-9.55,18.17-8.62c4.24,0.5,7.15,2.73,8.95,6.37c1.32,2.66,1.43,5.46-0.68,7.96
		c-2.31,2.73-4.99,4.35-8.98,3.05c0.72-1.18,1.33-2.25,1.99-3.28c1.08-1.68,0.85-3.06-0.68-4.4c-1.57-1.37-3.16-1.61-4.9-0.48
		c-4.38,2.85-6.54,10.7-4.42,15.56c0.89,2.03,2.24,3.27,4.4,3.92c11.79,3.57,22.02-4.1,22.08-15.62c0.05-10.71-7.1-18.2-16.35-22.4
		c-1.46-0.66-2.93-1.32-4.4-1.98C1541.37,701.87,1541.45,701.61,1541.52,701.36z"/>
	<path class="st11" d="M1373.43,784.96c-0.13-0.94,0.69-1.31,1.17-1.86c1.67-1.89,2.06-4.02,0.25-5.83
		c-1.79-1.79-3.97-1.42-5.96,0.05c-3.35,2.46-5.15,9.72-3.6,14.55c1.11,3.47,4.04,4.72,9.38,5.11c11.74,0.87,18.87-9.36,16.89-20.42
		c-1.49-8.28-6.32-13.1-13-16.87c-2.42-1.36-5.06-2.34-8.53-3.92c5.38-1.07,10.02-1.78,14.55-2.95c4.32-1.12,7.38,0.98,10.43,3.34
		c6.35,4.92,12.38,10.24,14.15,18.53c2.38,11.2-1.13,20.5-9.51,28.33c-5.64,5.27-12.29,7.52-19.65,8.52
		c-14.55,1.97-28.84-10.59-27.98-25.1c0.66-11.18,12.26-22.94,25.54-17.97c4.48,1.68,7.17,6.84,5.95,11.23
		C1382.42,783.57,1378.36,785.7,1373.43,784.96z"/>
	<path class="st11" d="M1451.83,724.88c5.59-1.09,10.29-1.71,14.82-2.95c5.65-1.55,8.97,2.36,12.44,5.19
		c4.42,3.6,8.53,7.6,10.69,13.34c4,10.61,1.51,19.68-5.11,28.31c-5.24,6.84-12.19,10.55-20.46,11.57
		c-11.64,1.44-26.72-4.25-30.07-18.15c-2.99-12.39,7.5-27.88,22.52-25.57c4.46,0.68,8.34,4.48,8.69,8.94
		c0.39,4.86-1.77,7.72-6.86,9.21c-1.15,0.34-2.42,0.82-3.2-0.26c-0.86-1.19,0.61-1.75,1.22-2.43c1.69-1.85,2.42-3.73,0.29-5.67
		c-2.11-1.92-4.6-1.39-6.25,0.3c-2.82,2.88-4.49,6.58-4.43,10.71c0.07,4.85,3.45,8.21,8.19,8.58c7.74,0.61,14.4-1.12,17.92-8.87
		c3.28-7.23,1.74-14.05-2.54-20.35C1465.59,730.73,1459.17,727.85,1451.83,724.88z"/>
	<path class="st11" d="M1504.47,809.28c5.35-1.03,10.7-2.06,16.05-3.09c2.02-0.39,3.41,0.96,4.89,1.88
		c7.36,4.55,13.35,10.42,16.51,18.65c3.65,9.51,0.39,18-5.08,25.57c-6.49,8.99-15.62,13.3-26.84,12.62
		c-12.34-0.75-23.61-7.3-24.98-21.4c-0.82-8.46,3.32-15.29,10.56-19.92c5.43-3.47,11.05-3.8,16.71-0.46
		c3.14,1.85,5.39,6.46,4.62,9.47c-0.88,3.44-4.73,6.75-8,6.79c-0.73,0.01-1.73-0.03-2.12-0.48c-0.63-0.72,0.28-1.33,0.73-1.92
		c1.44-1.89,3.08-3.98,0.57-6.01c-2.22-1.79-4.64-0.93-6.71,0.66c-2.87,2.2-4.64,9.61-3.35,13.59c1.13,3.49,5.1,5.83,9.94,5.77
		c8.87-0.11,16.74-5.79,17.07-16.73c0.35-11.5-8.55-19.05-16.97-22.69c-1.15-0.5-2.35-0.88-3.53-1.32
		C1504.53,809.93,1504.5,809.61,1504.47,809.28z"/>
	<path class="st11" d="M1507.72,630.62c-0.06,2.73,2.29,3.54,3.96,4.75c9.89,7.22,14.84,18.82,11.44,29.59
		c-3.99,12.64-14.69,23.32-29.7,23.11c-7.08-0.1-13.19-1.99-19.03-5.9c-8.88-5.94-11.84-21.82-2.6-31.19
		c7.07-7.17,14.37-8.91,21.3-4.78c4,2.39,5.98,7.02,4.59,10.8c-1.3,3.56-5.54,5.72-10.1,5.13c-0.46-1.52,1.28-1.66,1.71-2.66
		c0.87-2.03,1.54-4.05-0.57-5.55c-1.84-1.31-3.85-1.14-5.62,0.47c-3.42,3.14-6.2,9.24-2.95,15.82c1.5,3.04,7.53,4.67,12.55,3.65
		c15.1-3.08,16.52-19.73,9.73-28.81c-4.69-6.26-10.73-10.43-18.44-12.09c-0.29-0.06-0.5-0.53-0.75-0.81
		c1.53-1.23,3.37-0.95,5.12-0.99C1494.8,631.01,1501.28,631.49,1507.72,630.62z"/>
	<path class="st21" d="M1318.75,807.73c-0.19-1.98-1.78-1.38-2.89-1.5c-3.46-0.38-6.96-0.49-10.33-1.51c1.9-1.58,2.02-4.07,3.05-6.1
		c6.05-11.86,11.94-23.8,17.88-35.71c4.89-1.03,9.78-2.06,14.67-3.09c-8.08,9.19-13.82,19.61-16.56,31.6
		c-0.2,0.87-0.51,1.8-0.38,2.64C1325.03,799.7,1322.68,804.02,1318.75,807.73z"/>
	<path class="st22" d="M1353.53,389.03c6.38-1.44,11.45-5.58,17.07-8.53c14.63-7.67,29.12-15.62,43.67-23.46
		c1.63,1.76,2.92,3.84,5.24,4.91c1.35,0.63,1.88,2.04,2.36,3.4c0.52,1.45,0.88,2.96,1.71,4.29c1.7,2.73,3.98,3.74,6.01,2.67
		c3.03-1.6,4.27-4.29,3.09-7.22c-1.05-2.62-1.56-5.01,0.08-7.68c1.44-2.36,0.86-4.63-1.37-6.49c-0.96-0.8-2.76-1.17-2.21-3.1
		c1.88,0.43,3.23-0.74,4.52-1.7c2.84-2.12,4.85-0.91,6.39,1.53c4.12,6.52,7.98,13.2,12.19,19.66c7.42,11.38,13.92,23.47,23.53,33.26
		c7.16,7.29,16.12,11.76,25.84,14.72c1.84-0.48,3.18,0.64,4.62,1.44c0.31,0.28,0.63,0.56,0.94,0.83c2.69,5.1,2.79,10.86,4.15,16.3
		c1.4,5.58,2.5,11.24,3.72,16.87c-3.95,7.98-9.04,15.13-15.41,21.38c-1.52,1.36-2.86,3.15-5.33,2.43c-0.26-0.35-0.43-0.72-0.54-1.14
		c-0.63-6.62,0.35-13.29-0.58-19.89c-0.76-3.9-1.15-7.9-2.67-11.62c-2.19-5.37-7.22-6.3-11.25-2.1c-1.71,1.78-2.81,3.97-3.66,6.28
		c-2.1,5.73-2.94,11.67-3.09,17.75c-0.11,4.37-0.92,5.04-5.17,3.93c-12.05-3.12-24.04-6.46-36.24-8.95
		c-1.88-0.38-3.76-0.92-5.69-0.33c-1.3,0.43-2.21,1.51-3.43,2.06c-9.05-0.47-13.22,5.17-15.89,12.7c-0.08,0.24-0.24,0.45-0.38,0.67
		c-0.44,0.64-1.01,1.13-1.62,1.59c-3.79,3.37-4.31,5.66-2.08,10.1c3.95,7.84,10.62,13.37,16.72,19.36c1.13,1.11,2.96,1.93,1.74,4.06
		c-0.37,0.37-0.75,0.79-1.25,0.87c-8.92,1.46-17.83,3.07-26.92,1.62c-1.95-1.78-1.25-4.02-0.97-6.14c0.96-7.3-0.54-9.11-7.76-10.28
		c-6.31-1.03-12.52-0.86-18.77,0.31c-3.56,0.67-6.71,1.81-8.21,5.52c-0.29,0.72-0.86,1.28-1.7,1.43c-2.27-0.18-4.56-0.68-6.79-0.46
		c-3.46,0.35-4.36-1.39-4.65-4.33c-0.39-4.02-1.01-8.02-1.54-12.03c0.67-1.23-0.1-3.01,1.48-3.9c4.41-10.7,6.83-21.24,3.49-33.17
		c-3.67-13.12-9.44-25.16-15.18-37.31c-3.34-7.07-3.16-7.86,3.95-11.42c2.16,1.36,4.25,2.71,6.88,3.21
		c2.51,0.47,3.89,2.83,5.65,4.48c3.33,3.1,5.81,3.55,8.03,1.37c2.23-2.19,2.23-5.88-0.38-8.65c-1.95-2.07-2.9-4.18-2.07-6.95
		C1354.25,391.78,1353.21,390.45,1353.53,389.03z"/>
	<path class="st4" d="M1499.34,471.62c0.5-2.47,2.88-3.51,4.34-5.11c3.78-4.14,6.36-8.97,9.25-13.64c0.43-0.69,0.83-1.29,1.71-1.34
		c0.53,0.03,1.06,0.17,1.36,0.59c4.46,6.31,9.4,12.35,11.88,19.85c0.6,2.18,1.37,4.37-0.06,6.53c-2.96-0.07-4.35,2.06-5.42,4.24
		c-4.32,8.82-5.93,18.2-5.57,28c0.09,2.58,1.23,4.01,3.46,4.85c-0.77,1.84-1.53,3.68-2.3,5.52c-2.43,5.05-3.95,10.51-6.97,15.28
		c-2.1-8.98-4.2-17.96-6.3-26.94c-1.03-1.46,0.22-2.37,0.84-3.4c1.47-2.41,3.08-4.74,4.24-7.33c0.55-1.23,1.32-2.51,0.41-4.06
		c-3.28,1.39-3.8,5.99-7.7,6.5c-0.3-0.21-0.53-0.49-0.67-0.83c-0.54-2.97,1.59-4.69,3.14-6.68c2.63-3.39,5.84-6.39,7.62-10.94
		c-2.37-0.01-3.17,1.63-4.4,2.56c-2.92,2.21-4.43,5.95-8.06,7.37c-0.29-0.23-0.5-0.52-0.63-0.87c-0.51-2.06,0.81-3.33,1.97-4.71
		c2.9-3.47,5.61-7.07,7.33-11.38c-3.84,1.09-5.81,4.35-8.49,6.73c-1.08,0.96-1.97,2.74-3.68,0.81c-0.27-0.49-0.38-1.02-0.39-1.57
		c0.19-2.27,1.78-3.83,2.89-5.63C1500.03,474.56,1500.87,473.16,1499.34,471.62z"/>
	<path class="st23" d="M1429.19,347.83c0.85,0.74,1.63,1.6,2.58,2.2c3.05,1.95,3.72,4.84,1.99,7.6c-1.62,2.6-1.25,4.65-0.17,7.1
		c1.56,3.54-0.07,6.99-4.01,8.86c-2.26,1.08-5.86-0.42-7.06-3.62c-1.45-3.86-2.53-7.69-6.77-9.55c-1.26-0.55-1.37-2.08-1.48-3.38
		c2.34-4.73,0.6-7.6-3.99-9.61c-2.44-1.07-3.12-3.01-0.54-4.98c0.11,0.83-0.07,1.75,0.62,2.43c6.43,1.88,8.66,4.93,7.41,10.13
		c-0.91,1.91-0.64,3.45,1.38,4.47c0.68,0.34,1.49,0.68,1.84,1.34c1.86,3.47,4.15,1.88,6.3,0.51c2.12-1.35,2.97-3.76,4.16-5.82
		c0.66-1.14-0.3-2.18-1.2-2.95c-1.36-1.16-2.77-2.27-3.32-4.1c-0.54-3.69,0.72-6.65,3.64-8.93c0.08-0.91,0.41-1.6,1.46-1.67
		c1.51,1.86-0.01,3.31-0.71,4.83C1430.53,344.39,1428.89,345.7,1429.19,347.83z"/>
	<path class="st24" d="M1506.29,416.74c-1.68-0.04-3.24-0.44-4.62-1.45c-5.51-7.05-11.26-13.94-14.93-22.24
		c-4.64-10.49-7.56-21.42-8.21-32.9c-0.06-1.09-0.84-3.11,0.94-3.18c1.62-0.07,1.27,1.89,1.3,3.11
		c0.52,18.04,6.91,33.93,17.57,48.27c0.54,0.72,0.92,1.56,1.87,2c-4.48-12.59-5.54-25.12-2.29-38.04
		C1496.45,387.98,1498.12,403,1506.29,416.74z"/>
	<path class="st12" d="M1354.96,502.36c2.18-8.54,9.5-8.1,15.9-8.87c5.59-0.67,11.22-0.1,16.69,1.33c4.4,1.15,5.53,2.82,5.27,7.41
		c-0.17,2.92-0.47,5.84-0.71,8.76c0.58,0.76,0.72,1.63,0.64,2.55c-1.34,15.83-2.41,31.68-4.19,47.47c-0.11,1.4,0.06,2.89-1.26,3.89
		c-0.03,4.58-3.49,5.41-6.88,6.33c-5.29,0.82-10.61,1.07-15.96,1.07c-3.88,0-6.97-1-8.74-4.71c-3.84-15.88-2.97-32.06-3.01-48.19
		C1352.69,513.62,1354.6,508.09,1354.96,502.36z"/>
	<path class="st25" d="M1353.53,389.03c1.62,1.11,2,2.85,1.33,4.41c-1.16,2.67-0.13,4.38,1.78,6.01c2.05,1.75,2.55,4.09,2.19,6.63
		c-0.33,2.33-1.65,3.99-3.86,4.87c-2.32,0.93-4.29,0.16-5.97-1.43c-3.11-2.94-5.68-6.62-10.64-6.75c-1.65-0.04-1.95-1.83-2.64-3.03
		c0.1-5.58,0.09-5.52-5.4-6.82c-2.07-0.49-5.33-0.11-3.9-4.07c0.53,0.29,1.06,0.58,1.59,0.86c4.22,0.74,8.85,0.62,10.94,5.62
		c0.51,1.23,1.53,0.5,2.31,0.15c2.79-1.28,5.43-2.83,8.38-4.79c-2.29-1.54-5.51-1.97-5.5-5.3c0-2.51-0.81-5.13,0.87-7.45
		c-0.26-0.73-0.53-1.45-0.79-2.18c2.47-0.14,3.07,1.37,2.97,3.43c-0.32,6.33-0.33,6.32,5.19,8.88
		C1352.8,388.29,1353.15,388.71,1353.53,389.03z"/>
	<path class="st24" d="M1343.45,481.64c-0.49,1.3-0.98,2.6-1.48,3.9c-2.39-13.5-5.93-26.81-7.29-40.51
		c2.77,3.34,2.43,7.52,3.31,11.34C1339.93,464.77,1341.08,473.33,1343.45,481.64z"/>
	<path class="st26" d="M1360.63,297.44c1.29-0.47,1.74,0.29,2.23,0.82c6.25,6.87,14.05,9,23.02,7.6c0.87-0.14,1.91-0.65,2.09,0.73
		c0.13,1.05-0.82,1.11-1.59,1.17c-8.25,0.64-16.2,0.05-22.76-5.86C1362.29,300.73,1360.84,299.6,1360.63,297.44z"/>
	<path class="st27" d="M1370.62,268.16c1.49,0.17,2.86,0.6,2.61,2.21c-0.24,1.58-1.63,2.1-3.17,2.04c-1.32-0.06-2.35-0.76-2.29-2.02
		C1367.85,268.69,1369.26,268.24,1370.62,268.16z"/>
	<path class="st28" d="M1395.61,282.66c-1.35-0.22-2.58-0.56-2.43-2.05c0.17-1.66,1.44-2.3,3-2.32c1.3-0.01,2.33,0.49,2.23,1.97
		C1398.3,282.04,1396.91,282.42,1395.61,282.66z"/>
	<path class="st18" d="M1387.3,564.9c0.09-1.18,0.19-2.37,0.28-3.55c0.7-0.88,1.71-1.03,2.74-1.16
		c14.02-1.81,27.44-5.92,40.66-10.75c0.24-0.09,0.47-0.19,0.72-0.27c4.45-1.56,5.41-0.8,5.11,4.05c-0.17,0.4-0.38,0.78-0.63,1.14
		l-0.18-0.08c-7.7,4.08-15.98,6.46-24.4,8.54c-6.82,1.68-13.8,2.35-20.66,3.74C1389.52,566.82,1387.72,567.18,1387.3,564.9z"/>
	<path class="st6" d="M1430.56,339.55c-1.01,3.07-3.81,5.59-2.86,9.27c0.14,0.35,0.37,0.88,0.13,1.07
		c-3.26,2.58-6.39,5.49-11.04,5.02c1.8-3.1,0.4-5.22-2.13-7.02c-1.42-1.01-3.25-1.43-4.3-2.99
		C1416.97,342.64,1423.71,340.87,1430.56,339.55z"/>
	<path class="st29" d="M1345,377.95c0.01,2.81-0.38,5.7,0.14,8.41c0.62,3.28,4.65,1.97,6.97,4.25c-4.63,2.56-9.01,4.99-13.87,7.67
		c0.22-5.47-3.09-6.73-7.24-7.12c-1.12-0.11-2.32-0.29-2.98-1.44c4.45-3.22,8.89-6.47,13.37-9.65
		C1342.52,379.26,1343.79,378.65,1345,377.95z"/>
	<path class="st30" d="M1436.18,553.48c-0.18-4.88-0.13-4.76-4.75-3.08c-14.23,5.17-28.59,9.88-43.85,10.95
		c1.51-16.78,3.02-33.57,4.53-50.35c8.55,0.34,17-0.94,25.48-1.58c1.17-0.09,2.23-0.5,3.01-1.44c5.02-1.93,10.36-2.79,15.41-4.72
		c12.5-4.8,23.65-11.7,33.58-20.65c3.26-2.93,5.55-6.76,8.89-9.59c1.27-1.08,2.38-3.25,4.47-1.8c2.07,1.43,1.65,3.63,0.76,5.59
		c-1.98,4.35-4.8,8.19-7.4,12.16c-0.84,1.28-1.78,2.51-2.11,4.24c3.13-1.75,5.6-4.3,7.81-7.07c2.82-3.53,6.15-6.54,9.32-9.73
		c0.9-0.9,1.88-1.79,3.32-1.68c1.56-1.03,3.12-2.06,4.68-3.1c3.07-0.02,2.58,1.56,1.56,3.43c-1.26,2.31-3.33,4.13-4.02,6.77
		c-3.01,4.96-7.17,9-11.28,14.23c4.46-4.58,7.63-9.11,11.6-12.92c2.22,0.31,2.59-1.92,3.84-2.91c2.19-1.74,3.81-4.15,6.29-5.59
		c0.91-0.52,1.88-1.04,2.8-0.1c0.85,0.87,0.08,1.72-0.32,2.43c-2.21,3.9-4.83,7.53-7.81,10.88c-1.04,1.16-2.1,2.26-2.05,3.96
		c-2.32,2.16-3.8,5.05-6.13,6.97c2.51-1.56,3.37-5.02,6.38-6.32c3.16-3.31,6.26-6.69,9.51-9.91c0.9-0.89,2.19-2.27,3.61-0.99
		c1.3,1.17-0.07,2.37-0.62,3.4c-1.88,3.5-4.6,6.39-7.1,9.44c-1.43,1.74-3.33,3.23-3.26,5.82c-0.88,0.7-1.5,1.62-2.08,2.57
		c-0.36,0.37,0.36,0.67-0.05,0.36c0.7-0.83,1.25-1.8,2.33-2.23c2.85-1.67,4.03-4.93,6.52-6.94c0.58-0.47,1.06-1.33,1.89-1.06
		c1.15,0.37,0.78,1.51,0.73,2.32c-0.31,4.6-3.32,7.92-5.61,11.56c-0.54,0.86-1.34,1.54-1.36,2.66c-3.93,1.89-6.36,5.44-9.33,8.4
		c-9.45,8.58-20.69,14.29-32.01,19.83c-7.15,3.5-14.37,6.89-21.79,9.82c-2.18,0.86-3.9,1.9-4,4.56
		C1437.56,552.77,1437.25,553.61,1436.18,553.48z"/>
	<path class="st31" d="M1436.18,553.48c-0.15-5.13,3.67-6.46,7.45-8.01c14.12-5.82,27.89-12.37,40.88-20.46
		c3.69-2.3,6.81-5.44,10.88-7.16c-4.59,6.35-10.9,10.84-17.18,15.17c-13.02,8.97-27.05,16.11-42.02,21.33
		C1436.18,554.06,1436.18,553.77,1436.18,553.48z"/>
	<path class="st2" d="M1494.66,474.71c-6.27,5.36-11.42,11.82-17.3,17.56c-1.33,1.31-3.38,3.83-4.49,2.84
		c-1.89-1.68,0.71-3.57,1.69-5.2c2.26-3.74,4.75-7.33,7.05-11.04c0.73-1.18,1.18-2.55,1.74-3.84c0.59-1.36,0.24-2.74-0.83-3.47
		c-1.32-0.9-2.05,0.63-2.74,1.4c-6.27,6.99-12.7,13.78-20.53,19.11c-10.93,7.46-22.75,12.86-35.65,15.86c-1,0.23-1.99,0.53-3,0.04
		c-5.27-5.23-11.04-9.97-15.56-15.92c-1.39-1.83-2.73-3.74-3.78-5.77c-2.61-5.08-2.07-7.56,2.2-11.5c1.6,0.27,2.71,1.38,3.93,2.29
		c7.32,5.5,15.2,6.91,23.78,3.19c-8.18,3.56-15.81,2.35-22.94-2.69c-1.34-0.94-2.79-1.88-3.11-3.72c0.54-2.66,1.92-4.94,3.21-7.27
		c3.01-5.47,7.51-7.69,13.65-6.45c1.73,0.14,2.27-0.96,2.51-2.39c1.69-1,3.41-0.66,5.21-0.3c12.81,2.57,25.44,5.92,38.02,9.41
		c2.97,0.83,3.97,0.46,3.88-2.9c-0.18-6.32,0.79-12.54,3.07-18.49c1.45-3.79,3.43-7.21,7.41-8.92c3.62-1.55,6.57-0.6,8.49,2.82
		c2.38,4.24,2.94,8.97,3.48,13.7c0.58,5.84,0.08,11.69,0.28,17.53c0.05,1.38-0.35,2.8,0.36,4.12L1494.66,474.71z"/>
	<path class="st32" d="M1405.12,473.86c7.76,7.29,16.49,9.63,26.55,5.26c0.78-0.34,1.81-1.22,2.35-0.12
		c0.73,1.48-0.94,1.51-1.71,1.89c-9.6,4.68-20.31,2.39-28.83-6.1C1404.02,474.48,1404.57,474.17,1405.12,473.86z"/>
	<path class="st30" d="M1494.67,474.72c-1.42-1.84-0.62-3.95-0.65-5.93c-0.08-5.24,0-10.48,0.01-15.72
		c1.39,4.22,0.48,8.56,0.67,12.85C1494.83,468.84,1494.69,471.78,1494.67,474.72z"/>
	<path class="st33" d="M1424.49,457.74c0.45,1.16,1.45,2.51,0.12,3.46c-0.85,0.61-1.84-0.43-2.63-1.06
		C1422.5,459.01,1423.32,458.19,1424.49,457.74z"/>
	<path class="st34" d="M1497.19,483.13c-2.92,5.94-7.93,10.03-12.75,14.33c3.48-5.75,7.43-11.11,12.44-15.65
		C1496.98,482.25,1497.09,482.69,1497.19,483.13z"/>
	<path class="st35" d="M1500.2,492.45c-2.21,3.38-4.91,6.3-8.21,8.68c2.42-3.31,3.72-7.56,7.95-9.33
		C1500.02,492.02,1500.11,492.23,1500.2,492.45z"/>
	<path class="st36" d="M1502.54,500.91c-0.48,2.03-1.95,3.19-4.06,4.59c0.66-2.68,0.85-4.98,3.86-5.29
		C1502.39,500.45,1502.45,500.68,1502.54,500.91z"/>
	<path class="st22" d="M1416.79,354.91c3.92-1.51,7.79-3.12,10.91-6.09c0.24,0.29,0.47,0.6,0.72,0.88c4.95,5.36,5.01,5.4,1.28,11.24
		c-1.07,1.67-3.46,1.52-4.89,2.76c-2.84,2.47-2.87-0.71-3.92-1.87c-0.61-0.67-1.26-1.21-2.16-1.52
		C1415.87,359.35,1415.37,357.45,1416.79,354.91z"/>
	<path class="st22" d="M1432.55,368.97c0.03-2.3-1.91-3.37-3.11-5.07C1432.82,364.2,1433.06,364.58,1432.55,368.97z"/>
	<path class="st22" d="M1354.27,400.76c2.34,0.59,4.01,1.71,3.62,5.11C1356.62,403.75,1355.75,402.02,1354.27,400.76z"/>
	<path class="st37" d="M1482.76,444.06c3.23,6.7,1.5,12.72-0.3,18.72c-0.59,1.95-1.35,3.85-2.13,5.72c-0.87,2.1-2.41,2.35-4.33,1.39
		c-2.11-1.06-1.14-2.51-0.51-3.9C1478.6,459.11,1481.43,452.14,1482.76,444.06z"/>
	<path class="st38" d="M1449.74,468.39c0.24,0.33,0.73,0.69,0.77,1.1c0.34,3.27,2.72,4.74,5.24,6.12c0.53,0.29,1.26,0.55,1.01,1.38
		c-0.24,0.8-0.93,0.86-1.54,0.55c-3.05-1.52-5.78-3.38-6.58-7.02C1448.46,469.66,1448.23,468.7,1449.74,468.39z"/>
	<path class="st10" d="M1549.34,610.11c-3.01,1.96-5.07,4.96-7.99,7.08c-8.84,6.44-18.57,8.62-29.28,6.93
		c-0.56-0.09-1.19,0.28-1.79,0.44c-1.87-0.76-2.4-2.51-3.02-4.16c-2.02-5.38-3.05-10.99-3.73-16.68c-1.01-6.61-1.49-13.29-2.3-19.92
		c-2.05-16.61,2.62-31.84,8.77-46.84c2.01-4.17,3.75-8.46,5.58-12.72c0.55-1.29,1.09-2.63,2.27-3.53c0.98-0.5,2.01-0.41,2.98-0.07
		c13.5,4.7,27.13,9.03,40.5,14.11c0.49,0.18,0.85,0.55,1.15,0.97c-1.3,2.99-4.34,5.02-4.68,8.53c-4.35,6.92-9.2,13.53-12.98,20.81
		c-3.58,6.9-5.21,14.13-4.08,21.89c0.15,1.03,0.28,2.04-0.46,2.92c0.57,6.22,2.61,11.96,5.72,17.33
		C1546.75,608.52,1547.58,609.89,1549.34,610.11z"/>
</g>
</svg>
