<?xml version="1.0" encoding="utf-8"?>
<!-- Generator: Adobe Illustrator 24.3.0, SVG Export Plug-In . SVG Version: 6.00 Build 0)  -->
<svg version="1.1" id="Layer_1" xmlns="http://www.w3.org/2000/svg" xmlns:xlink="http://www.w3.org/1999/xlink" x="0px" y="0px"
	 viewBox="0 0 882.38 907" style="enable-background:new 0 0 882.38 907;" xml:space="preserve">
<style type="text/css">
	.st0{fill:#00C897;}
	.st1{fill:#A5C8FE;}
	.st2{fill:#E76061;}
	.st3{fill:#FECECE;}
	.st4{fill:#E8CFBC;}
	.st5{fill:#280A54;}
	.st6{fill:#E75F5F;}
	.st7{fill:#E8CFBB;}
	.st8{fill:#270B54;}
	.st9{fill:#260953;}
	.st10{fill:#E7CFBB;}
	.st11{fill:#A5C8FC;}
	.st12{fill:#270A54;}
	.st13{fill:#260A53;}
	.st14{fill:#270B53;}
	.st15{fill:#270C54;}
	.st16{fill:#321356;}
	.st17{fill:#260B52;}
	.st18{fill:#A1C1F1;}
	.st19{fill:#A8C4F3;}
	.st20{fill:#F7F9FC;}
	.st21{fill:#FDFDFD;}
	.st22{fill:#290E54;}
	.st23{fill:#2D0F55;}
	.st24{fill:#F2EFF1;}
	.st25{fill:#2E1257;}
	.st26{fill:#E7CEBB;}
	.st27{fill:#FBF8F5;}
	.st28{fill:#331457;}
	.st29{fill:#FFFFFF;}
	.st30{fill:#FEC38F;}
	.st31{fill:#230751;}
	.st32{fill:#230850;}
	.st33{fill:#270953;}
	.st34{fill:#240952;}
	.st35{fill:#250952;}
	.st36{fill:#351C5E;}
	.st37{fill:#250951;}
	.st38{fill:#270C53;}
	.st39{fill:#250B52;}
	.st40{fill:#260C53;}
	.st41{fill:#270D54;}
	.st42{fill:#260B54;}
	.st43{fill:#270D53;}
	.st44{fill:#2D1357;}
	.st45{fill:#2B1255;}
	.st46{fill:#2C1357;}
	.st47{fill:#270E54;}
	.st48{fill:#2E1055;}
	.st49{fill:#6B3C1A;}
	.st50{fill:#C0D2D8;}
</style>
<g>
	<circle class="st0" cx="443.02" cy="457.97" r="304"/>
	<g>
		<path class="st1" d="M366.84,376.36c0,0-17.16,44.23-13.48,65.95s15.49,68.48,13.48,87.53c-2.01,19.05-0.37,79.69-0.37,79.69
			l-8.31,44.32l38.45,24.21l23.45-25.96c0,0,14.46-59.06,16.42-78.11c1.96-19.05,1.06-29.44,1.94-32.9s6.16-60.61,15.64-52.82
			c9.48,7.79,0.96,58.88,12.15,82.26s-7.97,82.45-7.97,82.45l42.08,17.13l12.27-20.08c0,0,8.46-65.64,8.28-71.71
			c-0.18-6.06,1.31-9.53,2.3-27.71s2.96-125.56-10.58-142.88"/>
		<path class="st1" d="M521.28,343.52c-3.84,6.54-3.55,14.23-5.94,21.17c-4.14,12.06-0.55,24.03,0.48,36.02
			c0.78,9.12,3.02,18.08,2.8,27.3c-2.6,1.8-4.59,0.25-5.6-1.73c-4.91-9.59-14.63-12.31-23.21-16.66c-1-0.51-2.08-0.85-3.13-1.25
			c-10.05-3.91-18.66-8.62-20.32-21.21c-0.85-6.49-4.41-12.74-10.05-17.09c-6.07-6.43-10.54-14.08-15.47-21.3
			c-8.74-12.8-18.04-25.21-26.57-38.15c-1.9-2.88-3.79-5.74-1.27-9.23c0.86-1.11,1.81-2.15,2.59-3.33
			c12.7-16.18,17.85-35.33,21.82-54.99c3.9-19.33,8.98-38.41,12.2-57.87c1.09-6.61,2.51-13.2,1.31-20.09
			c-1.14-6.49-3.82-12.1-7.39-17.47c-1.21-1.82-3.04-3.44-2.67-5.99c4.4-0.08,8.8-0.16,13.21-0.24c8.03,3.12,10.29,10.39,11.2,17.59
			c2.2,17.29,0.55,34.37-5.07,50.97c-3.7,3.77-3.59,8.93-4.87,13.58c-0.94,3.43-1.52,6.96-1.94,10.54
			c1.69-4.97,2.98-10.04,4.1-15.17c0.55-2.51,0.5-5.31,2.81-7.16c1.67-0.69,3.32-0.32,4.96,0.06c17.81,4.16,35.65,8.21,53.55,11.98
			c1.46,0.31,2.92,0.67,4.18,1.51c2.35,2.75,0.67,5.74,0.35,8.59c-0.38,3.48-1.14,6.92-1.37,10.43c1.09-6.72,3.9-13.22,2.48-20.27
			c1.38-8.89,3.29-17.68,4.62-26.58c0.88-5.86-1.66-11.56,0.16-17.27c3.62-1.18,7.09-0.5,10.51,0.88
			c5.08,7.33,3.72,15.65,2.64,23.44c-2.37,17.07-5.33,34.05-6.74,51.27c-0.79,9.68-1.52,19.39-2.94,29.01
			c0.05,3.56-0.98,6.89-2.32,10.12c-0.97,2.33-1.2,4.59,0.24,6.82c-1.3,11.56-4.47,22.73-7.23,33.98c-0.93,2.02-1.04,4.21-1.35,6.37
			C521.87,342.61,521.62,343.09,521.28,343.52z"/>
		<path class="st2" d="M440.85,141.63c10.77,11.65,13.78,25.35,10.93,40.7c-5.24,28.19-11.51,56.16-18.38,83.98
			c-2.99,12.11-9.02,23.01-17.05,32.69c-0.57,0.1-1.3,0.2-1.63-0.17c-5.1-5.75-11.47-3.98-17.77-3.18
			c-10.92,1.39-21.38,3.98-30.49,10.58c7.06-3.9,14.48-6.82,22.38-8.51c4.98-1.07,10.03-1.44,15.07-2.01
			c1.96-0.22,4.72-0.47,5.33,1.96c0.72,2.87-2.29,2.96-4.07,3.57c-12.2,4.21-23.46,10.08-33.25,18.6c-1.22,1.06-2.39,2.54-4.4,1.73
			c-0.48-1.36-0.96-2.73-1.44-4.09c-0.18-0.32-0.3-0.84-0.57-0.93c-6.02-1.85-8.8-6.2-9.51-12.18c-1.7-1.19-3.4-2.37-5.1-3.56
			c0.95-3.36,4.03-4.31,6.67-5.55c10.77-5.07,21.74-9.47,34.01-8.78c0.73,0.04,1.49,0,2.42-0.89c-6.04-1.46-11.59,0.14-17.02,1.51
			c-5.45,1.37-10.79,3.25-15.91,5.66c-2.45,1.15-5.28,3.15-7.4-0.38c-2.21-3.69-0.46-6.45,2.72-8.55
			c7.38-4.89,15.66-7.34,24.32-8.33c9.48-1.08,18.76,0.31,27.66,3.81c2.84,1.12,6.24,2.26,2.55,6.23c-0.93,0.99-0.84,2.07,0.47,2.74
			c0.95,0.49,1.6,0.15,2.35-0.71c3.2-3.68,3.22-4.91-0.97-8.09c-2.84-2.15-2-4.51-1.02-7.02c4.29-11.03,8.81-21.97,13.16-32.98
			c0.34-0.87,0.72-1.74,0.88-3.88c-5.53,12.15-9.52,23.71-14.31,34.94c-2.62,6.13-3.74,7.04-10.16,5.77
			c-14.22-2.82-28.02-2.19-41.21,4.47c-1.45,0.73-3.04,1.67-4.75,0.46c7.35-18.53,7.88-38.48,11.91-57.71
			c2.69-12.85,5.3-25.71,8.03-38.55c2.8-13.11,10.35-21.97,21.59-28.67C410.53,148.15,425.05,143.08,440.85,141.63z"/>
		<path class="st3" d="M597.91,121.92c-4.3,6.73-7.01,14.43-12.58,20.38c-1.02,1.09-1.75,2.53-2.92,3.39
			c-5.48,4.01-8.41,9.13-7.53,16.08c-3.3-1.01-1.55-4.2-2.66-6.16c-0.63,11.39-0.64,11.44-12.33,9.94
			c-3.21-0.41-5.91,0.41-8.43,2.29c-3.76,2.81-7.69,5.4-11.31,8.36c-4.09,3.34-7.62,2.84-11.68,0.09
			c-8.37-5.68-15.48-12.28-18.1-22.62c0.21,5.02,2.16,9.15,5.49,12.69c1.52,1.62,3.35,3.09,3.48,5.6
			c-2.37,5.08-3.02,10.27-2.04,15.88c1.1,6.31-3.03,9.81-9.51,8.59c-6.84-1.29-12-5.61-16.46-10.36
			c-10.24-10.88-18.79-22.99-23.99-37.17c-0.77-2.1-1.68-4.23-0.67-6.54l-0.01,0.05c7.18-5.88,15.64-9.66,23.8-13.74
			c7.5-3.75,12.69-8.97,16.23-16.33c1.44-3,2.83-6.3,7.53-4.72c6.33,2.12,7.53,3.47,7.15,9.36c-0.32,4.91-0.45,9.8,3.21,14.03
			c-5.8-10.68-2.25-19.32,5.99-26.49c8.33-7.25,17.99-4.68,21.95,5.64c0.99,2.58,2,2.79,4.04,1.48c3.47-2.24,6.86-4.6,10.33-6.84
			c2.24-1.44,4.45-1.87,6.83-0.35c7.43,4.76,14.92,9.42,22.3,14.26C597.11,119.46,598.06,120.38,597.91,121.92z"/>
		<path class="st4" d="M335.81,750.7c5.29-5.65,5.44-13.32,7.68-20.1c8.21-24.92,10.17-51.09,14.67-76.75
			c0.56-3.17,1.42-4.88,4.73-4.77c6.14-3.1,12.63-1.3,18.98-1.33c2.83,0.49,4.39,2.72,6.08,4.66c4.68,5.35,10.28,9.2,17.25,10.87
			c3.64,0.87,5.88,3.08,6.91,6.6c1.3,4.44,3.63,8.65,3.14,13.51c-2.93,10.44-5.48,20.97-8.17,31.47c-1.09,4.25-1.39,8.98-5.41,11.96
			c-8.57,1.68-17.23,0.18-24.73,0.78c6.03,0.04,13.16-0.09,20.29,0.04c6.87,0.13,7.83,1.51,6.1,8.3c-0.97,3.82-2.14,7.59-3.26,11.36
			c-0.98,3.3-3.19,4.99-6.62,5.02c-17.65,0.14-35.31,0.09-52.96,0.02C338.75,752.35,337.12,751.94,335.81,750.7z"/>
		<path class="st5" d="M597.91,121.92c-8.32-5.41-16.67-10.77-24.93-16.28c-1.9-1.27-3.23-0.99-5,0.21
			c-4.93,3.36-10,6.53-14.99,9.75c-0.43-0.49-0.86-0.74-0.88-1.02c-0.57-6.1-2.85-11.13-9.39-12.45
			c-6.44-1.31-11.27,2.01-15.06,6.83c-5.67,7.2-5.92,13.21-1.21,21.27c0.8,1.37,2.64,2.97,0.43,4.23c-1.95,1.11-2.89-1-3.82-2.35
			c-3.62-5.26-4.79-11-2.8-17.12c1.68-5.18-3.17-3.94-5.16-5.3c-1.8-1.23-4.43-3.13-5.8,0.75c-4.3,12.18-14.28,18.15-25.16,23.2
			c-5.92,2.74-11.04,7.09-17.49,8.78c-2.05-3.07,0.53-3.81,2.45-4.87c8.71-4.83,17.38-9.71,26.14-14.44c2.41-1.3,3.85-3.27,5.5-5.36
			c10.58-13.39,13.42-29.75,17.8-45.5c2.44-8.8,7.67-13.86,16.86-14.89c6.91-0.78,13.79-1.88,20.68-2.81
			c6.61-0.88,12.06,1.03,16.7,6.05c9.57,10.36,19.41,20.47,29.14,30.69c6.08,6.38,8.52,7.08,16.19,3.23
			c2.96-1.49,3.81,0.59,5.02,1.88c5.42,5.78,5.93,15.33,1.36,21.9c-4.73,6.8-13.84,9.41-21.58,6.12
			C601.2,123.69,599.58,122.76,597.91,121.92z"/>
		<path class="st2" d="M531.39,285.86c2.3-24.25,3.52-48.61,8.01-72.64c2.02-10.84,3.98-21.9-0.77-32.68
			c0.19-0.53,0.55-0.82,1.12-0.85c4.33,3.58,8.44,7.46,13.03,10.66c7.68,5.34,10.92,12.79,12.38,21.71
			c3.33,20.39,4.66,40.97,6.34,61.51c1.37,16.82,2.34,33.66,3.48,50.5c-1.41,1.6-3.35,1.54-5.19,1.49
			c-15.97-0.4-30.11,4.34-42.32,14.72c-0.72,0.61-1.58,0.99-2.52,1.14c-2.71-0.56-3.11-2.52-2.93-4.83
			c2.57-11.67,5.13-23.35,7.7-35.02c0.37-6.84,3.61-12.9,5.36-19.36c4.37-16.16,7.75-32.49,9.89-49.08
			c0.16-1.22,0.67-2.54-0.71-4.16c-0.58,15.06-3.81,29.25-7.35,43.34C535.74,276.99,536.11,282.53,531.39,285.86z"/>
		<path class="st3" d="M574.02,392.87c-6.66-6.8-14.94-11.42-22.6-16.88c-0.33-3.44,2.14-5.56,4.14-7.52
			c7.36-7.23,15.33-13.71,24.84-18c1.5-0.68,3.01-1.67,4.76-0.64c9.51,8.99,19.03,17.97,28.53,26.96
			c7.35,6.96,14.71,13.91,22.03,20.9c1.12,1.06,2.25,1.99,3.84,2.14c0.96,2.56,2.85,4.25,5.03,5.82
			c6.38,4.58,12.88,8.98,19.28,13.52c3.06,2.17,4.35,4.58,2.29,8.03c-5.67,9.48-10.07,19.61-15.26,29.33
			c-0.74,1.38-1.22,3.29-3.48,3.04c-3.95-4.75-7.21-9.91-9.08-15.86c-0.75-3.29-0.18-6.72-1.33-10
			c-2.99-8.57-8.73-14.32-17.29-17.18c-3.06-1.02-5-2.69-6.26-5.8c-5.79-14.28-19.1-21.1-34.13-17.82
			C577.58,393.31,575.78,394.41,574.02,392.87z"/>
		<path class="st1" d="M378.88,328.75c10.58,9.16,19.81,19.67,29.79,29.43c7.47,7.31,14.66,14.9,21.97,22.36
			c-0.3,3.07-2.96,2.27-4.71,2.73c-5.49,1.45-8.47,4.38-9.17,9.35c-0.57,4.06,2.05,8.48,6.3,11.05c4.77,2.89,10.56,4,14.51,8.32
			c3.76,11.76,17.02,19.11,29.23,16.19c1.08-0.26,2.09-0.78,3.24-0.74c6.76,2.7,12.7,7.04,19.5,9.7c1.64,0.64,3.51,1.84,1.92,4.25
			c-5.52,0.57-10.61-0.76-15.82-2.63c-8.53-3.05-17.33-4.02-26.08-0.44c-2.68-0.38-3.24-2.87-4.42-4.63
			c-5.41-8.1-13.02-12.48-22.54-13.91c-2.19-0.33-4.04,0.01-5.77,1.31c-4.28-10.34-11.81-17.09-22.51-20.33
			c-1.78-2.06-1.97-4.78-2.99-7.16c-4.62-10.8-12.7-16.61-24.49-17.23c-2.15-0.11-4.56,0.49-6.14-1.72
			c5.82-0.22,6.91-3.44,7.11-8.87C368.3,352.59,372.88,340.4,378.88,328.75z"/>
		<path class="st2" d="M466.66,142.36c5.96,18.65,16.27,34.46,31,47.39c3.19,2.8,6.86,4.67,10.98,5.39
			c5.53,0.97,8.24-1.81,7.22-7.28c-1.06-5.67-1.82-11.22,2.97-15.76c4.95,0.92,8.5,3.76,11.07,7.98
			c2.63,15.31-0.88,30.03-4.34,44.76c-0.48,1.08-1.21,1.7-2.47,1.42c-20.93-4.66-41.86-9.32-62.79-13.98
			c-1.27-0.24-1.39-1.19-1.37-2.22c3.94-14.67,6.24-29.53,5.68-44.79c-0.34-9.45-3.83-17.33-10.55-23.87
			C458.26,141.72,462.46,142.04,466.66,142.36z"/>
		<path class="st4" d="M469.07,733.67c6.12-6.21,13.95-3.47,21.16-4.06c2-0.16,4.82,1.08,5.16-2.55c8.2,2.14,15.92,5.06,20.76,12.71
			c2.17,3.43,2.8,7.71,5.88,10.64c-0.72,1.95,0.24,3.67,0.8,5.43c2.35,7.47,1.32,8.89-6.75,8.96c-7.14,0.07-14.28,0.02-21.42,0.02
			c-8.83,0-17.66,0-26.5,0c-3.26,0-6.4-0.36-8.89-2.77c-1.39-1.42-1.16-3.15-0.51-4.69c3-7.02,5.34-14.28,8.04-21.41
			C467.2,734.87,467.89,734.01,469.07,733.67z"/>
		<path class="st6" d="M586.89,338.13c-1.42,0.77-3.28,0.86-4.01,2.67c-5.6,3.09-11.96,4.04-17.84,6.34
			c-8.54,3.34-16.96,6.82-22.99,14.23c9.85-8.66,21.62-13.4,34.07-16.73c1.09-0.29,2.15-0.66,3.27-0.82
			c1.4-0.19,2.69,0.03,3.38,1.39c0.83,1.64-0.57,2.32-1.55,3.14c-0.43,0.36-0.93,0.64-1.44,0.89
			c-11.82,5.85-21.19,14.72-30.06,24.23c-1.06,1.14-1.81,3.02-3.98,2.51c-0.76-1.17-1.52-2.33-2.28-3.5
			c-0.1-0.15-0.19-0.43-0.31-0.44c-6.52-0.63-10.45-4.18-11.94-10.51c-1.72-0.97-3.43-1.94-5.15-2.9c-0.14-2.96,2.38-4.01,4.15-5.45
			c10.04-8.17,21.33-13.85,33.99-16.78c-8.88,0.73-16.68,4.44-24.22,8.8c-2.44,1.41-4.72,3.07-7.03,4.68
			c-2.24,1.56-4.54,3.14-6.72-0.05c-1.94-2.84-2.09-5.59,0.75-8c8.29-7.03,17.54-12.13,28.27-14.47c7.87-1.72,15.66-1.53,23.46,0.08
			c2.9,0.6,5.85,1.49,3.44,5.56c-1.12,1.89-0.08,2.69,1.67,3.18C585.01,336.52,586.52,336.45,586.89,338.13z"/>
		<path class="st7" d="M494.77,726.07c-6.55,0-13.09,0-20.62,0c9.89-25.16,20.56-49.35,22.37-76.04c1.29-2.35,3.02-2.34,5.01-0.94
			c0.19,0.01,0.37,0.03,0.56,0.03c12.16,0.25,11.76,0.15,8.64,12.35C505.24,682.97,499.01,704.28,494.77,726.07z"/>
		<path class="st8" d="M458.85,760.9c3.02,1.58,6.2,2,9.62,1.96c15.7-0.14,31.41-0.06,47.11-0.06c7.91,0,7.89,0,5.21-7.26
			c-0.72-1.94-2.67-4.27,1.23-5.14c0.66,0.88,1.76,1.7,1.91,2.66c1.38,9.09,7.06,10.49,15.21,9.9c10.29-0.74,20.67-0.26,31.01-0.1
			c1.89,0.03,5.41-1.48,5.28,2.01c-0.1,2.74-3.37,1.56-5.22,1.56c-78.59,0.05-157.18,0.04-235.77,0.04
			c-20.31,0-40.61,0.04-60.92-0.04c-2.04-0.01-5.63,1.27-4.34-3.35c4.07-1.01,8.2-0.41,12.3-0.44c11.45-0.1,22.92-0.35,34.36,0.06
			c10.9,0.38,21.67-1.4,32.53-1.34c3.25,0.02,5.7-1.59,7.98-3.65c2.67-2.41,5.79-3.28,8.68-0.94c5.91,4.78,12.71,4.89,19.75,4.72
			c3.32-0.08,6.78-0.71,9.94,1.03c8.48,0.48,16.97,0.54,25.45-0.04c4.36-1.93,8.97-0.74,13.46-1.05
			C442.04,761.49,450.46,761.69,458.85,760.9z"/>
		<path class="st9" d="M355.36,281.21c15.61-8.18,31.92-10.56,49.04-5.71c3.49,0.99,4.06-1.28,4.99-3.66
			c4.53-11.53,9.16-23.02,13.75-34.52c0.28-0.7,0.51-1.42,0.81-2.1c0.61-1.36,1.18-3.16,3.14-2.27c1.95,0.88,0.94,2.47,0.38,3.86
			c-4.37,10.98-8.72,21.97-13.08,32.96c-0.35,0.87-0.58,1.81-1.05,2.61c-2.07,3.55-1.87,5.9,2.69,7.26c4.13,1.24,5.66,3.43,0.53,5.9
			c-0.62,0.3-1.54,0.9-1.54,1.37c-0.01,1.59,2.95,4.29-1.23,4.14c-2.22-0.08-5.28-1.08-6.13-3.39c-1.14-3.11,2.73-2.77,4.07-4.27
			c0.12-0.14,0.23-0.3,0.7-0.92c-14.35-6.33-28.76-7.78-43.64-2.86c-4.47,1.48-8.61,3.67-12.75,5.93c-3.37,1.84-2.61,4.12-1.37,6.58
			c1.53,3.02,3.18,0.31,4.44-0.26c9.84-4.4,19.87-7.96,30.79-8.28c1.31-0.04,2.63,0.03,3.94,0.1c1.51,0.09,3.35,0.16,3.34,2.15
			c-0.01,2.11-1.86,1.97-3.37,1.88c-13.87-0.88-26.16,4.08-38.12,10.26c-1.66,0.86-3.23,1.89-4.83,2.83
			c-1.4,0.69-3.24,0.41-2.76-1.13c1.38-4.41,2.16-8.51,1.21-13.3C348.84,283.84,353.58,283.34,355.36,281.21z"/>
		<path class="st9" d="M586.89,338.13c-0.37-0.06-0.74-0.12-1.11-0.19c-2.5-0.46-5.84,0.17-6.87-2.68
			c-0.92-2.53,3.16-2.78,3.82-5.49c-16.07-4.05-31.19-2.24-45.38,6.26c-3.2,1.92-5.98,4.54-9.14,6.54c-3.55,2.25-2.2,4.73-0.47,7.02
			c2.28,3.03,3.42-0.51,4.64-1.33c8.95-5.99,18.19-11.24,28.91-13.35c1.1-0.22,2.21-0.48,3.32-0.49c1.41-0.02,3.37-0.62,3.76,1.4
			c0.43,2.25-1.71,2.11-3.05,2.32c-15.4,2.42-27.95,10.26-39.26,20.48c-1.75,0.81-4.41,0.41-3.54-1.35
			c2.53-5.12-0.86-9.21-1.25-13.76l-0.25-0.05c0.72-1.26,1.05-2.97,3.11-2.65c14.57-12.81,31.62-18.08,50.85-16.74
			c4.17,0.86,8.36,1.64,12.49,2.64c1.49,0.36,4.26,1.77,2.32,3.07C586.29,332.14,587.26,335.18,586.89,338.13z"/>
		<path class="st10" d="M336.76,754.32c19.69,0,39.38,0,58.99,0c0.81,2.39-1.95,4.98,0.86,6.93c-0.63,0.42-1.26,0.84-1.88,1.25
			c-7.3,0.1-14.6,0.2-21.9,0.3c-3.37,0.05-5.38-2.49-7.64-4.31c-2.61-2.09-4.76-2.93-6.98,0.25c-2.53,3.64-6.09,4.16-10.29,4.15
			c-26.24-0.07-52.48,0.1-78.73,0.2c1.62-1.94,3.84-1.09,5.79-1.1c16.85-0.07,33.71-0.28,50.56,0.09
			C331.65,762.2,336.17,761.5,336.76,754.32z"/>
		<path class="st11" d="M380.79,628.82c-2.86,0.72-2.22,2.98-2.15,4.97c0.17,5.52,2.5,10.4,4.58,15.35
			c-6.78-0.02-13.56-0.03-20.34-0.05c1.2-13.18,2.39-26.37,3.58-39.55c1.54-0.04,2.29,1.12,2.99,2.17
			c2.86,4.33,5.8,8.57,10.17,11.59c0.91,0.63,1.5,1.64,1.32,2.88C380.89,627.06,380.84,627.94,380.79,628.82z"/>
		<path class="st12" d="M413.95,301.94c-15.84,2.78-29.54,9.8-41.23,20.8c-0.87,0.66-1.75,1.3-2.6,1.98
			c-0.95,0.76-1.97,1.08-2.96,0.23c-1.45-1.25,0-2.28,0.37-3.39c12.01-10.9,25.84-18.66,41.35-23.74
			c-12.91-0.36-25.25,1.38-36.74,7.29c-1,0.51-1.9,1.31-2.95,1.62c-2.03,0.6-4.1,4.69-5.95,1.35c-1.53-2.76,2.49-3.59,4.33-4.76
			c12.33-7.78,26.44-9.13,40.43-10.41c3.64-0.33,5.8,3.7,8.36,6.08C416.13,300.44,415.07,301.22,413.95,301.94z"/>
		<path class="st13" d="M545.75,375.98c10.25-12.43,21.93-23.09,36.92-29.55c-0.88-2.02-2.13-1.61-3.46-1.24
			c-13.25,3.72-26.27,7.91-36.46,17.89c-1.01,0.99-2.18,2.58-3.76,1.02c-1.66-1.65,0.17-2.7,1.12-3.66
			c5.07-5.15,11.01-9.09,17.63-11.88c8.11-3.42,16.32-6.62,25.15-7.75c0.76,0.53,1.55,1.02,2.28,1.59c1.55,1.22,4.39,1.36,4.44,3.78
			c0.05,2.54-3.22,2.07-4.45,3.65c-13.66,5.61-24.95,14.27-33.74,26.16c-0.73,0.79-1.48,1.57-2.19,2.39
			c-0.83,0.95-1.59,2.21-3.12,1.42C544.12,378.76,545.57,377.29,545.75,375.98z"/>
		<path class="st14" d="M529.9,180.08c-3.69-2.66-7.38-5.32-11.07-7.98c-4.7-4.9-9.22-9.96-10.17-17.04
			c-0.25-1.85-1.34-4.82,1.41-5.27c2.76-0.46,1.91,2.62,2.25,4.22c2.54,11.9,11.82,17.67,21.13,23.44c1.74,1.08,2.79-0.33,3.94-1.14
			c3.53-2.47,7.29-4.7,10.43-7.61c5.2-4.81,10.76-6.24,17.37-3.56c3.98,1.61,6.07,1.07,5.67-4.09c-0.23-3.05-1.95-8.7,1.42-8.81
			c3.6-0.11,1.24,5.54,2.16,8.52c0.11,0.35,0.3,0.68,0.45,1.01c-0.38,9.51-0.51,9.94-9.74,7.25c-6.16-1.79-10.98-1.09-15.65,3.27
			c-2.97,2.77-6.47,4.95-9.74,7.4c-0.37,0.28-0.75,0.56-1.12,0.85C535.58,183.13,532.73,181.83,529.9,180.08z"/>
		<path class="st15" d="M215.7,766.59c-9.58,0-19.16,0.01-28.74-0.02c-1.61,0-3.96,0.52-4.06-1.79c-0.11-2.41,2.26-1.98,3.86-1.99
			c19.35-0.03,38.69-0.03,58.04,0.01c1.55,0,4.01-0.62,4.01,1.76c0,2.83-2.68,1.98-4.37,1.99
			C234.86,766.63,225.28,766.59,215.7,766.59z"/>
		<path class="st16" d="M356,304.35c2.45-0.62,4.12,0.51,3.17,2.79c-2.18,5.24,0.48,5.88,4.68,6.09c2.49,0.12,4.64,1.16,2.23,4.23
			c-0.55-0.06-1.1-0.1-1.65-0.17C350.37,315.35,352.39,318.05,356,304.35z"/>
		<path class="st17" d="M531.22,361.53c2.05-0.67,4.2-0.75,3.54,2.15c-1.25,5.45,1.45,5.85,5.67,5.32c2.32-0.3,4.99-0.26,3.04,3.48
			c-0.37,0.01-0.74,0.03-1.11,0.05C530.41,373.08,530.41,373.08,531.22,361.53z"/>
		<path class="st18" d="M519.92,437.84c-3.85-1.26-8.31-0.89-11.34-4.32c1.33-1.03,1.67-3.03,3.5-3.57c2.97,1.14,5.93,2.27,8.9,3.41
			C519.3,434.55,520.02,436.29,519.92,437.84z"/>
		<path class="st19" d="M501.53,649.1c-1.71,0.11-3.46-0.03-5.01,0.94c0.14-1.11,0.43-2.23,0.4-3.33c-0.16-5.61,2.36-6.88,7.2-4.57
			C501.71,643.88,501.67,646.51,501.53,649.1z"/>
		<path class="st5" d="M531.39,285.86c5.62-17.7,9.64-35.73,11.21-54.27c0.06-0.75,0.01-1.5,0.09-2.25
			c0.16-1.57-0.51-3.89,1.94-3.94c2.42-0.04,2.19,2.26,2.04,3.84c-0.56,5.77-1.07,11.56-2.03,17.27
			c-2.84,16.81-6.62,33.41-12.26,49.53c-0.67,1.92-1.75,3.69-2.64,5.53c-3.22-0.55-2.46-2.69-1.74-4.63
			C529.33,293.31,530.86,289.74,531.39,285.86z"/>
		<path class="st20" d="M458.92,210.06c0.46,0.74,0.91,1.48,1.37,2.22c-1.63,7.24-3.27,14.48-4.87,21.73
			c-0.38,1.72-1.04,3.82-2.87,3.5c-2.24-0.39-1.39-2.46-1-4.14c1.41-6.14,2.61-12.33,4.06-18.47
			C456.08,212.96,456.6,210.84,458.92,210.06z"/>
		<path class="st20" d="M523.09,226.26c0.82-0.47,1.65-0.95,2.47-1.42c1.84,2.39,0.98,4.99,0.54,7.54
			c-0.66,3.87-1.14,7.79-2.09,11.58c-0.39,1.56-0.16,4.58-2.72,4.14s-1.44-2.99-1.15-4.73C521.08,237.67,522.1,231.97,523.09,226.26
			z"/>
		<path class="st21" d="M524.13,340.82c-0.94,0.99-1.56,2.37-3.11,2.65c0.06-2.33-0.78-4.79,1-6.87
			C522.73,338.01,523.43,339.42,524.13,340.82z"/>
		<path class="st22" d="M534.59,152.02c-0.2,4.65,1.63,8.75,5.27,12.13c1.03,0.96,2.75,2.11,1.3,3.68c-1.66,1.8-3.04,0.06-4.21-1.04
			c-4.32-4.08-6.5-9.07-6.02-15.06c0.14-1.78-0.07-4.39,2.53-4.14C535.89,147.82,534.91,150.09,534.59,152.02z"/>
		<path class="st23" d="M570.34,134.06c2.88,0.29,4.53,1.67,4.55,4.33c0.02,2.63-1.49,4.31-4.15,4.37c-2.9,0.07-4.65-1.55-4.59-4.51
			C566.21,135.52,568.11,134.4,570.34,134.06z"/>
		<path class="st24" d="M414.59,682.99c0.9,1.74,0.9,3.42,0.34,5.36c-3.41,11.81-6.67,23.67-10.01,35.5
			c-0.34,1.21-0.02,3.53-2.54,1.88c3.79-13.09,7.29-26.26,10.13-39.6C412.81,684.75,413.36,683.69,414.59,682.99z"/>
		<path class="st25" d="M436.24,396.51c-3.49-2.01-1.77-5.56-2.44-8.39c-0.5-2.11-0.7-4.3-1.04-6.45c-0.05-2.04-0.15-4.08-0.13-6.12
			c0.01-0.98,0.46-1.92,1.59-1.85c0.63,0.04,1.71,0.57,1.76,0.99c0.88,6.94,2.48,13.83,1.58,20.89
			C437.52,395.94,436.7,396.2,436.24,396.51z"/>
		<path class="st26" d="M440.79,745.15c-1.53,4.93-3.17,9.83-4.53,14.81c-0.35,1.28-1.07,1.87-1.97,2.51c-4.7,0.54-9.4,0.56-14.11,0
			c-0.76-3.34,2.53-5.44,2.63-8.51c1.43-0.91,3.07-1.17,4.74-1.4c-0.57-1.19-2.71-0.52-2.66-2.34c-0.1-2.39,0.42-4.55,2.17-6.3
			c1.58,0.95,2.33,2.2,1.96,3.01c2.3-6.02,2-14.15,7.11-20.37c6.04-15.9,12.08-31.81,18.42-48.49c1.06,1.94,0.64,3.03,0.36,4.17
			c-4.63,18.96-9.25,37.92-13.82,56.89C440.61,741.08,439.67,743.09,440.79,745.15z"/>
		<path class="st27" d="M436.12,726.56c-2.14,7.39-4.28,14.79-6.86,23.72c-1.09-3.14-1.65-4.75-2.21-6.36c2-5.64,4-11.28,6-16.92
			C434.08,726.85,435.1,726.7,436.12,726.56z"/>
		<path class="st28" d="M424.88,750.21c2.16,1.03,6.58-1.32,6.46,1.96c-0.14,3.67-4.47,1.37-6.89,1.93
			c-0.51,0.12-1.09-0.1-1.64-0.16C423.25,752.57,423.58,751.12,424.88,750.21z"/>
		<path class="st4" d="M474.15,762.74c0,0-61.09,6.49-51.98-6.49S458.23,653,458.23,653s0.59-4.71,7.13-4.86
			c6.54-0.15,41.19,1.12,41.19,1.12s8.59,2.55-1.48,33.74c-10.08,31.19-19.88,44.06-19.88,44.06s32.83,9.8,30.94,12.71"/>
		<path class="st4" d="M369.16,650.04h39.69c0,0,15.23-3.59,12.4,9.88c-2.83,13.47-17.54,69.76-17.54,69.76"/>
		<path class="st29" d="M591.39,627.6l2.69,4.11c0,0-4.45,27.65-13.28,28.9s-26.98,13.37-26.98,13.37l-20.36-9.43l-20.22-1.07
			l-29.68-11.45l-6.48-10.09h-3.66c0,0-31,5.27-58.5,5.29c-27.49,0.02-60.7-7.22-60.7-7.22l-4.73-1.05l-25.21,5.69l-28.88,17.41
			l-39.4-8.1c0,0-17.16-13.44-22.91-24.44s-4.75-34.84-4.75-34.84s-22.38-13.8-25.85-42.39s20.59-51.5,20.59-51.5l3.27-12.32
			c0,0,6.93-38.68,31.94-46.18s38.29-13.66,45.03-9.24s1.6-1.35,1.6-1.35l1.72,1.03l20.52,24.23c0,0,3.27-12.02,9.43-13.95
			c6.16-1.92,14.24-4.81,14.24-4.81s6.75-18.9,15.39-19.63c8.65-0.73,4.74-11.23,30.33,4.63c0,0,16.5,13.36,28.96,11.77
			c13.13-1.67,21.77,1.14,21.77,1.14l1.52,20.03v-3.66l1.58-2.74l1.75-2.28l14.27-5.58l14.09,3.16l6.32,1.78l11.92,2.49l9.88-1.85
			l11.57,7.24l5.2-13.97l4.43-7.1l15.62-10.15l16.33-18.4l22.19-11.47l10.13-11.74l12.51-2.88l8.03-0.63c0,0,12.68-9.96,25.61-8.99
			c12.93,0.96,15.05,8.01,15.05,8.01s6.92-3.18,13.66-3.2c6.74-0.01,14.41,13.61,14.62,16c0.22,2.4,11.9,2.64,11.9,2.64
			s6.77,2.86,6.67,10.87s-7.6,17.03-7.6,17.03s-10.97,2.33-13.09,1.17c-2.12-1.15-5.2-2.61-5.2-2.61l-15.14,10.97l-20.87-2.68
			l-15.94-13.14l4.37,21.71l13.53,27.31l6.73,17.32c0,0,1.92,31.37-18.09,43.3s-27.71-5.58-27.71-5.58l21.74,1.79
			c0,0,17.4,30.57,5.04,47.68"/>
		<path class="st30" d="M335.95,749.11c-0.01-0.74-0.02-1.49-0.03-2.23c-0.99-0.73-2.48-0.51-3.3-1.74
			c1.07-0.41,2.38,0.64,3.26-0.54c-0.23-9.09,1.02-18.23-0.91-27.27c-3.09,4.38-0.87,9.27-1.44,13.48c0.37-4.55-3.1-9.86,1.46-14.43
			c0.08-0.37,0.08-0.74,0-1.1c-3.85-2.82-0.75-6.26-0.82-9.42c-0.1-3.91,0.77-7.88-0.86-11.66c-4.23-0.9-9.63,2.85-9.7,7.85
			c-0.09,6.22-1.53,12.76,2,18.63c0.64,1.07,0.58,2.09,0.21,3.22c-3.02,9.12-2.18,18.53-2.16,26.5c0.11-6.05-0.89-13.52,0.81-20.91
			c0.34-1.49,0.47-3.07-0.23-4.43c-1.84-3.6-2.46-7.4-2.73-11.4c-0.24-3.5-2.01-6.53-6.04-5.79c-3.95,0.72-4.91,4.06-3.7,7.48
			c1.59,4.48-0.02,9.91,4.16,13.62c0.65,0.58,0.49,1.83,0.22,2.73c-2.02,6.73-0.19,12.88,2.73,18.88c1.69,3.47-0.46,6.12-1.92,8.92
			c-0.85,2.7-2.73,3.78-5.51,3.78c-14.22,0.03-28.44-0.04-42.66,0.03c-4.2,0.02-4.42-1.83-3.54-5.32
			c2.28-9.06,5.78-17.79,7.36-27.03c-0.81-3.61-0.01-7.07,0.99-10.51c4.23-14.59,8.46-29.18,12.61-43.8c0.83-2.92,2.58-4.88,4.9-6.6
			c8.74-6.48,17.69-12.68,26.22-19.44c1.85-1.46,5.23-2.5,3.67-5.98c-1.08-2.42-6.94-2.95-9.66-0.67c-4.2,3.51-8.76,6.42-13.52,9.05
			c-6.3,1.6-12.21,5.18-19.11,3.75c-5.28,0.91-10.43,0.3-15.55-1.15c-7.09-2-7.71-1.3-11.13,5.38c-3.71,7.26-5.02,14.73-4.63,22.77
			c0.31,6.34,0.37,12.74-0.68,19.06c2.12,20.21-3.28,39.35-8.19,58.58c-0.88,3.43-2.94,3.61-5.78,3.6
			c-17.09-0.08-34.19-0.05-51.28-0.01c-1.83,0.01-3.76-0.54-5.49,0.57c1.24,2.17,3.4,2.13,5.44,2.12
			c45.39-0.09,90.78,0.33,136.16-0.18c3.99-1.33,8.14-1.13,12.26-1.08s5.86-1.35,4.55-5.75
			C333.17,756.7,332.38,752.55,335.95,749.11z"/>
		<path class="st30" d="M680.2,419.29c-1.09-0.71-2.18-1.41-3.26-2.12c-2.55,0.06-3.22,2.34-4.46,3.87
			c-11.08,13.66-27.12,13.52-37.51-0.68c-2.84-3.88-5.94-5.47-10.69-5.92c-12.15-1.14-24.37-1.44-36.48-3.02
			c-0.75-0.1-1.5-0.14-2.25-0.13c-3.06,0.07-6.56-0.01-7.16,3.87c-0.67,4.29,3.13,4.54,5.98,5.13c7,1.43,14.09,2.39,21.12,3.61
			c6.81,1.19,13.66,2.17,20.42,3.69c-7.27-0.2-14.25-2.44-21.45-3.11c-1.31-0.12-2.59-0.48-3.92-0.47
			c-1.32,0.01-2.89-0.01-3.48,1.32c-0.76,1.71,0.69,2.81,1.86,3.69c7.38,5.49,15.78,7.68,25.46,7.58c-2.7,1.14-5.6,0.01-7.37,2.23
			c-0.37,1.25-0.63,2.54-1.12,3.74c-1.3,3.18-1.15,4.61,3.07,5.49c8.13,1.69,12.75,7.56,13.83,15.71c0.38,2.85,1.26,4.11,3.95,5.08
			c8.79,3.14,12.07,8.73,11.14,18.11c7.97,0.56,15.16,4.07,22.74,6.1c2.76,0.74,4.11,3.11,5.34,5.48c1.23,2.36,2.71,4.52,5.21,5.73
			c1.38,0.67,2.94,1.28,4.24,0.18c1.63-1.38,0.23-2.79-0.52-3.95c-3.26-5.08-5.72-10.53-7.7-16.23c2.76,4.69,4.53,9.94,7.86,14.3
			c2.08,2.73,3.53,6.75,8.26,4.69c3.53-1.54,5.6-6.83,4.62-11.14c-0.85-3.74-3.49-6.61-4.86-10.06c0.4-0.33,0.6-0.17,0.94,0.18
			c1.57,1.63,2.11,5.2,5.25,4.01c2.82-1.07,2.72-4.2,2.81-6.85c0.12-3.47-1.12-6.61-2.35-9.77
			C693.28,452.84,685.79,436.43,680.2,419.29z"/>
		<path class="st31" d="M502.38,737.34c3.94-1.59,2.52-4.5,1.57-7.08c-5.22-14.1-10.59-28.15-16.02-42.17
			c-4.75-12.27-4.5-25.48-7.69-39.03c9.64,9.09,19.96,14.96,32.6,15.93c2.58,0.2,3.29,2.02,2.28,4.01
			c-6.06,11.96-1.78,23.55,1.17,35.15c3.2,12.57,5.89,25.27,9.21,37.8c0.77,2.91,1.03,6.65,5.55,6.58c3.46-2.31,1.66-5.43,1.01-8.13
			c-4.34-17.97-8.26-36.05-12.81-51.73c4.68,12.71,9.31,27.75,16.59,41.77c1.15,0.56,2.28,0.55,3.4-0.08
			c2.41-3.15,0.59-6.13-0.52-9.02c-5.36-13.83-10.83-27.62-15.93-41.55c-2.94-8.02-1.8-11.09,5.11-15.96
			c0.95-0.67,1.69-1.49,1.42-2.81c-1.27-2.17-3.26-1.3-5.06-1.17c-29.02,2.03-51.39-17.08-53.97-46.13
			c-0.15-1.64,0.25-4.12-1.89-4.06c-2.69,0.07-1.91,2.78-1.84,4.49c0.33,9.02,3.38,17.23,8.17,25.54
			c-39.48,7.47-78.3,8.5-116.93-2.38c-0.22-2.2,1.71-2.35,2.64-3.34c1.02-1.08,2.62-2.09,1.21-3.72c-1.48-1.7-2.69-0.05-3.8,0.8
			c-6.99,5.36-14.72,8.91-23.55,9.99c-15.56,1.9-28.9-2.68-40.19-13.46c-0.41-0.39-0.75-0.86-1.2-1.19c-1.21-0.9-2.13-3.46-3.99-1.7
			c-2.03,1.93,0.28,3.35,1.46,4.61c4.01,4.3,8.69,7.73,13.93,10.4c1.49,0.76,2.98,1.5,4.93,2.48c-2.83,2.71-5.54,4.86-8.6,6.62
			c-1.59,0.92-3.49,1.75-2.87,4.22c5.45,0.84,8.75-3.1,11.89-6.2c3.85-3.8,7.34-3.27,11.93-1.21
			c-10.69,7.95-20.99,15.71-31.41,23.31c-2.84,2.07-4.7,4.39-5.66,7.92c-4.28,15.7-8.87,31.32-13.33,46.98
			c-0.6,2.09-1.89,4.27,0.37,6.2c3.95,0.08,4.2-3.21,4.95-5.74c4.03-13.69,8.09-27.37,11.73-41.16c1.53-5.82,4.47-10.21,9.64-13.16
			c7.45-5.41,14.87-10.89,22.11-16.57c4.97-3.9,10-7.21,16.62-7.38c2.21-0.06,4.46-0.66,6.69-1.56c-0.31,1.2-0.99,2.06-1.69,2.71
			c-13.2,12.23-10.77,28.14-10.34,43.58c0.03,1.17,0.51,2.18,1.26,3.07c0.36,4.34,0.82,8.68,0.19,13.04
			c1.32,1.84-1.09,5.11,2.36,6.13c2.74-1.28,1.97-3.77,1.93-5.91c-0.28-12.76-0.54-25.52-1.04-38.27c-0.13-3.22,0.84-5.66,2.63-8.25
			c4.45-6.46,9.84-12.31,13.21-19.46c0.73-1.56,1.33-1.42,2.42-1.08c37.47,11.76,75.5,10.61,113.74,5.02c6.56-0.15,5.71,5,6.43,9.02
			c1.39,22.85,9.42,43.87,17.88,64.77"/>
		<path class="st30" d="M529.33,661.02c-0.27,0.94-0.73,1.71-1.7,2.07c-6.89,2.51-9.5,7.78-6.9,14.8
			c5.65,15.23,11.5,30.39,17.24,45.59c0.77,2.05,2.12,4.05,1.07,6.42c-1.35,4.17,1.26,7.47,2.52,11.05
			c0.67,1.91,1.59,3.75,2.32,5.65c1.09,2.16,1.83,4.44,2.41,6.79c0.56,1.51,1.34,2.93,1.81,4.48c1.94,3.01,1.43,7.39,5.22,9.38
			c7.86,0.57,15.71,1.13,23.53-0.33c2.17-1.64,0.28-2.69-0.56-3.89c-1.76-1.35-2.22-3.4-2.79-5.37
			c-6.16-21.21-11.93-42.54-17.98-63.78c-1.02-3.58-1.04-6.94,0.27-10.41c1.32-3.5,2.23-7.15,3.12-10.78
			c0.64-2.58,0.44-4.9-2.64-5.86c-6.53-0.2-12.44-2.02-17.24-6.68c-1.4-0.89-2.86-1.01-4.37-0.29
			C532.88,660.23,531.11,660.62,529.33,661.02z"/>
		<path class="st32" d="M303.13,431.66c-11.4-1.44-22.75-0.15-33.51,3.96c-21.79,8.32-38.12,22.26-44.62,45.64
			c-0.3,1.08-0.81,2.25-0.65,3.29c1.46,9.19-3.5,15.1-9.01,21.86c-16.21,19.86-19.46,42.53-9.07,66.03
			c10.46,23.67,29.48,36.25,55.31,38.41c0.93,0.08,1.88,0.09,2.82,0.04c1.2-0.06,2.35-0.45,2.38-1.83c0.03-1.33-1.04-1.85-2.25-1.97
			c-3.36-0.33-6.78-0.36-10.08-0.98c-30.67-5.79-51.37-32.04-49.77-62.99c1.55-30,25.7-54.31,56.35-56.81
			c2.02-0.16,5.77,1.04,5.58-1.89c-0.21-3.25-3.97-1.69-6.16-1.66c-5.87,0.08-11.52,1.56-17.05,3.46
			c-5.31,1.82-10.19,4.55-15.51,7.93c-0.88-9.63,1.68-17.65,6.05-25.19c13.2-22.8,42.64-36.96,69.23-33.57
			c2.74,0.35,3.83,1.78,4.9,3.88"/>
		<path class="st33" d="M569.71,728.63c-3.49-4.06-3.5-9.33-4.86-14.11c-2.69-9.48-5.71-18.88-7.35-28.63
			c0.35-1.25,0.75-2.5,1.05-3.76c1.9-7.95,4.22-14.8,14.25-16.62c7.14-1.3,11.69-7.77,16.07-13.48c4.54-4.03,5.64-9.48,5.95-15.12
			c0.13-2.35-0.05-5.02-3.52-5.19c-1.71,1.11-1.34,2.9-1.56,4.55c-2.09,16.05-12.36,26.36-28.46,28.66c-1.8,0.26-3.86-0.1-5.02,1.88
			c1.84,1.9,2.38,3.91,1.12,6.46c-5.12,10.37-4.16,20.53-0.6,31.43c5.83,17.83,10.26,36.12,15.37,54.18c0.57,2,0.28,4.75,3.33,5.26
			c3.28-1.49,2.12-3.67,1.4-5.74"/>
		<path class="st33" d="M573.09,748.33c-1.02-5.11-2.71-10.08-4.3-15.79"/>
		<path class="st34" d="M617.03,438.83c2.63-0.09,5.26-0.11,7.88-0.3c1.64-0.12,3.93-0.12,3.75-2.38c-0.19-2.46-2.46-1.63-4.05-1.54
			c-11.25,0.65-18.95-1.83-28.21-9.77c5.35,0.82,9.39,1.41,13.41,2.05c4.08,0.65,8.14,1.56,12.24,1.93c2.82,0.25,7.37,3.2,8.08-0.79
			c0.53-2.98-4.75-2.29-7.48-2.78c-13.3-2.39-26.65-4.56-39.98-6.81c-1.61-0.27-3.68-0.01-3.44-2.59c0.24-2.57,1.77-3.29,4.29-3.08
			c14.98,1.24,29.96,2.39,44.95,3.5c1.66,0.12,2.59,0.76,3.55,2.18c13.37,19.79,32.58,19.21,44.93-1.3
			c0.38-2.59,0.78-5.17,1.12-7.76c0.16-1.23-0.24-2.4-1.54-2.59c-1.31-0.19-1.94,0.73-2.08,2.04c-0.13,1.3-0.35,2.6-0.63,3.88
			c-2.17,9.86-10.7,16.33-20.94,15.94c-9.4-0.36-17.28-7.5-18.91-17.02c-0.29-1.7,0.52-4.44-1.93-4.68
			c-2.88-0.29-1.87,2.44-2.22,4.13c-0.55,2.7-2.75,1.31-4.12,1.22c-14.04-1-28.08-1.99-42.08-3.32c-4.3-0.41-6.94,0.78-7.97,4.99
			c-1.07,4.33,0.3,7.21,4.81,8.6c6.81,2.1,13.24,4.92,18.88,9.53C604.38,436.27,610.85,437.31,617.03,438.83z"/>
		<path class="st35" d="M680.2,419.29c-2.56,2.19-0.28,4.25,0.42,6.07c6.14,15.74,12.47,31.41,18.73,47.11
			c1.78,4.47,2.44,8.9-0.55,13.38c-2.29-1.43-2.88-3.73-4.21-5.46c-0.89-1.16-1.66-2.99-3.45-1.7c-1.66,1.2-0.48,2.66,0.32,3.94
			c1.29,2.07,2.53,4.18,3.87,6.22c1.3,1.98,1.83,4.19,1.58,6.44c-0.36,3.31-1.7,6.64-4.96,7.63c-3.21,0.97-4.07-2.69-5.46-4.65
			c-3.27-4.62-5.41-9.86-7.51-15.1c-0.53-1.32-1.09-3.25-3.09-2.34c-1.91,0.87-0.92,2.48-0.38,3.89c2.55,6.69,5.59,13.12,10.2,19.35
			c-5-0.16-7.28-3.15-8.76-6.8c-1.4-3.46-3.73-5.25-7.32-6.18c-5.81-1.51-11.52-3.42-17.25-5.26c-1.83-0.59-3.57-1.56-4.48,1.13
			c0.32,2.23,2.29,2.15,3.8,2.64c4.46,1.44,8.87,3.07,13.41,4.19c4.4,1.09,7.51,2.97,9.63,7.4c2.97,6.21,9.35,8.5,15.64,6.76
			c6.45-1.78,10.28-6.83,10.39-13.66c0.03-1.64-0.63-3.33,0.5-4.9c4.83-6.76,3.71-13.57,0.71-20.76
			c-6.04-14.52-11.66-29.22-17.46-43.84C683.64,422.52,682.95,420.09,680.2,419.29z"/>
		<path class="st36" d="M319.33,765.36c-14.61,0.14-29.22,0.36-43.84,0.39c-31.13,0.06-62.26,0.02-93.39,0.01
			c-2.06,0-4.12-0.12-6.17-0.19c-2.31,1.58-2.18,2.94,0.51,3.75c1.04,0.31,2.24,0.09,3.37,0.09c65.22,0,130.44,0.02,195.66-0.07
			c1.98,0,6.86,1.84,4.05-3.79C359.46,765.37,339.4,765.65,319.33,765.36z"/>
		<path class="st36" d="M557.48,765.36c-14.61,0.14-29.22,0.36-43.84,0.39c-31.13,0.06-62.26,0.02-93.39,0.01
			c-2.06,0-4.12-0.12-6.17-0.19c-2.31,1.58-2.18,2.94,0.51,3.75c1.04,0.31,2.24,0.09,3.37,0.09c65.22,0,130.44,0.02,195.66-0.07
			c1.98,0,6.86,1.84,4.05-3.79C597.61,765.37,577.55,765.65,557.48,765.36z"/>
		<path class="st37" d="M389.03,416.11c-19.76-5.79-33.57,0.38-41.34,18.83c-1.04,2.46-2.66,2.73-4.55,3.33
			c-10.07,3.23-16.55,9.97-19.15,20.19c-0.7,2.76-1.83,5.86,0.71,8.49c2.76,0.26,2.16-1.79,2.34-3.36
			c1.51-12.86,9.21-20.78,22.04-22.52c2.47-0.33,5.08-0.07,2.67-3.78c-1.12-1.72,0.25-3.22,0.96-4.68
			c8.29-17.2,30.69-20.16,44.09-5.48c-4.85,1.62-9.6,3.16-13.5,6.4c-7.02,5.84-11.08,13.14-11.43,22.35
			c-0.05,1.24-0.41,2.93,1.43,3.17c2.24,0.28,2.17-1.52,2.24-3.03c0.88-19.36,23.05-32.22,40.73-21.21c1.28,0.8,2.83,2,3.93,0.33
			c1.38-2.11-0.81-2.89-2.15-3.76c-1.1-0.71-2.29-1.65-3.5-1.74C404.02,428.88,397.04,421.54,389.03,416.11z"/>
		<path class="st10" d="M576.34,757.21c-0.81,2.39,1.95,4.98-0.86,6.93c0.63,0.42,1.26,0.84,1.88,1.25"/>
		<path class="st14" d="M246.69,702.82c2.17-0.98,2-2.91,1.99-4.81c-0.02-4.32,0.45-8.69-0.08-12.95
			c-1.21-9.84,2.37-18.37,6.39-26.91c1.1-2.33,2.04-3.02,4.62-1.94c4.7,1.97,9.72,2.82,14.84,2.93c1.87,0.04,3.92,0.35,4.23-2.39
			c-1.34-1.9-3.42-1.03-5.17-1.41c-5.64-1.24-11.92-0.37-16.24-5.85c-1.21-1.54-4.25-0.31-6.46-1.91
			c-11.23-8.16-18.19-18.77-20.05-32.6c-0.2-1.49-0.36-2.99-0.54-4.48c-0.17-1.45,0-3.5-2.1-3.22c-1.85,0.24-1.6,2.2-1.62,3.71
			c-0.04,3.8,0.72,7.48,1.7,11.1c3.34,12.3,10.38,22.05,21.09,28.88c3.16,2.02,3.68,3.79,1.8,6.65
			c-8.57,13.06-6.13,27.77-6.36,42.08C244.71,701.26,245.46,702.15,246.69,702.82z"/>
		<path class="st14" d="M516.98,449.44c-8.24-3.44-16.77-3.7-25.46-2.38c-1.98,0.3-3.9,0.96-5.9-0.56
			c-10.97-8.4-22.16-7.66-33.46-0.43c-1.3-2.98-2.57-5.88-3.83-8.78c-3.91-3.3-7.83-6.54-13.55-5.02c-2.66,0.71-4.77,2.17-6.34,4.38
			c-0.54,0.77-0.75,0.63-0.03,1.46c0.75,0.87,1.82,1.95,2.48,1.22c3.37-3.72,7.16-4.73,11.49-1.84s5.56,7.32,5.67,12.23
			c0.03,1.57-1.36,3.6,0.77,4.54c2.59,1.15,2.94-1.66,4.02-2.92c7.04-8.3,20.24-9.6,29.54-2.35c2.84,2.21,5.21,2.79,8.61,2.08
			c6.48-1.35,13.08-1.52,19.56,0.19c5.62,1.48,10.21,4.59,13.71,9.3c0.88,1.19,1.65,3.66,3.76,1.92c1.85-1.52,0.11-3.06-0.81-4.37
			C524.57,454.31,521.01,451.59,516.98,449.44z"/>
		<path class="st38" d="M517.73,454.58c-4.85,4.29-8.05,9.53-9.11,15.98c0.42,1.47-0.22,3.86,2.35,3.64
			c2.03-0.17,1.57-2.24,1.85-3.62c1.92-9.56,6.44-13.99,16.35-15.91c1.45-0.28,3.42-0.03,3.13-2.18c-0.27-2.01-2.25-1.8-3.64-1.49
			c-5.29,1.15-4.4-1.68-3.43-4.91c3.46-11.51,13.24-19.74,25.17-21.1c1.64-0.19,3.42,0.18,4.86-1.01c0.26-4.27-2.89-3.19-5.03-2.92
			c-12.92,1.6-21.84,8.81-27.71,20.16c-0.77,3.41-1.69,6.79-2.25,10.24C519.99,453.13,519.35,454.16,517.73,454.58z"/>
		<path class="st39" d="M322.13,613.15c1.49-0.51,4.61,1.1,4.61-2.04c0-2.66-2.84-1.71-4.54-1.8c-24.56-1.2-44.11-19.89-46.12-44.12
			c-0.14-1.7,0.65-4.45-2.08-4.35c-2.79,0.1-1.8,2.76-1.68,4.47C274.03,591.26,296,612.44,322.13,613.15z"/>
		<path class="st40" d="M525.13,624.23c14.66-0.57,28.81-7.84,39.06-22.35c0.95-1.34,3.22-3.04,0.79-4.69
			c-2.07-1.4-2.8,1.03-3.74,2.27c-16.12,21.16-39.09,26.69-62.92,15.12c-1.49-0.72-3.29-2.38-4.41-0.43
			c-1.38,2.4,1.33,3.08,2.82,3.9C504.61,622.42,513.12,624.4,525.13,624.23z"/>
		<path class="st17" d="M600.49,535.21c-0.12-20.79-12.69-39.88-31.3-47.39c-1.53-0.62-3.69-2.56-4.89-0.17
			c-1.34,2.65,1.6,2.81,3.11,3.53c23.63,11.29,33.68,33.01,27.12,58.67c-0.38,1.49-1.93,3.47,0.73,4.12
			c2.39,0.58,2.4-1.76,2.92-3.27C599.91,545.69,600.55,540.5,600.49,535.21z"/>
		<path class="st15" d="M591.15,629.07c6.05-4.48,10.8-10.11,14.48-16.65c-0.12-1.79,2.85-4.13-0.35-5.24
			c-2.52-0.88-2.66,2.07-3.42,3.58c-8.34,16.53-26.3,24.57-44.07,19.67c-0.18-0.05-0.36-0.1-0.54-0.15
			c-1.85-0.51-4.48-2.36-5.17,0.55c-0.62,2.6,2.61,2.63,4.43,3.16c8.94,2.61,17.83,2.33,26.51-1.1
			C585.8,631.8,588.45,630.36,591.15,629.07z"/>
		<path class="st41" d="M606.18,587.83c15.66-0.52,30.01-14.53,30.75-29.93c0.08-1.61,0.57-3.8-1.92-3.84
			c-2.03-0.03-1.76,1.97-1.98,3.42c-2.33,15.49-12.15,25.05-27.31,26.7c-1.63,0.18-4.51-0.85-4.13,2.14
			C601.92,588.9,604.62,587.57,606.18,587.83z"/>
		<path class="st42" d="M611.39,377.53c-11.38-0.9-21.23,2-28.26,11.61c-3.15,4.3-5.39,9-5.36,14.51c3.31,0.42,3.77-1.76,4.53-4.32
			c4.03-13.5,17.79-20.92,31.34-17.32c1.36,0.36,3.46,2.96,4.61-0.16c1.24-3.36-2.15-2.65-3.64-3.49
			C613.69,377.83,612.48,377.79,611.39,377.53z"/>
		<path class="st43" d="M687.05,392.82c0.64,0.94,1.66,0.62,2.54,0.79c6.66,1.31,11,6.01,11.25,12.16
			c0.27,6.49-3.85,11.73-10.48,13.48c-1.58,0.42-4.57-0.56-4.07,2.38c0.43,2.53,3.09,1.5,4.77,1.27
			c8.45-1.18,14.65-9.79,13.48-18.49c-1.25-9.21-8.4-15.05-17.33-14.13C686.5,391.08,686.62,391.94,687.05,392.82z"/>
		<path class="st44" d="M625.11,526.58c9.8-0.25,20.09-10.69,20.02-20.29c-0.01-1.37-0.03-2.93-1.58-3.2
			c-2.09-0.37-2.3,1.4-2.49,2.93c-1.17,9.68-6.67,15.1-16.24,16.53c-1.43,0.21-3.38,0.04-3.2,2.21
			C621.79,526.82,623.6,526.61,625.11,526.58z"/>
		<path class="st45" d="M534.65,659.83c1.38,1.31,2.89,0.64,4.37,0.29c5.6-2.96,11.39-5.63,15.83-10.38c2.19-2.34,3.97-4.92,5.2-7.9
			c0.44-1.06,0.19-1.79-0.56-2.46c-0.86-0.77-1.94-0.68-2.38,0.25c-4.4,9.31-12.82,13.66-21.52,17.71
			C534.61,657.81,534.74,658.92,534.65,659.83z"/>
		<path class="st30" d="M319.33,765.36c20.07,0.56,40.13,0.57,60.2,0.18c-12.27-1.31-24.57-0.48-36.84-0.44
			c-5.03,0.02-7.21-1.19-6.6-6.49c0.36-3.12-0.07-6.34-0.14-9.51c-4.87,0.1-4.64,3.74-4.31,6.85c0.3,2.9,1.44,5.71,2.23,8.67
			C329.01,764.88,324.17,765.12,319.33,765.36z"/>
		<path class="st46" d="M639.94,366.99c-1.98-0.13-3.67-0.23-3.77,1.89c-0.09,1.76,1.38,1.92,2.75,2.04
			c8.56,0.74,14.18,5.28,16.99,13.32c0.66,1.88,1.89,3.15,3.67,2.44c1.47-0.59,0.49-2.34,0.17-3.52
			C657.39,374.47,648.24,367.19,639.94,366.99z"/>
		<path class="st47" d="M687.05,392.82c0.05-0.85,0.1-1.7,0.16-2.55c-2.96-0.26-1.84-2.81-2.28-4.34
			c-2.29-7.82-9.57-13.94-17.01-14.04c-1.45-0.02-3.31-0.44-3.4,1.75c-0.07,1.68,1.41,1.79,2.79,1.99
			c8.2,1.18,13.39,5.78,14.17,14.1C681.91,394.38,685.32,391.64,687.05,392.82z"/>
		<path class="st30" d="M334.97,716.38c-3.22-0.5-4.25,1.99-4.09,4.08c0.42,5.49,1.47,10.92,2.27,16.38c0.6-0.01,1.2-0.02,1.81-0.03
			c0-6.49,0-12.99,0-19.48C335.04,717.01,335.04,716.7,334.97,716.38z"/>
		<path class="st30" d="M335.88,744.59c-0.18-0.02-0.37-0.07-0.55-0.06c-1.87,0.15-3.03-3.42-5.29-1.02
			c-0.55,0.58-0.58,1.45,0.12,1.93c1.72,1.18,3.25,3.36,5.76,1.44C335.91,746.12,335.89,745.36,335.88,744.59z"/>
		<path class="st30" d="M335.09,712.98c-2.43-1.41-1.25-4.21-2.35-6.13c-0.04,0.56,0.15,1.36-0.15,1.65
			c-4.23,4.06-0.85,5.38,2.39,6.78C335.01,714.51,335.05,713.75,335.09,712.98z"/>
		<path class="st30" d="M297.64,668.55c-4.62,7.03-0.96,13.65,1.22,20.19c7.54,22.63,15.02,45.26,18.37,69
			c0.08,0.53,0.45,1.02,0.68,1.53c4.19-3.26,3.77-6.6,1.61-11.26c-1.99-4.29-4.12-9.05-2.1-14.5c0.83-2.25,3.17-6.75-2.58-7.62
			c-0.69-0.1-1.06-1.15-0.64-1.88c2.02-3.52-0.6-6.47-1.35-9.53c-0.76-3.1,0.2-5.12,2.8-5.65c2.96-0.6,4.56,1.76,4.44,4.46
			c-0.2,4.62,0.57,8.78,3.01,12.81c0.85,1.4,0.88,3.86,0.28,5.47c-2.46,6.6-0.4,13.31-0.89,19.94c-0.16,2.15,0.25,4.2,3.21,4.14
			c-1.45-9.03-1.61-17.99-0.06-26.98c0.33-1.93,0.92-3.57,2.36-4.93c0.85-0.8,1.64-2.58,0.81-2.92c-7.79-3.17-1.97-9.87-3.8-14.69
			c-2.27-6,2.63-9.63,7.53-12.33c-0.09-8.64-0.05-17.27-0.34-25.9c-0.11-3.37,0.63-6.11,2.7-8.82c4.08-5.33,7.84-10.9,12.29-17.15
			c-6.28,1.77-11.66,3.36-17.31,3.33c-1.45-0.01-2.47,0.83-3.5,1.61C316.8,654.08,307.22,661.32,297.64,668.55z"/>
		<path class="st48" d="M661.13,439.89c-3.22,0.35-5.32,1.99-5.29,5.36c0.03,3.01,1.81,4.97,4.89,5.13c3.33,0.17,5.5-1.69,5.63-4.95
			C666.47,442.18,664.44,440.3,661.13,439.89z"/>
		<path class="st30" d="M513.24,763.79c0.51,1.87,2,1.92,3.52,1.9c7.02-0.11,14.03-0.22,21.05-0.33
			c-1.34-6.08-2.16-12.36-6.51-17.32c-2.58,0.38-3.07-1.32-3.55-3.32c-4.79-19.9-9.7-39.77-14.42-59.69
			c-1.34-5.67,2.02-10.57,3.5-15.71c1.11-3.86,1.36-5.54-3.58-5.85c-13.84-0.86-24.84-7.75-35.07-18.84
			c3.57,18.03,3.87,35.11,10.96,50.98c5.12,11.47,9.11,23.45,13.53,35.23c0.68,1.8,2.19,3.7,0.36,5.72
			C506.12,745.76,509.29,754.92,513.24,763.79z"/>
		<g>
			<g>
				<path class="st49" d="M405.44,401.96l129.55-16.72c0,0-36,29.08-61.93,32.89c-25.93,3.81-66.73,6.75-66.73,6.75L405.44,401.96z"
					/>
			</g>
			<path class="st50" d="M444.44,397.83l132.29-20.04c0,0-37.31,30.66-63.79,35.15s-68.1,8.41-68.1,8.41L444.44,397.83z"/>
		</g>
		<path class="st3" d="M413.95,301.94c-2.3,2.92-0.46,5.09,1.19,7.44c13.27,18.91,26.5,37.86,39.73,56.81
			c0.75,1.07,1.32,2.26,1.98,3.39c9.24,14.22,14.02,29.58,12.61,46.75c-0.79,9.69-2.91,11.84-12.53,10.78
			c-9.29-1.02-15.11-6.71-19.45-14.41c-2.41-4.95-2.02-10.32-2.31-15.59c2.18-6.41,0.5-12.75-0.13-19.5
			c-1.31,1.28-0.78,2.79-1.63,3.75c-0.89,1.07-1.95,0.68-3.01,0.37c-3.89-1.88-5.67-5.86-8.59-8.72
			c-12.55-12.33-24.93-24.84-37.39-37.26c-2.13-2.12-4.15-4.3-5.53-7c-1.64-2.42-3.65-4.46-6.16-6c-0.13-1.92,1.09-3.13,2.39-4.2
			c9.79-8.08,20.81-13.84,33.11-17.01C410.02,301.07,412.18,299.99,413.95,301.94z"/>
	</g>
</g>
</svg>
