<?xml version="1.0" encoding="utf-8"?>
<!-- Generator: Adobe Illustrator 24.3.0, SVG Export Plug-In . SVG Version: 6.00 Build 0)  -->
<svg version="1.1" id="Layer_1" xmlns="http://www.w3.org/2000/svg" xmlns:xlink="http://www.w3.org/1999/xlink" x="0px" y="0px"
	 viewBox="0 0 444 599" style="enable-background:new 0 0 444 599;" xml:space="preserve">
<style type="text/css">
	.st0{fill:#D3C6BE;}
	.st1{fill:#DED9D5;}
	.st2{fill:#BDE454;}
	.st3{fill:#F0E6DD;}
	.st4{fill:#50A3C9;}
	.st5{fill:#C8BBB1;}
	.st6{fill:#F8BA6E;}
	.st7{fill:#A0591E;}
	.st8{fill:#B87A4A;}
	.st9{fill:#666640;}
	.st10{fill:#7E370F;}
	.st11{fill:#A7C832;}
	.st12{fill:#7F380F;}
	.st13{fill:#F6B56A;}
	.st14{fill:#53423C;}
	.st15{fill:#65663E;}
	.st16{fill:#574741;}
	.st17{fill:#EFA260;}
	.st18{fill:#53A5C7;}
	.st19{fill:#F3BB82;}
	.st20{fill:#52413B;}
	.st21{fill:#6A6A44;}
	.st22{fill:#A8C934;}
	.st23{fill:#55443E;}
	.st24{fill:#A7C932;}
	.st25{fill:#A15A1E;}
	.st26{fill:#A1591E;}
	.st27{fill:#603410;}
	.st28{fill:#5E3210;}
	.st29{fill:#FDFCFB;}
	.st30{fill:#E6EAE8;}
</style>
<path class="st0" d="M364.1,444.5c0-2.7,1.1-4.8,3.7-5.9c2.5-1.9,1.2-5,2.3-7.3c-0.8-2-1.4-3.3,1.9-3.9c8.1-1.5,11.2-5.8,10.4-15.9
	c-0.1-1.6-0.1-2.3,1.4-3.1c6-3.4,8.2-9.2,9-15.5c0.7-5,0.7-10.2-1.5-15.1c-0.7-1.5-0.3-2,1.2-2.6c2.7-1,4.8-2.7,4.8-6.1
	c0-3.8,0.4-7.8-4-9.6c-2.3-0.9-1.2-2.3-0.8-3.5c1.7-4.9,1.9-9.9,0.7-15c-1.9-7.9-7.5-11.3-14.8-12.7c-2.5-0.5-3.6-0.8-2.7-3.8
	c1.2-4.4-1.4-8.8-6.4-11.5c-2.9-1.6-5-3.1-5.6-7c-1.2-6.9-6.6-10.3-12.8-12.3c-9.1-3-18.4-3.5-27.4,0.8c-0.9,0.4-1.8,0.8-2.5-0.3
	c-2.5-3.5-5.7-5.6-10-5.9c-0.7-0.1-0.9-0.7-1.1-1.3c-3.9,0.4-6.8-1.4-10-3.3c-8.8-5.5-18.4-8.2-28.9-7c-2,0.4-2.9,2.1-4,3.5
	c-4.3,5.4-8.6,10.9-13.5,15.7c-1.5,1.5-3,2.3-5.1,1.7c-5.6,4.6-11.7,8.7-15.2,15.5c-1,1.9-2.3,3.7-4.9,4.7c-0.1-2.5,1.3-4.1,2.1-5.9
	c0.3-0.8,0.9-1.5,1.1-2.3c0.2-0.7,0.6-1.5,0-2.1c-0.8-0.7-1.6-0.1-2.3,0.5c-2.3,2.2-4.7,4.2-7.3,6.1c-1.1,0.8-2.6,2.5-3.8,1.3
	c-1.5-1.6,0.8-2.7,1.7-3.8c1.6-1.8,3.5-3.4,5.1-5.3c0.5-0.6,1.3-1.4,0.8-2.2c-0.7-1-1.8-0.4-2.6,0c-2.2,1.1-4,2.8-6.2,3.9
	c-1.7,0.8-4.1,2.9-5.2,1.3c-1.3-2,1.8-2.8,3.1-4c1.8-1.6,4-2.9,6-4.3c0.6-0.4,1.2-1.1,0.8-1.9c-0.5-1-1.4-0.9-2.2-0.5
	c-2.5,1.3-5.2,2.1-7.9,3c-0.9,0.3-2.2,0.7-2.6-0.4c-0.7-1.4,0.8-1.9,1.7-2.2c5.1-1.8,9.9-4.1,14.9-6.1c0.7-0.3,1.4-0.5,2-0.9
	c0.6-0.4,1.4-0.8,1.2-1.7c-0.2-1.1-1.2-1.1-2-1c-2.3,0.3-4.6,0.7-6.9,0.1c-0.9-0.2-2.3-0.4-2.1-1.6c0.1-1.3,1.5-0.9,2.4-0.9
	c2-0.1,4.4,1.4,5.9-1.1c-0.9-1.4-2.4-1.8-3.8-1.8c-5.1-0.2-10.2-0.7-15.1,1.5c-1.8,0.8-3.5,0.7-5.2-0.2c-5.5-2.8-11.5-3.8-17.6-4.4
	c-1.2-0.1-2.6,0.1-3.4-0.9c-4.7-5.4-11-6.1-17.5-6.6c-3.1,0.6-4.4-0.5-5.1-3.8c-1.5-7.6-6.8-12-13.7-14.7c-2.4,0.7-3.9-1.6-6-1.9
	c-3-0.5-2.8-2.7-3-4.9c-0.1-0.8-0.8-1.4-1.2-2.1c-1-1.8-2.8-1.7-4.5-1.7c-3.9,0.1-7.7-0.1-11.6-0.8c-1.2-0.2-2.4-0.4-3.5-0.9
	c-3.4-1.5-3.5-3.9-0.7-6.4c1.7-1.5,4.6-1.9,4.8-4.9c-2.6-2.7-5.8-4.5-9.4-5.2c-4.1-0.8-7.1-3.6-10.3-5.8c-2.4-1.7-5.2-0.9-7.8-0.8
	c-0.8,0-1.8,0.3-1.9,1.4c-0.2,1,0.6,1.6,1.3,2c2.9,1.8,5.7,3.8,8.1,6.2c4.3,4.1,6.2,9.2,6.7,15c1.4,18.3-7.5,30.6-22.6,39.4
	c-5.2,3-10.7,5.3-16.6,6.4c-2.2,0.4-3.4,1.5-3.7,3.8c0,2.1,0.1,4.2-0.1,6.2c-0.6,5.5,1.9,9.5,6.1,12.4c1.4,1,2,1.6,1.5,3.5
	c-0.8,2.6,0.4,4.8,2.4,6.5c1.4,1.1,1.8,2.2,0.9,4c-4.9,10.6-5.8,21.1,2.4,30.8c1,1.2,0.4,2.2,0,3.4c-1.3,3.4-1.7,6.7,1.6,9.3
	c1.7,1.3,0.7,2.4,0,3.7c-5,8.7-3.9,18.4,2.6,24.5c2,1.9,4.4,3.2,7.1,3.5c1.7,0.2,1.9,1,1.7,2.5c-0.9,7.7,2.2,12.4,9.6,14.4
	c1.5,0.4,3.1,1,4.6,1.1c2.7,0.2,3.7,1.1,3.7,4c0,3,3.8,5,8.6,5.2c0.9,0.8,2,1,3.1,0.9c3.6-0.5,5.9,1.4,7.8,4.2
	c1.9,3,4.6,5.4,7.1,7.8c5.5,5.3,12.2,5.5,19.1,4.4c0.2,0,0.5,0,0.7-0.1c4.4-2.2,7.1-1.5,9.7,3.3c2.5,4.5,8,5.2,12.8,4.3
	c5.1-0.9,9.8-1.2,14.5,1.4c1.9,1.1,4.3,1,6.4,0c2.2-1.1,4.2-0.6,6.3,0.3c4.6,2,9.3,3.6,14.4,3.6c5.2-0.1,9.9-2,14.4-4.6
	c1.7-1,3.2-1.4,5.1-0.5c3.1,1.5,6.5-0.3,9.6,0.6c3.2,2.2,6.5,4.3,10.2,5.6c6.2,2.2,12.3,0.5,18.3-1c0.4-0.1,0.7-0.2,1-0.4
	c5.1-2.6,10.3-3.3,15.7-1c1.5,0.6,3.3,0.7,4.5-0.4c1.3-1.1,2.2,0,3.3,0c1.1-1.5,2.4-1.8,4.1-1c10.8,5.1,21.3,4.3,31.2-2.3
	c1.5-1,2.9-1.1,4.5-0.4c1.7,0.8,3.5,1,5.4,0.7c1.1-0.2,2.1-0.5,3.2-0.8c0.8-0.3,1.8-0.7,2-1.5c0.8-4,3.6-4.4,7-4.6
	c1.7-0.1,3.3-1,4.7-2C362,444.3,363,444.1,364.1,444.5z"/>
<path class="st1" d="M113.5,550c-6.8-0.6-13.6,0.5-20.4,0.9c-7.1,0.4-14.3,1.3-21.4,2.1c-5.8,0.7-11.6,1.4-17.2,3.1
	c-1.3,0.4-3.3,0.6-3.3,2.4c0,1.6,1.9,1.6,3.1,2c6,2.2,12.3,2.7,18.6,3.3c14.7,1.5,29.5,2.6,44.3,3.7c5.3,0.4,10.7,0.5,16.1,0.6
	c10.4,0.2,20.7,0.7,31.1,1.1c23.6,0.9,47.1,0.6,70.7,0.6c25,0.1,50,0.3,75-0.2c15-0.3,30-0.9,44.9-1.4c12.6-0.5,25.3-1.1,37.9-2.2
	c13.2-1.2,26.4-1.9,39.3-5c1.8-0.4,4.7-0.4,4.7-2.6c0-2.1-2.8-2.5-4.6-2.9c-7.5-1.6-15-2.7-22.7-3.3c-12.3-1-24.7-2.1-37-2.8
	c-5.5-0.3-10.9-0.9-16.4-0.8c-6.6,0.1-13.1-0.9-19.7-0.9c-2.1,1.5,0,4.5-2.1,6c-5.1,0.9-10.2,0.3-15.3,0.3c-2.1,0-2.8-1-2.2-3.1
	c0.4-1.2,1.3-2.5,0.2-3.8c-1.3-1.2-2.9-1.2-4.5-1.2c-2.7-0.1-5.4-0.1-8,0c-15.2,0.5-30.4-1.1-45.6-0.8c-3.1,0.1-6.1,0-8.3,2.7
	c-1.1,1.3-2.9,1-4.5,1c-10.4,0-20.7,0-31.1,0c-1.8,0-3.7-0.2-5.3,0.9c0.1,2.6,2.2,2,3.6,2.1c6.3,0.2,12.7,0.1,19,0.1
	c5.5,0,11-0.1,16.6,0.1c-0.5,0.7-1.1,0.5-1.6,0.5c-13.9,0-27.8,0-41.7,0c-2,0-4.4,0.3-4.6-2.8c-0.1-2.9-1.9-3.7-4.4-3.8
	c-8.4-0.1-16.8-0.5-25.2,0.1c-6.2,0.5-12.4,0.4-18.6,0.5c-6.2,0.1-12.4,0.5-18.5,1.4c-0.7,0.4-1.1,1-1.2,1.7
	c-0.1,4.1-2.6,4.6-5.9,4.3c-2.3-0.2-4.6-0.2-6.9,0C117,554.4,114.6,553.4,113.5,550z"/>
<path class="st2" d="M248.4,297.6c1.6,1.6,2.9,1.2,4.5-0.3c5.9-5.8,11.1-12.1,16.1-18.7c0.4-0.6,1-1,1.5-1.5c1.1-0.8,2-1.8,2.8-2.9
	c10.8-15.6,20.3-32,27.5-49.6c3.8-8.8,6.9-17.8,8.4-27.3c0.8-8.4,2.5-16.6,2.7-25.1c0.4-17-1.5-33.6-8.6-49.3
	c-2.5-5.4-6.8-8-12.3-9.3c-6-1.5-12-1.6-18.1-1.7c-2.4,2.9-2.4,6.6-2.6,10.1c-0.6,11.1-0.2,22.2,1.8,33.2c0.2,1.4,0.3,2.9,1.5,4
	c2.6-1,1-3.2,1.4-4.7c0.2,0.5,0.1,1.6,0.9,1.6c1.6,0,1.6-1.5,2-2.9c-0.9,7.9-0.9,15.6-1.4,23.3c-1.1,14.4-4,28.5-8.4,42.3
	c-5.5,17-14.5,31.9-25.2,46c-3.2,4.2-6.4,8.3-9.8,12.3c-1.6,1.9-3,4-1.7,6.6C236.5,289,241.3,294.8,248.4,297.6z"/>
<path class="st3" d="M62.2,293.3c0.7-1.7,2.1-2.5,3.8-2.9c13.1-2.6,23.7-9.2,32.3-19.2c5-5.8,7.4-12.8,7.7-20.4
	c0.2-5,0.4-10-1.4-14.8c-2.4-6.1-7.1-10.1-12.4-13.5c-0.9-0.6-2.1-0.8-2.8-2.2c3.2-0.9,6.3-0.2,9.4-0.4c-0.6-8.1-4.4-14.8-9.1-21.1
	c-1.8-2.4-3.8-2.1-4.9,0.7c-1.1,2.8-1.8,6-1.2,8.9s0,5.8,1.1,8.6c0.5,1.3,0.3,2.7-1.7,2.8c-11.6,0.3-23.1,3.3-34.7,2.7
	c-7.6-0.4-15-0.5-22.4,0.9c-4,0.8-7.7,2.1-10.6,5.1c1.6,1.5,3.4,0.9,5.2,0.6c1.7-0.2,3.3-0.7,5.3,0.3c-2.6,2.2-5.7,2.1-8.4,2.3
	c-3.4,0.3-4.9,1.7-5,5c-0.1,3.2-2.1,6.3-0.2,9.6c0,0.1,0,0.3-0.1,0.3c-0.1,0.1-0.2,0-0.4,0.1c0.1,4,2.1,6.9,5.7,8.5
	c8.6,3.8,16.4,8.8,24.1,14.2c4.6,3.2,7.6,7.8,11.2,11.8c2.5,2.8,5,5.6,7.8,8.1C61.7,290.8,62.4,291.8,62.2,293.3z"/>
<path class="st2" d="M144.3,254.6c0.3,1.8,2.1,1.9,3.3,2.5c5.5,2.8,8.9,7.3,9.8,13.3c0.6,4,2.2,4.4,5.3,3.2
	c4.6-1.6,7.8-5.4,11.3-8.4c9.9-8.5,19-17.8,27.3-27.9c4.7-5.7,8.5-11.9,11.9-18.4c0.4-0.8,0.6-1.6,0.6-2.5c2.2-8,2.6-16.1,1.5-24.2
	c-0.6-4.7-2.8-8.8-4.7-13c-0.1-0.1-1.4-0.6,0-0.8c3.1-0.5,2.2-2.8,1.9-4.5c-1.2-6.2-1.7-12.5-1.8-17.3c-0.3,11.8,3.6,24.3,7,37
	c0.5,1.9,1,3.8,1.4,5.7c2.2,6.5,3.6,13.3,5.5,19.9c0.5,1.8,0.6,3.9,2.8,4.7c2.8-1.6,2.9-4.5,2.7-7.1c-0.3-4.5-0.9-9-2.2-13.4
	c-5.2-18.1-8.1-36.7-11.8-55.1c-1-4.8-0.7-9.7,0.1-14.6c0.2-1.3,0.9-2.6-0.3-3.8c-3.8,2.7-6.2,6.3-8,10.6
	c-5.8,14.2-9.1,29.3-14.6,43.6c-5.3,13.9-11.3,27.5-18.7,40.4C167.3,237.4,156.2,246.4,144.3,254.6z"/>
<path class="st4" d="M216,129.9c-2.3,8.7-1.3,17.3,0.4,26c3.6,18,7.4,36,11.7,53.9c1.1,4.6,2.5,9.6-1,14.1c-1.1,1.7-0.2,3.3,0.3,4.9
	c1.6,4.9,2.8,9.9,4.4,14.7c2,6.1,1.9,12.2,1.1,18.4c-0.8,6.4-2.4,12.7-3.9,19c-0.3,1.3-0.8,2.6-0.2,3.9c1.7,1.4,2.5,0.4,3.3-1.1
	c-1.9-2.9,0.5-4.6,2-6.4c5-6.1,9.9-12.4,14.5-18.8c16.4-22.7,25-48.3,28.2-75.9c0.2-1.9,0.1-3.9,0.2-5.9c-0.4-5.9-0.5-11.9-3-17.4
	c-3.1-14.6-4.2-29.3-1.8-44.1c0.2-1.1,0.3-2.2,0.5-3.2c-2.2,0.1-4.4,0.2-6.7,0.4c-4.1,4.3-4.3,9.9-4.7,15.4
	c-0.7,10.2,1.1,20.2,2.5,30.2c1.4,10.3,3.2,20.5,4.9,30.7c0.9,5.7,0.9,5.6-4.7,6.3c-8.2,1-16.5,2.1-24.7,3c-2.8,0.3-3.9-0.6-4.6-3.2
	c-3.8-14-7.3-28.1-10.7-42.2c-1.6-6.6-2.3-13.4-1.1-20.3c0.4-2.2,0.8-4.6-0.9-6.7C220,127,218,128.4,216,129.9z"/>
<path class="st2" d="M222,125.5c0.2,5.9-0.8,11.6-0.5,17.5c0.7,10.5,4.3,20.2,6.6,30.3c1.8,8,4.1,15.8,6.1,23.7
	c0.5,2,1.2,2.5,3.2,2.3c9.9-1.3,19.8-2.5,29.7-3.6c2.8-0.3,3.9-1,3.3-4.2c-3.2-17.1-6-34.3-7.9-51.6c-1-9.4-0.5-18.8,3.5-27.6
	c-1.2,0-2.5,0-3.7,0c-4.1,7.2-10,12.1-17.9,14.8c-7.8,2.7-15,2.7-21.8-2.4C222.4,124.9,222.2,125.2,222,125.5z"/>
<path class="st5" d="M151.7,445.2c-0.8-0.9-1.6-0.2-2.4-0.1c-9.8,1.6-16.6-3.5-21.5-10.8c-3.4-5-7.2-7-12.9-6.1
	c1.4,3.5,0.9,7.2,1.4,10.8c1.4,10.6,2.4,21.4,3.6,32c0.7,6,1.8,12,1.8,18.1c0.8,2.9-0.2,5.9,0.6,8.8c0,4.3,0,8.7,0,13
	c-0.9,2.4,0.2,5-0.6,7.4c-0.3,7.9-2.2,15.6-3.4,23.4c-0.2,1.4-0.3,2.9-0.5,4.3c0.4,0.7,1.1,1,1.9,1c4.7,0,9.4,0.8,14.2,0.8
	c1.2-0.9,1.2-2.3,1.5-3.6c3-11.8,5.1-23.9,7.6-35.8c1.3-6.4,1.2-12.9-0.2-19.3c-0.9-4.2-0.7-8.2,0.4-12.3c2.6-9.3,4.9-18.7,8.4-27.7
	C152.1,448,152.8,446.6,151.7,445.2z"/>
<path class="st5" d="M335.4,554.9c2.1-2.2,0.4-4.9,1-7.3c1.2-11.4,4.1-22.4,7.2-33.4c1.7-6,3.3-12.1,4.6-18.3
	c0.7-3.4,0.3-6.3-1.4-9.1c-2.6-4.3-4.1-9-4.8-14c-0.5-3.2-0.5-6.3,0-9.5c0.2-1.6,0.5-3.2,1.6-4.5c1.2-1.8,1.9-3.6,0.9-5.7
	c-1.5-0.1-3.2,0.2-4.3-0.5c-3-2-5.1-0.9-7.8,0.8c-9.5,6.2-19.5,6.2-29.5,1.3c-2.4-1.2-4.3-1.6-4.1,2.1c-1.4,4.5,0.5,8.7,1.9,12.7
	c3.5,10,10,17.8,19.7,22.5c8.9,4.4,10.2,11.2,7.9,18.3c-3.2,10-6.3,20-10.1,29.8c-0.9,2.3-2.2,4.8,0,7.1c3.6,0.3,7.2-0.1,10.9,0.1
	c4.6,0.3,4.9,0.6,5.5,5.2C334.7,553.4,334.8,554.2,335.4,554.9z"/>
<path class="st6" d="M191.2,70.5c2.5,4.3,2.9,9.2,4.4,13.7c0.9,2.7,1.9,5.4,2.8,8.1c3.1,2.2,6,1.4,8.8-0.5
	c5.4-3.7,11.2-5.6,17.8-5.8c3.5-0.1,6.9-1,10.1-2.7c7.4-4.1,11.1-10,9.8-18.6c-0.9-5.8-0.9-11.6,0.5-17.4c0.8-3.3,0.2-6.5-1.3-9.6
	c-1.2-2-2.5-0.9-3.5,0.1c-2.2,2.1-4.5,4.1-7,5.9c-10.3,6.7-21.4,10.4-33.8,9.6c-2.1-0.1-4.1-0.7-6-1.3c-2-0.6-3.3-0.2-2.7,2.2
	c0.9,3.6,0.7,7-0.7,10.4C189.5,66.6,190.6,68.6,191.2,70.5z"/>
<path class="st7" d="M243.3,37.4c1.7,4.6,1.5,9.2,0.2,13.9c-1,3.6-0.6,7.5,0,11.3c2.1,12.7-4.8,21.7-17.8,22.3
	c-7.1,0.4-13.7,2.1-19.4,6.4c-2.5,1.9-5.2,1.1-7.9,1c3.9,10.8,8.9,20.9,18.4,27.9c3.1,0.6,5.8,2.4,9.1,2.5
	c6.1,0.1,11.4-1.9,15.4-6.3c6.3-6.9,11.1-14.8,12.8-24.3c1-5.8-0.3-11.4-1.6-17c-2.7-3.6-2-8-3-12c-1.9-2.9-1.6-6.2-1.3-9.5
	c0.3-2.8,0.5-5.6,0.9-8.3c0.4-2.5-0.4-4.8-1.9-6.8C246.3,37.4,245.2,36.2,243.3,37.4z"/>
<path class="st7" d="M191.2,70.5c-1.2-6,3.8-11.8,0-18c16.1,4.7,30.2,0.6,43.2-8.4c2.4-2.5,4.4-5.1,3.9-8.9c-0.2-1.4,1-2.1,2.1-2.7
	c1.7-0.8,3.4-1.8,5.2-2.7c4.8-2.4,5.8-4.8,4.3-10.1c-13.2-5.8-26.5-6.2-40.2-1.1c1.9,1.3,4,0.7,6.2,1.6c-7.5,1.6-14.9,2-21.7,4.8
	c-2.9,5.1-2.2,8,2.7,11c5.7,3.5,12,2.6,18.2,2.1c6-0.4,11.8-1.6,17.6-3.3c0.5-0.2,1.1-0.5,1.9,0.3c-2.1,2.6-4.9,4.3-8,5.4
	c-12,4.2-24.4,5.8-37,3.7c-4.3-0.7-7.9-2.6-9.5-7c-0.3-0.8-0.6-1.9-1.9-1.8C176.6,49.2,178.7,61.8,191.2,70.5z"/>
<path class="st4" d="M299.8,224.6c-7.3,17.8-17,34.2-27.9,50c-0.5,0.8-1.4,1.4-1.4,2.5c12.4-0.7,23.5,2.5,33.3,10.1
	c2.1,1.6,4.1,0.4,6-0.5c3.7-20.6,1.1-41.1-1-61.6C305.9,224.5,302.9,223.9,299.8,224.6z"/>
<path class="st3" d="M118.6,231c-1.4,2.1-3.8,2.9-5.8,4.3c-1.6,1.1-2.4,2.2-2.3,4.2c0.1,2.1,1.4,3.1,3.1,3.6
	c4.3,1.5,8.7,1.8,13.2,1.8c2.4,0,4.9-0.6,7.2,0.7c1.9-2.3,4.8-1.5,7.2-2.1c6.3-1.5,12.1-3.7,16.7-8.3c3.5-3.5,3.1-6.5-1.5-8
	c-11.5-3.9-23-4.9-33.8,2.3C121.4,230.4,120.1,231.1,118.6,231z"/>
<path class="st8" d="M178.1,35.3c2.8,10,11.2,10.5,19.2,10.8c9.9,0.4,19.6-1,29-4.3c3.3-1.1,6-3.1,8.7-5.3c0.8-0.7,2.1-1.5,1.4-2.7
	c-0.8-1.5-2.1-0.5-3.2-0.2c-9.2,2.5-18.5,4.2-28,3.8c-3.1-0.1-5.9-0.9-8.5-2.7c-3.2-2.1-4.2-4.6-2.4-8c0.4-0.7,0.1-1.2,0-1.7
	c-0.6-0.1-1.2,0.1-1.6,0.6c-3.5,1.8-7.1,3.4-10.9,4.5C179,30.8,178.4,32.9,178.1,35.3z"/>
<path class="st9" d="M364.1,444.5c-0.6-0.5-0.1-2.8-2.2-1.1c-2.8,2.2-6.1,3.3-9.8,3.1c-1.7-0.1-2.9,0.3-2.6,2.3
	c0.2,1.8-0.9,2.6-2,3.6c-1.4,1.9-1.9,3.8,0.5,5.3c2.1-2.2,2.4-5.2,3.7-7.8c0.4-0.8,0.6-2,2-1.2c1.2,0.6,1.2,1.5,0.5,2.4
	c-4.5,5.9-4.4,11.9-0.6,18c0.6,1,0.6,2.3,0.8,3.5c1.3,6.6,4.2,9.3,10.9,10.3c2.5,0.4,3.4,0,3-3C366.8,468.2,365.5,456.3,364.1,444.5
	z"/>
<path class="st10" d="M250,19.8c1.1,7.8-4.9,9.6-10.1,12c-1.8,0.8-3,1.7-2.4,3.7c0.9,3.6-2.1,5.7-2.9,8.7c2.5-1.5,4.5-3.6,6.6-5.6
	c0.6-0.6,0.9-1.9,2.2-1.1c3.5,0.8,5.5,4.5,4.9,8.3c-0.9,5.7-1.8,11.4-0.6,17.2c0.4,2,0.9,0.4,1.4,0.2c2.3-3.3,5.9-4.9,8.9-7.3
	c0.5-10.2-0.2-20.3-3.7-30.1C253.4,23.3,252.8,20.7,250,19.8z"/>
<path class="st11" d="M222.6,124.6c2.1,3.9,6,4.7,9.8,5.1c10.8,1.3,24.5-6,29.8-15.5c0.4-0.8,0.5-1.3,0.1-2
	c-2.2-0.8-4.3-1.6-6.5-2.4c-2.9-0.8-4.7,1.6-7,2.5c-2.2,1.6-3.3,4.2-5.2,6c-5.3,5-11.2,8.1-18.8,5.7c-0.7-0.2-1.4-0.5-2,0.1
	C222.7,124.3,222.6,124.5,222.6,124.6z"/>
<path class="st12" d="M222.8,124.2c9.8,4.5,17.6-0.4,23.8-7.7c0.9-1.1,1.7-2.3,2.6-3.5c2.6-2.4,4.3-5.3,4.5-8.9
	c1.4-6.6,3.4-13.2,2.3-20.1c-0.3-1.9-0.8-3.8-1.8-5.5c-0.2-1.3-0.6-2.6-2.3-2.7c-0.5,2.3,0.7,4.4,1.1,6.6c1.8,9.4-1.2,17.5-6,25.2
	c-3.5,5.6-7.1,10.9-13.8,13.4c-4.4,1.6-8.5,1.4-12.8-0.1c-1.1-0.4-2.3-1.8-3.6-0.3C218.5,122,220.7,123,222.8,124.2z"/>
<path class="st13" d="M251.9,75.6c0.8,0.9,1.5,1.8,2.3,2.7c7.4-3.5,8-10,7.4-16.9c-0.2-2.5-1-4.7-3.7-5.7c-3.8,1.4-7.7,2.8-8.9,7.3
	C249.1,67.4,248.5,72,251.9,75.6z"/>
<path class="st14" d="M133.9,547.9c-5.2-2.3-10.6-1.8-16-1.7c-2,0.6-3.1,2.2-4.3,3.8c-0.5,4.9-0.5,4.9,4.5,4.9
	c3.9,0,7.8-0.2,11.7,0.1c3.1,0.2,4.7-0.5,4.1-4c-0.1-0.8,0.1-1.7,0.1-2.5c0.2-0.2,0.2-0.3,0.1-0.5
	C134,547.9,133.9,547.9,133.9,547.9z"/>
<path class="st15" d="M370,431.2c-1.3,2.3-1.9,4.7-2.3,7.3c1.7,13.9,3.4,27.8,5.1,41.7c0.1,1-0.6,2.7,1.6,2.5c2.1-0.2,1.6-1.7,1.5-3
	c-1.6-13-3.1-26.1-4.7-39.1C370.8,437.5,370.4,434.4,370,431.2z"/>
<path class="st11" d="M299.8,224.6c3,0.9,6,1.5,9.1,0.5c0.6-9.2,0.4-18.5,0.2-27.7c-2.4,3.2-2,7.4-3.4,11
	C303.7,213.7,302.2,219.3,299.8,224.6z"/>
<path class="st16" d="M11.6,247c0.6,0.4,1.2,0.8,2.4,1.7c-4.1-5.1-0.7-9.6-0.3-14.2c0.1-1.5,1.6-1.1,2.6-1.3c3-0.4,6.1-0.4,9-1.5
	c1-0.4,2.3-0.9,2.1-2.2c-0.2-1.4-1.7-1.3-2.7-1.2c-3.2,0.1-6.3,0.3-9.5,0.5c-2.3,0.9-2.5,3.2-3,5.1C11.1,238.2,9.9,242.5,11.6,247z"
	/>
<path class="st17" d="M253.6,104c-1.5,3-3,6-4.5,8.9c2.2-1.1,4.5-2.1,6.7-3.2C254.9,107.9,255.1,105.7,253.6,104z"/>
<path class="st18" d="M348,457.8c-1-1.7-0.3-3.5-0.5-5.3c-1.1-0.1-2,0.1-2.9,0.8c-0.1,1.9-1.4,3.7-0.9,5.7
	C345.3,458.9,347,459.7,348,457.8z"/>
<path class="st7" d="M181.7,30.2c4.1-0.4,7.7-1.9,10.9-4.5C188.7,26.7,185.1,28.2,181.7,30.2z"/>
<path class="st0" d="M342.1,463.4c-1.1,3.2-1.1,6.3,0,9.5C342.1,469.8,342.1,466.6,342.1,463.4z"/>
<path class="st0" d="M122.2,497.9c-0.2-3,0.7-6-0.6-8.8C121.8,492,121,495.1,122.2,497.9z"/>
<path class="st0" d="M121.6,518.4c1.3-2.4,0.4-4.9,0.6-7.4C121,513.4,121.8,515.9,121.6,518.4z"/>
<path class="st4" d="M252.1,525c3.1-0.4,3.5-1.8,2.9-4.9c-4-20.7-6.6-41.6-8.7-62.6c-0.1-1.5-0.1-2.9-0.2-4.4
	c-1-1.2-2.2-0.5-3.4-0.2c-2.2,0.4-4.6,1-6.4-0.5c-2.3-1.8-3.7-0.8-5.6,0.5c-4.2,2.8-8.9,4.5-14.1,4.6c1.5,22.3,4.2,44.4,9,66.3
	c0.4,1.7,0.2,3.7,2,4.9c1.5,0.7,3,0.4,4.6,0.1c1.5-0.4,3.1-0.7,4.6-0.7c3.8-0.7,7.6-1.2,11.4-1.9C249.7,526,251.1,526,252.1,525z"/>
<path class="st19" d="M229.3,285.1c-1.2,0.3-2.3,0.5-3.5,0.8c-2.2,0.2-4.3,0.2-6.5-0.4c-1.5-0.4-3.2,0.2-3.5,1.8
	c-0.3,1.3,1.2,1.9,2.4,2.4c3.3,1.3,6.6,0.5,10.1,0.7c-5.2,2.2-10.3,4.4-15.5,6.5c-1.2,0.5-2.5,0.9-3.7,1.5c-1,0.5-2.5,1.2-2,2.6
	c0.6,1.5,2,2.1,3.6,1.5c3.4-1.2,7-1.9,10.4-3.5c-3,2.2-6,4.5-9,6.7c-1.2,0.9-3.2,1.7-2.1,3.6c1,1.8,2.6,1.1,4.4,0.4
	c3.9-1.5,6.8-4.6,11.1-5.7c-2.6,2.6-5.1,5.2-7.7,7.8c-1.1,1.1-2.2,2.3-1.1,3.8c1.3,1.7,2.7,0.8,4.1-0.1c3.6-2.4,6.9-5.1,10.5-7.9
	c-1.3,2.5-2.7,5-3.9,7.6c-0.4,1-1.5,2.3,0,3.3c1.4,0.9,2.2-0.2,3.1-1.1c0.7-0.7,1.5-1.3,2-2.1c3.6-5.7,7.3-11.2,13.3-14.8
	c1.1-0.6,1.8-2,2.7-3c-5.8-4.2-11.2-8.9-16.3-13.9C231.2,284.2,230.2,284.6,229.3,285.1z"/>
<path class="st20" d="M318,547c-0.3,0.2-0.5,0.5-0.8,0.7c-0.1,0.2-0.2,0.5-0.3,0.7c-3,5.5-2.5,6.5,3.7,6.5c4.9,0,9.9,0,14.8,0
	c0.7-9.3,1.2-7.5-6.6-8.6C325.2,545.8,321.5,545.5,318,547z"/>
<path class="st21" d="M209.4,550c-3.1,0-6.2,0-9.4,0c-0.6,2.5,0.1,3.5,2.9,3.4c15.2,0,30.5,0.1,45.8,0.1c1.2,0,3.4,1,3.3-1.5
	c-0.1-2.4-2.2-1.4-3.4-1.4c-11.8-0.2-23.7-0.2-35.5-0.3C211.8,550.3,210.6,550.2,209.4,550z"/>
<path class="st22" d="M274,159.3c0.5,5.9,1.5,11.7,3,17.4c0.2-0.3,0.6-0.6,0.5-0.9c-0.3-8.8,1.3-17.4,0.8-26.6
	c-2.4,1.8-0.5,4.8-2.5,6.2c-0.7-0.6,0-2.3-1.8-3C274,154.8,274,157.1,274,159.3z"/>
<path class="st23" d="M74.5,239c-1.2,0.1-2.5-0.1-2.7,1.4c-0.2,1.7,4.2,4.4,7,4.3c1.1,0,2.7-0.2,2.2-1.6
	C80,240.2,77.1,239.6,74.5,239z"/>
<path class="st24" d="M213,217c3-5.5,5.4-11.2,6.9-17.3c-0.6-6.2-3.1-12-4.5-18c-2.1-9.3-4.6-18.6-4.9-28.2
	c-0.2,7-0.9,13.9,0.9,20.8c0.3,1.2,0.7,2.6-0.2,3.5c-0.9,0.9-1.5-0.9-2.6-0.6c1.5,5.1,4.7,9.5,5.4,14.9c1,7.5,1.2,15-1,22.4
	C212.8,215.2,212.1,216.1,213,217z"/>
<path class="st25" d="M229.3,52.1c-2.4-0.2-4.6,0.5-6.6,1.6c-1,0.6-1.6,1.5-1.4,2.7c0.3,1.3,1.3,1.7,2.5,1.6c3.6-0.3,7.2-0.5,10.8-1
	c2.1-0.3,1.6-1.8,0.6-2.9C233.6,52.3,231.5,51.9,229.3,52.1z"/>
<path class="st26" d="M202.9,58.7c-4,0-9.2,3.5-10,6.5c-0.3,0.9-0.6,2,0.4,2.7c0.8,0.6,1.6,0,2.3-0.4c2.8-1.4,5.6-2.8,8.5-4.2
	c1.2-0.6,2.1-1.4,1.8-2.8C205.5,58.8,204,58.8,202.9,58.7z"/>
<path class="st27" d="M228,62.3c-1.8,0.4-2.4,1.6-2.2,3.2c0.2,1.9,1,3.7,3.2,3.7c1.8,0,2.4-1.6,2.3-3.1
	C231.1,64.2,230.2,62.7,228,62.3z"/>
<path class="st28" d="M199.1,72.9c0.2,1.8,0.9,3.5,3.2,3.5c1.7,0,2.2-1.4,2.1-2.8c0-2-0.7-3.8-3-3.9
	C199.5,69.5,199.1,71.1,199.1,72.9z"/>
<path class="st29" d="M218.3,100.1c6.7,0,11.4-5.1,11.2-11.8c-0.1-1.9-0.6-2.3-2.4-1.8c-5.4,1.5-10.8,2.9-16.2,4.4
	c-0.9,0.2-2,0.4-1.4,1.6c1.1,2.1,2.2,4.2,3.7,6C214.4,100,216.4,100,218.3,100.1z"/>
<path class="st9" d="M232.2,528c-1.5,0.2-2.9,0.5-4.4,0.7c2.5,1.5,5,3,7.5,4.5c0.7,0.4,1.7,0.7,1,1.9c-0.6,1-1.5,1.5-2.4,0.5
	c-5.7-6.1-12.3-5.2-19.2-2.9c-0.9,0.3-1.9,0.2-2.9,0.2c-6.5,0.2-10.9,4.6-11.4,11c-0.2,2.7,1.6,1.6,2.6,1.6
	c13.2,0.2,26.4,0.3,39.6,0.5c9.5,0.1,9.5,0.1,9.5-9.4c0-3.9,0-7.8,0-11.7c-5.3,0.2-10.5,1.5-15.7,2.3c0,1.3,1.4,1.5,2.2,2.7
	C236.2,529.7,234.4,528.2,232.2,528z"/>
<path class="st30" d="M232.2,528c1.9,1,3.8,2.1,5.7,3.1c0.8,0.5,1.5,0.8,2.1-0.3c0.6-1.2,0-1.8-1-2.2c-0.9-0.4-1.7-0.9-2.6-1.3
	C235,527.5,233.6,527.7,232.2,528z"/>
</svg>
