<?xml version="1.0" encoding="utf-8"?>
<!-- Generator: Adobe Illustrator 24.3.0, SVG Export Plug-In . SVG Version: 6.00 Build 0)  -->
<svg version="1.1" id="Layer_1" xmlns="http://www.w3.org/2000/svg" xmlns:xlink="http://www.w3.org/1999/xlink" x="0px" y="0px"
	 viewBox="0 0 1445 1088" style="enable-background:new 0 0 1445 1088;" xml:space="preserve">
<style type="text/css">
	.st0{fill:#00C897;}
	.st1{fill:#FCF0DA;}
	.st2{fill:#A76D3C;}
	.st3{fill:#A66D3B;}
	.st4{fill:#EEE4C1;}
	.st5{fill:#A3AEC2;}
	.st6{fill:#E5DBB8;}
	.st7{fill:#6B3C1A;}
	.st8{fill:#C0D2D8;}
	.st9{fill:#F4AE8C;}
	.st10{fill:#DAD0AD;}
	.st11{fill:#AEC2CB;}
	.st12{fill:#412822;}
	.st13{fill:#C68D57;}
	.st14{fill:#371E18;}
	.st15{fill:#181E28;}
	.st16{fill:#E09A78;}
	.st17{fill:#935927;}
	.st18{fill:#181F28;}
	.st19{fill:#A76D3B;}
	.st20{fill:#D0C6A4;}
	.st21{fill:#BC834D;}
	.st22{fill:#9C7441;}
	.st23{fill:#87929D;}
	.st24{fill:#A47845;}
	.st25{fill:#E09C7B;}
	.st26{fill:#5A4A46;}
	.st27{fill:#504644;}
	.st28{fill:#A4AEC2;}
	.st29{fill:#E09A79;}
	.st30{fill:#DAD0AE;}
	.st31{fill:#544A47;}
	.st32{fill:#625851;}
	.st33{fill:#FAECD6;}
	.st34{fill:#F9E8CD;}
	.st35{fill:#F8E7CE;}
	.st36{fill:#DBD0AE;}
	.st37{fill:#59504C;}
</style>
<circle class="st0" cx="685.28" cy="579.97" r="304"/>
<g>
	<path class="st1" d="M589.46,600.3c6.3-15.97,14.14-30.72,30-39.45c8.55-4.71,17.61-8.11,26.83-11.18
		c10.25-3.41,20.82-5.91,30.55-10.83c6.24-3.15,10.27-7.89,11.29-14.96c0.13-0.19,0.26-0.39,0.38-0.58
		c11.52-5.06,23.16-9.9,34.12-16.1c14.04-7.94,27.55-16.69,38.28-29.04c2.4-3.17,5.32-5.85,8.2-8.56c1.36-1.27,2.86-2.74,4.94-1.04
		c3.62,10.78,7.38,21.54,7.1,33.16c-2.77,8.4-5.57,16.8-8.31,25.21c-4.34,13.32-2.81,26.92-1.71,40.46
		c0.49,5.98,1.38,11.93,2.09,17.9c-0.87,2.05-2.75,3.02-4.47,4.11c-9.35,5.86,20.88,24.79,17.48,35.34
		c-0.67,2.07-37.48,10.5-39.25,12.04c-3.47-9.12-11.28-31.47-19.16-36.37c-9.57-5.94-20.09-8.98-31.1-9.26
		c-11.54-0.29-23.1,1.65-31.72,10.19c-5.41,5.36-11.06,4.58-17.33,3.77c-19.41-2.49-36.7,2.26-51.55,15.3
		c-6.13,5.38-11.01,11.77-15.31,18.74c-1.21-1.02-0.48-2.19-0.74-3.16C581.55,623.67,585.16,611.89,589.46,600.3z"/>
	<path class="st2" d="M860.29,607.06c-6.03-5.31-11.26-11.55-18.12-15.92c-1.19-0.76-2.4-1.51-3.6-2.26
		c3.6-3.25,8.43-5.06,10.35-10.31c0.63-1.73,3.77-2.54,5.77-3.77C856.55,585.55,858.42,596.31,860.29,607.06z"/>
	<path class="st3" d="M817.44,568.06c-3.83-15.55,2.14-28.68,10.21-41.27c3-4.68,6.08-9.31,9.14-13.94c0.55-0.82,0.79-2.3,2.37-1.36
		c5.18,17.73,9.73,35.62,13.5,53.7c0.25,1.2,0.11,2.64,1.74,3.07c-0.96,0.51-1.99,0.91-2.84,1.56c-2.53,1.9-4.51,2.18-7.88,0.63
		C835.4,566.63,826.28,567.99,817.44,568.06z"/>
	<path class="st4" d="M828.67,593.14c3.4-1.2,6.93-2.08,9.9-4.26c4.63-0.04,7.22,3.63,10.31,6.07c4.34,3.44,8.34,7.37,11.4,12.1
		c1.61,4.72,5.63,7.89,7.54,12.57c5.16,12.64,7.3,25.54,5.32,39.09c-0.68,4.68-0.41,8.69,3.61,12.48
		c18.77,17.74,26.15,40.12,24.66,65.5c-0.61,10.33-3.35,20.41-8.51,29.5c-2.22,3.91-1.64,7.19,0.13,10.76
		c4.16,8.4,6.4,17.51,6.4,26.67c0.01,17.84-5,34.19-17.8,47.41c-2.65,2.74-5.24,5.54-7.86,8.32c-7.09,7.59-16.31,10.84-26.18,12.5
		c-2.97,0.5-4.15,1.58-4.07,4.55c0.4,14.53-4.4,27.51-12.01,39.63c-7.51,10.93-16.85,19.89-28.36,26.56
		c-13.01,7.54-27.09,11.81-41.92,13.72c-3.46,0.44-6.9,1.26-10.44,0.99c-1.72-0.13-3.54,0.22-4.96-1.17
		c-5.37-0.59-9.88,0.49-14.48,4.03c-10.33,7.96-22.59,10.87-35.48,12.39c-13.28,1.56-26.42,0.92-39.32-1.45
		c-14.96-2.75-29.71-6.84-41.95-16.86c-3.89-3.18-6.13-7.64-9.59-11.17c-5.92-6.03-11.88-8.87-21.07-7.53
		c-16.01,2.32-32.29,1.56-48.26-1.87c-1.67-0.36-3.09-0.33-4.61,0.15c-2.19-1.08-4.7-1.06-6.94-1.98
		c-17.52-5.27-33.86-13.1-49.3-22.86c-0.84-1.67-2.45-2.39-3.93-3.33c-14.12-8.91-28.18-18.11-39.56-30.35
		c-9.28-9.98-19.31-18.8-30.55-26.33c-3.82-2.56-7.87-4.78-11.83-7.11c-1.92-1.13-2.65-2.42-1.54-4.69
		c3.35-6.81,6.47-13.73,9.09-20.87c1.2-3.25,2.65-4.58,6.6-2.23c18.38,10.94,36.75,21.97,56.14,31.08
		c10.75,5.05,21.43,10.59,33.23,12.65c6.19,1.08,12.94,2.31,18.65-2.36c11.8-3.67,22.03-10,31-18.45c4.41-4.14,6.49-9.04,6.26-15.28
		c-0.19-5.26,1.83-10.27,3.79-15.15c4.24-10.54,9.64-20.37,17.71-28.52c4.53-4.03,4.96-9.03,3.32-14.46
		c-1.67-5.51-3.98-10.8-6.44-15.96c-7.2-15.16-3.03-27.85,7.78-39.28c3.57-3.78,7.32-7.4,11.51-11.29
		c-6.14-2.64-12.11-3.54-17.95-4.88c-4.49-1.03-9.05-1.8-13.63-2.48c-4.98-0.74-9.75-1.4-13.53,2.98c-0.45-0.88,0.63-3.54-2.18-1.5
		c-5.47,3.99-9.57,9.29-13.85,14.34c-11.8,13.91-22.22,28.86-32.21,44.12c-3.83,5.85-9.81,4.75-15.14,3.85
		c-4.45-0.75-8.88-2.26-13.15-4.08c-2.47-1.05-2.88-1.91-1.65-4.1c4.44-7.89,8.62-15.93,13.26-23.7
		c7.71-12.92,15.71-25.67,23.57-38.5c0.38-0.62,0.97-1.36,0.09-2.09c0.42-3.76,3.65-5.82,5.38-8.79
		c6.93-11.94,16.76-19.35,30.85-21.64c11.61-1.88,23.1-4.65,34.76-6.4c3.99-0.6,7.66-1.18,7.54-6.5c-0.02-0.92,0.62-1.82,1.83-1.8
		c0.93,0.8,0.72,1.93,0.43,2.99c2.07-6.45,6.48-11.08,10.86-15.61c17.21-17.78,38.43-22.7,62.18-18.86c3.33,0.54,5.71-0.26,8.23-2.4
		c14.12-12,30.3-14.43,47.95-10.19c12.23,2.94,22.86,8.61,31.71,17.6c2.62,2.66,4.72,5.6,5.84,9.18c0.28,0.38,0.55,0.75,0.87,1.09
		c9.53,3.58,18.42,8.17,24.13,17.06c5.34,8.32,5.96,17.47,1.49,26.02c-4.28,8.18-12.21,11.35-21.39,10.85
		c-7.16-0.4-10.66-3.51-12.24-10.52c-1.28-5.68,2.28-14.34,6.97-16.74c2.45-1.26,4.96-1.31,7.18,0.51c2.13,1.74,2.27,4.07,1.51,6.55
		c-0.28,0.89-0.88,1.69-1,3.02c4.01,0.22,6.26-2.17,7.95-5c1.83-3.06,1.21-6.32-0.93-8.97c-3.79-4.7-8.79-6.8-14.84-5.64
		c-9.86,1.9-19.02,11.68-20.1,21.32c-1.24,11.09,4.28,21.44,13.95,26.13c22.01,10.67,45.53,1.23,53.61-21.93
		c3.96-11.35,1.11-21.72-6.77-30.69c-2.43-2.76-5.17-5.2-8.13-7.39c-1.82-1.35-3.5-2.84-3.5-5.4c0.13-3.2,1.05-6.08,3.5-8.3
		c1.64-1.38,3.54-1,5.44-0.83c14.88,1.33,27.84-2.86,38.45-13.62C824.9,594.57,826.51,593.38,828.67,593.14z"/>
	<path class="st5" d="M672.04,197.17c40.63,0.16,77.95,11.92,112.81,32.29c19.55,11.42,36.97,25.53,51.88,42.56
		c18.31,20.91,29.48,45.47,36.21,72.35c5.31,21.19,7.67,42.58,6.52,64.34c-0.57,10.83-2.95,21.38-5.67,31.85
		c-1.75,1.48-3.67,0.78-5.45,0.25c-21.2-6.22-42.88-9.24-64.91-10c-0.31-0.01-0.61-0.16-0.91-0.27c-1.93-2.74-0.49-6.09-1.63-8.98
		c0.37-10.2-1.04-20.33-1.23-30.52c-0.17-9.65-6.24-16.86-12.09-23.81c-3.57-4.25-7.64-8.1-11.82-11.8c-0.6-0.48-1.1-1.04-1.54-1.67
		c-9.34-15.93-12.19-33.08-9.82-51.23c-1.64,12.23-0.98,24.29,2.92,36.1c0.3,0.91,0.68,1.8,0.89,2.72c0.32,1.42,1.91,3.29-0.08,4.2
		c-1.61,0.74-2.84-1.13-3.79-2.34c-5.73-7.3-10.46-15.23-13.88-23.85c-4.64-11.67-7.97-23.68-8.04-30.84
		c0.81,12.74,5.82,29.77,15.4,45.39c2.74,4.47,5.72,8.79,9.46,12.54c1.22,1.22,2.35,2.63,2.53,4.5c-1.37,2.12-3.19,0.92-4.64,0.38
		c-13.32-4.94-25.3-11.96-34.11-23.45c-12.69-16.56-23.28-34.52-34.18-52.27c-1-1.62-1.87-3.33-2.97-4.89
		c-3.7-5.28-4.07-5.38-9.91-2.7c-1.47,0.68-2.93,1.32-4.51,0.33c-1.64-2.5,0.12-4.37,1.15-6.4c1.01-1.98,3-3.84,1-6.31
		c-2.66-3.35-2.61-7.49-3.07-11.38c-1.69-14.39-3.86-28.7-6.59-42.93C671.72,199.95,671.18,198.55,672.04,197.17z"/>
	<path class="st5" d="M568.67,541.25c-18,0.01-35.42-3.09-52.22-9.64c-6.65-2.59-11.24-6.52-14.29-13.51
		c-10.27-23.48-17.93-47.7-22.07-72.94c-7.69-46.88-4.23-92.44,17.61-135.5c7.45-14.7,16.57-28.31,27.69-40.53
		c3.85,5.64,6.62,11.89,10.03,17.77c5.02,8.67,9.94,17.4,15.17,25.94c1.15,1.87,2.57,3.68,2.54,6.08c-0.06,4.12,3.53,3.4,5.75,4.04
		c5.99,1.72,6.89,3.03,5.45,9.45c-0.46,0.44,0.21-0.03-0.27,0.4c-7.26,6.44-7.2,6.41-2.9,15.31c7.43,15.35,14.53,30.78,18.68,47.5
		c3.15,12.7,0.21,24.29-4.08,35.91c-0.44,1.19-1.23,2.25-2.62,2.58c-2.06-0.61-1.68-2.54-1.98-3.96
		c-2.56-12.37-5.4-24.69-7.43-37.16c2.62,15.29,5.91,30.44,9.19,45.6c0.96,4.36,1.4,8.81,1.74,13.23c0.3,3.94,1.84,5.77,5.91,5.63
		c2.81-0.1,5.81-0.19,7.78,2.57c1.22,4.54-1.01,8.74-1.25,13.14c-1.1,19.98-1.98,39.94,1.71,59.78c0.46,2.46,1.45,4.93,0.2,7.45
		C582.37,544.11,575.54,543.23,568.67,541.25z"/>
	<path class="st6" d="M550.36,244.13c-3.52-9.14-1.33-18.06,0.92-27.02c4.43-17.64,10.17-34.89,15.75-52.18
		c0.34-1.05,0.49-2.15,0.72-3.23c3.69,5.31,9.54,9.16,10.8,16.11c0.29,1.57,0.78,3.09,1.3,4.6c2.06,5.91,3.56,6.65,9.95,6.14
		c10.94-0.89,21.33,0.43,29.84,8.43c2.34,2.2,5.1,3.83,8.34,4.45c0.31,0.06,0.65,0.11,0.91,0.27c5.83,3.46,11.7,6.85,17.66,10.1
		c-1.63,9.88-1.66,19.99-3.67,29.78c-2.07,10.07-7.89,17.28-18.34,19.94c-21.2,5.41-42.2,6.59-62.32-3.89
		C556.77,254.78,551.71,250.93,550.36,244.13z"/>
	<g>
		<g>
			<path class="st7" d="M872.3,581.56l-142.96,39.48c0,0,35.83-38.44,64.37-46.87s73.93-18.24,73.93-18.24L872.3,581.56z"/>
		</g>
		<path class="st8" d="M829.11,592.43L683.6,636.1c0,0,37.04-40.43,66.1-49.71c29.06-9.28,75.21-20.33,75.21-20.33L829.11,592.43z"
			/>
	</g>
	<path class="st9" d="M646.09,211.55c-5.66-0.92-10.41-3.61-14.66-7.38c-2.8-2.48-7.08-1.32-9.94-4.1
		c-9.75-9.46-21.45-12.16-34.64-9.73c-3.12,0.57-6.25-1.1-6.77-4.1c-1.67-9.5-8.17-16.39-12.33-24.53
		c-1.1-8.35,0.35-15.65,8.33-20.25c2.03-2.84,4.91-4.02,8.27-3.92c3.33,0.1,5.77-1.33,7.92-3.69c1.61-1.77,3.4-3.36,5.05-5.09
		c5.53-5.81,12.44-8.05,20.03-6.24c15.7,3.73,30.05,10.47,42.01,21.56c5.72,5.31,7.17,15.04,3.98,22.48
		c-1.26,10.5-4.2,20.58-7.61,30.55c-0.79,5.35-4.78,9.01-7.17,13.51C647.87,211.29,647.07,211.66,646.09,211.55z"/>
	<path class="st10" d="M515.14,833.53c-8.7-2.24-17.39-4.55-26.11-6.69c-12.98-3.18-23.93-9.99-34.02-18.49
		c-17.15-14.47-31-31.91-44.6-49.58c-1.99-2.59-2.27-4.34,0.53-6.63c4.18-3.42,8.03-7.24,11.92-11.01c1.64-1.59,2.98-2.03,4.89-0.35
		c11.01,9.66,22.76,18.4,35.1,26.22c11.92,7.55,23.93,15.16,38.2,17.8c6.78,1.25,13.6,0.79,20.41,0.78c1.58,0,2.12-1.19,2.99-2.06
		c6.33,0.92,12.55-0.47,18.81-0.96c2.8-0.22,5.53-1.45,8.41-0.62c2.36,2.25,0.21,4.18-0.67,5.94c-6.71,13.4-13.24,26.88-20.05,40.22
		c-1.32,2.59-1.46,6.06-4.91,7.24C522.22,835.79,518.56,835.37,515.14,833.53z"/>
	<path class="st10" d="M580.04,636c-0.26,0.39-0.81,0.84-0.75,1.16c1.4,6.87-3.17,7.7-8.18,8.36c-14.6,1.92-28.97,5.02-43.27,8.55
		c-6.79,1.67-11.6,5.41-15.77,10.7c-4.21,5.35-7.52,11.39-12.39,16.23c-7.59,2.83-15.3,5.36-22.72,8.58
		c-6.57,2.85-11.79,1.95-16.83-3.17c-3.49-3.55-6.55-7.33-9.07-11.59c-0.97-1.64-1.35-2.9,0.69-4.38
		c17.88-12.98,35.62-26.15,53.48-39.16c10.66-7.77,21.33-15.55,32.24-22.96c6.23-4.22,11.77-9.86,19.8-10.94
		c0.61-0.08,1.1-1.07,1.64-1.63c8.2,0.72,16.45,0.99,24.56,2.54c2.02,0.39,4.09,0.59,5.86,1.78c1.48,1.88,0.29,3.73-0.33,5.4
		c-3.19,8.54-5.4,17.34-7.06,26.29C581.67,633.28,581.41,634.9,580.04,636z"/>
	<path class="st5" d="M646.09,211.55c0.63-0.39,1.26-0.77,1.89-1.16c1.93,0.2,2.09,1.79,2.23,3.15c1.67,15.63,4.94,31.05,6.23,46.72
		c-0.91,2.68-2.02,4.98,1.58,7.14c6.96,4.19,6.8,4.45,3.75,12.34c-11.03,6.63-22.44,12.59-33.74,18.73
		c-11.03,6-22.11,11.91-33.01,18.16c-2.86,1.64-5.74,3.52-9.35,2.91c-1.37-0.34-2.63-0.99-3.98-1.41c-4.98-1.54-6.21-3.45-5.44-8.76
		c0.35-2.44,0.89-4.72-1.95-6.02c-2.92-2.01-3.92-5.36-5.66-8.18c-7.83-12.77-15.27-25.78-22.85-38.71
		c-1.04-1.78-2.2-3.54-2.11-5.76c2.23-2.19,4.45-4.39,6.68-6.58c8.18,13.4,21.17,17.51,35.76,19.29
		c12.99,1.58,25.58,0.08,38.07-3.14c12.01-3.1,16.68-11.84,18.16-23.44C643.42,228.39,642.94,219.69,646.09,211.55z"/>
	<path class="st11" d="M801.97,429.95c13.17-0.95,26.05,1.38,39,3.24c11.15,1.61,21.89,4.89,32.83,7.36
		c6.36,3.03,7.32,4.41,5.6,13.43c-2.27,11.86-6.23,23.2-11.59,34.09c-2.46,5-6.18,5.87-10.9,4.96c-2.03-0.4-4.02-0.85-6.1-0.74
		c-2.25,0.85-4.37-0.05-6.52-0.53c-17.63-3.99-34.84-9.48-52.08-14.89c-5.25-1.41-5.59-6.04-5.43-9.95
		c0.44-10.78,1.89-21.46,6.76-31.33c0.92-1.86,2.11-3.55,3.75-4.85C798.69,429.63,800.15,428.6,801.97,429.95z"/>
	<path class="st12" d="M745.84,956.12c25.28-0.49,48.63-6.71,68.61-23.06c6.2-5.07,11-11.4,16.15-17.41
		c4.23-2.39,8.97-1.05,13.45-1.77c6.39-1.03,12.76-1.97,18.92-4.03c1.62-0.54,3.33-1.16,4.96,0.07c3.09,6.12,2.36,12.46,1.26,18.88
		c-0.34,1.96-1.5,3.86-0.75,5.96c-0.06,3.61-1.93,5.58-5.22,7.11c-8.43,3.91-15.82,9.37-22.43,15.96
		c-8.14,8.12-17.56,14.69-27,21.16c-7.68,5.26-16.65,6.5-25.59,5.93c-11.38-0.72-22.87-0.85-34.06-3.63
		c-4.95-1.23-9.76-2.83-14.48-4.72c-1.89-0.76-3.99-1.73-2.8-4.55C738.31,965.85,741.06,960.42,745.84,956.12z"/>
	<path class="st6" d="M663.33,166.54c0-2.39-0.32-4.84,0.04-7.17c1.52-9.88-4.38-15.5-11.6-20.13
		c-10.31-6.61-21.1-12.34-33.14-15.23c-7.85-1.89-14.8-0.47-20.45,5.67c-1.4,1.52-3.03,2.85-4.37,4.42
		c-2.7,3.18-5.64,5.35-10.22,4.73c-2.73-0.37-5.13,1.34-7.5,2.61c5.12-12.34,10.58-24.47,17.57-35.92
		c8.6-14.08,14.6-17.15,30.98-14.56c14.12,2.24,28.09,5.15,41.49,10.29c4.75,1.82,9.33,3.9,13.42,7.11c3.82,3,4.82,6.8,3.59,11.01
		c-0.85,2.9,0.15,4.5,1.99,6.23c1.28,1.2,2.55,2.44,3.59,3.83c3.99,5.36,3.37,8.32-2.58,11.21c-3.57,1.73-4.41,3.21-1.57,6.71
		c4.84,5.96,3.53,10.77-3.47,14.04C675.47,164.01,669.39,165.27,663.33,166.54z"/>
	<path class="st3" d="M552.32,782.61c-6.86,0.86-13.71,1.93-20.59,2.46c-2.38,0.18-5.64,2.46-7.28-1.56
		c5.29-28.88,10.59-57.75,15.88-86.63c0.26-1.4,0.41-2.82,0.62-4.23c0.51-4.09,3.36-4.92,6.79-4.77c14.03,0.6,27.38,4.53,41,8.08
		c-1.02,2.59-3.1,3.32-4.58,4.64c-4.64,4.14-9.05,8.47-12.83,13.43c-6.84,9-9.21,18.66-4.73,29.49c2.79,6.75,5.63,13.5,8.06,20.38
		c2.03,5.75,1.08,11-4.15,14.88C564.73,781.42,558.8,783.33,552.32,782.61z"/>
	<path class="st3" d="M589.46,600.3c-9.6-0.7-19.02-3.15-28.72-2.79c-1.22,0.05-1.59-0.79-1.81-1.78
		c3.15-17.02,6.31-34.05,9.46-51.07c2.17,2.68,4.88,2.88,8.12,2.32c6.64-1.14,6.9-0.91,10.27,5c0.92,1.62,2.27,2.09,3.95,2.15
		c8.48,0.3,16.82-0.89,25.12-2.36c3.94-0.7,4.16-3.31,3.17-6.47c-0.03-0.32-0.07-0.8,0.11-0.88c3.66-1.59,6.32-4.37,8.78-7.39
		c6.91,1.42,13.56-0.74,20.17-1.94c12.17-2.2,24.2-5.15,35.54-10.36c1.28-0.59,2.65-1.1,4.13-1c1.9,1.49,0.79,3.22,0.24,4.77
		c-1.74,4.88-5.09,8.34-9.63,10.79c-9.2,4.95-19.25,7.56-29.1,10.71c-9.11,2.92-18.09,6.14-26.65,10.48
		c-14.59,7.4-23.46,19.7-29.6,34.39C592.18,596.89,591.8,599.26,589.46,600.3z"/>
	<path class="st13" d="M655.58,261.26c-2.22-15.6-4.44-31.2-6.66-46.81c-0.2-1.39,0.12-2.88-0.95-4.07
		c1.94-4.81,5.08-8.91,7.75-13.3c1.22-0.03,2.44-0.07,3.66-0.1c4.16-0.36,8.31-0.61,12.45,0.14c0,0,0.2,0.04,0.2,0.04
		c3.51,11.92,4.78,24.25,6.56,36.49c0.84,5.81,1.45,11.65,2.22,17.46c0.23,1.74,0.88,3.34,2.37,4.46c-0.51,1.11-1.02,2.23-2.2,2.83
		c-8.12,2.53-16.22,5.17-24.72,6.2C654.7,263.77,654.94,262.56,655.58,261.26z"/>
	<path class="st13" d="M543.68,250.71c9.16,15.52,18.31,31.04,27.47,46.55c1.04,1.77,2.11,3.53,3.16,5.29
		c0.85,0.84,1.63,1.72,1.16,3.06c-5.72,4.71-11.79,8.94-17.68,13.43c-1.01,0.77-2.13,1.36-3.46,1.38c-1.02-0.14-1.79-0.58-2.08-1.65
		c-5.73-10.03-11.61-19.98-17.14-30.13c-3.48-6.38-7.86-12.33-9.73-19.52C530.5,262.01,536.67,255.94,543.68,250.71z"/>
	<path class="st3" d="M867.94,909.92c-10.61,3.38-21.37,5.88-32.58,5.91c-1.58,0-3.17-0.12-4.75-0.19
		c4.93-9.26,9.61-18.6,11.14-29.19c0.6-4.14,0.57-8.24,0.43-12.37c-0.05-1.49-0.22-2.99,1.9-3.08c11.08-0.5,20.33-5.6,29.22-11.61
		c0.12-0.08,0.31-0.03,0.47-0.05c-0.18,12.38-0.54,24.76-0.44,37.13C873.38,901.89,873.31,906.87,867.94,909.92z"/>
	<path class="st14" d="M474.81,908.97c1.05,0.28,2.22,0.35,3.13,0.88c14.82,8.7,30.43,15.63,46.64,21.24
		c-3.7,3-8.18,4.17-12.67,5.06c-20.02,3.97-39.42,2.21-57.92-6.83c-2.11-1.03-4.35-2.12-4.82-4.86c1.54-6.64,5.9-10.2,12.35-11.75
		C465.99,911.65,470.38,910.23,474.81,908.97z"/>
	<path class="st15" d="M736.86,972.03c0.15,1.81,1.19,2.62,2.87,3.31c11.23,4.63,23,7.12,35.03,7.34
		c7.38,0.14,14.63,1.53,22.23,0.58c9.01-1.13,16.05-5.1,23.03-10.16c8.87-6.44,17.26-13.42,25.16-21
		c4.73-4.54,10.28-7.91,16.11-10.71c3.21-1.54,5.97-3.09,7.15-6.62c1.58,5.36,0.85,10.64-0.66,15.86c-0.53,1.84-2.13,2.73-3.71,3.52
		c-3.42,1.7-6.97,3.17-10.26,5.07c-3.65,2.11-6.05,2.25-6.04-3.21c-6.1,3.23-10.82,7.39-14.98,12.28
		c-10.73,12.61-23.55,20.64-40.8,21.8c-17.91,1.2-34.88-1.36-51.4-7.97c-1.47-0.59-2.95-1.25-4.23-2.16
		C731.99,976.85,732.14,975.04,736.86,972.03z"/>
	<path class="st16" d="M792.64,475.93c15.37,3.98,30.27,9.56,45.77,13.08c4.16,0.95,8.26,2.18,12.39,3.28
		c-1.94,2.87-3.89,5.74-5.83,8.6c-10.77-2.56-20.82-7.28-31.38-10.46c-7.98-2.4-15.59-5.96-23.79-7.67
		C788.89,479.72,790.59,477.75,792.64,475.93z"/>
	<path class="st17" d="M619.22,544.93c3.15,0.73,1.83,3.25,1.9,5.08c0.06,1.68-1.18,2.35-2.78,2.68
		c-9.79,2.02-19.66,3.04-29.67,2.89c-3.01-0.05-3.52-2.25-3.58-4.09c-0.11-3.47-1.97-3.92-4.65-3.61c-2.35,0.27-4.69,0.6-7.03,0.94
		c-3.24,0.48-5.28-0.44-5.02-4.16c0.09-1.14,0.19-2.28,0.28-3.41c6.64-0.13,13.31,0.33,19.91-0.83c7.5,6.2,16.31,4,24.79,3.82
		C615.37,544.2,617.43,543.27,619.22,544.93z"/>
	<path class="st18" d="M449.16,924.47c7.89,6.12,16.95,9.24,26.76,10.51c5.93,0.76,11.8,2.04,17.83,1.89
		c9.49-0.24,18.86-1.09,27.58-5.38c0.93-0.46,2.17-0.27,3.26-0.39c2.24,0.71,5.11-0.08,6.47,2.72
		c-20.65,9.21-41.85,11.35-63.71,4.96c-6.14-1.8-11.87-4.49-17.33-7.83C446.9,929.03,445.99,927.09,449.16,924.47z"/>
	<path class="st19" d="M515.14,833.53c3.82-0.71,7.42,1.37,11.23,0.92c4.59-0.98,9.11,0.11,13.63,0.63c1.54,0.18,3.83,0.31,2.76,3.1
		c-7.95,7.25-16.84,13.02-26.93,16.8c-1.41,0.53-2.98,2.26-4.72,0.45C512.45,848.13,513.79,840.83,515.14,833.53z"/>
	<path class="st9" d="M671.84,197.13c-4.15-0.05-8.3-0.09-12.45-0.14C663.55,195.94,667.7,195.72,671.84,197.13z"/>
	<path class="st10" d="M655.37,863.43c6.77-1.37,13.47-2.88,20.23-4.03c2.73-0.47,4.69,1.87,6.73,3.24
		c8.01,5.35,14.94,11.62,18.61,20.99c4.83,12.31,1.28,23.14-5.7,33.12c-11.41,16.33-30.36,18.81-46.23,12.51
		c-12.3-4.88-19.15-14.98-18.12-26.84c1.14-13.14,10.77-23.12,23.15-24.85c6.1-0.85,13.23,2.98,15.83,8.42
		c1.87,3.93,0.92,7.44-1.5,10.71c-2.51,3.4-5.31,4.19-11.14,3.21c1-1.49,1.87-2.97,2.92-4.31c1.11-1.41,1.65-2.71,0.27-4.24
		c-1.44-1.59-2.87-2.9-5.35-2.1c-5.65,1.82-9.24,9.42-7.99,17.2c0.74,4.61,5.75,8.2,11.24,8.4c8.57,0.3,16.05-2.02,19.9-10.17
		c4.66-9.85,2.43-21.5-4.05-28.41c-4.58-4.89-9.75-8.59-16.13-10.64C657.09,865.33,655.85,865.09,655.37,863.43z"/>
	<path class="st10" d="M636.23,659.05c6.02-1.29,12.02-2.67,18.06-3.82c2.55-0.49,4.88,0.24,7.16,1.8
		c10.44,7.15,19.44,15.27,22.35,28.43c1.63,7.39-0.7,13.99-3.8,20.18c-7.8,15.58-20.61,23.55-38.15,22.22
		c-11.22-0.85-20.81-5.56-26.99-15.6c-6.49-10.55-2.6-25.89,7.91-34.05c7.14-5.54,14.3-6.14,22.21-2.54
		c4.88,2.22,6.52,6.65,6.41,11.31c-0.12,4.83-4.28,7.2-8.18,9.11c-1.25,0.61-3.3,0.97-4.36-0.61c-0.91-1.36,0.6-2.23,1.29-3.25
		c1.2-1.77,3.43-3.73,1.01-5.77c-2.44-2.06-5.46-2.62-8.28-0.29c-4.33,3.58-6.46,12.85-4.33,18.07c1.94,4.76,7.74,6.78,12.85,6.34
		c8.12-0.69,15.38-3.65,18.37-12.03c3.43-9.63,2.44-18.7-4.91-26.57c-5.2-5.56-11.37-9.5-18.72-11.7
		C636.15,659.89,636.19,659.47,636.23,659.05z"/>
	<path class="st10" d="M818.98,706.29c6.52-1.24,13.04-2.44,19.54-3.77c1.19-0.24,2.07-0.13,3.14,0.45
		c12.04,6.54,21.31,15.56,24.97,29.14c1.8,6.68,0.04,13.29-2.79,19.46c-5,10.91-12.95,18.69-24.54,22.47
		c-17.5,5.71-41.09-3.05-44.62-23.72c-1.18-6.88,1.4-13.05,5.19-18.39c5.38-7.57,12.71-11.84,22.53-10.68
		c5.26,0.62,8.86,3.38,11.1,7.89c1.64,3.3,1.78,6.77-0.84,9.87c-2.86,3.38-6.18,5.4-11.13,3.78c0.89-1.47,1.65-2.79,2.47-4.06
		c1.33-2.08,1.06-3.8-0.84-5.46c-1.95-1.7-3.92-2-6.07-0.59c-5.43,3.54-8.11,13.27-5.48,19.29c1.1,2.52,2.78,4.05,5.45,4.86
		c14.62,4.42,27.3-5.08,27.37-19.37c0.07-13.28-8.81-22.56-20.28-27.77c-1.82-0.82-3.64-1.64-5.45-2.46
		C818.79,706.92,818.89,706.6,818.98,706.29z"/>
	<path class="st10" d="M610.55,809.95c-0.16-1.17,0.86-1.62,1.45-2.3c2.07-2.35,2.56-4.99,0.31-7.23c-2.22-2.22-4.92-1.76-7.39,0.06
		c-4.15,3.05-6.39,12.05-4.47,18.05c1.38,4.31,5.01,5.85,11.64,6.34c14.56,1.08,23.4-11.61,20.94-25.32
		c-1.85-10.27-7.84-16.25-16.12-20.92c-3-1.69-6.27-2.9-10.58-4.86c6.67-1.33,12.43-2.2,18.04-3.66c5.36-1.39,9.15,1.22,12.93,4.15
		c7.87,6.1,15.36,12.7,17.54,22.98c2.95,13.89-1.4,25.42-11.79,35.13c-7,6.54-15.24,9.32-24.37,10.56
		c-18.04,2.45-35.76-13.13-34.69-31.13c0.82-13.86,15.21-28.44,31.67-22.28c5.56,2.08,8.89,8.49,7.37,13.93
		C621.69,808.23,616.66,810.86,610.55,809.95z"/>
	<path class="st10" d="M707.77,735.45c6.94-1.35,12.76-2.11,18.37-3.66c7.01-1.93,11.13,2.93,15.43,6.44
		c5.48,4.47,10.58,9.42,13.26,16.54c4.96,13.16,1.87,24.4-6.34,35.11c-6.5,8.48-15.11,13.08-25.37,14.35
		c-14.44,1.78-33.13-5.27-37.28-22.51c-3.7-15.37,9.29-34.57,27.93-31.71c5.53,0.85,10.34,5.55,10.78,11.08
		c0.48,6.03-2.19,9.57-8.5,11.43c-1.42,0.42-3,1.02-3.96-0.33c-1.07-1.48,0.75-2.18,1.52-3.01c2.09-2.29,3-4.63,0.37-7.03
		c-2.62-2.38-5.71-1.72-7.75,0.37c-3.49,3.57-5.57,8.16-5.49,13.28c0.08,6.01,4.28,10.18,10.15,10.64c9.6,0.76,17.86-1.39,22.21-11
		c4.06-8.96,2.16-17.42-3.15-25.23C724.82,742.7,716.86,739.13,707.77,735.45z"/>
	<path class="st10" d="M773.04,840.1c6.63-1.28,13.27-2.55,19.9-3.84c2.51-0.49,4.22,1.19,6.06,2.33
		c9.13,5.64,16.56,12.92,20.47,23.12c4.53,11.79,0.49,22.31-6.29,31.71c-8.05,11.15-19.37,16.49-33.28,15.65
		c-15.3-0.93-29.28-9.05-30.98-26.53c-1.02-10.48,4.11-18.96,13.1-24.7c6.74-4.3,13.7-4.71,20.72-0.58
		c3.9,2.29,6.68,8.01,5.73,11.74c-1.09,4.26-5.87,8.36-9.92,8.42c-0.9,0.01-2.15-0.04-2.63-0.6c-0.78-0.89,0.35-1.65,0.91-2.38
		c1.78-2.35,3.82-4.93,0.71-7.46c-2.75-2.23-5.75-1.15-8.32,0.82c-3.55,2.73-5.76,11.91-4.16,16.85c1.4,4.33,6.32,7.23,12.33,7.16
		c11-0.14,20.75-7.18,21.17-20.75c0.44-14.25-10.61-23.62-21.04-28.13c-1.43-0.62-2.91-1.09-4.37-1.63
		C773.11,840.91,773.08,840.51,773.04,840.1z"/>
	<path class="st10" d="M777.06,618.57c-0.08,3.38,2.84,4.38,4.9,5.89c12.26,8.95,18.4,23.34,14.19,36.69
		c-4.94,15.67-18.22,28.92-36.83,28.65c-8.77-0.13-16.35-2.46-23.6-7.31c-11.01-7.36-14.68-27.05-3.23-38.67
		c8.76-8.9,17.82-11.05,26.41-5.93c4.97,2.96,7.41,8.71,5.7,13.39c-1.61,4.41-6.86,7.09-12.53,6.36c-0.57-1.89,1.58-2.05,2.12-3.3
		c1.08-2.51,1.9-5.03-0.71-6.88c-2.28-1.62-4.78-1.42-6.96,0.58c-4.24,3.89-7.69,11.46-3.66,19.61c1.86,3.77,9.33,5.79,15.56,4.52
		c18.72-3.82,20.49-24.47,12.06-35.73c-5.81-7.77-13.31-12.93-22.86-14.99c-0.37-0.08-0.62-0.66-0.93-1.01
		c1.9-1.52,4.17-1.18,6.35-1.23C761.05,619.06,769.08,619.64,777.06,618.57z"/>
	<path class="st20" d="M542.75,838.18c-0.24-2.45-2.21-1.71-3.59-1.86c-4.29-0.47-8.63-0.61-12.8-1.87c2.35-1.96,2.5-5.05,3.78-7.56
		c7.5-14.71,14.8-29.51,22.17-44.28c6.06-1.28,12.12-2.56,18.18-3.83c-10.01,11.4-17.14,24.31-20.53,39.19
		c-0.25,1.08-0.63,2.23-0.48,3.27C550.54,828.23,547.62,833.58,542.75,838.18z"/>
	<path class="st21" d="M585.88,319c7.92-1.79,14.19-6.92,21.17-10.58c18.14-9.51,36.11-19.37,54.15-29.08
		c2.02,2.19,3.62,4.76,6.5,6.09c1.67,0.78,2.32,2.53,2.93,4.21c0.64,1.8,1.1,3.68,2.12,5.32c2.11,3.39,4.94,4.64,7.45,3.31
		c3.76-1.98,5.29-5.32,3.84-8.95c-1.3-3.25-1.93-6.21,0.1-9.53c1.79-2.92,1.07-5.74-1.7-8.04c-1.19-0.99-3.42-1.45-2.74-3.85
		c2.33,0.54,4.01-0.92,5.61-2.11c3.53-2.63,6.01-1.13,7.93,1.9c5.11,8.08,9.89,16.37,15.11,24.37
		c9.21,14.11,17.26,29.11,29.18,41.24c8.88,9.04,19.99,14.59,32.05,18.26c2.28-0.59,3.94,0.79,5.72,1.79
		c0.39,0.34,0.78,0.69,1.17,1.03c3.33,6.32,3.46,13.47,5.15,20.21c1.73,6.92,3.1,13.94,4.61,20.92c-4.9,9.89-11.21,18.77-19.11,26.5
		c-1.89,1.69-3.54,3.91-6.61,3.02c-0.32-0.43-0.53-0.9-0.67-1.41c-0.78-8.21,0.44-16.47-0.71-24.66c-0.94-4.84-1.42-9.8-3.31-14.4
		c-2.72-6.65-8.95-7.81-13.95-2.61c-2.13,2.21-3.49,4.93-4.54,7.79c-2.61,7.11-3.64,14.48-3.84,22.01
		c-0.14,5.41-1.14,6.24-6.42,4.88c-14.94-3.87-29.81-8.02-44.94-11.1c-2.33-0.47-4.66-1.14-7.06-0.41
		c-1.61,0.53-2.73,1.87-4.25,2.56c-11.22-0.59-16.39,6.41-19.7,15.75c-0.1,0.3-0.3,0.56-0.47,0.83c-0.54,0.79-1.26,1.4-2.02,1.97
		c-4.7,4.18-5.35,7.02-2.58,12.52c4.9,9.73,13.16,16.57,20.74,24.01c1.4,1.37,3.67,2.39,2.15,5.04c-0.45,0.46-0.93,0.98-1.54,1.08
		c-11.06,1.81-22.11,3.81-33.38,2c-2.42-2.21-1.54-4.98-1.2-7.61c1.19-9.05-0.67-11.3-9.62-12.75c-7.82-1.27-15.53-1.06-23.27,0.39
		c-4.41,0.83-8.33,2.24-10.19,6.84c-0.36,0.89-1.06,1.59-2.1,1.78c-2.81-0.22-5.66-0.85-8.42-0.57c-4.29,0.43-5.41-1.72-5.77-5.37
		c-0.49-4.99-1.26-9.95-1.91-14.92c0.84-1.53-0.12-3.74,1.83-4.84c5.47-13.27,8.47-26.34,4.33-41.13
		c-4.55-16.26-11.7-31.2-18.82-46.26c-4.14-8.76-3.91-9.75,4.9-14.17c2.67,1.69,5.27,3.36,8.53,3.98c3.12,0.59,4.82,3.51,7.01,5.56
		c4.12,3.85,7.2,4.4,9.95,1.7c2.77-2.72,2.76-7.29-0.48-10.72c-2.41-2.56-3.59-5.18-2.57-8.62
		C586.77,322.41,585.48,320.77,585.88,319z"/>
	<path class="st3" d="M766.67,421.41c0.61-3.06,3.57-4.35,5.38-6.33c4.69-5.14,7.89-11.13,11.47-16.92c0.53-0.86,1.02-1.6,2.12-1.66
		c0.65,0.04,1.31,0.22,1.68,0.74c5.54,7.83,11.66,15.31,14.73,24.62c0.74,2.71,1.69,5.42-0.08,8.1c-3.67-0.08-5.39,2.55-6.72,5.26
		c-5.36,10.94-7.35,22.57-6.91,34.71c0.12,3.2,1.52,4.97,4.29,6.01c-0.95,2.28-1.9,4.56-2.85,6.84c-3.01,6.26-4.89,13.03-8.65,18.95
		c-2.6-11.14-5.21-22.27-7.81-33.41c-1.28-1.81,0.27-2.94,1.05-4.22c1.82-2.99,3.82-5.88,5.26-9.09c0.68-1.52,1.64-3.11,0.51-5.03
		c-4.06,1.73-4.71,7.43-9.54,8.06c-0.38-0.26-0.65-0.61-0.83-1.03c-0.67-3.68,1.98-5.82,3.89-8.28c3.26-4.2,7.25-7.92,9.45-13.57
		c-2.94-0.01-3.94,2.02-5.45,3.17c-3.61,2.74-5.49,7.38-10,9.14c-0.35-0.29-0.62-0.64-0.78-1.07c-0.63-2.55,1.01-4.13,2.44-5.84
		c3.6-4.3,6.96-8.77,9.08-14.11c-4.76,1.35-7.21,5.39-10.53,8.35c-1.34,1.19-2.44,3.4-4.56,1.01c-0.33-0.61-0.48-1.26-0.48-1.95
		c0.23-2.82,2.21-4.75,3.58-6.98C767.54,425.05,768.57,423.32,766.67,421.41z"/>
	<path class="st22" d="M679.69,267.91c1.06,0.92,2.03,1.98,3.2,2.73c3.78,2.41,4.61,6,2.47,9.43c-2.01,3.22-1.55,5.77-0.21,8.8
		c1.93,4.38-0.09,8.67-4.97,10.99c-2.8,1.34-7.27-0.52-8.76-4.49c-1.79-4.78-3.14-9.54-8.39-11.84c-1.56-0.68-1.69-2.57-1.83-4.19
		c2.9-5.87,0.74-9.42-4.95-11.91c-3.03-1.33-3.86-3.74-0.67-6.17c0.14,1.03-0.08,2.16,0.77,3.02c7.98,2.33,10.74,6.11,9.18,12.56
		c-1.13,2.37-0.8,4.28,1.71,5.54c0.85,0.43,1.84,0.84,2.28,1.66c2.31,4.3,5.15,2.33,7.81,0.64c2.63-1.67,3.68-4.66,5.15-7.22
		c0.82-1.42-0.38-2.7-1.49-3.66c-1.69-1.44-3.44-2.82-4.12-5.08c-0.67-4.58,0.89-8.25,4.51-11.07c0.1-1.13,0.51-1.99,1.81-2.07
		c1.87,2.31-0.01,4.1-0.88,5.99C681.35,263.65,679.32,265.28,679.69,267.91z"/>
	<path class="st23" d="M775.29,353.36c-2.08-0.05-4.02-0.54-5.73-1.79c-6.83-8.74-13.96-17.29-18.51-27.57
		c-5.75-13.01-9.38-26.56-10.17-40.8c-0.08-1.36-1.04-3.85,1.16-3.95c2.01-0.08,1.57,2.35,1.62,3.86
		c0.64,22.37,8.57,42.07,21.79,59.85c0.67,0.9,1.15,1.93,2.32,2.48c-5.55-15.61-6.87-31.15-2.84-47.17
		C763.09,317.7,765.16,336.32,775.29,353.36z"/>
	<path class="st11" d="M587.64,459.53c2.7-10.59,11.78-10.04,19.72-10.99c6.94-0.83,13.91-0.12,20.69,1.65
		c5.45,1.42,6.86,3.5,6.53,9.19c-0.21,3.63-0.58,7.24-0.88,10.86c0.72,0.94,0.89,2.02,0.79,3.16c-1.66,19.63-2.99,39.28-5.19,58.86
		c-0.14,1.73,0.07,3.58-1.56,4.82c-0.03,5.68-4.33,6.71-8.53,7.85c-6.56,1.01-13.15,1.32-19.8,1.33c-4.81,0-8.65-1.24-10.84-5.84
		c-4.76-19.7-3.68-39.76-3.73-59.75C584.83,473.49,587.2,466.64,587.64,459.53z"/>
	<path class="st24" d="M585.88,319c2.01,1.38,2.48,3.53,1.65,5.46c-1.43,3.31-0.16,5.43,2.21,7.46c2.54,2.17,3.16,5.08,2.72,8.22
		c-0.41,2.89-2.04,4.94-4.79,6.04c-2.88,1.15-5.32,0.19-7.4-1.78c-3.86-3.65-7.05-8.21-13.2-8.37c-2.05-0.05-2.42-2.27-3.27-3.76
		c0.13-6.92,0.11-6.85-6.69-8.45c-2.57-0.6-6.61-0.13-4.84-5.05c0.66,0.36,1.31,0.71,1.97,1.07c5.23,0.92,10.98,0.76,13.56,6.97
		c0.63,1.52,1.9,0.62,2.86,0.18c3.46-1.59,6.73-3.51,10.39-5.93c-2.84-1.91-6.83-2.45-6.82-6.57c0.01-3.11-1-6.36,1.08-9.24
		c-0.33-0.9-0.65-1.8-0.98-2.7c3.07-0.18,3.81,1.7,3.68,4.25c-0.4,7.85-0.41,7.84,6.43,11.02C584.97,318.08,585.4,318.61,585.88,319
		z"/>
	<path class="st23" d="M573.38,433.84c-0.61,1.61-1.22,3.23-1.83,4.84c-2.97-16.74-7.35-33.24-9.04-50.23
		c3.43,4.14,3.01,9.33,4.1,14.06C569.01,412.91,570.44,423.54,573.38,433.84z"/>
	<path class="st25" d="M594.68,205.44c1.61-0.58,2.16,0.36,2.76,1.02c7.75,8.51,17.43,11.16,28.54,9.43
		c1.08-0.17,2.37-0.81,2.59,0.91c0.16,1.3-1.02,1.38-1.98,1.45c-10.23,0.79-20.09,0.07-28.23-7.26
		C596.73,209.52,594.94,208.12,594.68,205.44z"/>
	<path class="st26" d="M607.06,169.13c1.85,0.22,3.54,0.75,3.24,2.74c-0.3,1.96-2.02,2.61-3.93,2.52c-1.63-0.07-2.91-0.94-2.83-2.51
		C603.64,169.78,605.38,169.22,607.06,169.13z"/>
	<path class="st27" d="M638.05,187.11c-1.67-0.27-3.2-0.69-3.01-2.54c0.21-2.06,1.78-2.86,3.72-2.88c1.61-0.02,2.88,0.6,2.77,2.44
		C641.39,186.34,639.67,186.82,638.05,187.11z"/>
	<path class="st17" d="M627.75,537.08c0.12-1.47,0.23-2.94,0.35-4.4c0.87-1.09,2.12-1.28,3.39-1.44
		c17.39-2.24,34.02-7.34,50.42-13.33c0.3-0.11,0.59-0.24,0.89-0.34c5.51-1.93,6.71-0.99,6.33,5.02c-0.22,0.49-0.48,0.96-0.78,1.41
		l-0.23-0.1c-9.55,5.05-19.82,8.01-30.25,10.59c-8.45,2.09-17.11,2.92-25.62,4.63C630.5,539.46,628.27,539.91,627.75,537.08z"/>
	<path class="st5" d="M681.39,257.65c-1.25,3.81-4.72,6.93-3.55,11.49c0.18,0.44,0.45,1.09,0.16,1.33
		c-4.04,3.2-7.92,6.81-13.69,6.22c2.24-3.85,0.5-6.47-2.64-8.71c-1.76-1.26-4.03-1.77-5.33-3.7
		C664.54,261.49,672.89,259.29,681.39,257.65z"/>
	<path class="st28" d="M575.29,305.26c0.01,3.49-0.47,7.06,0.17,10.43c0.77,4.07,5.77,2.44,8.64,5.27
		c-5.75,3.18-11.18,6.18-17.19,9.51c0.27-6.78-3.84-8.35-8.98-8.83c-1.39-0.13-2.87-0.36-3.7-1.79c5.52-3.99,11.03-8.02,16.58-11.96
		C572.22,306.89,573.79,306.13,575.29,305.26z"/>
	<path class="st29" d="M688.35,522.92c-0.22-6.05-0.16-5.9-5.89-3.82c-17.65,6.42-35.45,12.26-54.37,13.57
		c1.87-20.81,3.74-41.62,5.61-62.44c10.6,0.43,21.07-1.17,31.6-1.96c1.45-0.11,2.77-0.62,3.74-1.79c6.23-2.4,12.85-3.46,19.11-5.86
		c15.5-5.95,29.32-14.51,41.64-25.6c4.04-3.64,6.88-8.38,11.03-11.9c1.58-1.34,2.95-4.03,5.54-2.24c2.57,1.78,2.04,4.5,0.94,6.93
		c-2.45,5.39-5.96,10.15-9.18,15.08c-1.04,1.59-2.21,3.11-2.62,5.25c3.88-2.17,6.95-5.33,9.69-8.77c3.5-4.38,7.63-8.11,11.56-12.06
		c1.12-1.12,2.33-2.22,4.12-2.08c1.93-1.28,3.87-2.56,5.8-3.84c3.81-0.03,3.2,1.94,1.94,4.25c-1.56,2.86-4.13,5.12-4.99,8.4
		c-3.74,6.15-8.89,11.16-13.99,17.65c5.52-5.67,9.46-11.29,14.38-16.02c2.76,0.38,3.21-2.38,4.76-3.61c2.71-2.16,4.72-5.15,7.8-6.93
		c1.12-0.65,2.33-1.29,3.47-0.13c1.05,1.08,0.1,2.14-0.4,3.01c-2.74,4.84-5.99,9.34-9.68,13.49c-1.28,1.44-2.61,2.8-2.55,4.91
		c-2.88,2.67-4.71,6.27-7.6,8.65c3.11-1.94,4.18-6.22,7.92-7.84c3.92-4.11,7.76-8.29,11.8-12.28c1.11-1.1,2.72-2.82,4.48-1.23
		c1.61,1.45-0.09,2.94-0.77,4.21c-2.33,4.35-5.7,7.92-8.81,11.7c-1.77,2.16-4.13,4.01-4.04,7.22c-1.1,0.87-1.86,2.01-2.58,3.19
		c-0.45,0.45,0.45,0.83-0.06,0.44c0.86-1.02,1.55-2.23,2.89-2.76c3.54-2.08,4.99-6.12,8.09-8.61c0.72-0.58,1.31-1.65,2.34-1.32
		c1.43,0.46,0.97,1.87,0.9,2.88c-0.38,5.7-4.11,9.82-6.96,14.34c-0.67,1.07-1.66,1.91-1.68,3.29c-4.87,2.34-7.89,6.75-11.57,10.42
		c-11.72,10.64-25.66,17.73-39.69,24.59c-8.87,4.34-17.82,8.55-27.02,12.17c-2.7,1.06-4.83,2.36-4.96,5.66
		C690.07,522.04,689.69,523.08,688.35,522.92z"/>
	<path class="st30" d="M688.35,522.92c-0.19-6.36,4.55-8,9.23-9.94c17.51-7.22,34.58-15.33,50.69-25.37
		c4.57-2.85,8.45-6.75,13.49-8.87c-5.69,7.87-13.52,13.44-21.31,18.81c-16.15,11.12-33.55,19.98-52.1,26.45
		C688.35,523.63,688.35,523.28,688.35,522.92z"/>
	<path class="st1" d="M760.88,425.25c-7.77,6.65-14.17,14.65-21.45,21.78c-1.66,1.62-4.19,4.75-5.57,3.53
		c-2.35-2.09,0.88-4.43,2.1-6.45c2.8-4.63,5.89-9.09,8.74-13.69c0.91-1.47,1.46-3.16,2.16-4.76c0.73-1.69,0.3-3.4-1.03-4.3
		c-1.64-1.11-2.54,0.78-3.39,1.73c-7.77,8.67-15.75,17.08-25.45,23.7c-13.56,9.25-28.21,15.94-44.21,19.66
		c-1.24,0.29-2.47,0.66-3.72,0.05c-6.53-6.48-13.69-12.36-19.29-19.74c-1.72-2.27-3.38-4.63-4.68-7.15
		c-3.24-6.29-2.56-9.38,2.72-14.26c1.98,0.33,3.36,1.71,4.87,2.84c9.08,6.82,18.84,8.57,29.48,3.96
		c-10.15,4.41-19.6,2.92-28.45-3.34c-1.66-1.17-3.46-2.33-3.86-4.61c0.68-3.3,2.39-6.12,3.98-9.02c3.73-6.78,9.31-9.54,16.93-8
		c2.15,0.18,2.82-1.19,3.11-2.97c2.09-1.23,4.23-0.82,6.47-0.37c15.89,3.19,31.54,7.34,47.14,11.67c3.69,1.02,4.93,0.57,4.81-3.6
		c-0.22-7.83,0.98-15.55,3.8-22.92c1.8-4.7,4.26-8.94,9.19-11.06c4.49-1.93,8.14-0.74,10.52,3.5c2.96,5.26,3.64,11.13,4.31,16.99
		c0.72,7.24,0.1,14.49,0.34,21.73c0.06,1.71-0.44,3.47,0.45,5.11L760.88,425.25z"/>
	<path class="st31" d="M649.84,424.19c9.62,9.03,20.44,11.94,32.92,6.52c0.97-0.42,2.24-1.52,2.91-0.15
		c0.9,1.84-1.17,1.88-2.12,2.34c-11.9,5.81-25.19,2.97-35.75-7.57C648.48,424.96,649.16,424.58,649.84,424.19z"/>
	<path class="st29" d="M760.89,425.26c-1.76-2.28-0.76-4.9-0.8-7.36c-0.1-6.49,0-12.99,0.01-19.49c1.73,5.23,0.6,10.62,0.83,15.93
		C761.09,417.97,760.91,421.62,760.89,425.26z"/>
	<path class="st32" d="M673.86,404.21c0.56,1.44,1.8,3.11,0.15,4.29c-1.05,0.75-2.28-0.54-3.26-1.32
		C671.4,405.77,672.41,404.77,673.86,404.21z"/>
	<path class="st33" d="M764.01,435.69c-3.62,7.36-9.84,12.44-15.81,17.77c4.32-7.13,9.22-13.78,15.42-19.4
		C763.75,434.6,763.88,435.14,764.01,435.69z"/>
	<path class="st34" d="M767.74,447.24c-2.74,4.19-6.08,7.81-10.18,10.76c3-4.11,4.61-9.37,9.86-11.57
		C767.52,446.7,767.62,446.97,767.74,447.24z"/>
	<path class="st35" d="M770.65,457.73c-0.59,2.52-2.42,3.96-5.03,5.69c0.82-3.32,1.05-6.18,4.79-6.56
		C770.45,457.16,770.54,457.45,770.65,457.73z"/>
	<path class="st21" d="M664.32,276.69c4.87-1.87,9.66-3.87,13.52-7.55c0.3,0.37,0.58,0.75,0.9,1.09c6.14,6.64,6.21,6.69,1.58,13.94
		c-1.32,2.07-4.29,1.88-6.06,3.42c-3.52,3.07-3.56-0.89-4.86-2.31c-0.75-0.83-1.56-1.5-2.68-1.88
		C663.17,282.2,662.56,279.85,664.32,276.69z"/>
	<path class="st21" d="M683.86,294.14c0.04-2.85-2.36-4.18-3.86-6.28C684.2,288.21,684.49,288.69,683.86,294.14z"/>
	<path class="st21" d="M586.79,333.55c2.91,0.73,4.97,2.11,4.49,6.34C589.7,337.25,588.63,335.11,586.79,333.55z"/>
	<path class="st36" d="M746.12,387.24c4,8.31,1.87,15.78-0.38,23.21c-0.73,2.41-1.67,4.77-2.64,7.1c-1.08,2.6-2.99,2.91-5.36,1.72
		c-2.62-1.31-1.41-3.12-0.64-4.84C740.96,405.9,744.47,397.26,746.12,387.24z"/>
	<path class="st37" d="M705.17,417.41c0.3,0.41,0.9,0.86,0.96,1.36c0.43,4.06,3.37,5.88,6.5,7.59c0.66,0.36,1.56,0.68,1.26,1.71
		c-0.3,1-1.15,1.07-1.91,0.69c-3.78-1.89-7.16-4.19-8.15-8.7C703.58,418.99,703.3,417.79,705.17,417.41z"/>
	<path class="st9" d="M828.67,593.14c-3.73,2.43-6.29,6.15-9.9,8.78c-10.96,7.99-23.03,10.68-36.31,8.6
		c-0.7-0.11-1.48,0.35-2.22,0.55c-2.32-0.94-2.98-3.11-3.75-5.16c-2.51-6.67-3.78-13.63-4.62-20.68c-1.25-8.2-1.84-16.48-2.86-24.7
		c-2.54-20.59,3.25-39.48,10.88-58.08c2.5-5.17,4.66-10.49,6.92-15.77c0.69-1.6,1.35-3.26,2.81-4.38c1.22-0.62,2.49-0.51,3.7-0.09
		c16.74,5.83,33.64,11.2,50.22,17.49c0.6,0.23,1.06,0.68,1.43,1.21c-1.61,3.71-5.38,6.22-5.81,10.58
		c-5.39,8.59-11.4,16.78-16.09,25.81c-4.44,8.55-6.45,17.52-5.06,27.14c0.19,1.28,0.35,2.53-0.57,3.63
		c0.7,7.71,3.24,14.83,7.09,21.49C825.47,591.17,826.49,592.87,828.67,593.14z"/>
</g>
</svg>
