<?xml version="1.0" encoding="utf-8"?>
<!-- Generator: Adobe Illustrator 24.3.0, SVG Export Plug-In . SVG Version: 6.00 Build 0)  -->
<svg version="1.1" id="Layer_1" xmlns="http://www.w3.org/2000/svg" xmlns:xlink="http://www.w3.org/1999/xlink" x="0px" y="0px"
	 viewBox="0 0 1728 1180" style="enable-background:new 0 0 1728 1180;" xml:space="preserve">
<style type="text/css">
	.st0{fill:#00C897;}
	.st1{fill:#FDFDFC;}
	.st2{fill:#FDC390;}
	.st3{fill:#32165A;}
	.st4{fill:#FDC490;}
	.st5{fill:#230950;}
	.st6{fill:#240951;}
	.st7{fill:#250A51;}
	.st8{fill:#260953;}
	.st9{fill:#250A52;}
	.st10{fill:#341656;}
	.st11{fill:#270D54;}
	.st12{fill:#260C52;}
	.st13{fill:#2A1056;}
	.st14{fill:#2B1157;}
	.st15{fill:#2B1255;}
	.st16{fill:#270C53;}
	.st17{fill:#280C53;}
	.st18{fill:#250954;}
	.st19{fill:#270B53;}
	.st20{fill:#270A52;}
	.st21{fill:#260A53;}
	.st22{fill:#250A54;}
	.st23{fill:#FEFEFD;}
	.st24{fill:#3E1E5A;}
	.st25{fill:#FFFFFF;}
	.st26{fill:#FEC38F;}
	.st27{fill:#230751;}
	.st28{fill:#230850;}
	.st29{fill:#270953;}
	.st30{fill:#240952;}
	.st31{fill:#250952;}
	.st32{fill:#351C5E;}
	.st33{fill:#250951;}
	.st34{fill:#E7CFBB;}
	.st35{fill:#250B52;}
	.st36{fill:#260C53;}
	.st37{fill:#260B52;}
	.st38{fill:#270C54;}
	.st39{fill:#260B54;}
	.st40{fill:#270D53;}
	.st41{fill:#2D1357;}
	.st42{fill:#2C1357;}
	.st43{fill:#270E54;}
	.st44{fill:#2E1055;}
</style>
<g>
	<path class="st0" d="M-24.81,966.95h1750v224h-1750L-24.81,966.95L-24.81,966.95z"/>
	<path class="st0" d="M838,351.34c-324.35-13.14-727.66-29.45-952.43,0c-42.28,258.44-114.6,765.74-65.67,727.45
		c61.16-47.87,784.5-48.57,1172.48-28.51c310.38,16.05,753.32-61.33,935.98-102.03l181.15-788.3
		C1941.25,215.12,1161.5,364.45,838,351.34z"/>
	<g>
		<g>
			<path class="st1" d="M1778.99,763.79c0,0,4.13-49.79-67.22-45.47c0,0-17.54-37.72-47.81-36.52c0,0,9.37-77.6-64.14-83.84
				c-73.51-6.25-75.43,68.95-75.43,68.95l3.42-27.73c0,0-22.4-38.33-77.89-14.07s-55.73,57.42-55.73,57.42s-40.12-11.05-58.14,52.85
				s16.34,48.29,16.34,48.29l164.8,63.66l162.31-22.58l78.88,4.89l31.34-15.93l5.7-40.37L1778.99,763.79z"/>
			<path class="st2" d="M1675.01,947.03c2.69,6.97,11.14,10.25,11.86,18.49c-3.46,3.58-8.03,3.12-12.34,3.12
				c-77.57,0.09-155.15,0.09-232.72,0c-4.31,0-8.87,0.45-12.35-3.1c3.94-9.58,12.63-14.92,20.66-22.31
				c-39.19-19.03-69.85-46.25-90.22-84.28c2.39-3.2,5.93-3.17,9.37-3.18c75.75-0.08,151.51-0.02,227.26,0.08
				c1.25,0.22,0.14,1.56,0.28,0.33c0.04-0.35-0.99-0.48-1.66-0.48c-75.46-0.03-150.91,0.03-226.37-0.05
				c-4.87-0.01-10.16,1.25-14.15-3.07c1.02-4.91-3.42-8-4.12-12.33c1.14-2.63,3.67-3.29,6.03-3.91
				c25.75-6.75,47.93-20.46,69.42-35.51c2.78-1.95,5.3-4.45,9.07-4.29c16.76,8.98,34.32,14.11,53.67,13.42
				c11.81-0.42,23.16-2.46,33.52-7.54c6.77-3.32,10.32-2.15,14.74,3.31c16.39,20.23,40.31,26.01,63.8,15.69
				c13.84-6.08,23.38-16.58,28.63-30.6c1.76-4.7,3.54-5.67,7.99-3.72c14.37,6.32,29.07,6.63,43.62,0.91
				c7.16-2.81,7.91,3.25,10.2,6.59c13.8,20.12,37.59,27.51,60.14,18.89c18.89-7.22,33.29-30.59,30-42.91
				c1.57-2.15,2.04-6.33,6.36-3.46c3.4,6.3,1.72,13.02,0.72,19.3c-2.5,15.76-5.51,31.47-11.12,46.52c-1.3,3.13-2.88,6.09-5.42,8.43
				c-4.55,4.94-4.25,12.77-10.13,16.91c-3.18-3.67-7.5-2.54-11.44-2.55c-33.5-0.09-67-0.03-100.5-0.03
				c33.14,0.06,66.28,0,99.42,0.07c4.32,0.01,8.85-0.74,12.59,2.43c-1.75,9.55-8.31,16.53-13.5,24.06
				c-19.06,27.61-45.3,46.61-75.24,60.92c-3.91,3.59-8.81,2.74-13.4,2.76c-31.92,0.1-63.84,0.03-95.76,0.08
				c-3.36,0.01-6.78-0.49-10.09,1.07C1594.21,947.46,1634.61,948.3,1675.01,947.03z"/>
			<path class="st3" d="M1429.46,965.54c46.66,0.12,93.32,0.34,139.98,0.35c39.14,0,78.29-0.24,117.43-0.37
				c53.52,0.13,107.05,0.26,160.57,0.39c6.89,0.02,13.78-0.12,20.66,0.03c2.9,0.06,7.38-0.91,7.16,3.64
				c-0.2,4.33-4.62,2.99-7.53,3.27c-1.24,0.12-2.5,0.01-3.75,0.01c-186.28,0-372.56,0.01-558.84-0.13c-4.21,0-12,2.56-11.95-3.07
				c0.06-6.86,7.99-3.57,12.33-3.61C1346.83,965.67,1388.14,965.66,1429.46,965.54z"/>
			<path class="st4" d="M1335.3,768.29c6.42-0.58,11.31,1.13,16.3,6.1c18.29,18.18,39.89,22.49,63.83,12.26
				c7.32-3.13,9.55,3.49,13.85,6.25c0.63,3.08-1.73,4.56-3.62,5.94c-21.42,15.64-43.8,29.44-70.08,35.5
				c-3.24,0.75-6.62,2.2-9.82-0.32c-2.42-6.95-8.85-13.06-4.54-21.43c11.44-4.19,23.49-0.23,37.15-2.86
				c-14.16-2.6-26.7,0.73-38.78-2.4c-9.46-9.45-8.06-21.98-9.56-33.7C1330.79,770.85,1332.46,768.99,1335.3,768.29z"/>
			<path class="st5" d="M1400.06,677.89c8.41,2.61,16.13,4.26,22.65,8.82c4.45,3.11,5.17-1.28,6.91-3.39
				c11.4-13.8,28.57-19.19,44.61-13.69c2.88,0.99,8.07,1.26,6.45,6.01c-1.61,4.74-5.41,0.91-7.93,0.17
				c-14.57-4.27-29.22,0.1-38.03,11.32c-2.95,3.76-3.24,6.19,0.42,10.06c9.31,9.82,14.59,21.71,15.11,35.43
				c0.1,2.67,1.04,6.68-2.81,6.8c-3.78,0.11-2.97-3.92-3.3-6.6c-3.03-24.61-19.04-42.82-41.56-47.32
				c-22.91-4.57-45.09,5.66-56.5,25.94c-3.76,6.68-5.46,13.92-6.54,21.38c-0.38,2.62,0.62,6.9-3.22,6.59
				c-4.31-0.35-2.94-4.75-2.82-7.68c1.08-26.31,23.43-50.15,50.86-53.1c6.97-0.75,9.79-3.6,12.86-9.33
				c17.19-32.15,44.03-50.29,80.58-53.62c0.94-0.09,1.9-0.31,2.81-0.16c2.73,0.46,7.31-1.73,7.26,3.18c-0.04,3.9-4.14,2.8-6.77,2.94
				c-15.61,0.82-30.16,5.16-43.51,13.28C1420.82,645.15,1408.35,659.19,1400.06,677.89z"/>
			<path class="st6" d="M1335.3,768.29c-1.16,1.23-2.32,2.45-3.48,3.68c-3.82,1.84-6.47-1.25-9.51-2.41
				c-13.52-5.16-24.52,0.85-27.18,15.03c-4.68,24.94,11.65,45.63,37,46.99c4.92,0.26,10.06-0.92,14.66,1.9
				c31.73-4.94,57.64-21.7,82.5-40.59c1.91,1.21,3.83,2.43,5.74,3.64c-25.24,20.25-52.6,36.39-84.53,43.7
				c-33.73,6.81-61.03-11.18-65.07-42.87c-0.6-4.69-0.19-9.28,0.72-13.92c2.15-11.08,6.97-20.59,18.42-23.74
				C1316.03,756.56,1326.73,759.44,1335.3,768.29z"/>
			<path class="st7" d="M1668.79,665.41c-0.28,2.32,1.39,6.69-3.22,6.74c-3.89,0.04-2.84-4.07-3.07-6.7
				c-3.08-35.55-30.57-62.21-65.05-63.07c-35.66-0.9-63.96,23.55-69.39,59.48c-0.53,3.5,1.86,10.43-3.48,10.06
				c-5.97-0.42-3.09-7.2-2.7-10.91c3.97-37.75,37.44-66.43,75.7-65.27C1635.33,596.86,1667.24,627.87,1668.79,665.41z"/>
			<path class="st8" d="M1354.62,852.57c81.43-0.02,162.86-0.04,244.3-0.05c1.57,0,3.14-0.05,4.7,0.07
				c1.97,0.15,4.01,0.79,3.81,3.14c-0.19,2.19-2.15,2.82-4.19,2.84c-2.51,0.02-5.01,0.04-7.52,0.04c-75.17,0-150.34,0-225.51,0.01
				c-3.44,0-6.87,0.2-10.31,0.31C1356.73,857.99,1350.26,859.77,1354.62,852.57z"/>
			<path class="st9" d="M1786.12,767.04c-1.36,1.5-2.16,3.76-4.79,3.53c-2.31-1.73-2.07-4.3-2.34-6.78
				c-2.46-23.15-18.72-39.65-41.63-42.47c-2.78-0.34-7.51,1.08-7.08-3.64c0.4-4.39,4.82-2.71,7.66-2.52
				c20.96,1.42,38.35,15.83,45.45,37.5c1.11,3.4,1.21,7.04,6.98,6.11c17.71-2.84,30.66,11.5,31.83,30.06
				c1.53,24.4-14.1,45.06-38.31,50.66c-3.94,0.91-8.01,1.26-12.02,1.87c-0.03-2.96,1.15-5.42,3.1-7.57c4.04-3.2,9.1-3.99,13.71-5.83
				c15.59-6.21,23.65-18.06,24.63-34.43C1814.33,776.54,1805.59,768.39,1786.12,767.04z"/>
			<path class="st10" d="M1675.01,947.03c-2.05,3.03-5.14,3.03-8.34,3.03c-38.14-0.04-76.28,0-114.42-0.11
				c-3.04-0.01-8.08,1.55-7.82-3.77c0.22-4.38,4.82-2.94,7.66-2.94c40.33-0.09,80.66-0.06,120.99-0.06
				C1673.71,944.45,1674.36,945.74,1675.01,947.03z"/>
			<path class="st11" d="M1663.93,678.14c28.24,1.11,53.78,26.61,54.7,54.1c0.09,2.67,1.1,6.72-2.5,7.11
				c-4.76,0.53-3.5-4.22-3.92-6.92c-4.43-28.11-20.46-44.12-48.25-48.06c-2.57-0.36-6.77,0.84-6.71-3.08
				C1657.31,676.63,1661.74,678.5,1663.93,678.14z"/>
			<path class="st12" d="M1596.5,716.41c-1.71,4.52-4.88,2.43-7.83,1.94c-18.24-3.05-33.99,1.99-47.18,14.89
				c-5.91,5.78-9.91,12.81-12.48,20.62c-0.73,2.22-1.58,4.64-4.17,4.03c-3.43-0.81-2.37-3.6-1.8-6.13
				c6-26.67,42.84-47.72,68.97-39.32C1594.04,713.1,1596.29,713.64,1596.5,716.41z"/>
			<path class="st13" d="M1704.67,749.92c11.98,0.58,22.54,4.48,30.64,13.8c1.58,1.81,4.05,3.89,1.37,6.32s-4.37-0.33-6.18-1.95
				c-14.75-13.24-26.63-14.97-43.48-6.28c-2.39,1.23-5.06,4.08-7.03,0.28c-1.86-3.58,2.04-4.72,4.18-6.12
				C1690.34,751.96,1697.35,750.48,1704.67,749.92z"/>
			<path class="st14" d="M1622.66,763.51c0.01,1.4-0.65,2.37-1.93,2.85c-2.7,1-3.96-1.08-5.42-2.63
				c-9.4-9.94-20.81-13.53-34.06-10.21c-3.84,0.96-7.37,3.27-10.97,5.07c-1.78,0.89-3.64,1.68-5.09-0.03
				c-1.43-1.69-0.54-3.38,0.84-4.93c11.79-13.26,49.35-7.8,55.96,8.17C1622.22,762.36,1622.44,762.94,1622.66,763.51z"/>
			<path class="st15" d="M1397.54,727.71c-15.33-0.04-27.8,9.1-33.25,24.23c-0.94,2.61-0.38,7.57-4.93,6.16
				c-4.07-1.26-1.82-5.46-1.11-8.19c4.28-16.43,20.94-28.72,38.67-28.52c3.41,0.04,9.05-1.26,8.97,3.8
				C1405.82,730.33,1400.56,727.26,1397.54,727.71z"/>
			<path class="st16" d="M1576.1,659.06c13.75,0.04,23.7,4.52,31.72,13.26c1.65,1.8,3.84,4.05,1.53,6.49
				c-2.68,2.83-4.24-0.27-5.98-1.82c-15.41-13.68-25.76-15.13-44.17-5.99c-2.3,1.14-4.6,3.05-6.46,0.14
				c-1.98-3.1,1.18-4.43,3.09-5.68C1562.51,661.09,1569.87,658.79,1576.1,659.06z"/>
			<path class="st17" d="M1562.97,836.03c-50.68,0-101.36,0-152.04-0.01c-2.5,0-5.01-0.03-7.5-0.2c-1.8-0.12-2.89-1.43-2.88-3.06
				c0.01-1.7,1.29-2.82,3.05-2.94c2.18-0.15,4.37-0.18,6.56-0.18c101.99,0,203.97,0,305.96,0.01c1.88,0,3.76-0.03,5.63,0.09
				c1.88,0.12,4.05,0.36,4.23,2.72c0.22,2.94-2.07,3.45-4.39,3.51c-2.5,0.07-5,0.06-7.51,0.06
				C1663.7,836.03,1613.34,836.03,1562.97,836.03z"/>
			<path class="st1" d="M1786.12,767.04c12.76-5.06,24.48,1.34,28.38,15.5c5.18,18.78-4.76,39.03-23.26,47.11
				c-5.16,2.26-10.54,3.94-16.27,4.15c5.03-19.65,11.22-39.05,11.95-59.58C1787.02,771.68,1787.14,769.35,1786.12,767.04z"/>
			<path class="st18" d="M1614.6,875.28c40.34,0,80.68,0,121.03,0c2.19,0,4.38,0.01,6.57,0.02c1.97,0.01,4.1,0.38,4.32,2.62
				c0.3,3.01-2.17,3.3-4.43,3.38c-1.56,0.06-3.13,0.01-4.69,0.01c-82.25,0-164.5,0-246.75-0.01c-0.63,0-1.26,0.06-1.88-0.01
				c-2.88-0.33-7.59,1.22-7.54-3.07c0.06-4.24,4.76-2.91,7.65-2.91C1530.79,875.26,1572.7,875.28,1614.6,875.28z"/>
			<path class="st19" d="M1532.74,920.64c31.94,0,63.89,0,95.83,0c2.19,0,4.38,0.04,6.58,0.04c2.1,0,3.94,0.87,4.15,2.95
				c0.24,2.42-1.88,2.93-3.83,3.05c-1.87,0.12-3.76,0.07-5.64,0.07c-64.83,0.01-129.66,0.02-194.49,0.02c-1.57,0-3.14,0.07-4.7-0.05
				c-2.09-0.16-4.87,0.28-4.98-2.82c-0.1-2.95,2.36-3.23,4.66-3.25c2.82-0.02,5.64-0.03,8.46-0.03
				C1470.1,920.64,1501.42,920.64,1532.74,920.64z"/>
			<path class="st20" d="M1640.8,904.15c-25.37,0-50.74,0.05-76.1-0.07c-2.81-0.01-7.59,1.59-7.79-2.69
				c-0.26-5.4,4.96-3.44,7.91-3.44c51.05-0.12,102.1-0.1,153.14-0.02c2.88,0,7.65-1.42,7.84,2.7c0.24,5.29-4.99,3.41-7.96,3.43
				C1692.16,904.22,1666.48,904.15,1640.8,904.15z"/>
			<path class="st21" d="M1761.81,858.19c-39.09,0.14-78.19,0.29-117.28,0.39c-2.4,0.01-5.88,0.58-5.96-2.8
				c-0.09-4.24,3.85-3.21,6.41-3.22c36.6-0.07,73.2-0.04,109.8-0.1c4.12-0.01,7.75,0.14,6.96,5.81
				C1761.73,858.27,1761.81,858.19,1761.81,858.19z"/>
			<path class="st22" d="M1409.95,881.32c-8.73,0-17.45,0.01-26.18-0.01c-2.23-0.01-4.85-0.16-4.95-2.98c-0.11-3,2.61-3,4.79-3.01
				c17.77-0.03,35.53-0.05,53.3-0.01c2.39,0.01,5.6-0.39,5.31,3.34c-0.22,2.88-3.01,2.65-5.15,2.66
				C1428.03,881.34,1418.99,881.32,1409.95,881.32z"/>
			<path class="st23" d="M1346.79,833.48c-10,1.57-19.86,1.35-29.44-2.36c-19.16-7.42-30.01-28.89-24.7-48.83
				c4.14-15.55,16.03-21.21,30.89-14.61c2.83,1.26,5.52,2.85,8.28,4.28c1.68,11.61,2.76,23.34,7.22,34.36
				c1.18,2.32,1.19,4.94,1.9,7.38C1342.89,820.3,1344.84,826.89,1346.79,833.48z"/>
			<path class="st24" d="M1340.95,813.7c-5.44-1.22-5.62-3.8-1.9-7.38c12.79,0.11,25.59,0.13,38.39,0.37
				c2.8,0.05,7.25-1.08,6.88,3.77c-0.3,3.85-4.23,2.82-6.86,2.86C1365.28,813.52,1353.11,813.59,1340.95,813.7z"/>
		</g>
		<g>
			<path class="st1" d="M1130.95,824.14c0,0,3.08-37.08-50.06-33.86c0,0-13.06-28.09-35.61-27.2c0,0,6.98-57.79-47.77-62.44
				s-56.18,51.35-56.18,51.35l2.55-20.65c0,0-16.68-28.55-58.01-10.48s-41.51,42.76-41.51,42.76s-29.88-8.23-43.3,39.36
				c-13.42,47.59,12.17,35.96,12.17,35.96l122.74,47.41l120.89-16.82l58.75,3.64l23.34-11.87l4.25-30.07L1130.95,824.14z"/>
			<path class="st2" d="M1053.51,960.61c2,5.19,8.3,7.64,8.83,13.77c-2.58,2.67-5.98,2.32-9.19,2.33
				c-57.78,0.07-115.55,0.07-173.33,0c-3.21,0-6.61,0.34-9.2-2.31c2.93-7.14,9.41-11.11,15.39-16.62
				C856.82,943.61,834,923.33,818.82,895c1.78-2.38,4.42-2.36,6.98-2.37c56.42-0.06,112.84-0.02,169.26,0.06
				c0.93,0.17,0.11,1.16,0.2,0.25c0.03-0.26-0.74-0.36-1.24-0.36c-56.2-0.02-112.4,0.02-168.6-0.04c-3.62,0-7.57,0.93-10.54-2.29
				c0.76-3.66-2.55-5.96-3.07-9.19c0.85-1.96,2.74-2.45,4.49-2.91c19.18-5.03,35.7-15.24,51.71-26.45c2.07-1.45,3.94-3.31,6.76-3.19
				c12.48,6.69,25.56,10.51,39.97,10c8.8-0.31,17.25-1.83,24.96-5.61c5.04-2.47,7.68-1.6,10.97,2.46
				c12.2,15.07,30.02,19.37,47.52,11.69c10.31-4.53,17.41-12.35,21.33-22.79c1.31-3.5,2.64-4.23,5.95-2.77
				c10.7,4.71,21.65,4.94,32.49,0.68c5.33-2.1,5.89,2.42,7.6,4.91c10.28,14.98,28,20.49,44.79,14.07
				c14.07-5.38,24.79-22.78,22.34-31.96c1.17-1.6,1.52-4.72,4.73-2.58c2.54,4.69,1.28,9.7,0.54,14.37
				c-1.86,11.74-4.11,23.44-8.28,34.64c-0.97,2.33-2.14,4.54-4.04,6.28c-3.39,3.68-3.17,9.51-7.55,12.6
				c-2.37-2.74-5.59-1.89-8.52-1.9c-24.95-0.07-49.9-0.02-74.85-0.03c24.68,0.04,49.37,0,74.05,0.05c3.21,0.01,6.59-0.55,9.38,1.81
				c-1.3,7.11-6.19,12.31-10.06,17.92c-14.19,20.56-33.74,34.71-56.04,45.37c-2.91,2.67-6.56,2.04-9.98,2.05
				c-23.77,0.08-47.55,0.02-71.32,0.06c-2.5,0-5.05-0.36-7.51,0.8C993.33,960.93,1023.42,961.56,1053.51,960.61z"/>
			<path class="st3" d="M870.63,974.39c34.75,0.09,69.5,0.25,104.25,0.26c29.15,0,58.31-0.18,87.46-0.27
				c39.86,0.1,79.73,0.2,119.59,0.29c5.13,0.01,10.26-0.09,15.39,0.02c2.16,0.05,5.49-0.68,5.33,2.71
				c-0.15,3.22-3.44,2.23-5.61,2.44c-0.92,0.09-1.86,0.01-2.8,0.01c-138.74,0-277.48,0.01-416.22-0.1c-3.14,0-8.94,1.91-8.9-2.28
				c0.05-5.11,5.95-2.66,9.18-2.69C809.09,974.49,839.86,974.48,870.63,974.39z"/>
			<path class="st4" d="M800.5,827.49c4.78-0.43,8.42,0.84,12.14,4.55c13.62,13.54,29.71,16.75,47.54,9.13
				c5.45-2.33,7.12,2.6,10.32,4.65c0.47,2.3-1.29,3.4-2.69,4.43c-15.95,11.65-32.62,21.93-52.19,26.44
				c-2.41,0.56-4.93,1.64-7.31-0.24c-1.81-5.18-6.59-9.73-3.38-15.96c8.52-3.12,17.5-0.17,27.67-2.13
				c-10.55-1.94-19.88,0.54-28.88-1.79c-7.05-7.04-6-16.37-7.12-25.1C797.14,829.39,798.38,828.01,800.5,827.49z"/>
			<path class="st5" d="M848.73,760.16c6.26,1.95,12.02,3.17,16.87,6.57c3.32,2.32,3.85-0.95,5.15-2.52
				c8.49-10.28,21.28-14.3,33.22-10.19c2.15,0.74,6.01,0.94,4.81,4.48c-1.2,3.53-4.03,0.68-5.9,0.13
				c-10.85-3.18-21.76,0.08-28.32,8.43c-2.2,2.8-2.42,4.61,0.31,7.49c6.93,7.32,10.87,16.17,11.25,26.39
				c0.07,1.99,0.78,4.98-2.09,5.06c-2.82,0.08-2.21-2.92-2.46-4.92c-2.26-18.33-14.18-31.89-30.95-35.24
				c-17.06-3.4-33.58,4.22-42.08,19.32c-2.8,4.97-4.07,10.37-4.87,15.92c-0.28,1.95,0.46,5.14-2.4,4.91
				c-3.21-0.26-2.19-3.54-2.1-5.72c0.81-19.59,17.45-37.35,37.88-39.54c5.19-0.56,7.29-2.68,9.58-6.95
				c12.8-23.95,32.8-37.46,60.02-39.94c0.7-0.06,1.42-0.23,2.09-0.12c2.03,0.34,5.45-1.29,5.41,2.37c-0.03,2.91-3.09,2.09-5.04,2.19
				c-11.63,0.61-22.46,3.84-32.4,9.89C864.2,735.78,854.91,746.24,848.73,760.16z"/>
			<path class="st6" d="M800.5,827.49c-0.86,0.91-1.73,1.82-2.59,2.74c-2.85,1.37-4.82-0.93-7.08-1.8
				c-10.07-3.84-18.27,0.63-20.25,11.2c-3.48,18.57,8.68,33.99,27.56,35c3.67,0.2,7.49-0.68,10.92,1.42
				c23.63-3.68,42.93-16.16,61.45-30.23c1.42,0.9,2.85,1.81,4.28,2.71c-18.8,15.08-39.17,27.1-62.96,32.55
				c-25.12,5.07-45.46-8.33-48.46-31.93c-0.44-3.49-0.14-6.91,0.53-10.37c1.6-8.25,5.19-15.33,13.72-17.68
				C786.15,818.75,794.12,820.9,800.5,827.49z"/>
			<path class="st7" d="M1048.88,750.86c-0.21,1.72,1.04,4.98-2.4,5.02c-2.9,0.03-2.11-3.03-2.28-4.99
				c-2.3-26.47-22.77-46.33-48.45-46.98c-26.56-0.67-47.64,17.54-51.68,44.3c-0.39,2.61,1.38,7.77-2.6,7.49
				c-4.45-0.31-2.3-5.37-2.01-8.12c2.96-28.12,27.88-49.48,56.38-48.62C1023.96,699.81,1047.72,722.9,1048.88,750.86z"/>
			<path class="st8" d="M814.89,890.26c60.65-0.01,121.3-0.03,181.95-0.04c1.17,0,2.34-0.04,3.5,0.05c1.47,0.11,2.99,0.58,2.84,2.34
				c-0.14,1.63-1.6,2.1-3.12,2.12c-1.87,0.02-3.73,0.03-5.6,0.03c-55.98,0-111.97,0-167.95,0.01c-2.56,0-5.12,0.15-7.68,0.23
				C816.46,894.29,811.64,895.62,814.89,890.26z"/>
			<path class="st9" d="M1136.26,826.56c-1.02,1.12-1.61,2.8-3.57,2.63c-1.72-1.29-1.54-3.2-1.74-5.05
				c-1.83-17.24-13.94-29.53-31-31.63c-2.07-0.26-5.59,0.8-5.27-2.71c0.3-3.27,3.59-2.02,5.7-1.88
				c15.61,1.06,28.56,11.79,33.85,27.93c0.83,2.53,0.9,5.24,5.2,4.55c13.19-2.12,22.84,8.56,23.71,22.39
				c1.14,18.17-10.5,33.56-28.53,37.73c-2.93,0.68-5.97,0.94-8.95,1.39c-0.02-2.2,0.86-4.04,2.31-5.64
				c3.01-2.38,6.78-2.97,10.21-4.34c11.61-4.63,17.61-13.45,18.34-25.64C1157.27,833.63,1150.77,827.56,1136.26,826.56z"/>
			<path class="st10" d="M1053.51,960.61c-1.53,2.26-3.83,2.26-6.21,2.26c-28.41-0.03-56.81,0-85.22-0.08
				c-2.26-0.01-6.02,1.15-5.82-2.81c0.16-3.26,3.59-2.19,5.7-2.19c30.04-0.07,60.07-0.05,90.11-0.05
				C1052.55,958.69,1053.03,959.65,1053.51,960.61z"/>
			<path class="st11" d="M1045.26,760.35c21.03,0.83,40.05,19.82,40.74,40.29c0.07,1.99,0.82,5-1.86,5.3
				c-3.55,0.39-2.6-3.14-2.92-5.15c-3.3-20.93-15.24-32.86-35.93-35.8c-1.92-0.27-5.04,0.63-5-2.29
				C1040.33,759.22,1043.63,760.61,1045.26,760.35z"/>
			<path class="st12" d="M995.03,788.85c-1.27,3.36-3.63,1.81-5.83,1.44c-13.58-2.27-25.32,1.48-35.14,11.09
				c-4.4,4.31-7.38,9.54-9.3,15.36c-0.54,1.65-1.18,3.46-3.11,3c-2.55-0.6-1.76-2.68-1.34-4.57c4.47-19.87,31.9-35.54,51.36-29.29
				C993.21,786.38,994.88,786.79,995.03,788.85z"/>
			<path class="st13" d="M1075.6,813.81c8.92,0.43,16.79,3.34,22.82,10.28c1.17,1.35,3.02,2.89,1.02,4.71
				c-2,1.81-3.25-0.24-4.6-1.45c-10.98-9.86-19.83-11.15-32.38-4.68c-1.78,0.92-3.77,3.04-5.24,0.21c-1.38-2.66,1.52-3.52,3.11-4.55
				C1064.93,815.33,1070.15,814.23,1075.6,813.81z"/>
			<path class="st14" d="M1014.52,823.93c0.01,1.04-0.48,1.77-1.44,2.12c-2.01,0.75-2.95-0.81-4.04-1.96
				c-7-7.4-15.5-10.08-25.37-7.61c-2.86,0.72-5.49,2.43-8.17,3.78c-1.32,0.66-2.71,1.25-3.79-0.03c-1.06-1.26-0.4-2.52,0.63-3.68
				c8.78-9.88,36.75-5.81,41.68,6.09C1014.19,823.07,1014.36,823.5,1014.52,823.93z"/>
			<path class="st15" d="M846.86,797.26c-11.42-0.03-20.7,6.78-24.76,18.05c-0.7,1.95-0.28,5.64-3.67,4.59
				c-3.03-0.94-1.35-4.07-0.82-6.1c3.19-12.23,15.59-21.39,28.8-21.24c2.54,0.03,6.74-0.94,6.68,2.83
				C853.02,799.22,849.1,796.93,846.86,797.26z"/>
			<path class="st16" d="M979.84,746.14c10.24,0.03,17.65,3.37,23.62,9.87c1.23,1.34,2.86,3.01,1.14,4.83
				c-2,2.11-3.16-0.2-4.46-1.35c-11.48-10.19-19.19-11.27-32.9-4.46c-1.71,0.85-3.43,2.27-4.81,0.1c-1.47-2.31,0.88-3.3,2.3-4.23
				C969.72,747.64,975.2,745.94,979.84,746.14z"/>
			<path class="st17" d="M970.06,877.94c-37.75,0-75.49,0-113.24-0.01c-1.86,0-3.73-0.02-5.58-0.15c-1.34-0.09-2.15-1.07-2.15-2.28
				c0.01-1.27,0.96-2.1,2.27-2.19c1.62-0.12,3.26-0.13,4.89-0.13c75.96,0,151.91,0,227.87,0.01c1.4,0,2.8-0.03,4.19,0.07
				c1.4,0.09,3.02,0.27,3.15,2.03c0.16,2.19-1.54,2.57-3.27,2.62c-1.86,0.05-3.73,0.04-5.59,0.04
				C1045.09,877.94,1007.58,877.94,970.06,877.94z"/>
			<path class="st1" d="M1136.26,826.56c9.5-3.77,18.23,1,21.14,11.54c3.86,13.98-3.55,29.07-17.32,35.09
				c-3.85,1.68-7.85,2.94-12.12,3.09c3.75-14.63,8.35-29.08,8.9-44.38C1136.93,830.01,1137.02,828.28,1136.26,826.56z"/>
			<path class="st18" d="M1008.52,907.17c30.05,0,60.09,0,90.14,0c1.63,0,3.26,0.01,4.89,0.02c1.47,0.01,3.05,0.28,3.22,1.95
				c0.22,2.24-1.61,2.46-3.3,2.52c-1.16,0.04-2.33,0.01-3.49,0.01c-61.26,0-122.51,0-183.77,0c-0.47,0-0.94,0.04-1.4-0.01
				c-2.15-0.25-5.66,0.91-5.61-2.28c0.04-3.15,3.55-2.16,5.7-2.17C946.1,907.16,977.31,907.18,1008.52,907.17z"/>
			<path class="st19" d="M947.55,940.96c23.79,0,47.58,0,71.38,0c1.63,0,3.27,0.03,4.9,0.03c1.57,0,2.94,0.65,3.09,2.2
				c0.18,1.8-1.4,2.18-2.85,2.27c-1.39,0.09-2.8,0.05-4.2,0.05c-48.28,0.01-96.57,0.01-144.85,0.02c-1.17,0-2.34,0.05-3.5-0.04
				c-1.55-0.12-3.63,0.21-3.71-2.1c-0.08-2.2,1.76-2.4,3.47-2.42c2.1-0.02,4.2-0.02,6.3-0.02
				C900.9,940.96,924.22,940.96,947.55,940.96z"/>
			<path class="st20" d="M1028.03,928.68c-18.89,0-37.79,0.04-56.68-0.05c-2.1-0.01-5.65,1.18-5.8-2c-0.19-4.02,3.69-2.56,5.89-2.56
				c38.02-0.09,76.04-0.08,114.06-0.02c2.14,0,5.7-1.06,5.84,2.01c0.18,3.94-3.72,2.54-5.92,2.56
				C1066.28,928.73,1047.16,928.68,1028.03,928.68z"/>
			<path class="st21" d="M1118.16,894.44c-29.12,0.1-58.23,0.21-87.35,0.29c-1.79,0-4.38,0.43-4.44-2.08
				c-0.07-3.16,2.87-2.39,4.78-2.4c27.26-0.06,54.52-0.03,81.77-0.07c3.07-0.01,5.77,0.11,5.18,4.33
				C1118.1,894.51,1118.16,894.44,1118.16,894.44z"/>
			<path class="st22" d="M856.1,911.67c-6.5,0-13,0.01-19.5-0.01c-1.66-0.01-3.61-0.12-3.68-2.22c-0.08-2.24,1.94-2.24,3.57-2.24
				c13.23-0.03,26.46-0.04,39.7-0.01c1.78,0,4.17-0.29,3.96,2.49c-0.16,2.15-2.24,1.97-3.84,1.98
				C869.56,911.69,862.83,911.67,856.1,911.67z"/>
			<path class="st23" d="M809.06,876.04c-7.45,1.17-14.79,1.01-21.92-1.75c-14.27-5.52-22.35-21.52-18.39-36.37
				c3.09-11.58,11.94-15.79,23.01-10.88c2.11,0.94,4.11,2.12,6.16,3.19c1.25,8.65,2.05,17.38,5.38,25.59
				c0.88,1.73,0.89,3.68,1.42,5.49C806.16,866.22,807.61,871.13,809.06,876.04z"/>
			<path class="st24" d="M804.71,861.31c-4.05-0.91-4.19-2.83-1.41-5.49c9.53,0.08,19.06,0.1,28.59,0.28
				c2.08,0.04,5.4-0.8,5.12,2.81c-0.22,2.87-3.15,2.1-5.11,2.13C822.83,861.17,813.77,861.23,804.71,861.31z"/>
		</g>
		<g>
			<path class="st25" d="M1049.53,798.63l-3.34,5.1c0,0,5.51,34.28,16.46,35.82s33.44,16.57,33.44,16.57l25.24-11.69l25.07-1.33
				l36.8-14.19l8.04-12.51h4.53c0,0,38.44,6.53,72.52,6.56s75.25-8.95,75.25-8.95l5.86-1.31l31.25,7.05l35.81,21.58l48.87-10.02
				c0,0,21.27-16.66,28.4-30.3s5.89-43.2,5.89-43.2s27.75-17.1,32.04-52.56c4.29-35.45-25.53-63.84-25.53-63.84l-4.06-15.27
				c0,0-8.59-47.95-39.6-57.26c-31.01-9.3-47.47-16.94-55.82-11.45s-1.99-1.68-1.99-1.68l-2.13,1.28l-35.25,4.81
				c0,0-4.06-14.91-11.69-17.29c-7.63-2.39-17.65-5.96-17.65-5.96s-8.37-23.43-19.08-24.33c-10.72-0.9-12.88-8.32-44.61,11.35
				c0,0-21.71,5.11-30.3,11.79s-15.78,23.83-15.78,23.83l-1.88,24.83v-4.53l-1.96-3.4l-2.17-2.83l-17.69-6.92L1187,572.3l-7.83,2.2
				l-14.78,3.09l-12.25-2.29l-14.35,8.98l-6.44-17.32l-5.49-8.8l-19.36-12.59l-20.24-22.81l-27.51-14.22l-12.56-14.56l-15.51-3.58
				l-9.96-0.78c0,0-15.72-12.34-31.75-11.15s-18.65,9.93-18.65,9.93s-8.58-3.95-16.94-3.96c-8.36-0.01-17.86,16.87-18.13,19.84
				s-14.75,3.27-14.75,3.27s-8.39,3.55-8.27,13.48c0.12,9.93,9.42,21.12,9.42,21.12s13.6,2.88,16.22,1.45s6.45-3.24,6.45-3.24
				l18.77,13.6l25.87-3.32l19.76-16.29l-5.42,26.91l-16.77,33.86l-8.35,21.48c0,0-2.39,38.89,22.42,53.68
				c24.81,14.79,34.35-6.92,34.35-6.92l-26.96,2.22c0,0-21.57,37.9-6.24,59.11"/>
			<path class="st26" d="M1366.21,949.28c0.01-0.92,0.02-1.85,0.04-2.77c1.23-0.91,3.08-0.63,4.09-2.16
				c-1.32-0.5-2.95,0.79-4.04-0.67c0.28-11.27-1.26-22.6,1.13-33.8c3.83,5.43,1.08,11.49,1.79,16.72
				c-0.46-5.64,3.84-12.22-1.8-17.89c-0.1-0.46-0.1-0.91,0.01-1.37c4.78-3.5,0.94-7.76,1.02-11.68c0.12-4.84-0.96-9.77,1.07-14.45
				c5.24-1.12,11.93,3.53,12.02,9.74c0.11,7.71,1.9,15.81-2.48,23.1c-0.8,1.32-0.72,2.59-0.26,4c3.74,11.31,2.71,22.97,2.68,32.85
				c-0.14-7.5,1.1-16.77-1-25.93c-0.42-1.84-0.58-3.81,0.29-5.5c2.29-4.46,3.05-9.18,3.38-14.13c0.29-4.34,2.49-8.09,7.49-7.18
				c4.9,0.89,6.08,5.03,4.58,9.27c-1.97,5.55,0.02,12.28-5.16,16.88c-0.8,0.71-0.6,2.27-0.27,3.38c2.51,8.34,0.23,15.97-3.38,23.41
				c-2.09,4.3,0.57,7.59,2.38,11.06c1.05,3.35,3.38,4.69,6.83,4.69c17.63,0.04,35.26-0.05,52.88,0.04c5.21,0.03,5.48-2.27,4.39-6.6
				c-2.83-11.23-7.16-22.05-9.12-33.51c1-4.47,0.02-8.76-1.22-13.03c-5.25-18.09-10.49-36.18-15.63-54.3
				c-1.03-3.62-3.2-6.05-6.07-8.18c-10.83-8.04-21.94-15.72-32.51-24.11c-2.29-1.81-6.48-3.09-4.55-7.41c1.34-3,8.6-3.66,11.98-0.83
				c5.21,4.36,10.86,7.96,16.77,11.22c7.81,1.99,15.14,6.43,23.69,4.65c6.54,1.12,12.93,0.37,19.28-1.42
				c8.78-2.48,9.56-1.62,13.79,6.66c4.6,9,6.23,18.26,5.74,28.23c-0.39,7.87-0.46,15.79,0.85,23.63
				c-2.63,25.05,4.07,48.79,10.16,72.63c1.09,4.26,3.65,4.48,7.17,4.46c21.19-0.1,42.38-0.07,63.58-0.01
				c2.27,0.01,4.66-0.67,6.81,0.7c-1.54,2.69-4.22,2.64-6.75,2.63c-56.27-0.11-112.55,0.41-168.81-0.22
				c-4.95-1.65-10.09-1.41-15.2-1.34c-5.11,0.07-7.26-1.67-5.64-7.12C1369.66,958.69,1370.64,953.54,1366.21,949.28z"/>
			<path class="st26" d="M939.42,540.37c1.35-0.87,2.7-1.75,4.05-2.62c3.16,0.07,3.99,2.9,5.53,4.8
				c13.73,16.93,33.63,16.76,46.5-0.85c3.52-4.81,7.37-6.78,13.25-7.34c15.06-1.41,30.21-1.79,45.22-3.75
				c0.93-0.12,1.86-0.18,2.79-0.16c3.79,0.09,8.13-0.02,8.87,4.79c0.83,5.32-3.88,5.63-7.41,6.36c-8.68,1.78-17.46,2.96-26.19,4.48
				c-8.45,1.47-16.94,2.69-25.31,4.58c9.01-0.25,17.66-3.03,26.59-3.86c1.62-0.15,3.21-0.6,4.85-0.58c1.64,0.02,3.59-0.01,4.31,1.63
				c0.94,2.12-0.85,3.48-2.31,4.57c-9.15,6.81-19.56,9.52-31.57,9.4c3.35,1.42,6.94,0.02,9.14,2.77c0.45,1.55,0.78,3.15,1.38,4.64
				c1.61,3.94,1.43,5.72-3.8,6.8c-10.08,2.1-15.81,9.37-17.15,19.48c-0.47,3.54-1.56,5.1-4.9,6.29
				c-10.89,3.89-14.96,10.82-13.81,22.45c-9.88,0.69-18.79,5.05-28.19,7.56c-3.42,0.91-5.1,3.86-6.62,6.8
				c-1.52,2.93-3.36,5.6-6.45,7.1c-1.71,0.83-3.65,1.58-5.26,0.22c-2.02-1.71-0.28-3.46,0.64-4.89c4.04-6.3,7.09-13.05,9.54-20.12
				c-3.42,5.82-5.62,12.32-9.74,17.73c-2.57,3.38-4.38,8.37-10.24,5.82c-4.38-1.9-6.94-8.47-5.73-13.81
				c1.05-4.63,4.33-8.19,6.02-12.48c-0.49-0.41-0.75-0.21-1.17,0.23c-1.94,2.02-2.62,6.45-6.51,4.97c-3.5-1.33-3.37-5.21-3.49-8.49
				c-0.15-4.3,1.39-8.19,2.91-12.12C923.21,581.97,932.49,561.63,939.42,540.37z"/>
			<path class="st27" d="M1159.88,934.68c-4.89-1.97-3.13-5.57-1.94-8.78c6.47-17.48,13.13-34.9,19.86-52.28
				c5.89-15.21,5.58-31.59,9.53-48.39c-11.95,11.27-24.75,18.55-40.41,19.75c-3.2,0.25-4.08,2.51-2.83,4.97
				c7.51,14.83,2.21,29.19-1.45,43.58c-3.97,15.58-7.3,31.32-11.42,46.87c-0.96,3.61-1.28,8.25-6.88,8.16
				c-4.29-2.86-2.06-6.73-1.25-10.08c5.38-22.28,10.24-44.69,15.88-64.13c-5.8,15.76-11.54,34.4-20.57,51.78
				c-1.42,0.69-2.83,0.69-4.21-0.1c-2.99-3.9-0.73-7.6,0.65-11.18c6.64-17.15,13.43-34.25,19.75-51.52
				c3.64-9.95,2.23-13.75-6.34-19.79c-1.18-0.83-2.1-1.85-1.76-3.48c1.58-2.69,4.05-1.61,6.27-1.45
				c35.98,2.51,63.71-21.18,66.91-57.19c0.18-2.03-0.31-5.11,2.35-5.04c3.33,0.09,2.36,3.45,2.29,5.57
				c-0.41,11.18-4.19,21.36-10.13,31.66c48.94,9.26,97.07,10.54,144.96-2.95c0.27-2.72-2.13-2.92-3.28-4.14
				c-1.26-1.34-3.25-2.6-1.5-4.61c1.83-2.11,3.33-0.07,4.71,0.99c8.67,6.65,18.25,11.05,29.2,12.39
				c19.29,2.35,35.83-3.33,49.83-16.69c0.51-0.48,0.93-1.07,1.49-1.48c1.5-1.11,2.64-4.28,4.94-2.11c2.52,2.39-0.35,4.15-1.81,5.72
				c-4.97,5.33-10.77,9.59-17.27,12.89c-1.84,0.94-3.69,1.86-6.12,3.08c3.51,3.36,6.87,6.02,10.66,8.21
				c1.97,1.14,4.32,2.17,3.55,5.23c-6.76,1.04-10.85-3.84-14.74-7.68c-4.77-4.71-9.1-4.05-14.8-1.5
				c13.25,9.86,26.02,19.47,38.94,28.89c3.51,2.56,5.82,5.44,7.01,9.81c5.31,19.47,11,38.83,16.53,58.24
				c0.74,2.59,2.34,5.29-0.46,7.69c-4.9,0.1-5.21-3.98-6.14-7.12c-5-16.97-10.04-33.93-14.54-51.03
				c-1.9-7.22-5.54-12.65-11.95-16.32c-9.24-6.7-18.43-13.5-27.41-20.54c-6.17-4.84-12.4-8.93-20.6-9.15
				c-2.74-0.07-5.52-0.82-8.29-1.93c0.39,1.49,1.23,2.56,2.1,3.36c16.37,15.16,13.35,34.89,12.81,54.03
				c-0.04,1.44-0.64,2.71-1.56,3.81c-0.44,5.38-1.02,10.77-0.23,16.17c-1.64,2.28,1.35,6.33-2.92,7.6c-3.4-1.59-2.45-4.68-2.39-7.33
				c0.35-15.82,0.67-31.64,1.29-47.45c0.16-3.99-1.05-7.01-3.26-10.23c-5.52-8-12.2-15.26-16.37-24.13c-0.91-1.93-1.65-1.76-3-1.34
				c-46.45,14.58-93.61,13.15-141.01,6.23c-8.13-0.18-7.08,6.2-7.97,11.19c-1.72,28.33-11.68,54.39-22.17,80.29"/>
			<path class="st26" d="M1126.46,840.06c0.33,1.16,0.91,2.12,2.11,2.56c8.54,3.12,11.78,9.65,8.55,18.35
				c-7,18.88-14.26,37.67-21.37,56.52c-0.96,2.54-2.63,5.02-1.32,7.96c1.68,5.17-1.56,9.27-3.12,13.7
				c-0.83,2.37-1.97,4.65-2.87,7.01c-1.36,2.67-2.27,5.51-2.99,8.41c-0.7,1.87-1.66,3.63-2.25,5.55c-2.41,3.73-1.77,9.16-6.47,11.63
				c-9.74,0.71-19.47,1.4-29.17-0.41c-2.69-2.04-0.35-3.33,0.7-4.82c2.18-1.68,2.75-4.22,3.46-6.66
				c7.64-26.3,14.78-52.74,22.29-79.07c1.26-4.44,1.29-8.6-0.33-12.91c-1.64-4.34-2.77-8.86-3.87-13.37
				c-0.79-3.2-0.54-6.07,3.27-7.26c8.1-0.25,15.42-2.51,21.38-8.28c1.74-1.1,3.54-1.25,5.42-0.36
				C1122.07,839.09,1124.27,839.57,1126.46,840.06z"/>
			<path class="st28" d="M1406.89,555.72c14.14-1.79,28.2-0.19,41.55,4.9c27.02,10.31,47.26,27.59,55.32,56.58
				c0.37,1.34,1.01,2.79,0.81,4.08c-1.81,11.4,4.34,18.72,11.17,27.1c20.09,24.62,24.12,52.73,11.24,81.86
				c-12.97,29.34-36.55,44.94-68.58,47.62c-1.16,0.1-2.33,0.11-3.49,0.05c-1.48-0.07-2.91-0.56-2.95-2.27
				c-0.03-1.65,1.29-2.3,2.79-2.44c4.17-0.4,8.4-0.45,12.5-1.22c38.03-7.17,63.69-39.72,61.7-78.1
				c-1.92-37.2-31.87-67.33-69.86-70.43c-2.5-0.2-7.15,1.29-6.91-2.34c0.26-4.03,4.93-2.1,7.64-2.06c7.28,0.1,14.28,1.93,21.13,4.29
				c6.58,2.26,12.63,5.64,19.23,9.84c1.09-11.94-2.09-21.88-7.5-31.23c-16.37-28.27-52.86-45.82-85.83-41.61
				c-3.39,0.43-4.75,2.2-6.08,4.81c-5.15,10.16-10.37,20.29-15.65,30.39c-0.89,1.7-1.29,4.68-4.14,3.74
				c-3.1-1.02-0.66-3.53-0.8-5.37c7.42-14.15,11.51-22.38,19.11-36.43"/>
			<path class="st29" d="M1076.41,923.89c4.32-5.03,4.34-11.57,6.02-17.5c3.34-11.75,7.08-23.41,9.12-35.5
				c-0.44-1.55-0.93-3.1-1.31-4.66c-2.36-9.86-5.24-18.35-17.66-20.61c-8.85-1.61-14.5-9.63-19.92-16.71
				c-5.63-5-6.99-11.75-7.37-18.75c-0.16-2.92,0.06-6.23,4.36-6.44c2.12,1.38,1.66,3.59,1.93,5.64
				c2.59,19.9,15.33,32.68,35.28,35.53c2.23,0.32,4.79-0.13,6.23,2.33c-2.28,2.36-2.95,4.85-1.39,8.01
				c6.34,12.85,5.16,25.46,0.75,38.96c-7.23,22.11-12.72,44.77-19.06,67.18c-0.7,2.48-0.35,5.88-4.13,6.52
				c-4.06-1.84-2.62-4.56-1.74-7.11"/>
			<path class="st29" d="M1072.22,948.31c1.26-6.34,3.36-12.5,5.33-19.57"/>
			<path class="st30" d="M1017.74,564.6c-3.26-0.11-6.52-0.14-9.76-0.37c-2.03-0.15-4.87-0.15-4.65-2.95
				c0.24-3.05,3.05-2.02,5.02-1.91c13.95,0.81,23.5-2.26,34.97-12.11c-6.63,1.01-11.64,1.75-16.63,2.54
				c-5.06,0.8-10.09,1.93-15.17,2.39c-3.49,0.31-9.13,3.97-10.01-0.98c-0.66-3.7,5.89-2.84,9.28-3.45
				c16.49-2.96,33.04-5.66,49.56-8.44c2-0.34,4.57-0.01,4.27-3.21c-0.3-3.19-2.2-4.08-5.32-3.82c-18.57,1.54-37.14,2.96-55.72,4.34
				c-2.05,0.15-3.21,0.94-4.4,2.7c-16.57,24.54-40.39,23.81-55.7-1.61c-0.47-3.21-0.97-6.41-1.39-9.62
				c-0.2-1.52,0.29-2.97,1.92-3.21c1.63-0.24,2.41,0.9,2.58,2.53c0.17,1.61,0.43,3.23,0.78,4.81c2.7,12.22,13.26,20.25,25.96,19.76
				c11.65-0.45,21.42-9.3,23.44-21.1c0.36-2.11-0.64-5.5,2.4-5.8c3.58-0.35,2.32,3.03,2.75,5.12c0.68,3.34,3.41,1.63,5.11,1.51
				c17.4-1.24,34.81-2.47,52.17-4.11c5.33-0.5,8.6,0.96,9.89,6.18c1.32,5.37-0.38,8.93-5.96,10.66c-8.44,2.61-16.41,6.1-23.41,11.82
				C1033.42,561.43,1025.41,562.73,1017.74,564.6z"/>
			<path class="st31" d="M939.42,540.37c3.17,2.71,0.35,5.27-0.53,7.52c-7.61,19.52-15.46,38.95-23.22,58.41
				c-2.21,5.54-3.02,11.03,0.68,16.58c2.83-1.78,3.57-4.62,5.21-6.77c1.1-1.43,2.05-3.71,4.27-2.11c2.06,1.48,0.6,3.3-0.39,4.89
				c-1.6,2.57-3.13,5.19-4.8,7.71c-1.62,2.45-2.27,5.19-1.96,7.98c0.45,4.11,2.1,8.23,6.16,9.46c3.98,1.2,5.04-3.33,6.77-5.77
				c4.06-5.73,6.71-12.22,9.31-18.72c0.66-1.64,1.36-4.03,3.83-2.9c2.37,1.08,1.14,3.08,0.48,4.82
				c-3.16,8.29-6.92,16.26-12.64,23.98c6.2-0.2,9.03-3.91,10.86-8.43c1.74-4.29,4.63-6.51,9.08-7.66
				c7.21-1.87,14.29-4.24,21.38-6.52c2.26-0.73,4.42-1.94,5.55,1.4c-0.4,2.77-2.84,2.66-4.72,3.27c-5.52,1.79-11,3.8-16.62,5.2
				c-5.46,1.35-9.31,3.68-11.94,9.18c-3.68,7.7-11.59,10.54-19.39,8.39c-8-2.21-12.74-8.46-12.89-16.93
				c-0.03-2.04,0.78-4.13-0.62-6.08c-5.98-8.38-4.59-16.82-0.88-25.74c7.49-18.01,14.46-36.23,21.64-54.36
				C935.16,544.38,936.02,541.38,939.42,540.37z"/>
			<path class="st32" d="M1386.81,969.43c18.12,0.17,36.23,0.45,54.35,0.48c38.59,0.08,77.19,0.03,115.78,0.01
				c2.55,0,5.1-0.15,7.65-0.24c2.87,1.96,2.71,3.65-0.63,4.64c-1.29,0.38-2.78,0.11-4.17,0.11c-80.86,0.01-161.72,0.03-242.57-0.09
				c-2.46,0-8.51,2.29-5.03-4.7C1337.06,969.44,1361.94,969.78,1386.81,969.43z"/>
			<path class="st32" d="M1091.56,969.43c18.12,0.17,36.23,0.45,54.35,0.48c38.59,0.08,77.19,0.03,115.78,0.01
				c2.55,0,5.1-0.15,7.65-0.24c2.87,1.96,2.71,3.65-0.63,4.64c-1.29,0.38-2.78,0.11-4.17,0.11c-80.86,0.01-161.72,0.03-242.57-0.09
				c-2.46,0-8.51,2.29-5.03-4.7C1041.82,969.44,1066.69,969.78,1091.56,969.43z"/>
			<path class="st33" d="M1289.19,511.21c24.5-7.18,41.62,0.47,51.25,23.35c1.28,3.05,3.29,3.38,5.64,4.13
				c12.48,4.01,20.52,12.36,23.74,25.03c0.87,3.42,2.27,7.27-0.88,10.52c-3.42,0.32-2.67-2.22-2.9-4.16
				c-1.87-15.94-11.42-25.76-27.33-27.91c-3.06-0.41-6.3-0.08-3.31-4.68c1.39-2.13-0.32-3.99-1.19-5.8
				c-10.28-21.32-38.05-25-54.66-6.79c6.02,2.01,11.9,3.91,16.74,7.94c8.7,7.23,13.74,16.3,14.17,27.71
				c0.06,1.53,0.51,3.64-1.78,3.92c-2.77,0.35-2.69-1.89-2.78-3.76c-1.1-24-28.58-39.95-50.49-26.29c-1.59,0.99-3.51,2.49-4.87,0.41
				c-1.71-2.61,1-3.58,2.67-4.66c1.36-0.87,2.84-2.05,4.34-2.16C1270.61,527.05,1279.26,517.94,1289.19,511.21z"/>
			<path class="st34" d="M1068.18,959.32c1.01,2.97-2.41,6.18,1.06,8.59c-0.78,0.52-1.56,1.04-2.33,1.55"/>
			<path class="st19" d="M1476.87,891.89c-2.68-1.22-2.47-3.61-2.46-5.96c0.03-5.35-0.55-10.78,0.1-16.05
				c1.5-12.2-2.94-22.77-7.92-33.36c-1.36-2.89-2.53-3.74-5.73-2.4c-5.83,2.44-12.06,3.5-18.4,3.64c-2.32,0.05-4.86,0.43-5.24-2.97
				c1.66-2.36,4.23-1.27,6.41-1.75c6.99-1.53,14.78-0.45,20.13-7.25c1.5-1.91,5.27-0.39,8-2.37c13.92-10.12,22.55-23.27,24.85-40.42
				c0.25-1.85,0.44-3.7,0.66-5.55c0.22-1.79,0-4.34,2.61-4c2.29,0.3,1.98,2.73,2,4.6c0.06,4.71-0.89,9.27-2.11,13.77
				c-4.14,15.25-12.87,27.33-26.15,35.81c-3.92,2.5-4.56,4.7-2.23,8.24c10.62,16.19,7.6,34.43,7.89,52.17
				C1479.33,889.96,1478.4,891.06,1476.87,891.89z"/>
			<path class="st19" d="M1141.77,577.76c10.21-4.26,20.79-4.59,31.56-2.96c2.46,0.37,4.84,1.19,7.31-0.7
				c13.59-10.41,27.47-9.5,41.48-0.53c1.62-3.7,3.18-7.29,4.75-10.88c4.85-4.09,9.71-8.11,16.8-6.23c3.3,0.88,5.92,2.69,7.86,5.43
				c0.67,0.95,0.93,2.19,0.04,3.21c-0.93,1.07-2.26,1.02-3.08,0.12c-4.18-4.61-8.88-5.86-14.24-2.28c-5.37,3.58-6.9,9.08-7.03,15.16
				c-0.04,1.95,1.69,4.46-0.95,5.62c-3.22,1.42-3.65-2.05-4.98-3.63c-8.72-10.29-25.1-11.9-36.62-2.91
				c-3.52,2.75-6.46,3.46-10.67,2.58c-8.04-1.68-16.22-1.88-24.25,0.23c-6.97,1.84-12.66,5.69-17,11.52
				c-1.1,1.47-2.04,4.53-4.67,2.38c-2.3-1.88-0.14-3.79,1-5.42C1132.36,583.79,1136.77,580.42,1141.77,577.76z"/>
			<path class="st16" d="M1140.85,584.13c6.02,5.32,9.97,11.81,11.3,19.81c-0.52,1.83,0.27,4.78-2.92,4.51
				c-2.51-0.21-1.95-2.77-2.29-4.49c-2.38-11.85-7.98-17.34-20.27-19.72c-1.8-0.35-4.24-0.03-3.88-2.7
				c0.33-2.49,2.78-2.23,4.52-1.85c6.56,1.43,5.45-2.08,4.25-6.09c-4.29-14.27-16.42-24.47-31.2-26.16
				c-2.04-0.23-4.24,0.23-6.02-1.26c-0.33-5.29,3.58-3.95,6.23-3.63c16.02,1.98,27.08,10.92,34.36,24.99
				c0.96,4.23,2.09,8.42,2.79,12.69C1138.05,582.34,1138.84,583.6,1140.85,584.13z"/>
			<path class="st35" d="M1383.34,780.72c-1.85-0.64-5.72,1.36-5.71-2.53c0-3.3,3.52-2.12,5.63-2.23
				c30.45-1.49,54.69-24.66,57.18-54.7c0.18-2.11-0.81-5.52,2.58-5.4c3.46,0.12,2.23,3.43,2.09,5.54
				C1442.98,753.58,1415.74,779.84,1383.34,780.72z"/>
			<path class="st36" d="M1131.68,794.46c-18.18-0.7-35.72-9.72-48.43-27.71c-1.17-1.66-3.99-3.77-0.98-5.81
				c2.57-1.73,3.47,1.27,4.64,2.81c19.99,26.23,48.46,33.09,78.01,18.74c1.84-0.89,4.07-2.95,5.47-0.53
				c1.71,2.98-1.65,3.81-3.49,4.83C1157.12,792.22,1146.57,794.67,1131.68,794.46z"/>
			<path class="st37" d="M1038.24,684.09c0.15-25.78,15.73-49.44,38.81-58.75c1.9-0.76,4.57-3.17,6.07-0.21
				c1.67,3.29-1.99,3.48-3.86,4.37c-29.29,14-41.75,40.92-33.62,72.74c0.47,1.84,2.39,4.3-0.91,5.11c-2.96,0.72-2.98-2.18-3.62-4.05
				C1038.96,697.08,1038.18,690.65,1038.24,684.09z"/>
			<path class="st38" d="M1049.82,800.46c-7.5-5.56-13.38-12.53-17.95-20.64c0.15-2.22-3.54-5.12,0.43-6.5
				c3.13-1.09,3.29,2.56,4.24,4.44c10.34,20.49,32.61,30.46,54.63,24.38c0.22-0.06,0.45-0.12,0.68-0.18
				c2.3-0.64,5.55-2.93,6.41,0.69c0.77,3.22-3.24,3.26-5.5,3.91c-11.09,3.23-22.1,2.89-32.87-1.37
				C1056.46,803.84,1053.18,802.05,1049.82,800.46z"/>
			<path class="st11" d="M1031.19,749.33c-19.42-0.65-37.21-18.01-38.13-37.11c-0.1-1.99-0.71-4.71,2.38-4.76
				c2.52-0.04,2.18,2.44,2.45,4.24c2.89,19.21,15.06,31.05,33.86,33.1c2.02,0.22,5.59-1.06,5.12,2.65
				C1036.48,750.66,1033.13,749.01,1031.19,749.33z"/>
			<path class="st39" d="M1024.73,488.6c14.11-1.12,26.31,2.48,35.03,14.39c3.9,5.33,6.68,11.16,6.64,17.98
				c-4.1,0.52-4.67-2.19-5.62-5.36c-4.99-16.73-22.06-25.93-38.86-21.47c-1.69,0.45-4.29,3.67-5.71-0.2
				c-1.53-4.17,2.67-3.28,4.51-4.32C1021.89,488.98,1023.39,488.93,1024.73,488.6z"/>
			<path class="st40" d="M930.93,507.56c-0.79,1.16-2.05,0.77-3.14,0.98c-8.26,1.62-13.64,7.45-13.95,15.07
				c-0.33,8.04,4.78,14.54,12.99,16.71c1.96,0.52,5.67-0.69,5.05,2.95c-0.53,3.14-3.84,1.86-5.92,1.57
				c-10.48-1.47-18.17-12.14-16.71-22.93c1.55-11.42,10.42-18.65,21.49-17.52C931.61,505.41,931.47,506.48,930.93,507.56z"/>
			<path class="st41" d="M1007.72,673.4c-12.15-0.31-24.91-13.26-24.82-25.15c0.01-1.69,0.04-3.63,1.96-3.97
				c2.59-0.46,2.85,1.74,3.08,3.63c1.45,12,8.27,18.72,20.14,20.49c1.77,0.26,4.19,0.04,3.97,2.74
				C1011.84,673.69,1009.59,673.43,1007.72,673.4z"/>
			<path class="st15" d="M1119.87,838.6c-1.71,1.62-3.58,0.8-5.42,0.36c-6.94-3.67-14.12-6.97-19.62-12.87
				c-2.71-2.91-4.92-6.1-6.45-9.79c-0.54-1.31-0.24-2.22,0.69-3.05c1.07-0.95,2.4-0.85,2.95,0.31
				c5.45,11.54,15.89,16.94,26.68,21.95C1119.92,836.09,1119.76,837.46,1119.87,838.6z"/>
			<path class="st26" d="M1386.81,969.43c-24.88,0.7-49.76,0.71-74.63,0.23c15.21-1.62,30.46-0.6,45.67-0.54
				c6.24,0.02,8.94-1.47,8.18-8.04c-0.45-3.87,0.08-7.85,0.17-11.79c6.03,0.13,5.75,4.63,5.35,8.49c-0.37,3.59-1.78,7.08-2.77,10.75
				C1374.82,968.83,1380.81,969.13,1386.81,969.43z"/>
			<path class="st42" d="M989.33,475.54c2.46-0.16,4.54-0.29,4.67,2.34c0.11,2.18-1.71,2.38-3.41,2.53
				c-10.61,0.92-17.58,6.55-21.06,16.51c-0.81,2.33-2.35,3.91-4.55,3.02c-1.82-0.73-0.61-2.9-0.21-4.36
				C967.7,484.82,979.04,475.79,989.33,475.54z"/>
			<path class="st43" d="M930.93,507.56c-0.06-1.05-0.13-2.11-0.19-3.16c3.67-0.33,2.28-3.49,2.83-5.38
				c2.84-9.7,11.87-17.28,21.09-17.41c1.8-0.03,4.1-0.55,4.21,2.17c0.09,2.08-1.75,2.22-3.46,2.47
				c-10.16,1.47-16.6,7.17-17.57,17.49C937.31,509.5,933.08,506.1,930.93,507.56z"/>
			<path class="st26" d="M1367.42,908.7c3.99-0.62,5.27,2.47,5.07,5.06c-0.51,6.8-1.82,13.54-2.82,20.31
				c-0.75-0.01-1.49-0.03-2.24-0.04c0-8.05,0-16.1,0-24.15C1367.34,909.49,1367.34,909.09,1367.42,908.7z"/>
			<path class="st26" d="M1366.3,943.68c0.23-0.03,0.46-0.09,0.68-0.07c2.31,0.18,3.76-4.24,6.56-1.27c0.68,0.72,0.72,1.8-0.15,2.4
				c-2.13,1.46-4.03,4.16-7.14,1.78C1366.27,945.57,1366.28,944.62,1366.3,943.68z"/>
			<path class="st26" d="M1367.28,904.49c3.02-1.75,1.55-5.21,2.92-7.6c0.05,0.69-0.18,1.68,0.19,2.04
				c5.24,5.04,1.05,6.67-2.96,8.41C1367.38,906.39,1367.33,905.44,1367.28,904.49z"/>
			<path class="st26" d="M1413.7,849.4c5.73,8.71,1.19,16.92-1.51,25.03c-9.35,28.06-18.62,56.11-22.77,85.55
				c-0.09,0.66-0.55,1.27-0.84,1.9c-5.19-4.04-4.67-8.19-1.99-13.96c2.47-5.31,5.1-11.22,2.6-17.97c-1.03-2.79-3.93-8.36,3.2-9.45
				c0.85-0.13,1.31-1.43,0.79-2.34c-2.51-4.36,0.74-8.02,1.67-11.82c0.94-3.85-0.24-6.35-3.48-7.01c-3.66-0.74-5.65,2.19-5.51,5.53
				c0.24,5.72-0.7,10.88-3.73,15.88c-1.05,1.73-1.09,4.79-0.35,6.78c3.05,8.18,0.49,16.5,1.11,24.71c0.2,2.66-0.31,5.21-3.98,5.13
				c1.8-11.2,2-22.31,0.08-33.45c-0.41-2.4-1.14-4.43-2.93-6.11c-1.05-0.99-2.04-3.19-1-3.62c9.65-3.93,2.44-12.23,4.71-18.21
				c2.82-7.44-3.26-11.93-9.34-15.29c0.11-10.71,0.06-21.42,0.42-32.11c0.14-4.18-0.78-7.58-3.35-10.94
				c-5.06-6.61-9.72-13.52-15.23-21.26c7.79,2.19,14.46,4.16,21.46,4.12c1.8-0.01,3.06,1.03,4.34,1.99
				C1389.96,831.47,1401.83,840.44,1413.7,849.4z"/>
			<path class="st44" d="M963.07,565.91c3.99,0.43,6.6,2.47,6.56,6.64c-0.04,3.73-2.24,6.16-6.06,6.36
				c-4.12,0.21-6.82-2.09-6.97-6.14C956.44,568.75,958.96,566.43,963.07,565.91z"/>
			<path class="st26" d="M1146.41,967.48c-0.63,2.32-2.48,2.38-4.37,2.35c-8.7-0.13-17.4-0.28-26.09-0.41
				c1.66-7.54,2.68-15.33,8.07-21.47c3.2,0.47,3.81-1.64,4.4-4.12c5.94-24.67,12.02-49.31,17.88-74c1.67-7.03-2.51-13.1-4.34-19.48
				c-1.38-4.79-1.68-6.87,4.44-7.25c17.16-1.07,30.79-9.6,43.48-23.35c-4.42,22.36-4.8,43.52-13.58,63.2
				c-6.35,14.22-11.3,29.07-16.77,43.67c-0.84,2.23-2.72,4.58-0.45,7.09C1155.24,945.12,1151.31,956.48,1146.41,967.48z"/>
		</g>
	</g>
</g>
</svg>
