<?xml version="1.0" encoding="utf-8"?>
<!-- Generator: Adobe Illustrator 24.3.0, SVG Export Plug-In . SVG Version: 6.00 Build 0)  -->
<svg version="1.1" id="Layer_1" xmlns="http://www.w3.org/2000/svg" xmlns:xlink="http://www.w3.org/1999/xlink" x="0px" y="0px"
	 viewBox="0 0 1080 907" style="enable-background:new 0 0 1080 907;" xml:space="preserve">
<style type="text/css">
	.st0{fill:#00C897;}
	.st1{fill:none;}
	.st2{fill:#019267;}
	.st3{fill:#DFD3A3;}
	.st4{fill:#C9954F;}
	.st5{fill:#377C63;}
	.st6{fill:#463A3E;}
	.st7{fill:#899452;}
	.st8{fill:#F49075;}
	.st9{fill:#EFB53B;}
	.st10{fill:#C9944F;}
	.st11{fill:#377D63;}
	.st12{fill:#B4B080;}
	.st13{fill:#7C522B;}
	.st14{fill:#7A522A;}
	.st15{fill:#7A512A;}
	.st16{fill:#1D181A;}
	.st17{fill:#784D28;}
	.st18{fill:#F39075;}
	.st19{fill:#B3AF7F;}
	.st20{fill:#B5B082;}
	.st21{fill:#B4AF7F;}
	.st22{fill:#1B1516;}
	.st23{fill:#ED9274;}
	.st24{fill:#F49175;}
	.st25{fill:#0F4C13;}
	.st26{fill:#DFD2A3;}
	.st27{fill:#425049;}
	.st28{fill:#0F0C0D;}
	.st29{fill:#899451;}
	.st30{fill:#45393D;}
	.st31{fill:#104C14;}
	.st32{fill:#1B1618;}
	.st33{fill:#43393B;}
	.st34{fill:#FBFBFB;}
	.st35{fill:#E36746;}
	.st36{fill:#E16746;}
	.st37{fill:#524042;}
	.st38{fill:#473B3D;}
	.st39{fill:#554142;}
	.st40{fill:#473A3B;}
	.st41{fill:#784F27;}
	.st42{fill:#754A22;}
	.st43{fill:#8C643A;}
	.st44{fill:#57947D;}
	.st45{fill:#887668;}
	.st46{fill:#443A3D;}
	.st47{fill:#377860;}
	.st48{fill:#45403B;}
	.st49{fill:#43383C;}
</style>
<path class="st0" d="M577.32,293.85C390.21,241.12,74.2,263.2-60.42,280.84c-25.32,154.78-75.91,442.49-39.33,435.66
	c290.86-54.32,626.83,31.32,880.46,31.32c186.13,0,272.87-85.13,382.27-109.5l-49.49-377.66
	C1012.73,293.7,764.43,346.59,577.32,293.85z"/>
<rect x="598.98" y="-51.04" class="st1" width="1093" height="1038"/>
<ellipse class="st2" cx="767.2" cy="730.99" rx="196.56" ry="28.27"/>
<g>
	<path class="st3" d="M770.27,523.4h39.48h13.42l-0.94-8.02c0,0-11.86-14.56-25.12-13.37s-19.5-19-19.5-19"/>
	<rect x="810.39" y="286.34" class="st4" width="27.67" height="14.34"/>
	<path class="st3" d="M975.48,485.46c-0.41,1.17-0.12,2.38,0.27,3.41c2.23,6,1.97,11.99,0.46,18.1c-3.24,13.09-1.99,26.3-0.81,39.5
		c0.58,6.45-0.29,12.81-2.11,18.94c-3.1,10.45-5.69,21.09-9.71,31.24c-3.5,8.83-9.53,15-19.45,16.59
		c-8.01,1.28-14.89,5.77-22.48,8.25c-3.16,1.73-6.6,1.91-10.04,1.56c-3.31-0.33-6.61-0.79-9.88-1.43c-0.96-0.52-2.3-0.58-2.47-2.09
		c-0.06-0.58,1.14-0.64,0.66-0.64c-3.37,0.06-2.6-2.44-2.79-4.24c-0.49-4.68-0.51-9.22,2.31-13.45c1.55-2.32,1.7-5.29,2.03-8.09
		c-0.57,6.16-3.62,11.37-6.29,16.73c-0.07,0.14-0.54,0.2-0.15,0.52c1.45,1.21,2.48,7.18,1.14,8.75c-1.95,2.29-1.53,4.76-1.29,7.3
		c0.37,4.52-2.41,7.64-4.95,10.78c-2.43,3.01-5.58,5.27-8.74,7.47c-1.43,0.98-2.85,1.98-4.33,2.87c-3.95,2.37-8.06,3.27-12.55,1.51
		c-2.68-1.05-5.44-1.92-8.3-2.43c-3.21-0.54-6.45-0.28-9.66-0.23c-3.97,0.07-7.82-0.41-11.59-1.62c-3.21-1.26-6.3-2.85-9.72-3.56
		c-4.71-2.45-9.72-2.55-14.62-1.2c-7.29,2.01-14.52,2.03-21.71,0.05c-8.16-2.25-16.03-2.72-24.33,0.02
		c-6.18,2.04-12.68,0.68-18.74-1.89c-5.92-3.78-10.59-8.96-15.44-13.95c-0.73-0.75-1.47-1.5-1.61-2.62c0.05-1.6,1.35-2.37,2.29-3.35
		c3.5-3.63,6.26-7.7,7.8-12.53c-2.19,5.88-5.64,10.89-10.45,14.93c-0.84,0.7-1.56,1.38-1.63,2.53c-1.2,2.65-3.37,4.73-4.46,7.45
		c-0.71,0.2-1.13-0.98-2.25,0.12c-3.83,3.74-8.39,6.59-12.97,9.38c-1.34,0.62-2.35,1.72-3.62,2.45c-0.41,0.23,0.11-0.04-0.3,0.18
		c-7.21,3.79-7.56,4.06-12.41-2.32c-4.03-5.3-8.12-10.65-11.15-16.66c-0.8-1.14-1.38-2.56-2.44-3.36
		c-4.86-3.68-6.67-8.99-8.43-14.48c-2.12-6.62-4.23-13.27-8.53-18.98c-2.45-3.26-5.48-5.35-9.43-6.02c-6.55-1.1-12.2-3.6-16.12-9.3
		c-1.86-2.7-4.95-4.18-7.05-6.73c-2.88-3.49-3.83-7.6-3.31-11.74c0.58-4.64,0.54-8.89-1.59-13.17c-2.76-5.55-0.81-10.46,2.89-14.77
		c2.77-3.22,4.44-6.24,3.55-10.94c-1.27-6.69,2.3-11.87,7.36-15.99c6.45-5.26,13.93-8.82,21.18-12.75c0.97,2.11-0.9,3.23-1.83,4.48
		c-1.46,1.96-2.94,3.92-4.21,6c-1.29,2.11-2.14,4.34-1.16,6.97c1.11,2.97-0.29,5.52-2.03,7.78c-3.52,4.56-4.37,9.26-1.79,14.65
		c2.32,4.85,3.96,9.89,3.23,15.53c-0.3,2.3,0.13,4.89,1.67,6.76c-1.29-2.65-1.9-5.6-1.56-8.74c0.55-5.11-1.41-9.66-3.47-14.09
		c-2.36-5.05-1.45-9.48,1.72-13.74c2.08-2.8,3.61-5.6,2.07-9.36c-0.9-2.2,0.54-4.28,1.67-6.2c1.6-2.72,3.81-5.01,5.46-7.68
		c0.83-1.34,2.08-2.56,1.78-4.38c2.43-0.72,3.89-2.52,5.49-4.4c10.31-12.15,23-20.73,38.39-25.23c7.33-2.14,14.48-4.91,21.97-6.56
		c2.04-0.45,4.23,0.23,6.14-0.94c1.04,0.86,1.07,2.07,0.95,3.21c-1.17,11-1.6,22.06-2.36,33.09c-0.84,12.07-3.16,24.04-2.5,36.22
		c0.21,3.89,0.73,7.65,2.06,11.3c4,11.03,13.97,15.7,25,11.61c7.79-2.89,13.81-8.03,18.49-14.87c2.89-4.22,5.27-8.81,8.83-12.55
		c1.67-0.84,2.37,0.28,2.81,1.54c1.41,3.97,4.64,5.65,8.31,6.84c2.95,1.28,6.23,1.47,9.13,2.47c0.2,1.28-0.58,1.37-1.19,1.64
		c-0.65,0.29-1.91,0.17-1.38,1.42c0.43,0.99,1.35,1.66,2.52,1.42c1.12-0.22,0.85-1.13,0.75-1.95c-0.29-2.33-2.19-4.42-1.05-6.97
		c2.89-2.63,4.63-2.44,7.85,0.81c0.46,0.67,0.82,1.4,1.03,2.2c0.21,0.82,0.34,1.67-0.54,2.17c-1.02,0.58-1.45-0.34-1.94-0.93
		c-0.44-0.54-0.75-1.18-1.3-1.64c-0.37-0.31-0.82-0.55-1.27-0.35c-0.73,0.32-0.49,0.98-0.33,1.51c0.31,1,0.88,1.9,1.12,2.94
		c0.88,3.89-0.68,5.86-4.69,5.72c-3.27-0.12-6.49,0.12-10.43,0.93c4.63,1.81,9.14-0.12,13.55,1.96c-2.93,2.48-6.53,1.88-9.21,3.63
		c3.83,1.45,7.62,0.48,11.41,0.23c1.44-0.1,1.81-1.18,2.38-2.22c2.9-5.25,7.93-5.47,10.74-0.29c1.16,2.14,2.75,1.91,4.41,1.76
		c9.04-0.8,18.1-1.49,27.04-3.22c1.25-0.24,2.51-0.57,3.81-0.45c2.44,1.16,2.52,3.76,3.46,5.81c2.26,4.94,2.82,5.27,7.93,3.56
		c26.75-8.96,53.19-18.76,79.29-29.49c0.86-0.35,1.72-0.73,2.56-1.12c10.48-4.95,12.59-9.05,10.69-20.55
		c-0.99-6-2.73-11.81-4.42-17.63c-0.4-1.38-1.3-2.9,0.34-4.15c1.03-0.28,1.8,0.27,2.55,0.82c3.49,2.59,7.37,4.38,11.46,5.8
		C972.19,479.76,974.95,481.57,975.48,485.46z"/>
	<path class="st5" d="M782.28,514.32c-3.26,4.83-6.47,9.69-9.79,14.48c-3.93,5.68-9.06,10-15.35,12.87
		c-14.27,6.52-26.93,0.13-30.16-15.21c-1.58-7.5-1.46-15.13-0.49-22.63c1.49-11.56,2.17-23.18,3.09-34.79
		c0.6-7.54,0.97-15.11,1.45-22.66c0.96-15.39,2.9-30.61,7.7-45.36c1.63-4.99,3.4-9.91,5.81-14.58c5.49-10.69,15.53-14.1,26.26-16.3
		c3.77-0.77,7.61-1.12,11.47-1.04c9.3-0.72,9.21-0.69,12.48,7.92c3.73,9.82,5.13,20.02,5.35,30.44c0.21,10.13-0.66,20.22-1.05,30.32
		c-0.39,1.3-1.55,1.53-2.63,1.84c-1.41,0.4-2.32,1.35-3.01,2.58c-2.82,1.5-5.94,1.45-8.99,1.74c-3.62-1.08-6.59-3.39-9.83-5.2
		c-1.44-0.8-1.53-2.17-1.49-3.64c0.18-7.33,1.21-14.61,1.5-21.94c-0.49,7.3-1.38,14.57-1.54,21.89c-0.07,2.98-1.91,5.25-3.39,7.54
		c-5.68,8.81-11.1,17.77-14.21,22.52c3.43-5.42,9.53-14.84,15.36-24.43c1.17-1.92,2.65-2.3,4.73-1.22c3.08,1.59,5.82,3.86,9.26,4.76
		c3.25,0.85,5.35,3.51,8.1,5.14c4.93,3.89,10.01,7.59,15.04,11.35c4.51,3.88,4.81,4.83,1.65,9.89
		c-6.75,10.82-12.87,22.02-19.79,32.74c-2.07,2.37-2.94,5.47-4.82,7.95C784.18,512.37,783.64,513.72,782.28,514.32z"/>
	<path class="st5" d="M955.1,472.06c-1.39,1.22-0.15,2.39,0.18,3.47c2.28,7.47,4.44,14.95,5.12,22.8
		c0.59,6.83-1.89,11.82-7.98,14.96c-8.94,4.61-18.38,8.03-27.75,11.59c-19.5,7.42-39,14.85-58.88,21.23
		c-5.05,1.62-5.46,1.44-7.69-3.37c-1.03-2.21-1.94-4.48-2.9-6.72c-2.56-3.17-2.9-7.19-4.13-10.86c-0.4-1.2-0.66-2.45-0.93-3.69
		c-0.26-1.73-0.67-3.43-0.99-5.15c-0.73-3.98-0.37-4.89,3.29-6.6c7.71-3.61,15.71-6.52,23.56-9.8c10.43-4.36,20.95-8.51,31.4-12.81
		c1.08-0.44,2.14-0.97,3.36-0.66c3.86-0.56,6.98-2.94,10.52-4.31c3.13-1.22,6.14-2.76,9.23-4.08c-6.52,2.62-12.8,5.78-19.31,8.42
		c-3.47-3.77-6.09-8.19-9.22-12.23c-5.07-6.53-10.08-13.1-14.83-19.88c-1.67-2.79-5.08-4.82-3.86-8.87
		c0.44-0.93,1.28-1.23,2.21-1.37c1.23-0.18,2.55-0.18,2.87-1.82c0.31-1.57-0.33-2.6-1.71-3.3c-0.3-0.15-0.45-0.5-0.62-0.8
		c-0.93-3.92-0.23-7.89-0.47-11.83c-0.98-15.68-1.71-31.39-6.33-46.57c-0.75-2.45-1.54-4.88-2.6-7.22
		c-0.55-1.22-1.49-2.46-0.52-3.91c6.07-0.34,12.01,0.95,18.02,1.42c11.63,0.84,21.58,4.33,27.06,15.87
		c4.91,10.33,9.21,20.93,13.96,31.33c0.3,1.39,0.66,2.77,0.22,4.21c-0.16,0.35-0.41,0.61-0.74,0.8c-3.02,1.02-6.19,0.15-9.25,0.81
		c-5.34,1.15-10.31,3.24-15.17,5.64c-4.06,2.29-8.31,4.26-12,7.15c-1.16,0.9-2.81,1.83-2.52,3.51c0.31,1.79,2.27,1.77,3.68,2.13
		c8.35,2.12,16.87,2.04,25.37,1.64c3.28-0.15,6.31-1.51,9.27-2.97c2.29-1.13,4.44-2.57,6.91-3.34c0.62,0,1.18,0.22,1.46,0.78
		c0.73,1.48,1.6,2.25,3.23,1.05c0.54-0.4,1.35-0.64,1.83,0.15c0.34,0.56,0.03,1.22-0.37,1.59c-2.48,2.29-1.63,4.71-0.62,7.35
		C949.54,455.79,952.31,463.93,955.1,472.06z"/>
	<path class="st6" d="M935.03,421.09c0.09-1.13-0.79-2.21-0.15-3.36c-0.06-2.46,1.6-3.41,3.58-4.09c0.82-0.02,1.55,0.35,2.32,0.56
		c3.71,1.02-6.46,5.67-5.62,1.91c0.27-1.23,12.37-8.39,13.81-8.97c11.87-5.53,24.15-8.22,37.3-5.78
		c13.28,2.46,26.62,4.57,39.73,7.85c1.35,0.34,2.69,0.76,4.01,1.19c8.32,2.72,10.24,5.48,7.81,13.67c-0.99,3.34-3.83,6.34-7.25,8.08
		c-2.05,1.05-3.46,2.61-4.9,4.32c-9.4,11.2-19.42,21.71-32.46,28.82c-8.67,4.46-17.47,5.73-26.5,0.97
		c5.91,3.06,12.05,4.04,18.49,2.12c0.93-0.28,1.82-0.4,2.5,0.52c-5.11,4.76-9.63,9.95-12.22,16.57c-1.76-3.72-4.93-5.56-8.7-6.74
		c-4.36-1.36-8.27-3.59-11.68-6.66c-3.49-3.36-3.36-8.28-5.23-12.35c-2.17-4.73-3.48-9.85-5.44-14.69c-1.27-3.12,1.6-3.98,2.78-6.07
		c-1.84-0.12-2.26,2.46-3.68,1.98c-1.53-0.52-1.13-2.69-2.25-3.73c0.87-1.85,0.87-1.85,4.39-4.55c-4.59-0.23-8.7,0.08-12.74-0.68
		c-2.87-0.54-5.73-0.99-8.52-1.91c-3.9-1.28-7.88-2.18-12.04-1.47c-0.92,0.16-1.87,0.28-2.65-0.45c7.76-4.53,16.01-7.12,25.11-6.38
		c4.04,0.03,8.03,1.17,12.1,0.6c0.08-0.42,1.66,0.43,0.72-0.96c-1.28-1.9-0.98-3.74,0.68-5.33c1.78-1.7,3.71-3.65,5.92-1.99
		c-1.52-1.32-3.13-0.29-4.87,0.81c-1.81,1.15-2.86,2.65-2.54,4.92c0.12,0.85,0.73,1.84-0.44,2.48
		C942.54,422.67,938.74,422.31,935.03,421.09z"/>
	<path class="st7" d="M616.21,650.14c-0.08-3.03-0.07-6.06-0.29-9.08c-0.17-2.43,0.88-3.67,3.15-4.23
		c5.89-1.46,11.85-2.52,17.92-2.7c1.53-0.05,2.99-0.24,4.42-0.77c4.67-1.8,9.56-1.55,14.4-1.46c4.13,0.08,8.24,0.79,12.38,0.18
		c3.66-0.03,7.32-0.06,10.98-0.09c0.96,0.84,0.68,1.88,0.4,2.88c-1.29,4.66-2.55,9.33-4.51,13.76c-0.93,1.41-1.93,2.78-2.01,4.57
		c-0.35,2.07-1.34,3.94-1.91,5.94c-0.13,0.74-0.27,1.47-0.5,2.19c-4.7,13.02-3.15,26.1-0.54,39.22c0.43,2.19,1.65,4.47,0.03,6.71
		c-5.14,1.59-10.45,1.03-15.58,0.57c-6.73-0.6-13.48-0.33-20.21-1.07c-8.61-0.95-8.84-0.82-10.91-9.25
		c-0.11-0.45-0.22-0.91-0.31-1.36c-2.57-13.34-5.32-26.64-6.88-40.16C616.01,654.04,615.66,652.1,616.21,650.14z"/>
	<path class="st8" d="M806.63,368.59c0.02-3.02,0.05-6.03,0.07-9.05c0.42-1.61,1.9-2.3,2.96-3.34c3.48-3.43,4.09-7.43,1.66-11.7
		c-1.1-1.93-2.52-3.63-4.06-5.24c-1.56-1.63-2.65-3.52-3.45-5.62c-1.01-2.64-0.74-5.1,1.21-7.15c1.82-1.92,4.18-1.85,6.52-1.22
		c6.31,1.7,6.3,1.73,7.82-4.86c2.12-9.18,6.85-12.86,16.25-13.12c6.44-0.17,12.78,0.42,19.1,1.58c0.46,0.08,0.92,0.16,1.38,0.22
		c6.25,0.73,6.28,0.72,7.31,6.88c1.01,6.06,2.11,12.12,1.47,18.32c-0.04,5.21,0.22,10.44-0.18,15.63
		c-0.53,6.86-2.81,13.08-8.4,17.61c-1.75,2.33-4.52,2.76-7,3.75c-6.8,0.26-13.32-1.22-19.87-3.37c6.07,2.54,12.46,2.79,18.67,3.95
		c0.87,1.39-0.02,2.45-0.7,3.5c-5.01,7.72-15.03,11.43-23.9,8.61c-4.64-1.48-9.16-3.38-13.4-5.84
		C808.32,375.19,806.06,372.41,806.63,368.59z"/>
	<path class="st9" d="M616.21,650.14c1.55,5.47,1.61,11.16,2.58,16.73c1.58,9.13,3.11,18.26,5.05,27.32
		c0.12,0.56,0.04,1.16,0.06,1.74c-1.02,1.13-2.42,1.46-3.8,1.47c-2.76,0.02-3.53,1.48-3.54,4c-0.02,7.55,0.36,15.12-0.66,22.65
		c-0.19,1.38-0.07,2.81-1.11,3.93c-1.21,5.68-2.74,11.2-6.56,15.81c-2.95,3.55-6.68,5.63-11.19,6.37c-1.99,0.33-3.69-0.05-4.69-2.03
		c-0.59-1.53-1.06-3.12-1-4.75c0.28-7.46-0.7-14.87-0.79-22.31c-0.27-21.4-1.24-42.78-1.66-64.17c-0.02-1.18-0.14-2.35,0.89-3.21
		C598.47,651.58,607.36,651,616.21,650.14z"/>
	<path class="st10" d="M883.62,301.24c-0.88,3.26-2.05,6.39-4.01,9.18c-1.41-1.45-0.97-3.3-0.92-4.98
		c0.4-11.92-9.44-20.77-21.28-21.41c-8.56-0.47-16.59,1.76-24.44,4.87c-1.08,0.43-2.08,1.07-3.29,1.07
		c-0.85-0.04-1.49-0.5-2.09-1.05c-1.6-1.45-3.45-1.94-5.37-0.87c-1.87,1.04-2.61,2.79-2.36,4.94c0.05,0.46-0.01,0.92-0.15,1.36
		c-1.34,2.21-3.67,3.2-5.7,4.51c-8.61,5.54-16.28,12.09-22.27,20.45c-5.08,7.09-9.16,14.62-10.15,23.5
		c-0.15,1.36-0.35,2.8-1.39,3.88c-4.56-3.33-7.53-7.77-9.08-13.17c2.43-8.94,6.68-16.9,12.83-23.83c3-4.18,6.9-7.49,10.63-10.96
		c4.73-3.96,9.84-7.36,15.28-10.28c-5.53,2.87-10.61,6.4-15.44,10.32c-3.7,3.62-7.76,6.91-10.75,11.22
		c-5.31,5.84-8.88,12.69-11.59,20.03c-0.35,0.95-0.47,2.01-1.16,2.82c-2.05-6.83-0.78-13.38,1.91-19.7
		c5.49-12.91,15.22-22.11,26.55-29.86c2.2-1.51,4.44-2.97,6.66-4.45c3.56-2.29,6.83-5.2,11.38-5.41
		c11.52-4.39,23.32-7.38,35.78-6.49c9.02,0.65,17.48,2.96,24.24,9.39c6.84,6.51,8.84,14.48,6.57,23.58
		c-0.88-3.32-1.42-6.72-2.96-9.86c-4.65-9.51-12.55-14.02-22.75-15.01c-10.32-1-20.09,1.44-29.68,4.94
		c-1.53,0.56-3.09,1.05-4.61,1.65c8.83-3.48,17.86-6.3,27.37-6.76c14.63-0.72,26.9,4.71,31.42,19.85
		C883.41,296.85,883.28,299.06,883.62,301.24z"/>
	<path class="st6" d="M670.15,707c-1.07-6.62-2.37-13.2-3.14-19.85c-1.05-9.04-0.71-18.02,3.11-26.54c6.78-0.42,6.79-0.43,4.17-6.95
		c-0.52-1.29-0.76-2.5,0.47-3.45c1.22-0.94,2.38-0.51,3.45,0.41c0.61,0.53,1.04,1.22,1.48,1.63c-0.95-2.19-3.29-2.59-5.36-3.42
		c1.47-5.65,4-10.99,4.84-16.83c0.09-2.74,0.17-5.48,0.26-8.22c3.08,2.88,5,6.62,7.44,9.98c0.88,1.22,1.67,2.5,2.47,3.78
		c1.61,2.59,3.65,4.92,6.01,6.68c3.2,2.39,4.94-2.18,7.75-2.36c1.01,1.14,0.3,2.16-0.24,3.18c-1.3,2.47-2.67,4.9-4.18,7.24
		c-0.86,1.33-1.34,2.66-1.03,4.24c-1.48,3.06-2.29,6.33-3.13,9.6c-0.71,2.81-1.29,5.55-3.85,7.57c-1.66,1.31-1.84,3.48-0.51,5.38
		c1.23,1.76,1.35,3.66,1.04,5.67c-1.26,8.19-0.5,16.41-0.43,24.63c0.01,0.71,0.3,1.36,0.44,2.04c0.85,5.36,1.62,10.72,2.52,16.07
		c0.23,1.34,0.68,2.73-0.31,3.99c0.04,4.94,2.44,8.67,5.71,12.19c3.08,3.31,1.44,7.15-3.12,7.72c-1.7,0.21-3.47-0.09-5.2-0.19
		c-8.26-0.47-10.44-2.75-11.05-11.09c-0.26-3.6-2.04-6.81-3.2-10.17c-0.42-0.23-0.79-0.53-0.94-0.97
		c-2.34-6.88-4.51-13.8-5.74-20.98C669.82,707.64,670,707.31,670.15,707z"/>
	<path class="st7" d="M901.38,620.62c6.72,1.22,13.45,2,20.27,0.87c-1.2,4.17-2.39,8.34-3.59,12.5c-0.6,4.93-1.4,9.81-4.19,14.09
		c-3.93,12.4-7.79,24.83-11.82,37.2c-2.2,6.75-4.6,13.43-8.28,19.56c-0.17,1.52-1.27,2.2-2.55,2.45c-3.43,0.68-6.81,0.65-9.94-1.26
		c-0.81-1.51-0.7-3.17-0.67-4.79c0.14-7.68-0.37-15.36,0.59-23.03c0.57-4.53-0.41-9.07-0.87-13.57c-0.59-5.71-0.31-11.4-0.4-17.1
		c-0.02-1.32,0.37-2.52,1.08-3.63c4.66-3.81,9.61-7.36,12.15-13.15c0.61-1.39,1.25-2.75,1.24-4.31c-0.01-0.16-0.02-0.32-0.03-0.48
		c-0.11-2.9,2.27-4.06,3.98-5.7C899.35,620.34,900.37,620.41,901.38,620.62z"/>
	<path class="st11" d="M810.27,377.71c3.74,1.54,7.47,3.09,11.22,4.61c10.52,4.29,21.56,0.09,26.73-10.14
		c0.14-0.68,0.76-1.04,1.1-1.59c2.33-1.02,4.67-2.04,7-3.06c1.7,0.18,3.4,0.36,5.09,0.54c2.98,7.4,5.09,15.03,6.11,22.95
		c-0.21,1.38-1.25,2.2-2.14,3.1c-14.74,14.76-29.48,29.51-44.24,44.25c-0.82,0.82-1.59,1.71-2.71,2.17
		c-0.91,0.28-1.8,0.23-2.66-0.17c-0.88-0.71-2.07-1.09-2.55-2.26c-0.25-6.07,0.67-12.08,1.17-18.09
		c1.02-12.23,0.17-24.19-3.39-35.95C810.36,382.03,809.05,379.99,810.27,377.71z"/>
	<path class="st6" d="M864.89,334.3c-0.9-6.66-1.85-13.3-2.67-19.97c-0.35-2.88-0.7-4.94-4.71-4.29c-3.26,0.52-6.65-0.75-9.98-1.32
		c-5.65-0.96-11.34-1.02-17.01,0.14c-5.44,1.11-8.44,4.56-9.72,9.77c-0.55,2.26-0.99,4.55-1.59,6.79c-0.7,2.63-2.46,3.17-4.84,2.19
		c-0.43-0.18-0.86-0.36-1.26-0.59c-2.45-1.38-5.15-2.43-7.42-0.2c-2.42,2.37-1.64,5.32-0.35,8.12c1.15,2.5,3.21,4.26,4.93,6.3
		c6.03,7.17,4.73,13.83-3.56,18.3c-1.56-1.34-1.75-3.43-2.76-5.08c-2.41-2.88-2.2-6.54-2.8-9.92c-0.96-5.37-1.51-10.82-2.72-16.15
		c-0.45-1.97-0.55-4.05,0.64-5.75c6.7-9.6,13.77-18.82,25.18-23.33c0.32-0.13,0.65-0.25,0.98-0.35c3.45-0.97,3.45-0.97,4.32,4.18
		c0.14,0.45,0.7-0.22,0.29-0.01c-0.2,0.1-0.29,0.07-0.35-0.06c-0.7-1.77,0.06-3.38,0.56-5.02c1.32-2.3,3.64-1.76,5.68-2.01
		c6.71-1.72,13.45-2.48,20.33-0.84c2.71,0.64,5.49,0.97,8.3,1.03c2.38,0.05,4.26,1.02,5.39,3.23c0.33,0.64,0.57,1.25,0.49,1.98
		c-0.14,1.44-1.57,1.91-2.19,2.98c1.91,1.02,1.04,2.23,0.25,3.45c-0.42,0.63-0.4,1.28-0.13,1.99c2.17,5.71-0.18,11.11-1.18,16.6
		C866.04,329.01,866.29,331.87,864.89,334.3z"/>
	<path class="st7" d="M810.27,377.71c4.06,12.2,6.24,24.71,5.5,37.59c-0.44,7.73-1.37,15.43-2.08,23.14
		c-3.38,2.27-7.19,0.92-10.8,1.25c-1.56,0.14-3.3,0.24-4.52-1.21c-0.49-9.56,0.8-19.07,0.74-28.63c-0.08-11.48-1.5-22.67-5.67-33.42
		c-0.5-1.3-1.15-2.61-1.3-3.97c-0.31-2.73-1.76-3.46-4.28-3.25c-1.84,0.16-3.72-0.07-5.58-0.12c8.11-0.8,16.22-1.41,24.36-0.5
		C807.84,371.63,809.06,374.67,810.27,377.71z"/>
	<path class="st9" d="M881.77,706.3c2.04,0.01,4.06,0.03,6.1,0.39c2.15,0.39,4.27-0.16,5.9-1.85c6.84,0.49,13.68,0.97,20.52,1.46
		c4.84,0.35,9.24,2.17,13.57,4.18c3.82,3.21,7.88,6.28,8.92,11.57c0.5,2.55,1.34,5.37-1.7,7.17c-10.79,1.23-21.62,0.36-32.42,0.56
		c-5.82,0.11-11.64,0.05-17.46-0.01c-2.63-0.02-3.85-1.01-4.14-3.9c-0.52-5.24-0.45-10.46-0.44-15.7
		C880.61,708.8,880.57,707.35,881.77,706.3z"/>
	<path class="st7" d="M866.84,391.62c-1.05-6.62-2.79-13.08-4.84-19.44c-0.44-1.35-0.61-2.7-0.6-4.1c4.93-0.33,9.82,0.37,14.72,0.58
		c9.76,22.36,10.25,46.11,10.5,69.89c-1.05,1.24-2.53,1.09-3.88,1.03c-3.8-0.18-7.65,0.64-11.4-0.56c-1.54-1.53-1.58-3.59-1.78-5.52
		c-1.36-13.32-1.62-26.72-3.28-40.02C866.37,392.83,866.64,392.23,866.84,391.62z"/>
	<path class="st4" d="M825.56,299.7c-11.82,4.38-18.91,13.96-25.93,23.61c-1.01,1.39-0.64,2.93-0.39,4.39
		c1.54,8.92,3.13,17.84,4.71,26.75c-8.13-0.2-15.87-1.65-22.44-6.9c-1.48-4.91,0.35-9.47,1.98-13.84
		c4.94-13.28,14.1-23.3,25.28-31.71c3.62-2.72,7.88-4.51,11.09-7.79c0.25-0.25,0.54-0.44,0.86-0.58c3.84-0.75,6.79-3.98,10.92-3.92
		c1.37,1.93-0.7,2.54-1.44,3.62c-1.33,1.95-4.01,2.85-4.33,5.59C825.91,299.24,825.81,299.5,825.56,299.7z"/>
	<path class="st4" d="M866.96,326.45c-0.24-3.51,0.19-7,0.97-10.37c0.7-3.01,0.68-5.49-2.15-7.25c0.76-1.37,2.99-1.48,2.81-3.03
		c-0.15-1.34-2-0.73-3.11-1.31c0.68-0.33,1.27-0.62,1.86-0.91c1.16-0.56,2.92-1.4,2.34-2.55c-0.65-1.28-1.13-3.28-3.24-3.48
		c-10.07-0.96-20.1-4.05-30.27-0.7c-1.17-0.73-2.49-0.36-3.74-0.5c-1.08-0.11-2.14-0.41-2.56-1.48c-0.41-1.04,0.44-1.75,1.12-2.35
		c1.18-1.04,2.01-2.17,1.65-3.84c8.28-3.28,16.68-5.77,25.76-4.92c16.15,1.52,24.2,15.93,19.67,28.8c-0.07,0.21-0.02,0.45,0.04,0.68
		C874.93,318.11,871.38,322.64,866.96,326.45z"/>
	<path class="st6" d="M589.78,653.68c0.67,23.56,1.3,47.11,2.03,70.67c0.25,7.93,0.73,15.85,0.53,23.78
		c-3.94-6.21-4.39-13.37-5.48-20.35c-0.21-1.37-0.03-2.81-0.72-4.09c-0.69-11.02-1.32-22.05-2.11-33.07
		c-0.21-2.97,0.36-5.48,2.64-7.47c1.72-1.5,1.9-2.87,0.08-4.53c-7.18-6.53-4.09-14.5-2.74-22.07
		C584.53,653.76,587.51,653.96,589.78,653.68z"/>
	<path class="st12" d="M659.05,483.5c2.36,0.57,0.71,1.86,0.28,2.53c-2.08,3.21-4.31,6.33-6.52,9.46c-1.77,2.5-2.65,5.06-1.34,8.12
		c1.28,2.98-0.78,5.26-2.29,7.29c-3.36,4.51-4.45,8.95-1.76,14.21c2.46,4.82,3.69,10,3.14,15.52c-0.34,3.44,1.78,6.36,2.22,9.7
		c-3.22-2.3-4.42-5.96-3.93-9.36c0.85-5.85-1.21-10.77-3.4-15.75c-2.23-5.08-1.66-9.72,1.57-14.08c2.08-2.81,3.27-5.49,2.29-9.31
		c-1.11-4.37,2.39-7.51,4.6-10.86c1.2-1.81,3.04-3.2,3.61-5.43C658.03,484.87,658.54,484.19,659.05,483.5z"/>
	<path class="st13" d="M883.62,301.24c-1-3.19-1.16-6.58-2.54-9.69c-4.93-11.07-13.89-15.81-25.51-16.16
		c-11.26-0.35-21.78,2.93-32.1,7.02c-0.68,0.27-1.32,1.13-2.48,0.06c4.56-2.3,9.24-3.77,13.96-5.16c9.22-2.72,18.52-4.1,28.11-2.04
		c12.08,2.6,20.59,12.77,20.92,24.64C883.86,300.35,883.74,300.79,883.62,301.24z"/>
	<path class="st14" d="M878.11,313.25c-1.11-1.01-0.02-1.98,0.17-2.87c2.74-12.82-5.72-24.45-18.68-25.93
		c-9.51-1.09-18.3,1.14-26.87,4.92c-0.12,0.41-0.39,0.64-0.83,0.66c-2.8,0.37-5.07,2.03-7.57,3.14c-1.14,0.5-2.15,1.36-3.51,1.13
		c-0.27-0.24-0.35-0.52-0.25-0.87c1.8-2.06,4.36-2.79,6.74-3.85c0.58-0.22,1.24,0.25,1.78-0.25c5-1.86,9.92-3.97,15.17-5.04
		c7.69-1.57,15.38-2.39,22.81,1.24c8.32,4.07,12.61,10.68,12.62,19.99c0,1.63-0.05,3.26-0.08,4.88
		C879.11,311.36,878.61,312.31,878.11,313.25z"/>
	<path class="st15" d="M820.07,294.39c-0.31,1.98-2.2,2.23-3.49,3.03c-11.53,7.14-21.5,15.88-28.47,27.69
		c-4.08,6.92-6.78,14.26-6.6,22.44c-0.44-0.29-0.88-0.58-1.32-0.87c1.21-16.09,9.49-28.39,20.87-39.05
		c5.56-5.21,12.02-9.17,18.29-13.41C819.64,294.05,819.88,294.09,820.07,294.39z"/>
	<path class="st16" d="M987.7,468.89c-5.12,0.72-10.23,2.31-15.42,0.48c-3.09-1.09-6.43-1.8-8.51-4.68c0.47-0.7,0.88-0.67,1.31-0.39
		c8.09,5.18,16.49,5.27,25.09,1.44c1.02-0.45,1.99-0.54,3.04-0.46C992.23,467.8,989.48,467.6,987.7,468.89z"/>
	<path class="st17" d="M784.18,309.69c-5.82,7.14-9.83,15.27-13.08,23.83c-0.07-0.23-0.14-0.46-0.21-0.68
		c2.23-8.78,6.36-16.54,12.51-23.21C783.69,309.33,783.94,309.37,784.18,309.69z"/>
	<path class="st7" d="M745.17,637.64c0.75-0.65,1.42-0.28,2.22,0.03c6.6,2.54,13.26,3.14,20.02,0.54
		c6.66-2.55,13.28-1.24,19.83,0.48c8.01,2.1,15.87,2.6,23.98,0.03c4.16-1.32,8.74-0.94,12.99,0.84c0.82,0.34,1.45,0.67,1.61,1.58
		c0.74,0.93,0.6,1.98,0.35,3.01c-4.13,16.78-8.66,33.41-18.04,48.24c-7.58,11.99-17.82,19.09-32.49,19.94
		c-10.08,0.59-19.97,0.37-29.87-1.42c-1.93-1.36-2.56-3.54-3.46-5.54c-4.4-9.79-8.14-19.75-10.38-30.33
		c-1.9-8.98-5.55-17.54-7.65-26.5c-1.13-4.82-3.04-9.53-2.28-14.65c0.39-0.26,0.83-0.51,1.29-0.45
		C730.7,634.36,738.16,634.84,745.17,637.64z"/>
	<path class="st6" d="M881.77,706.3c0.13,6.87,0.38,13.75,0.32,20.62c-0.02,2.55,1.57,1.8,2.75,1.81c15.5,0.05,31,0.04,46.5,0.09
		c1.24,0,2.57-0.4,3.74,0.4c-5.9,3.19-12.46,3.65-18.92,4.33c-10.43,1.1-20.9,1.64-31.39,1.51c-2.39-0.03-3.11,0.8-3.47,3.01
		c-0.75,4.65-1.98,5.59-6.81,5.46c-3.13-0.09-6.25-0.58-9.38-0.71c-1.46-0.06-1.78-0.99-1.97-1.99c-0.43-2.28-0.83-4.58-1.02-6.9
		c-0.11-1.32-0.68-2.21-1.69-2.85c-1.28-0.81-2,0.41-2.61,1.06c-6.8,7.2-14.84,4.04-22.49,2.45c-2.58-0.54-3.06-3.4-2.12-6.01
		c1.53-1.1,3.31-0.97,5.05-0.98c6.06-0.03,12.11-0.07,18.17,0.02c2.84,0.04,3.85-1.09,3.91-3.92c0.15-7.11-0.41-14.18-0.67-21.27
		c0.77-17.25-2.56-34.09-5.19-50.99c-0.2-1.27-0.43-2.52-0.44-3.81c-0.02-1.79,0.86-2.25,2.45-1.74c2.1,0.14,4.16,0.65,6,1.57
		c5.62,2.82,10.7,1.78,15.57-1.75c0.92-0.67,1.96-1.19,2.95-1.78c-0.18,9.66,0.16,19.28,1.23,28.92c0.84,7.51-1.17,15.05-0.64,22.64
		C881.83,699.07,881.72,702.69,881.77,706.3z"/>
	<path class="st6" d="M722.19,633.96c2.26,14.73,7.91,28.58,11.22,43.01c2.71,11.79,7.36,22.7,12.44,33.53
		c0.68,0.44,1.38,0.88,1.71,1.66c2.07,4.87,4.94,9.35,7.07,14.19c0.24,0.54,0.32,1.1,0.21,1.68c0.9,3.49,3.56,5.91,5.34,8.87
		c0.91,1.51,0.95,2.15-0.78,4.13c-4.6,5.27-9.54,2.34-14.32,2.22c-3.67-0.1-6.44-2.29-7.16-6.03c-0.63-3.28-2.42-5.64-4.75-7.77
		c-3.7-2.16-4.79-6.23-6.63-9.62c-1.99-3.67-3.74-7.52-5.18-11.48c-5.62-18.86-15.5-35.87-23.38-53.75
		c2.07-5.43,5.14-10.28,8.58-14.93c4.34-3.33,9.17-5.99,13.2-9.73c1.3-1.21,1.68-0.38,2.14,0.66
		C722.97,631.63,722.94,632.76,722.19,633.96z"/>
	<path class="st7" d="M835.48,696.66c-3.35-0.95-6.69-1.93-10.05-2.85c-2.03-0.56-2.66-1.57-2.23-3.82
		c2.97-15.51,7.18-30.73,10.88-46.07c7.34,2.18,14.98,0.82,22.41,1.96c-2.15-0.07-1.6,1.37-1.42,2.56
		c1.21,8.08,2.29,16.17,3.68,24.22c1.68,9.76,2.3,19.56,1.92,29.43c-1.09,0.94-2.36,0.81-3.63,0.57c-6.38-1.18-12.6-3.11-18.96-4.4
		C837.02,698.05,836.13,697.54,835.48,696.66z"/>
	<path class="st18" d="M808.69,521.97c0.42-0.5,0.98-0.71,1.59-0.83c6.01-0.36,11.97-0.27,17.85,1.33c-2.71-0.4-5.35-1.04-7.82-2.25
		c-1.42-0.7-3.9-1.09-3.57-2.75c0.4-1.98,2.9-1.3,4.54-1.33c4.45-0.08,8.79,0.93,13.1,1.83c3.96,0.82,8.13,0.92,11.76,3.03
		c1.53,0.89,3.21-0.74,4.71,0.33c1.45,4.9,2.9,9.8,4.34,14.69c-7.54,1.91-15.25,2.76-22.98,3.47c-3.58,0.33-7.18,0.45-10.76,0.77"/>
	<path class="st18" d="M806.76,541.08c-4.82,0.35-9.57,0.5-15.01-0.69c3.82-2.66,7.79-2.86,11.95-4.2
		c-5.27-0.53-10.15,0.45-15.07-1.39c1.29-1.81,3.27-2.14,4.89-2.15c2.75-0.03,5.41-0.98,8.26-0.31c2.26,0.54,3.88-0.65,3.52-3.34
		c-0.12-0.91-0.31-1.83-0.66-2.68c-0.65-1.57-2.99-3.43-0.33-4.65c2.41-1.1,5.95-0.18,6.62,1.99l11.33,15.72l-0.22,0.83"/>
	<path class="st19" d="M832.69,595.92c0.61,5.8,3.93,10.25,6.89,14.91c2.08,3.28,3.35,6.88,2.94,10.91
		c-0.83,8.25,2.7,14.35,9.39,18.89c0.98,0.66,2.15,1.33,2.23,2.91c-8.78-3.91-13.57-10.56-13-17.16c0.68-7.82-2.08-14.23-6.57-20.32
		C832.43,603.16,831.24,599.75,832.69,595.92z"/>
	<path class="st20" d="M901.38,620.62c-1.23,0.06-2.45,0.12-3.68,0.18c-1.96,1.37-3.11,3.23-3.38,5.62c0,0,0.06,0.03,0.06,0.03
		c-1.1-2.6-1.26-5.17,1-7.18c1.25-1.11-0.16-2,0.19-3.11c0.5-1.57,0.13-3.41,0.13-5.17c-1.2-0.05-0.95,1.35-1.91,1.5
		c0-0.34-0.1-0.71,0.01-1c2.57-6.55,6.7-12.55,6.93-19.93c0.02-0.68,0.42-1.48,1.3-1.27c0.89,0.22,0.74,1.14,0.61,1.76
		c-0.8,3.72-0.96,7.62-3.23,10.92c-2.61,3.8-1.87,8.16-1.23,12.2c0.2,1.27-0.71,1.62-0.56,2.43c0.82,0.78,2.05-1.37,2.53,0.39
		c0.05,0.17,3.14,1.03,0.01,1.56C899.57,619.68,901.3,619.87,901.38,620.62z"/>
	<path class="st18" d="M794.8,521.26c2.34,0.33,4.7-1.06,7.03,0.07c-0.08,2.01,0.22,3.95,1.32,5.66c0.82,1.27,1.48,2.59,0.03,3.68
		c-1.31,0.99-2.72,0.23-3.87-0.56c-1.06-0.73-2.25-2.04-1.98-3.06c0.47-1.81,2.74-0.02,3.87-1.26c-3.1-0.81-6.4-0.72-9.18-2.49
		c0.62-0.26,0.7-0.8,0.73-1.37C793.43,521.71,793.92,520.87,794.8,521.26z"/>
	<path class="st21" d="M729,621.44c-0.93,0.49-1.86,0.99-2.8,1.48c-1.4-1.27,0.01-1.9,0.71-2.38c5.27-3.68,8.34-8.96,10.91-14.64
		c0.37-0.81,0.18-2.64,1.66-1.97c1.31,0.59,0.03,1.82-0.25,2.74C737.4,612.67,733.08,616.97,729,621.44z"/>
	<path class="st22" d="M706.56,639.66c-2.19,5.27-5.55,9.87-8.35,14.79c0.26,0.76-0.13,1.13-0.79,1.35c-2.66-0.69-0.6-2.01-0.2-2.75
		c2-3.71,4.73-7.02,5.87-11.19C704.4,641.37,704.58,639.1,706.56,639.66z"/>
	<path class="st23" d="M788.65,528.44c4.65-2.67,6.74-2.26,8.65,1.77C794.32,529.86,791.49,529.71,788.65,528.44z"/>
	<path class="st9" d="M835.48,696.66c8.43,1.66,16.6,4.52,25.19,5.43c0.27,8.02,0.5,16.05,0.86,24.07c0.09,1.95-0.45,2.66-2.49,2.63
		c-8.61-0.15-17.22-0.16-25.83-0.21c0.04-3.24,0.09-6.48,0.13-9.71C834.05,711.46,834.77,704.06,835.48,696.66z"/>
	<path class="st3" d="M810.25,521.87c-2.04-1.85-4-3.2-7.12-3.52c-2.58-0.27-5.62-2.08-6.98-4.94c-1.43-3.01-3.52-4.8-6.81-4.83
		c-0.05-1.94,2.26-3.78-0.15-5.55c6.39-10.63,12.77-21.26,19.17-31.88c3.47-5.76,3.49-5.75-1.03-10c-0.19-2.14,1.01-3.77,2.07-5.4
		c0.92-1.4,2.32-1.8,3.99-1.32c5.38,1.54,10.1,4.18,13.78,8.45c1.38,1.6,2.88,3.03,4.56,4.3c1.4,1.06,2.67,2.5,4.32,0.28
		c0.48-0.65,1.24-0.19,1.93-0.06c3.79,0.69,6.7-2.4,5.88-6.2c-0.82-3.75-2.75-6.85-5.37-9.63c-0.87-0.93-2.83-1.81-1.14-3.66
		c1.99-0.74,3.89-0.24,5.81,0.31c3.15,0.91,6,2.52,8.93,3.92c4.58,2.19,9.02,2.63,14.12,0.95c7.16-2.37,14.6-2.6,21.66,1.05
		c7.52,10.07,15.04,20.14,22.54,30.23c0.39,0.53,0.55,1.23,0.82,1.86c0.24,0.34,0.18,0.56-0.24,0.67
		c-10.38,4.15-20.77,8.27-31.12,12.47c-8.75,3.54-17.41,7.29-26.21,10.71c-3.25,1.26-4.83,2.84-3.59,6.45
		c0.52,1.51,0.53,3.2,0.78,4.8c-2.38,1.51-4.38,0.75-6.97-0.13c-5.1-1.73-10.59-2.33-15.92-3.39c-3.54-0.71-7.1-0.9-11.3-0.65
		c3.86,2.73,8.02,3.39,10.89,4.72C822.3,521.87,816.27,521.87,810.25,521.87z"/>
	<path class="st24" d="M836.92,448.5c3.57,3.82,6.9,7.68,8.08,13.11c0.71,3.28-0.92,5.06-3.12,6.07c-1.25,0.57-3.41,4.31-5.02-1.32
		c-0.85,4.18-2.12,4.31-4.46,2.59c-3.3-2.43-5.8-5.63-8.79-8.35c-3.14-2.86-6.99-4.03-10.74-5.55c-1.76-0.71-2.55,0.56-3.26,1.8
		c-0.8,1.4-1.52,2.85-2.27,4.28c-4.89-3.7-9.79-7.41-14.68-11.11c2.95-3.98,7.35-6.05,11.38-8.6c3.78-1.76,7.57-3.42,11.84-1.68
		c0.91,0.12,1.82,0.23,2.72,0.35c0.66-0.06,1.32-0.23,2-0.16c3.58,0.57,6.83,2.03,10.02,3.68
		C832.83,445.09,835.71,445.71,836.92,448.5z"/>
	<path class="st25" d="M785.04,444.93c-3.84-0.21-6.51-2.97-9.62-4.67c-2.14-1.17-2.89-0.78-4.05,1.11
		c-5.8,9.43-11.73,18.78-17.68,28.12c-0.62,0.97-0.96,2.4-3.01,2.71c1.15-4.09,3.78-6.94,5.71-10.12
		c4.78-7.85,9.81-15.54,14.72-23.31c0.89-1.41,1.1-3.08,1.22-4.68c0.56-7.19,1.01-14.39,1.53-21.58c0.06-0.85-0.37-2.34,0.86-2.27
		c1.37,0.08,0.95,1.47,0.86,2.53c-0.62,7.3-1.14,14.61-1.78,21.91c-0.18,2.03,0.51,3.19,2.37,4.1c2.82,1.39,5.47,3.1,8.19,4.68
		C785.55,443.51,785.47,444.14,785.04,444.93z"/>
	<path class="st26" d="M785.04,444.93c-0.23-0.49-0.46-0.98-0.68-1.46c2.87-1.55,6.28-0.52,9.18-1.93
		c3.53-1.92,7.76-1.64,10.48,0.72c-3.79,2.59-7.58,5.17-11.37,7.76C790.12,448.32,787.58,446.63,785.04,444.93z"/>
	<path class="st27" d="M804.02,442.26c-3.42-1.31-6.94-1.14-10.48-0.72c0.67-2.67,0.83-2.77,4.82-3.06
		c5.11-0.01,10.22-0.02,15.32-0.04c0.86,0.21,1.97,0,2.19,1.3C811.55,438.82,807.82,440.67,804.02,442.26z"/>
	<path class="st28" d="M909.73,428.15c5.77-1.56,11.19-0.24,16.72,1.53c6.82,2.18,13.98,2.15,21.5,1.88
		c-1.66,2.96-4.82,3.56-6.67,5.65c-10,7.63-21.51,7.9-33.26,6.72c-3.91-0.39-7.84-0.9-11.58-2.23c-2.96-1.05-3.23-2.19-1.04-4.45
		C899.44,433.08,904.59,430.61,909.73,428.15z"/>
	<path class="st29" d="M836.92,448.5c-2.14-1.39-4.28-2.79-6.42-4.18c0.82-1.02,2.01-1.17,3.16-1.14
		c9.99,0.34,19.93-0.79,29.91-0.74c1.05,0.01,2.09,0.08,3.1,0.38c3.91,2.07,8.13,0.76,12.2,1.15c1.75,0.16,3.79-0.49,4.88,1.65
		c-0.61,3.81,2.8,5.67,4.14,8.53c-6.49-1.4-13.28-3.21-19.52-0.6c-7.62,3.19-13.92,1.24-20.45-2.37
		C844.54,449.32,840.92,448,836.92,448.5z"/>
	<path class="st30" d="M883.74,445.61c-4.11-1.28-8.33-0.37-12.49-0.63c-1.59-0.1-3.35,0.36-4.34-1.48
		c-1.11-1.55-0.86-3.06,0.34-4.38c1.12-1.24,2.49-1.57,4-0.59c5.12,0.01,10.25,0.01,15.37,0.02c2.44-0.08,2.92,1.39,2.76,3.43
		c-0.15,1.89-0.88,3.1-3.02,3C885.45,444.93,884.47,444.8,883.74,445.61z"/>
	<path class="st31" d="M911,486.9c0.08-0.22,0.16-0.44,0.24-0.67c4.31-3.24,9.5-4.71,14.31-6.91c2.2-1.01,4.24-2.77,6.93-2.6
		c0.22,1.28-0.55,1.6-1.31,1.93c-5.82,2.6-11.65,5.2-17.46,7.81C912.83,486.85,911.95,487.04,911,486.9z"/>
	<path class="st32" d="M935.03,421.09c3.99-0.61,7.86,1.01,11.84,0.69c0.61-0.15,0.87,0.07,0.71,0.7
		c-4.33,1.38-8.58,1.15-12.73-0.71C934.91,421.55,934.97,421.32,935.03,421.09z"/>
	<path class="st28" d="M994.6,408.57c2.36-0.01,5.53,4.81,4.64,6.69c-0.17,0.37-0.58,0.79-0.95,0.87c-1.92,0.42-3.1-0.66-3.88-2.22
		c-0.75-1.5-2.08-2.98-0.75-4.79C993.89,408.78,994.41,408.67,994.6,408.57z"/>
	<path class="st33" d="M673.5,647.91c2.08,1.38,4.4,2.62,6.18,4.18c2.47,2.17,7.48,4.09,2.73,7.91c-4.18,3.36-8.59,1.95-12.45,0.41
		C671.14,656.25,672.32,652.08,673.5,647.91z"/>
	<path class="st34" d="M849.91,358.74c-3.49,0.03-6.82-2.1-7.73-4.95c-0.86-2.67,0.19-4.01,2.86-3.24c3.37,0.98,6.43,0.57,9.46-0.99
		c0.93-0.48,1.96-0.98,2.91-0.06c0.88,0.84,0.67,1.95,0.46,2.97C857.23,355.65,853.31,358.7,849.91,358.74z"/>
	<path class="st35" d="M849.31,370.59c0.19,0.91,0.01,1.57-1.1,1.59c-6.55,0.06-12.88-1.22-19.05-3.33
		c-0.94-0.32-2.93-0.24-2.3-1.84c0.52-1.32,2.04-0.26,3.08,0.09C836.23,369.25,842.65,370.56,849.31,370.59z"/>
	<path class="st36" d="M847.26,344.99c4.98-3.14,5.07-3.47,2.69-8.47c-1.75-3.69-2.05-5.58-0.99-8.27c0.97,3.9,2.75,7.43,4.5,11
		C854.99,342.33,851.65,345.48,847.26,344.99z"/>
	<path class="st37" d="M840.7,324.28c-3.31,1.97-6.31,1.84-9.24,2.01c-0.48,0.03-1.28-0.34-1.43-0.72c-0.31-0.8,0.49-1.2,1.09-1.48
		C834.07,322.7,837.04,322.49,840.7,324.28z"/>
	<path class="st38" d="M860.41,322.94c-3.39,2.02-6.83,1.71-10.65,1.48C852.65,321.16,856.63,320.67,860.41,322.94z"/>
	<path class="st39" d="M857.91,331.46c-0.09,1.34-0.3,2.7-1.6,2.39c-1.52-0.37-1.68-2.08-1.73-3.43c-0.03-0.97,0.24-2.48,1.56-2.12
		C857.6,328.69,857.81,330.31,857.91,331.46z"/>
	<path class="st40" d="M837.64,333.09c-0.04,0.93-0.08,2.28-1.15,2.17c-1.71-0.17-1.86-1.8-1.88-3.23
		c-0.01-0.93,0.01-2.26,1.14-2.16C837.5,330.02,837.51,331.7,837.64,333.09z"/>
	<path class="st41" d="M794.17,298.51c5.31-4.82,11.41-8.4,17.88-11.41c-5.85,3.87-11.81,7.55-17.25,11.99
		C794.49,299,794.28,298.81,794.17,298.51z"/>
	<path class="st42" d="M794.17,298.51c0.21,0.19,0.42,0.39,0.64,0.58c-3.54,3.53-7.08,7.07-10.63,10.6
		c-0.26-0.02-0.51-0.04-0.77-0.06C786.29,305.24,790.23,301.88,794.17,298.51z"/>
	<path class="st43" d="M812.81,286.34c1.95-2,4.6-1.79,5.79-3.77c0.23-0.38,0.51-0.36,0.75-0.04c0.37,0.49,0.61,1.09,0.04,1.53
		C817.64,285.44,815.72,286.42,812.81,286.34z"/>
	<path class="st7" d="M722,708.34c-9.37-0.22-18.74-0.32-28.1-0.73c-2.87-0.13-4.05,0.6-3.59,3.48c-1.21-2.08-0.32-4.34-0.55-6.51
		c-0.74-7.02-0.34-14.02,0.66-20.99c0.2-1.4,0-2.65-0.95-3.92c-1.93-2.56-1.55-5.33,1.13-7.27c1.39-1.01,1.9-2.13,2.25-3.66
		c0.73-3.17,1.75-6.28,2.48-9.45c0.33-1.45,1.11-2.49,2.09-3.47c0.26-0.45,0.53-0.9,0.79-1.35c0.64,0,1.04,0.26,1.32,0.88
		c6,13.05,12.15,26.04,17.96,39.18C719.44,698.92,720.52,703.72,722,708.34z"/>
	<path class="st3" d="M894.33,626.43c-0.16-2.65,0.55-4.77,3.38-5.62C896.58,622.68,895.45,624.55,894.33,626.43z"/>
	<path class="st44" d="M820.07,440.55c-0.58,0.12-1.09,0.04-1.47-0.46c0.18-0.3,0.32-0.64,0.55-0.88
		c15.89-15.87,31.79-31.73,47.68-47.59c0.05,0.48,0.09,0.97,0.14,1.45c-0.63,1.11-1.31,2.17-2.24,3.09
		c-14.35,14.35-28.73,28.68-43.04,43.06C821.2,439.73,820.61,440.11,820.07,440.55z"/>
	<path class="st45" d="M825.58,299.13c1.31-2.29,2.91-2.66,4.86-0.75c-0.24,1.92-0.49,3.84-0.74,5.82
		c-1.56-0.35-1.41-1.52-1.25-2.43c0.49-2.84-0.7-3.11-2.9-2.07C825.58,299.52,825.59,299.33,825.58,299.13z"/>
	<path class="st11" d="M865.86,393.88c0.32-0.32,0.75-0.54,1.12-0.81c1.29,5.18,1.67,10.52,1.93,15.77
		c0.48,9.93,1.24,19.82,2.34,29.69c-3.52-0.15-4.62,1.81-4.34,4.98c-12.14,0.27-24.28,0.54-36.41,0.8
		c-3.43-1.39-6.75-3.08-10.43-3.76c0-1.06,0.76-1.65,1.41-2.3"/>
	<path class="st46" d="M945.38,409.14c1.25,0.09,1.74,0.79,1.13,1.86c-0.81,1.42-1.84,2.78-3.59,3.05c-1.29,0.2-2.33-0.24-2.29-1.85
		C942.21,411.17,943.79,410.16,945.38,409.14z"/>
	<path class="st4" d="M820.85,293.58c-1.47-2.74,0.52-4.2,2.34-5.25c1.85-1.06,3.56-0.25,4.5,1.77
		C825.41,291.27,823.13,292.43,820.85,293.58z"/>
	<path class="st3" d="M794.8,521.26c-0.68,0.22-1.37,0.44-2.05,0.66c0.86-0.95,1.82-1.82,2.54-2.86c1.76-2.52,3.46-2.4,5.56,0.27
		C798.06,518.29,796.06,518.86,794.8,521.26z"/>
	<path class="st47" d="M877.77,443.52c-2.43,0-4.87,0-7.3,0c-0.96,0-1.95-0.04-1.99-1.34c-0.05-1.25,0.64-2.03,1.86-2.05
		c5.21-0.06,10.42-0.06,15.64-0.05c1.05,0,1.84,0.53,1.86,1.64c0.02,1.3-0.88,1.8-2.07,1.81
		C883.1,443.53,880.43,443.52,877.77,443.52z"/>
	<path class="st48" d="M691.79,670.08c-1.55,3.78-2.41,5.87-3.75,9.11C681.09,675.52,683.71,673.41,691.79,670.08z"/>
	<path class="st49" d="M685.13,672c-2.11-0.32-3.18-1.31-3.09-3.08c0.12-2.45,1.58-3.81,4-3.96c1.92-0.11,2.91,1.35,2.84,2.87
		C688.77,670.2,686.82,671.23,685.13,672z"/>
	<path class="st18" d="M806.88,525.24l-5.33,0.49l-1.25-4.03c0,0,3.22-0.68,6.22,0.22"/>
	<path class="st18" d="M806.39,526.01c0,0-11.51,0.48-13.07,0.93c-1.57,0.45,2.31,3.08,2.31,3.08l12.73,0.82L806.39,526.01z"/>
</g>
<rect x="147.2" y="-109.77" class="st1" width="1093" height="1038"/>
</svg>
