<?xml version="1.0" encoding="utf-8"?>
<!-- Generator: Adobe Illustrator 24.3.0, SVG Export Plug-In . SVG Version: 6.00 Build 0)  -->
<svg version="1.1" id="Layer_1" xmlns="http://www.w3.org/2000/svg" xmlns:xlink="http://www.w3.org/1999/xlink" x="0px" y="0px"
	 viewBox="0 0 296 208" style="enable-background:new 0 0 296 208;" xml:space="preserve">
<style type="text/css">
	.st0{fill:#F6F8FF;}
	.st1{fill:#002017;fill-opacity:0.2;}
	.st2{fill:none;stroke:#000000;stroke-width:7;stroke-opacity:0.2;}
</style>
<path class="st0" d="M107,11h81c49.71,0,90,40.29,90,90v9c0,49.71-40.29,90-90,90h-81c-49.71,0-90-40.29-90-90v-9
	C17,51.29,57.29,11,107,11z"/>
<path class="st1" d="M84.95,83.48v41.02h30.08v-7.66H93.15V83.48H84.95z M133.51,124.77c-3.97,0-7.29-1.33-9.95-3.99
	c-2.66-2.68-3.99-6-3.99-9.95c0-3.97,1.33-7.29,3.99-9.95c2.66-2.66,5.98-3.99,9.95-3.99s7.29,1.33,9.95,3.99
	c2.66,2.66,3.99,5.98,3.99,9.95s-1.33,7.29-3.99,9.95C140.8,123.44,137.48,124.77,133.51,124.77z M133.48,118.16
	c2.08,0,3.76-0.69,5.06-2.08c1.29-1.4,1.94-3.14,1.94-5.22c0-2.08-0.65-3.82-1.94-5.22c-1.29-1.4-2.99-2.11-5.09-2.11
	c-2.06,0-3.74,0.7-5.03,2.11c-1.29,1.4-1.94,3.14-1.94,5.22c0,2.08,0.65,3.82,1.94,5.22C129.72,117.46,131.4,118.16,133.48,118.16z
	 M178.46,97.98v24.34c0,3.83-1.14,7.03-3.42,9.6c-2.28,2.57-5.15,3.93-8.61,4.07l-1.64,0.16c-5.29-0.11-9.39-1.62-12.31-4.54
	l3.56-4.1c2.01,1.46,4.44,2.28,7.3,2.46c2.92,0,4.89-0.68,5.91-2.05c1.04-1.37,1.56-2.87,1.56-4.51v-1.37
	c-2.04,1.64-4.41,2.46-7.11,2.46c-4.19,0-7.34-1.23-9.43-3.69c-2.1-2.46-3.14-5.79-3.14-9.98c0-4.01,1.14-7.29,3.42-9.84
	c2.28-2.55,5.51-3.83,9.71-3.83c3.1,0.18,5.29,1.01,6.56,2.49v-2.49L178.46,97.98z M170.8,113.29v-4.43
	c-0.36-3.06-2.28-4.86-5.74-5.39c-4.56,0.16-7.02,2.43-7.38,6.81c0.18,5.1,2.64,7.75,7.38,7.93
	C168.53,117.66,170.44,116.02,170.8,113.29z M196.29,124.77c-3.97,0-7.29-1.33-9.95-3.99c-2.66-2.68-3.99-6-3.99-9.95
	c0-3.97,1.33-7.29,3.99-9.95c2.66-2.66,5.98-3.99,9.95-3.99s7.29,1.33,9.95,3.99c2.66,2.66,3.99,5.98,3.99,9.95
	s-1.33,7.29-3.99,9.95C203.58,123.44,200.26,124.77,196.29,124.77z M196.26,118.16c2.08,0,3.76-0.69,5.06-2.08
	c1.29-1.4,1.94-3.14,1.94-5.22c0-2.08-0.65-3.82-1.94-5.22c-1.29-1.4-2.99-2.11-5.09-2.11c-2.06,0-3.74,0.7-5.03,2.11
	c-1.29,1.4-1.94,3.14-1.94,5.22c0,2.08,0.65,3.82,1.94,5.22C192.5,117.46,194.18,118.16,196.26,118.16z"/>
<path class="st2" d="M107,14.5h81c47.77,0,86.5,38.73,86.5,86.5v9c0,47.77-38.73,86.5-86.5,86.5h-81c-47.77,0-86.5-38.73-86.5-86.5
	v-9C20.5,53.23,59.23,14.5,107,14.5z"/>
</svg>
