<?xml version="1.0" encoding="utf-8"?>
<!-- Generator: Adobe Illustrator 24.3.0, SVG Export Plug-In . SVG Version: 6.00 Build 0)  -->
<svg version="1.1" id="Layer_1" xmlns="http://www.w3.org/2000/svg" xmlns:xlink="http://www.w3.org/1999/xlink" x="0px" y="0px"
	 viewBox="0 0 1920 13332.74" style="enable-background:new 0 0 1920 13332.74;" xml:space="preserve">
<style type="text/css">
	.st0{fill:#F6F8FF;}
	.st1{fill:#00C897;}
	.st2{fill:#3EAB8D;}
	.st3{fill:#DFD3A3;}
	.st4{fill:#C9954F;}
	.st5{fill:#377C63;}
	.st6{fill:#463A3E;}
	.st7{fill:#899452;}
	.st8{fill:#F49075;}
	.st9{fill:#EFB53B;}
	.st10{fill:#C9944F;}
	.st11{fill:#377D63;}
	.st12{fill:#B4B080;}
	.st13{fill:#7C522B;}
	.st14{fill:#7A522A;}
	.st15{fill:#7A512A;}
	.st16{fill:#1D181A;}
	.st17{fill:#784D28;}
	.st18{fill:#F39075;}
	.st19{fill:#B3AF7F;}
	.st20{fill:#B5B082;}
	.st21{fill:#B4AF7F;}
	.st22{fill:#1B1516;}
	.st23{fill:#ED9274;}
	.st24{fill:#F49175;}
	.st25{fill:#0F4C13;}
	.st26{fill:#DFD2A3;}
	.st27{fill:#425049;}
	.st28{fill:#0F0C0D;}
	.st29{fill:#899451;}
	.st30{fill:#45393D;}
	.st31{fill:#104C14;}
	.st32{fill:#1B1618;}
	.st33{fill:#43393B;}
	.st34{fill:#FBFBFB;}
	.st35{fill:#E36746;}
	.st36{fill:#E16746;}
	.st37{fill:#524042;}
	.st38{fill:#473B3D;}
	.st39{fill:#554142;}
	.st40{fill:#473A3B;}
	.st41{fill:#784F27;}
	.st42{fill:#754A22;}
	.st43{fill:#8C643A;}
	.st44{fill:#57947D;}
	.st45{fill:#887668;}
	.st46{fill:#443A3D;}
	.st47{fill:#377860;}
	.st48{fill:#45403B;}
	.st49{fill:#43383C;}
	.st50{fill:#FCF0DA;}
	.st51{fill:#A76D3C;}
	.st52{fill:#A66D3B;}
	.st53{fill:#EEE4C1;}
	.st54{fill:#A3AEC2;}
	.st55{fill:#E5DBB8;}
	.st56{fill:#6B3C1A;}
	.st57{fill:#C0D2D8;}
	.st58{fill:#F4AE8C;}
	.st59{fill:#DAD0AD;}
	.st60{fill:#AEC2CB;}
	.st61{fill:#412822;}
	.st62{fill:#C68D57;}
	.st63{fill:#371E18;}
	.st64{fill:#181E28;}
	.st65{fill:#E09A78;}
	.st66{fill:#935927;}
	.st67{fill:#181F28;}
	.st68{fill:#A76D3B;}
	.st69{fill:#D0C6A4;}
	.st70{fill:#BC834D;}
	.st71{fill:#9C7441;}
	.st72{fill:#87929D;}
	.st73{fill:#A47845;}
	.st74{fill:#E09C7B;}
	.st75{fill:#5A4A46;}
	.st76{fill:#504644;}
	.st77{fill:#A4AEC2;}
	.st78{fill:#E09A79;}
	.st79{fill:#DAD0AE;}
	.st80{fill:#544A47;}
	.st81{fill:#625851;}
	.st82{fill:#FAECD6;}
	.st83{fill:#F9E8CD;}
	.st84{fill:#F8E7CE;}
	.st85{fill:#DBD0AE;}
	.st86{fill:#59504C;}
	.st87{fill:#019267;stroke:#019267;}
</style>
<rect x="-368.43" y="-237.53" class="st0" width="2517.96" height="14001.7"/>
<circle class="st1" cx="1644.2" cy="3366.71" r="190.16"/>
<path class="st1" d="M2399.54,5423.09c-821.41-231.52-2208.65-134.57-2799.59-57.15C-511.2,6045.38-733.28,7308.4-572.71,7278.41
	c1276.83-238.45,2751.71,137.5,3865.11,137.5c817.1,0,1197.86-373.69,1678.11-480.69l-217.24-1657.86
	C4310.94,5422.4,3220.94,5654.6,2399.54,5423.09z"/>
<ellipse class="st2" cx="1461.79" cy="7533.49" rx="458.21" ry="57.06"/>
<g>
	<path class="st3" d="M1430.43,7123.12h74.31H1530l-1.76-15.1c0,0-22.32-27.42-47.29-25.16s-36.72-35.77-36.72-35.77"/>
	<rect x="1505.95" y="6676.85" class="st4" width="52.09" height="26.99"/>
	<path class="st3" d="M1816.72,7051.69c-0.77,2.21-0.22,4.48,0.5,6.43c4.2,11.3,3.72,22.56,0.86,34.07
		c-6.11,24.64-3.75,49.51-1.52,74.35c1.09,12.14-0.55,24.11-3.97,35.66c-5.83,19.68-10.71,39.7-18.28,58.81
		c-6.58,16.62-17.94,28.24-36.61,31.23c-15.07,2.41-28.02,10.87-42.33,15.52c-5.94,3.26-12.43,3.59-18.89,2.94
		c-6.22-0.62-12.44-1.49-18.59-2.7c-1.82-0.97-4.33-1.09-4.65-3.93c-0.12-1.09,2.14-1.21,1.25-1.2c-6.35,0.12-4.9-4.59-5.26-7.99
		c-0.92-8.81-0.96-17.36,4.34-25.32c2.91-4.37,3.2-9.96,3.83-15.23c-1.07,11.59-6.82,21.4-11.84,31.49
		c-0.14,0.27-1.01,0.37-0.29,0.97c2.73,2.28,4.66,13.51,2.14,16.47c-3.68,4.31-2.87,8.96-2.43,13.75c0.69,8.5-4.54,14.38-9.32,20.3
		c-4.57,5.67-10.5,9.92-16.46,14.06c-2.69,1.85-5.36,3.72-8.16,5.4c-7.44,4.46-15.17,6.16-23.63,2.84
		c-5.05-1.98-10.25-3.61-15.62-4.57c-6.04-1.01-12.13-0.53-18.19-0.42c-7.47,0.13-14.73-0.77-21.82-3.04
		c-6.05-2.37-11.86-5.37-18.31-6.7c-8.86-4.62-18.3-4.8-27.53-2.26c-13.72,3.78-27.34,3.81-40.86,0.09
		c-15.35-4.23-30.18-5.12-45.8,0.03c-11.64,3.84-23.88,1.27-35.28-3.57c-11.15-7.12-19.94-16.87-29.06-26.26
		c-1.37-1.41-2.77-2.83-3.03-4.93c0.1-3.01,2.54-4.46,4.32-6.3c6.59-6.83,11.79-14.49,14.68-23.58
		c-4.12,11.07-10.62,20.49-19.68,28.1c-1.58,1.33-2.93,2.6-3.06,4.77c-2.27,4.99-6.35,8.9-8.39,14.03
		c-1.33,0.38-2.12-1.85-4.23,0.22c-7.21,7.05-15.8,12.42-24.41,17.66c-2.52,1.16-4.43,3.23-6.81,4.6c-0.77,0.43,0.22-0.07-0.56,0.34
		c-13.58,7.14-14.23,7.64-23.37-4.36c-7.59-9.97-15.29-20.05-20.99-31.37c-1.51-2.14-2.6-4.82-4.59-6.33
		c-9.15-6.93-12.56-16.92-15.87-27.26c-3.99-12.47-7.97-24.99-16.05-35.73c-4.61-6.13-10.31-10.07-17.76-11.33
		c-12.32-2.08-22.97-6.78-30.34-17.51c-3.49-5.09-9.32-7.87-13.28-12.67c-5.42-6.57-7.21-14.3-6.22-22.11
		c1.1-8.73,1.01-16.74-3-24.79c-5.2-10.44-1.53-19.7,5.44-27.8c5.22-6.06,8.36-11.75,6.69-20.59c-2.39-12.59,4.34-22.34,13.86-30.1
		c12.14-9.9,26.22-16.6,39.88-24.01c1.82,3.98-1.69,6.08-3.44,8.43c-2.75,3.69-5.54,7.38-7.93,11.29
		c-2.43,3.97-4.02,8.17-2.19,13.11c2.08,5.6-0.54,10.39-3.83,14.64c-6.64,8.59-8.23,17.43-3.37,27.58
		c4.38,9.13,7.46,18.63,6.08,29.23c-0.56,4.33,0.24,9.2,3.14,12.72c-2.43-4.98-3.57-10.54-2.93-16.46
		c1.03-9.62-2.65-18.19-6.54-26.53c-4.43-9.51-2.73-17.84,3.23-25.87c3.91-5.26,6.79-10.55,3.9-17.61
		c-1.7-4.15,1.01-8.05,3.13-11.67c3.01-5.13,7.18-9.43,10.29-14.46c1.56-2.52,3.92-4.82,3.34-8.25c4.58-1.36,7.32-4.75,10.33-8.29
		c19.41-22.88,43.29-39.02,72.27-47.49c13.8-4.03,27.25-9.25,41.35-12.34c3.84-0.84,7.96,0.43,11.56-1.77
		c1.95,1.61,2.02,3.9,1.79,6.05c-2.21,20.71-3,41.52-4.45,62.28c-1.58,22.72-5.96,45.25-4.71,68.19c0.4,7.32,1.38,14.4,3.87,21.27
		c7.53,20.76,26.29,29.55,47.06,21.86c14.67-5.43,26-15.12,34.81-28c5.43-7.95,9.92-16.58,16.63-23.62c3.14-1.58,4.45,0.53,5.29,2.9
		c2.65,7.47,8.74,10.64,15.64,12.88c5.55,2.41,11.72,2.77,17.19,4.65c0.38,2.41-1.1,2.58-2.24,3.09c-1.23,0.55-3.6,0.32-2.59,2.67
		c0.8,1.86,2.55,3.12,4.74,2.68c2.11-0.42,1.6-2.12,1.41-3.67c-0.54-4.39-4.12-8.32-1.99-13.12c5.45-4.94,8.71-4.6,14.78,1.52
		c0.87,1.27,1.55,2.64,1.94,4.14c0.4,1.54,0.63,3.15-1.02,4.09c-1.92,1.1-2.73-0.63-3.66-1.76c-0.83-1.01-1.41-2.23-2.44-3.09
		c-0.7-0.58-1.55-1.03-2.4-0.66c-1.38,0.6-0.92,1.85-0.61,2.85c0.58,1.88,1.66,3.58,2.1,5.53c1.65,7.33-1.28,11.03-8.82,10.77
		c-6.16-0.22-12.23,0.23-19.64,1.75c8.72,3.41,17.2-0.22,25.51,3.68c-5.51,4.66-12.29,3.55-17.33,6.84
		c7.21,2.73,14.35,0.91,21.47,0.42c2.71-0.18,3.4-2.22,4.49-4.18c5.46-9.89,14.92-10.29,20.21-0.54c2.18,4.02,5.17,3.6,8.3,3.32
		c17.03-1.51,34.08-2.81,50.9-6.05c2.36-0.46,4.72-1.07,7.17-0.85c4.6,2.18,4.75,7.08,6.51,10.93c4.25,9.31,5.32,9.92,14.93,6.7
		c50.36-16.86,100.14-35.31,149.26-55.52c1.62-0.67,3.23-1.37,4.82-2.12c19.72-9.32,23.7-17.04,20.13-38.69
		c-1.86-11.3-5.13-22.22-8.32-33.18c-0.76-2.59-2.44-5.45,0.65-7.81c1.93-0.53,3.4,0.5,4.8,1.54c6.58,4.87,13.88,8.24,21.58,10.91
		C1810.54,7040.95,1815.73,7044.36,1816.72,7051.69z"/>
	<path class="st5" d="M1453.03,7106.02c-6.13,9.09-12.18,18.25-18.43,27.26c-7.4,10.69-17.06,18.82-28.89,24.23
		c-26.86,12.27-50.7,0.24-56.78-28.63c-2.97-14.13-2.74-28.48-0.92-42.61c2.81-21.77,4.08-43.64,5.81-65.49
		c1.12-14.2,1.83-28.44,2.72-42.66c1.81-28.97,5.46-57.63,14.5-85.39c3.06-9.4,6.41-18.65,10.93-27.46
		c10.34-20.12,29.23-26.55,49.44-30.69c7.09-1.45,14.32-2.1,21.6-1.96c17.5-1.36,17.33-1.3,23.49,14.91
		c7.03,18.49,9.66,37.68,10.08,57.31c0.4,19.07-1.25,38.06-1.97,57.08c-0.74,2.44-2.92,2.89-4.96,3.46
		c-2.65,0.75-4.37,2.53-5.66,4.85c-5.31,2.83-11.18,2.74-16.93,3.28c-6.81-2.04-12.41-6.39-18.51-9.79
		c-2.71-1.51-2.87-4.08-2.8-6.86c0.35-13.81,2.28-27.5,2.82-41.29c-0.92,13.74-2.59,27.42-2.9,41.2c-0.13,5.61-3.59,9.87-6.38,14.19
		c-10.69,16.58-20.9,33.46-26.74,42.4c6.46-10.2,17.95-27.93,28.91-45.98c2.2-3.62,4.98-4.33,8.9-2.3c5.8,3,10.96,7.27,17.43,8.95
		c6.12,1.59,10.08,6.6,15.26,9.68c9.29,7.32,18.84,14.29,28.32,21.37c8.5,7.31,9.05,9.09,3.1,18.62
		c-12.71,20.37-24.22,41.46-37.25,61.63c-3.89,4.46-5.53,10.29-9.08,14.97C1456.6,7102.35,1455.6,7104.88,1453.03,7106.02z"/>
	<path class="st5" d="M1778.36,7026.46c-2.62,2.3-0.29,4.5,0.33,6.54c4.3,14.07,8.36,28.14,9.64,42.92
		c1.11,12.85-3.55,22.25-15.02,28.16c-16.82,8.67-34.6,15.11-52.23,21.82c-36.71,13.97-73.42,27.96-110.84,39.96
		c-9.51,3.05-10.27,2.71-14.48-6.35c-1.93-4.16-3.65-8.42-5.47-12.64c-4.83-5.96-5.46-13.53-7.78-20.45
		c-0.76-2.26-1.24-4.61-1.74-6.94c-0.5-3.25-1.27-6.46-1.86-9.7c-1.38-7.49-0.69-9.21,6.2-12.43c14.52-6.79,29.58-12.28,44.36-18.45
		c19.63-8.2,39.43-16.01,59.11-24.12c2.03-0.84,4.02-1.83,6.32-1.25c7.27-1.05,13.15-5.53,19.8-8.12c5.9-2.3,11.55-5.2,17.37-7.69
		c-12.27,4.94-24.09,10.89-36.35,15.85c-6.53-7.1-11.47-15.42-17.36-23.01c-9.54-12.29-18.98-24.67-27.91-37.42
		c-3.14-5.25-9.57-9.08-7.26-16.7c0.82-1.75,2.41-2.32,4.15-2.57c2.32-0.34,4.8-0.34,5.4-3.43c0.58-2.96-0.63-4.9-3.22-6.21
		c-0.56-0.28-0.84-0.94-1.16-1.52c-1.75-7.37-0.43-14.85-0.89-22.27c-1.84-29.51-3.21-59.09-11.91-87.67
		c-1.41-4.62-2.91-9.18-4.89-13.59c-1.03-2.3-2.81-4.63-0.97-7.36c11.43-0.64,22.61,1.78,33.92,2.68
		c21.89,1.58,40.62,8.14,50.95,29.87c9.25,19.45,17.34,39.4,26.28,58.97c0.56,2.61,1.24,5.22,0.42,7.92c-0.3,0.65-0.77,1.15-1.4,1.5
		c-5.68,1.93-11.65,0.28-17.42,1.52c-10.06,2.16-19.41,6.1-28.57,10.62c-7.64,4.31-15.64,8.02-22.59,13.45
		c-2.18,1.7-5.29,3.45-4.75,6.61c0.58,3.38,4.27,3.34,6.93,4.01c15.72,3.98,31.75,3.85,47.76,3.09c6.18-0.29,11.88-2.85,17.44-5.59
		c4.32-2.13,8.36-4.84,13-6.28c1.17,0,2.23,0.42,2.75,1.47c1.38,2.78,3.01,4.23,6.08,1.97c1.02-0.75,2.54-1.21,3.45,0.28
		c0.65,1.05,0.05,2.3-0.7,2.99c-4.68,4.31-3.07,8.87-1.16,13.84C1767.89,6995.83,1773.12,7011.15,1778.36,7026.46z"/>
	<path class="st6" d="M1740.59,6930.52c0.18-2.12-1.49-4.16-0.29-6.33c-0.12-4.64,3.01-6.42,6.73-7.69
		c1.55-0.04,2.92,0.66,4.37,1.05c6.98,1.92-12.15,10.67-10.59,3.59c0.51-2.31,23.28-15.79,25.99-16.89
		c22.35-10.42,45.46-15.47,70.21-10.88c25,4.63,50.11,8.61,74.8,14.78c2.55,0.64,5.06,1.42,7.55,2.24
		c15.65,5.13,19.27,10.31,14.7,25.73c-1.86,6.29-7.21,11.93-13.64,15.21c-3.85,1.97-6.52,4.91-9.22,8.12
		c-17.69,21.08-36.56,40.88-61.11,54.24c-16.32,8.4-32.88,10.79-49.89,1.82c11.13,5.76,22.67,7.61,34.81,3.99
		c1.75-0.52,3.43-0.76,4.7,0.99c-9.62,8.96-18.14,18.73-23.01,31.19c-3.31-7.01-9.28-10.47-16.38-12.68
		c-8.2-2.56-15.57-6.75-21.98-12.54c-6.57-6.33-6.33-15.58-9.85-23.25c-4.08-8.91-6.54-18.54-10.24-27.65
		c-2.38-5.87,3.01-7.5,5.24-11.42c-3.47-0.23-4.26,4.64-6.92,3.74c-2.87-0.97-2.12-5.06-4.24-7.03c1.64-3.49,1.64-3.49,8.27-8.56
		c-8.64-0.43-16.38,0.16-23.98-1.27c-5.4-1.02-10.79-1.87-16.04-3.59c-7.35-2.4-14.83-4.11-22.67-2.77
		c-1.72,0.29-3.51,0.54-4.98-0.86c14.61-8.54,30.15-13.4,47.27-12.01c7.61,0.05,15.12,2.21,22.77,1.13c0.15-0.8,3.13,0.8,1.36-1.81
		c-2.41-3.57-1.84-7.05,1.28-10.04c3.35-3.21,6.98-6.87,11.15-3.75c-2.86-2.48-5.89-0.55-9.16,1.52c-3.41,2.16-5.39,4.99-4.77,9.26
		c0.23,1.59,1.38,3.46-0.83,4.67C1754.72,6933.49,1747.57,6932.81,1740.59,6930.52z"/>
	<path class="st7" d="M1140.4,7361.69c-0.16-5.7-0.13-11.41-0.54-17.09c-0.33-4.58,1.66-6.91,5.94-7.96
		c11.09-2.75,22.3-4.74,33.73-5.08c2.89-0.09,5.63-0.45,8.31-1.44c8.78-3.39,18-2.91,27.11-2.74c7.77,0.14,15.52,1.49,23.31,0.35
		c6.89-0.05,13.77-0.11,20.66-0.16c1.81,1.59,1.28,3.55,0.76,5.42c-2.43,8.77-4.8,17.55-8.49,25.9c-1.74,2.65-3.64,5.24-3.79,8.6
		c-0.67,3.9-2.51,7.42-3.6,11.19c-0.24,1.39-0.51,2.77-0.94,4.13c-8.85,24.5-5.92,49.13-1.02,73.83c0.82,4.12,3.1,8.42,0.05,12.63
		c-9.67,2.99-19.67,1.94-29.33,1.08c-12.68-1.13-25.38-0.63-38.05-2.02c-16.21-1.78-16.64-1.55-20.53-17.4
		c-0.21-0.85-0.41-1.71-0.58-2.56c-4.85-25.1-10.02-50.16-12.95-75.6C1140.03,7369.04,1139.36,7365.38,1140.4,7361.69z"/>
	<path class="st8" d="M1498.87,6831.68c0.04-5.68,0.09-11.36,0.13-17.04c0.8-3.03,3.59-4.32,5.57-6.28
		c6.54-6.45,7.71-13.98,3.12-22.02c-2.07-3.63-4.75-6.84-7.64-9.86c-2.93-3.06-4.98-6.63-6.49-10.57c-1.9-4.97-1.39-9.59,2.28-13.46
		c3.42-3.61,7.88-3.48,12.28-2.29c11.87,3.21,11.86,3.25,14.73-9.15c3.99-17.28,12.89-24.22,30.59-24.69
		c12.13-0.33,24.06,0.79,35.95,2.98c0.86,0.16,1.73,0.31,2.6,0.41c11.77,1.37,11.83,1.35,13.77,12.95
		c1.91,11.41,3.97,22.82,2.77,34.49c-0.07,9.81,0.41,19.66-0.34,29.42c-0.99,12.91-5.29,24.62-15.82,33.16
		c-3.3,4.39-8.51,5.2-13.17,7.06c-12.8,0.48-25.07-2.29-37.4-6.35c11.43,4.78,23.46,5.25,35.14,7.44c1.64,2.61-0.03,4.61-1.31,6.59
		c-9.43,14.54-28.29,21.52-44.99,16.21c-8.74-2.78-17.24-6.36-25.23-10.99C1502.06,6844.1,1497.79,6838.86,1498.87,6831.68z"/>
	<path class="st9" d="M1140.4,7361.69c2.92,10.29,3.03,21.02,4.85,31.49c2.98,17.18,5.86,34.37,9.51,51.43
		c0.22,1.05,0.08,2.18,0.11,3.28c-1.91,2.14-4.55,2.74-7.16,2.76c-5.2,0.04-6.65,2.79-6.66,7.52c-0.04,14.22,0.68,28.47-1.24,42.64
		c-0.35,2.6-0.13,5.29-2.09,7.41c-2.27,10.69-5.15,21.09-12.35,29.76c-5.55,6.69-12.57,10.6-21.07,12
		c-3.75,0.62-6.94-0.09-8.82-3.82c-1.12-2.88-2-5.87-1.88-8.94c0.52-14.04-1.32-27.99-1.5-42c-0.51-40.28-2.34-80.53-3.13-120.8
		c-0.04-2.22-0.26-4.42,1.68-6.05C1107,7364.4,1123.74,7363.32,1140.4,7361.69z"/>
	<path class="st10" d="M1643.81,6704.89c-1.65,6.14-3.87,12.04-7.55,17.29c-2.66-2.74-1.83-6.22-1.73-9.38
		c0.75-22.43-17.76-39.09-40.07-40.31c-16.11-0.88-31.23,3.31-46,9.16c-2.03,0.8-3.92,2.01-6.19,2.02c-1.61-0.07-2.8-0.94-3.94-1.98
		c-3-2.74-6.5-3.65-10.12-1.63c-3.51,1.96-4.92,5.26-4.45,9.3c0.1,0.87-0.02,1.72-0.28,2.56c-2.52,4.16-6.91,6.02-10.74,8.49
		c-16.2,10.43-30.64,22.75-41.92,38.5c-9.56,13.35-17.25,27.53-19.11,44.24c-0.29,2.57-0.66,5.26-2.62,7.3
		c-8.58-6.27-14.17-14.62-17.1-24.79c4.58-16.83,12.57-31.81,24.15-44.87c5.64-7.88,12.98-14.1,20.01-20.63
		c8.91-7.45,18.52-13.86,28.76-19.35c-10.41,5.4-19.98,12.04-29.06,19.42c-6.97,6.82-14.6,13.02-20.24,21.12
		c-10,10.99-16.71,23.89-21.82,37.71c-0.66,1.79-0.88,3.77-2.19,5.3c-3.86-12.85-1.47-25.19,3.6-37.09
		c10.34-24.3,28.66-41.62,49.97-56.21c4.14-2.84,8.35-5.58,12.53-8.37c6.7-4.32,12.85-9.79,21.42-10.19
		c21.69-8.27,43.89-13.9,67.36-12.21c16.98,1.22,32.91,5.58,45.64,17.68c12.88,12.25,16.64,27.26,12.36,44.4
		c-1.65-6.25-2.67-12.65-5.56-18.57c-8.75-17.9-23.63-26.39-42.84-28.25c-19.43-1.88-37.83,2.72-55.88,9.29
		c-2.88,1.05-5.81,1.98-8.68,3.1c16.61-6.56,33.63-11.85,51.53-12.73c27.54-1.36,50.63,8.86,59.14,37.36
		C1643.4,6696.64,1643.17,6700.8,1643.81,6704.89z"/>
	<path class="st6" d="M1241.94,7468.74c-2.01-12.45-4.47-24.86-5.92-37.37c-1.97-17.03-1.34-33.93,5.86-49.96
		c12.76-0.79,12.79-0.8,7.85-13.08c-0.98-2.43-1.43-4.7,0.89-6.49c2.3-1.77,4.48-0.96,6.49,0.76c1.16,0.99,1.96,2.3,2.79,3.07
		c-1.79-4.13-6.2-4.88-10.09-6.44c2.77-10.64,7.54-20.7,9.1-31.68c0.16-5.16,0.33-10.31,0.49-15.47c5.8,5.41,9.41,12.47,14,18.78
		c1.66,2.29,3.15,4.71,4.64,7.12c3.03,4.87,6.88,9.27,11.31,12.58c6.02,4.5,9.3-4.11,14.58-4.44c1.9,2.15,0.57,4.07-0.45,5.99
		c-2.45,4.64-5.03,9.23-7.87,13.63c-1.62,2.51-2.52,5.01-1.95,7.98c-2.78,5.76-4.32,11.92-5.88,18.07
		c-1.34,5.29-2.43,10.46-7.24,14.25c-3.12,2.46-3.46,6.54-0.96,10.12c2.31,3.31,2.54,6.89,1.96,10.67
		c-2.38,15.42-0.94,30.9-0.81,46.36c0.01,1.33,0.56,2.56,0.83,3.84c1.6,10.08,3.05,20.19,4.75,30.25c0.43,2.52,1.28,5.14-0.58,7.52
		c0.08,9.3,4.59,16.32,10.76,22.95c5.8,6.24,2.71,13.46-5.87,14.54c-3.2,0.4-6.53-0.17-9.79-0.35
		c-15.55-0.89-19.66-5.17-20.81-20.88c-0.49-6.78-3.83-12.82-6.03-19.14c-0.78-0.43-1.49-1-1.77-1.83
		c-4.4-12.95-8.48-25.98-10.8-39.49C1241.32,7469.95,1241.66,7469.33,1241.94,7468.74z"/>
	<path class="st7" d="M1677.23,7306.13c12.64,2.29,25.32,3.77,38.15,1.63c-2.25,7.85-4.5,15.69-6.76,23.54
		c-1.14,9.29-2.64,18.46-7.89,26.52c-7.4,23.35-14.67,46.74-22.25,70.03c-4.14,12.7-8.67,25.28-15.58,36.83
		c-0.33,2.86-2.39,4.14-4.8,4.61c-6.46,1.27-12.83,1.22-18.72-2.37c-1.53-2.85-1.32-5.97-1.27-9.02c0.26-14.45-0.7-28.92,1.1-43.36
		c1.06-8.53-0.77-17.07-1.64-25.54c-1.11-10.75-0.58-21.46-0.74-32.19c-0.04-2.49,0.69-4.75,2.03-6.83
		c8.78-7.18,18.08-13.85,22.87-24.75c1.15-2.62,2.36-5.17,2.34-8.11c-0.02-0.3-0.04-0.61-0.05-0.91c-0.2-5.46,4.28-7.65,7.48-10.73
		C1673.42,7305.61,1675.34,7305.73,1677.23,7306.13z"/>
	<path class="st11" d="M1505.72,6848.85c7.04,2.9,14.07,5.81,21.12,8.69c19.81,8.07,40.58,0.18,50.32-19.09
		c0.27-1.28,1.43-1.96,2.06-2.99c4.39-1.92,8.78-3.83,13.17-5.75c3.19,0.34,6.39,0.68,9.59,1.01c5.61,13.93,9.59,28.3,11.49,43.21
		c-0.4,2.59-2.35,4.14-4.03,5.83c-27.75,27.78-55.5,55.54-83.28,83.3c-1.54,1.54-2.99,3.23-5.11,4.08
		c-1.71,0.53-3.38,0.43-5.01-0.33c-1.67-1.34-3.89-2.05-4.8-4.25c-0.48-11.43,1.27-22.73,2.21-34.05
		c1.92-23.02,0.32-45.53-6.38-67.68C1505.9,6856.98,1503.43,6853.14,1505.72,6848.85z"/>
	<path class="st6" d="M1608.54,6767.13c-1.69-12.53-3.49-25.04-5.03-37.59c-0.67-5.42-1.32-9.29-8.87-8.08
		c-6.13,0.98-12.52-1.41-18.78-2.48c-10.64-1.81-21.34-1.91-32.01,0.26c-10.23,2.08-15.9,8.59-18.3,18.38
		c-1.04,4.25-1.86,8.56-2.99,12.79c-1.33,4.95-4.63,5.96-9.12,4.12c-0.81-0.33-1.62-0.68-2.38-1.11c-4.62-2.6-9.7-4.58-13.98-0.38
		c-4.55,4.46-3.09,10.01-0.66,15.29c2.17,4.71,6.05,8.01,9.28,11.86c11.36,13.5,8.9,26.04-6.7,34.46c-2.94-2.53-3.29-6.46-5.19-9.55
		c-4.54-5.43-4.14-12.31-5.28-18.67c-1.81-10.11-2.84-20.36-5.12-30.4c-0.84-3.71-1.04-7.62,1.2-10.83
		c12.6-18.07,25.92-35.43,47.41-43.92c0.61-0.24,1.23-0.46,1.85-0.66c6.5-1.83,6.5-1.83,8.12,7.88c0.26,0.84,1.32-0.42,0.54-0.01
		c-0.38,0.19-0.55,0.14-0.65-0.12c-1.32-3.34,0.11-6.36,1.06-9.45c2.48-4.33,6.85-3.3,10.69-3.79c12.64-3.23,25.32-4.67,38.26-1.59
		c5.1,1.21,10.34,1.83,15.62,1.93c4.48,0.09,8.01,1.92,10.14,6.08c0.61,1.2,1.07,2.35,0.93,3.73c-0.27,2.71-2.96,3.6-4.13,5.62
		c3.6,1.92,1.96,4.2,0.46,6.49c-0.78,1.19-0.76,2.41-0.25,3.74c4.08,10.75-0.35,20.91-2.21,31.24
		C1610.7,6757.17,1611.18,6762.56,1608.54,6767.13z"/>
	<path class="st7" d="M1505.72,6848.85c7.64,22.97,11.75,46.52,10.36,70.76c-0.84,14.55-2.58,29.05-3.92,43.57
		c-6.36,4.27-13.54,1.73-20.33,2.35c-2.94,0.27-6.22,0.46-8.51-2.29c-0.93-18,1.5-35.9,1.38-53.89
		c-0.14-21.61-2.82-42.67-10.67-62.92c-0.95-2.45-2.17-4.92-2.45-7.47c-0.58-5.14-3.31-6.51-8.06-6.11c-3.47,0.29-7-0.13-10.5-0.23
		c15.27-1.51,30.53-2.65,45.86-0.95C1501.15,6837.4,1503.44,6843.13,1505.72,6848.85z"/>
	<path class="st9" d="M1640.31,7467.42c3.84,0.01,7.64,0.05,11.49,0.74c4.06,0.73,8.04-0.31,11.11-3.49
		c12.88,0.92,25.75,1.82,38.63,2.76c9.11,0.66,17.39,4.08,25.54,7.86c7.19,6.04,14.84,11.82,16.79,21.77
		c0.94,4.8,2.53,10.12-3.2,13.49c-20.31,2.31-40.69,0.67-61.04,1.06c-10.95,0.21-21.91,0.09-32.87-0.01
		c-4.95-0.05-7.25-1.9-7.79-7.33c-0.97-9.86-0.86-19.69-0.83-29.55C1638.14,7472.13,1638.06,7469.4,1640.31,7467.42z"/>
	<path class="st7" d="M1612.21,6875.03c-1.98-12.46-5.25-24.61-9.11-36.6c-0.82-2.55-1.16-5.08-1.12-7.71
		c9.28-0.61,18.48,0.7,27.72,1.09c18.38,42.08,19.29,86.79,19.77,131.57c-1.99,2.33-4.76,2.06-7.31,1.93
		c-7.15-0.34-14.4,1.2-21.45-1.06c-2.9-2.88-2.98-6.75-3.35-10.4c-2.55-25.07-3.06-50.31-6.18-75.34
		C1611.34,6877.31,1611.84,6876.19,1612.21,6875.03z"/>
	<path class="st4" d="M1534.5,6702c-22.26,8.24-35.59,26.29-48.82,44.45c-1.91,2.62-1.21,5.51-0.73,8.27
		c2.89,16.8,5.9,33.58,8.86,50.36c-15.3-0.38-29.87-3.1-42.24-13c-2.78-9.24,0.66-17.83,3.72-26.05
		c9.31-24.99,26.54-43.87,47.59-59.7c6.81-5.12,14.83-8.49,20.87-14.67c0.47-0.47,1.01-0.83,1.61-1.1
		c7.22-1.42,12.79-7.49,20.56-7.37c2.58,3.63-1.31,4.78-2.7,6.81c-2.51,3.66-7.55,5.37-8.16,10.53
		C1535.16,6701.13,1534.97,6701.62,1534.5,6702z"/>
	<path class="st4" d="M1612.45,6752.36c-0.46-6.61,0.35-13.18,1.82-19.53c1.31-5.66,1.28-10.34-4.06-13.65
		c1.43-2.59,5.63-2.79,5.29-5.7c-0.29-2.53-3.76-1.38-5.85-2.47c1.27-0.62,2.38-1.17,3.49-1.71c2.19-1.06,5.49-2.64,4.4-4.8
		c-1.22-2.41-2.13-6.18-6.1-6.56c-18.96-1.81-37.83-7.63-56.98-1.31c-2.2-1.37-4.68-0.68-7.04-0.93c-2.04-0.21-4.03-0.78-4.83-2.79
		c-0.77-1.95,0.83-3.3,2.11-4.42c2.23-1.95,3.78-4.08,3.1-7.23c15.58-6.17,31.39-10.86,48.5-9.25c30.4,2.86,45.55,30,37.03,54.22
		c-0.14,0.39-0.04,0.85,0.07,1.28C1627.45,6736.65,1620.75,6745.19,1612.45,6752.36z"/>
	<path class="st6" d="M1090.65,7368.36c1.26,44.34,2.45,88.69,3.82,133.03c0.46,14.92,1.37,29.83,1,44.77
		c-7.41-11.7-8.27-25.16-10.31-38.3c-0.4-2.58-0.07-5.28-1.36-7.7c-1.3-20.75-2.49-41.51-3.97-62.25
		c-0.4-5.59,0.67-10.32,4.98-14.06c3.25-2.82,3.58-5.41,0.14-8.54c-13.51-12.3-7.7-27.29-5.15-41.55
		C1080.76,7368.51,1086.37,7368.89,1090.65,7368.36z"/>
	<path class="st12" d="M1221.05,7048.01c4.45,1.07,1.34,3.51,0.53,4.77c-3.92,6.05-8.12,11.92-12.28,17.8
		c-3.33,4.71-5,9.53-2.51,15.29c2.42,5.6-1.47,9.91-4.31,13.72c-6.32,8.49-8.37,16.84-3.31,26.76c4.64,9.08,6.94,18.83,5.91,29.22
		c-0.64,6.47,3.36,11.97,4.17,18.26c-6.07-4.33-8.33-11.21-7.39-17.62c1.61-11.02-2.29-20.28-6.4-29.65
		c-4.19-9.56-3.13-18.3,2.95-26.5c3.92-5.3,6.15-10.33,4.32-17.53c-2.09-8.22,4.49-14.14,8.65-20.45c2.25-3.41,5.72-6.02,6.79-10.23
		C1219.12,7050.57,1220.08,7049.29,1221.05,7048.01z"/>
	<path class="st13" d="M1643.81,6704.89c-1.89-6-2.18-12.39-4.79-18.24c-9.28-20.85-26.16-29.75-48.02-30.43
		c-21.19-0.65-41,5.52-60.43,13.22c-1.28,0.51-2.49,2.13-4.67,0.11c8.58-4.32,17.4-7.1,26.28-9.72c17.36-5.13,34.86-7.72,52.92-3.84
		c22.74,4.89,38.75,24.03,39.38,46.38C1644.25,6703.21,1644.03,6704.05,1643.81,6704.89z"/>
	<path class="st14" d="M1633.42,6727.5c-2.09-1.89-0.04-3.73,0.31-5.4c5.16-24.14-10.77-46.03-35.17-48.82
		c-17.9-2.04-34.46,2.15-50.57,9.26c-0.23,0.77-0.73,1.21-1.55,1.25c-5.28,0.69-9.55,3.82-14.25,5.9c-2.14,0.95-4.04,2.56-6.61,2.13
		c-0.51-0.44-0.66-0.99-0.46-1.63c3.4-3.87,8.21-5.25,12.68-7.24c1.08-0.41,2.34,0.47,3.36-0.46c9.41-3.51,18.68-7.47,28.56-9.48
		c14.48-2.95,28.95-4.49,42.93,2.34c15.66,7.65,23.73,20.11,23.76,37.63c0,3.06-0.09,6.13-0.14,9.2
		C1635.31,6723.95,1634.37,6725.73,1633.42,6727.5z"/>
	<path class="st15" d="M1524.16,6692.01c-0.59,3.72-4.14,4.2-6.57,5.7c-21.71,13.45-40.47,29.9-53.6,52.13
		c-7.69,13.02-12.77,26.84-12.43,42.24c-0.83-0.54-1.66-1.09-2.49-1.63c2.28-30.29,17.87-53.44,39.29-73.51
		c10.47-9.81,22.63-17.26,34.43-25.24C1523.36,6691.36,1523.82,6691.43,1524.16,6692.01z"/>
	<path class="st16" d="M1839.73,7020.49c-9.65,1.36-19.26,4.35-29.03,0.9c-5.83-2.06-12.11-3.39-16.01-8.81
		c0.89-1.31,1.66-1.25,2.47-0.73c15.23,9.74,31.05,9.92,47.23,2.71c1.92-0.85,3.75-1.02,5.72-0.86
		C1848.26,7018.44,1843.08,7018.08,1839.73,7020.49z"/>
	<path class="st17" d="M1456.6,6720.8c-10.95,13.44-18.5,28.75-24.62,44.86c-0.13-0.43-0.26-0.86-0.39-1.29
		c4.19-16.54,11.97-31.14,23.56-43.69C1455.68,6720.13,1456.16,6720.2,1456.6,6720.8z"/>
	<path class="st7" d="M1383.18,7338.17c1.42-1.22,2.67-0.53,4.18,0.05c12.42,4.79,24.96,5.91,37.69,1.02
		c12.53-4.81,25-2.34,37.34,0.9c15.08,3.96,29.87,4.9,45.15,0.06c7.84-2.48,16.46-1.76,24.46,1.58c1.55,0.65,2.73,1.26,3.03,2.98
		c1.4,1.75,1.14,3.73,0.66,5.66c-7.77,31.6-16.3,62.89-33.96,90.8c-14.28,22.56-33.55,35.93-61.15,37.53
		c-18.97,1.1-37.59,0.7-56.22-2.68c-3.64-2.55-4.82-6.67-6.52-10.43c-8.28-18.42-15.33-37.18-19.53-57.1
		c-3.57-16.91-10.44-33.01-14.4-49.89c-2.13-9.07-5.72-17.94-4.28-27.57c0.74-0.49,1.56-0.97,2.44-0.86
		C1355.93,7332,1369.98,7332.9,1383.18,7338.17z"/>
	<path class="st6" d="M1640.31,7467.42c0.24,12.94,0.71,25.88,0.6,38.81c-0.04,4.79,2.95,3.39,5.18,3.4
		c29.18,0.1,58.36,0.08,87.54,0.17c2.34,0.01,4.83-0.75,7.04,0.75c-11.11,6-23.46,6.86-35.61,8.15
		c-19.63,2.07-39.35,3.09-59.09,2.83c-4.5-0.06-5.86,1.51-6.53,5.67c-1.41,8.75-3.72,10.52-12.81,10.27
		c-5.89-0.17-11.76-1.09-17.66-1.33c-2.75-0.11-3.34-1.86-3.7-3.75c-0.81-4.3-1.56-8.63-1.92-12.98c-0.21-2.49-1.27-4.16-3.19-5.37
		c-2.4-1.52-3.77,0.78-4.92,2c-12.8,13.56-27.94,7.61-42.34,4.62c-4.86-1.01-5.76-6.41-3.99-11.32c2.88-2.08,6.23-1.83,9.51-1.85
		c11.4-0.05,22.8-0.14,34.2,0.03c5.35,0.08,7.26-2.06,7.37-7.38c0.28-13.38-0.78-26.7-1.25-40.05c1.45-32.47-4.83-64.17-9.78-95.99
		c-0.37-2.39-0.81-4.75-0.84-7.18c-0.04-3.37,1.62-4.24,4.62-3.27c3.95,0.27,7.82,1.22,11.29,2.95c10.58,5.3,20.15,3.35,29.31-3.3
		c1.74-1.26,3.69-2.24,5.54-3.34c-0.34,18.19,0.3,36.3,2.32,54.43c1.57,14.14-2.2,28.34-1.21,42.62
		C1640.43,7453.8,1640.22,7460.62,1640.31,7467.42z"/>
	<path class="st6" d="M1339.91,7331.23c4.25,27.73,14.89,53.8,21.13,80.96c5.1,22.2,13.85,42.74,23.41,63.12
		c1.29,0.82,2.59,1.66,3.21,3.12c3.9,9.17,9.29,17.59,13.31,26.71c0.44,1.01,0.6,2.07,0.39,3.17c1.7,6.57,6.7,11.13,10.05,16.69
		c1.72,2.85,1.79,4.05-1.47,7.78c-8.65,9.91-17.96,4.41-26.95,4.17c-6.9-0.18-12.12-4.3-13.48-11.35
		c-1.2-6.18-4.56-10.62-8.94-14.64c-6.97-4.07-9.01-11.72-12.48-18.11c-3.74-6.9-7.05-14.15-9.74-21.61
		c-10.58-35.5-29.18-67.52-44.01-101.18c3.91-10.21,9.68-19.36,16.16-28.1c8.17-6.27,17.27-11.29,24.85-18.32
		c2.45-2.27,3.16-0.71,4.02,1.24C1341.38,7326.86,1341.33,7328.99,1339.91,7331.23z"/>
	<path class="st7" d="M1553.18,7449.27c-6.3-1.8-12.6-3.64-18.92-5.37c-3.83-1.05-5.01-2.95-4.2-7.19
		c5.59-29.21,13.51-57.85,20.48-86.73c13.81,4.1,28.2,1.54,42.18,3.68c-4.05-0.14-3.01,2.58-2.67,4.83
		c2.27,15.2,4.32,30.45,6.93,45.59c3.17,18.37,4.33,36.82,3.62,55.41c-2.06,1.77-4.43,1.52-6.84,1.08
		c-12.02-2.23-23.72-5.85-35.69-8.28C1556.08,7451.9,1554.4,7450.93,1553.18,7449.27z"/>
	<path class="st18" d="M1502.74,7120.42c0.78-0.93,1.84-1.34,2.99-1.57c11.31-0.68,22.54-0.51,33.61,2.5
		c-5.09-0.76-10.08-1.96-14.71-4.23c-2.67-1.31-7.34-2.05-6.72-5.18c0.75-3.73,5.45-2.46,8.54-2.51c8.38-0.15,16.54,1.76,24.66,3.45
		c7.45,1.55,15.31,1.72,22.13,5.71c2.87,1.68,6.04-1.4,8.86,0.62c2.73,9.22,5.45,18.44,8.18,27.66c-14.2,3.6-28.71,5.2-43.26,6.54
		c-6.74,0.62-13.52,0.85-20.26,1.46"/>
	<path class="st18" d="M1499.12,7156.4c-9.08,0.66-18.01,0.95-28.25-1.3c7.19-5.01,14.67-5.38,22.5-7.9
		c-9.92-1-19.11,0.84-28.37-2.62c2.43-3.41,6.15-4.02,9.21-4.05c5.18-0.05,10.19-1.85,15.56-0.58c4.26,1.01,7.3-1.22,6.63-6.29
		c-0.23-1.71-0.59-3.45-1.24-5.04c-1.22-2.96-5.64-6.46-0.62-8.75c4.54-2.07,11.2-0.34,12.47,3.74l21.32,29.58l-0.42,1.56"/>
	<path class="st19" d="M1547.93,7259.62c1.15,10.92,7.4,19.3,12.96,28.07c3.92,6.18,6.3,12.96,5.54,20.54
		c-1.56,15.53,5.08,27.01,17.69,35.56c1.84,1.25,4.04,2.51,4.2,5.47c-16.52-7.36-25.55-19.88-24.47-32.3
		c1.28-14.71-3.91-26.79-12.36-38.26C1547.45,7273.25,1545.19,7266.83,1547.93,7259.62z"/>
	<path class="st20" d="M1677.23,7306.13c-2.31,0.12-4.61,0.23-6.92,0.35c-3.68,2.59-5.85,6.09-6.36,10.58c0,0,0.11,0.06,0.11,0.06
		c-2.08-4.89-2.38-9.73,1.88-13.51c2.35-2.09-0.3-3.77,0.35-5.86c0.93-2.96,0.24-6.43,0.24-9.72c-2.26-0.1-1.79,2.54-3.6,2.83
		c0-0.65-0.18-1.34,0.03-1.88c4.83-12.33,12.61-23.63,13.05-37.51c0.04-1.28,0.79-2.79,2.45-2.39c1.68,0.41,1.39,2.15,1.14,3.31
		c-1.5,7-1.81,14.34-6.08,20.56c-4.91,7.15-3.52,15.36-2.32,22.97c0.37,2.38-1.33,3.04-1.06,4.58c1.54,1.47,3.86-2.57,4.77,0.74
		c0.09,0.32,5.91,1.94,0.02,2.94C1673.84,7304.36,1677.08,7304.72,1677.23,7306.13z"/>
	<path class="st18" d="M1476.59,7119.08c4.4,0.61,8.84-2,13.23,0.14c-0.15,3.78,0.41,7.44,2.49,10.65c1.54,2.39,2.78,4.88,0.07,6.93
		c-2.46,1.86-5.12,0.43-7.28-1.06c-1.99-1.37-4.23-3.85-3.74-5.76c0.88-3.41,5.16-0.03,7.29-2.37c-5.83-1.53-12.04-1.35-17.29-4.68
		c1.17-0.49,1.32-1.51,1.37-2.59C1474.02,7119.92,1474.94,7118.35,1476.59,7119.08z"/>
	<path class="st21" d="M1352.73,7307.66c-1.75,0.93-3.51,1.86-5.26,2.78c-2.64-2.39,0.02-3.57,1.34-4.49
		c9.93-6.93,15.71-16.87,20.54-27.57c0.69-1.53,0.34-4.96,3.12-3.71c2.46,1.11,0.05,3.42-0.47,5.15
		C1368.54,7291.16,1360.42,7299.26,1352.73,7307.66z"/>
	<path class="st22" d="M1310.5,7341.98c-4.12,9.91-10.45,18.57-15.73,27.83c0.5,1.43-0.25,2.13-1.48,2.55
		c-5-1.3-1.14-3.78-0.38-5.18c3.76-6.98,8.91-13.22,11.05-21.06C1306.42,7345.19,1306.77,7340.91,1310.5,7341.98z"/>
	<path class="st23" d="M1465.02,7132.59c8.76-5.02,12.68-4.25,16.28,3.32C1475.69,7135.27,1470.37,7134.99,1465.02,7132.59z"/>
	<path class="st9" d="M1553.18,7449.27c15.87,3.12,31.25,8.51,47.42,10.23c0.52,15.1,0.94,30.21,1.61,45.31
		c0.16,3.67-0.85,5.01-4.68,4.95c-16.21-0.28-32.42-0.29-48.63-0.4c0.08-6.1,0.17-12.19,0.25-18.29
		C1550.49,7477.13,1551.83,7463.2,1553.18,7449.27z"/>
	<path class="st3" d="M1505.68,7120.23c-3.83-3.48-7.53-6.02-13.41-6.63c-4.86-0.51-10.59-3.92-13.14-9.31
		c-2.69-5.67-6.63-9.03-12.81-9.1c-0.09-3.65,4.25-7.11-0.28-10.46c12.03-20.01,24.04-40.02,36.1-60.01
		c6.53-10.83,6.56-10.82-1.93-18.83c-0.36-4.02,1.9-7.1,3.91-10.16c1.73-2.64,4.37-3.38,7.51-2.48
		c10.13,2.91,19.01,7.87,25.95,15.91c2.6,3.01,5.42,5.7,8.58,8.1c2.64,2,5.04,4.71,8.13,0.53c0.91-1.23,2.34-0.35,3.63-0.12
		c7.14,1.3,12.62-4.53,11.06-11.67c-1.54-7.06-5.18-12.9-10.11-18.13c-1.65-1.75-5.32-3.4-2.14-6.88c3.74-1.4,7.32-0.45,10.93,0.59
		c5.94,1.72,11.29,4.74,16.82,7.38c8.62,4.12,16.99,4.96,26.57,1.78c13.49-4.47,27.49-4.9,40.77,1.98
		c14.15,18.96,28.32,37.91,42.43,56.9c0.74,1,1.04,2.32,1.54,3.5c0.46,0.63,0.34,1.06-0.44,1.26
		c-19.53,7.82-39.09,15.58-58.59,23.47c-16.47,6.67-32.78,13.72-49.34,20.16c-6.11,2.38-9.1,5.34-6.76,12.14
		c0.98,2.85,1.01,6.02,1.47,9.04c-4.48,2.84-8.25,1.41-13.13-0.25c-9.6-3.26-19.94-4.38-29.97-6.39
		c-6.66-1.33-13.36-1.69-21.28-1.22c7.27,5.13,15.1,6.39,20.49,8.88C1528.37,7120.23,1517.02,7120.23,1505.68,7120.23z"/>
	<path class="st24" d="M1555.89,6982.11c6.72,7.2,12.99,14.45,15.2,24.69c1.33,6.17-1.73,9.53-5.87,11.43
		c-2.36,1.08-6.42,8.11-9.44-2.49c-1.61,7.86-3.99,8.12-8.4,4.87c-6.21-4.57-10.92-10.59-16.54-15.71
		c-5.91-5.38-13.17-7.59-20.21-10.44c-3.31-1.34-4.81,1.05-6.14,3.39c-1.5,2.64-2.85,5.37-4.27,8.06
		c-9.21-6.97-18.43-13.95-27.64-20.92c5.56-7.49,13.83-11.38,21.42-16.2c7.11-3.31,14.25-6.44,22.29-3.15
		c1.71,0.22,3.42,0.44,5.13,0.66c1.25-0.12,2.48-0.43,3.76-0.3c6.73,1.08,12.86,3.82,18.85,6.92
		C1548.19,6975.69,1553.62,6976.86,1555.89,6982.11z"/>
	<path class="st25" d="M1458.23,6975.4c-7.24-0.4-12.25-5.59-18.12-8.79c-4.03-2.2-5.44-1.46-7.63,2.09
		c-10.92,17.75-22.08,35.36-33.28,52.93c-1.16,1.83-1.81,4.53-5.66,5.09c2.16-7.7,7.11-13.07,10.75-19.05
		c8.99-14.77,18.47-29.25,27.71-43.88c1.68-2.65,2.07-5.79,2.31-8.81c1.05-13.54,1.9-27.09,2.88-40.63c0.12-1.59-0.69-4.4,1.62-4.27
		c2.58,0.15,1.79,2.76,1.62,4.77c-1.17,13.74-2.14,27.5-3.35,41.24c-0.33,3.81,0.96,6,4.45,7.72c5.3,2.61,10.29,5.84,15.41,8.81
		C1459.19,6972.72,1459.05,6973.9,1458.23,6975.4z"/>
	<path class="st26" d="M1458.23,6975.4c-0.43-0.92-0.86-1.84-1.29-2.76c5.4-2.91,11.82-0.98,17.28-3.63
		c6.64-3.62,14.62-3.08,19.73,1.35c-7.13,4.87-14.26,9.74-21.4,14.61C1467.79,6981.78,1463.01,6978.59,1458.23,6975.4z"/>
	<path class="st27" d="M1493.96,6970.36c-6.44-2.46-13.07-2.14-19.73-1.35c1.26-5.02,1.56-5.21,9.08-5.76
		c9.62-0.02,19.23-0.04,28.85-0.07c1.62,0.4,3.71-0.01,4.12,2.44C1508.14,6963.9,1501.1,6967.37,1493.96,6970.36z"/>
	<path class="st28" d="M1692.96,6943.8c10.86-2.94,21.06-0.44,31.48,2.88c12.85,4.1,26.31,4.05,40.48,3.54
		c-3.13,5.57-9.08,6.7-12.56,10.63c-18.82,14.37-40.49,14.87-62.62,12.64c-7.36-0.74-14.76-1.69-21.8-4.19
		c-5.57-1.98-6.09-4.13-1.96-8.39C1673.58,6953.08,1683.28,6948.43,1692.96,6943.8z"/>
	<path class="st29" d="M1555.89,6982.11c-4.03-2.63-8.05-5.25-12.08-7.88c1.55-1.92,3.79-2.21,5.95-2.14
		c18.8,0.64,37.52-1.49,56.3-1.4c1.97,0.01,3.93,0.15,5.83,0.72c7.35,3.89,15.3,1.44,22.96,2.16c3.3,0.31,7.14-0.93,9.18,3.11
		c-1.15,7.17,5.27,10.67,7.79,16.06c-12.21-2.64-25-6.04-36.75-1.12c-14.34,6-26.21,2.33-38.5-4.47
		C1570.24,6983.65,1563.41,6981.17,1555.89,6982.11z"/>
	<path class="st30" d="M1644.03,6976.67c-7.73-2.4-15.68-0.69-23.51-1.18c-2.99-0.19-6.31,0.69-8.17-2.78
		c-2.08-2.93-1.62-5.75,0.64-8.25c2.11-2.34,4.69-2.96,7.53-1.12c9.65,0.01,19.29,0.02,28.94,0.03c4.59-0.15,5.49,2.62,5.19,6.45
		c-0.28,3.55-1.66,5.83-5.68,5.65C1647.25,6975.4,1645.4,6975.15,1644.03,6976.67z"/>
	<path class="st31" d="M1695.34,7054.39c0.15-0.42,0.3-0.84,0.44-1.26c8.12-6.1,17.88-8.86,26.94-13.01
		c4.14-1.9,7.99-5.21,13.04-4.9c0.41,2.4-1.04,3-2.46,3.64c-10.96,4.9-21.93,9.79-32.88,14.71
		C1698.79,7054.31,1697.13,7054.67,1695.34,7054.39z"/>
	<path class="st32" d="M1740.59,6930.52c7.52-1.14,14.8,1.89,22.28,1.29c1.15-0.27,1.63,0.13,1.33,1.32
		c-8.16,2.6-16.15,2.16-23.97-1.33C1740.35,6931.37,1740.47,6930.94,1740.59,6930.52z"/>
	<path class="st28" d="M1852.72,6906.94c4.44-0.01,10.41,9.05,8.73,12.59c-0.33,0.69-1.1,1.48-1.79,1.63
		c-3.61,0.79-5.84-1.24-7.31-4.18c-1.41-2.83-3.92-5.61-1.4-9.03C1851.39,6907.35,1852.37,6907.13,1852.72,6906.94z"/>
	<path class="st33" d="M1248.25,7357.5c3.91,2.6,8.28,4.94,11.63,7.87c4.66,4.08,14.09,7.7,5.15,14.89
		c-7.87,6.33-16.17,3.66-23.44,0.78C1243.82,7373.19,1246.03,7365.35,1248.25,7357.5z"/>
	<path class="st34" d="M1580.35,6813.13c-6.57,0.06-12.83-3.94-14.55-9.32c-1.61-5.02,0.36-7.55,5.38-6.09
		c6.34,1.84,12.1,1.07,17.81-1.87c1.76-0.91,3.68-1.84,5.47-0.11c1.65,1.59,1.25,3.68,0.86,5.59
		C1594.11,6807.32,1586.75,6813.07,1580.35,6813.13z"/>
	<path class="st35" d="M1579.22,6835.45c0.35,1.72,0.02,2.96-2.06,2.99c-12.34,0.11-24.25-2.29-35.86-6.27
		c-1.78-0.61-5.51-0.45-4.33-3.46c0.98-2.49,3.85-0.49,5.79,0.17C1554.58,6832.92,1566.68,6835.39,1579.22,6835.45z"/>
	<path class="st36" d="M1575.35,6787.25c9.37-5.92,9.54-6.54,5.07-15.95c-3.3-6.95-3.86-10.5-1.86-15.58
		c1.83,7.35,5.17,13.99,8.47,20.7C1589.91,6782.25,1583.62,6788.17,1575.35,6787.25z"/>
	<path class="st37" d="M1563,6748.27c-6.23,3.71-11.89,3.47-17.39,3.78c-0.91,0.05-2.42-0.64-2.7-1.35
		c-0.59-1.51,0.92-2.26,2.05-2.79C1550.52,6745.29,1556.12,6744.91,1563,6748.27z"/>
	<path class="st38" d="M1600.11,6745.75c-6.38,3.8-12.85,3.22-20.06,2.78C1585.5,6742.4,1593,6741.47,1600.11,6745.75z"/>
	<path class="st39" d="M1595.41,6761.78c-0.17,2.52-0.56,5.09-3,4.49c-2.87-0.7-3.16-3.91-3.25-6.45c-0.06-1.83,0.46-4.66,2.93-3.99
		C1594.82,6756.57,1595.21,6759.62,1595.41,6761.78z"/>
	<path class="st40" d="M1557.24,6764.85c-0.08,1.76-0.15,4.29-2.17,4.08c-3.23-0.33-3.51-3.39-3.55-6.08
		c-0.02-1.74,0.02-4.26,2.14-4.07C1556.99,6759.07,1557,6762.23,1557.24,6764.85z"/>
	<path class="st41" d="M1475.41,6699.76c9.99-9.08,21.48-15.81,33.66-21.48c-11,7.29-22.24,14.2-32.47,22.58
		C1476.02,6700.69,1475.63,6700.32,1475.41,6699.76z"/>
	<path class="st42" d="M1475.41,6699.76c0.4,0.37,0.8,0.73,1.2,1.1c-6.67,6.65-13.34,13.3-20.01,19.95
		c-0.48-0.04-0.96-0.08-1.45-0.12C1460.58,6712.43,1468,6706.1,1475.41,6699.76z"/>
	<path class="st43" d="M1510.5,6676.84c3.68-3.76,8.65-3.38,10.9-7.1c0.44-0.72,0.95-0.67,1.41-0.07c0.7,0.93,1.15,2.05,0.08,2.89
		C1519.59,6675.16,1515.98,6676.99,1510.5,6676.84z"/>
	<path class="st7" d="M1339.55,7471.27c-17.63-0.41-35.28-0.59-52.89-1.38c-5.4-0.24-7.63,1.12-6.76,6.54
		c-2.28-3.92-0.6-8.18-1.03-12.26c-1.39-13.22-0.64-26.39,1.25-39.51c0.38-2.64,0-5-1.8-7.38c-3.64-4.82-2.92-10.03,2.13-13.69
		c2.61-1.9,3.57-4.01,4.24-6.9c1.38-5.97,3.3-11.82,4.66-17.79c0.62-2.73,2.08-4.68,3.93-6.54c0.49-0.85,0.99-1.7,1.48-2.55
		c1.2,0,1.95,0.49,2.49,1.66c11.29,24.57,22.87,49.02,33.8,73.75C1334.73,7453.53,1336.77,7462.56,1339.55,7471.27z"/>
	<path class="st3" d="M1663.96,7317.06c-0.3-4.98,1.03-8.98,6.36-10.58C1668.19,7310,1666.07,7313.53,1663.96,7317.06z"/>
	<path class="st44" d="M1524.17,6967.15c-1.08,0.23-2.05,0.07-2.77-0.87c0.34-0.56,0.59-1.21,1.04-1.66
		c29.91-29.87,59.84-59.73,89.76-89.59c0.09,0.91,0.17,1.82,0.26,2.73c-1.19,2.09-2.47,4.08-4.21,5.82
		c-27.02,27.01-54.08,53.99-81.03,81.07C1526.3,6965.6,1525.19,6966.31,1524.17,6967.15z"/>
	<path class="st45" d="M1534.55,6700.93c2.46-4.31,5.47-5.01,9.15-1.41c-0.46,3.61-0.91,7.22-1.39,10.96
		c-2.94-0.66-2.65-2.86-2.35-4.57c0.92-5.34-1.31-5.86-5.46-3.9C1534.55,6701.65,1534.56,6701.29,1534.55,6700.93z"/>
	<path class="st11" d="M1610.36,6879.29c0.61-0.6,1.41-1.02,2.11-1.52c2.43,9.74,3.15,19.8,3.63,29.69
		c0.91,18.69,2.33,37.31,4.41,55.89c-6.63-0.29-8.69,3.41-8.17,9.37c-22.85,0.5-45.7,1.01-68.55,1.51
		c-6.45-2.61-12.7-5.8-19.63-7.08c0-1.99,1.42-3.11,2.65-4.33"/>
	<path class="st46" d="M1760.06,6908.02c2.36,0.16,3.28,1.48,2.13,3.49c-1.52,2.67-3.46,5.23-6.77,5.74
		c-2.42,0.37-4.39-0.46-4.3-3.49C1754.1,6911.85,1757.08,6909.93,1760.06,6908.02z"/>
	<path class="st4" d="M1525.64,6690.48c-2.76-5.16,0.99-7.91,4.41-9.88c3.47-2,6.7-0.47,8.48,3.34
		C1534.23,6686.12,1529.93,6688.3,1525.64,6690.48z"/>
	<path class="st3" d="M1476.59,7119.08c-1.29,0.42-2.58,0.83-3.86,1.25c1.61-1.78,3.43-3.42,4.79-5.38
		c3.31-4.75,6.52-4.52,10.47,0.51C1482.74,7113.49,1478.98,7114.57,1476.59,7119.08z"/>
	<path class="st47" d="M1632.79,6972.73c-4.58,0-9.16,0.01-13.74-0.01c-1.8-0.01-3.66-0.07-3.75-2.53c-0.09-2.35,1.21-3.83,3.5-3.85
		c9.81-0.12,19.62-0.11,29.43-0.1c1.98,0,3.47,1,3.5,3.09c0.03,2.45-1.65,3.39-3.89,3.4
		C1642.82,6972.75,1637.8,6972.73,1632.79,6972.73z"/>
	<path class="st48" d="M1282.69,7399.23c-2.92,7.11-4.54,11.05-7.05,17.15C1262.54,7409.48,1267.48,7405.51,1282.69,7399.23z"/>
	<path class="st49" d="M1270.14,7402.85c-3.97-0.61-5.99-2.46-5.82-5.8c0.23-4.6,2.98-7.18,7.52-7.45c3.61-0.21,5.47,2.54,5.35,5.41
		C1277,7399.46,1273.34,7401.4,1270.14,7402.85z"/>
	<path class="st18" d="M1499.34,7126.57l-10.03,0.93l-2.36-7.59c0,0,6.07-1.28,11.72,0.41"/>
	<path class="st18" d="M1498.42,7128.02c0,0-21.66,0.91-24.61,1.76s4.36,5.8,4.36,5.8l23.96,1.54L1498.42,7128.02z"/>
</g>
<g>
	<path class="st50" d="M1582.31,3394.82c3.99-10.11,8.95-19.45,18.99-24.98c5.42-2.98,11.15-5.14,16.99-7.08
		c6.49-2.16,13.19-3.74,19.35-6.86c3.95-2,6.5-5,7.15-9.47c0.08-0.12,0.16-0.24,0.24-0.37c7.29-3.2,14.67-6.27,21.6-10.19
		c8.89-5.03,17.44-10.57,24.24-18.39c1.52-2.01,3.37-3.71,5.19-5.42c0.86-0.81,1.81-1.74,3.13-0.66c2.29,6.83,4.67,13.64,4.5,21
		c-1.76,5.32-3.53,10.64-5.26,15.96c-2.75,8.44-1.78,17.04-1.08,25.62c0.31,3.79,0.87,7.56,1.32,11.33
		c-0.55,1.29-1.74,1.91-2.83,2.6c-5.92,3.71,13.22,15.7,11.07,22.38c-0.42,1.31-23.73,6.65-24.85,7.62
		c-2.2-5.78-7.14-19.93-12.13-23.03c-6.06-3.76-12.72-5.69-19.69-5.86c-7.31-0.18-14.63,1.04-20.09,6.45
		c-3.42,3.39-7.01,2.9-10.97,2.39c-12.29-1.58-23.24,1.43-32.64,9.69c-3.88,3.41-6.97,7.45-9.7,11.87c-0.77-0.65-0.3-1.39-0.47-2
		C1577.3,3409.61,1579.59,3402.16,1582.31,3394.82z"/>
	<path class="st51" d="M1753.8,3399.1c-3.82-3.36-7.13-7.31-11.47-10.08c-0.76-0.48-1.52-0.95-2.28-1.43
		c2.28-2.06,5.33-3.2,6.55-6.53c0.4-1.1,2.39-1.61,3.65-2.39C1751.44,3385.48,1752.62,3392.29,1753.8,3399.1z"/>
	<path class="st52" d="M1726.67,3374.4c-2.42-9.85,1.36-18.16,6.47-26.13c1.9-2.96,3.85-5.89,5.79-8.83c0.35-0.52,0.5-1.45,1.5-0.86
		c3.28,11.23,6.16,22.55,8.55,34c0.16,0.76,0.07,1.67,1.1,1.94c-0.61,0.33-1.26,0.58-1.8,0.99c-1.6,1.21-2.85,1.38-4.99,0.4
		C1738.04,3373.5,1732.27,3374.36,1726.67,3374.4z"/>
	<path class="st53" d="M1733.78,3390.28c2.15-0.76,4.39-1.31,6.27-2.7c2.93-0.02,4.57,2.3,6.53,3.85c2.75,2.18,5.28,4.67,7.22,7.66
		c1.02,2.99,3.56,5,4.77,7.96c3.27,8.01,4.62,16.17,3.37,24.75c-0.43,2.97-0.26,5.5,2.29,7.9c11.89,11.23,16.56,25.41,15.61,41.47
		c-0.38,6.54-2.12,12.92-5.39,18.68c-1.41,2.47-1.04,4.55,0.08,6.81c2.63,5.32,4.05,11.09,4.05,16.89
		c0.01,11.3-3.17,21.65-11.27,30.02c-1.68,1.74-3.32,3.51-4.98,5.27c-4.49,4.81-10.33,6.87-16.57,7.92c-1.88,0.32-2.63,1-2.58,2.88
		c0.26,9.2-2.79,17.42-7.6,25.09c-4.76,6.92-10.67,12.59-17.96,16.82c-8.24,4.78-17.15,7.48-26.54,8.69
		c-2.19,0.28-4.37,0.8-6.61,0.63c-1.09-0.08-2.24,0.14-3.14-0.74c-3.4-0.37-6.26,0.31-9.17,2.55c-6.54,5.04-14.3,6.88-22.47,7.84
		c-8.41,0.99-16.73,0.58-24.9-0.92c-9.47-1.74-18.81-4.33-26.57-10.68c-2.46-2.02-3.88-4.84-6.07-7.07
		c-3.75-3.82-7.52-5.61-13.34-4.77c-10.14,1.47-20.45,0.99-30.56-1.18c-1.06-0.23-1.96-0.21-2.92,0.1
		c-1.39-0.68-2.98-0.67-4.39-1.26c-11.09-3.34-21.44-8.3-31.22-14.48c-0.53-1.06-1.55-1.51-2.49-2.11
		c-8.94-5.64-17.84-11.46-25.05-19.22c-5.87-6.32-12.22-11.9-19.34-16.67c-2.42-1.62-4.98-3.02-7.49-4.5
		c-1.22-0.72-1.68-1.53-0.97-2.97c2.12-4.31,4.09-8.69,5.76-13.21c0.76-2.06,1.68-2.9,4.18-1.41c11.64,6.93,23.27,13.91,35.55,19.68
		c6.8,3.2,13.57,6.71,21.04,8.01c3.92,0.69,8.19,1.46,11.81-1.49c7.47-2.32,13.95-6.33,19.63-11.68c2.79-2.62,4.11-5.73,3.96-9.68
		c-0.12-3.33,1.16-6.5,2.4-9.59c2.68-6.68,6.1-12.9,11.22-18.06c2.87-2.55,3.14-5.72,2.1-9.15c-1.06-3.49-2.52-6.84-4.07-10.11
		c-4.56-9.6-1.92-17.63,4.93-24.88c2.26-2.39,4.64-4.68,7.29-7.15c-3.88-1.67-7.67-2.24-11.36-3.09c-2.85-0.65-5.73-1.14-8.63-1.57
		c-3.16-0.47-6.18-0.89-8.57,1.89c-0.28-0.55,0.4-2.24-1.38-0.95c-3.46,2.52-6.06,5.88-8.77,9.08
		c-7.47,8.81-14.07,18.28-20.39,27.94c-2.43,3.71-6.21,3.01-9.59,2.44c-2.82-0.47-5.62-1.43-8.33-2.58
		c-1.56-0.66-1.83-1.21-1.04-2.6c2.81-4.99,5.46-10.09,8.39-15.01c4.89-8.18,9.95-16.25,14.93-24.38c0.24-0.39,0.62-0.86,0.06-1.33
		c0.27-2.38,2.31-3.68,3.4-5.57c4.39-7.56,10.61-12.25,19.54-13.7c7.35-1.19,14.63-2.95,22.01-4.05c2.53-0.38,4.85-0.75,4.77-4.11
		c-0.01-0.58,0.39-1.15,1.16-1.14c0.59,0.51,0.46,1.22,0.27,1.89c1.31-4.08,4.1-7.02,6.88-9.88c10.9-11.26,24.33-14.37,39.37-11.94
		c2.11,0.34,3.62-0.17,5.21-1.52c8.94-7.6,19.19-9.14,30.36-6.45c7.75,1.86,14.48,5.45,20.08,11.15c1.66,1.68,2.99,3.54,3.7,5.81
		c0.17,0.24,0.35,0.48,0.55,0.69c6.04,2.27,11.66,5.17,15.28,10.8c3.38,5.27,3.77,11.06,0.94,16.47c-2.71,5.18-7.73,7.19-13.54,6.87
		c-4.54-0.25-6.75-2.22-7.75-6.66c-0.81-3.6,1.45-9.08,4.41-10.6c1.55-0.8,3.14-0.83,4.55,0.32c1.35,1.1,1.44,2.58,0.95,4.15
		c-0.18,0.57-0.56,1.07-0.63,1.91c2.54,0.14,3.96-1.37,5.03-3.17c1.16-1.94,0.76-4-0.59-5.68c-2.4-2.97-5.57-4.31-9.39-3.57
		c-6.25,1.2-12.04,7.4-12.73,13.5c-0.79,7.02,2.71,13.57,8.84,16.54c13.94,6.75,28.83,0.78,33.95-13.89
		c2.51-7.19,0.71-13.75-4.29-19.43c-1.54-1.75-3.27-3.29-5.15-4.68c-1.15-0.85-2.22-1.8-2.21-3.42c0.08-2.03,0.66-3.85,2.21-5.25
		c1.04-0.88,2.24-0.63,3.44-0.52c9.42,0.84,17.63-1.81,24.35-8.62C1731.39,3391.19,1732.41,3390.44,1733.78,3390.28z"/>
	<path class="st54" d="M1634.61,3139.56c25.73,0.1,49.36,7.55,71.43,20.44c12.38,7.23,23.41,16.17,32.85,26.95
		c11.59,13.24,18.67,28.79,22.93,45.81c3.36,13.41,4.86,26.96,4.13,40.74c-0.36,6.85-1.87,13.54-3.59,20.17
		c-1.11,0.94-2.32,0.49-3.45,0.16c-13.42-3.94-27.15-5.85-41.1-6.33c-0.2-0.01-0.39-0.1-0.58-0.17c-1.22-1.74-0.31-3.86-1.03-5.69
		c0.23-6.46-0.66-12.87-0.78-19.33c-0.11-6.11-3.95-10.67-7.66-15.08c-2.26-2.69-4.84-5.13-7.48-7.47c-0.38-0.3-0.7-0.66-0.98-1.06
		c-5.91-10.08-7.72-20.95-6.22-32.44c-1.04,7.74-0.62,15.38,1.85,22.86c0.19,0.57,0.43,1.14,0.56,1.72c0.2,0.9,1.21,2.08-0.05,2.66
		c-1.02,0.47-1.8-0.71-2.4-1.48c-3.63-4.62-6.62-9.64-8.79-15.1c-2.94-7.39-5.04-15-5.09-19.53c0.51,8.07,3.69,18.85,9.75,28.74
		c1.74,2.83,3.62,5.57,5.99,7.94c0.77,0.77,1.49,1.66,1.6,2.85c-0.87,1.35-2.02,0.58-2.94,0.24c-8.44-3.13-16.02-7.57-21.6-14.85
		c-8.04-10.49-14.74-21.86-21.64-33.09c-0.63-1.03-1.19-2.11-1.88-3.1c-2.34-3.34-2.58-3.41-6.28-1.71
		c-0.93,0.43-1.85,0.83-2.86,0.21c-1.04-1.58,0.08-2.77,0.73-4.05c0.64-1.26,1.9-2.43,0.64-4c-1.69-2.12-1.65-4.74-1.94-7.21
		c-1.07-9.11-2.44-18.17-4.17-27.18C1634.4,3141.32,1634.06,3140.43,1634.61,3139.56z"/>
	<path class="st54" d="M1569.15,3357.43c-11.4,0.01-22.43-1.96-33.07-6.1c-4.21-1.64-7.11-4.13-9.05-8.55
		c-6.5-14.87-11.35-30.2-13.98-46.18c-4.87-29.68-2.68-58.53,11.15-85.8c4.72-9.31,10.49-17.93,17.53-25.66
		c2.44,3.57,4.19,7.53,6.35,11.25c3.18,5.49,6.29,11.01,9.6,16.43c0.73,1.19,1.63,2.33,1.61,3.85c-0.04,2.61,2.23,2.15,3.64,2.56
		c3.79,1.09,4.36,1.92,3.45,5.98c-0.29,0.28,0.13-0.02-0.17,0.25c-4.6,4.08-4.56,4.06-1.83,9.69c4.7,9.72,9.2,19.49,11.83,30.08
		c2,8.04,0.13,15.38-2.58,22.74c-0.28,0.76-0.78,1.42-1.66,1.63c-1.3-0.38-1.07-1.61-1.25-2.51c-1.62-7.83-3.42-15.63-4.71-23.53
		c1.66,9.68,3.74,19.28,5.82,28.87c0.61,2.76,0.89,5.58,1.1,8.38c0.19,2.49,1.16,3.66,3.74,3.57c1.78-0.06,3.68-0.12,4.93,1.63
		c0.77,2.87-0.64,5.53-0.79,8.32c-0.7,12.65-1.25,25.29,1.08,37.85c0.29,1.56,0.92,3.12,0.12,4.72
		C1577.82,3359.24,1573.5,3358.68,1569.15,3357.43z"/>
	<path class="st55" d="M1557.56,3169.3c-2.23-5.79-0.84-11.44,0.58-17.11c2.8-11.17,6.44-22.09,9.97-33.04
		c0.21-0.66,0.31-1.36,0.46-2.05c2.33,3.36,6.04,5.8,6.84,10.2c0.18,1,0.49,1.96,0.82,2.91c1.3,3.74,2.25,4.21,6.3,3.89
		c6.93-0.56,13.51,0.27,18.89,5.34c1.48,1.4,3.23,2.43,5.28,2.82c0.2,0.04,0.41,0.07,0.58,0.17c3.69,2.19,7.41,4.34,11.18,6.39
		c-1.03,6.26-1.05,12.66-2.32,18.86c-1.31,6.38-5,10.94-11.61,12.63c-13.42,3.42-26.72,4.17-39.46-2.46
		C1561.61,3176.04,1558.41,3173.6,1557.56,3169.3z"/>
	<g>
		<g>
			<path class="st56" d="M1761.4,3382.95l-90.52,25c0,0,22.69-24.34,40.76-29.67c18.07-5.33,46.81-11.55,46.81-11.55L1761.4,3382.95
				z"/>
		</g>
		<path class="st57" d="M1734.06,3389.83l-92.14,27.65c0,0,23.46-25.6,41.85-31.47s47.62-12.88,47.62-12.88L1734.06,3389.83z"/>
	</g>
	<path class="st58" d="M1618.17,3148.66c-3.58-0.59-6.59-2.29-9.28-4.67c-1.77-1.57-4.48-0.84-6.29-2.59
		c-6.18-5.99-13.58-7.7-21.93-6.16c-1.98,0.36-3.96-0.7-4.29-2.6c-1.06-6.01-5.17-10.38-7.81-15.53c-0.69-5.29,0.22-9.91,5.27-12.82
		c1.29-1.8,3.11-2.55,5.24-2.48c2.11,0.06,3.65-0.84,5.01-2.34c1.02-1.12,2.15-2.13,3.2-3.22c3.5-3.68,7.87-5.1,12.68-3.95
		c9.94,2.36,19.03,6.63,26.6,13.65c3.62,3.36,4.54,9.52,2.52,14.24c-0.8,6.65-2.66,13.03-4.82,19.34c-0.5,3.39-3.03,5.7-4.54,8.56
		C1619.3,3148.5,1618.79,3148.73,1618.17,3148.66z"/>
	<path class="st59" d="M1535.25,3542.5c-5.51-1.42-11.01-2.88-16.54-4.24c-8.22-2.01-15.16-6.32-21.54-11.71
		c-10.86-9.16-19.63-20.2-28.24-31.39c-1.26-1.64-1.44-2.75,0.33-4.2c2.64-2.17,5.09-4.59,7.55-6.97c1.04-1.01,1.89-1.28,3.09-0.22
		c6.97,6.12,14.41,11.65,22.23,16.6c7.55,4.78,15.15,9.6,24.19,11.27c4.29,0.79,8.61,0.5,12.93,0.49c1,0,1.34-0.76,1.89-1.3
		c4.01,0.58,7.94-0.3,11.91-0.61c1.77-0.14,3.5-0.92,5.32-0.39c1.49,1.42,0.13,2.65-0.43,3.76c-4.25,8.48-8.38,17.02-12.7,25.47
		c-0.84,1.64-0.93,3.84-3.11,4.59C1539.74,3543.93,1537.42,3543.66,1535.25,3542.5z"/>
	<path class="st59" d="M1576.35,3417.42c-0.17,0.25-0.51,0.53-0.47,0.74c0.88,4.35-2.01,4.88-5.18,5.29
		c-9.25,1.22-18.34,3.18-27.4,5.41c-4.3,1.06-7.35,3.43-9.98,6.77c-2.67,3.39-4.76,7.21-7.85,10.27c-4.8,1.79-9.69,3.4-14.39,5.43
		c-4.16,1.81-7.47,1.23-10.65-2.01c-2.21-2.25-4.15-4.64-5.74-7.34c-0.62-1.04-0.86-1.83,0.44-2.78
		c11.32-8.22,22.56-16.56,33.86-24.8c6.75-4.92,13.5-9.85,20.42-14.54c3.94-2.67,7.45-6.24,12.53-6.93c0.39-0.05,0.7-0.68,1.04-1.03
		c5.19,0.45,10.41,0.62,15.55,1.61c1.28,0.24,2.59,0.37,3.71,1.13c0.93,1.19,0.18,2.36-0.21,3.42c-2.02,5.41-3.42,10.98-4.47,16.64
		C1577.38,3415.7,1577.21,3416.73,1576.35,3417.42z"/>
	<path class="st54" d="M1618.17,3148.66c0.4-0.24,0.8-0.49,1.2-0.73c1.23,0.13,1.32,1.13,1.41,2c1.06,9.9,3.13,19.66,3.95,29.59
		c-0.58,1.7-1.28,3.15,1,4.52c4.41,2.65,4.31,2.82,2.37,7.81c-6.98,4.2-14.21,7.97-21.36,11.86c-6.99,3.8-14,7.54-20.9,11.5
		c-1.81,1.04-3.64,2.23-5.92,1.84c-0.87-0.22-1.66-0.63-2.52-0.9c-3.15-0.98-3.93-2.18-3.45-5.55c0.22-1.55,0.56-2.99-1.24-3.81
		c-1.85-1.27-2.48-3.39-3.58-5.18c-4.96-8.09-9.67-16.32-14.47-24.51c-0.66-1.12-1.4-2.24-1.33-3.64c1.41-1.39,2.82-2.78,4.23-4.17
		c5.18,8.49,13.4,11.09,22.64,12.21c8.23,1,16.19,0.05,24.1-1.99c7.6-1.96,10.56-7.5,11.5-14.84
		C1616.48,3159.33,1616.18,3153.82,1618.17,3148.66z"/>
	<path class="st60" d="M1716.87,3286.95c8.34-0.6,16.5,0.87,24.69,2.05c7.06,1.02,13.86,3.1,20.79,4.66c4.03,1.92,4.63,2.8,3.54,8.5
		c-1.43,7.51-3.95,14.69-7.34,21.59c-1.56,3.17-3.91,3.72-6.9,3.14c-1.29-0.25-2.55-0.54-3.86-0.47c-1.43,0.54-2.77-0.03-4.13-0.34
		c-11.17-2.53-22.06-6-32.98-9.43c-3.32-0.9-3.54-3.83-3.44-6.3c0.28-6.83,1.2-13.59,4.28-19.84c0.58-1.18,1.34-2.25,2.37-3.07
		C1714.79,3286.75,1715.72,3286.1,1716.87,3286.95z"/>
	<path class="st61" d="M1681.33,3620.12c16.01-0.31,30.79-4.25,43.45-14.6c3.92-3.21,6.96-7.22,10.23-11.03
		c2.68-1.51,5.68-0.66,8.51-1.12c4.05-0.65,8.08-1.25,11.98-2.55c1.03-0.34,2.11-0.73,3.14,0.05c1.96,3.87,1.49,7.89,0.8,11.95
		c-0.21,1.24-0.95,2.44-0.47,3.78c-0.04,2.29-1.22,3.53-3.3,4.5c-5.33,2.48-10.02,5.93-14.2,10.1c-5.16,5.14-11.12,9.3-17.1,13.4
		c-4.86,3.33-10.54,4.12-16.2,3.76c-7.21-0.46-14.48-0.54-21.57-2.3c-3.13-0.78-6.18-1.79-9.17-2.99c-1.2-0.48-2.53-1.1-1.77-2.88
		C1676.56,3626.28,1678.31,3622.84,1681.33,3620.12z"/>
	<path class="st55" d="M1629.09,3120.17c0-1.52-0.2-3.06,0.03-4.54c0.96-6.26-2.78-9.81-7.34-12.74
		c-6.53-4.19-13.36-7.81-20.98-9.65c-4.97-1.19-9.37-0.3-12.95,3.59c-0.89,0.97-1.92,1.8-2.77,2.8c-1.71,2.01-3.57,3.39-6.47,3
		c-1.73-0.23-3.25,0.85-4.75,1.66c3.24-7.81,6.7-15.49,11.13-22.74c5.44-8.91,9.24-10.86,19.62-9.22
		c8.94,1.42,17.78,3.26,26.27,6.52c3.01,1.15,5.91,2.47,8.49,4.5c2.42,1.9,3.05,4.31,2.28,6.97c-0.54,1.84,0.09,2.85,1.26,3.94
		c0.81,0.76,1.61,1.54,2.27,2.43c2.52,3.4,2.14,5.27-1.63,7.1c-2.26,1.1-2.79,2.03-0.99,4.25c3.07,3.78,2.24,6.82-2.2,8.89
		C1636.77,3118.56,1632.92,3119.36,1629.09,3120.17z"/>
	<path class="st52" d="M1558.8,3510.25c-4.34,0.54-8.68,1.22-13.04,1.56c-1.51,0.12-3.57,1.56-4.61-0.99
		c3.35-18.28,6.71-36.57,10.05-54.85c0.16-0.89,0.26-1.79,0.39-2.68c0.32-2.59,2.13-3.12,4.3-3.02c8.89,0.38,17.33,2.87,25.96,5.11
		c-0.64,1.64-1.96,2.1-2.9,2.94c-2.94,2.62-5.73,5.36-8.12,8.51c-4.33,5.7-5.83,11.81-2.99,18.68c1.77,4.27,3.56,8.55,5.11,12.9
		c1.29,3.64,0.68,6.97-2.63,9.42C1566.66,3509.5,1562.9,3510.71,1558.8,3510.25z"/>
	<path class="st52" d="M1582.31,3394.82c-6.08-0.45-12.05-2-18.19-1.77c-0.77,0.03-1.01-0.5-1.14-1.12
		c2-10.78,3.99-21.56,5.99-32.34c1.37,1.69,3.09,1.82,5.14,1.47c4.2-0.72,4.37-0.57,6.5,3.17c0.58,1.03,1.44,1.32,2.5,1.36
		c5.37,0.19,10.65-0.57,15.91-1.49c2.5-0.44,2.64-2.09,2.01-4.1c-0.02-0.2-0.05-0.51,0.07-0.56c2.32-1.01,4-2.76,5.56-4.68
		c4.38,0.9,8.59-0.47,12.77-1.23c7.7-1.4,15.32-3.26,22.51-6.56c0.81-0.37,1.68-0.7,2.61-0.64c1.2,0.94,0.5,2.04,0.15,3.02
		c-1.1,3.09-3.22,5.28-6.1,6.83c-5.83,3.14-12.19,4.78-18.43,6.78c-5.77,1.85-11.46,3.89-16.87,6.64
		c-9.24,4.69-14.86,12.47-18.74,21.77C1584.03,3392.66,1583.79,3394.16,1582.31,3394.82z"/>
	<path class="st62" d="M1624.18,3180.14c-1.41-9.88-2.81-19.76-4.21-29.64c-0.12-0.88,0.08-1.83-0.6-2.57
		c1.23-3.05,3.22-5.64,4.91-8.42c0.77-0.02,1.55-0.04,2.32-0.06c2.63-0.23,5.26-0.38,7.89,0.09c0,0,0.13,0.03,0.13,0.03
		c2.22,7.55,3.03,15.36,4.16,23.1c0.53,3.68,0.92,7.37,1.41,11.06c0.15,1.1,0.56,2.12,1.5,2.82c-0.32,0.71-0.65,1.41-1.4,1.79
		c-5.14,1.6-10.27,3.27-15.66,3.93C1623.62,3181.73,1623.77,3180.96,1624.18,3180.14z"/>
	<path class="st62" d="M1553.33,3173.46c5.8,9.83,11.59,19.65,17.39,29.48c0.66,1.12,1.33,2.23,2,3.35
		c0.54,0.53,1.03,1.09,0.73,1.94c-3.62,2.98-7.47,5.66-11.19,8.5c-0.64,0.49-1.35,0.86-2.19,0.87c-0.64-0.09-1.14-0.37-1.32-1.04
		c-3.63-6.35-7.35-12.65-10.86-19.08c-2.2-4.04-4.98-7.81-6.16-12.36C1544.98,3180.62,1548.89,3176.77,1553.33,3173.46z"/>
	<path class="st52" d="M1758.64,3590.87c-6.72,2.14-13.53,3.72-20.63,3.74c-1,0-2.01-0.08-3.01-0.12
		c3.12-5.87,6.09-11.78,7.06-18.48c0.38-2.62,0.36-5.22,0.27-7.83c-0.03-0.95-0.14-1.89,1.21-1.95c7.01-0.31,12.87-3.55,18.5-7.35
		c0.07-0.05,0.2-0.02,0.3-0.03c-0.11,7.84-0.34,15.68-0.28,23.51C1762.09,3585.78,1762.05,3588.94,1758.64,3590.87z"/>
	<path class="st63" d="M1509.72,3590.26c0.66,0.18,1.41,0.22,1.98,0.56c9.38,5.51,19.27,9.89,29.53,13.45
		c-2.34,1.9-5.18,2.64-8.03,3.21c-12.68,2.51-24.96,1.4-36.68-4.32c-1.34-0.65-2.75-1.34-3.06-3.08c0.97-4.2,3.74-6.46,7.82-7.44
		C1504.13,3591.96,1506.92,3591.06,1509.72,3590.26z"/>
	<path class="st64" d="M1675.65,3630.19c0.09,1.15,0.75,1.66,1.82,2.09c7.11,2.93,14.56,4.51,22.18,4.64
		c4.67,0.09,9.27,0.97,14.08,0.37c5.71-0.72,10.16-3.23,14.58-6.44c5.62-4.08,10.93-8.5,15.93-13.3c2.99-2.87,6.51-5.01,10.2-6.78
		c2.03-0.98,3.78-1.96,4.53-4.19c1,3.4,0.54,6.74-0.42,10.04c-0.34,1.17-1.35,1.73-2.35,2.23c-2.16,1.08-4.41,2.01-6.5,3.21
		c-2.31,1.33-3.83,1.43-3.83-2.03c-3.86,2.05-6.85,4.68-9.49,7.78c-6.8,7.99-14.91,13.07-25.84,13.8
		c-11.34,0.76-22.09-0.86-32.55-5.05c-0.93-0.37-1.87-0.79-2.68-1.36C1672.56,3633.25,1672.66,3632.1,1675.65,3630.19z"/>
	<path class="st65" d="M1710.97,3316.07c9.73,2.52,19.17,6.05,28.98,8.28c2.64,0.6,5.23,1.38,7.85,2.08
		c-1.23,1.82-2.46,3.63-3.69,5.45c-6.82-1.62-13.19-4.61-19.87-6.62c-5.06-1.52-9.87-3.78-15.06-4.86
		C1708.59,3318.47,1709.67,3317.22,1710.97,3316.07z"/>
	<path class="st66" d="M1601.15,3359.76c2,0.46,1.16,2.05,1.2,3.22c0.04,1.07-0.75,1.49-1.76,1.7c-6.2,1.28-12.45,1.93-18.79,1.83
		c-1.91-0.03-2.23-1.43-2.27-2.59c-0.07-2.2-1.25-2.48-2.94-2.29c-1.49,0.17-2.97,0.38-4.45,0.6c-2.05,0.3-3.34-0.28-3.18-2.64
		c0.06-0.72,0.12-1.44,0.18-2.16c4.21-0.08,8.43,0.21,12.61-0.53c4.75,3.93,10.33,2.53,15.7,2.42
		C1598.72,3359.29,1600.02,3358.71,1601.15,3359.76z"/>
	<path class="st67" d="M1493.48,3600.08c5,3.87,10.73,5.85,16.94,6.65c3.75,0.48,7.47,1.29,11.29,1.19
		c6.01-0.15,11.94-0.69,17.46-3.41c0.59-0.29,1.37-0.17,2.07-0.24c1.42,0.45,3.23-0.05,4.1,1.72c-13.07,5.83-26.5,7.19-40.34,3.14
		c-3.89-1.14-7.52-2.84-10.97-4.96C1492.05,3602.96,1491.47,3601.74,1493.48,3600.08z"/>
	<path class="st68" d="M1535.25,3542.5c2.42-0.45,4.7,0.87,7.11,0.58c2.91-0.62,5.77,0.07,8.63,0.4c0.97,0.11,2.42,0.2,1.75,1.96
		c-5.03,4.59-10.66,8.24-17.05,10.64c-0.9,0.34-1.89,1.43-2.99,0.28C1533.55,3551.74,1534.4,3547.12,1535.25,3542.5z"/>
	<path class="st58" d="M1634.48,3139.53c-2.63-0.03-5.26-0.06-7.89-0.09C1629.23,3138.78,1631.86,3138.64,1634.48,3139.53z"/>
	<path class="st59" d="M1624.05,3561.43c4.29-0.87,8.53-1.82,12.81-2.55c1.73-0.3,2.97,1.18,4.26,2.05
		c5.07,3.39,9.46,7.36,11.79,13.29c3.06,7.79,0.81,14.65-3.61,20.97c-7.22,10.34-19.22,11.91-29.28,7.92
		c-7.79-3.09-12.12-9.48-11.47-16.99c0.72-8.32,6.82-14.64,14.66-15.73c3.86-0.54,8.38,1.89,10.02,5.33
		c1.19,2.49,0.58,4.71-0.95,6.78c-1.59,2.15-3.36,2.65-7.05,2.03c0.63-0.94,1.18-1.88,1.85-2.73c0.7-0.89,1.05-1.72,0.17-2.68
		c-0.91-1.01-1.82-1.84-3.39-1.33c-3.58,1.15-5.85,5.97-5.06,10.89c0.47,2.92,3.64,5.19,7.12,5.32c5.43,0.19,10.16-1.28,12.6-6.44
		c2.95-6.24,1.54-13.61-2.56-17.99c-2.9-3.09-6.17-5.44-10.21-6.74C1625.14,3562.63,1624.35,3562.48,1624.05,3561.43z"/>
	<path class="st59" d="M1611.93,3432.02c3.81-0.81,7.61-1.69,11.43-2.42c1.62-0.31,3.09,0.15,4.53,1.14
		c6.61,4.53,12.31,9.67,14.15,18c1.03,4.68-0.44,8.86-2.41,12.78c-4.94,9.86-13.05,14.91-24.16,14.07
		c-7.11-0.54-13.18-3.52-17.09-9.88c-4.11-6.68-1.65-16.39,5.01-21.56c4.52-3.51,9.05-3.89,14.07-1.61
		c3.09,1.41,4.13,4.21,4.06,7.16c-0.07,3.06-2.71,4.56-5.18,5.77c-0.79,0.39-2.09,0.62-2.76-0.39c-0.58-0.86,0.38-1.41,0.81-2.06
		c0.76-1.12,2.17-2.36,0.64-3.65c-1.55-1.3-3.46-1.66-5.25-0.18c-2.74,2.27-4.09,8.14-2.74,11.44c1.23,3.01,4.9,4.29,8.14,4.02
		c5.14-0.44,9.74-2.31,11.63-7.62c2.17-6.1,1.55-11.84-3.11-16.82c-3.29-3.52-7.2-6.02-11.85-7.41
		C1611.88,3432.55,1611.9,3432.28,1611.93,3432.02z"/>
	<path class="st59" d="M1727.64,3461.93c4.13-0.79,8.26-1.55,12.37-2.39c0.75-0.15,1.31-0.08,1.99,0.28
		c7.62,4.14,13.49,9.85,15.81,18.45c1.14,4.23,0.03,8.41-1.76,12.32c-3.17,6.91-8.2,11.83-15.54,14.23
		c-11.08,3.62-26.02-1.93-28.26-15.02c-0.75-4.36,0.89-8.26,3.28-11.64c3.4-4.79,8.05-7.5,14.27-6.76c3.33,0.39,5.61,2.14,7.03,5
		c1.04,2.09,1.13,4.29-0.53,6.25c-1.81,2.14-3.91,3.42-7.05,2.4c0.56-0.93,1.04-1.76,1.56-2.57c0.85-1.32,0.67-2.41-0.53-3.45
		c-1.24-1.08-2.48-1.27-3.85-0.38c-3.44,2.24-5.14,8.4-3.47,12.22c0.7,1.6,1.76,2.56,3.45,3.08c9.26,2.8,17.29-3.22,17.33-12.26
		c0.04-8.41-5.58-14.29-12.84-17.58c-1.15-0.52-2.3-1.04-3.45-1.56C1727.53,3462.33,1727.58,3462.13,1727.64,3461.93z"/>
	<path class="st59" d="M1595.67,3527.56c-0.1-0.74,0.54-1.03,0.92-1.46c1.31-1.49,1.62-3.16,0.2-4.58
		c-1.41-1.41-3.11-1.12-4.68,0.04c-2.63,1.93-4.05,7.63-2.83,11.43c0.87,2.73,3.17,3.7,7.37,4.01c9.22,0.68,14.82-7.35,13.26-16.03
		c-1.17-6.5-4.97-10.29-10.21-13.24c-1.9-1.07-3.97-1.84-6.7-3.08c4.23-0.84,7.87-1.4,11.42-2.32c3.39-0.88,5.79,0.77,8.19,2.62
		c4.98,3.86,9.72,8.04,11.11,14.55c1.87,8.8-0.88,16.1-7.46,22.24c-4.43,4.14-9.65,5.9-15.43,6.69
		c-11.42,1.55-22.64-8.31-21.97-19.71c0.52-8.78,9.63-18.01,20.05-14.11c3.52,1.32,5.63,5.37,4.67,8.82
		C1602.72,3526.48,1599.54,3528.14,1595.67,3527.56z"/>
	<path class="st59" d="M1657.22,3480.4c4.39-0.85,8.08-1.34,11.63-2.31c4.44-1.22,7.05,1.86,9.77,4.08c3.47,2.83,6.7,5.96,8.4,10.48
		c3.14,8.33,1.18,15.45-4.01,22.23c-4.12,5.37-9.57,8.28-16.06,9.09c-9.14,1.13-20.98-3.34-23.61-14.25
		c-2.34-9.73,5.89-21.89,17.68-20.08c3.5,0.54,6.55,3.52,6.83,7.02c0.3,3.82-1.39,6.06-5.38,7.23c-0.9,0.26-1.9,0.64-2.51-0.21
		c-0.67-0.94,0.48-1.38,0.96-1.91c1.32-1.45,1.9-2.93,0.23-4.45c-1.66-1.51-3.61-1.09-4.91,0.23c-2.21,2.26-3.52,5.17-3.48,8.41
		c0.05,3.81,2.71,6.44,6.43,6.74c6.08,0.48,11.31-0.88,14.07-6.97c2.57-5.68,1.37-11.03-2-15.98
		C1668.02,3484.99,1662.98,3482.72,1657.22,3480.4z"/>
	<path class="st59" d="M1698.56,3546.66c4.2-0.81,8.4-1.61,12.6-2.43c1.59-0.31,2.67,0.76,3.84,1.48
		c5.78,3.57,10.48,8.18,12.96,14.64c2.87,7.47,0.31,14.13-3.99,20.08c-5.1,7.06-12.27,10.44-21.07,9.91
		c-9.69-0.59-18.54-5.73-19.61-16.8c-0.64-6.64,2.61-12,8.29-15.64c4.27-2.73,8.67-2.98,13.12-0.36c2.47,1.45,4.23,5.07,3.63,7.43
		c-0.69,2.7-3.72,5.3-6.28,5.33c-0.57,0.01-1.36-0.03-1.67-0.38c-0.49-0.57,0.22-1.04,0.57-1.51c1.13-1.49,2.42-3.12,0.45-4.72
		c-1.74-1.41-3.64-0.73-5.27,0.52c-2.25,1.73-3.64,7.54-2.63,10.67c0.89,2.74,4,4.58,7.81,4.53c6.96-0.09,13.14-4.55,13.41-13.14
		c0.28-9.03-6.72-14.95-13.32-17.81c-0.9-0.39-1.84-0.69-2.77-1.03C1698.6,3547.17,1698.58,3546.92,1698.56,3546.66z"/>
	<path class="st59" d="M1701.1,3406.39c-0.05,2.14,1.8,2.78,3.11,3.73c7.77,5.67,11.65,14.78,8.99,23.23
		c-3.13,9.92-11.54,18.31-23.32,18.14c-5.56-0.08-10.35-1.56-14.94-4.63c-6.97-4.66-9.29-17.13-2.04-24.49
		c5.55-5.63,11.28-7,16.72-3.75c3.14,1.88,4.69,5.51,3.61,8.48c-1.02,2.8-4.35,4.49-7.93,4.03c-0.36-1.2,1-1.3,1.34-2.09
		c0.68-1.59,1.21-3.18-0.45-4.36c-1.44-1.03-3.03-0.9-4.41,0.37c-2.69,2.46-4.87,7.25-2.32,12.42c1.18,2.39,5.91,3.67,9.85,2.86
		c11.86-2.42,12.97-15.49,7.64-22.62c-3.68-4.92-8.43-8.19-14.47-9.49c-0.23-0.05-0.39-0.42-0.59-0.64c1.2-0.96,2.64-0.75,4.02-0.78
		C1690.96,3406.69,1696.05,3407.07,1701.1,3406.39z"/>
	<path class="st69" d="M1552.74,3545.44c-0.15-1.55-1.4-1.08-2.27-1.18c-2.72-0.3-5.46-0.38-8.11-1.19c1.49-1.24,1.59-3.2,2.4-4.79
		c4.75-9.31,9.37-18.68,14.04-28.04c3.84-0.81,7.68-1.62,11.51-2.43c-6.34,7.22-10.85,15.39-13,24.81c-0.16,0.68-0.4,1.41-0.3,2.07
		C1557.67,3539.14,1555.82,3542.53,1552.74,3545.44z"/>
	<path class="st70" d="M1580.05,3216.7c5.01-1.13,8.99-4.38,13.41-6.7c11.49-6.02,22.87-12.26,34.29-18.42
		c1.28,1.38,2.29,3.01,4.12,3.86c1.06,0.49,1.47,1.6,1.85,2.67c0.41,1.14,0.69,2.33,1.34,3.37c1.33,2.14,3.13,2.94,4.72,2.1
		c2.38-1.26,3.35-3.37,2.43-5.67c-0.83-2.06-1.22-3.93,0.06-6.03c1.13-1.85,0.68-3.63-1.07-5.09c-0.75-0.63-2.16-0.92-1.74-2.43
		c1.48,0.34,2.54-0.58,3.55-1.34c2.23-1.67,3.81-0.72,5.02,1.2c3.23,5.12,6.26,10.37,9.57,15.43c5.83,8.94,10.93,18.43,18.47,26.11
		c5.62,5.72,12.66,9.24,20.29,11.56c1.44-0.37,2.5,0.5,3.62,1.13c0.25,0.22,0.49,0.44,0.74,0.65c2.11,4,2.19,8.53,3.26,12.8
		c1.1,4.38,1.97,8.83,2.92,13.24c-3.1,6.26-7.1,11.88-12.1,16.78c-1.2,1.07-2.24,2.47-4.19,1.91c-0.2-0.27-0.34-0.57-0.42-0.89
		c-0.49-5.2,0.28-10.43-0.45-15.62c-0.6-3.06-0.9-6.2-2.1-9.12c-1.72-4.21-5.67-4.94-8.83-1.65c-1.35,1.4-2.21,3.12-2.87,4.93
		c-1.65,4.5-2.31,9.17-2.43,13.94c-0.09,3.43-0.72,3.95-4.06,3.09c-9.46-2.45-18.87-5.08-28.45-7.03c-1.47-0.3-2.95-0.72-4.47-0.26
		c-1.02,0.33-1.73,1.19-2.69,1.62c-7.11-0.37-10.38,4.06-12.48,9.97c-0.07,0.19-0.19,0.35-0.3,0.52c-0.34,0.5-0.8,0.89-1.28,1.25
		c-2.97,2.65-3.39,4.45-1.63,7.93c3.1,6.16,8.34,10.49,13.13,15.2c0.89,0.87,2.32,1.52,1.36,3.19c-0.29,0.29-0.59,0.62-0.98,0.69
		c-7,1.14-14,2.41-21.14,1.27c-1.53-1.4-0.98-3.15-0.76-4.82c0.75-5.73-0.42-7.15-6.09-8.07c-4.95-0.81-9.83-0.67-14.73,0.24
		c-2.79,0.52-5.27,1.42-6.45,4.33c-0.23,0.57-0.67,1.01-1.33,1.12c-1.78-0.14-3.58-0.54-5.33-0.36c-2.71,0.28-3.43-1.09-3.65-3.4
		c-0.31-3.16-0.8-6.3-1.21-9.45c0.53-0.97-0.08-2.37,1.16-3.06c3.46-8.4,5.36-16.68,2.74-26.04c-2.88-10.3-7.41-19.75-11.92-29.29
		c-2.62-5.55-2.48-6.17,3.1-8.97c1.69,1.07,3.33,2.13,5.4,2.52c1.97,0.37,3.05,2.22,4.44,3.52c2.61,2.44,4.56,2.79,6.3,1.08
		c1.75-1.72,1.75-4.61-0.3-6.79c-1.53-1.62-2.28-3.28-1.63-5.46C1580.61,3218.86,1579.79,3217.82,1580.05,3216.7z"/>
	<path class="st52" d="M1694.52,3281.55c0.39-1.94,2.26-2.75,3.4-4.01c2.97-3.25,4.99-7.05,7.26-10.71
		c0.34-0.54,0.65-1.01,1.34-1.05c0.41,0.02,0.83,0.14,1.07,0.47c3.51,4.96,7.38,9.69,9.33,15.59c0.47,1.71,1.07,3.43-0.05,5.13
		c-2.32-0.05-3.42,1.62-4.25,3.33c-3.39,6.93-4.65,14.29-4.37,21.98c0.07,2.03,0.96,3.15,2.72,3.81c-0.6,1.44-1.2,2.89-1.8,4.33
		c-1.91,3.96-3.1,8.25-5.48,12c-1.65-7.05-3.3-14.1-4.94-21.15c-0.81-1.14,0.17-1.86,0.66-2.67c1.15-1.89,2.42-3.73,3.33-5.75
		c0.43-0.96,1.04-1.97,0.33-3.19c-2.57,1.09-2.98,4.7-6.04,5.1c-0.24-0.17-0.41-0.39-0.53-0.65c-0.42-2.33,1.25-3.68,2.46-5.24
		c2.07-2.66,4.59-5.01,5.98-8.59c-1.86,0-2.49,1.28-3.45,2.01c-2.29,1.73-3.48,4.67-6.33,5.79c-0.22-0.18-0.39-0.41-0.5-0.68
		c-0.4-1.62,0.64-2.62,1.55-3.7c2.28-2.72,4.41-5.55,5.75-8.93c-3.02,0.86-4.56,3.42-6.66,5.28c-0.85,0.75-1.54,2.15-2.89,0.64
		c-0.21-0.38-0.3-0.8-0.3-1.23c0.15-1.78,1.4-3.01,2.27-4.42C1695.07,3283.85,1695.72,3282.76,1694.52,3281.55z"/>
	<path class="st71" d="M1639.45,3184.35c0.67,0.58,1.28,1.25,2.02,1.73c2.4,1.53,2.92,3.8,1.56,5.97c-1.27,2.04-0.98,3.65-0.13,5.57
		c1.22,2.78-0.06,5.49-3.15,6.96c-1.77,0.85-4.6-0.33-5.55-2.84c-1.14-3.03-1.99-6.04-5.31-7.5c-0.99-0.43-1.07-1.63-1.16-2.65
		c1.84-3.72,0.47-5.97-3.13-7.54c-1.92-0.84-2.45-2.37-0.43-3.91c0.09,0.66-0.05,1.37,0.49,1.91c5.05,1.48,6.8,3.87,5.81,7.95
		c-0.72,1.5-0.5,2.71,1.08,3.51c0.54,0.27,1.17,0.53,1.44,1.05c1.46,2.72,3.26,1.48,4.94,0.4c1.67-1.06,2.33-2.95,3.26-4.57
		c0.52-0.9-0.24-1.71-0.95-2.31c-1.07-0.91-2.18-1.78-2.61-3.22c-0.43-2.9,0.56-5.22,2.86-7.01c0.06-0.72,0.32-1.26,1.14-1.31
		c1.18,1.46-0.01,2.6-0.56,3.79C1640.5,3181.66,1639.21,3182.68,1639.45,3184.35z"/>
	<path class="st72" d="M1699.98,3238.46c-1.32-0.03-2.55-0.34-3.63-1.13c-4.33-5.54-8.84-10.95-11.72-17.46
		c-3.64-8.24-5.94-16.82-6.44-25.83c-0.05-0.86-0.66-2.44,0.73-2.5c1.27-0.05,1,1.49,1.02,2.44c0.41,14.17,5.43,26.64,13.8,37.9
		c0.42,0.57,0.73,1.22,1.47,1.57c-3.52-9.88-4.35-19.72-1.8-29.87C1692.26,3215.88,1693.56,3227.67,1699.98,3238.46z"/>
	<path class="st60" d="M1581.16,3305.68c1.71-6.71,7.46-6.36,12.49-6.96c4.39-0.52,8.81-0.08,13.1,1.04
		c3.45,0.9,4.35,2.21,4.14,5.82c-0.13,2.3-0.37,4.59-0.55,6.88c0.45,0.59,0.56,1.28,0.5,2c-1.05,12.43-1.89,24.87-3.29,37.27
		c-0.09,1.1,0.05,2.27-0.99,3.05c-0.02,3.6-2.74,4.25-5.4,4.97c-4.15,0.64-8.33,0.84-12.53,0.84c-3.05,0-5.48-0.78-6.86-3.7
		c-3.01-12.47-2.33-25.17-2.36-37.83C1579.38,3314.52,1580.88,3310.19,1581.16,3305.68z"/>
	<path class="st73" d="M1580.05,3216.7c1.27,0.87,1.57,2.24,1.04,3.46c-0.91,2.1-0.1,3.44,1.4,4.72c1.61,1.38,2,3.22,1.72,5.21
		c-0.26,1.83-1.29,3.13-3.03,3.82c-1.82,0.73-3.37,0.12-4.69-1.13c-2.44-2.31-4.46-5.2-8.36-5.3c-1.3-0.03-1.53-1.44-2.07-2.38
		c0.08-4.38,0.07-4.34-4.24-5.35c-1.62-0.38-4.18-0.08-3.06-3.2c0.42,0.23,0.83,0.45,1.25,0.68c3.31,0.58,6.95,0.48,8.59,4.41
		c0.4,0.97,1.2,0.4,1.81,0.12c2.19-1,4.26-2.22,6.58-3.76c-1.8-1.21-4.32-1.55-4.32-4.16c0-1.97-0.63-4.03,0.68-5.85
		c-0.21-0.57-0.41-1.14-0.62-1.71c1.94-0.11,2.41,1.08,2.33,2.69c-0.25,4.97-0.26,4.96,4.07,6.98
		C1579.47,3216.12,1579.74,3216.45,1580.05,3216.7z"/>
	<path class="st72" d="M1572.13,3289.41c-0.39,1.02-0.77,2.04-1.16,3.06c-1.88-10.6-4.66-21.05-5.73-31.81
		c2.17,2.62,1.91,5.91,2.6,8.9C1569.36,3276.17,1570.27,3282.89,1572.13,3289.41z"/>
	<path class="st74" d="M1585.62,3144.79c1.02-0.37,1.37,0.23,1.75,0.65c4.91,5.39,11.04,7.07,18.07,5.97
		c0.68-0.11,1.5-0.51,1.64,0.58c0.1,0.82-0.65,0.87-1.25,0.92c-6.48,0.5-12.72,0.04-17.87-4.6
		C1586.92,3147.38,1585.78,3146.49,1585.62,3144.79z"/>
	<path class="st75" d="M1593.46,3121.8c1.17,0.14,2.24,0.47,2.05,1.73c-0.19,1.24-1.28,1.65-2.49,1.6c-1.03-0.04-1.84-0.6-1.79-1.59
		C1591.29,3122.22,1592.39,3121.86,1593.46,3121.8z"/>
	<path class="st76" d="M1613.08,3133.19c-1.06-0.17-2.03-0.44-1.91-1.61c0.13-1.3,1.13-1.81,2.36-1.82
		c1.02-0.01,1.83,0.38,1.75,1.55C1615.19,3132.7,1614.1,3133,1613.08,3133.19z"/>
	<path class="st66" d="M1606.56,3354.79c0.07-0.93,0.15-1.86,0.22-2.79c0.55-0.69,1.34-0.81,2.15-0.91
		c11.01-1.42,21.54-4.65,31.92-8.44c0.19-0.07,0.37-0.15,0.56-0.22c3.49-1.22,4.25-0.62,4.01,3.18c-0.14,0.31-0.3,0.61-0.49,0.89
		l-0.14-0.07c-6.05,3.2-12.55,5.07-19.16,6.71c-5.35,1.32-10.83,1.85-16.22,2.93C1608.3,3356.3,1606.89,3356.58,1606.56,3354.79z"/>
	<path class="st54" d="M1640.52,3177.85c-0.79,2.41-2.99,4.39-2.25,7.28c0.11,0.28,0.29,0.69,0.1,0.84
		c-2.56,2.03-5.02,4.31-8.67,3.94c1.42-2.44,0.31-4.09-1.67-5.51c-1.11-0.8-2.55-1.12-3.37-2.34
		C1629.86,3180.28,1635.14,3178.89,1640.52,3177.85z"/>
	<path class="st77" d="M1573.34,3208c0.01,2.21-0.29,4.47,0.11,6.61c0.49,2.58,3.65,1.55,5.47,3.34c-3.64,2.01-7.08,3.92-10.89,6.02
		c0.17-4.29-2.43-5.29-5.69-5.59c-0.88-0.08-1.82-0.23-2.34-1.13c3.5-2.53,6.98-5.08,10.5-7.58
		C1571.39,3209.03,1572.39,3208.55,1573.34,3208z"/>
	<path class="st78" d="M1644.93,3345.82c-0.14-3.83-0.1-3.73-3.73-2.42c-11.17,4.06-22.45,7.76-34.43,8.59
		c1.19-13.18,2.37-26.36,3.56-39.53c6.71,0.27,13.34-0.74,20.01-1.24c0.92-0.07,1.75-0.39,2.37-1.13c3.94-1.52,8.14-2.19,12.1-3.71
		c9.81-3.77,18.57-9.19,26.37-16.21c2.56-2.3,4.36-5.31,6.98-7.53c1-0.85,1.87-2.55,3.51-1.42c1.63,1.12,1.29,2.85,0.6,4.39
		c-1.55,3.41-3.77,6.43-5.81,9.55c-0.66,1.01-1.4,1.97-1.66,3.33c2.46-1.37,4.4-3.38,6.14-5.55c2.21-2.77,4.83-5.14,7.32-7.64
		c0.71-0.71,1.47-1.41,2.61-1.32c1.22-0.81,2.45-1.62,3.67-2.43c2.41-0.02,2.02,1.23,1.23,2.69c-0.99,1.81-2.62,3.24-3.16,5.32
		c-2.37,3.89-5.63,7.06-8.86,11.17c3.5-3.59,5.99-7.15,9.11-10.14c1.75,0.24,2.04-1.51,3.02-2.29c1.72-1.37,2.99-3.26,4.94-4.39
		c0.71-0.41,1.48-0.82,2.2-0.08c0.66,0.68,0.06,1.35-0.25,1.91c-1.74,3.06-3.79,5.91-6.13,8.54c-0.81,0.91-1.65,1.77-1.61,3.11
		c-1.82,1.69-2.98,3.97-4.81,5.47c1.97-1.23,2.65-3.94,5.01-4.96c2.48-2.6,4.91-5.25,7.47-7.78c0.71-0.7,1.72-1.78,2.84-0.78
		c1.02,0.92-0.06,1.86-0.49,2.67c-1.47,2.75-3.61,5.02-5.58,7.41c-1.12,1.37-2.61,2.54-2.56,4.57c-0.69,0.55-1.18,1.28-1.63,2.02
		c-0.28,0.29,0.28,0.52-0.04,0.28c0.55-0.65,0.98-1.42,1.83-1.75c2.24-1.31,3.16-3.87,5.12-5.45c0.45-0.37,0.83-1.04,1.48-0.83
		c0.91,0.29,0.61,1.18,0.57,1.82c-0.24,3.61-2.6,6.22-4.41,9.08c-0.43,0.68-1.05,1.21-1.07,2.09c-3.09,1.48-5,4.27-7.33,6.6
		c-7.42,6.74-16.25,11.22-25.13,15.57c-5.61,2.75-11.28,5.41-17.11,7.71c-1.71,0.67-3.06,1.49-3.14,3.58
		C1646.02,3345.26,1645.78,3345.92,1644.93,3345.82z"/>
	<path class="st79" d="M1644.93,3345.82c-0.12-4.03,2.88-5.07,5.85-6.29c11.09-4.57,21.89-9.71,32.1-16.07
		c2.9-1.8,5.35-4.27,8.54-5.62c-3.6,4.98-8.56,8.51-13.49,11.91c-10.22,7.04-21.24,12.65-32.99,16.75
		C1644.93,3346.27,1644.93,3346.05,1644.93,3345.82z"/>
	<path class="st50" d="M1690.85,3283.98c-4.92,4.21-8.97,9.28-13.58,13.79c-1.05,1.03-2.66,3.01-3.53,2.23
		c-1.49-1.32,0.56-2.81,1.33-4.08c1.77-2.93,3.73-5.76,5.54-8.67c0.58-0.93,0.93-2,1.37-3.02c0.46-1.07,0.19-2.15-0.65-2.72
		c-1.04-0.7-1.61,0.5-2.15,1.1c-4.92,5.49-9.97,10.82-16.12,15.01c-8.58,5.86-17.86,10.1-27.99,12.45
		c-0.78,0.18-1.57,0.42-2.36,0.03c-4.14-4.1-8.67-7.83-12.22-12.5c-1.09-1.43-2.14-2.93-2.96-4.53c-2.05-3.99-1.62-5.94,1.73-9.03
		c1.26,0.21,2.13,1.08,3.08,1.8c5.75,4.32,11.93,5.42,18.67,2.51c-6.42,2.79-12.41,1.85-18.01-2.11c-1.05-0.74-2.19-1.48-2.44-2.92
		c0.43-2.09,1.51-3.88,2.52-5.71c2.36-4.3,5.89-6.04,10.72-5.07c1.36,0.11,1.79-0.75,1.97-1.88c1.33-0.78,2.68-0.52,4.09-0.24
		c10.06,2.02,19.97,4.65,29.85,7.39c2.33,0.65,3.12,0.36,3.05-2.28c-0.14-4.96,0.62-9.85,2.41-14.52c1.14-2.98,2.7-5.66,5.82-7
		c2.85-1.22,5.15-0.47,6.66,2.22c1.87,3.33,2.31,7.05,2.73,10.75c0.46,4.58,0.07,9.18,0.22,13.76
		C1690.61,3281.82,1690.3,3282.94,1690.85,3283.98L1690.85,3283.98z"/>
	<path class="st80" d="M1620.55,3283.31c6.09,5.72,12.95,7.56,20.84,4.13c0.62-0.27,1.42-0.96,1.84-0.09
		c0.57,1.16-0.74,1.19-1.34,1.48c-7.53,3.68-15.95,1.88-22.64-4.79C1619.68,3283.79,1620.11,3283.55,1620.55,3283.31z"/>
	<path class="st78" d="M1690.86,3283.98c-1.12-1.45-0.48-3.1-0.51-4.66c-0.06-4.11,0-8.23,0.01-12.34
		c1.09,3.31,0.38,6.72,0.52,10.09C1690.99,3279.37,1690.88,3281.68,1690.86,3283.98z"/>
	<path class="st81" d="M1635.75,3270.65c0.35,0.91,1.14,1.97,0.1,2.72c-0.67,0.48-1.44-0.34-2.06-0.84
		C1634.2,3271.65,1634.84,3271.01,1635.75,3270.65z"/>
	<path class="st82" d="M1692.84,3290.59c-2.29,4.66-6.23,7.88-10.01,11.25c2.74-4.51,5.84-8.72,9.77-12.28
		C1692.68,3289.9,1692.76,3290.24,1692.84,3290.59z"/>
	<path class="st83" d="M1695.2,3297.9c-1.74,2.65-3.85,4.95-6.45,6.81c1.9-2.6,2.92-5.93,6.24-7.32
		C1695.06,3297.56,1695.13,3297.73,1695.2,3297.9z"/>
	<path class="st84" d="M1697.04,3304.54c-0.37,1.59-1.53,2.51-3.19,3.6c0.52-2.1,0.66-3.91,3.03-4.16
		C1696.92,3304.18,1696.97,3304.36,1697.04,3304.54z"/>
	<path class="st70" d="M1629.71,3189.91c3.08-1.19,6.12-2.45,8.56-4.78c0.19,0.23,0.37,0.47,0.57,0.69c3.89,4.21,3.93,4.24,1,8.83
		c-0.84,1.31-2.72,1.19-3.84,2.17c-2.23,1.94-2.26-0.56-3.07-1.47c-0.48-0.53-0.99-0.95-1.7-1.19
		C1628.99,3193.4,1628.6,3191.91,1629.71,3189.91z"/>
	<path class="st70" d="M1642.08,3200.96c0.03-1.81-1.5-2.65-2.44-3.98C1642.3,3197.2,1642.49,3197.51,1642.08,3200.96z"/>
	<path class="st70" d="M1580.62,3225.91c1.84,0.46,3.15,1.34,2.84,4.01C1582.47,3228.26,1581.79,3226.9,1580.62,3225.91z"/>
	<path class="st85" d="M1681.51,3259.91c2.54,5.26,1.18,9.99-0.24,14.7c-0.46,1.53-1.06,3.02-1.67,4.49
		c-0.68,1.65-1.89,1.85-3.4,1.09c-1.66-0.83-0.89-1.97-0.4-3.06C1678.24,3271.73,1680.46,3266.25,1681.51,3259.91z"/>
	<path class="st86" d="M1655.58,3279.01c0.19,0.26,0.57,0.54,0.61,0.86c0.27,2.57,2.13,3.72,4.11,4.8c0.42,0.23,0.99,0.43,0.8,1.08
		c-0.19,0.63-0.73,0.67-1.21,0.44c-2.4-1.19-4.54-2.66-5.16-5.51C1654.57,3280.01,1654.4,3279.25,1655.58,3279.01z"/>
	<path class="st58" d="M1733.78,3390.28c-2.36,1.54-3.98,3.89-6.27,5.56c-6.94,5.06-14.58,6.76-22.99,5.44
		c-0.44-0.07-0.94,0.22-1.41,0.35c-1.47-0.59-1.89-1.97-2.37-3.27c-1.59-4.23-2.4-8.63-2.93-13.1c-0.79-5.19-1.17-10.44-1.81-15.64
		c-1.61-13.04,2.06-25,6.89-36.78c1.58-3.27,2.95-6.64,4.38-9.99c0.43-1.01,0.85-2.07,1.78-2.77c0.77-0.39,1.58-0.32,2.34-0.05
		c10.6,3.69,21.3,7.09,31.8,11.07c0.38,0.14,0.67,0.43,0.91,0.76c-1.02,2.35-3.41,3.94-3.68,6.7c-3.41,5.44-7.22,10.62-10.19,16.34
		c-2.81,5.41-4.09,11.09-3.2,17.19c0.12,0.81,0.22,1.6-0.36,2.3c0.44,4.88,2.05,9.39,4.49,13.61
		C1731.75,3389.04,1732.4,3390.11,1733.78,3390.28z"/>
</g>
<rect x="-29.55" y="-157.87" class="st1" width="2123.85" height="2855.85"/>
<path class="st87" d="M4696.04,1806.07c-533.06-47.56-1704.46-77-2125.53,185.77c-526.33,328.45-1338.05,463.07-1635.54,414.61
	c-297.49-48.46-1076.9-118.46-1300.36,0c-178.77,94.77,28.02,382.61,158.14,473.26c1500.93-87.5,3644.58-29.61,3734.15-29.61
	c954.4,0,1275.48-134.03,1249.9-350.76C4756.35,2325.95,4714.43,1964.92,4696.04,1806.07z"/>
<path class="st1" d="M1888.18,11513.88c-715.27-37.45-1604.67-83.91-2100.36,0c-93.23,736.43-252.72,2182-144.83,2072.86
	c134.87-136.41,1730.02-138.4,2585.62-81.21c684.47,45.73,1661.27-174.79,2064.08-290.76l399.48-2246.26
	C4321.14,11125.71,2601.59,11551.23,1888.18,11513.88z"/>
<path class="st1" d="M1912.86,10183.2c-715.27-28.98-1604.67-64.94-2100.36,0c-93.23,569.93-252.72,1688.67-144.83,1604.21
	c134.87-105.57,1730.02-107.11,2585.61-62.86c684.49,35.4,1661.27-135.26,2064.1-225.01l399.46-1738.41
	C4345.82,9882.79,2626.26,10212.1,1912.86,10183.2z"/>
</svg>
