<?xml version="1.0" encoding="utf-8"?>
<!-- Generator: Adobe Illustrator 24.3.0, SVG Export Plug-In . SVG Version: 6.00 Build 0)  -->
<svg version="1.1" id="Layer_1" xmlns="http://www.w3.org/2000/svg" xmlns:xlink="http://www.w3.org/1999/xlink" x="0px" y="0px"
	 viewBox="0 0 1920 1080" style="enable-background:new 0 0 1920 1080;" xml:space="preserve">
<style type="text/css">
	.st0{fill:#00C897;}
	.st1{fill:#019267;stroke:#019267;stroke-width:1.0889;}
	.st2{fill:#DFD3A3;}
	.st3{fill:#C9954F;}
	.st4{fill:#377C63;}
	.st5{fill:#463A3E;}
	.st6{fill:#899452;}
	.st7{fill:#F49075;}
	.st8{fill:#EFB53B;}
	.st9{fill:#C9944F;}
	.st10{fill:#377D63;}
	.st11{fill:#B4B080;}
	.st12{fill:#7C522B;}
	.st13{fill:#7A522A;}
	.st14{fill:#7A512A;}
	.st15{fill:#1D181A;}
	.st16{fill:#784D28;}
	.st17{fill:#F39075;}
	.st18{fill:#B3AF7F;}
	.st19{fill:#B5B082;}
	.st20{fill:#B4AF7F;}
	.st21{fill:#1B1516;}
	.st22{fill:#ED9274;}
	.st23{fill:#F49175;}
	.st24{fill:#0F4C13;}
	.st25{fill:#DFD2A3;}
	.st26{fill:#425049;}
	.st27{fill:#0F0C0D;}
	.st28{fill:#899451;}
	.st29{fill:#45393D;}
	.st30{fill:#104C14;}
	.st31{fill:#1B1618;}
	.st32{fill:#43393B;}
	.st33{fill:#FBFBFB;}
	.st34{fill:#E36746;}
	.st35{fill:#E16746;}
	.st36{fill:#524042;}
	.st37{fill:#473B3D;}
	.st38{fill:#554142;}
	.st39{fill:#473A3B;}
	.st40{fill:#784F27;}
	.st41{fill:#754A22;}
	.st42{fill:#8C643A;}
	.st43{fill:#57947D;}
	.st44{fill:#887668;}
	.st45{fill:#443A3D;}
	.st46{fill:#377860;}
	.st47{fill:#45403B;}
	.st48{fill:#43383C;}
</style>
<rect class="st0" width="1920" height="1080"/>
<path class="st1" d="M1970.79,711.11c-215.6-19.24-689.39-31.14-859.69,75.14c-212.89,132.85-541.2,187.29-661.52,167.69
	c-120.33-19.6-435.57-47.91-525.95,0c-72.3,38.33,11.33,154.76,63.96,191.42c607.07-35.39,1474.09-11.98,1510.32-11.98
	c386.02,0,515.89-54.21,505.54-141.87C1995.19,921.38,1978.24,775.35,1970.79,711.11z"/>
<g>
	<path class="st2" d="M506.13,771.25h39.74h13.51l-0.94-8.07c0,0-11.94-14.66-25.29-13.46s-19.64-19.13-19.64-19.13"/>
	<rect x="546.53" y="532.57" class="st3" width="27.86" height="14.44"/>
	<path class="st2" d="M712.74,733.05c-0.41,1.18-0.12,2.39,0.27,3.44c2.24,6.04,1.99,12.07,0.46,18.22
		c-3.27,13.18-2.01,26.48-0.81,39.77c0.58,6.49-0.29,12.9-2.12,19.07c-3.12,10.53-5.73,21.23-9.78,31.45
		c-3.52,8.89-9.6,15.11-19.58,16.7c-8.06,1.29-14.99,5.81-22.64,8.3c-3.18,1.74-6.65,1.92-10.1,1.57c-3.33-0.33-6.66-0.8-9.94-1.44
		c-0.97-0.52-2.32-0.58-2.49-2.1c-0.07-0.59,1.14-0.65,0.67-0.64c-3.4,0.06-2.62-2.45-2.81-4.27c-0.49-4.71-0.51-9.29,2.32-13.54
		c1.56-2.34,1.71-5.33,2.05-8.14c-0.57,6.2-3.65,11.45-6.33,16.84c-0.07,0.15-0.54,0.2-0.15,0.52c1.46,1.22,2.49,7.23,1.14,8.81
		c-1.97,2.31-1.54,4.79-1.3,7.35c0.37,4.55-2.43,7.69-4.98,10.86c-2.45,3.03-5.61,5.31-8.8,7.52c-1.44,0.99-2.87,1.99-4.36,2.89
		c-3.98,2.39-8.12,3.3-12.64,1.52c-2.7-1.06-5.48-1.93-8.36-2.45c-3.23-0.54-6.49-0.28-9.73-0.23c-4,0.07-7.88-0.41-11.67-1.63
		c-3.23-1.27-6.34-2.87-9.79-3.59c-4.74-2.47-9.79-2.57-14.72-1.21c-7.34,2.02-14.62,2.04-21.86,0.05
		c-8.21-2.26-16.14-2.74-24.49,0.02c-6.23,2.05-12.77,0.68-18.87-1.91c-5.96-3.81-10.67-9.02-15.54-14.04
		c-0.73-0.75-1.48-1.51-1.62-2.64c0.05-1.61,1.36-2.39,2.31-3.37c3.52-3.65,6.31-7.75,7.85-12.61c-2.2,5.92-5.68,10.96-10.53,15.03
		c-0.84,0.71-1.57,1.39-1.64,2.55c-1.21,2.67-3.4,4.76-4.49,7.51c-0.71,0.2-1.13-0.99-2.26,0.12c-3.86,3.77-8.45,6.64-13.05,9.45
		c-1.35,0.62-2.37,1.73-3.64,2.46c-0.41,0.23,0.12-0.04-0.3,0.18c-7.26,3.82-7.61,4.08-12.5-2.33c-4.06-5.33-8.18-10.73-11.23-16.78
		c-0.81-1.14-1.39-2.58-2.45-3.38c-4.89-3.71-6.72-9.05-8.49-14.58c-2.14-6.67-4.26-13.36-8.59-19.11c-2.47-3.28-5.51-5.39-9.5-6.06
		c-6.59-1.11-12.29-3.63-16.23-9.37c-1.87-2.72-4.98-4.21-7.1-6.78c-2.9-3.51-3.86-7.65-3.33-11.82c0.59-4.67,0.54-8.96-1.6-13.26
		c-2.78-5.58-0.82-10.54,2.91-14.87c2.79-3.24,4.47-6.28,3.58-11.01c-1.28-6.73,2.32-11.95,7.41-16.1
		c6.49-5.29,14.03-8.88,21.33-12.84c0.97,2.13-0.9,3.25-1.84,4.51c-1.47,1.98-2.96,3.95-4.24,6.04c-1.3,2.12-2.15,4.37-1.17,7.01
		c1.11,2.99-0.29,5.56-2.05,7.83c-3.55,4.59-4.4,9.32-1.8,14.75c2.34,4.88,3.99,9.96,3.25,15.64c-0.3,2.32,0.13,4.92,1.68,6.81
		c-1.3-2.66-1.91-5.64-1.57-8.8c0.55-5.14-1.42-9.73-3.5-14.19c-2.37-5.09-1.46-9.54,1.73-13.83c2.09-2.82,3.63-5.64,2.08-9.42
		c-0.91-2.22,0.54-4.31,1.68-6.24c1.61-2.74,3.84-5.04,5.5-7.74c0.83-1.35,2.09-2.58,1.79-4.41c2.45-0.73,3.92-2.54,5.52-4.43
		c10.38-12.24,23.15-20.87,38.65-25.4c7.38-2.16,14.57-4.95,22.12-6.6c2.05-0.45,4.26,0.23,6.18-0.95c1.04,0.86,1.08,2.09,0.96,3.24
		c-1.18,11.08-1.61,22.21-2.38,33.31c-0.85,12.15-3.19,24.2-2.52,36.47c0.21,3.91,0.74,7.7,2.07,11.37
		c4.03,11.1,14.06,15.8,25.17,11.69c7.85-2.91,13.9-8.08,18.62-14.98c2.91-4.25,5.31-8.87,8.89-12.63c1.68-0.85,2.38,0.28,2.83,1.55
		c1.42,4,4.67,5.69,8.36,6.89c2.97,1.29,6.27,1.48,9.2,2.49c0.2,1.29-0.59,1.38-1.2,1.66c-0.66,0.29-1.92,0.17-1.38,1.43
		c0.43,1,1.36,1.67,2.54,1.43c1.13-0.23,0.86-1.14,0.75-1.96c-0.29-2.35-2.2-4.45-1.06-7.02c2.91-2.64,4.66-2.46,7.9,0.81
		c0.47,0.68,0.83,1.41,1.04,2.22c0.21,0.82,0.34,1.68-0.55,2.19c-1.03,0.59-1.46-0.34-1.96-0.94c-0.45-0.54-0.76-1.19-1.3-1.65
		c-0.37-0.31-0.83-0.55-1.28-0.35c-0.74,0.32-0.49,0.99-0.33,1.52c0.31,1.01,0.89,1.92,1.12,2.96c0.88,3.92-0.69,5.9-4.72,5.76
		c-3.3-0.12-6.54,0.12-10.5,0.93c4.66,1.83,9.2-0.12,13.64,1.97c-2.95,2.49-6.57,1.9-9.27,3.66c3.86,1.46,7.67,0.48,11.48,0.23
		c1.45-0.1,1.82-1.19,2.4-2.23c2.92-5.29,7.98-5.51,10.81-0.29c1.17,2.15,2.76,1.92,4.44,1.78c9.11-0.81,18.23-1.5,27.22-3.24
		c1.26-0.24,2.52-0.57,3.83-0.45c2.46,1.17,2.54,3.79,3.48,5.85c2.27,4.98,2.84,5.31,7.98,3.59c26.94-9.02,53.56-18.89,79.83-29.7
		c0.87-0.36,1.73-0.73,2.58-1.13c10.55-4.99,12.67-9.11,10.77-20.69c-1-6.04-2.74-11.89-4.45-17.75c-0.4-1.39-1.3-2.92,0.35-4.18
		c1.03-0.28,1.82,0.27,2.57,0.82c3.52,2.6,7.42,4.41,11.54,5.84C709.44,727.31,712.21,729.13,712.74,733.05z"/>
	<path class="st4" d="M518.22,762.11c-3.28,4.86-6.51,9.76-9.85,14.58c-3.96,5.72-9.13,10.07-15.45,12.96
		c-14.37,6.56-27.12,0.13-30.37-15.32c-1.59-7.56-1.47-15.23-0.49-22.79c1.5-11.64,2.18-23.34,3.11-35.03
		c0.6-7.6,0.98-15.21,1.46-22.81c0.97-15.5,2.92-30.82,7.76-45.67c1.64-5.03,3.43-9.98,5.84-14.68
		c5.53-10.76,15.64-14.2,26.44-16.42c3.79-0.78,7.66-1.12,11.55-1.05c9.36-0.73,9.27-0.69,12.57,7.98
		c3.76,9.89,5.17,20.15,5.39,30.65c0.22,10.2-0.67,20.36-1.06,30.53c-0.39,1.31-1.56,1.54-2.65,1.85c-1.42,0.4-2.34,1.35-3.03,2.6
		c-2.84,1.51-5.98,1.46-9.05,1.75c-3.64-1.09-6.64-3.42-9.9-5.24c-1.45-0.81-1.54-2.18-1.5-3.67c0.19-7.38,1.22-14.71,1.51-22.09
		c-0.49,7.35-1.39,14.67-1.55,22.04c-0.07,3-1.92,5.28-3.41,7.59c-5.72,8.87-11.18,17.89-14.3,22.68
		c3.45-5.46,9.6-14.94,15.46-24.59c1.18-1.94,2.66-2.31,4.76-1.23c3.1,1.6,5.86,3.89,9.32,4.79c3.27,0.85,5.39,3.53,8.16,5.18
		c4.97,3.91,10.08,7.64,15.14,11.43c4.54,3.91,4.84,4.86,1.66,9.96c-6.8,10.89-12.95,22.17-19.92,32.96c-2.08,2.39-2.96,5.5-4.85,8
		C520.13,760.15,519.6,761.5,518.22,762.11z"/>
	<path class="st4" d="M692.22,719.56c-1.4,1.23-0.16,2.41,0.18,3.5c2.3,7.52,4.47,15.05,5.15,22.96c0.6,6.87-1.9,11.9-8.03,15.06
		c-9,4.64-18.51,8.08-27.94,11.67c-19.63,7.47-39.27,14.95-59.28,21.37c-5.09,1.63-5.5,1.45-7.74-3.4
		c-1.03-2.23-1.95-4.51-2.92-6.76c-2.58-3.19-2.92-7.24-4.16-10.94c-0.4-1.21-0.66-2.46-0.93-3.71c-0.27-1.74-0.68-3.45-1-5.19
		c-0.74-4-0.37-4.93,3.32-6.65c7.76-3.63,15.82-6.57,23.72-9.87c10.5-4.39,21.09-8.56,31.61-12.9c1.09-0.45,2.15-0.98,3.38-0.67
		c3.89-0.56,7.03-2.96,10.59-4.34c3.16-1.23,6.18-2.78,9.29-4.11c-6.56,2.64-12.88,5.82-19.44,8.48c-3.49-3.8-6.13-8.25-9.29-12.31
		c-5.1-6.57-10.15-13.19-14.93-20.02c-1.68-2.81-5.12-4.86-3.88-8.93c0.44-0.94,1.29-1.24,2.22-1.38c1.24-0.18,2.57-0.18,2.89-1.84
		c0.31-1.58-0.33-2.62-1.72-3.32c-0.3-0.15-0.45-0.5-0.62-0.81c-0.94-3.94-0.23-7.95-0.48-11.91c-0.99-15.78-1.72-31.6-6.37-46.89
		c-0.75-2.47-1.55-4.91-2.62-7.27c-0.55-1.23-1.5-2.48-0.52-3.94c6.11-0.34,12.09,0.95,18.14,1.43
		c11.71,0.84,21.72,4.36,27.25,15.98c4.95,10.4,9.27,21.07,14.06,31.54c0.3,1.4,0.66,2.79,0.23,4.23c-0.16,0.35-0.41,0.61-0.75,0.8
		c-3.04,1.03-6.23,0.15-9.32,0.81c-5.38,1.15-10.38,3.26-15.28,5.68c-4.08,2.3-8.36,4.29-12.08,7.2c-1.17,0.91-2.83,1.85-2.54,3.54
		c0.31,1.81,2.28,1.78,3.71,2.14c8.41,2.13,16.98,2.06,25.55,1.65c3.3-0.16,6.35-1.53,9.33-2.99c2.31-1.14,4.47-2.59,6.95-3.36
		c0.63,0,1.19,0.22,1.47,0.79c0.74,1.49,1.61,2.26,3.25,1.05c0.55-0.4,1.36-0.65,1.85,0.15c0.35,0.56,0.03,1.23-0.38,1.6
		c-2.5,2.3-1.64,4.75-0.62,7.4C686.62,703.17,689.42,711.37,692.22,719.56z"/>
	<path class="st5" d="M672.02,668.24c0.09-1.14-0.8-2.23-0.15-3.39c-0.06-2.48,1.61-3.43,3.6-4.11c0.83-0.02,1.56,0.35,2.34,0.56
		c3.73,1.03-6.5,5.7-5.66,1.92c0.27-1.23,12.45-8.45,13.9-9.04c11.95-5.57,24.31-8.27,37.55-5.82c13.37,2.47,26.8,4.6,40.01,7.91
		c1.36,0.34,2.71,0.76,4.04,1.2c8.37,2.74,10.31,5.52,7.86,13.76c-1,3.36-3.86,6.38-7.3,8.14c-2.06,1.05-3.49,2.62-4.93,4.35
		c-9.46,11.27-19.56,21.86-32.69,29.01c-8.73,4.49-17.59,5.77-26.68,0.97c5.95,3.08,12.13,4.07,18.62,2.13
		c0.94-0.28,1.84-0.41,2.52,0.53c-5.15,4.79-9.7,10.02-12.3,16.68c-1.77-3.75-4.96-5.6-8.76-6.78c-4.39-1.37-8.33-3.61-11.76-6.71
		c-3.51-3.39-3.39-8.33-5.27-12.44c-2.18-4.76-3.5-9.92-5.48-14.79c-1.27-3.14,1.61-4.01,2.8-6.11c-1.86-0.12-2.28,2.48-3.7,2
		c-1.54-0.52-1.13-2.7-2.27-3.76c0.88-1.86,0.88-1.86,4.42-4.58c-4.62-0.23-8.76,0.08-12.83-0.68c-2.89-0.54-5.77-1-8.58-1.92
		c-3.93-1.28-7.93-2.2-12.12-1.48c-0.92,0.16-1.88,0.29-2.67-0.46c7.81-4.57,16.12-7.17,25.28-6.42c4.07,0.03,8.09,1.18,12.18,0.61
		c0.08-0.43,1.67,0.43,0.73-0.97c-1.29-1.91-0.99-3.77,0.68-5.37c1.79-1.72,3.73-3.68,5.96-2c-1.53-1.32-3.15-0.3-4.9,0.81
		c-1.83,1.16-2.88,2.67-2.55,4.95c0.12,0.85,0.74,1.85-0.45,2.5C679.58,669.84,675.75,669.47,672.02,668.24z"/>
	<path class="st6" d="M351.02,898.85c-0.09-3.05-0.07-6.1-0.29-9.14c-0.17-2.45,0.89-3.69,3.17-4.26
		c5.93-1.47,11.93-2.53,18.04-2.72c1.55-0.05,3.01-0.24,4.45-0.77c4.7-1.82,9.63-1.56,14.5-1.47c4.16,0.08,8.3,0.8,12.47,0.18
		c3.68-0.03,7.37-0.06,11.05-0.09c0.97,0.85,0.68,1.9,0.41,2.9c-1.3,4.69-2.56,9.39-4.54,13.85c-0.93,1.42-1.95,2.8-2.03,4.6
		c-0.36,2.09-1.34,3.97-1.93,5.98c-0.13,0.75-0.27,1.48-0.5,2.21c-4.74,13.1-3.17,26.28-0.54,39.49c0.44,2.2,1.66,4.5,0.03,6.76
		c-5.17,1.6-10.52,1.04-15.68,0.58c-6.78-0.61-13.57-0.33-20.35-1.08c-8.67-0.95-8.9-0.83-10.98-9.31
		c-0.11-0.46-0.22-0.91-0.31-1.37c-2.59-13.43-5.36-26.83-6.93-40.43C350.82,902.79,350.46,900.83,351.02,898.85z"/>
	<path class="st7" d="M542.74,615.38c0.02-3.04,0.05-6.08,0.07-9.11c0.43-1.62,1.92-2.31,2.98-3.36c3.5-3.45,4.12-7.48,1.67-11.78
		c-1.11-1.94-2.54-3.66-4.08-5.27c-1.57-1.64-2.67-3.54-3.47-5.66c-1.01-2.66-0.74-5.13,1.22-7.2c1.83-1.93,4.21-1.86,6.57-1.23
		c6.35,1.72,6.34,1.74,7.88-4.9c2.13-9.24,6.89-12.95,16.36-13.21c6.49-0.17,12.87,0.42,19.23,1.6c0.46,0.08,0.92,0.16,1.39,0.22
		c6.3,0.73,6.33,0.72,7.36,6.93c1.02,6.1,2.12,12.21,1.48,18.44c-0.04,5.25,0.22,10.51-0.18,15.73c-0.53,6.9-2.83,13.17-8.46,17.73
		c-1.77,2.35-4.55,2.78-7.04,3.77c-6.85,0.26-13.41-1.23-20-3.4c6.11,2.56,12.55,2.81,18.8,3.98c0.88,1.4-0.02,2.47-0.7,3.52
		c-5.04,7.78-15.13,11.51-24.06,8.67c-4.68-1.49-9.22-3.4-13.49-5.88C544.45,622.03,542.16,619.22,542.74,615.38z"/>
	<path class="st8" d="M351.02,898.85c1.56,5.5,1.62,11.24,2.59,16.84c1.6,9.19,3.14,18.38,5.09,27.5c0.12,0.56,0.04,1.17,0.06,1.75
		c-1.02,1.14-2.43,1.47-3.83,1.48c-2.78,0.02-3.55,1.49-3.56,4.02c-0.02,7.61,0.36,15.22-0.66,22.8c-0.19,1.39-0.07,2.83-1.12,3.96
		c-1.21,5.72-2.75,11.28-6.61,15.92c-2.97,3.58-6.72,5.67-11.27,6.42c-2.01,0.33-3.71-0.05-4.72-2.04c-0.6-1.54-1.07-3.14-1.01-4.78
		c0.28-7.51-0.71-14.97-0.8-22.46c-0.27-21.54-1.25-43.07-1.68-64.61c-0.02-1.19-0.14-2.36,0.9-3.24
		C333.16,900.3,342.11,899.73,351.02,898.85z"/>
	<path class="st9" d="M620.26,547.57c-0.88,3.29-2.07,6.44-4.04,9.25c-1.42-1.46-0.98-3.33-0.92-5.02c0.4-12-9.5-20.91-21.43-21.56
		c-8.62-0.47-16.7,1.77-24.6,4.9c-1.09,0.43-2.09,1.08-3.31,1.08c-0.86-0.04-1.5-0.5-2.11-1.06c-1.61-1.46-3.47-1.95-5.41-0.87
		c-1.88,1.05-2.63,2.81-2.38,4.98c0.05,0.47-0.01,0.92-0.15,1.37c-1.35,2.23-3.7,3.22-5.74,4.54c-8.67,5.58-16.39,12.17-22.42,20.59
		c-5.11,7.14-9.22,14.72-10.22,23.66c-0.15,1.37-0.35,2.81-1.4,3.91c-4.59-3.36-7.58-7.82-9.14-13.26c2.45-9,6.72-17.01,12.92-24
		c3.02-4.21,6.94-7.54,10.7-11.04c4.76-3.98,9.91-7.41,15.38-10.35c-5.57,2.89-10.69,6.44-15.54,10.39
		c-3.73,3.65-7.81,6.96-10.83,11.3c-5.35,5.88-8.94,12.78-11.67,20.17c-0.35,0.96-0.47,2.02-1.17,2.84
		c-2.06-6.87-0.79-13.47,1.92-19.84c5.53-12.99,15.33-22.26,26.73-30.07c2.22-1.52,4.47-2.99,6.7-4.48
		c3.58-2.31,6.87-5.24,11.45-5.45c11.6-4.42,23.48-7.43,36.03-6.53c9.08,0.65,17.6,2.98,24.41,9.46c6.89,6.55,8.9,14.58,6.61,23.74
		c-0.88-3.34-1.43-6.76-2.98-9.93c-4.68-9.57-12.64-14.11-22.91-15.11c-10.39-1.01-20.23,1.45-29.89,4.97
		c-1.54,0.56-3.11,1.06-4.65,1.66c8.89-3.51,17.99-6.34,27.56-6.81c14.73-0.73,27.08,4.74,31.63,19.98
		C620.04,543.16,619.92,545.38,620.26,547.57z"/>
	<path class="st5" d="M405.33,956.11c-1.07-6.66-2.39-13.29-3.17-19.99c-1.05-9.11-0.72-18.14,3.13-26.72c6.82-0.42,6.84-0.43,4.2-7
		c-0.52-1.3-0.76-2.52,0.48-3.47c1.23-0.95,2.4-0.51,3.47,0.41c0.62,0.53,1.05,1.23,1.49,1.64c-0.96-2.21-3.32-2.61-5.4-3.45
		c1.48-5.69,4.03-11.07,4.87-16.94c0.09-2.76,0.18-5.52,0.26-8.28c3.1,2.9,5.03,6.67,7.49,10.04c0.89,1.22,1.68,2.52,2.48,3.81
		c1.62,2.61,3.68,4.96,6.05,6.73c3.22,2.41,4.97-2.2,7.8-2.37c1.02,1.15,0.3,2.17-0.24,3.2c-1.31,2.48-2.69,4.93-4.21,7.29
		c-0.87,1.34-1.35,2.68-1.04,4.27c-1.49,3.08-2.31,6.38-3.15,9.67c-0.72,2.83-1.3,5.59-3.87,7.62c-1.67,1.32-1.85,3.5-0.51,5.41
		c1.23,1.77,1.36,3.69,1.05,5.71c-1.27,8.25-0.5,16.53-0.43,24.79c0.01,0.71,0.3,1.37,0.44,2.06c0.86,5.39,1.63,10.8,2.54,16.18
		c0.23,1.35,0.69,2.75-0.31,4.02c0.04,4.98,2.46,8.73,5.75,12.28c3.1,3.33,1.45,7.2-3.14,7.78c-1.71,0.22-3.49-0.09-5.24-0.19
		c-8.32-0.47-10.52-2.76-11.13-11.17c-0.26-3.63-2.05-6.85-3.22-10.24c-0.42-0.23-0.8-0.54-0.95-0.98
		c-2.35-6.92-4.54-13.89-5.78-21.12C404.99,956.75,405.18,956.42,405.33,956.11z"/>
	<path class="st6" d="M638.14,869.14c6.76,1.22,13.54,2.02,20.41,0.87c-1.2,4.2-2.41,8.39-3.61,12.59
		c-0.61,4.97-1.41,9.87-4.22,14.19c-3.96,12.49-7.84,25-11.9,37.46c-2.21,6.79-4.63,13.52-8.33,19.7c-0.17,1.53-1.28,2.21-2.57,2.47
		c-3.46,0.68-6.86,0.65-10.01-1.27c-0.82-1.52-0.71-3.19-0.68-4.82c0.14-7.73-0.37-15.47,0.59-23.19c0.57-4.56-0.41-9.13-0.88-13.66
		c-0.6-5.75-0.31-11.48-0.4-17.22c-0.02-1.33,0.37-2.54,1.08-3.66c4.69-3.84,9.67-7.41,12.23-13.24c0.62-1.4,1.26-2.77,1.25-4.34
		c-0.01-0.16-0.02-0.33-0.03-0.49c-0.11-2.92,2.29-4.09,4-5.74C636.1,868.86,637.13,868.92,638.14,869.14z"/>
	<path class="st10" d="M546.4,624.57c3.76,1.55,7.53,3.11,11.3,4.65c10.59,4.32,21.71,0.09,26.91-10.21c0.15-0.69,0.77-1.05,1.1-1.6
		c2.35-1.03,4.7-2.05,7.04-3.08c1.71,0.18,3.42,0.36,5.13,0.54c3,7.45,5.13,15.13,6.15,23.11c-0.21,1.39-1.25,2.21-2.16,3.12
		c-14.84,14.86-29.69,29.71-44.54,44.55c-0.83,0.83-1.6,1.73-2.73,2.18c-0.92,0.28-1.81,0.23-2.68-0.17
		c-0.89-0.72-2.08-1.1-2.57-2.27c-0.26-6.11,0.68-12.16,1.18-18.21c1.03-12.31,0.17-24.35-3.41-36.2
		C546.5,628.91,545.18,626.86,546.4,624.57z"/>
	<path class="st5" d="M601.4,580.86c-0.91-6.7-1.87-13.39-2.69-20.1c-0.36-2.9-0.7-4.97-4.74-4.32c-3.28,0.53-6.7-0.76-10.04-1.33
		c-5.69-0.97-11.41-1.02-17.12,0.14c-5.47,1.11-8.5,4.6-9.79,9.83c-0.56,2.27-1,4.58-1.6,6.84c-0.71,2.65-2.48,3.19-4.88,2.2
		c-0.43-0.18-0.87-0.37-1.27-0.59c-2.47-1.39-5.19-2.45-7.47-0.2c-2.43,2.39-1.65,5.35-0.35,8.18c1.16,2.52,3.23,4.29,4.96,6.34
		c6.07,7.22,4.76,13.93-3.58,18.43c-1.57-1.35-1.76-3.46-2.78-5.11c-2.43-2.9-2.21-6.59-2.82-9.98c-0.97-5.41-1.52-10.89-2.74-16.26
		c-0.45-1.98-0.56-4.08,0.64-5.79c6.74-9.66,13.86-18.95,25.36-23.49c0.33-0.13,0.66-0.25,0.99-0.36c3.48-0.98,3.48-0.98,4.34,4.21
		c0.14,0.45,0.71-0.22,0.29-0.01c-0.2,0.1-0.29,0.07-0.35-0.06c-0.71-1.78,0.06-3.4,0.56-5.05c1.33-2.31,3.67-1.77,5.72-2.03
		c6.76-1.73,13.54-2.5,20.47-0.85c2.73,0.65,5.53,0.98,8.35,1.03c2.4,0.05,4.28,1.03,5.42,3.25c0.33,0.64,0.57,1.26,0.5,2
		c-0.15,1.45-1.58,1.92-2.21,3c1.93,1.03,1.05,2.25,0.25,3.47c-0.42,0.64-0.4,1.29-0.13,2c2.18,5.75-0.18,11.18-1.18,16.71
		C602.55,575.53,602.81,578.41,601.4,580.86z"/>
	<path class="st6" d="M546.4,624.57c4.08,12.29,6.29,24.88,5.54,37.84c-0.45,7.78-1.38,15.54-2.1,23.3
		c-3.4,2.28-7.24,0.93-10.88,1.26c-1.58,0.14-3.33,0.24-4.55-1.22c-0.5-9.63,0.8-19.2,0.74-28.82c-0.08-11.56-1.51-22.82-5.71-33.65
		c-0.51-1.31-1.16-2.63-1.31-4c-0.31-2.75-1.77-3.48-4.31-3.27c-1.86,0.16-3.75-0.07-5.62-0.12c8.16-0.81,16.33-1.41,24.53-0.51
		C543.96,618.44,545.18,621.5,546.4,624.57z"/>
	<path class="st8" d="M618.39,955.4c2.05,0.01,4.08,0.03,6.14,0.4c2.17,0.39,4.3-0.17,5.94-1.86c6.89,0.49,13.77,0.97,20.66,1.47
		c4.87,0.36,9.3,2.18,13.66,4.2c3.85,3.23,7.94,6.32,8.98,11.64c0.5,2.57,1.35,5.41-1.71,7.22c-10.86,1.24-21.76,0.36-32.64,0.57
		c-5.86,0.11-11.72,0.05-17.58-0.01c-2.65-0.03-3.88-1.02-4.16-3.92c-0.52-5.27-0.46-10.53-0.45-15.8
		C617.23,957.92,617.19,956.46,618.39,955.4z"/>
	<path class="st6" d="M603.36,638.57c-1.06-6.67-2.81-13.16-4.87-19.58c-0.44-1.36-0.62-2.72-0.6-4.13
		c4.96-0.33,9.88,0.38,14.82,0.59c9.83,22.51,10.32,46.42,10.57,70.37c-1.06,1.25-2.54,1.1-3.91,1.03
		c-3.82-0.18-7.7,0.64-11.47-0.56c-1.55-1.54-1.59-3.61-1.79-5.56c-1.37-13.41-1.64-26.91-3.31-40.29
		C602.89,639.78,603.16,639.19,603.36,638.57z"/>
	<path class="st3" d="M561.8,546.03c-11.91,4.41-19.04,14.06-26.11,23.77c-1.02,1.4-0.65,2.95-0.39,4.42
		c1.55,8.98,3.15,17.96,4.74,26.93c-8.18-0.2-15.98-1.66-22.59-6.95c-1.49-4.94,0.35-9.54,1.99-13.93
		c4.98-13.37,14.19-23.46,25.45-31.93c3.64-2.74,7.93-4.54,11.16-7.84c0.25-0.25,0.54-0.45,0.86-0.59c3.86-0.76,6.84-4.01,11-3.94
		c1.38,1.94-0.7,2.56-1.45,3.64c-1.34,1.96-4.04,2.87-4.36,5.63C562.15,545.56,562.05,545.82,561.8,546.03z"/>
	<path class="st3" d="M603.49,572.96c-0.24-3.53,0.19-7.05,0.97-10.45c0.7-3.03,0.69-5.53-2.17-7.3c0.77-1.38,3.01-1.49,2.83-3.05
		c-0.15-1.35-2.01-0.74-3.13-1.32c0.68-0.33,1.27-0.63,1.87-0.92c1.17-0.57,2.94-1.41,2.35-2.57c-0.65-1.29-1.14-3.3-3.26-3.51
		c-10.14-0.97-20.23-4.08-30.47-0.7c-1.18-0.73-2.5-0.37-3.76-0.5c-1.09-0.11-2.16-0.42-2.58-1.49c-0.41-1.04,0.44-1.76,1.13-2.36
		c1.19-1.04,2.02-2.18,1.66-3.87c8.33-3.3,16.79-5.81,25.94-4.95c16.26,1.53,24.36,16.04,19.8,29c-0.07,0.21-0.02,0.45,0.04,0.69
		C611.51,564.55,607.93,569.12,603.49,572.96z"/>
	<path class="st5" d="M324.41,902.42c0.67,23.72,1.31,47.43,2.05,71.15c0.25,7.98,0.73,15.95,0.54,23.94
		c-3.97-6.26-4.42-13.46-5.51-20.49c-0.21-1.38-0.03-2.82-0.73-4.12c-0.69-11.1-1.33-22.2-2.12-33.29
		c-0.21-2.99,0.36-5.52,2.66-7.52c1.74-1.51,1.92-2.89,0.08-4.56c-7.23-6.58-4.12-14.6-2.75-22.22
		C319.12,902.5,322.12,902.71,324.41,902.42z"/>
	<path class="st11" d="M394.15,731.08c2.38,0.57,0.72,1.88,0.28,2.55c-2.1,3.23-4.34,6.37-6.57,9.52c-1.78,2.52-2.67,5.1-1.34,8.18
		c1.29,3-0.78,5.3-2.3,7.34c-3.38,4.54-4.48,9.01-1.77,14.31c2.48,4.86,3.71,10.07,3.16,15.63c-0.34,3.46,1.8,6.4,2.23,9.77
		c-3.24-2.32-4.45-6-3.95-9.42c0.86-5.89-1.22-10.84-3.42-15.86c-2.24-5.11-1.67-9.79,1.58-14.18c2.1-2.83,3.29-5.53,2.31-9.38
		c-1.12-4.4,2.4-7.56,4.63-10.94c1.2-1.83,3.06-3.22,3.63-5.47C393.12,732.45,393.64,731.77,394.15,731.08z"/>
	<path class="st12" d="M620.26,547.57c-1.01-3.21-1.17-6.62-2.56-9.76c-4.96-11.15-13.99-15.91-25.68-16.27
		c-11.33-0.35-21.93,2.95-32.32,7.07c-0.68,0.27-1.33,1.14-2.5,0.06c4.59-2.31,9.3-3.8,14.05-5.2c9.29-2.74,18.64-4.13,28.3-2.05
		c12.16,2.62,20.73,12.85,21.06,24.81C620.5,546.67,620.38,547.12,620.26,547.57z"/>
	<path class="st13" d="M614.7,559.66c-1.12-1.01-0.02-2,0.17-2.89c2.76-12.91-5.76-24.62-18.81-26.11
		c-9.58-1.09-18.43,1.15-27.05,4.95c-0.12,0.41-0.39,0.65-0.83,0.67c-2.82,0.37-5.11,2.04-7.62,3.16c-1.15,0.51-2.16,1.37-3.54,1.14
		c-0.27-0.24-0.36-0.53-0.25-0.87c1.82-2.07,4.39-2.81,6.78-3.87c0.58-0.22,1.25,0.25,1.8-0.25c5.03-1.87,9.99-3.99,15.28-5.07
		c7.75-1.58,15.48-2.4,22.96,1.25c8.37,4.09,12.69,10.75,12.71,20.12c0,1.64-0.05,3.28-0.08,4.92
		C615.72,557.77,615.21,558.72,614.7,559.66z"/>
	<path class="st14" d="M556.27,540.68c-0.32,1.99-2.21,2.25-3.51,3.05c-11.61,7.19-21.65,15.99-28.67,27.88
		c-4.11,6.96-6.83,14.36-6.65,22.59c-0.44-0.29-0.89-0.58-1.33-0.87c1.22-16.2,9.56-28.58,21.02-39.32
		c5.6-5.25,12.11-9.23,18.41-13.5C555.84,540.33,556.08,540.37,556.27,540.68z"/>
	<path class="st15" d="M725.05,716.37c-5.16,0.72-10.3,2.33-15.53,0.48c-3.12-1.1-6.48-1.81-8.56-4.71c0.48-0.7,0.89-0.67,1.32-0.39
		c8.15,5.21,16.61,5.3,25.26,1.45c1.03-0.46,2-0.54,3.06-0.46C729.61,715.27,726.84,715.07,725.05,716.37z"/>
	<path class="st16" d="M520.13,556.08c-5.86,7.19-9.9,15.38-13.17,23.99c-0.07-0.23-0.14-0.46-0.21-0.69
		c2.24-8.84,6.4-16.66,12.6-23.37C519.64,555.72,519.9,555.76,520.13,556.08z"/>
	<path class="st6" d="M480.86,886.27c0.76-0.65,1.43-0.28,2.24,0.03c6.64,2.56,13.35,3.16,20.16,0.55
		c6.7-2.57,13.37-1.25,19.97,0.48c8.07,2.12,15.98,2.62,24.15,0.03c4.19-1.33,8.8-0.94,13.08,0.85c0.83,0.35,1.46,0.67,1.62,1.59
		c0.75,0.93,0.61,2,0.35,3.03c-4.15,16.9-8.72,33.63-18.16,48.57c-7.64,12.07-17.95,19.22-32.71,20.07
		c-10.15,0.59-20.11,0.38-30.07-1.43c-1.95-1.37-2.58-3.57-3.49-5.58c-4.43-9.85-8.2-19.88-10.45-30.54
		c-1.91-9.04-5.58-17.66-7.7-26.68c-1.14-4.85-3.06-9.59-2.29-14.75c0.4-0.26,0.84-0.52,1.3-0.46
		C466.29,882.97,473.8,883.45,480.86,886.27z"/>
	<path class="st5" d="M618.39,955.4c0.13,6.92,0.38,13.84,0.32,20.76c-0.02,2.56,1.58,1.81,2.77,1.82
		c15.61,0.05,31.21,0.05,46.82,0.09c1.25,0,2.58-0.4,3.77,0.4c-5.94,3.21-12.55,3.67-19.05,4.36c-10.5,1.11-21.05,1.65-31.61,1.52
		c-2.41-0.03-3.13,0.81-3.49,3.03c-0.76,4.68-1.99,5.63-6.85,5.49c-3.15-0.09-6.29-0.58-9.44-0.71c-1.47-0.06-1.79-0.99-1.98-2.01
		c-0.43-2.3-0.84-4.62-1.03-6.94c-0.11-1.33-0.68-2.23-1.7-2.87c-1.29-0.81-2.02,0.42-2.63,1.07c-6.85,7.25-14.94,4.07-22.64,2.47
		c-2.6-0.54-3.08-3.43-2.14-6.06c1.54-1.11,3.33-0.98,5.08-0.99c6.1-0.03,12.2-0.07,18.29,0.02c2.86,0.04,3.88-1.1,3.94-3.95
		c0.15-7.16-0.42-14.28-0.67-21.42c0.78-17.37-2.58-34.32-5.23-51.34c-0.2-1.28-0.43-2.54-0.45-3.84c-0.02-1.8,0.87-2.27,2.47-1.75
		c2.11,0.14,4.18,0.65,6.04,1.58c5.66,2.84,10.77,1.79,15.68-1.76c0.93-0.68,1.97-1.2,2.97-1.79c-0.18,9.73,0.16,19.41,1.24,29.11
		c0.84,7.56-1.18,15.16-0.65,22.79C618.46,948.12,618.34,951.77,618.39,955.4z"/>
	<path class="st5" d="M457.72,882.56c2.28,14.83,7.96,28.77,11.3,43.3c2.73,11.87,7.41,22.86,12.52,33.76
		c0.69,0.44,1.39,0.89,1.72,1.67c2.09,4.9,4.97,9.41,7.12,14.28c0.24,0.54,0.32,1.11,0.21,1.7c0.91,3.51,3.58,5.95,5.38,8.93
		c0.92,1.52,0.96,2.17-0.78,4.16c-4.63,5.3-9.61,2.36-14.42,2.23c-3.69-0.1-6.48-2.3-7.21-6.07c-0.64-3.31-2.44-5.68-4.78-7.83
		c-3.73-2.18-4.82-6.27-6.67-9.69c-2-3.69-3.77-7.57-5.21-11.56c-5.66-18.99-15.61-36.11-23.54-54.11
		c2.09-5.46,5.18-10.35,8.64-15.03c4.37-3.35,9.23-6.04,13.29-9.8c1.31-1.21,1.69-0.38,2.15,0.66
		C458.51,880.22,458.48,881.36,457.72,882.56z"/>
	<path class="st6" d="M571.79,945.69c-3.37-0.96-6.74-1.95-10.12-2.87c-2.05-0.56-2.68-1.58-2.25-3.85
		c2.99-15.62,7.22-30.94,10.95-46.38c7.39,2.19,15.08,0.82,22.56,1.97c-2.16-0.07-1.61,1.38-1.43,2.58
		c1.22,8.13,2.31,16.29,3.71,24.39c1.69,9.82,2.32,19.69,1.94,29.64c-1.1,0.94-2.37,0.81-3.66,0.58
		c-6.43-1.19-12.68-3.13-19.09-4.43C573.34,947.1,572.44,946.58,571.79,945.69z"/>
	<path class="st17" d="M544.81,769.81c0.42-0.5,0.98-0.72,1.6-0.84c6.05-0.37,12.06-0.27,17.98,1.34c-2.72-0.4-5.39-1.05-7.87-2.26
		c-1.43-0.7-3.93-1.09-3.59-2.77c0.4-2,2.92-1.31,4.57-1.34c4.48-0.08,8.85,0.94,13.19,1.84c3.98,0.83,8.19,0.92,11.84,3.05
		c1.54,0.9,3.23-0.75,4.74,0.33c1.46,4.93,2.91,9.86,4.37,14.79c-7.6,1.93-15.36,2.78-23.14,3.5c-3.61,0.33-7.23,0.45-10.83,0.78"/>
	<path class="st17" d="M542.88,789.05c-4.86,0.35-9.63,0.51-15.11-0.69c3.85-2.68,7.85-2.88,12.03-4.22
		c-5.31-0.54-10.22,0.45-15.17-1.4c1.3-1.82,3.29-2.15,4.93-2.17c2.77-0.03,5.45-0.99,8.32-0.31c2.28,0.54,3.9-0.65,3.55-3.37
		c-0.12-0.91-0.31-1.85-0.66-2.69c-0.65-1.58-3.02-3.45-0.33-4.68c2.43-1.11,5.99-0.18,6.67,2l11.41,15.82l-0.22,0.84"/>
	<path class="st18" d="M568.98,844.26c0.62,5.84,3.96,10.32,6.93,15.02c2.1,3.31,3.37,6.93,2.96,10.99
		c-0.83,8.31,2.71,14.45,9.46,19.02c0.98,0.67,2.16,1.34,2.25,2.93c-8.84-3.94-13.67-10.63-13.09-17.27
		c0.68-7.87-2.09-14.33-6.61-20.46C568.72,851.55,567.51,848.12,568.98,844.26z"/>
	<path class="st19" d="M638.14,869.14c-1.23,0.06-2.47,0.12-3.7,0.19c-1.97,1.38-3.13,3.25-3.4,5.66c0,0,0.06,0.03,0.06,0.03
		c-1.11-2.61-1.27-5.21,1-7.23c1.26-1.12-0.16-2.02,0.19-3.14c0.5-1.58,0.13-3.44,0.13-5.2c-1.21-0.05-0.96,1.36-1.92,1.51
		c0-0.35-0.1-0.72,0.01-1.01c2.59-6.6,6.75-12.64,6.98-20.06c0.02-0.69,0.42-1.49,1.31-1.28c0.9,0.22,0.74,1.15,0.61,1.77
		c-0.8,3.74-0.97,7.67-3.25,11c-2.62,3.83-1.88,8.22-1.24,12.29c0.2,1.27-0.71,1.63-0.57,2.45c0.82,0.79,2.07-1.38,2.55,0.4
		c0.05,0.17,3.16,1.04,0.01,1.57C636.32,868.19,638.06,868.38,638.14,869.14z"/>
	<path class="st17" d="M530.83,769.09c2.36,0.33,4.73-1.07,7.08,0.07c-0.08,2.02,0.22,3.98,1.33,5.7c0.83,1.28,1.49,2.61,0.04,3.7
		c-1.32,0.99-2.74,0.23-3.9-0.57c-1.06-0.73-2.26-2.06-2-3.08c0.47-1.82,2.76-0.02,3.9-1.27c-3.12-0.82-6.44-0.72-9.25-2.51
		c0.62-0.26,0.7-0.81,0.74-1.38C529.45,769.55,529.94,768.7,530.83,769.09z"/>
	<path class="st20" d="M464.58,869.96c-0.94,0.5-1.88,0.99-2.82,1.49c-1.41-1.28,0.01-1.91,0.71-2.4c5.31-3.71,8.4-9.02,10.99-14.74
		c0.37-0.82,0.18-2.65,1.67-1.98c1.32,0.59,0.03,1.83-0.25,2.75C473.04,861.13,468.69,865.46,464.58,869.96z"/>
	<path class="st21" d="M441.99,888.31c-2.2,5.3-5.59,9.93-8.41,14.89c0.27,0.76-0.13,1.14-0.79,1.36c-2.67-0.7-0.61-2.02-0.2-2.77
		c2.01-3.73,4.77-7.07,5.91-11.26C439.81,890.03,440,887.74,441.99,888.31z"/>
	<path class="st22" d="M524.64,776.32c4.69-2.69,6.78-2.27,8.71,1.78C530.34,777.75,527.5,777.61,524.64,776.32z"/>
	<path class="st8" d="M571.79,945.69c8.49,1.67,16.71,4.55,25.36,5.47c0.28,8.08,0.5,16.16,0.86,24.23c0.09,1.96-0.46,2.68-2.5,2.65
		c-8.67-0.15-17.34-0.16-26.01-0.22c0.04-3.26,0.09-6.52,0.14-9.78C570.35,960.59,571.07,953.14,571.79,945.69z"/>
	<path class="st2" d="M546.38,769.71c-2.05-1.86-4.03-3.22-7.17-3.55c-2.6-0.27-5.66-2.1-7.03-4.98c-1.44-3.03-3.54-4.83-6.85-4.86
		c-0.05-1.95,2.27-3.8-0.15-5.59c6.43-10.7,12.86-21.41,19.31-32.1c3.49-5.79,3.51-5.79-1.03-10.07c-0.19-2.15,1.01-3.8,2.09-5.43
		c0.93-1.41,2.33-1.81,4.02-1.33c5.42,1.56,10.17,4.21,13.88,8.51c1.39,1.61,2.9,3.05,4.59,4.33c1.41,1.07,2.69,2.52,4.35,0.28
		c0.49-0.66,1.25-0.19,1.94-0.06c3.82,0.7,6.75-2.42,5.92-6.24c-0.82-3.78-2.77-6.9-5.41-9.7c-0.88-0.93-2.85-1.82-1.14-3.68
		c2-0.75,3.92-0.24,5.85,0.32c3.17,0.92,6.04,2.53,8.99,3.95c4.61,2.21,9.08,2.65,14.21,0.95c7.21-2.39,14.7-2.62,21.8,1.06
		c7.57,10.14,15.14,20.28,22.69,30.43c0.4,0.53,0.55,1.24,0.82,1.87c0.24,0.34,0.18,0.57-0.24,0.67
		c-10.45,4.18-20.91,8.33-31.34,12.56c-8.81,3.57-17.53,7.34-26.39,10.78c-3.27,1.27-4.87,2.85-3.62,6.5
		c0.52,1.52,0.54,3.22,0.78,4.84c-2.4,1.52-4.41,0.75-7.02-0.13c-5.14-1.74-10.66-2.34-16.03-3.42c-3.56-0.71-7.15-0.9-11.38-0.65
		c3.89,2.75,8.07,3.42,10.96,4.75C558.52,769.71,552.45,769.71,546.38,769.71z"/>
	<path class="st23" d="M573.24,695.84c3.59,3.85,6.95,7.73,8.13,13.2c0.71,3.3-0.92,5.1-3.14,6.11c-1.26,0.58-3.43,4.34-5.05-1.33
		c-0.86,4.21-2.13,4.34-4.49,2.61c-3.32-2.44-5.84-5.67-8.85-8.4c-3.16-2.88-7.04-4.06-10.81-5.58c-1.77-0.72-2.57,0.56-3.28,1.81
		c-0.8,1.41-1.53,2.87-2.28,4.31c-4.93-3.73-9.86-7.46-14.78-11.19c2.97-4,7.4-6.09,11.46-8.66c3.8-1.77,7.62-3.44,11.92-1.69
		c0.91,0.12,1.83,0.23,2.74,0.35c0.67-0.06,1.33-0.23,2.01-0.16c3.6,0.58,6.88,2.05,10.08,3.7
		C569.12,692.4,572.02,693.03,573.24,695.84z"/>
	<path class="st24" d="M521.01,692.25c-3.87-0.21-6.55-2.99-9.69-4.7c-2.15-1.17-2.91-0.78-4.08,1.12
		c-5.84,9.49-11.81,18.91-17.8,28.31c-0.62,0.98-0.97,2.42-3.03,2.72c1.15-4.12,3.8-6.99,5.75-10.19
		c4.81-7.9,9.88-15.65,14.82-23.47c0.9-1.42,1.11-3.1,1.23-4.71c0.56-7.24,1.02-14.49,1.54-21.73c0.06-0.85-0.37-2.36,0.87-2.28
		c1.38,0.08,0.96,1.48,0.87,2.55c-0.63,7.35-1.15,14.71-1.79,22.06c-0.18,2.04,0.51,3.21,2.38,4.13c2.83,1.4,5.5,3.13,8.24,4.71
		C521.52,690.81,521.44,691.45,521.01,692.25z"/>
	<path class="st25" d="M521.01,692.25c-0.23-0.49-0.46-0.98-0.69-1.47c2.89-1.56,6.32-0.52,9.24-1.94
		c3.55-1.94,7.82-1.65,10.55,0.72c-3.81,2.6-7.63,5.21-11.44,7.82C526.12,695.66,523.56,693.95,521.01,692.25z"/>
	<path class="st26" d="M540.12,689.55c-3.44-1.32-6.99-1.15-10.55-0.72c0.67-2.68,0.83-2.79,4.86-3.08
		c5.14-0.01,10.29-0.02,15.43-0.04c0.87,0.21,1.99,0,2.2,1.3C547.7,686.1,543.93,687.96,540.12,689.55z"/>
	<path class="st27" d="M646.55,675.35c5.81-1.57,11.27-0.24,16.83,1.54c6.87,2.19,14.07,2.17,21.65,1.89
		c-1.67,2.98-4.85,3.58-6.72,5.69c-10.07,7.68-21.66,7.95-33.49,6.76c-3.94-0.4-7.9-0.91-11.66-2.24c-2.98-1.06-3.26-2.21-1.05-4.48
		C636.19,680.31,641.37,677.82,646.55,675.35z"/>
	<path class="st28" d="M573.24,695.84c-2.15-1.4-4.31-2.81-6.46-4.21c0.83-1.03,2.03-1.18,3.18-1.14
		c10.05,0.34,20.07-0.8,30.11-0.75c1.05,0.01,2.1,0.08,3.12,0.38c3.93,2.08,8.19,0.77,12.28,1.15c1.76,0.17,3.82-0.5,4.91,1.66
		c-0.62,3.84,2.82,5.71,4.16,8.59c-6.53-1.41-13.37-3.23-19.65-0.6c-7.67,3.21-14.02,1.25-20.59-2.39
		C580.91,696.66,577.26,695.34,573.24,695.84z"/>
	<path class="st29" d="M620.38,692.93c-4.14-1.29-8.38-0.37-12.57-0.63c-1.6-0.1-3.38,0.37-4.37-1.49
		c-1.11-1.57-0.86-3.08,0.34-4.41c1.13-1.25,2.51-1.58,4.03-0.6c5.16,0.01,10.32,0.01,15.48,0.02c2.45-0.08,2.94,1.4,2.78,3.45
		c-0.15,1.9-0.89,3.12-3.04,3.02C622.1,692.25,621.11,692.12,620.38,692.93z"/>
	<path class="st30" d="M647.82,734.5c0.08-0.22,0.16-0.45,0.24-0.67c4.34-3.26,9.56-4.74,14.41-6.96c2.21-1.01,4.27-2.79,6.98-2.62
		c0.22,1.28-0.56,1.61-1.31,1.94c-5.86,2.62-11.73,5.23-17.58,7.87C649.67,734.45,648.78,734.65,647.82,734.5z"/>
	<path class="st31" d="M672.02,668.24c4.02-0.61,7.91,1.01,11.92,0.69c0.61-0.15,0.87,0.07,0.71,0.7
		c-4.36,1.39-8.64,1.15-12.82-0.71C671.89,668.7,671.96,668.47,672.02,668.24z"/>
	<path class="st27" d="M731.99,655.63c2.38-0.01,5.57,4.84,4.67,6.73c-0.18,0.37-0.59,0.79-0.96,0.87
		c-1.93,0.42-3.12-0.66-3.91-2.24c-0.76-1.51-2.1-3-0.75-4.83C731.28,655.85,731.81,655.73,731.99,655.63z"/>
	<path class="st32" d="M408.7,896.61c2.09,1.39,4.43,2.64,6.22,4.21c2.49,2.18,7.53,4.12,2.75,7.96c-4.21,3.39-8.65,1.96-12.54,0.42
		C406.33,905.01,407.51,900.81,408.7,896.61z"/>
	<path class="st33" d="M586.32,605.46c-3.52,0.03-6.86-2.11-7.78-4.99c-0.86-2.69,0.19-4.04,2.88-3.26c3.39,0.98,6.47,0.57,9.52-1
		c0.94-0.48,1.97-0.98,2.93-0.06c0.88,0.85,0.67,1.97,0.46,2.99C593.68,602.35,589.74,605.43,586.32,605.46z"/>
	<path class="st34" d="M585.71,617.4c0.19,0.92,0.01,1.58-1.1,1.6c-6.6,0.06-12.97-1.23-19.18-3.35c-0.95-0.33-2.95-0.24-2.31-1.85
		c0.52-1.33,2.06-0.26,3.1,0.09C572.54,616.04,579.01,617.37,585.71,617.4z"/>
	<path class="st35" d="M583.65,591.62c5.01-3.17,5.1-3.5,2.71-8.53c-1.76-3.72-2.06-5.61-0.99-8.33c0.98,3.93,2.77,7.48,4.53,11.07
		C591.43,588.95,588.07,592.11,583.65,591.62z"/>
	<path class="st36" d="M577.04,570.77c-3.33,1.98-6.36,1.86-9.3,2.02c-0.49,0.03-1.29-0.34-1.44-0.72c-0.32-0.81,0.49-1.21,1.1-1.49
		C570.37,569.18,573.36,568.97,577.04,570.77z"/>
	<path class="st37" d="M596.89,569.42c-3.41,2.03-6.87,1.72-10.73,1.49C589.07,567.63,593.09,567.13,596.89,569.42z"/>
	<path class="st38" d="M594.37,577.99c-0.09,1.35-0.3,2.72-1.61,2.4c-1.53-0.38-1.69-2.09-1.74-3.45c-0.03-0.98,0.25-2.49,1.57-2.13
		C594.06,575.21,594.27,576.84,594.37,577.99z"/>
	<path class="st39" d="M573.96,579.64c-0.04,0.94-0.08,2.29-1.16,2.18c-1.73-0.18-1.88-1.81-1.9-3.25
		c-0.01-0.93,0.01-2.28,1.14-2.18C573.82,576.55,573.83,578.24,573.96,579.64z"/>
	<path class="st40" d="M530.19,544.82c5.34-4.86,11.49-8.46,18-11.49c-5.89,3.9-11.9,7.6-17.37,12.07
		C530.52,545.32,530.31,545.13,530.19,544.82z"/>
	<path class="st41" d="M530.19,544.82c0.21,0.2,0.43,0.39,0.64,0.59c-3.57,3.56-7.13,7.11-10.7,10.67
		c-0.26-0.02-0.51-0.04-0.77-0.06C522.26,551.6,526.23,548.22,530.19,544.82z"/>
	<path class="st42" d="M548.96,532.57c1.97-2.01,4.63-1.81,5.83-3.8c0.23-0.39,0.51-0.36,0.75-0.04c0.37,0.5,0.61,1.1,0.04,1.54
		C553.82,531.67,551.89,532.65,548.96,532.57z"/>
	<path class="st6" d="M457.53,957.46c-9.43-0.22-18.87-0.32-28.29-0.74c-2.89-0.13-4.08,0.6-3.62,3.5c-1.22-2.1-0.32-4.37-0.55-6.56
		c-0.74-7.07-0.34-14.11,0.67-21.13c0.2-1.41,0-2.67-0.96-3.95c-1.95-2.58-1.56-5.36,1.14-7.32c1.4-1.01,1.91-2.15,2.27-3.69
		c0.74-3.19,1.76-6.32,2.49-9.51c0.33-1.46,1.11-2.51,2.1-3.5c0.26-0.45,0.53-0.91,0.79-1.36c0.64,0,1.04,0.26,1.33,0.89
		c6.04,13.14,12.23,26.22,18.08,39.44C454.95,947.97,456.04,952.8,457.53,957.46z"/>
	<path class="st2" d="M631.04,874.98c-0.16-2.66,0.55-4.8,3.4-5.66C633.3,871.21,632.17,873.09,631.04,874.98z"/>
	<path class="st43" d="M556.27,687.83c-0.58,0.12-1.09,0.04-1.48-0.46c0.18-0.3,0.32-0.64,0.56-0.89
		c16-15.98,32.01-31.95,48.01-47.92c0.05,0.49,0.09,0.97,0.14,1.46c-0.64,1.12-1.32,2.18-2.25,3.11
		c-14.45,14.45-28.92,28.87-43.34,43.36C557.41,687.01,556.82,687.39,556.27,687.83z"/>
	<path class="st44" d="M561.82,545.45c1.31-2.3,2.93-2.68,4.89-0.76c-0.24,1.93-0.49,3.86-0.74,5.86c-1.57-0.35-1.42-1.53-1.26-2.45
		c0.49-2.86-0.7-3.13-2.92-2.08C561.82,545.84,561.83,545.64,561.82,545.45z"/>
	<path class="st10" d="M602.37,640.84c0.32-0.32,0.75-0.54,1.13-0.81c1.3,5.21,1.68,10.59,1.94,15.88c0.49,10,1.25,19.95,2.36,29.89
		c-3.55-0.15-4.65,1.82-4.37,5.01c-12.22,0.27-24.44,0.54-36.66,0.81c-3.45-1.4-6.79-3.1-10.5-3.79c0-1.06,0.76-1.66,1.42-2.32"/>
	<path class="st45" d="M682.44,656.21c1.26,0.09,1.75,0.79,1.14,1.87c-0.82,1.43-1.85,2.8-3.62,3.07c-1.3,0.2-2.35-0.24-2.3-1.87
		C679.25,658.26,680.84,657.23,682.44,656.21z"/>
	<path class="st3" d="M557.06,539.86c-1.48-2.76,0.53-4.23,2.36-5.28c1.86-1.07,3.58-0.25,4.54,1.79
		C561.65,537.53,559.36,538.7,557.06,539.86z"/>
	<path class="st2" d="M530.83,769.09c-0.69,0.22-1.38,0.45-2.07,0.67c0.86-0.95,1.83-1.83,2.56-2.87c1.77-2.54,3.49-2.42,5.6,0.28
		C534.11,766.11,532.1,766.68,530.83,769.09z"/>
	<path class="st46" d="M614.37,690.82c-2.45,0-4.9,0-7.35-0.01c-0.96,0-1.96-0.04-2.01-1.35c-0.05-1.26,0.65-2.05,1.87-2.06
		c5.25-0.06,10.5-0.06,15.74-0.05c1.06,0,1.85,0.53,1.87,1.65c0.02,1.31-0.88,1.81-2.08,1.82
		C619.73,690.83,617.05,690.82,614.37,690.82z"/>
	<path class="st47" d="M427.12,918.93c-1.56,3.8-2.43,5.91-3.77,9.18C416.34,924.41,418.98,922.29,427.12,918.93z"/>
	<path class="st48" d="M420.41,920.87c-2.13-0.33-3.2-1.32-3.11-3.1c0.12-2.46,1.59-3.84,4.02-3.98c1.93-0.11,2.92,1.36,2.86,2.89
		C424.08,919.05,422.12,920.09,420.41,920.87z"/>
	<path class="st17" d="M542.99,773.1l-5.36,0.5l-1.26-4.06c0,0,3.25-0.68,6.27,0.22"/>
	<path class="st17" d="M542.5,773.88c0,0-11.59,0.49-13.16,0.94c-1.58,0.45,2.33,3.1,2.33,3.1l12.82,0.82L542.5,773.88z"/>
</g>
</svg>
