<?xml version="1.0" encoding="utf-8"?>
<!-- Generator: Adobe Illustrator 24.3.0, SVG Export Plug-In . SVG Version: 6.00 Build 0)  -->
<svg version="1.1" id="Layer_1" xmlns="http://www.w3.org/2000/svg" xmlns:xlink="http://www.w3.org/1999/xlink" x="0px" y="0px"
	 viewBox="0 0 1080 907" style="enable-background:new 0 0 1080 907;" xml:space="preserve">
<style type="text/css">
	.st0{fill:none;}
	.st1{fill:#FDFDFC;}
	.st2{fill:#FDC390;}
	.st3{fill:#32165A;}
	.st4{fill:#FDC490;}
	.st5{fill:#230950;}
	.st6{fill:#240951;}
	.st7{fill:#250A51;}
	.st8{fill:#260953;}
	.st9{fill:#250A52;}
	.st10{fill:#341656;}
	.st11{fill:#270D54;}
	.st12{fill:#260C52;}
	.st13{fill:#2A1056;}
	.st14{fill:#2B1157;}
	.st15{fill:#2B1255;}
	.st16{fill:#270C53;}
	.st17{fill:#280C53;}
	.st18{fill:#250954;}
	.st19{fill:#270B53;}
	.st20{fill:#270A52;}
	.st21{fill:#260A53;}
	.st22{fill:#250A54;}
	.st23{fill:#FEFEFD;}
	.st24{fill:#3E1E5A;}
</style>
<rect x="147.2" y="-109.77" class="st0" width="1093" height="1038"/>
<g>
	<path class="st1" d="M716.8,482.58c0,0,2.2-26.46-35.72-24.16c0,0-9.32-20.04-25.4-19.4c0,0,4.98-41.23-34.09-44.55
		c-39.06-3.32-40.09,36.64-40.09,36.64l1.82-14.74c0,0-11.9-20.37-41.39-7.48s-29.62,30.51-29.62,30.51s-21.32-5.87-30.89,28.09
		c-9.57,33.96,8.68,25.66,8.68,25.66l87.57,33.83l86.25-12l41.92,2.6l16.65-8.47l3.03-21.45L716.8,482.58z"/>
	<path class="st2" d="M661.54,579.95c1.43,3.71,5.92,5.45,6.3,9.82c-1.84,1.9-4.27,1.66-6.56,1.66c-41.22,0.05-82.45,0.05-123.67,0
		c-2.29,0-4.71,0.24-6.56-1.65c2.09-5.09,6.71-7.93,10.98-11.86c-20.83-10.11-37.12-24.58-47.94-44.79c1.27-1.7,3.15-1.69,4.98-1.69
		c40.25-0.04,80.51-0.01,120.76,0.04c0.66,0.12,0.08,0.83,0.15,0.18c0.02-0.18-0.53-0.26-0.88-0.26
		c-40.1-0.01-80.2,0.01-120.29-0.03c-2.59,0-5.4,0.67-7.52-1.63c0.54-2.61-1.82-4.25-2.19-6.55c0.61-1.4,1.95-1.75,3.2-2.08
		c13.68-3.59,25.47-10.87,36.89-18.87c1.48-1.04,2.81-2.37,4.82-2.28c8.91,4.77,18.24,7.5,28.52,7.13
		c6.28-0.22,12.31-1.31,17.81-4.01c3.6-1.76,5.48-1.14,7.83,1.76c8.71,10.75,21.42,13.82,33.9,8.34
		c7.36-3.23,12.42-8.81,15.22-16.26c0.94-2.5,1.88-3.02,4.25-1.98c7.64,3.36,15.45,3.52,23.18,0.48c3.8-1.49,4.2,1.73,5.42,3.5
		c7.33,10.69,19.98,14.62,31.96,10.04c10.04-3.84,17.69-16.26,15.94-22.8c0.84-1.14,1.08-3.37,3.38-1.84
		c1.81,3.35,0.91,6.92,0.38,10.26c-1.33,8.37-2.93,16.72-5.91,24.72c-0.69,1.66-1.53,3.24-2.88,4.48c-2.42,2.62-2.26,6.79-5.38,8.99
		c-1.69-1.95-3.99-1.35-6.08-1.35c-17.8-0.05-35.6-0.01-53.4-0.02c17.61,0.03,35.22,0,52.83,0.04c2.29,0,4.7-0.39,6.69,1.29
		c-0.93,5.07-4.41,8.79-7.17,12.79c-10.13,14.67-24.07,24.77-39.98,32.37c-2.08,1.91-4.68,1.46-7.12,1.47
		c-16.96,0.05-33.93,0.02-50.89,0.04c-1.79,0-3.6-0.26-5.36,0.57C618.61,580.19,640.07,580.63,661.54,579.95z"/>
	<path class="st3" d="M531.06,589.79c24.8,0.07,49.59,0.18,74.39,0.18c20.8,0,41.6-0.13,62.4-0.2c28.44,0.07,56.88,0.14,85.33,0.21
		c3.66,0.01,7.32-0.06,10.98,0.02c1.54,0.03,3.92-0.49,3.81,1.93c-0.11,2.3-2.46,1.59-4,1.74c-0.66,0.06-1.33,0.01-2,0.01
		c-98.99,0-197.98,0.01-296.97-0.07c-2.24,0-6.38,1.36-6.35-1.63c0.03-3.65,4.24-1.9,6.55-1.92
		C487.15,589.86,509.1,589.85,531.06,589.79z"/>
	<path class="st4" d="M481.02,484.97c3.41-0.31,6.01,0.6,8.66,3.24c9.72,9.66,21.2,11.95,33.92,6.51c3.89-1.66,5.08,1.86,7.36,3.32
		c0.33,1.64-0.92,2.42-1.92,3.16c-11.38,8.31-23.28,15.64-37.24,18.86c-1.72,0.4-3.52,1.17-5.22-0.17
		c-1.29-3.69-4.7-6.94-2.41-11.39c6.08-2.22,12.48-0.12,19.74-1.52c-7.53-1.38-14.19,0.39-20.6-1.28
		c-5.03-5.02-4.28-11.68-5.08-17.91C478.62,486.33,479.51,485.35,481.02,484.97z"/>
	<path class="st5" d="M515.44,436.94c4.47,1.39,8.57,2.26,12.04,4.69c2.37,1.65,2.75-0.68,3.67-1.8c6.06-7.33,15.18-10.2,23.7-7.27
		c1.53,0.53,4.29,0.67,3.43,3.19c-0.86,2.52-2.87,0.48-4.21,0.09c-7.74-2.27-15.53,0.06-20.21,6.02c-1.57,2-1.72,3.29,0.22,5.35
		c4.95,5.22,7.75,11.54,8.03,18.83c0.05,1.42,0.55,3.55-1.49,3.61c-2.01,0.06-1.58-2.09-1.75-3.51
		c-1.61-13.08-10.12-22.76-22.08-25.14c-12.17-2.43-23.96,3.01-30.02,13.79c-2,3.55-2.9,7.4-3.48,11.36
		c-0.2,1.39,0.33,3.67-1.71,3.5c-2.29-0.18-1.56-2.52-1.5-4.08c0.58-13.98,12.45-26.65,27.03-28.21c3.71-0.4,5.2-1.91,6.83-4.96
		c9.13-17.09,23.4-26.73,42.82-28.49c0.5-0.05,1.01-0.16,1.49-0.08c1.45,0.24,3.89-0.92,3.86,1.69c-0.02,2.07-2.2,1.49-3.6,1.56
		c-8.3,0.44-16.03,2.74-23.12,7.06C526.47,419.54,519.84,427,515.44,436.94z"/>
	<path class="st6" d="M481.02,484.97c-0.62,0.65-1.23,1.3-1.85,1.95c-2.03,0.98-3.44-0.67-5.05-1.28
		c-7.19-2.74-13.03,0.45-14.45,7.99c-2.49,13.25,6.19,24.25,19.66,24.97c2.62,0.14,5.35-0.49,7.79,1.01
		c16.86-2.63,30.63-11.53,43.84-21.57c1.02,0.65,2.03,1.29,3.05,1.94c-13.41,10.76-27.95,19.34-44.92,23.22
		c-17.92,3.62-32.43-5.94-34.58-22.78c-0.32-2.49-0.1-4.93,0.38-7.4c1.14-5.89,3.71-10.94,9.79-12.61
		C470.78,478.74,476.47,480.27,481.02,484.97z"/>
	<path class="st7" d="M658.24,430.3c-0.15,1.23,0.74,3.56-1.71,3.58c-2.07,0.02-1.51-2.16-1.63-3.56
		c-1.64-18.89-16.25-33.06-34.57-33.52c-18.95-0.48-33.99,12.51-36.87,31.61c-0.28,1.86,0.99,5.54-1.85,5.34
		c-3.17-0.22-1.64-3.83-1.43-5.8c2.11-20.06,19.89-35.3,40.23-34.69C640.46,393.88,657.42,410.35,658.24,430.3z"/>
	<path class="st8" d="M491.29,529.76c43.27-0.01,86.55-0.02,129.82-0.03c0.83,0,1.67-0.03,2.5,0.04c1.05,0.08,2.13,0.42,2.02,1.67
		c-0.1,1.16-1.14,1.5-2.22,1.51c-1.33,0.01-2.66,0.02-3.99,0.02c-39.94,0-79.89,0-119.83,0.01c-1.83,0-3.65,0.11-5.48,0.17
		C492.41,532.64,488.97,533.59,491.29,529.76z"/>
	<path class="st9" d="M720.59,484.31c-0.72,0.8-1.15,2-2.55,1.88c-1.23-0.92-1.1-2.28-1.24-3.6c-1.31-12.3-9.95-21.07-22.12-22.57
		c-1.48-0.18-3.99,0.57-3.76-1.93c0.21-2.34,2.56-1.44,4.07-1.34c11.14,0.75,20.38,8.41,24.15,19.93c0.59,1.81,0.65,3.74,3.71,3.25
		c9.41-1.51,16.3,6.11,16.91,15.97c0.81,12.97-7.49,23.94-20.36,26.92c-2.09,0.48-4.26,0.67-6.39,0.99
		c-0.02-1.57,0.61-2.88,1.65-4.02c2.14-1.7,4.84-2.12,7.29-3.1c8.28-3.3,12.57-9.6,13.09-18.29
		C735.58,489.36,730.94,485.03,720.59,484.31z"/>
	<path class="st10" d="M661.54,579.95c-1.09,1.61-2.73,1.61-4.43,1.61c-20.27-0.02-40.54,0-60.81-0.06c-1.62,0-4.29,0.82-4.15-2
		c0.11-2.33,2.56-1.56,4.07-1.56c21.43-0.05,42.86-0.03,64.29-0.03C660.86,578.59,661.2,579.27,661.54,579.95z"/>
	<path class="st11" d="M655.65,437.07c15.01,0.59,28.58,14.14,29.07,28.75c0.05,1.42,0.58,3.57-1.33,3.78
		c-2.53,0.28-1.86-2.24-2.08-3.68c-2.36-14.94-10.87-23.45-25.64-25.54c-1.37-0.19-3.6,0.45-3.57-1.63
		C652.14,436.27,654.49,437.26,655.65,437.07z"/>
	<path class="st12" d="M619.82,457.41c-0.91,2.4-2.59,1.29-4.16,1.03c-9.69-1.62-18.06,1.06-25.07,7.91
		c-3.14,3.07-5.26,6.81-6.63,10.96c-0.39,1.18-0.84,2.47-2.22,2.14c-1.82-0.43-1.26-1.92-0.96-3.26
		c3.19-14.17,22.76-25.36,36.65-20.9C618.52,455.65,619.71,455.93,619.82,457.41z"/>
	<path class="st13" d="M677.3,475.22c6.37,0.31,11.98,2.38,16.28,7.34c0.84,0.96,2.15,2.07,0.73,3.36
		c-1.43,1.29-2.32-0.17-3.28-1.04c-7.84-7.04-14.15-7.95-23.1-3.34c-1.27,0.65-2.69,2.17-3.74,0.15c-0.99-1.9,1.08-2.51,2.22-3.25
		C669.69,476.3,673.41,475.51,677.3,475.22z"/>
	<path class="st14" d="M633.73,482.43c0.01,0.74-0.34,1.26-1.03,1.51c-1.43,0.53-2.1-0.58-2.88-1.4c-4.99-5.28-11.06-7.19-18.1-5.43
		c-2.04,0.51-3.91,1.74-5.83,2.7c-0.94,0.47-1.93,0.89-2.7-0.02c-0.76-0.9-0.29-1.8,0.45-2.62c6.26-7.05,26.22-4.14,29.74,4.34
		C633.49,481.83,633.61,482.13,633.73,482.43z"/>
	<path class="st15" d="M514.1,463.41c-8.15-0.02-14.77,4.84-17.67,12.88c-0.5,1.39-0.2,4.02-2.62,3.27
		c-2.16-0.67-0.97-2.9-0.59-4.35c2.28-8.73,11.13-15.26,20.55-15.16c1.81,0.02,4.81-0.67,4.77,2.02
		C518.5,464.8,515.7,463.17,514.1,463.41z"/>
	<path class="st16" d="M608.98,426.93c7.31,0.02,12.59,2.4,16.86,7.04c0.88,0.96,2.04,2.15,0.81,3.45c-1.42,1.5-2.26-0.15-3.18-0.97
		c-8.19-7.27-13.69-8.04-23.47-3.18c-1.22,0.61-2.45,1.62-3.43,0.07c-1.05-1.65,0.63-2.35,1.64-3.02
		C601.76,428.01,605.67,426.79,608.98,426.93z"/>
	<path class="st17" d="M602.01,520.97c-26.93,0-53.86,0-80.79,0c-1.33,0-2.66-0.02-3.98-0.11c-0.95-0.07-1.54-0.76-1.53-1.63
		c0.01-0.91,0.69-1.5,1.62-1.56c1.16-0.08,2.32-0.09,3.49-0.09c54.19,0,108.39,0,162.58,0c1,0,2-0.02,2.99,0.05
		c1,0.07,2.15,0.19,2.25,1.45c0.12,1.56-1.1,1.83-2.33,1.87c-1.33,0.04-2.66,0.03-3.99,0.03
		C655.54,520.97,628.77,520.97,602.01,520.97z"/>
	<path class="st1" d="M720.59,484.31c6.78-2.69,13.01,0.71,15.08,8.24c2.75,9.98-2.53,20.74-12.36,25.03
		c-2.74,1.2-5.6,2.09-8.64,2.2c2.68-10.44,5.96-20.75,6.35-31.66C721.06,486.78,721.13,485.54,720.59,484.31z"/>
	<path class="st18" d="M629.44,541.83c21.44,0,42.88,0,64.31,0c1.16,0,2.33,0,3.49,0.01c1.05,0.01,2.18,0.2,2.3,1.39
		c0.16,1.6-1.15,1.75-2.36,1.8c-0.83,0.03-1.66,0.01-2.49,0.01c-43.71,0-87.41,0-131.12,0c-0.33,0-0.67,0.03-1-0.01
		c-1.53-0.18-4.04,0.65-4.01-1.63c0.03-2.25,2.53-1.54,4.06-1.55C584.91,541.82,607.17,541.83,629.44,541.83z"/>
	<path class="st19" d="M585.94,565.93c16.98,0,33.95,0,50.93,0c1.16,0,2.33,0.02,3.49,0.02c1.12,0,2.09,0.46,2.2,1.57
		c0.13,1.28-1,1.55-2.04,1.62c-1,0.06-2,0.04-2.99,0.04c-34.45,0-68.9,0.01-103.35,0.01c-0.83,0-1.67,0.04-2.5-0.03
		c-1.11-0.08-2.59,0.15-2.65-1.5c-0.05-1.57,1.26-1.72,2.48-1.73c1.5-0.01,3-0.01,4.49-0.01
		C552.66,565.93,569.3,565.93,585.94,565.93z"/>
	<path class="st20" d="M643.36,557.17c-13.48,0-26.96,0.03-40.44-0.04c-1.5-0.01-4.03,0.85-4.14-1.43c-0.14-2.87,2.64-1.83,4.2-1.83
		c27.13-0.06,54.25-0.05,81.38-0.01c1.53,0,4.07-0.75,4.17,1.44c0.13,2.81-2.65,1.81-4.23,1.82
		C670.66,557.21,657.01,557.17,643.36,557.17z"/>
	<path class="st21" d="M707.67,532.75c-20.77,0.07-41.55,0.15-62.33,0.21c-1.27,0-3.13,0.31-3.17-1.49
		c-0.05-2.25,2.05-1.71,3.41-1.71c19.45-0.04,38.9-0.02,58.35-0.05c2.19,0,4.12,0.08,3.7,3.09
		C707.63,532.79,707.67,532.75,707.67,532.75z"/>
	<path class="st22" d="M520.69,545.04c-4.64,0-9.28,0.01-13.91-0.01c-1.18,0-2.58-0.08-2.63-1.59c-0.06-1.6,1.39-1.6,2.54-1.6
		c9.44-0.02,18.88-0.03,28.32,0c1.27,0,2.97-0.21,2.82,1.78c-0.12,1.53-1.6,1.41-2.74,1.41C530.3,545.05,525.5,545.04,520.69,545.04
		z"/>
	<path class="st23" d="M487.13,519.62c-5.31,0.83-10.55,0.72-15.64-1.25c-10.18-3.94-15.95-15.35-13.12-25.95
		c2.2-8.26,8.52-11.27,16.42-7.76c1.51,0.67,2.93,1.51,4.4,2.28c0.89,6.17,1.47,12.4,3.84,18.26c0.63,1.23,0.63,2.62,1.01,3.92
		C485.06,512.61,486.09,516.11,487.13,519.62z"/>
	<path class="st24" d="M484.02,509.11c-2.89-0.65-2.99-2.02-1.01-3.92c6.8,0.06,13.6,0.07,20.4,0.2c1.49,0.03,3.85-0.57,3.65,2
		c-0.16,2.05-2.25,1.5-3.65,1.52C496.96,509.01,490.49,509.05,484.02,509.11z"/>
</g>
</svg>
