<svg width="1432" height="918" viewBox="0 0 1432 918" fill="none" xmlns="http://www.w3.org/2000/svg">
<g clip-path="url(#clip0_1049_2213)">
<rect x="-7" width="1440" height="910" fill="#00C897"/>
<path d="M-126.335 570.701C79.0904 553.056 530.507 542.136 692.772 639.617C895.604 761.468 1208.41 811.407 1323.05 793.429C1437.7 775.451 1738.05 749.483 1824.17 793.429C1893.06 828.586 1813.37 935.374 1763.22 969C1376.05 873.117 358.733 958.013 324.21 958.013C-43.5838 958.013 -167.316 908.289 -157.46 827.887C-149.575 763.565 -133.424 629.629 -126.335 570.701Z" fill="#019267" stroke="#019267"/>
<path d="M481.784 412.14C483.97 409.042 487.235 407.951 490.124 407.214C494.749 406.034 498.53 403.752 502.543 400.968C503.798 400.174 504.811 399.586 506.026 399.57C508.614 399.536 511.943 398.588 513.125 401.552C514.185 404.208 511.09 405.378 509.338 406.72C494.79 417.868 493.047 441.87 505.647 455.871C514.573 465.789 525.039 473.018 538.231 475.943C540.852 476.524 543.459 477.276 544.652 480.596C544.983 485.535 545.631 490.15 544.034 494.638C543.874 495.089 543.905 495.739 543.597 495.987C538.195 500.344 536.219 506.647 533.596 512.689C532.836 514.44 532.181 515.476 533.006 517.341C538.098 528.864 538.712 540.084 530.048 550.356C528.926 551.686 529.887 552.426 530.184 553.369C531.405 557.232 532.138 560.931 528.493 564.061C525.803 566.371 528.693 568.181 529.491 569.818C534.141 579.364 531.87 589.522 525.11 595.374C523.763 596.541 522.283 598.374 520.808 598.429C515.465 598.63 515.881 602.082 515.985 605.666C516.144 611.148 511.92 616.139 504.291 618.032C500.431 618.989 495.619 618.502 495.731 625.135C495.765 627.188 491.577 628.303 488.995 628.855C486.709 629.344 486.131 630.353 485.927 632.486C484.338 649.112 482.696 665.734 480.932 682.342C479.711 693.83 478.633 705.359 479.091 716.882C479.615 730.056 481.216 743.173 483.665 756.533C482.638 758.134 481.311 758.413 480.015 758.2C475.21 757.408 470.618 759.227 465.471 759.148C464.793 758.988 464.53 758.893 463.914 758.575C462.723 757.509 462.035 756.519 461.766 755.394C457.629 738.114 452.551 721 452.326 703.015C452.316 702.184 452.231 701.323 452.417 700.526C456.471 683.173 448.899 667.895 443.72 652.221C442.444 648.36 440.097 647.848 437.575 651.123C432.8 657.323 426.685 658.601 419.418 657.841C414.466 657.323 409.433 657.324 404.74 659.633C403.54 660.223 402.051 660.735 400.867 660.243C395.353 657.948 390.498 660.348 385.485 662.019C382.808 662.911 380.06 663.654 376.783 663.316C370.583 660.98 364.637 658.914 358.763 656.983C353.73 655.329 347.504 655.304 342.414 659.832C332.233 667.808 321.333 666.804 310.476 663.212C305.109 661.436 300.051 660.284 294.537 662.026C291.929 662.85 289.294 662.42 286.425 661.128C283.715 658.817 281.256 658.705 278.326 659.945C268.546 664.083 258.868 663.517 249.813 658.042C245.539 655.457 241.28 656.227 236.494 656.433C234.748 656.379 233.529 655.865 231.956 655.191C229.143 651.242 225.829 649.101 221.187 648.537C218.682 648.233 216.44 646.476 214.164 644.496C213.123 643.243 212.39 642.2 211.338 641.07C207.481 638.768 208.801 634.691 207.224 631.342C207.418 629.641 207.975 628.416 205.655 627.951C196.517 626.119 192.743 620.42 193.983 611.244C194.27 609.119 193.317 608.085 191.388 606.689C185.084 602.131 182.376 595.329 182.05 587.683C181.87 583.441 181.465 579.11 183.002 574.979C183.937 572.464 183.576 571.182 180.756 569.752C175.495 567.086 175.428 556.54 180.559 553.277C182.926 551.771 182.912 550.817 182.268 548.263C179.953 539.08 179.856 530.149 187.563 522.902C190.552 520.09 194.23 518.555 198.03 518.177C201.006 517.882 201.329 516.659 200.977 514.495C199.987 508.424 202.837 504.516 207.837 501.642C211.301 499.651 213.257 497.167 214.338 492.71C216.404 484.191 224.258 480.986 231.955 479.168C240.276 477.203 248.821 476.754 256.985 480.492C258.581 481.223 260.274 481.67 261.43 479.98C264.071 476.116 268.386 475.537 272.645 473.964C278.28 473.436 282.431 470.504 286.903 468.053C295.455 463.367 304.755 461.194 314.946 461.628C318.192 462.269 319.66 464.55 321.293 466.636C325.483 471.992 329.711 477.312 334.606 482.065C336.314 483.724 338.068 485.164 340.911 485.395C349.648 490.581 355.571 498.119 360.676 506.077C361.929 505.568 361.846 505.075 361.772 504.6C361.484 502.738 359.211 500.722 361.123 499.098C363.265 497.279 365.009 499.756 366.802 500.735C368.649 501.744 370.124 503.503 372.906 503.583C372.147 501.044 369.915 499.924 368.7 498.095C367.872 496.849 366.758 495.524 368.024 494.074C369.11 492.832 370.495 493.596 371.704 494.129C374.369 495.303 376.745 497.216 379.913 497.622C379.928 495.454 378.218 494.998 377.292 493.959C376.404 492.963 375.161 492.033 375.676 490.566C376.289 488.824 377.967 488.934 379.485 488.958C380.457 488.974 381.456 489.35 382.85 488.492C380.228 486.132 376.889 485.61 374.074 484.151C372.156 483.157 370.174 482.29 368.199 481.41C366.851 480.81 364.993 480.268 365.09 478.577C365.197 476.717 367.222 476.892 368.607 476.514C370.126 476.1 371.985 476.449 372.991 474.59C370.205 473.388 366.358 475.993 364.508 471.701C367.803 466.911 372.937 466.828 377.116 467.811C385.37 469.751 392.844 468.669 400.784 466.19C407.022 464.243 413.682 463.974 419.165 459.626C421.446 457.817 424.724 457.645 428.026 457.01C431.355 456.295 434.341 459.313 437.024 457.411C439.367 455.75 439.203 452.364 440.352 449.817C443.016 443.913 448.216 441.088 453.805 438.117C458.879 437.099 463.362 435.9 463.718 429.446C465.61 426.137 468.607 426.548 471.341 426.425C475.774 426.226 480.27 426.775 484.59 425.326C489.417 423.708 489.898 421.384 486.119 418.073C484.291 416.471 481.914 415.322 481.784 412.14Z" fill="#D2C5BD"/>
<path d="M463.57 757.629C464.147 757.99 464.396 758.024 465.022 758.097C466.009 758.949 466.448 759.852 466.545 760.864C466.865 764.2 468.778 765.512 471.975 765.159C474.475 764.882 476.971 764.977 479.44 765.327C483.478 765.9 486.2 764.454 487.752 760.284C500.912 759.598 513.571 761.891 526.33 762.889C535.092 763.575 543.754 764.488 552.197 766.986C553.815 767.465 555.865 767.287 556.025 769.879C556.205 772.797 554.043 772.733 552.181 773.322C544.514 775.746 536.629 776.501 528.644 777.079C513.978 778.142 499.347 779.672 484.7 780.999C484.205 781.044 483.701 781.013 483.202 781C468.103 780.604 453.028 781.724 437.958 782.186C377.258 784.046 316.556 782.728 255.86 782.759C239.055 782.768 222.147 782.205 205.341 780.92C195.018 780.131 184.606 779.988 174.391 778.78C162.5 777.374 150.41 776.869 138.755 773.821C137.053 773.375 133.589 773.56 134.048 770.018C134.412 767.211 137.156 766.368 139.084 766.116C151.215 764.536 163.303 762.736 175.544 761.806C193.611 760.434 211.634 758.996 229.771 758.793C234.129 758.744 238.603 758.071 243.505 757.94C244.482 757.988 244.939 758.212 245.558 758.868C247.599 765.371 247.599 765.373 254.082 765.402C255.559 765.408 257.042 765.486 258.512 765.376C265.914 764.822 265.971 764.732 264.917 757.595C265.132 756.643 265.397 756.145 266.116 755.417C268.154 754.295 269.969 754.077 271.796 754.128C290.011 754.635 308.189 753.241 326.391 753.101C329.532 753.077 332.705 753.012 336.104 754.575C337.169 754.895 337.747 755.15 338.691 755.722C340.963 757.803 343.351 757.511 345.646 757.517C355.9 757.542 366.155 757.499 376.41 757.547C378.526 757.557 380.757 757.232 382.806 759.201C382.755 763.334 379.638 762.687 377.469 762.666C366.327 762.56 355.212 763.313 344.083 763.618C357.871 763.078 371.665 763.293 385.456 763.14C387.33 763.119 390.048 764.25 390.716 760.543C390.705 759.249 390.849 758.395 391.347 757.153C392.157 755.987 392.926 755.456 394.235 754.883C408.265 753.473 421.861 754.115 435.916 754.426C439.295 755.347 442.249 755.844 445.75 755.311C450.108 755.059 454.018 755.119 457.925 755.255C459.92 755.324 461.815 755.723 463.57 757.629Z" fill="#DED9D4"/>
<path d="M341.28 485.888C338.394 487.678 336.728 486.25 334.907 484.518C328.143 478.081 322.672 470.55 316.508 463.191C314.034 461.694 312.626 459.667 311.222 457.59C300.329 441.469 290.859 424.568 283.018 406.339C279.305 396.784 275.832 387.545 274.33 377.329C272.162 373.581 272.775 369.626 272.195 365.986C270.341 354.34 270.582 342.496 271.13 330.765C271.708 318.389 274.801 306.431 279.994 295.099C284.312 285.679 292.89 283.945 301.886 283.008C305.635 282.618 309.512 283.82 313.579 282.139C315.797 284.457 316.533 287.076 316.89 289.954C318.45 302.541 318.41 315.043 315.246 327.808C313.469 330.194 311.549 330.775 309.392 329.548C309.42 337.019 310.096 344.565 310.524 352.492C312.843 385.026 322.219 414.774 340.987 441.246C345.596 447.748 350.417 454.107 355.554 460.224C357.861 462.971 360.563 465.707 359.938 470.214C354.408 476.437 348.92 482.22 341.28 485.888Z" fill="#BDE455"/>
<path d="M544.888 480.585C542.403 478.383 539.152 477.774 535.922 476.97C521.052 473.268 509.492 464.609 500.912 452.207C493.439 441.405 493.956 421.469 501.277 411.574C504.258 407.544 509.039 405.561 513.196 401.672C509.653 400.543 506.683 401.209 503.361 400.98C503.215 391.789 507.95 384.462 513.14 377.452C515.411 374.385 518.973 375.394 519.931 379.189C521.308 384.641 521.758 390.12 520.131 395.694C519.353 398.359 520.005 399.641 523.658 400.202C541.338 402.92 559.086 402.996 576.891 403.18C583.528 403.248 590.169 405.29 595.898 409.667C593.194 412.736 589.544 410.931 586.444 411.937C586.906 413.58 588.398 413.204 589.473 413.309C597.214 414.063 598.645 416.78 599.304 426.077C599.406 427.515 598.746 429.009 599.69 430.739C599.221 436.516 595.334 439.108 590.898 441.473C580.202 447.178 569.129 452.501 560.909 461.727C556.068 467.16 551.041 472.385 545.933 477.545C545.119 478.367 544.958 479.213 544.888 480.585Z" fill="#F0E6DD"/>
<path d="M453.994 437.701C453.86 440.706 451.505 441.163 449.655 442.089C444.57 444.636 441.713 448.961 440.243 454.207C438.426 460.691 438.257 460.901 432.011 458.837C431.231 458.579 430.472 458.26 429.324 457.878C427.066 457.572 425.475 456.784 424.061 455.524C409.9 442.911 396.065 429.971 385.202 414.28C381.564 409.027 377.171 403.996 377.173 396.638C378.173 393.856 376.73 391.722 376.417 389.465C375.078 379.776 375.717 370.386 379.225 361.11C381.392 355.381 379.3 349.034 380.884 343.051C381.485 340.785 381.939 338.241 381.515 336.358C380.955 345.577 379.606 355.24 376.694 364.63C374.817 370.685 373.343 376.78 373.446 383.577C371.723 389.36 370.642 394.898 368.913 400.257C368.252 402.304 367.731 404.442 365.174 405.66C360.325 404.983 360.218 401.35 360.02 398.096C359.775 394.078 360.993 390.197 361.868 386.295C366.892 363.879 372.5 341.581 375.62 318.775C376.007 315.942 376.094 313.16 375.655 310.33C375.297 308.027 375.045 305.68 376.69 303.241C382.4 306.674 385.008 312.183 387.097 318.142C392.968 334.896 397.19 352.219 404.063 368.613C411.099 385.398 418.005 402.373 429.476 416.753C436.16 425.133 444.973 431.373 453.994 437.701Z" fill="#BDE455"/>
<path d="M377.007 302.983C378.862 333.242 368.164 361.471 362.651 390.551C361.711 395.51 359.707 400.641 364.668 405.099C366.643 406.638 366.366 408.481 366.09 410.286C365.763 412.418 365.292 414.555 364.424 416.511C357.83 431.374 358.597 446.437 362.893 461.674C363.775 464.802 365.12 467.99 363.565 471.731C361.832 473.077 360.527 472.637 359.083 471.191C359.418 467.903 358.095 465.79 356.298 463.631C341.574 445.93 328.097 427.437 320.196 405.491C314.205 388.851 310.054 371.818 309.141 353.651C310.368 347.062 309.707 340.696 311.146 334.553C311.558 332.795 311.506 330.901 313.225 329.248C316.752 313.707 316.764 298.363 314.016 282.581C316.137 283.361 318.481 282.906 321.139 283.085C324.677 284.92 325.023 288.244 325.798 291.226C328.189 300.42 327.479 309.69 326.289 318.977C324.343 334.167 322.152 349.315 319.439 364.391C318.079 371.95 318.701 372.495 326.358 373.411C333.132 374.222 339.9 375.089 346.67 375.938C352.994 376.731 353.967 376.148 355.647 370.208C359.816 355.47 363.393 340.577 366.896 325.671C368.507 318.817 368.744 311.828 367.699 304.83C367.402 302.84 367.272 300.853 368.259 298.553C368.726 298.017 368.961 297.848 369.626 297.733C372.646 297.977 373.486 300.955 376.065 301.75C376.354 302.237 376.464 302.417 376.816 302.802C377.059 303.006 377.001 303.011 377.007 302.983Z" fill="#52A4C7"/>
<path d="M369.002 297.826C372.912 324.748 362.033 349.047 356.543 374.257C355.822 377.565 354.094 378.537 350.871 378.137C340.97 376.908 331.056 375.765 321.13 374.763C316.19 374.264 316.403 371.127 316.973 367.599C319.176 353.969 321.511 340.359 323.528 326.702C325.648 312.35 327.587 297.948 321.631 283.525C322.393 283.103 323.259 283.062 324.551 283.09C326.328 283.933 327.037 285.268 327.91 286.47C337.462 299.632 352.165 303.856 367.216 297.786C367.678 297.599 368.184 297.596 369.002 297.826Z" fill="#BDE455"/>
<path d="M266.381 755.667C265.984 756.404 265.921 756.952 265.793 757.909C259.032 758.218 252.341 758.224 245.345 759.16C244.722 758.787 244.457 758.571 244.078 758.123C241.868 743.96 238.119 730.416 234.455 716.847C232.897 711.081 231.151 705.317 230.27 699.436C229.808 696.357 231.647 693.266 233.109 690.342C237.495 681.573 240.107 672.535 236.098 662.435C235.329 660.019 234.682 657.967 235.468 655.489C242.052 653.483 247.686 654.739 253.529 658.055C261.91 662.81 270.787 661.682 279.4 657.837C281.867 656.736 284.695 654.792 285.901 659.78C288.849 661.477 288.294 663.928 287.82 666.181C284.806 680.523 277.605 691.915 264.623 699.364C254.203 705.342 252.963 709.106 256.656 720.63C259.797 730.433 263.089 740.18 266.569 749.867C267.217 751.671 268.325 753.569 266.381 755.667Z" fill="#C8BBB1"/>
<path d="M403.359 237.748C400.915 245.822 399.174 253.706 395.885 261.509C392.601 264.53 388.895 264.168 386.074 262.031C378.798 256.518 370.301 255.559 361.772 254.47C351.604 253.17 344.393 245.544 344.355 235.404C344.325 227.295 345.103 219.195 343.429 211.125C342.9 208.576 343.139 205.809 344.602 202.976C348.917 199.23 350.427 203.879 353.317 205.461C353.865 205.765 354.086 205.885 354.627 206.206C355.378 206.685 355.806 206.967 356.57 207.454C368.983 216.093 382.211 219.862 396.982 217.887C401.806 217.242 403.022 218.306 403.134 223.208C403.242 227.945 405.851 232.611 403.359 237.748Z" fill="#F6B86C"/>
<path d="M345.573 201.766C344.701 206.555 344.479 211.144 345.742 215.762C346.905 220.011 346.477 224.26 346.103 228.596C344.684 245.056 350.442 252.156 366.81 253.735C373.96 254.425 380.522 256.18 386.297 260.478C388.977 262.472 391.992 261.905 395.382 261.876C392.081 272.194 387.626 282.023 379.265 289.636C378.092 290.705 376.515 291.33 375.335 292.874C365.208 296.933 355.519 296.597 348.305 288.563C337.168 276.162 329.438 262.182 335.626 244.107C337.538 239.418 338.266 234.856 339.122 229.894C341.312 225.038 340.05 220.426 339.794 215.888C339.636 213.088 338.992 210.287 339.654 207.509C340.363 204.539 341.381 201.705 345.573 201.766Z" fill="#A15A1F"/>
<path d="M283.653 405.779C288.188 414.207 292.196 422.53 296.515 430.688C302.323 441.659 309.3 451.925 316.179 462.64C303.443 462.787 291.543 465.682 281.2 473.562C278.671 475.489 276.294 475.071 273.366 473.883C270.776 469.516 271.56 464.657 271.32 460.267C270.789 450.568 270.263 440.759 271.856 430.981C272.721 425.674 271.897 420.16 272.851 414.729C273.267 412.362 273.568 409.924 274.097 407.091C277.028 404.805 280.129 405.046 283.653 405.779Z" fill="#50A3C9"/>
<path d="M338.677 182.21C344.257 178.853 350.048 177.105 356.115 177.091C363.287 177.074 370.624 175.834 377.558 178.959C379.574 179.868 382.005 179.096 383.069 182.667C383.753 184.964 388.362 184.202 391.18 184.907C394.022 185.617 396.906 186.121 399.825 187.587C403.029 192.691 402.715 195.703 398.516 199.161C394.03 202.854 388.648 203.892 383.022 203.47C373.214 202.735 363.514 201.266 353.628 198.414C349.18 197.31 345.565 195.333 342.13 193.103C338.071 190.468 337.122 187.355 338.677 182.21Z" fill="#A15A1F"/>
<path d="M481.577 411.886C483.121 414.59 485.782 415.788 488.05 417.382C489.942 418.711 491.287 420.302 490.833 422.726C490.416 424.95 488.564 425.937 486.664 426.557C483.201 427.689 479.63 428.101 475.954 428.06C472.192 428.018 468.345 427.416 464.267 429.008C458.646 425.982 452.166 427.287 446.945 424.049C443.774 422.083 440.454 420.39 438.014 417.475C434.725 413.545 435.043 410.687 439.811 408.771C452.44 403.693 465.1 402.88 477.418 410.003C478.651 410.716 479.948 411.321 481.577 411.886Z" fill="#F0E6DD"/>
<path d="M403.469 238.017C403.725 232.095 400.518 226.445 401.676 220.327C402.054 218.326 399.777 218.92 398.663 219.147C382.586 222.436 368.464 217.73 355.179 208.438C354.794 207.873 354.578 207.598 354.135 207.175C353.928 207.011 353.983 207.059 353.957 207.084C352.498 205.232 351.228 203.308 352.363 200.405C354.875 198.412 356.718 199.942 358.475 201.059C372.486 209.964 388.023 210.103 403.741 208.865C407.827 208.543 411.269 206.401 413.814 203.028C414.708 201.843 415.568 200.586 417.429 199.988C418.27 210.411 418.878 220.819 412.097 229.894C409.738 233.05 407.327 236.037 403.469 238.017Z" fill="#A15A1F"/>
<path d="M417.895 199.625C413.738 208.331 406.814 211.132 397.843 211.108C387.14 211.079 376.632 210.628 366.37 207.07C361.68 205.445 358.041 202.291 353.48 199.95C352.425 199.27 352.314 198.505 352.842 197.342C359.091 198.194 365.018 199.773 371.043 200.397C377.681 201.085 384.298 202.943 391.117 201.063C398.73 198.965 400.97 196.118 400.011 188.295C405.1 188.473 409.419 191.103 413.973 193.058C416.581 194.177 417.774 196.448 417.895 199.625Z" fill="#B77848"/>
<path d="M213.841 644.692C218.996 645.123 223.257 648.771 228.886 648.516C230.971 648.422 229.809 652.505 232.039 654.113C233.686 656.331 233.671 658.202 231.618 660.121C230.52 661.082 228.732 656.462 229.163 660.388C229.891 667.035 226.374 672.463 225.157 678.514C224.067 683.935 220.462 686.964 215.236 688.402C210.098 689.816 208.301 688.504 209.076 683.164C209.88 677.627 210.747 672.126 211.162 666.524C211.693 659.356 212.908 652.238 213.841 644.692Z" fill="#666641"/>
<path d="M352.786 196.9C353.109 197.748 353.098 198.46 353.113 199.525C352.481 202.139 353.819 204.142 353.952 206.704C350.734 206.4 349.779 202.624 346.31 201.888C341.146 204.358 340.07 207.492 341.295 214.428C342.197 219.535 343.052 224.7 340.489 229.855C337.077 226.302 332.701 224.406 328.965 221.212C329.258 209.426 329.987 198.038 334.072 187.171C334.884 185.011 335.744 182.852 338.568 181.937C338.163 188.051 341.063 191.814 346.716 193.916C348.705 194.655 350.543 195.803 352.786 196.9Z" fill="#803910"/>
<path d="M369.512 297.981C353.719 307.12 331.395 299.994 324.994 283.516C327.069 282.172 329.162 281.184 331.587 280.065C334.542 279.537 336.534 281.435 339.274 282.011C341.395 283.197 342.407 284.942 343.627 286.493C349.205 293.59 356.018 297.836 365.489 296.036C366.794 295.788 368.123 295.733 369.61 296.727C369.879 296.993 370.004 297.383 370.031 297.585C370.057 297.788 369.703 297.947 369.512 297.981Z" fill="#A7C732"/>
<path d="M370.064 296.714C369.55 296.957 369.188 296.813 368.897 296.901C355.175 301.058 346.462 294.242 339.272 283.319C336.606 280.867 335.108 278.099 334.272 274.574C332.533 269.039 331.694 263.629 331.331 258.254C331.083 254.58 332.279 250.808 332.877 246.695C333.352 244.588 334.627 243.899 336.599 243.673C335.809 250.561 333.78 257.27 335.994 264.328C338.674 272.876 342.767 280.735 348.896 287.072C354.235 292.591 361.08 295.699 369.267 293.014C370.914 292.474 372.637 291.332 374.771 292.741C374.153 295.163 371.773 295.201 370.064 296.714Z" fill="#803910"/>
<path d="M337.097 243.417C335.86 244.607 334.746 245.471 333.28 246.323C325.105 243.713 322.385 228.543 328.56 221.049C333.178 222.86 338.211 223.889 340.013 229.623C339.884 234.501 340.204 239.159 337.097 243.417Z" fill="#F6B86C"/>
<path d="M206.975 631.472C210.049 633.372 209.559 637.187 210.948 640.612C209.342 654.858 207.68 668.735 205.964 682.604C205.785 684.056 205.306 685.474 204.926 686.897C204.53 688.382 203.553 688.577 202.254 688.049C201.169 687.607 199.9 687.225 200.234 685.707C202.5 675.394 202.742 664.822 204.284 654.413C205.391 646.942 206.072 639.407 206.975 631.472Z" fill="#666641"/>
<path d="M487.861 759.761C487.953 766.66 487.943 766.669 481.394 766.604C478.578 766.576 475.757 766.434 472.946 766.548C465.33 766.859 465.262 766.834 465.34 758.549C471.105 756.635 476.897 756.167 483.149 756.827C485.401 756.962 486.663 758.005 487.861 759.761Z" fill="#666641"/>
<path d="M284.021 405.578C281.128 407.267 278.088 407.171 274.595 406.712C274.104 402.755 274.039 398.861 273.908 394.514C273.262 392.66 273.574 391.198 273.696 389.35C273.905 385.258 273.966 381.575 274.103 377.437C277.154 379.299 276.486 382.957 277.504 385.997C279.649 392.404 281.832 398.799 284.021 405.578Z" fill="#A7C732"/>
<path d="M599.949 430.618C598.619 430.905 597.753 430.566 597.982 428.91C598.205 427.291 598.283 425.6 598.08 423.984C597.065 415.885 597.009 416.006 588.964 414.88C586.392 414.52 581.992 414.833 582.31 411.487C582.613 408.314 586.694 410.374 589.076 410.071C591.025 409.823 593.038 410.07 595.482 410.066C600.294 416.155 600.842 423.042 599.949 430.618Z" fill="#666641"/>
<path d="M231.336 660.515C232.771 658.787 232.057 656.861 232.278 654.752C233.251 654.606 234.178 654.823 235.385 655.117C235.793 657.335 237.571 659.276 236.187 661.824C233.846 663.697 232.598 662.451 231.336 660.515Z" fill="#52A4C7"/>
<path d="M334.005 274.545C336.629 276.455 337.323 279.67 338.937 282.761C336.493 283.012 334.432 281.746 332.148 280.199C332.556 278.239 333.192 276.542 334.005 274.545Z" fill="#F6B86C"/>
<path d="M273.513 389.112C273.874 390.364 273.906 391.788 273.89 393.636C272.164 392.67 273.116 390.916 273.513 389.112Z" fill="#BDE455"/>
<path d="M377.011 302.782C376.798 302.858 376.537 302.71 376.261 302.309C376.585 302.079 376.825 302.246 377.011 302.782Z" fill="#BDE455"/>
<path d="M336.284 734.371C332.024 734.333 331.488 731.834 332.131 728.92C335.29 714.606 337.27 700.122 339.131 685.591C340.23 677.007 340.923 668.394 341.912 659.368C342.692 655.233 344.939 654.193 348.439 655.357C349.205 655.612 350.203 655.927 350.856 655.651C360.572 651.538 367.053 660.598 375.777 661.858C374.24 681.276 372.012 700.416 368.915 719.437C367.903 725.657 366.125 731.752 364.354 738.118C362.185 738.596 360.373 739.082 358.119 738.559C355.92 738.062 354.151 737.387 351.834 737.56C346.481 736.602 341.399 736.403 336.284 734.371Z" fill="#50A3C9"/>
<path d="M362.608 471.8C363.393 471.837 363.829 471.912 364.598 471.948C367.171 473.748 369.638 473.042 372.036 472.443C373.7 472.027 375.164 472.125 375.712 473.896C376.292 475.774 374.851 476.438 373.363 477.068C371.009 478.065 368.51 477.966 365.825 478.82C371.068 481.11 376.302 483.426 381.562 485.678C383.367 486.45 386.143 486.919 385.42 489.334C384.605 492.053 381.92 490.99 379.841 490.445C378.748 490.159 377.638 489.617 376.177 491.129C377.818 492.446 379.389 493.788 381.048 495.01C382.352 495.971 383.505 496.974 382.437 498.683C381.41 500.327 379.914 499.951 378.478 499.222C375.268 497.593 372.066 495.947 368.047 493.892C369.397 497.779 372.282 499.306 374.17 501.596C374.994 502.595 376.373 503.509 375.249 504.982C374.158 506.412 372.556 506.317 371.199 505.45C368.059 503.443 365.016 501.286 360.912 498.495C362.259 501.733 363.209 503.756 363.926 505.86C364.234 506.766 364.162 507.928 363.146 508.527C362.112 509.137 361.232 508.551 360.475 507.848C359.866 507.283 359.142 506.756 358.751 506.055C354.388 498.215 348.078 492.134 341.082 486.206C346.686 480.932 352.456 475.967 358.546 470.901C359.997 471.147 361.128 471.492 362.608 471.8Z" fill="#F2BB84"/>
<path d="M357.391 737.292C359.631 736.882 361.409 737.622 363.619 738.234C364.564 739.039 361.407 739.758 363.633 739.809C368.978 739.931 374.086 741.055 379.309 741.831C389.4 743.33 391.313 744.629 394.009 755.636C393.816 756.775 393.241 756.919 392.261 756.963C389.598 759.333 386.615 758.558 383.901 758.418C371.48 757.777 359.068 757.695 346.653 758.473C343.98 758.64 341.357 758.389 338.398 757.248C337.688 756.854 337.399 756.688 337.048 756.271C334.836 749.113 336.554 742.022 335.963 734.581C341.442 733.412 346.641 735.147 352.393 736.147C353.052 736.991 351.132 739.373 354.179 737.984C355.118 737.556 356.113 737.523 357.391 737.292Z" fill="#666641"/>
<path d="M391.489 759.597C394.329 763.797 393.915 764.858 389.532 764.887C373.048 764.997 356.563 764.99 340.079 765.007C338.838 765.008 337.08 765.511 337.065 763.475C337.051 761.465 338.782 761.893 340.049 761.874C352.033 761.695 364.018 761.55 376.001 761.339C378.151 761.301 380.297 761.006 382.675 760.474C385.415 757.608 388.251 758.288 391.489 759.597Z" fill="#666641"/>
<path d="M244.99 759.437C251.539 755.923 258.235 755.514 265.405 758.124C268.982 765.841 268.552 766.508 260.264 766.633C257.452 766.676 254.639 766.645 251.826 766.643C245.126 766.639 245.126 766.638 244.99 759.437Z" fill="#666641"/>
<path d="M391.922 759.561C389.173 759.947 386.487 759.973 383.353 760.058C381.44 758.635 379.564 759.004 377.78 759.003C366.29 758.996 354.801 759.019 343.311 758.978C341.57 758.972 339.607 759.612 338.121 757.403C355.656 757.013 373.337 757.008 391.483 757.007C391.96 757.741 391.973 758.471 391.922 759.561Z" fill="black"/>
<path d="M437.346 756.438C439.932 756.189 442.837 756.186 445.938 756.566C443.311 756.861 440.487 756.772 437.346 756.438Z" fill="#F0E6DD"/>
<path d="M313.356 328.863C312.327 336.896 311.869 344.906 309.347 352.914C308.532 343.893 307.311 334.585 308.262 324.856C310.317 325.806 309.365 330.526 313.356 328.863Z" fill="#A7C732"/>
<path d="M529.005 427.242C526.783 427.959 524.568 429.055 523.36 426.856C522.579 425.434 524.172 424.116 525.46 423.347C527.635 422.05 530.775 420.485 532.349 422.311C534.68 425.014 531.055 425.844 529.005 427.242Z" fill="#666641"/>
<path d="M378.137 396.953C375.998 392.859 373.681 388.914 372.412 384.323C371.743 378.73 372.237 373.385 373.923 368.041C377.505 356.692 379.92 345.052 381.693 333.243C381.743 338.66 382.638 344.063 381.359 349.463C381.06 350.726 380.59 352.607 381.211 353.317C384.163 356.69 381.794 359.604 380.624 362.436C376.473 372.483 376.748 382.699 378.823 393.083C379.065 394.295 380.784 395.841 378.137 396.953Z" fill="#A7C732"/>
<path d="M388.647 225.256C393.766 224.534 397.317 226.695 400.211 230.163C401.197 231.346 401.694 232.946 400.69 234.285C399.596 235.745 398.273 234.555 397.158 234.026C394.473 232.752 391.809 231.426 389.189 230.021C387.094 228.898 386.127 227.425 388.647 225.256Z" fill="#A15A1F"/>
<path d="M356.198 218.724C360.303 217.437 364.041 217.38 367.7 218.94C369.185 219.573 370.263 220.59 369.896 222.375C369.537 224.119 368.066 224.109 366.741 224.017C363.442 223.787 360.136 223.566 356.859 223.14C353.129 222.655 353.86 220.908 356.198 218.724Z" fill="#A15A1F"/>
<path d="M361.28 236.152C360.729 235.986 360.553 235.936 360.443 235.822C358.121 233.419 359.045 231.228 361.182 229.492C362.466 228.449 364.315 228.631 364.839 230.429C365.639 233.176 365.525 235.824 361.28 236.152Z" fill="#803910"/>
<path d="M393.32 243.071C390.591 244.771 388.929 244.243 388.557 241.326C388.37 239.857 388.734 238.367 390.082 237.427C391.089 236.725 392.402 236.465 393.253 237.323C394.841 238.925 394.373 240.891 393.32 243.071Z" fill="#803910"/>
<path d="M353.982 207.291C354.204 207.234 354.479 207.456 354.871 207.923C354.67 207.968 354.353 207.77 353.982 207.291Z" fill="#803910"/>
<path d="M361.296 260.396C360.333 255.418 362.038 254.383 366.347 255.852C370.885 257.4 375.572 258.544 380.244 259.655C382.809 260.266 383.604 261.128 382.223 263.722C380.157 267.603 377.934 270.651 372.778 270.196C367.026 269.688 363.739 267.229 361.296 260.396Z" fill="#F0E6DD"/>
<path d="M227.566 654.331C226.256 653.908 225.718 653.068 226.461 651.379C226.982 652.459 227.384 653.293 227.566 654.331Z" fill="black"/>
<path d="M357.365 737.056C356.456 737.907 355.3 738.814 354.002 739.415C352.701 740.017 351.16 742.142 349.879 740.055C348.566 737.915 351.289 737.713 352.58 736.465C354.341 735.97 355.708 736.424 357.365 737.056Z" fill="#DED9D4"/>
<path d="M374.458 489.533C374.494 489.589 374.422 489.477 374.458 489.533Z" fill="#D2C5BD"/>
</g>
<defs>
<clipPath id="clip0_1049_2213">
<rect width="1432" height="918" fill="white"/>
</clipPath>
</defs>
</svg>
