<svg version="1.1" id="Layer_1" xmlns="http://www.w3.org/2000/svg" xmlns:xlink="http://www.w3.org/1999/xlink" x="0px" y="0px"
	 width="100%" viewBox="0 0 945 760" enable-background="new 0 0 945 760" xml:space="preserve">
<path fill="#000000" opacity="1.000000" stroke="none" 
	d="
M664.000000,761.000000 
	C444.166718,761.000000 224.833466,760.988831 5.500240,761.093445 
	C1.751444,761.095215 0.905072,760.249817 0.906617,756.500122 
	C1.009800,506.166931 1.009792,255.833679 0.906729,5.500462 
	C0.905186,1.752293 1.749409,0.905556 5.499605,0.906771 
	C317.499481,1.007874 629.499390,1.007850 941.499268,0.906980 
	C945.246582,0.905769 946.095032,1.748329 946.093506,5.499331 
	C945.990173,255.832550 945.990173,506.165833 946.093140,756.499023 
	C946.094666,760.245972 945.252930,761.100098 941.500793,761.095154 
	C849.167358,760.973572 756.833618,761.000000 664.000000,761.000000 
z"/>
<path fill="#D2C5BD" opacity="1.000000" stroke="none" 
	d="
M481.783508,333.140259 
	C483.969543,330.042114 487.235260,328.951080 490.124298,328.214203 
	C494.748566,327.034607 498.529999,324.752258 502.542908,321.968201 
	C503.797394,321.174347 504.810760,320.586029 506.025665,320.570282 
	C508.613953,320.536774 511.942505,319.588379 513.125061,322.552277 
	C514.184753,325.208344 511.090271,326.378174 509.338165,327.720795 
	C494.790283,338.868683 493.046844,362.870697 505.646851,376.871155 
	C514.572937,386.789337 525.038818,394.018005 538.230591,396.943481 
	C540.851807,397.524811 543.459106,398.276855 544.651550,401.596619 
	C544.982971,406.535645 545.630859,411.150208 544.034302,415.638336 
	C543.873901,416.089264 543.904602,416.739075 543.596985,416.987244 
	C538.195068,421.344757 536.218872,427.647827 533.596191,433.689362 
	C532.836121,435.440186 532.181213,436.476318 533.005432,438.341522 
	C538.097656,449.864838 538.711670,461.084473 530.047424,471.356812 
	C528.925598,472.686890 529.886414,473.426819 530.184204,474.369446 
	C531.404541,478.231934 532.138245,481.931244 528.492493,485.061737 
	C525.802917,487.371185 528.692993,489.181152 529.490601,490.818665 
	C534.140564,500.364899 531.869629,510.522552 525.110352,516.374207 
	C523.762390,517.541199 522.282532,519.374451 520.808289,519.429749 
	C515.465210,519.630249 515.880920,523.082458 515.984985,526.666809 
	C516.144165,532.148071 511.920197,537.139526 504.290955,539.032104 
	C500.430878,539.989685 495.619080,539.502197 495.730469,546.135742 
	C495.764954,548.188171 491.577118,549.303589 488.994598,549.855896 
	C486.709167,550.344604 486.131012,551.353882 485.927124,553.486389 
	C484.337402,570.112366 482.695831,586.734070 480.931610,603.342346 
	C479.711334,614.830322 478.632751,626.358948 479.090942,637.882568 
	C479.614716,651.056702 481.215759,664.172974 483.664612,677.533447 
	C482.637848,679.134460 481.311279,679.413818 480.015106,679.200073 
	C475.210144,678.407959 470.617401,680.226929 465.470825,680.148682 
	C464.792786,679.988403 464.529785,679.893738 463.913696,679.575012 
	C462.723206,678.509888 462.035248,677.519043 461.766022,676.394409 
	C457.629181,659.114258 452.551025,642.000732 452.326080,624.015747 
	C452.315674,623.184387 452.230560,622.323669 452.416809,621.526428 
	C456.470795,604.173828 448.898407,588.895081 443.719513,573.220947 
	C442.444092,569.360718 440.097260,568.848877 437.575348,572.123413 
	C432.800293,578.323547 426.685181,579.601440 419.418304,578.841309 
	C414.466156,578.323242 409.433258,578.324890 404.740295,580.633301 
	C403.539856,581.223755 402.050873,581.735901 400.866577,581.243042 
	C395.353027,578.948181 390.497681,581.347961 385.484985,583.019226 
	C382.808319,583.911621 380.059814,584.654907 376.782990,584.316528 
	C370.582611,581.980530 364.636810,579.914185 358.763306,577.983459 
	C353.730194,576.329041 347.504364,576.304565 342.413696,580.832703 
	C332.232880,588.808472 321.333252,587.804565 310.475555,584.212219 
	C305.109009,582.436584 300.051331,581.284546 294.536926,583.026855 
	C291.928864,583.850891 289.293732,583.420105 286.424805,582.128540 
	C283.715210,579.817871 281.255371,579.705811 278.325409,580.945496 
	C268.545624,585.083496 258.867615,584.517456 249.812592,579.042175 
	C245.538467,576.457825 241.279648,577.227356 236.493958,577.433472 
	C234.747452,577.379761 233.529083,576.865906 231.955856,576.191101 
	C229.142776,572.242310 225.828934,570.101074 221.187164,569.537781 
	C218.682297,569.233887 216.439438,567.476440 214.163513,565.496826 
	C213.122574,564.243225 212.390320,563.200378 211.338348,562.070801 
	C207.480804,559.768494 208.801285,555.691467 207.223663,552.342773 
	C207.418243,550.641663 207.974945,549.416870 205.654877,548.951721 
	C196.517334,547.119873 192.743149,541.420105 193.982544,532.244141 
	C194.269577,530.119019 193.317169,529.085327 191.387573,527.689819 
	C185.083954,523.130920 182.375443,516.329529 182.050217,508.683197 
	C181.869781,504.440918 181.464615,500.110382 183.001755,495.978943 
	C183.937347,493.464264 183.576096,492.182190 180.756134,490.752808 
	C175.494720,488.085938 175.427734,477.540100 180.558655,474.277313 
	C182.926193,472.771790 182.912231,471.817596 182.268234,469.263672 
	C179.952713,460.080566 179.856018,451.149445 187.562393,443.902130 
	C190.552277,441.090363 194.230087,439.554993 198.030075,439.177917 
	C201.005386,438.882690 201.329346,437.658936 200.976791,435.495636 
	C199.987305,429.424347 202.836868,425.516876 207.836685,422.642700 
	C211.301331,420.651031 213.257156,418.167023 214.337860,413.710846 
	C216.403931,405.191620 224.257706,401.986450 231.954834,400.168518 
	C240.275818,398.203186 248.821075,397.754059 256.984833,401.492310 
	C258.580414,402.222961 260.274170,402.670685 261.429840,400.979950 
	C264.070923,397.116211 268.385376,396.537659 272.644867,394.964203 
	C278.279694,394.436279 282.430450,391.504700 286.902954,389.053772 
	C295.454529,384.367523 304.754517,382.194733 314.945892,382.628693 
	C318.191895,383.269440 319.660339,385.550201 321.292664,387.636353 
	C325.483307,392.992096 329.710541,398.312103 334.605438,403.065857 
	C336.313416,404.724548 338.067749,406.164764 340.910553,406.395172 
	C349.648285,411.581818 355.571259,419.119598 360.676147,427.076935 
	C361.928772,426.568329 361.845490,426.075256 361.772064,425.600037 
	C361.484314,423.738678 359.211212,421.722412 361.122803,420.098877 
	C363.265289,418.279205 365.009064,420.755920 366.802094,421.735443 
	C368.648560,422.744141 370.123779,424.503571 372.906128,424.583466 
	C372.147064,422.044678 369.914978,420.923981 368.699493,419.095093 
	C367.871674,417.849426 366.757446,416.524139 368.023865,415.074860 
	C369.109406,413.832611 370.494659,414.596649 371.704041,415.129425 
	C374.369110,416.303467 376.745361,418.216675 379.912811,418.622467 
	C379.927856,416.454315 378.218323,415.997955 377.291504,414.959167 
	C376.403381,413.963715 375.160522,413.033844 375.676208,411.566803 
	C376.288635,409.824615 377.966797,409.934296 379.484436,409.958588 
	C380.457275,409.974152 381.456360,410.350708 382.850067,409.492035 
	C380.227722,407.132233 376.888611,406.610077 374.073608,405.151428 
	C372.155487,404.157532 370.173767,403.290253 368.198761,402.410797 
	C366.851318,401.810791 364.992889,401.268341 365.089966,399.577332 
	C365.196777,397.717316 367.222351,397.892059 368.606781,397.514740 
	C370.125732,397.100769 371.985077,397.449677 372.990723,395.590240 
	C370.204498,394.388214 366.357605,396.993011 364.508270,392.701050 
	C367.803375,387.911621 372.936859,387.828766 377.115479,388.811066 
	C385.369720,390.751404 392.843811,389.669281 400.784332,387.190704 
	C407.021454,385.243866 413.681854,384.974304 419.165100,380.626251 
	C421.446014,378.817505 424.723480,378.645111 428.025726,378.010315 
	C431.355347,377.295410 434.341248,380.313385 437.023956,378.411560 
	C439.367065,376.750458 439.202454,373.363922 440.351410,370.817505 
	C443.015625,364.912933 448.215393,362.088867 453.805054,359.117493 
	C458.878815,358.099487 463.362366,356.900299 463.717590,350.446198 
	C465.609619,347.137115 468.607239,347.548523 471.341125,347.425598 
	C475.774292,347.226288 480.269653,347.775543 484.589783,346.326752 
	C489.416748,344.707977 489.898163,342.384521 486.119263,339.073822 
	C484.290405,337.471588 481.913605,336.322327 481.783508,333.140259 
z"/>
<path fill="#DED9D4" opacity="1.000000" stroke="none" 
	d="
M463.569885,678.628540 
	C464.147125,678.989441 464.396515,679.024109 465.021606,679.097351 
	C466.009338,679.948853 466.447784,680.851685 466.544800,681.863708 
	C466.864746,685.200134 468.777802,686.512146 471.974823,686.158447 
	C474.475159,685.881897 476.971436,685.977173 479.440186,686.327087 
	C483.477905,686.899475 486.200500,685.453918 487.752319,681.284058 
	C500.912140,680.598328 513.571350,682.890808 526.330383,683.889343 
	C535.091736,684.574951 543.753601,685.487854 552.196716,687.985962 
	C553.814636,688.464661 555.865479,688.286560 556.025269,690.878540 
	C556.205200,693.797363 554.043030,693.733276 552.180908,694.321960 
	C544.513733,696.745850 536.628967,697.500610 528.643860,698.079285 
	C513.978333,699.141907 499.346771,700.671997 484.700317,701.999268 
	C484.204895,702.044128 483.701385,702.012878 483.202087,701.999817 
	C468.102631,701.603638 453.027802,702.724121 437.957916,703.185913 
	C377.257629,705.045898 316.555817,703.728333 255.859741,703.759094 
	C239.055008,703.767639 222.147354,703.204468 205.341400,701.920044 
	C195.018433,701.131104 184.605637,700.987549 174.391449,699.779907 
	C162.499557,698.373901 150.409760,697.868835 138.755005,694.820496 
	C137.053055,694.375305 133.588943,694.559753 134.047882,691.018066 
	C134.411606,688.211243 137.156021,687.367432 139.084076,687.116333 
	C151.215088,685.536072 163.303085,683.735779 175.544144,682.805908 
	C193.610565,681.433533 211.634247,679.996155 229.771439,679.793030 
	C234.128891,679.744202 238.603363,679.070801 243.505081,678.939819 
	C244.482239,678.988281 244.938858,679.211975 245.558502,679.867920 
	C247.598984,686.371216 247.598984,686.372681 254.082550,686.401611 
	C255.559341,686.408203 257.041962,686.485962 258.511993,686.376099 
	C265.913971,685.822388 265.971008,685.731934 264.917114,678.594604 
	C265.132294,677.642517 265.396881,677.144897 266.116211,676.417236 
	C268.154327,675.294495 269.969543,675.076721 271.796539,675.127563 
	C290.011505,675.635376 308.189423,674.241028 326.390869,674.100647 
	C329.531860,674.076477 332.704712,674.011963 336.104095,675.575195 
	C337.169220,675.894409 337.747131,676.149780 338.691467,676.722107 
	C340.962952,678.803223 343.350708,678.510925 345.645996,678.516602 
	C355.900482,678.542114 366.155182,678.499207 376.409576,678.547058 
	C378.526428,678.556946 380.756897,678.231750 382.806000,680.201050 
	C382.754547,684.334167 379.637756,683.686829 377.469086,683.666138 
	C366.326599,683.559998 355.211945,684.312744 344.083282,684.617615 
	C357.870941,684.077820 371.665131,684.292542 385.455994,684.139709 
	C387.330200,684.119019 390.048401,685.250366 390.716125,681.543152 
	C390.705292,680.249084 390.848816,679.394897 391.347107,678.152893 
	C392.156647,676.986450 392.925842,676.455688 394.235229,675.883301 
	C408.264679,674.472656 421.860962,675.114807 435.915619,675.425415 
	C439.294708,676.347229 442.249084,676.844116 445.749573,676.310974 
	C450.108429,676.058838 454.017670,676.118713 457.925232,676.254761 
	C459.919586,676.324158 461.815552,676.723022 463.569885,678.628540 
z"/>
<path fill="#BDE455" opacity="1.000000" stroke="none" 
	d="
M341.280426,406.887878 
	C338.393555,408.678040 336.727783,407.249756 334.906952,405.517273 
	C328.142731,399.081146 322.671936,391.550171 316.507507,384.190765 
	C314.034454,382.693756 312.625549,380.666840 311.221924,378.589539 
	C300.328796,362.468872 290.859100,345.568024 283.018219,327.339142 
	C279.305084,317.783478 275.831787,308.544312 274.329926,298.328857 
	C272.161987,294.580353 272.774750,290.625854 272.195160,286.985840 
	C270.340820,275.339996 270.581879,263.495575 271.129791,251.764465 
	C271.707825,239.388306 274.800995,227.430954 279.994415,216.098541 
	C284.311493,206.678391 292.889923,204.944778 301.885956,204.007904 
	C305.634583,203.617508 309.511841,204.820145 313.579102,203.138382 
	C315.796631,205.457199 316.532959,208.076172 316.889618,210.953461 
	C318.449860,223.540298 318.409576,236.042572 315.245819,248.807892 
	C313.469116,251.193390 311.549042,251.774261 309.392334,250.547974 
	C309.420135,258.018799 310.096191,265.564270 310.523590,273.491364 
	C312.842712,306.026093 322.219177,335.774048 340.986969,362.246033 
	C345.596191,368.747345 350.416718,375.106812 355.553650,381.223328 
	C357.861176,383.970947 360.562714,386.707031 359.937683,391.213562 
	C354.408295,397.436249 348.919525,403.219482 341.280426,406.887878 
z"/>
<path fill="#F0E6DD" opacity="1.000000" stroke="none" 
	d="
M544.887512,401.585632 
	C542.402710,399.382996 539.151550,398.774597 535.921936,397.970490 
	C521.052124,394.268280 509.491760,385.609833 500.911835,373.207031 
	C493.439392,362.405151 493.955963,342.469055 501.276703,332.574524 
	C504.258331,328.544678 509.039032,326.560852 513.196045,322.672821 
	C509.652496,321.542969 506.683319,322.209808 503.360535,321.980316 
	C503.214661,312.789612 507.949951,305.462189 513.140198,298.452454 
	C515.411316,295.385132 518.972961,296.394623 519.931335,300.189545 
	C521.308289,305.641815 521.757996,311.120728 520.130981,316.694397 
	C519.352966,319.359802 520.005005,320.640869 523.658020,321.202515 
	C541.338196,323.920776 559.086121,323.996704 576.891235,324.180267 
	C583.527771,324.248749 590.168945,326.290741 595.898315,330.667236 
	C593.193665,333.736115 589.544189,331.931366 586.443726,332.937683 
	C586.905701,334.580017 588.398132,334.204407 589.473145,334.309082 
	C597.213440,335.063019 598.645020,337.780365 599.304077,347.077240 
	C599.406067,348.515472 598.745728,350.009613 599.689941,351.739136 
	C599.220459,357.516632 595.334045,360.107941 590.898315,362.473633 
	C580.202209,368.178101 569.128906,373.501556 560.908569,382.727539 
	C556.067810,388.160553 551.041077,393.385345 545.932861,398.545685 
	C545.119080,399.367828 544.957825,400.213196 544.887512,401.585632 
z"/>
<path fill="#BDE455" opacity="1.000000" stroke="none" 
	d="
M453.993896,358.701111 
	C453.860413,361.705811 451.505066,362.162628 449.655640,363.088989 
	C444.569916,365.636536 441.713165,369.960999 440.243347,375.206604 
	C438.426514,381.690765 438.257324,381.900909 432.011322,379.836761 
	C431.231659,379.579102 430.472321,379.260132 429.323853,378.878540 
	C427.066650,378.572052 425.475586,377.784119 424.061279,376.524414 
	C409.900574,363.911285 396.065704,350.970978 385.201874,335.280304 
	C381.564697,330.027039 377.170776,324.996185 377.173096,317.637695 
	C378.173676,314.856476 376.729797,312.722443 376.417633,310.465271 
	C375.077759,300.775940 375.717529,291.386078 379.225372,282.110474 
	C381.391998,276.381348 379.299927,270.034058 380.884460,264.051575 
	C381.484802,261.784851 381.939026,259.241180 381.514771,257.358093 
	C380.954895,266.576813 379.605743,276.239716 376.694641,285.630280 
	C374.817719,291.684662 373.342926,297.779755 373.445923,304.577087 
	C371.723511,310.360016 370.642151,315.897888 368.912842,321.257355 
	C368.252472,323.304016 367.731567,325.441620 365.174072,326.660248 
	C360.325623,325.982788 360.217865,322.350006 360.019836,319.096436 
	C359.775238,315.077728 360.993530,311.197540 361.868256,307.294830 
	C366.892365,284.878845 372.500000,262.581512 375.620026,239.775482 
	C376.007629,236.942184 376.094574,234.160507 375.654785,231.329880 
	C375.296967,229.026825 375.045288,226.679764 376.689880,224.241302 
	C382.399780,227.674408 385.008301,233.182785 387.096771,239.142212 
	C392.968231,255.896149 397.190582,273.218842 404.063263,289.613098 
	C411.099640,306.397797 418.005371,323.373108 429.475800,337.753113 
	C436.159912,346.132782 444.973145,352.373047 453.993896,358.701111 
z"/>
<path fill="#52A4C7" opacity="1.000000" stroke="none" 
	d="
M377.007202,223.983276 
	C378.862091,254.242645 368.163666,282.470764 362.651306,311.550873 
	C361.711304,316.509827 359.707550,321.641144 364.667908,326.099518 
	C366.643280,327.637848 366.366058,329.481384 366.089905,331.285858 
	C365.763580,333.417908 365.291809,335.555298 364.424164,337.511108 
	C357.830505,352.374603 358.597595,367.437561 362.893188,382.674164 
	C363.775085,385.802277 365.120483,388.990326 363.565063,392.730988 
	C361.832611,394.077148 360.527100,393.637390 359.083008,392.190796 
	C359.418427,388.903381 358.094818,386.790222 356.298523,384.630890 
	C341.573639,366.929749 328.097504,348.436920 320.196198,326.490753 
	C314.205261,309.850769 310.054504,292.817932 309.140747,274.651428 
	C310.367798,268.062531 309.707397,261.696075 311.146332,255.552765 
	C311.558014,253.795151 311.506348,251.901459 313.225372,250.247849 
	C316.751953,234.707443 316.764038,219.363129 314.015991,203.581299 
	C316.137268,204.361008 318.481476,203.906281 321.139587,204.085236 
	C324.677521,205.920425 325.023224,209.243805 325.798615,212.226196 
	C328.188965,221.419937 327.479401,230.690292 326.289459,239.976959 
	C324.343079,255.167068 322.151703,270.315491 319.439423,285.391541 
	C318.079529,292.950317 318.700775,293.495422 326.358551,294.411560 
	C333.132416,295.221924 339.900604,296.088837 346.670197,296.938171 
	C352.993958,297.731506 353.967316,297.148590 355.647400,291.208710 
	C359.816071,276.470490 363.393372,261.577393 366.896271,246.670914 
	C368.506897,239.817139 368.744171,232.828644 367.699341,225.830322 
	C367.402222,223.840042 367.272217,221.853653 368.258911,219.552841 
	C368.725800,219.017319 368.960754,218.848068 369.626587,218.733612 
	C372.646515,218.977310 373.485718,221.955215 376.065430,222.750641 
	C376.354614,223.236786 376.464233,223.417480 376.816406,223.802429 
	C377.058899,224.006653 377.001526,224.011368 377.007202,223.983276 
z"/>
<path fill="#BDE455" opacity="1.000000" stroke="none" 
	d="
M369.001526,218.826645 
	C372.911621,245.748001 362.033081,270.047302 356.542847,295.257172 
	C355.822418,298.565186 354.094269,299.537445 350.870789,299.137421 
	C340.969696,297.908691 331.056061,296.764862 321.129669,295.762756 
	C316.189545,295.264038 316.403107,292.127594 316.973358,288.599213 
	C319.176208,274.969452 321.510986,261.359070 323.528168,247.701828 
	C325.647827,233.350510 327.586578,218.948395 321.631165,204.525146 
	C322.392700,204.103531 323.259216,204.061798 324.550964,204.090256 
	C326.327789,204.933182 327.036835,206.268051 327.909454,207.470413 
	C337.462219,220.632477 352.164703,224.856720 367.215973,218.785995 
	C367.678314,218.599518 368.184143,218.595764 369.001526,218.826645 
z"/>
<path fill="#C8BBB1" opacity="1.000000" stroke="none" 
	d="
M266.380768,676.667419 
	C265.983856,677.404297 265.920654,677.952393 265.792847,678.909119 
	C259.031738,679.218811 252.340454,679.223999 245.344986,680.160522 
	C244.721909,679.787598 244.457306,679.571167 244.077881,679.122986 
	C241.868271,664.960754 238.118942,651.415955 234.454590,637.847595 
	C232.897278,632.081177 231.151062,626.317810 230.269577,620.436401 
	C229.808151,617.357666 231.646774,614.266418 233.109283,611.342346 
	C237.494980,602.573792 240.106827,593.535583 236.097992,583.435181 
	C235.329010,581.019043 234.682114,578.967163 235.467758,576.489502 
	C242.052200,574.483093 247.685944,575.739563 253.528641,579.054932 
	C261.909424,583.810547 270.786560,582.682373 279.400146,578.837585 
	C281.867310,577.736389 284.695221,575.792419 285.900879,580.780518 
	C288.848969,582.477783 288.293640,584.927979 287.820129,587.181030 
	C284.805756,601.523315 277.605225,612.915710 264.623169,620.364136 
	C254.203293,626.342468 252.962509,630.106689 256.655701,641.630249 
	C259.797363,651.432922 263.088928,661.180786 266.569366,670.867737 
	C267.217316,672.671082 268.324799,674.569824 266.380768,676.667419 
z"/>
<path fill="#F6B86C" opacity="1.000000" stroke="none" 
	d="
M403.358643,158.748230 
	C400.914703,166.822540 399.174042,174.706558 395.885498,182.508850 
	C392.601379,185.530106 388.894623,185.167847 386.074036,183.030930 
	C378.797729,177.518326 370.300964,176.559631 361.772278,175.469910 
	C351.603912,174.170670 344.393402,166.544525 344.355316,156.403870 
	C344.324829,148.295288 345.102844,140.195541 343.428864,132.124908 
	C342.900116,129.575958 343.138733,126.809082 344.601746,123.976311 
	C348.916779,120.229836 350.427032,124.879623 353.317352,126.460892 
	C353.864899,126.764977 354.085602,126.885674 354.627472,127.206535 
	C355.378082,127.685387 355.805725,127.966789 356.569702,128.454620 
	C368.982819,137.093430 382.211090,140.862503 396.982361,138.887329 
	C401.805725,138.242371 403.022095,139.305984 403.134094,144.207947 
	C403.242310,148.944794 405.850891,153.611084 403.358643,158.748230 
z"/>
<path fill="#A15A1F" opacity="1.000000" stroke="none" 
	d="
M345.573151,122.766052 
	C344.701355,127.555214 344.478485,132.144806 345.742096,136.762741 
	C346.904694,141.011627 346.476746,145.260864 346.102966,149.596283 
	C344.683807,166.056305 350.442139,173.156647 366.810394,174.735764 
	C373.960327,175.425552 380.522278,177.180191 386.297302,181.477966 
	C388.977386,183.472504 391.992432,182.905884 395.381958,182.876923 
	C392.081085,193.194656 387.625824,203.023239 379.265289,210.636292 
	C378.091522,211.705124 376.515289,212.330048 375.335266,213.874832 
	C365.208008,217.933380 355.518860,217.597458 348.304626,209.563904 
	C337.167664,197.162048 329.438385,183.182831 335.626068,165.107681 
	C337.537903,160.417953 338.265930,155.856537 339.122375,150.894058 
	C341.311859,146.037994 340.049713,141.426834 339.793732,136.888000 
	C339.635834,134.088104 338.991852,131.287796 339.654327,128.509491 
	C340.362549,125.539619 341.380615,122.705200 345.573151,122.766052 
z"/>
<path fill="#50A3C9" opacity="1.000000" stroke="none" 
	d="
M283.652985,326.778442 
	C288.187866,335.207092 292.196014,343.529724 296.514771,351.687866 
	C302.322632,362.658783 309.300110,372.924896 316.179321,383.639984 
	C303.442841,383.786957 291.543274,386.681915 281.199982,394.561615 
	C278.670563,396.488586 276.293488,396.070099 273.365601,394.882843 
	C270.776123,390.515320 271.559998,385.656097 271.319702,381.266449 
	C270.788696,371.567657 270.263031,361.759094 271.856140,351.980652 
	C272.720825,346.673340 271.896851,341.159119 272.851135,335.728455 
	C273.267090,333.361176 273.567871,330.923218 274.096375,328.090363 
	C277.028351,325.804901 280.128387,326.045349 283.652985,326.778442 
z"/>
<path fill="#A15A1F" opacity="1.000000" stroke="none" 
	d="
M338.677063,103.210190 
	C344.256836,99.853859 350.047394,98.105255 356.114899,98.091064 
	C363.287170,98.074280 370.624237,96.834305 377.558319,99.959572 
	C379.574188,100.868126 382.004669,100.096199 383.068420,103.667595 
	C383.752472,105.964294 388.361908,105.202904 391.179535,105.907318 
	C394.021698,106.617882 396.905670,107.121681 399.825134,108.587692 
	C403.028473,113.691933 402.714966,116.703583 398.515930,120.161102 
	C394.030029,123.854828 388.647675,124.892181 383.021973,124.470512 
	C373.214233,123.735382 363.513916,122.266258 353.628296,119.414459 
	C349.180084,118.310738 345.564819,116.333282 342.130249,114.103539 
	C338.071045,111.468285 337.122223,108.355682 338.677063,103.210190 
z"/>
<path fill="#F0E6DD" opacity="1.000000" stroke="none" 
	d="
M481.577209,332.885803 
	C483.120941,335.589600 485.782104,336.787659 488.050171,338.381256 
	C489.942383,339.710815 491.286835,341.302094 490.832825,343.725586 
	C490.416229,345.949371 488.563934,346.936493 486.664673,347.557007 
	C483.200775,348.688629 479.630432,349.100769 475.953949,349.059845 
	C472.192474,349.017975 468.344879,348.415283 464.266724,350.007690 
	C458.645752,346.981628 452.166107,348.286957 446.944794,345.048676 
	C443.774170,343.082275 440.454346,341.389374 438.014587,338.474854 
	C434.724854,334.544983 435.043579,331.687134 439.811035,329.770447 
	C452.439880,324.693207 465.100586,323.880066 477.417816,331.002655 
	C478.651489,331.716064 479.948151,332.320648 481.577209,332.885803 
z"/>
<path fill="#A15A1F" opacity="1.000000" stroke="none" 
	d="
M403.469238,159.017059 
	C403.725006,153.094772 400.517700,147.444672 401.675751,141.326935 
	C402.054565,139.325638 399.777557,139.919678 398.663666,140.147507 
	C382.586395,143.436096 368.464325,138.730499 355.179199,129.437561 
	C354.794067,128.873505 354.577728,128.597809 354.134674,128.174606 
	C353.928162,128.011368 353.982788,128.058609 353.957245,128.084137 
	C352.498383,126.231918 351.228271,124.308441 352.363647,121.405083 
	C354.874725,119.412323 356.717865,120.942329 358.475311,122.059341 
	C372.485779,130.964081 388.023407,131.103394 403.740723,129.865372 
	C407.827332,129.543488 411.269470,127.401253 413.814636,124.027756 
	C414.708099,122.843475 415.568420,121.586426 417.429199,120.988342 
	C418.270264,131.410934 418.878601,141.818863 412.097198,150.893661 
	C409.738312,154.050262 407.327240,157.037292 403.469238,159.017059 
z"/>
<path fill="#B77848" opacity="1.000000" stroke="none" 
	d="
M417.894440,120.624344 
	C413.737854,129.331100 406.813995,132.132065 397.843048,132.107544 
	C387.140106,132.078323 376.631500,131.627899 366.369598,128.069992 
	C361.680420,126.444191 358.040588,123.290352 353.479584,120.949478 
	C352.424805,120.269730 352.314392,119.504936 352.841614,118.341675 
	C359.090973,119.194000 365.017517,120.772865 371.042969,121.396965 
	C377.681274,122.084549 384.297607,123.942192 391.117157,122.062798 
	C398.729828,119.964828 400.970062,117.117241 400.011200,109.294533 
	C405.099792,109.472290 409.418915,112.103104 413.973419,114.057663 
	C416.580688,115.176552 417.774139,117.447334 417.894440,120.624344 
z"/>
<path fill="#666641" opacity="1.000000" stroke="none" 
	d="
M213.841309,565.692749 
	C218.996155,566.123230 223.257401,569.771240 228.886063,569.516296 
	C230.971024,569.421936 229.808777,573.504883 232.038925,575.113647 
	C233.685791,577.330933 233.671387,579.202637 231.618103,581.121704 
	C230.519867,582.081909 228.732239,577.461975 229.162521,581.388245 
	C229.890991,588.035522 226.373581,593.463196 225.157211,599.513977 
	C224.067291,604.935791 220.461990,607.964172 215.235596,609.402527 
	C210.098099,610.816467 208.301376,609.504089 209.076294,604.164673 
	C209.879913,598.627686 210.746414,593.126221 211.161835,587.523987 
	C211.693344,580.355957 212.907684,573.238525 213.841309,565.692749 
z"/>
<path fill="#803910" opacity="1.000000" stroke="none" 
	d="
M352.785767,117.900269 
	C353.109528,118.747757 353.098236,119.459457 353.113617,120.524452 
	C352.481415,123.139153 353.819519,125.141632 353.952209,127.703697 
	C350.734314,127.399902 349.779175,123.623863 346.309998,122.887955 
	C341.146545,125.358330 340.069885,128.491959 341.295044,135.428116 
	C342.197113,140.534958 343.051880,145.699921 340.489532,150.855209 
	C337.077118,147.301743 332.701508,145.406021 328.965515,142.211609 
	C329.257782,130.426056 329.986877,119.037651 334.071930,108.170837 
	C334.883850,106.011101 335.744476,103.851486 338.568115,102.936409 
	C338.162842,109.050667 341.063660,112.814224 346.715759,114.915588 
	C348.705444,115.655312 350.543488,116.803040 352.785767,117.900269 
z"/>
<path fill="#A7C732" opacity="1.000000" stroke="none" 
	d="
M369.511871,218.981064 
	C353.719391,228.120438 331.394867,220.994431 324.993805,204.515915 
	C327.069397,203.172348 329.162598,202.184265 331.587402,201.065567 
	C334.541840,200.537659 336.534088,202.435333 339.274292,203.011597 
	C341.394653,204.197662 342.407532,205.941757 343.626740,207.492828 
	C349.205322,214.589996 356.018555,218.836533 365.488861,217.035980 
	C366.794128,216.787811 368.123108,216.733398 369.610352,217.727478 
	C369.878693,217.992737 370.004456,218.382767 370.030945,218.585602 
	C370.057465,218.788422 369.703064,218.947189 369.511871,218.981064 
z"/>
<path fill="#803910" opacity="1.000000" stroke="none" 
	d="
M370.064209,217.714249 
	C369.549835,217.956955 369.188171,217.812729 368.896881,217.900955 
	C355.175049,222.057495 346.462616,215.241959 339.271759,204.319031 
	C336.606201,201.867188 335.108124,199.098618 334.272247,195.573853 
	C332.533051,190.039062 331.694489,184.628830 331.331421,179.253906 
	C331.083221,175.579391 332.278656,171.807388 332.877197,167.695023 
	C333.352417,165.588135 334.627258,164.898499 336.598969,164.672729 
	C335.809235,171.560776 333.780579,178.269745 335.993835,185.328186 
	C338.673920,193.875473 342.767120,201.735062 348.896271,208.071655 
	C354.235168,213.591263 361.080200,216.698639 369.266724,214.013779 
	C370.913940,213.473572 372.636810,212.332245 374.771118,213.741272 
	C374.153015,216.162613 371.773407,216.201019 370.064209,217.714249 
z"/>
<path fill="#F6B86C" opacity="1.000000" stroke="none" 
	d="
M337.097168,164.417267 
	C335.859467,165.606949 334.746307,166.471146 333.279480,167.323212 
	C325.105042,164.713043 322.385254,149.543274 328.560120,142.049271 
	C333.177826,143.860153 338.210999,144.889404 340.012634,150.623322 
	C339.883667,155.501144 340.204193,160.159882 337.097168,164.417267 
z"/>
<path fill="#666641" opacity="1.000000" stroke="none" 
	d="
M206.975250,552.471924 
	C210.048889,554.372498 209.558914,558.187195 210.948303,561.612427 
	C209.341553,575.858521 207.680084,589.734802 205.964249,603.604370 
	C205.784622,605.056213 205.305344,606.474182 204.925735,607.897339 
	C204.529755,609.381836 203.552765,609.577209 202.254318,609.049011 
	C201.168442,608.607117 199.899719,608.225281 200.233337,606.707581 
	C202.500229,596.394470 202.741791,585.821899 204.283585,575.413574 
	C205.390396,567.941833 206.071487,560.407043 206.975250,552.471924 
z"/>
<path fill="#666641" opacity="1.000000" stroke="none" 
	d="
M487.860718,680.761597 
	C487.952942,687.660583 487.942871,687.669678 481.393951,687.604309 
	C478.577606,687.576172 475.756348,687.434082 472.945709,687.548828 
	C465.330078,687.859680 465.261902,687.834106 465.340210,679.549622 
	C471.105164,677.635803 476.896942,677.167725 483.148438,677.827148 
	C485.400909,677.962646 486.662842,679.005432 487.860718,680.761597 
z"/>
<path fill="#A7C732" opacity="1.000000" stroke="none" 
	d="
M284.020538,326.577942 
	C281.128235,328.266724 278.087738,328.171234 274.594452,327.712280 
	C274.103638,323.754913 274.038452,319.861023 273.908203,315.513519 
	C273.261505,313.659607 273.573639,312.197937 273.695435,310.349854 
	C273.904449,306.257721 273.965912,302.575165 274.103149,298.436401 
	C277.154266,300.298706 276.485596,303.956604 277.503296,306.996552 
	C279.648285,313.403931 281.831940,319.798401 284.020538,326.577942 
z"/>
<path fill="#666641" opacity="1.000000" stroke="none" 
	d="
M599.948669,351.618164 
	C598.619385,351.904175 597.752869,351.566071 597.981567,349.909668 
	C598.205139,348.290894 598.282837,346.599548 598.080200,344.983246 
	C597.065125,336.884460 597.009155,337.005524 588.964294,335.879425 
	C586.391479,335.519287 581.991638,335.832336 582.310303,332.486511 
	C582.612488,329.313812 586.694275,331.373871 589.075806,331.070892 
	C591.025391,330.822876 593.037903,331.069916 595.482300,331.065186 
	C600.294434,337.154572 600.842224,344.041412 599.948669,351.618164 
z"/>
<path fill="#52A4C7" opacity="1.000000" stroke="none" 
	d="
M231.336182,581.515015 
	C232.771088,579.786987 232.056870,577.861389 232.278534,575.751953 
	C233.251480,575.606201 234.177872,575.823364 235.385559,576.116943 
	C235.793167,578.335815 237.570831,580.276611 236.187454,582.823853 
	C233.846085,584.697815 232.598557,583.450867 231.336182,581.515015 
z"/>
<path fill="#F6B86C" opacity="1.000000" stroke="none" 
	d="
M334.005371,195.544891 
	C336.629242,197.454742 337.323273,200.669617 338.936462,203.761383 
	C336.492615,204.011612 334.431885,202.745758 332.148315,201.199341 
	C332.555481,199.238647 333.191895,197.542343 334.005371,195.544891 
z"/>
<path fill="#BDE455" opacity="1.000000" stroke="none" 
	d="
M273.513000,310.112000 
	C273.874176,311.364075 273.905396,312.787903 273.889893,314.635803 
	C272.163849,313.669525 273.115356,311.915558 273.513000,310.112000 
z"/>
<path fill="#BDE455" opacity="1.000000" stroke="none" 
	d="
M377.011169,223.782059 
	C376.798187,223.858109 376.537476,223.709564 376.260864,223.308563 
	C376.585449,223.078430 376.824951,223.245544 377.011169,223.782059 
z"/>
<path fill="#000000" opacity="1.000000" stroke="none" 
	d="
M463.948242,678.559448 
	C458.365784,677.165161 452.665466,678.328796 446.592468,677.972168 
	C443.413818,676.973572 440.588043,677.760742 437.427582,677.323730 
	C423.005035,677.130066 408.982361,677.067200 394.492798,677.017090 
	C392.261444,675.997681 391.935516,674.101440 391.306854,672.412292 
	C389.637939,667.927917 386.496185,665.278931 381.718872,664.790344 
	C376.426117,664.249084 371.348297,662.414307 365.936066,662.454834 
	C363.791412,662.470947 360.687256,662.264709 362.689758,658.040833 
	C365.070099,652.555725 365.599640,647.022583 366.622833,641.659790 
	C369.806427,624.974182 372.033203,608.141174 373.291656,591.190735 
	C373.489136,588.530640 373.583893,585.842773 375.736084,583.363525 
	C381.579834,582.665527 386.933807,581.589478 391.737396,578.732300 
	C394.079376,577.339233 396.148834,577.995605 398.232483,579.046692 
	C400.572357,580.226929 402.429016,580.386536 404.972321,578.749756 
	C409.639984,575.745850 415.283783,576.504517 420.371552,577.171387 
	C427.681610,578.129700 433.229156,576.665527 436.763275,569.803467 
	C438.010498,567.381897 440.457245,567.999695 442.536041,568.050110 
	C444.754669,568.103943 444.590973,569.957275 445.175415,571.531738 
	C448.829437,581.375549 451.760834,591.427917 454.246765,601.613220 
	C455.270905,605.809265 456.251404,609.899658 455.136108,614.444824 
	C452.286469,626.058411 454.615662,637.549255 457.112793,648.910278 
	C459.262878,658.692322 460.963776,668.587891 463.948242,678.559448 
z"/>
<path fill="#000000" opacity="1.000000" stroke="none" 
	d="
M266.510651,676.904053 
	C267.625671,675.110352 266.097717,673.517700 265.516602,672.153015 
	C260.599945,660.606323 257.500580,648.443604 253.350143,636.639709 
	C251.267212,630.715881 254.761703,623.572083 260.818024,620.696350 
	C276.153351,613.414673 283.711212,600.575195 286.964661,584.598877 
	C287.152649,583.675842 287.180450,582.591309 286.164307,581.470947 
	C290.514618,582.301575 294.728363,581.776794 299.132812,580.182190 
	C302.577942,578.934875 306.062683,580.850830 309.433105,582.054688 
	C320.272461,585.926270 331.004211,587.454956 341.480988,579.944702 
	C343.923462,581.520203 343.463715,583.745605 343.277283,585.873413 
	C341.464417,606.565491 338.412781,627.087036 334.678131,647.510010 
	C334.206024,650.091797 333.968933,652.451843 336.531982,654.673340 
	C338.684326,662.049927 337.907990,669.141602 337.229279,676.621094 
	C326.230804,675.350403 315.514954,676.181274 304.707703,676.821899 
	C292.171387,677.565063 279.555542,676.967468 266.510651,676.904053 
z"/>
<path fill="#000000" opacity="1.000000" stroke="none" 
	d="
M363.235352,393.042511 
	C363.345001,386.915192 361.078918,381.471161 359.703918,376.036072 
	C356.318451,362.653381 357.545319,349.984863 362.655853,337.385254 
	C363.981323,334.117493 365.188538,330.704041 365.020447,326.628662 
	C368.509979,320.323181 368.985138,313.480194 371.027740,307.129761 
	C371.169220,306.689911 371.476624,306.303497 371.882080,305.563599 
	C374.140686,304.743530 374.468903,306.529785 374.886536,307.718170 
	C375.995605,310.873962 378.046631,313.739258 377.886993,317.642639 
	C379.801758,326.337646 385.074677,332.843018 390.033020,339.451172 
	C400.392029,353.257019 413.209198,364.718170 425.886932,376.291504 
	C426.708893,377.041809 427.746094,377.556305 428.813660,378.484009 
	C421.003571,379.716034 415.656494,386.983246 407.683228,387.635529 
	C401.449707,388.145477 395.787872,390.168182 390.077637,392.521393 
	C386.443695,394.018951 382.988678,391.104095 379.382355,390.483917 
	C374.329407,389.614929 369.855927,390.681335 365.102051,392.554993 
	C364.542328,393.335022 364.070160,393.472534 363.235352,393.042511 
z"/>
<path fill="#50A3C9" opacity="1.000000" stroke="none" 
	d="
M336.284546,655.371094 
	C332.023590,655.333923 331.487915,652.834656 332.131042,649.920837 
	C335.290497,635.606384 337.270111,621.122864 339.130981,606.591187 
	C340.230133,598.007874 340.923340,589.394165 341.912109,580.368652 
	C342.692322,576.233765 344.939270,575.193420 348.439026,576.357483 
	C349.205261,576.612366 350.203552,576.927673 350.856354,576.651306 
	C360.572052,572.538879 367.053223,581.598145 375.777008,582.858765 
	C374.240356,602.276184 372.011627,621.416016 368.915436,640.437073 
	C367.902924,646.657288 366.125488,652.752991 364.353821,659.118896 
	C362.185242,659.596130 360.373230,660.082275 358.118896,659.559875 
	C355.919586,659.062622 354.150818,658.387207 351.833771,658.560547 
	C346.480713,657.602722 341.399445,657.403198 336.284546,655.371094 
z"/>
<path fill="#F2BB84" opacity="1.000000" stroke="none" 
	d="
M362.607910,392.799713 
	C363.392822,392.837128 363.829193,392.911743 364.598206,392.948181 
	C367.171326,394.747437 369.638000,394.041473 372.035522,393.442841 
	C373.699646,393.027313 375.164154,393.125061 375.711548,394.896210 
	C376.292053,396.774323 374.851227,397.437897 373.362946,398.067902 
	C371.008759,399.064423 368.510223,398.965729 365.824524,399.819611 
	C371.068390,402.110291 376.301453,404.426300 381.562134,406.677734 
	C383.366516,407.449982 386.143341,407.918640 385.419434,410.334137 
	C384.604736,413.052490 381.920166,411.990051 379.840515,411.444855 
	C378.748169,411.158539 377.637482,410.616760 376.176453,412.128937 
	C377.818329,413.445679 379.389404,414.787445 381.048370,416.009979 
	C382.352173,416.970734 383.504700,417.974304 382.437042,419.682770 
	C381.409546,421.326904 379.914032,420.950958 378.477844,420.222260 
	C375.267639,418.593262 372.066101,416.947174 368.046570,414.891541 
	C369.396973,418.778503 372.282043,420.306030 374.169922,422.596069 
	C374.993561,423.595245 376.373077,424.508423 375.248718,425.982208 
	C374.158264,427.411499 372.555481,427.316864 371.199127,426.449921 
	C368.059235,424.442932 365.015472,422.285553 360.912109,419.495087 
	C362.258881,422.732483 363.208527,424.756256 363.925415,426.859406 
	C364.234375,427.765839 364.161682,428.928040 363.145874,429.527100 
	C362.112030,430.136810 361.232300,429.551239 360.474670,428.847656 
	C359.865997,428.282410 359.141571,427.755798 358.751343,427.054626 
	C354.387909,419.214569 348.077484,413.133453 341.081451,407.205383 
	C346.686401,401.932098 352.455719,396.966705 358.545532,391.901245 
	C359.997162,392.146393 361.128235,392.491638 362.607910,392.799713 
z"/>
<path fill="#666641" opacity="1.000000" stroke="none" 
	d="
M357.391083,658.291748 
	C359.630554,657.881409 361.408478,658.621765 363.618500,659.233582 
	C364.564240,660.039368 361.406494,660.758240 363.632660,660.809082 
	C368.977539,660.931213 374.085541,662.055115 379.308807,662.830872 
	C389.399963,664.329712 391.312500,665.629150 394.008728,676.635498 
	C393.816193,677.774963 393.240662,677.918884 392.261230,677.962524 
	C389.597504,680.332947 386.615082,679.558167 383.901123,679.418091 
	C371.479767,678.777161 359.068176,678.694824 346.652832,679.472534 
	C343.980164,679.639954 341.356628,679.388550 338.397461,678.247803 
	C337.687531,677.853638 337.399414,677.687988 337.048370,677.271118 
	C334.835846,670.113281 336.553986,663.021790 335.963196,655.580444 
	C341.441650,654.411804 346.641052,656.146423 352.393311,657.147034 
	C353.051453,657.990479 351.131927,660.372742 354.178864,658.984131 
	C355.117706,658.556274 356.113068,658.522522 357.391083,658.291748 
z"/>
<path fill="#666641" opacity="1.000000" stroke="none" 
	d="
M391.489197,680.596802 
	C394.328705,684.796448 393.915161,685.858093 389.531616,685.887146 
	C373.047882,685.996399 356.563354,685.989258 340.079102,686.006714 
	C338.837463,686.008057 337.079437,686.510437 337.064911,684.474304 
	C337.050629,682.464417 338.782318,682.893066 340.048401,682.874146 
	C352.032684,682.695251 364.017487,682.549500 376.001190,682.338257 
	C378.151062,682.300293 380.296448,682.005859 382.675232,681.473877 
	C385.414581,678.607300 388.251007,679.287476 391.489197,680.596802 
z"/>
<path fill="#666641" opacity="1.000000" stroke="none" 
	d="
M244.989685,680.437378 
	C251.539307,676.923096 258.234863,676.513916 265.404785,679.124023 
	C268.981995,686.841431 268.552307,687.507935 260.263885,687.633606 
	C257.451874,687.676270 254.638702,687.645203 251.826065,687.643372 
	C245.125809,687.639038 245.125809,687.637939 244.989685,680.437378 
z"/>
<path fill="#000000" opacity="1.000000" stroke="none" 
	d="
M391.922394,680.561035 
	C389.173157,680.947021 386.486755,680.973022 383.353455,681.058472 
	C381.439728,679.635498 379.564301,680.003662 377.779724,680.002563 
	C366.290344,679.995605 354.800934,680.018799 343.311676,679.977844 
	C341.570190,679.971619 339.606812,680.611877 338.120789,678.403381 
	C355.656464,678.013489 373.337219,678.007751 391.483185,678.006897 
	C391.960663,678.741516 391.972961,679.471252 391.922394,680.561035 
z"/>
<path fill="#F0E6DD" opacity="1.000000" stroke="none" 
	d="
M437.345825,677.437622 
	C439.932281,677.189270 442.836853,677.185669 445.937927,677.565979 
	C443.310944,677.860779 440.487427,677.771545 437.345825,677.437622 
z"/>
<path fill="#A7C732" opacity="1.000000" stroke="none" 
	d="
M313.356140,249.863556 
	C312.326660,257.896301 311.869019,265.906342 309.347412,273.914185 
	C308.531830,264.893311 307.311157,255.585327 308.262177,245.856750 
	C310.317108,246.806473 309.365173,251.526779 313.356140,249.863556 
z"/>
<path fill="#666641" opacity="1.000000" stroke="none" 
	d="
M529.004639,348.241791 
	C526.782532,348.958832 524.567871,350.054596 523.359924,347.855621 
	C522.578979,346.433868 524.172241,345.115692 525.460388,344.347382 
	C527.635071,343.050323 530.775146,341.484863 532.349243,343.310425 
	C534.680054,346.013519 531.054504,346.843842 529.004639,348.241791 
z"/>
<path fill="#A7C732" opacity="1.000000" stroke="none" 
	d="
M378.136627,317.952850 
	C375.998047,313.858490 373.681030,309.913544 372.411377,305.322235 
	C371.743317,299.729431 372.236450,294.385193 373.923126,289.040863 
	C377.505005,277.691498 379.920166,266.051453 381.693054,254.242889 
	C381.743134,259.659637 382.637482,265.062622 381.359161,270.463013 
	C381.060242,271.725830 380.589783,273.606537 381.211151,274.316620 
	C384.162537,277.689453 381.794342,280.603851 380.624023,283.435944 
	C376.472473,293.482483 376.747772,303.698761 378.823059,314.082245 
	C379.065308,315.294342 380.783447,316.840363 378.136627,317.952850 
z"/>
<path fill="#A15A1F" opacity="1.000000" stroke="none" 
	d="
M388.647156,146.256012 
	C393.765869,145.533600 397.317444,147.694901 400.210876,151.163208 
	C401.197266,152.345566 401.693542,153.946182 400.689758,155.285263 
	C399.595734,156.744858 398.272522,155.554443 397.158295,155.026031 
	C394.472595,153.752304 391.808716,152.425812 389.189301,151.021301 
	C387.094360,149.898026 386.127228,148.424561 388.647156,146.256012 
z"/>
<path fill="#A15A1F" opacity="1.000000" stroke="none" 
	d="
M356.198120,139.724060 
	C360.303192,138.437424 364.040924,138.380371 367.699280,139.940216 
	C369.184845,140.573639 370.262604,141.589844 369.895508,143.375076 
	C369.536865,145.119019 368.065704,145.109024 366.741058,145.016708 
	C363.441925,144.786758 360.135681,144.566040 356.858490,144.139969 
	C353.128265,143.654984 353.860229,141.908234 356.198120,139.724060 
z"/>
<path fill="#803910" opacity="1.000000" stroke="none" 
	d="
M361.280029,157.151794 
	C360.728821,156.985931 360.553589,156.935333 360.443665,156.821609 
	C358.121307,154.419189 359.045593,152.227264 361.182068,150.492203 
	C362.466736,149.448883 364.315033,149.630386 364.838745,151.428696 
	C365.638763,154.175919 365.525482,156.823257 361.280029,157.151794 
z"/>
<path fill="#803910" opacity="1.000000" stroke="none" 
	d="
M393.319916,164.070343 
	C390.590515,165.770432 388.929291,165.242355 388.557037,162.326065 
	C388.369446,160.856812 388.733521,159.367081 390.082062,158.426758 
	C391.088501,157.725006 392.401672,157.464493 393.252625,158.322769 
	C394.841064,159.924896 394.373230,161.890930 393.319916,164.070343 
z"/>
<path fill="#803910" opacity="1.000000" stroke="none" 
	d="
M353.982300,128.291199 
	C354.203552,128.233932 354.478943,128.456497 354.870758,128.923187 
	C354.670288,128.968552 354.353363,128.769791 353.982300,128.291199 
z"/>
<path fill="#F0E6DD" opacity="1.000000" stroke="none" 
	d="
M361.296326,181.395615 
	C360.333252,176.417847 362.038086,175.383377 366.346649,176.852600 
	C370.885010,178.400177 375.572021,179.543991 380.243713,180.655518 
	C382.809265,181.265930 383.604462,182.128448 382.223450,184.722137 
	C380.156891,188.603241 377.933624,191.651382 372.777557,191.196136 
	C367.026154,190.688339 363.738617,188.229523 361.296326,181.395615 
z"/>
<path fill="#000000" opacity="1.000000" stroke="none" 
	d="
M227.565796,575.331055 
	C226.256058,574.908813 225.718323,574.068420 226.460754,572.379272 
	C226.982239,573.459717 227.384384,574.292969 227.565796,575.331055 
z"/>
<path fill="#DED9D4" opacity="1.000000" stroke="none" 
	d="
M357.364868,658.056030 
	C356.455505,658.907410 355.299438,659.814209 354.001678,660.414917 
	C352.701141,661.016968 351.159576,663.142395 349.878601,661.054932 
	C348.565338,658.914856 351.289276,658.713135 352.579651,657.465332 
	C354.340881,656.970032 355.707489,657.423645 357.364868,658.056030 
z"/>
<path fill="#D2C5BD" opacity="1.000000" stroke="none" 
	d="
M374.457825,410.533264 
	C374.421722,410.476929 374.493927,410.589630 374.457825,410.533264 
z"/>
</svg>